<svg width="26" height="22" viewBox="0 0 26 22" xmlns="http://www.w3.org/2000/svg"><g fill="none" fill-rule="nonzero"><path d="M0 15.377c0-1.117.397-2.176.235-3.278a1.474 1.474 0 01.22-.957c.486-.725.412-1.45.324-2.277-.22-2.146-.074-4.278.911-6.28.294-.58.632-1.174 1.073-1.653C3.88-.286 5.394-.3 6.585.831c1.366 1.29 2.69 2.61 4.07 3.872.442.406.956.74 1.485 1.03.603.348 1.279.362 1.94.16.265-.073.53-.175.794-.262 1.043-.333 2.043-.203 2.792.566.75.768 1.47.797 2.367.377.294-.145.632-.203.955-.261 1.94-.392 2.852-.015 3.954 1.624.117.188.235.377.338.566 1.455 2.842.69 6.946-1.69 9.107-.427.377-.882.667-1.44.798-1.133.26-2.264.58-3.41.74-3.249.463-6.497.87-9.745 1.29a7.538 7.538 0 01-1 .072c-.97 0-1.793.232-2.586.87-1.235.987-2.66.74-3.69-.449A5.456 5.456 0 01.5 18.437c-.234-1.001-.352-2.03-.499-3.06zm1.793-4.104c-.544.319-.69.826-.69 1.392 0 1.145-.06 2.306.058 3.451.088.914.353 1.828.617 2.712.133.464.397.914.706 1.29.632.813 1.528.915 2.351.32.265-.189.5-.435.691-.696 1.352-1.828 1.955-3.93 2.249-6.12.147-1.131.088-2.306.088-3.452 0-1.377-.059-2.755-.44-4.075a28.542 28.542 0 00-1.088-3.089 2.706 2.706 0 00-1.176-1.349c-.382-.217-.735-.217-1.073.058-.588.45-.926 1.088-1.205 1.755-.544 1.334-.809 2.727-1.058 4.133-.147.798-.162 1.509.455 2.132.22.218.162.479-.015.74-.205.275-.338.565-.5.841l.03-.043zm7.143-5.816c0 .32-.03.537 0 .754.515 4.06.53 8.092-1.014 11.98-.044.1-.088.217-.059.318.044.13.132.348.235.363.265.043.559.029.823 0 3.263-.363 6.511-.71 9.774-1.102 1.044-.131 2.073-.363 3.116-.537a1.13 1.13 0 00.809-.522c1.072-1.58 1.793-3.278 1.851-5.206.03-.958-.176-1.857-.66-2.683-.692-1.19-1.147-1.378-2.455-1.06-.544.131-1.059.334-1.603.436-.602.116-1.205.188-1.807.203-.574.014-1.03-.044-1.132-.856-.073-.652-.794-.928-1.426-.783a3.085 3.085 0 00-.47.174c-.353.145-.882.203-1.029.464-.206.392.412.522.603.827.117.188.264.348.352.551.03.073-.014.218-.088.29-.058.058-.205.13-.279.102-.353-.145-.735-.261-1.058-.479a90.225 90.225 0 01-2.734-1.87c-.573-.407-1.117-.856-1.749-1.364z" fill="#131B43"/><path d="M8.936 5.457c.632.508 1.176.958 1.75 1.378a56.743 56.743 0 002.733 1.87c.323.204.691.334 1.058.48.074.028.22-.03.28-.102.058-.073.117-.218.088-.29-.088-.189-.25-.363-.353-.551-.176-.305-.808-.435-.603-.827.133-.26.662-.319 1.03-.464.146-.058.308-.13.47-.174.632-.145 1.337.13 1.425.783.103.798.559.87 1.132.856a10.78 10.78 0 001.808-.203c.544-.102 1.058-.305 1.602-.435 1.308-.32 1.764-.13 2.454 1.058.485.827.691 1.726.662 2.683-.074 1.93-.78 3.626-1.852 5.207-.206.29-.456.45-.809.522-1.043.174-2.072.406-3.115.536-3.249.392-6.511.74-9.774 1.103-.28.029-.559.043-.823 0-.103-.015-.191-.233-.236-.363-.029-.087.03-.218.06-.32 1.543-3.9 1.528-7.917 1.013-11.978-.029-.232 0-.45 0-.769zm2.381 7.745c-.44 0-.5-.015-.558 0-.147.043-.294.101-.441.16.103.115.191.29.323.347 1.69.74 3.454 1.175 5.277 1.436.103.014.22 0 .323-.058a.454.454 0 00.206-.232c.03-.087-.015-.218-.074-.29-.117-.116-.25-.232-.411-.261-1.661-.406-3.336-.798-4.645-1.102zm8.907-.856c.132-.043.28-.102.441-.16-.103-.16-.191-.406-.338-.464-.926-.333-1.867-.638-2.807-.942-.206-.073-.441-.16-.515.116-.029.101.147.29.265.377.911.58 1.896.884 2.954 1.073z" fill="#FFC229"/><path d="M1.764 11.316c.161-.275.294-.58.47-.84.176-.262.235-.523.015-.74-.618-.624-.603-1.335-.456-2.132.25-1.407.515-2.8 1.058-4.133.28-.668.603-1.291 1.206-1.755.352-.261.705-.276 1.087-.044.544.32.956.783 1.176 1.349.412 1.015.794 2.045 1.088 3.089.367 1.334.44 2.697.44 4.075 0 1.146.06 2.32-.088 3.452-.279 2.19-.896 4.292-2.248 6.12a3.123 3.123 0 01-.691.696c-.823.594-1.72.493-2.352-.32-.294-.39-.558-.826-.705-1.29-.265-.885-.53-1.798-.618-2.712-.102-1.146-.044-2.306-.058-3.451 0-.58.147-1.088.69-1.393.22.624.383 1.233.324 1.915-.088 1.377-.015 2.755.353 4.075.176.623.426 1.247.764 1.798.338.566 1.087.61 1.587.145.235-.217.456-.493.588-.783.191-.392.323-.827.426-1.247.794-3.118.823-6.294.5-9.47-.103-1.03-.294-2.06-.514-3.075-.133-.609-.441-1.145-1.162-1.247-.543-.087-1.087.363-1.322 1.262-.265 1-.427 2.03-.588 3.06-.118.768-.132 1.508.264 2.248.235.45.133.623-.367.928-.265.16-.573.275-.867.42z" fill="#FFF"/><path d="M11.317 13.202c1.308.304 2.969.71 4.644 1.116.147.044.294.16.412.261.059.058.088.203.073.29a.454.454 0 01-.206.232.614.614 0 01-.323.058c-1.822-.26-3.586-.696-5.276-1.435-.133-.058-.22-.232-.324-.348.147-.058.294-.116.441-.16.06-.029.118-.014.559-.014zM20.224 12.346c-1.058-.203-2.058-.508-2.94-1.073-.132-.087-.294-.276-.264-.377.073-.276.308-.189.514-.116.94.304 1.881.609 2.807.942.147.058.22.305.338.464-.161.058-.323.116-.455.16zM1.764 11.316c.294-.145.602-.275.882-.45.485-.304.602-.492.367-.927-.397-.726-.397-1.48-.265-2.248.162-1.03.324-2.06.588-3.06.235-.9.78-1.334 1.323-1.262.72.102 1.029.653 1.161 1.247.22 1.015.412 2.045.515 3.075.323 3.176.294 6.352-.47 9.484-.104.42-.236.856-.427 1.247-.132.29-.353.566-.588.784-.5.464-1.25.42-1.587-.145a7.217 7.217 0 01-.764-1.799c-.368-1.334-.441-2.712-.353-4.075.044-.681-.103-1.305-.324-1.914l-.058.043z" fill="#131B43"/></g></svg>
