<svg width="133" height="179" viewBox="0 0 133 179" xmlns="http://www.w3.org/2000/svg" xmlns:xlink="http://www.w3.org/1999/xlink"><defs><path id="a" d="M0 0h133v179H0z"/></defs><g fill="none" fill-rule="evenodd"><mask id="b" fill="#fff"><use xlink:href="#a"/></mask><g mask="url(#b)" fill-rule="nonzero"><path d="M65.277 8.27c8.612.161 17.206.34 25.818.5l16.8.322c1.715.035 3.413.125 5.128.196.301.018.584.036.885.09.512.07.884.338.99.874.088.464.212.945.194 1.41-.053 3.283-.371 6.53-1.131 9.725-.053.232-.142.446-.195.678-.141.625-.513 1.053-1.096 1.303-.159.071-.319.143-.478.25-.477.32-1.291.32-1.414.928-.089.446.336.963.512 1.463.46 1.285.938 2.57 1.362 3.855.389 1.195.46 2.462.407 3.711-.124 2.784-.265 5.586-.495 8.37-.23 2.784-.584 5.55-.902 8.334a157.026 157.026 0 01-2.211 13.723 7.183 7.183 0 01-.725 1.98c-.265.464-.3.875-.159 1.357l1.539 5.3a2664.667 2664.667 0 0113.705 49.449c.23.856.406 1.731.672 2.587.654 2.124.813 4.319.955 6.514.212 3.444.141 6.906-.036 10.35-.053 1.178-.194 2.374-.318 3.551-.053.447-.425.786-.867.714-.512-.089-1.043-.214-1.503-.446-.513-.268-.972-.375-1.503-.107a2.216 2.216 0 01-.672.196c-.725.107-1.273-.25-1.415-.999-.088-.464-.106-.946-.106-1.428.018-1.552.053-3.087.089-4.639 0-.5-.142-.661-.619-.571-.937.142-1.857.321-2.794.464-3.785.606-7.569 1.213-11.336 1.82l-.353.053c-.336.072-.531.286-.513.607.035.946.071 1.909.159 2.855.071.946.177 1.892.301 2.838.389 3.265.336 6.531.106 9.797-.018.374.141.535.459.606 3.909.893 7.817 1.767 11.725 2.659.654.143.796.036.955-.642.371-1.677.743-3.373 1.132-5.032.194-.803.424-1.606 1.22-2.088 1.025-.625 2.086-1.125 3.324-1.017.513.053.938.303.955.874.018.393.106.696.389.928.549.482.619 1.106.637 1.784.018 1.392-.283 2.713-.601 4.051-.159.696-.372 1.374-.531 2.07-.159.678-.053.875.584 1.018.566.124 1.167.214 1.733.321.46.089.919.214 1.361.339.425.125.637.499.602.946-.124 1.177-.266 2.355-.495 3.515-.195.928-.566 1.196-1.468 1.214-.531.017-1.061 0-1.592-.054-6.278-.678-12.555-1.213-18.851-1.356-2.882-.072-5.765-.179-8.665-.179-2.352 0-4.721.107-7.073.232-1.256.072-2.459-.107-3.661-.446-.513-.143-1.026-.25-1.538-.428-.69-.25-1.38-.214-2.087-.089-2.6.499-5.2 1.017-7.816 1.481-1.787.303-3.59.553-5.43.607-8.31.232-16.605.517-24.916.785-4.014.125-8.01.267-12.025.375-3.944.107-7.887.196-11.848.285-.53.018-1.061 0-1.592-.053-.636-.072-1.008-.411-1.043-1.018-.053-1.302-.053-2.623-.053-3.926 0-.481.23-.803.69-.91.565-.125 1.149-.196 1.733-.267.406-.054.83-.036 1.22-.143.177-.054.336-.286.424-.482.07-.143.018-.357 0-.535-.194-3.855-.371-7.727-.583-11.582-.177-3.034-.425-6.049-.62-9.065-.3-4.622-.6-9.262-.46-13.902.09-2.909.213-5.817.372-8.726.07-1.285-.053-2.445-.672-3.605-.831-1.499-1.503-3.105-2.263-4.64-.796-1.624-1.238-3.319-1.38-5.121-.23-3.087-.548-6.157-.813-9.226-.07-.768-.089-1.553-.106-2.32-.106-5.835-.23-11.653-.3-17.488-.072-5.943-.125-11.903-.125-17.846 0-13.687 0-27.356.036-41.044 0-2.141.141-4.283.283-6.406.141-1.981.406-2.23 2.387-2.302 4.474-.16 8.948-.375 13.44-.393 7.657-.036 15.332.018 22.989.071 3.713.036 7.427.143 11.14.232.036 0 .036-.017.036-.035zM22.57 126.639c-.176 5.158.425 10.119.76 15.115.178 2.606.39 5.211.567 7.834.106 1.606.159 3.213.247 4.801.053.946.142 1.891.213 2.819.919.536 1.945.197 2.917.411.566.125.743-.072.76-.66.054-1.963.071-3.926.125-5.889.017-.411-.195-.625-.443-.911-.46-.517-.318-1.052.301-1.195.69-.161 1.38-.286 2.087-.357 4.332-.464 8.665-.928 12.997-1.356.708-.072 1.415-.072 2.122-.072.443 0 .796.179 1.008.607.69 1.446 1.38 2.891 2.052 4.336.123.268.23.554.283.839.035.232-.071.536-.354.482-.495-.071-.601.125-.584.571.036.589.036 1.196.036 1.785.018 1.588.018 1.588 1.662 1.409.973-.107.99-.125 1.061-1.035.106-1.606.212-3.194.336-4.8.018-.286.142-.571.248-.839.017-.053.265-.071.3-.035.124.196.248.41.283.624.195 1.767.407 3.551.513 5.318.124 2.106.018 1.767 2.07 1.803.671.017.795-.143.848-.857.23-3.337.035-6.656-.69-9.922-.07-.304-.194-.5-.424-.714-.637-.571-.566-.892.265-1.16.39-.125.796-.232 1.203-.285 5.464-.928 10.91-1.892 16.375-2.766 4.244-.696 8.506-1.303 12.75-1.946 4.42-.66 8.86-1.338 13.28-1.98a847.464 847.464 0 0111.548-1.589c3.449-.446 6.897-.838 10.345-1.249a7.32 7.32 0 011.238-.036c.301 0 .566.143.725.429.159.321.106.678-.141.803-.655.357-.637.91-.602 1.535.036.892.053 1.784.036 2.676-.053 2.534-.248 2.249 2.086 1.428.478-.161.655-.446.637-.928v-.892c-.018-3.337-.035-6.657-.035-9.994 0-1.07.017-2.123-.655-3.051-.229-.321-.265-.785-.389-1.178-.601-2.106-1.22-4.229-1.786-6.335a2980.01 2980.01 0 01-12.608-47.897c-.955-3.747-1.839-7.495-2.741-11.26-.142-.571-.106-1.16-.142-1.749 0-.071.142-.196.23-.214.089-.018.265.018.301.09.194.285.389.588.513.91.265.66.477 1.338.707 2.016.035.107.124.196.177.303.124-.125.318-.214.336-.357.3-1.695.583-3.39.831-5.103.442-3.177.884-6.353 1.273-9.548.336-2.837.601-5.674.867-8.512.212-2.195.371-4.39.566-6.567.053-.535.035-1.053-.124-1.588-.778-2.623-1.539-5.247-2.299-7.87-.142-.464-.654-1.088 0-1.374.442-.196.672.535.937.91.425.589.495.607 1.132.179.636-.429 1.22-.803 1.397-1.714.654-3.087.866-6.245 1.132-9.368.035-.375-.213-.536-.549-.536-.406-.018-.831 0-1.237 0-6.667.054-13.316.143-19.983.16-14.855.054-29.71.072-44.564.108-.406 0-.83 0-1.237.018-.407.018-.655.214-.69.642-.07.946-.124 1.892-.23 2.838-.124 1.124-.3 2.23-.477 3.355-.053.285-.213.535-.354.803-.018.035-.248.017-.265-.036-.124-.321-.283-.66-.319-1a93.762 93.762 0 01-.336-4.443c-.141-2.498.3-2.177-2.37-2.23-3.412-.072-6.825-.125-10.256-.25-3.59-.125-7.18-.304-10.77-.447a58.602 58.602 0 00-1.768-.035c-.424 0-.601.214-.566.696.071 1.07.177 2.141.195 3.194.106 4.818.247 9.636.265 14.455.053 18.79.07 37.582.07 56.39 0 1.607-.14 3.213-.194 4.819-.017.839-.07 1.66.018 2.498.248 2.606.601 5.193.849 7.799.159 1.659.247 3.319.247 4.978 0 .75.16 1.375.478 2.035 2.493 5.121 4.65 10.404 6.596 15.757.283.785.495 1.588.725 2.391.088.322.3.75-.16.911-.406.142-.618-.268-.795-.554a36.638 36.638 0 01-1.167-1.998c-.53-.91-1.043-1.838-1.556-2.766-.018-.018-.16 0-.16 0-.035 1.07-.07 2.141-.088 3.194-.035.874-.018 1.695-.018 2.373zm72.787 22.343h.036c0-1.553-.018-3.088 0-4.64 0-.767.07-1.535.088-2.32.018-.375-.16-.553-.53-.535a9.73 9.73 0 00-1.044.125c-2.918.428-5.818.856-8.736 1.267-3.837.535-7.692 1.052-11.547 1.552-4.492.589-8.984 1.16-13.475 1.731-1.044.125-2.105.232-3.148.357-.955.107-1.061.25-.884 1.285.159.928.371 1.856.513 2.802.406 2.641.813 5.282.565 7.976-.053.643-.07 1.303-.088 1.963 0 .179-.018.375.053.536.053.143.195.321.336.339.283.071.584.071.884.053 3.236-.053 6.473-.107 9.709-.142 2.475-.018 4.916-.393 7.32-.928 3.68-.803 7.375-1.535 11.07-2.285 2.6-.517 5.2-.981 7.8-1.463.972-.178 1.06-.285 1.078-1.267v-6.406zm-65.2 7.191h.07v3.908c0 .536 0 1.071.036 1.607.018.446.23.624.672.606 1.167-.035 2.352-.089 3.519-.143 3.413-.124 6.808-.232 10.221-.356.708-.018.85-.161.867-.821.07-3.088.141-6.175.159-9.244 0-.571-.177-1.16-.354-1.713-.23-.661-.46-.768-1.22-.732-.53.018-1.061.071-1.592.125-2.988.232-5.977.446-8.965.678-1.167.089-2.334.196-3.52.303-.265.018-.406.215-.388.482.177 1.749.336 3.534.495 5.3zm33.21 9.548c4.067-.143 8.135-.179 12.167-.75 1.397-.196 2.794-.393 4.19-.607.142-.018.266-.16.39-.25-.142-.089-.319-.16-.425-.285-.159-.161-.265-.357-.389-.535.213-.072.442-.197.655-.179.654.018 1.308.018 1.927.143 1.91.357 3.82.732 5.712 1.178.76.178 1.503.25 2.264.214 3.236-.143 6.472-.304 9.708-.393 8.311-.232 16.605-.071 24.864 1.124.229.036.477.125.689.072.177-.054.336-.268.478-.428.035-.036.017-.107.035-.179.159-1.124.088-1.249-1.008-1.303-2.051-.124-4.12-.232-6.172-.374-4.757-.339-9.514-.696-14.288-.714-4.297 0-8.594.018-12.892.196-1.768.072-3.484.143-5.216-.321-1.362-.357-2.794-.428-4.192-.625-1.432-.214-2.776.429-4.19.5-.301.018-.584.107-.867.125-2.582.268-5.146.642-7.728.767-3.36.179-6.72.143-10.062.232-1.715.036-3.413.125-5.11.232-.266.018-.637.143-.743.339-.301.589-.407 1.285-.089 1.874.265.5.849.232 1.309.268.23.018.477 0 .707-.018 2.741-.071 5.5-.179 8.276-.303zm58.003-12.51c-.725.018-.99.214-1.132.839-.212 1.035-.406 2.07-.618 3.105-.054.267.07.517.3.535.69.036 1.45.179 2.069-.036.548-.196.478-.999.619-1.552.106-.393.23-.785.301-1.196.159-.838-.655-1.713-1.539-1.695z" fill="#131B43"/><path d="M22.569 126.635c0-.678-.018-1.516 0-2.337.017-1.071.053-2.142.088-3.195 0 0 .142-.017.16 0 .53.91 1.043 1.838 1.555 2.766.39.679.76 1.339 1.168 1.999.176.286.389.696.795.553.46-.16.248-.589.16-.91-.23-.803-.443-1.606-.725-2.391-1.946-5.372-4.085-10.636-6.597-15.757a4.472 4.472 0 01-.477-2.035c0-1.659-.088-3.337-.248-4.979-.247-2.605-.583-5.193-.848-7.798-.089-.82-.036-1.66-.018-2.498.053-1.606.194-3.212.194-4.819-.017-18.79-.017-37.582-.07-56.39-.018-4.819-.16-9.637-.266-14.455-.017-1.071-.141-2.142-.194-3.195-.035-.481.141-.696.566-.696.583 0 1.185 0 1.768.036 3.59.143 7.18.321 10.77.446 3.413.107 6.826.179 10.256.25 2.67.054 2.228-.268 2.37 2.23.088 1.482.212 2.963.336 4.444.035.34.194.66.318 1 .018.035.248.053.266.035.14-.25.3-.517.353-.803.177-1.106.354-2.23.478-3.355.106-.945.159-1.891.23-2.837.035-.428.265-.642.69-.642.406-.018.83-.018 1.237-.018 14.855-.036 29.709-.054 44.563-.107 6.667-.018 13.316-.107 19.983-.161.407 0 .831-.018 1.238 0 .336.018.584.178.548.535-.283 3.141-.495 6.282-1.132 9.37-.194.891-.778 1.284-1.397 1.712-.636.429-.707.41-1.131-.178-.266-.375-.495-1.107-.938-.91-.636.285-.123.91 0 1.374.761 2.623 1.521 5.246 2.299 7.87.16.535.177 1.035.124 1.588-.212 2.195-.371 4.39-.566 6.567-.265 2.837-.53 5.675-.866 8.512-.372 3.194-.814 6.37-1.273 9.547a161.561 161.561 0 01-.832 5.104c-.017.143-.23.232-.336.357-.053-.107-.141-.196-.176-.303-.248-.679-.46-1.357-.708-2.017-.124-.321-.318-.625-.513-.91-.053-.071-.212-.107-.3-.09-.089.019-.23.143-.23.215.035.589 0 1.195.141 1.749a648.987 648.987 0 002.741 11.26 2811.628 2811.628 0 0012.609 47.897c.583 2.123 1.185 4.229 1.786 6.335.106.392.159.856.389 1.178.672.945.654 1.98.654 3.051 0 3.337.018 6.656.036 9.993 0 .304-.018.589 0 .893.017.464-.159.749-.637.928-2.334.821-2.14 1.124-2.087-1.428.018-.892 0-1.785-.035-2.677-.035-.607-.053-1.178.601-1.534.248-.125.301-.482.142-.804-.159-.303-.407-.428-.725-.428-.407-.018-.831 0-1.238.036-3.449.41-6.897.803-10.345 1.249-3.855.5-7.71 1.035-11.548 1.588-4.438.643-8.86 1.303-13.28 1.981-4.245.643-8.506 1.249-12.75 1.945-5.465.892-10.911 1.838-16.376 2.766a9.164 9.164 0 00-1.202.286c-.831.285-.902.589-.265 1.16.247.214.37.428.424.714.707 3.283.92 6.584.69 9.921-.053.714-.177.875-.85.858-2.068-.054-1.944.302-2.068-1.803-.106-1.785-.319-3.552-.513-5.318-.018-.214-.16-.428-.283-.625-.018-.035-.283-.018-.3.036-.107.268-.23.553-.248.839-.124 1.606-.23 3.194-.336 4.8-.071.91-.089.928-1.061 1.035-1.645.178-1.645.178-1.663-1.41 0-.589 0-1.195-.035-1.784-.018-.446.089-.661.584-.571.3.053.389-.25.353-.482a3.601 3.601 0 00-.283-.839 479.368 479.368 0 00-2.051-4.336c-.194-.429-.566-.607-1.008-.607-.707 0-1.415 0-2.122.071-4.333.447-8.665.893-12.998 1.357-.707.071-1.397.196-2.086.357-.62.142-.76.678-.301 1.195.248.286.46.5.442.91-.053 1.963-.07 3.926-.124 5.889-.017.589-.194.785-.76.66-.973-.214-1.998.108-2.918-.41-.07-.946-.16-1.892-.212-2.82-.089-1.606-.142-3.212-.248-4.8-.176-2.605-.389-5.211-.566-7.834-.318-5.014-.92-9.993-.742-15.151zm21.468-68.632c-.07-2.338-.195-6.443-.354-10.53-.017-.713-.177-1.409-.283-2.105-.017-.143-.194-.25-.283-.375-.07.09-.159.197-.176.286-.124.767-.266 1.517-.337 2.284-.123 1.713-.247 3.444-.282 5.157-.124 6.532-.248 13.08-.301 19.612-.018 1.928-.106 3.801-1.008 5.532-.584 1.107-.637 2.267-.283 3.462.601 2.053 1.185 4.105 1.786 6.157.142.517.336 1.017.407 1.552.371 2.945.725 5.89 1.079 8.852.406 3.426.795 6.852 1.202 10.261.425 3.533.849 7.084 1.273 10.618.407 3.479.778 6.959 1.203 10.439.424 3.426.866 6.835 1.326 10.243.318 2.356.69 4.694 1.061 7.049.07.393.248.785.425 1.16.053.107.3.143.442.143.088 0 .23-.143.23-.232.053-.518.088-1.053.088-1.588 0-1.892-.46-3.748-.07-5.657.158-.839.37-1.606.777-2.338.495-.874 1.008-1.749 1.45-2.659.513-1.071.266-1.731-.778-2.373-.07-.054-.23-.036-.318.017-.088.054-.16.197-.141.286.053.286.176.553.23.839.035.214.14.517.035.66-.566.75-1.185 1.463-1.769 2.177-.512-.767-.389-1.659-.512-2.498-.071-.464-.053-.946-.142-1.41-.106-.517.035-.767.566-.857.283-.053.283-.356.212-.571-.141-.446-.336-.892-.495-1.338-.548-1.517-1.008-3.034-1.202-4.64-.372-3.301-.796-6.603-1.203-9.904-.424-3.48-.866-6.96-1.309-10.439-.3-2.481-.618-4.944-.92-7.424-.3-2.41-.636-4.836-.848-7.263-.265-2.855-.725-5.657-1.857-8.298-.283-.66-.495-1.356-.849-1.963-.406-.678-.283-1.213.16-1.785.83-1.088 1.538-2.248 2.016-3.533.247-.696.654-1.481-.372-1.98-.106-.054-.159-.304-.177-.465-.017-.357 0-.714.018-1.07.053-3.873.142-7.799.283-13.491zm35.138 50.002c.389.535.672.91.937 1.285 1.22 1.749 2.547 3.408 4.138 4.854.973.874 2.034 1.606 3.29 2.034 1.06.375 1.962.107 2.74-.696a5.577 5.577 0 001.309-2.284c.46-1.606.725-3.248.583-4.925-.053-.696-.265-1.392-.512-2.053-.319-.785-1.203-.82-1.663-.107a4.947 4.947 0 00-.707 2.177c-.124 1.125-.212 2.249-.442 3.355-.424 1.91-.584 2.231-2.37.964-1.839-1.303-3.342-2.998-4.863-4.64-.07-.071-.124-.25-.088-.303.053-.071.212-.107.318-.107.76.036 1.52.107 2.281.107.3 0 .602-.196.602-.535 0-.268-.107-.572-.266-.786-.123-.178-.371-.285-.583-.374a26.69 26.69 0 00-5.217-1.589c-.814-.16-1.344.215-1.592 1.035-.07.232-.106.464-.123.696a157.76 157.76 0 00-.018 4.087c0 .285.088.589.194.856.142.34.407.607.796.589.39-.017.672-.249.778-.624.106-.393.177-.803.248-1.214.07-.517.124-1.035.23-1.802zM75.444 91.07c-1.68-.214-3.29.036-4.846.642-1.892.75-2.723 2.838-1.892 4.711.212.482.513.928.813 1.375 1.238 1.748 2.741 3.265 4.35 4.675.301.268.673.482 1.026.678.336.179.69.125.973-.161.283-.267.407-.624.247-.963-.212-.482-.46-.964-.778-1.392-.795-1.035-1.644-2.017-2.458-3.034-.548-.696-1.096-1.392-1.609-2.123-.371-.554-.194-1 .425-1.267.265-.107.565-.197.848-.25l4.846-.964c.106-.018.23.036.336.072-.053.142-.071.32-.16.446-.389.589-.848 1.142-1.202 1.748-.23.393-.106.84.212 1.143.336.303.725.41 1.132.196.318-.16.637-.321.884-.571.814-.768 1.592-1.588 2.388-2.391.194-.215.37-.464.53-.714.318-.571.3-1.142-.053-1.678a2.597 2.597 0 00-.584-.66 168.349 168.349 0 00-3.43-2.802 4.162 4.162 0 00-.902-.535c-.425-.196-.884-.125-1.15.16-.265.286-.3.768-.035 1.16.23.34.513.643.796.946.353.393.76.75 1.114 1.142.07.072.124.232.088.322-.017.071-.194.107-.3.107-.549-.018-1.079-.018-1.61-.018zm12.095.464v.071c.407 0 .831-.035 1.238 0 .937.09 1.875.143 2.812.34.849.16 1.167.66 1.167 1.534 0 .232 0 .482-.053.714-.371 1.552-.778 3.105-1.167 4.657-.018.107-.124.232-.212.25-.053.018-.195-.09-.248-.178-.318-.5-.601-1.035-.92-1.517-.548-.839-1.043-1.106-1.538-.874-.513.231-.601.838-.212 1.73.513 1.196 1.025 2.41 1.574 3.587.194.429.46.821.707 1.232.283.446.725.589 1.22.517a17.973 17.973 0 004.103-1.053 2.13 2.13 0 00.601-.374c.265-.232.53-.554.371-.928-.141-.286-.424-.607-.707-.714-.371-.125-.813-.089-1.22-.072-1.167.072-1.167.072-.902-1.106.124-.571.318-1.142.424-1.731.23-1.106.531-2.213.62-3.32.265-3.23-1.274-4.692-3.697-5.139a7.239 7.239 0 00-.866-.125c-2.14-.089-4.227.25-6.313.607-.23.036-.442.16-.637.286a.938.938 0 00-.424.91c.035.392.283.66.654.75.336.07.69.124 1.043.106.814-.017 1.698-.107 2.582-.16zm-4.65-19.701c-.407.053-.885.071-1.345.16-3.519.714-7.055 1.357-10.54 2.177-7.62 1.785-15.066 4.248-22.6 6.353-.282.072-.547.214-.813.322-.035.017-.088.107-.07.16 0 .036.07.107.123.107.46 0 .938.054 1.38-.018 1.45-.232 2.9-.5 4.332-.785a325.262 325.262 0 0021.787-5.246c2.316-.643 4.633-1.357 6.932-2.07.548-.179 1.079-.447 1.61-.696.07-.036.07-.215.105-.322 0-.017-.088-.053-.141-.071-.23-.018-.46-.036-.76-.071zM42.586 32.252h.053c0 2.605-.018 5.21.018 7.816 0 .589.159 1.16.265 1.749.018.09.159.143.247.214.053-.09.142-.178.16-.268.159-1.998.3-4.015.442-6.031.07-1.071.159-2.124.176-3.195.054-2.908.089-5.817.089-8.708 0-.643-.195-1.285-.354-1.91-.035-.124-.247-.285-.371-.267-.124.018-.3.196-.318.339-.142.75-.354 1.517-.354 2.266-.07 2.66-.053 5.318-.053 7.995zm47.092-5.264v.07c.884-.07 1.768-.124 2.635-.213.318-.036.654-.197.601-.5-.035-.196-.407-.393-.672-.464-.336-.09-.707-.09-1.043-.053-1.397.16-2.794.303-4.191.535-.495.071-.902.071-1.362-.143-.955-.464-1.91-.91-2.9-1.303-.654-.25-1.344-.392-2.034-.57-.088-.018-.3.053-.3.106-.018.161 0 .375.088.447 1.945 1.588 4.12 2.748 6.543 3.372.106.036.23.018.354.018.389.018.548-.232.442-.714-.035-.16-.07-.339-.124-.5.177-.035.336-.088.513-.088h1.45zM73.852 14.746c-.195.017-.425.018-.654.071l-8.913 1.98c-.106.019-.23.054-.336.108-.088.053-.177.16-.177.25 0 .107.089.25.177.285.796.375 1.61.714 2.529.553 2.37-.41 4.721-.927 6.95-1.855.353-.143.672-.447.99-.696.159-.125.018-.536-.177-.59-.124-.035-.23-.07-.39-.106zM63.047 73.67a4.58 4.58 0 00-.636.071c-3.944.696-7.887 1.392-11.813 2.088-.283.054-.566.178-.814.303-.07.036-.088.179-.106.286 0 .018.089.09.142.09.23.035.46.088.69.07 1.467-.124 2.935-.25 4.385-.41 2.582-.268 5.11-.839 7.622-1.463.389-.09.778-.268 1.149-.429.142-.071.23-.25.336-.374-.124-.072-.23-.179-.354-.232-.123-.036-.247 0-.6 0zm-9.408 57.8c.124-.053.3-.089.319-.16.07-.214.141-.464.106-.678-.212-1.41-.53-2.784-1.097-4.087-.194-.428-.353-.821-.406-1.32-.124-1.107-.796-1.928-1.645-2.606-.07-.053-.265-.089-.318-.053-.124.107-.248.267-.248.41.018.75.46 1.321.867 1.892.247.339.318.678.336 1.124.123 1.856.778 3.551 1.715 5.157.07.143.248.214.371.321zm4.598-112.978c1.203-.178 2.423-.357 3.625-.57.336-.054.655-.233.973-.376.07-.035.124-.196.124-.303 0-.09-.089-.25-.177-.25-.336-.053-.69-.143-1.026-.107-1.397.09-2.794.196-4.19.321-.655.054-1.239-.053-1.858-.321-.69-.303-1.45-.428-2.175-.625-.053-.017-.159.125-.23.215-.035.035-.035.125-.017.16.106.143.194.321.336.393 1.432.785 2.847 1.677 4.615 1.463zm40.249 7.245c-.142.054-.301.107-.46.16.106.144.177.286.3.411.124.125.283.215.443.286 1.927.874 3.855 1.767 5.782 2.623.372.16.778.25 1.185.34.159.035.336 0 .513-.019.053 0 .124-.071.124-.107.035-.107.07-.267.035-.303-.265-.232-.531-.482-.831-.643-2.016-1.106-4.174-1.909-6.366-2.587-.213-.071-.46-.107-.725-.16zm11.512 5.675c.106-.053.247-.09.3-.178.071-.143.177-.375.107-.464-.443-.696-.885-1.392-1.415-2.017-.372-.428-.867-.785-1.362-1.088-.194-.107-.53.017-.813.035.035.214 0 .464.106.643a9.245 9.245 0 002.758 2.926c.089.072.213.09.319.143zm-51.107 4.14c.018.054.018.125.053.143.089.054.23.125.301.09a15.653 15.653 0 004.244-3.391c.07-.09.106-.215.142-.322a.173.173 0 00-.036-.16c-.07-.072-.176-.197-.265-.197a.994.994 0 00-.495.143c-1.432.946-2.723 2.052-3.82 3.373-.07.09-.088.214-.124.321zm-9.708 80.661c-.035.107-.124.232-.106.303.53 1.392 1.362 2.606 2.334 3.712.142.178.407.285.601.053.089-.107.142-.339.089-.481a8.984 8.984 0 00-2.3-3.516.702.702 0 00-.3-.16c-.088 0-.212.053-.318.089zm55.28-93.045c-.142.089-.354.16-.478.32-.053.072.071.34.177.465.814.892 1.839 1.48 2.989 1.802.177.054.495-.071.619-.214.088-.125.07-.482-.036-.625-.831-1.017-1.927-1.534-3.271-1.748zm-53.83-10.03c-.53.054-1.22.108-1.91.197-.124.018-.3.214-.3.357-.018.125.123.285.23.41.07.072.194.125.318.143 1.273.25 2.529.214 3.766-.232.124-.054.266-.25.266-.375 0-.107-.177-.303-.301-.321-.619-.09-1.255-.125-2.069-.178zm38.144 9.815c-.937.125-1.963.25-3.006.393a.593.593 0 00-.3.143c-.072.071-.142.196-.142.285 0 .09.124.215.194.232 1.15.018 2.317.072 3.466 0 .867-.053 1.362-.428 1.168-.696-.319-.481-.832-.267-1.38-.357zM63.312 33.876c.107.035.23.143.301.107 1.167-.428 2.104-1.196 2.918-2.124a.267.267 0 00.07-.16c0-.161.018-.375-.07-.464-.089-.09-.336-.161-.46-.09-1.15.607-2.051 1.5-2.776 2.588-.018.018.017.09.017.143zM59.74 31.36c.106-.018.23-.036.336-.072.796-.321 1.38-.874 1.804-1.588.088-.143.141-.428.07-.482-.158-.125-.441-.268-.6-.214-.938.303-1.592.946-1.963 1.856-.089.214.159.535.353.5zm-36.8-18.506c-.743.268-1.627.357-2.299.982-.035.035-.088.107-.088.142.017.107.035.268.088.286 1.061.232 2.052 0 2.953-.59.177-.106.107-.517-.088-.606-.16-.053-.318-.107-.566-.214zm22.193 114.21c.071.071.177.214.3.285.072.036.23-.018.302-.071.424-.339.636-.821.654-1.356 0-.161-.212-.393-.39-.5-.088-.054-.335.036-.441.143-.354.392-.495.892-.425 1.499zm51.708-99.273c.018.07.035.142.07.16.708.357 1.433.696 2.158 1.017.089.036.283-.107.407-.196.018-.018-.035-.232-.124-.303-.69-.554-1.432-.928-2.334-.91-.07.035-.124.16-.177.232z" fill="#41914E"/><path d="M63.365 165.716c-2.758.125-5.535.232-8.293.357-.23.018-.478.036-.708.018-.46-.036-1.043.232-1.308-.267-.319-.589-.212-1.285.088-1.874.106-.197.478-.321.743-.339a121.31 121.31 0 015.11-.232c3.36-.09 6.72-.054 10.063-.232 2.581-.125 5.146-.5 7.727-.768.301-.035.584-.125.867-.125 1.397-.071 2.741-.696 4.191-.499 1.397.196 2.83.267 4.191.624 1.75.464 3.448.393 5.217.322 4.297-.179 8.594-.215 12.891-.197 4.775 0 9.532.375 14.289.714 2.051.143 4.12.25 6.172.375 1.078.071 1.167.178 1.008 1.303 0 .053 0 .142-.036.178-.159.161-.3.375-.477.428-.212.054-.46-.035-.69-.071-8.258-1.178-16.552-1.356-24.863-1.124-3.236.089-6.473.249-9.709.392a8.029 8.029 0 01-2.263-.214c-1.893-.446-3.802-.821-5.712-1.178-.637-.125-1.291-.125-1.928-.142-.212 0-.442.124-.654.178.124.178.23.375.389.535.124.125.283.197.424.286-.123.089-.247.232-.389.25-1.397.214-2.794.41-4.19.606-4.033.518-8.1.554-12.15.696z" fill="#BACCDB"/><path d="M121.369 153.207c.884-.018 1.697.857 1.538 1.696-.071.41-.195.803-.301 1.195-.141.553-.088 1.356-.619 1.553-.618.214-1.361.071-2.069.035-.247-.017-.353-.267-.3-.535.194-1.035.407-2.07.619-3.105.124-.625.406-.821 1.132-.839z" fill="#41914E"/><path d="M44.037 58.002c-.142 5.693-.248 9.619-.336 13.527-.018.357-.035.714-.018 1.07.018.161.071.411.177.465 1.008.5.619 1.285.371 1.98-.477 1.286-1.184 2.463-2.015 3.534-.443.571-.566 1.106-.16 1.785.354.606.566 1.302.85 1.963 1.13 2.658 1.59 5.442 1.856 8.298.212 2.427.566 4.836.849 7.263.3 2.48.619 4.943.92 7.423.441 3.48.866 6.96 1.308 10.44.407 3.301.831 6.602 1.202 9.904.177 1.606.655 3.141 1.203 4.64.16.446.354.874.495 1.338.07.232.07.535-.212.571-.53.089-.654.339-.566.857.088.464.07.945.142 1.409.123.839.017 1.731.512 2.499.602-.732 1.22-1.428 1.769-2.177.106-.143.017-.447-.036-.661-.053-.285-.177-.553-.23-.838-.017-.09.071-.232.142-.286.07-.053.23-.071.318-.018 1.044.66 1.291 1.303.778 2.374-.424.91-.955 1.784-1.45 2.659-.407.731-.619 1.499-.778 2.337-.371 1.91.07 3.783.07 5.657 0 .536-.035 1.053-.088 1.588 0 .09-.159.232-.23.232-.159 0-.389-.035-.442-.142-.176-.375-.353-.75-.424-1.16a307.758 307.758 0 01-1.061-7.049c-.46-3.409-.902-6.835-1.326-10.243-.425-3.48-.796-6.96-1.203-10.44-.406-3.533-.849-7.084-1.273-10.618-.407-3.426-.796-6.852-1.203-10.26-.353-2.945-.707-5.907-1.078-8.852-.071-.517-.265-1.035-.407-1.552-.584-2.053-1.185-4.105-1.786-6.157-.354-1.196-.3-2.356.283-3.462.902-1.749.99-3.605 1.008-5.532.053-6.531.177-13.08.3-19.612.036-1.713.16-3.444.283-5.157.053-.768.213-1.535.336-2.285.018-.107.124-.196.177-.285.106.125.266.232.283.375.124.696.265 1.41.283 2.105.212 4.07.336 8.156.407 10.493zM79.175 108.005c-.106.749-.16 1.267-.248 1.784-.07.411-.141.821-.247 1.214-.107.374-.39.606-.779.624-.389.018-.654-.232-.795-.589-.106-.267-.195-.571-.195-.856-.017-1.356 0-2.73.018-4.087 0-.232.053-.482.124-.696.23-.821.76-1.195 1.591-1.035a26.69 26.69 0 015.217 1.589c.212.089.46.196.584.374.159.214.265.518.265.785 0 .34-.3.536-.601.536-.76 0-1.521-.072-2.282-.107-.106 0-.265.035-.318.107-.035.071.018.232.088.303 1.521 1.66 3.024 3.337 4.864 4.64 1.786 1.267 1.945.946 2.37-.964.247-1.088.317-2.23.441-3.355.089-.785.3-1.516.708-2.177.442-.731 1.344-.696 1.662.107.265.643.46 1.357.513 2.053.141 1.677-.124 3.319-.584 4.925-.247.874-.672 1.642-1.308 2.284-.76.803-1.68 1.053-2.741.696-1.238-.428-2.317-1.16-3.29-2.034-1.591-1.428-2.9-3.105-4.138-4.854-.247-.357-.53-.714-.92-1.267zM75.444 91.07h1.591c.106 0 .265-.036.3-.107.036-.09-.017-.25-.088-.321-.371-.393-.76-.75-1.114-1.142-.283-.304-.566-.607-.796-.946-.265-.375-.212-.875.036-1.16.265-.286.707-.375 1.15-.16.318.142.636.32.901.535 1.15.928 2.299 1.855 3.43 2.801.23.179.425.41.584.66.354.536.39 1.107.053 1.678-.141.25-.318.5-.53.714a101.15 101.15 0 01-2.387 2.391c-.248.232-.566.41-.885.571-.406.196-.813.107-1.131-.196-.319-.286-.442-.732-.213-1.142.354-.607.814-1.16 1.203-1.75.088-.124.106-.302.159-.445-.106-.018-.23-.09-.336-.072-1.61.322-3.236.643-4.845.964a5.087 5.087 0 00-.85.25c-.618.268-.795.714-.424 1.267a30.419 30.419 0 001.61 2.123c.813 1.018 1.662 2 2.458 3.034.318.411.566.91.778 1.392.159.357.035.696-.248.964-.283.267-.636.321-.972.16a4.439 4.439 0 01-1.026-.678c-1.592-1.41-3.112-2.909-4.35-4.675-.3-.429-.602-.892-.814-1.374-.83-1.874 0-3.962 1.892-4.711 1.557-.59 3.184-.84 4.864-.625zM87.54 91.534c-.885.071-1.752.142-2.636.178-.336.018-.707-.036-1.043-.107-.371-.09-.601-.357-.654-.75-.036-.392.106-.713.424-.91.195-.124.407-.25.637-.285 2.086-.357 4.19-.678 6.313-.607.3.018.583.072.866.125 2.44.446 3.962 1.91 3.696 5.14-.088 1.124-.389 2.212-.619 3.319-.123.589-.3 1.142-.424 1.73-.265 1.178-.265 1.178.902 1.107.407-.018.849-.053 1.22.071.283.108.566.411.707.714.177.357-.088.678-.371.928a2.111 2.111 0 01-.601.375 16.373 16.373 0 01-4.103 1.053c-.513.071-.937-.072-1.22-.518-.248-.392-.513-.803-.707-1.231a158.363 158.363 0 01-1.574-3.587c-.372-.892-.283-1.499.212-1.73.513-.233 1.008.035 1.538.874.319.5.602 1.017.92 1.516.053.09.195.197.248.179a.42.42 0 00.212-.25c.406-1.552.796-3.105 1.167-4.658.053-.232.053-.464.053-.713 0-.875-.318-1.357-1.167-1.535-.92-.178-1.875-.25-2.812-.34-.407-.035-.831 0-1.238 0 .053-.035.053-.07.053-.088z" fill="#131B43"/><path d="M82.888 71.833c.301.035.53.053.76.07.054 0 .16.054.142.072-.017.107-.035.286-.106.322-.53.25-1.043.535-1.61.696-2.298.713-4.614 1.427-6.931 2.07a314.632 314.632 0 01-21.787 5.246c-1.432.286-2.882.553-4.332.785-.46.072-.92.018-1.38.018-.035 0-.106-.071-.123-.107 0-.053.035-.143.07-.16.266-.125.53-.25.814-.322 7.533-2.106 14.978-4.568 22.6-6.353 3.484-.82 7.02-1.463 10.54-2.177.477-.09.937-.107 1.343-.16z" fill="#FFF"/><path d="M42.587 32.252c0-2.659-.018-5.336.017-7.995.018-.767.213-1.516.354-2.266.036-.143.195-.321.319-.339.106-.018.335.143.37.268.142.624.355 1.267.355 1.91 0 2.908-.036 5.817-.089 8.708-.018 1.07-.106 2.123-.177 3.194a694.605 694.605 0 01-.442 6.032c0 .089-.106.178-.159.267-.088-.071-.23-.125-.247-.214-.107-.57-.248-1.16-.266-1.749-.035-2.605-.017-5.21-.017-7.816h-.018zM89.679 26.987h-1.415c-.176 0-.336.072-.512.09.035.16.088.339.123.5.089.481-.07.731-.442.713-.124 0-.247 0-.353-.018-2.44-.624-4.598-1.784-6.544-3.372-.088-.072-.106-.304-.088-.447 0-.035.212-.125.3-.107.673.179 1.38.304 2.034.571.99.393 1.946.84 2.9 1.303.442.214.867.232 1.362.143 1.397-.232 2.794-.375 4.191-.535.354-.036.725-.036 1.044.053.265.071.636.268.672.464.035.286-.301.464-.602.5-.884.071-1.768.142-2.635.214-.035-.018-.035-.036-.035-.072zM73.852 14.746c.16.036.265.071.371.107.195.053.319.464.177.589-.318.25-.619.553-.99.696-2.228.928-4.58 1.463-6.95 1.856-.92.16-1.733-.197-2.529-.554-.088-.035-.159-.196-.177-.285 0-.09.089-.196.177-.25.089-.071.212-.09.336-.107 2.971-.66 5.942-1.338 8.913-1.98.247-.072.477-.054.672-.072zM63.047 73.67c.354 0 .478-.035.584 0 .123.054.247.143.353.233-.106.125-.194.303-.336.374a5.6 5.6 0 01-1.15.429c-2.51.624-5.039 1.195-7.62 1.463-1.469.143-2.936.286-4.387.41-.23.018-.46-.035-.69-.07-.052 0-.14-.072-.14-.09.017-.107.035-.25.105-.286.266-.125.531-.25.814-.303 3.944-.714 7.887-1.392 11.813-2.088.3-.053.583-.071.654-.071zM53.64 131.471c-.124-.107-.301-.178-.39-.321-.92-1.588-1.591-3.301-1.715-5.157-.035-.446-.106-.768-.336-1.125-.407-.571-.849-1.142-.867-1.891 0-.143.124-.304.248-.411.053-.053.248-.017.318.054.85.678 1.521 1.499 1.645 2.605.053.5.23.893.407 1.321.566 1.303.884 2.677 1.096 4.086.035.215-.035.464-.106.679 0 .071-.177.089-.3.16zM58.237 18.493c-1.768.214-3.165-.678-4.615-1.445-.142-.072-.23-.25-.336-.393-.018-.036-.018-.125.017-.16.071-.09.177-.233.23-.215.725.179 1.486.322 2.175.625.62.268 1.203.393 1.857.321 1.397-.125 2.794-.232 4.191-.321.336-.018.69.053 1.026.107.07.018.159.16.177.25 0 .107-.053.268-.124.303-.318.143-.637.321-.973.375-1.202.196-2.422.375-3.625.553zM98.486 25.738c.265.054.495.09.725.143 2.192.678 4.35 1.481 6.366 2.588.3.16.566.41.831.642.053.036 0 .214-.035.304-.018.053-.089.107-.124.107-.177.017-.354.053-.513.017-.407-.089-.813-.178-1.185-.339a414.86 414.86 0 01-5.782-2.623 1.452 1.452 0 01-.443-.285c-.123-.107-.194-.268-.3-.41.159-.037.318-.09.46-.144zM109.998 31.413c-.106-.036-.23-.071-.319-.125a9.248 9.248 0 01-2.758-2.926c-.106-.179-.071-.429-.106-.643.265-.018.619-.16.813-.036.495.304.99.643 1.362 1.089.53.625.972 1.32 1.415 2.017.053.089-.036.32-.107.464-.053.07-.194.089-.3.16z" fill="#131B43"/><path d="M58.891 35.553c.036-.107.053-.232.124-.32a16.853 16.853 0 013.82-3.374c.141-.089.318-.125.495-.142.088 0 .177.107.265.196.036.036.053.125.036.16-.036.108-.071.233-.142.322a15.651 15.651 0 01-4.244 3.39c-.07.036-.194-.035-.3-.089-.036-.018-.036-.09-.054-.143z" fill="#FFF"/><path d="M49.183 116.214c.106-.036.212-.089.318-.072.106.018.212.09.3.161 1.062.981 1.805 2.159 2.3 3.515.053.125 0 .375-.089.482-.194.232-.46.125-.6-.053-.973-1.107-1.805-2.32-2.335-3.712-.018-.089.07-.214.106-.321z" fill="#131B43"/><path d="M104.463 23.168c1.361.215 2.458.732 3.271 1.75.106.142.142.481.036.624-.106.143-.425.267-.619.214-1.167-.321-2.175-.892-2.989-1.802-.106-.125-.23-.393-.177-.464.106-.161.336-.232.478-.322z" fill="#FFF"/><path d="M50.633 13.14c.796.053 1.432.089 2.069.178.124.018.3.214.3.321 0 .125-.14.34-.265.375-1.238.446-2.493.482-3.766.232a.734.734 0 01-.319-.143c-.106-.107-.247-.285-.23-.41.018-.125.177-.34.301-.357.69-.107 1.38-.143 1.91-.196zM88.777 22.955c.548.07 1.044-.125 1.38.356.194.286-.301.66-1.168.696-1.15.072-2.316.018-3.466 0-.07 0-.194-.142-.194-.232 0-.089.07-.214.141-.285a.478.478 0 01.3-.143c1.044-.143 2.088-.268 3.007-.392z" fill="#131B43"/><path d="M63.312 33.876c0-.054-.017-.125 0-.161.725-1.089 1.627-1.963 2.777-2.588.106-.053.353 0 .46.09.088.089.052.303.07.464a.267.267 0 01-.07.16c-.814.928-1.751 1.696-2.918 2.124-.107.053-.23-.054-.319-.09zM59.74 31.36c-.194.035-.442-.304-.353-.5.37-.928 1.025-1.552 1.962-1.856.177-.053.443.072.602.214.07.054 0 .357-.071.482-.442.714-1.026 1.285-1.804 1.588-.106.054-.23.054-.336.072z" fill="#FFF"/><path d="M22.94 12.854c.248.09.424.143.566.214.194.09.248.5.088.607-.902.589-1.892.82-2.953.589-.053-.018-.07-.179-.088-.286 0-.053.035-.107.088-.142.672-.607 1.539-.714 2.299-.982zM45.133 127.064c-.07-.625.071-1.107.442-1.499.089-.107.354-.197.442-.143.177.107.39.321.39.5-.018.535-.23 1.017-.655 1.356-.07.071-.23.107-.3.071-.142-.071-.23-.214-.319-.285zM96.841 27.79c.053-.07.124-.196.177-.214.902-.035 1.662.357 2.334.91.07.054.142.286.124.304-.124.089-.318.232-.407.196-.725-.321-1.45-.678-2.157-1.017-.053-.018-.053-.107-.071-.179z" fill="#131B43"/><path d="M45.681 11.248c-.406.018-.654.214-.69.643-.052 1.463 1.592 1.891 3.467 1.963a.346.346 0 01-.053-.179c.017-.125.177-.339.3-.357.69-.09 1.38-.143 1.91-.196.796.053 1.433.09 2.07.178.123.018.3.214.3.322 2.069-.125.53 2.623.53 2.623.725.178 1.486.321 2.176.624.618.268 1.202.393 1.856.322 1.397-.125 2.794-.232 4.191-.322.336-.017.69.054 1.026.107.07.018.16.161.177.25v.054c.265-.036.548-.09.831-.125v-.036c0-.089.088-.196.177-.25.088-.071.212-.089.336-.107 2.97-.66 5.942-1.338 8.913-1.98.23-.054.46-.054.654-.072.16.036.265.072.371.107a.316.316 0 01.142.125c2.423-1.25 4.668-3.801 4.668-3.801-10.716.036-21.415.036-32.131.071-.39.018-.796.018-1.22.036zM49.024 125.654c.177 1.606.654 3.141 1.202 4.64.16.446.354.874.495 1.338.071.232.071.535-.212.571-.53.089-.654.339-.566.857.089.464.071.945.142 1.409.124.839.017 1.731.513 2.499.6-.732 1.22-1.428 1.768-2.177.106-.143.018-.446-.035-.661-.053-.285-.177-.553-.23-.838-.018-.09.07-.232.141-.286.036-.018.071-.036.124-.036l1.238-1.481c-.124-.107-.3-.178-.39-.321-.919-1.588-1.59-3.301-1.715-5.157-.035-.446-.106-.768-.336-1.124-.406-.572-.848-1.143-.866-1.892 0-.143.124-.303.248-.411l.778-2.391c-.955-1.088-1.751-2.284-2.282-3.658-.017-.071.036-.161.089-.268l-1.521-1.873c.053.446.106.91.177 1.356.442 3.283.866 6.585 1.238 9.904z" fill="#94A9BF"/><path d="M50.456 147.657c-.177-.375-.353-.749-.424-1.16a307.478 307.478 0 01-1.061-7.049c-.46-3.408-.902-6.834-1.327-10.243-.424-3.48-.795-6.96-1.202-10.439-.407-3.534-.849-7.085-1.273-10.618-.407-3.427-.796-6.853-1.203-10.261-.354-2.945-.707-5.907-1.079-8.852-.07-.517-.265-1.035-.406-1.552a805.808 805.808 0 00-1.786-6.157c-.354-1.195-.301-2.355.283-3.462.901-1.749.99-3.604 1.008-5.532.053-6.531.176-13.08.3-19.612.036-1.713.16-3.444.283-5.157.053-.767.212-1.535.336-2.284.018-.107.124-.196.177-.286.035.036.07.09.124.125l.035-3.248-.106.161c-.088-.071-.23-.125-.248-.214-.106-.571-.247-1.16-.265-1.749-.035-2.605-.017-5.21-.017-7.834h-.053c0-2.659-.018-5.336.017-7.995.018-.767.212-1.517.354-2.266.035-.143.194-.321.318-.34.053 0 .142.037.212.09l.195-2.855c-.018 0-.035-.018-.035-.018-.124-.321-.283-.66-.319-1a93.782 93.782 0 01-.336-4.443c-.141-2.498.3-2.177-2.37-2.23-3.412-.072-6.825-.125-10.256-.25-3.59-.125-7.18-.304-10.77-.446a58.274 58.274 0 00-1.768-.036c-.424 0-.601.214-.566.696.07 1.07.177 2.141.195 3.194.106 4.818.247 9.637.265 14.455.053 18.79.07 37.582.07 56.39 0 1.607-.14 3.213-.194 4.82-.017.82-.07 1.659.018 2.497.247 2.606.601 5.193.849 7.799.159 1.659.247 3.319.247 4.979 0 .749.16 1.374.478 2.034 2.493 5.122 4.65 10.404 6.596 15.757.283.786.495 1.589.725 2.392.088.321.3.749-.16.91-.406.142-.618-.268-.795-.553a37.05 37.05 0 01-1.167-1.999c-.53-.91-1.026-1.838-1.556-2.766-.018-.018-.16 0-.16 0-.035 1.071-.07 2.141-.088 3.194-.018.839 0 1.66 0 2.338-.177 5.157.424 10.118.76 15.115.177 2.605.39 5.211.566 7.834.106 1.606.16 3.212.248 4.8.053.946.141 1.892.212 2.82.92.535 1.945.196 2.918.41.566.125.743-.071.76-.66.053-1.963.071-3.926.124-5.889.018-.41-.194-.625-.442-.91-.46-.518-.318-1.053.3-1.196.69-.16 1.38-.285 2.087-.357 4.333-.464 8.665-.928 12.998-1.356.707-.071 1.415-.071 2.122-.071.442 0 .796.178 1.008.607.69 1.445 1.38 2.89 2.051 4.336.124.268.23.553.283.839.036.232-.07.535-.353.481-.495-.071-.602.125-.584.571.035.589.035 1.196.035 1.785.018 1.588.018 1.588 1.663 1.41.972-.107.99-.125 1.06-1.035.107-1.606.213-3.195.337-4.801.017-.285.141-.571.247-.838.018-.054.266-.072.3-.036l-.441-2.695c-.142.036-.3 0-.354-.089zM23.594 13.693c-.901.589-1.892.82-2.953.589-.053-.018-.07-.179-.088-.286 0-.053.035-.107.088-.143.672-.624 1.556-.731 2.299-.981.248.089.424.143.566.214.194.09.265.482.088.607zM45.752 127.26c-.07.071-.23.107-.3.071-.142-.071-.23-.196-.301-.285-.07-.625.07-1.107.442-1.499.088-.107.354-.196.442-.143.177.107.39.321.39.5-.036.535-.248 1.017-.673 1.356z" fill="#2C6634"/><path d="M43.683 72.6c.018.16.071.41.177.464.92.446.69 1.124.442 1.767 2.865-.786 11.123-3.052 15.863-4.408 5.8-1.66-3.873-1.267-10.522 0-3.502.66-5.164.981-5.942 1.124 0 .357-.035.714-.018 1.053z" fill="#2C6634"/></g></g></svg>
