<svg width="19" height="27" viewBox="0 0 19 27" xmlns="http://www.w3.org/2000/svg"><g fill="none" fill-rule="nonzero"><path d="M2.65.973a1.242 1.242 0 011.088-.81C4.71.126 6.39.077 7.432.053c5.398-.185 7.162.06 7.635 1.645.166.577.13 1.13.024 1.694-.201 1.007-.426 2.001-.876 2.922-.272.553-.249 1.056-.06 1.646.912 2.787 1.587 5.648 2.096 8.545.035.197.083.528.107.725.106.994.165 1.056 1.16 1.24.26.049.509.22.734.38.65.48.9 1.142.663 1.94-.308.983-.675 1.928-1.646 2.444a1.508 1.508 0 00-.45.38c-.805 1.007-1.87 1.633-3.007 2.125-2.604 1.105-5.303 1.571-8.109 1.08-.65-.11-1.278-.38-1.906-.614-.331-.123-.627-.307-.994-.331C1.288 25.75.542 24.707.057 23.357a.896.896 0 01.177-.921c.32-.356.675-.676 1.054-.97.284-.221.39-.454.402-.823.06-3.438.13-6.876.237-10.301.083-2.493.237-4.985.332-7.478a6.04 6.04 0 01.39-1.89zm5.61.344c-.011.012 0 0 0 0-1.065.037-2.13.05-3.184.098-.308.013-.627.05-.923.135-.273.074-.533.27-.557.577a94.945 94.945 0 00-.225 3.168c-.012.184.166.135.26.074.166-.11.32-.233.486-.344.77-.479 1.539-.368 2.202.184.39.332.722.762.994 1.191.569.909.805 1.953.912 3.008.177 1.707-.107 3.34-.888 4.863-.26.503-.58.97-1.042 1.313-.745.565-1.527.602-2.32.148-.201-.123-.367-.307-.568-.43-.119-.086-.272-.123-.414-.172-.036.16-.083.307-.095.467-.071.933-.13 1.878-.19 2.812-.012.245-.023.49-.023.736 0 .184.165.27.331.172.142-.074.272-.16.414-.245 3.398-2.125 7.068-2.898 10.986-2.456.036 0 .083.012.118.012.285.025.427-.147.356-.466-.356-1.633-.699-3.266-1.066-4.9a989.89 989.89 0 00-1.338-5.709c-.035-.16-.094-.32-.106-.479 0-.11.06-.22.095-.344.13.05.272.099.402.148.036.012.048.061.083.086.272.282.32.27.414-.074.202-.749.415-1.498.592-2.247.107-.466 0-.712-.414-.884-.734-.307-1.503-.491-2.297-.491-1.03.037-2.012.05-2.995.05zm6.192 18.11c-2.534.05-5.008.516-7.47 1.142-1.54.381-3.03.884-4.499 1.486-.402.172-.805.344-1.089.712a.588.588 0 00-.07.688c.189.38.496.626.828.86.355.245.663.319 1.053 0 .817-.688 1.812-.97 2.842-1.13.308-.05.627-.025.935.012.118.012.237.172.32.295.011.024-.119.22-.214.258-.402.147-.828.245-1.243.405-.556.208-1.089.466-1.633.7-.06.024-.107.122-.107.184 0 .061.071.16.13.184 1.09.417 2.238.528 3.374.491 2.226-.074 4.38-.503 6.44-1.412.545-.233 1.054-.54 1.575-.847.106-.061.153-.233.236-.344-.13-.074-.26-.196-.402-.209-.592-.049-1.184-.123-1.764-.073-1.255.11-2.51.27-3.764.417-.427.05-.865.11-1.29.16-.12.012-.238.024-.356 0-.083-.025-.154-.11-.237-.172.06-.05.107-.123.166-.148 1.646-.564 3.338-.994 5.067-1.178 1.053-.11 2.13-.16 3.125.368.284.148.426-.086.568-.294.13-.197.26-.418.367-.627.556-1.031.403-1.46-.675-1.805-.26-.086-.544-.11-.816-.122-.45-.013-.924 0-1.397 0zM3.11 10.073h-.024c0 .405.012.81 0 1.227-.024 1.056.343 2.002.852 2.886.486.81 1.267.884 1.86.172.319-.393.591-.884.733-1.375.497-1.634.52-3.291.154-4.949a4.889 4.889 0 00-.521-1.35c-.627-1.069-1.563-1.093-2.261-.099-.379.528-.651 1.118-.687 1.793-.023.565-.07 1.13-.106 1.694z" fill="#131B43"/><path d="M8.26 1.318c.983 0 1.966-.025 2.96-.025.805 0 1.563.185 2.297.491.414.172.533.406.414.885-.177.748-.39 1.497-.592 2.246-.095.357-.142.357-.414.074-.024-.024-.048-.074-.083-.086-.13-.061-.272-.098-.402-.147-.036.11-.095.233-.095.344.012.16.07.319.106.478.45 1.904.9 3.807 1.338 5.71.367 1.633.722 3.266 1.066 4.899.07.32-.072.491-.356.466-.035 0-.083-.012-.118-.012-3.93-.454-7.6.332-10.986 2.456-.13.086-.272.172-.414.245-.166.086-.331.013-.331-.171 0-.246 0-.492.023-.737.06-.933.119-1.879.19-2.812.011-.16.059-.307.094-.466.142.061.284.098.415.171.2.136.367.32.568.43.805.467 1.574.418 2.32-.147.462-.344.781-.81 1.042-1.314.781-1.522 1.065-3.155.888-4.862-.119-1.068-.355-2.1-.912-3.008-.272-.442-.604-.872-.994-1.191-.663-.553-1.42-.663-2.202-.184-.166.098-.32.233-.486.343-.094.062-.26.11-.26-.073.06-1.056.119-2.112.225-3.168.024-.307.284-.491.556-.577.296-.086.616-.123.924-.135 1.089-.062 2.154-.086 3.22-.123 0 0-.012.012 0 0zm3.86 10.854c-.024-.602-.024-.97-.071-1.326-.036-.32-.13-.639-.225-.946-.024-.085-.19-.171-.26-.16-.083.013-.202.148-.225.234a5.56 5.56 0 00.39 3.217c.024.061.13.11.19.11.047 0 .13-.085.142-.147.035-.405.047-.81.059-.982z" fill="#FFC229"/><path d="M14.452 19.428c.473 0 .947-.012 1.42 0 .273.013.557.05.817.123 1.066.344 1.22.774.675 1.805-.118.209-.237.43-.367.626-.13.197-.284.442-.568.295-.994-.54-2.072-.491-3.125-.368-1.729.184-3.41.601-5.067 1.178-.071.025-.118.099-.166.148.083.061.154.147.237.172.107.024.237.012.355 0 .426-.05.864-.11 1.29-.16 1.232-.147 2.487-.307 3.741-.418.58-.049 1.184.025 1.764.074.142.013.272.135.403.209-.071.123-.13.282-.237.344-.521.294-1.03.601-1.575.847-2.06.896-4.226 1.326-6.44 1.412-1.136.037-2.284-.074-3.373-.491-.06-.025-.119-.11-.13-.184 0-.062.047-.16.106-.185.545-.245 1.077-.49 1.634-.7.402-.16.828-.257 1.243-.405.094-.037.225-.233.213-.258-.083-.122-.201-.282-.32-.294a2.985 2.985 0 00-.935-.012c-1.018.16-2.012.442-2.841 1.13-.39.33-.699.257-1.054 0-.331-.234-.639-.48-.828-.86-.13-.246-.083-.48.07-.688.285-.368.687-.54 1.09-.712a32.782 32.782 0 014.498-1.486c2.45-.614 4.937-1.093 7.47-1.142zM3.11 10.072c.036-.564.084-1.142.107-1.706.036-.676.308-1.265.687-1.793.71-.995 1.634-.97 2.261.098.237.405.414.884.52 1.35.368 1.658.356 3.328-.153 4.949a4.244 4.244 0 01-.734 1.375c-.58.725-1.373.65-1.859-.172-.52-.871-.887-1.817-.852-2.885.012-.405 0-.81 0-1.228.012.025.012.025.024.012z" fill="#FFF"/><path d="M12.12 12.172c-.012.172-.024.577-.06.982 0 .05-.094.135-.142.148-.07 0-.165-.05-.189-.111a5.548 5.548 0 01-.39-3.217c.011-.098.13-.22.224-.233.083-.012.237.074.26.16.095.306.178.626.226.945.047.356.047.724.07 1.326z" fill="#131B43"/></g></svg>
