<svg width="133" height="179" viewBox="0 0 133 179" xmlns="http://www.w3.org/2000/svg" xmlns:xlink="http://www.w3.org/1999/xlink"><defs><path id="a" d="M0 0h133v179H0z"/></defs><g fill="none" fill-rule="evenodd"><mask id="b" fill="#fff"><use xlink:href="#a"/></mask><g mask="url(#b)" fill-rule="nonzero"><path d="M45.411 80.565c-.07-8.81-.123-17.602-.211-26.412-.053-4.378-.282-8.739-.282-13.117.018-6.559.176-13.117.264-19.676.035-2.482.088-4.963.124-7.445.07-3.368.158-6.736.229-10.104 0-.301.017-.585.035-.886.035-.337.247-.514.581-.532.406-.017.828-.017 1.234-.017 4.933.017 9.867.035 14.8.035 16.263.035 32.526.07 48.807.089 2.414 0 2.15-.16 2.132 2.198-.053 4.662-.053 9.324-.053 14.003 0 2.712.071 5.442.088 8.154.053 6.559.088 13.117.124 19.676.141 23.097.264 46.194.422 69.291.071 10.76.212 21.502.353 32.262.035 2.304.141 4.608.194 6.913.017.585.017 1.187-.036 1.772-.017.16-.281.443-.422.443-2.626.054-2.361.497-2.414-2.038-.088-4.378-.177-8.739-.282-13.117-.018-.727-.071-1.401.793-1.755.317-.124.176-.709-.177-.833a2.195 2.195 0 00-.669-.178c-.476-.035-.934-.035-1.41-.035-9.338.035-18.677.053-28.015.142-4.352.035-8.687.177-13.039.301-6.22.195-12.44.408-18.659.621-.23 0-.476 0-.705.017-.705.071-1.092.39-1.198 1.082-.123.868-.229 1.754-.247 2.641-.035 1.01 0 2.003.018 3.013.07 3.492.159 6.966.23 10.459 0 .23.034.496-.036.709-.07.195-.247.443-.405.478-.388.089-.81.072-1.216.072-.353 0-.511-.249-.546-.568-.036-.355-.036-.709-.036-1.064-.053-8.331-.105-16.662-.14-24.993-.071-17.195-.106-34.389-.16-51.583-.017-.018-.052-.018-.07-.018zm44.35 25.827c-.036-.408-.054-.709-.107-.993-.088-.567-.37-1.028-.933-1.152-.529-.124-.881.23-1.199.585-.669.762-1.074 1.684-1.427 2.623-.423 1.17-.793 2.34-1.268 3.475-.776 1.79-1.392 1.896-2.485.283-1.022-1.506-1.867-3.119-2.784-4.697-.035-.071.036-.195.07-.301.018-.018.107-.036.142-.018.564.159 1.11.39 1.674.496.423.071.81-.124 1.04-.514.228-.407.193-.975-.142-1.312a3.661 3.661 0 00-.986-.726 101.22 101.22 0 00-3.507-1.613 2.865 2.865 0 00-.67-.195c-.686-.142-1.162.053-1.462.673-.687 1.365-1.25 2.801-1.568 4.308-.07.336-.035.709.018 1.045.07.373.37.639.74.656.264.018.616-.071.775-.266.264-.283.44-.691.617-1.045.14-.266.246-.532.37-.798.017-.035.229-.018.264.035.141.249.264.514.37.78.652 1.454 1.269 2.907 1.973 4.326.547 1.116 1.322 2.091 2.38 2.782 1.708 1.117 3.558.905 4.897-.62.459-.514.881-1.117 1.146-1.755.652-1.507 1.215-3.066 1.762-4.609.229-.496.246-1.045.3-1.453zM77.284 87.744v-.035c-.757.035-1.533.017-2.29.141-.916.142-1.868.32-2.731.62-1.639.586-2.432 1.791-2.432 3.51 0 .48.018.958.124 1.401.563 2.482 1.726 4.626 3.524 6.435.281.283.651.514 1.004.691.44.213.987-.018 1.163-.496.105-.32.176-.71.07-1.01-.176-.621-.458-1.224-.74-1.791-.44-.904-.969-1.755-1.41-2.66-.299-.637-.598-1.293-.775-1.967-.334-1.311-.07-1.72 1.199-2.038.458-.107.916-.16 1.391-.195a65.709 65.709 0 012.643-.089c.459 0 .917.071 1.375.124-.018.567-.564.674-.846 1.01-.194.231-.423.408-.599.639-.3.39-.335.815-.123 1.152.246.39.793.532 1.25.337.16-.071.318-.16.459-.266 1.04-.869 2.096-1.72 3.083-2.641.916-.851.952-1.702.124-2.641-.899-1.029-1.85-1.968-2.82-2.925a1.691 1.691 0 00-.757-.426c-.194-.053-.529.018-.635.142-.158.195-.211.514-.229.78-.017.16.124.32.23.461.352.532.704 1.046 1.057 1.578-.652.407-1.34.035-2.009.124-.07.053-.176.035-.3.035zm12.651-.638a41.99 41.99 0 00-1.515.106c-.529.053-1.04.16-1.568.248-.652.107-1.251.32-1.744.78-.265.249-.459.55-.37.94.105.443.387.727.828.815.334.071.704.124 1.04.089.757-.053 1.515-.195 2.272-.248.934-.071 1.868-.195 2.802-.124 1.145.088 1.797.833 1.78 2.003 0 .638-.089 1.311-.318 1.896-.528 1.436-1.163 2.819-1.762 4.237-.053.106-.211.177-.317.266-.07-.089-.159-.177-.194-.284-.158-.567-.264-1.134-.458-1.702-.123-.372-.423-.549-.81-.549-.335 0-.635.284-.705.674-.018.053-.018.124-.018.177-.088 1.72.194 3.403.635 5.07.176.655.634.974 1.286 1.01 1.48.089 2.925-.106 4.317-.621.105-.035.211-.088.317-.159.317-.195.528-.461.51-.869-.017-.372-.334-.744-.792-.833a3.553 3.553 0 00-.864-.053c-.352.018-.687.124-1.04.124-.087 0-.281-.248-.246-.301.176-.372.405-.71.6-1.082.598-1.205 1.233-2.41 1.761-3.651a7.438 7.438 0 00.6-3.457c-.16-2.481-1.921-4.307-4.37-4.484-.476-.054-.934-.018-1.657-.018z" fill="#41914E"/><path d="M17.89 80.175V42.418 3.953c0-.23-.018-.479 0-.709.017-.904.105-1.01 1.021-1.028 1.18-.018 2.344-.018 3.524 0 6.167.053 12.334.124 18.5.177h1.058c1.357.036 1.374.036 1.374 1.383 0 7.445 0 14.89-.035 22.335-.053 18.665-.158 37.33-.194 56.014-.017 9.696.07 19.374.124 29.071.07 14.659.158 29.301.246 43.96 0 .408.018.833 0 1.241-.017 1.241-.035 1.258-1.304 1.276-1.427.036-1.427.018-1.48-1.453l-.422-13.1c-.018-.301-.018-.585-.07-.886-.177-1.081-.406-1.33-1.463-1.383-4.053-.23-8.105-.266-12.14 0-1.163.071-2.344.089-3.524.142-.529.018-1.057.053-1.586.124-.212.036-.493.142-.617.301-.105.142-.035.426-.035.639 0 .762.018 1.524.018 2.286-.036 4.13-.088 8.278-.124 12.408 0 .302 0 .585-.017.887-.036.425-.23.602-.688.62-.704.018-1.409.036-2.114-.018-.158-.017-.405-.265-.423-.443-.053-.532-.035-1.063-.017-1.595.088-5.672.229-11.345.246-17.017.036-19.676.018-39.352.018-59.028.018.018.07.018.123.018z" fill="#2C6634"/><path d="M82.783 163.842c2.29-.036 4.58-.071 6.871-.124 6.044-.124 12.088-.248 18.131-.408 3.277-.089 6.572-.213 9.85-.319.475-.018.933-.036 1.409.018.159.017.441.283.441.425-.036 2.092.123 1.95-1.692 1.968-9.144.053-18.307.106-27.451.195-6.45.071-12.898.195-19.365.319-5.567.106-11.135.248-16.72.372l-6.855.16c-.405.017-.828.035-1.233-.036-.176-.035-.388-.266-.423-.443-.053-.284 0-.585.053-.869.053-.319.264-.514.599-.531.405-.018.828-.018 1.233-.036 2.291-.018 4.581-.018 6.872-.053 8.51-.16 17.003-.319 25.513-.496.9-.018 1.833-.089 2.767-.142z" fill="#BACCDB"/><path d="M89.76 106.392c-.07.407-.088.957-.247 1.453-.546 1.56-1.11 3.102-1.762 4.609-.264.638-.687 1.241-1.145 1.755-1.357 1.524-3.189 1.737-4.898.62-1.057-.691-1.833-1.666-2.379-2.783-.705-1.418-1.321-2.889-1.973-4.325-.123-.266-.23-.532-.37-.78-.035-.053-.247-.053-.264-.035-.141.248-.247.532-.37.797-.194.355-.353.763-.617 1.046-.176.178-.529.284-.775.266a.79.79 0 01-.74-.656 2.614 2.614 0 01-.018-1.046c.317-1.506.88-2.924 1.568-4.307.317-.62.793-.815 1.463-.674.229.054.458.107.67.195 1.18.532 2.36 1.064 3.505 1.614.353.177.688.443.987.726.335.337.37.904.141 1.312-.229.408-.617.603-1.04.514-.563-.106-1.11-.319-1.673-.496-.053-.018-.141 0-.141.017-.036.089-.106.231-.07.302.915 1.577 1.761 3.208 2.783 4.697 1.093 1.596 1.71 1.507 2.484-.283.494-1.135.846-2.323 1.27-3.475.351-.939.757-1.861 1.426-2.623.317-.355.67-.709 1.198-.585.564.142.846.585.934 1.152 0 .284.018.585.053.993zM77.285 87.744c.124 0 .23.018.353 0 .67-.071 1.356.283 2.008-.124-.352-.532-.722-1.046-1.057-1.578-.088-.142-.229-.319-.229-.46.018-.267.07-.586.23-.78.105-.142.44-.196.634-.142.264.07.546.212.757.425.952.957 1.92 1.914 2.82 2.925.827.94.775 1.79-.124 2.641-.987.922-2.044 1.773-3.083 2.641-.141.106-.3.195-.459.266a1.003 1.003 0 01-1.25-.337c-.212-.337-.177-.762.123-1.152.176-.23.405-.425.599-.638.282-.337.828-.443.846-1.01-.459-.036-.917-.125-1.375-.125-.88 0-1.762.036-2.643.09a9.378 9.378 0 00-1.392.194c-1.286.301-1.55.727-1.198 2.038.176.674.458 1.33.775 1.968.441.904.952 1.755 1.41 2.659.282.585.564 1.17.74 1.79.088.302.035.71-.07 1.011a.854.854 0 01-1.163.496 3.63 3.63 0 01-1.005-.691c-1.78-1.808-2.942-3.953-3.524-6.435-.105-.46-.123-.94-.123-1.4 0-1.72.793-2.925 2.432-3.51.88-.319 1.814-.479 2.73-.62.758-.124 1.516-.089 2.291-.142-.053-.018-.053-.018-.053 0zM89.936 87.106c.705 0 1.181-.036 1.657 0 2.449.177 4.21 2.003 4.37 4.484a7.478 7.478 0 01-.6 3.457c-.528 1.24-1.163 2.446-1.762 3.651-.176.373-.423.71-.599 1.082-.035.053.159.319.247.301.352 0 .687-.106 1.04-.124.281-.018.581 0 .863.053.458.089.775.443.793.833.017.39-.194.656-.511.869l-.317.159a10.226 10.226 0 01-4.317.621c-.652-.036-1.11-.355-1.286-1.01-.44-1.667-.723-3.333-.635-5.07 0-.053.018-.124.018-.177.07-.39.37-.656.705-.674.387 0 .704.177.81.55.176.549.3 1.134.458 1.701.035.107.124.195.194.284.106-.089.282-.142.317-.266.6-1.4 1.234-2.8 1.762-4.237.212-.585.3-1.258.317-1.896.018-1.17-.634-1.915-1.78-2.003-.915-.071-1.867.053-2.8.124-.758.053-1.516.195-2.274.248a4.054 4.054 0 01-1.04-.089c-.44-.088-.722-.372-.827-.815-.089-.39.105-.691.37-.94.493-.46 1.092-.673 1.744-.78.529-.088 1.04-.195 1.568-.248.6-.035 1.18-.07 1.515-.088z" fill="#131B43"/><path d="M45.165 53.018c0 .373.017.763.017 1.135l.053 5.832c.634.514 1.41.319 1.956-.55.969-1.524.951-4.325-.018-5.796-.546-.85-1.374-1.046-2.008-.62zM46.098 65.923c.934-.053 1.586-.904 1.551-2.02-.035-1.153-.863-2.057-1.832-2.022a1.14 1.14 0 00-.547.142c.018 1.241.018 2.5.036 3.74.229.124.51.178.792.16z" fill="#FFF"/><path d="M11.018 167.706c.017.709.352 1.117 1.057 1.205.687.089 1.41.089 2.114.089 4.458-.071 8.916-.142 13.391-.248 5.092-.107 10.184-.231 15.259-.337h.317c1.092-.018 33.548-.585 33.548-.585l20.474-.425c6.748-.142 13.497-.319 20.245-.497.652-.017 1.286-.035 1.938-.124 1.058-.142 1.428-.514 1.551-1.595.088-.745.088-1.525.088-2.287-.018-1.365-.264-1.613-1.674-1.648-.828-.018-1.639.017-2.467 0-.704-.018-.81-.124-.828-.816-.017-.531 0-1.063 0-1.595.035-5.548.124-11.097.124-16.662 0-14.359-.036-28.717-.053-43.057-.036-24.746-.053-49.509-.124-74.254-.017-7.445-.158-14.89-.246-22.317 0-.23 0-.479-.018-.71-.088-.992-.546-1.47-1.568-1.56-.458-.035-.934-.017-1.41-.017C96.174.195 79.629.124 63.066.07 55.842.053 48.618.053 41.394.035 34.117.018 26.84.018 19.545.018c-.933 0-1.867.142-2.801.142-1.11 0-1.815.69-1.85 1.914-.018.94-.035 1.897-.035 2.836V82c0 8.332-.018 16.663 0 24.994.035 18.134-.053 36.268.422 54.402 0 .23.036.478.018.709-.018.425-.194.62-.652.655-.81.071-1.638.089-2.467.178-.845.088-1.162.425-1.18 1.241a78.538 78.538 0 00.018 3.527zm27.451-12.834c-.035 2.003-.018 4.006-.018 6.009 0 1.383-.017 1.401-1.321 1.436-3.753.107-7.506.178-11.259.266-.652.018-1.286.036-1.938.018-.828-.018-.934-.124-.97-.886-.035-.656-.017-1.294-.035-1.95-.052-2.482-.088-4.946-.14-7.427h-.053l-.106-8.846c0-.177-.018-.354 0-.532.018-.425.211-.62.67-.638.528-.035 1.057-.017 1.585-.017 4.053.035 8.088.088 12.14.124.353 0 .705-.018 1.057 0 .353.017.53.248.547.567.035.479.035.939.035 1.418-.07 3.51-.141 6.984-.194 10.458zm79.148 8.119c.476-.018.934-.036 1.41.018.158.017.44.283.44.425-.035 2.092.123 1.95-1.691 1.968-9.145.053-18.307.106-27.452.195-6.449.071-12.898.195-19.364.319-5.568.106-11.136.248-16.721.372l-6.854.159c-.406.018-.828.036-1.234-.035-.176-.035-.387-.266-.423-.443-.052-.284 0-.585.053-.869.053-.319.265-.514.6-.532.405-.017.827-.017 1.233-.035 2.29-.018 4.58-.018 6.871-.053 8.51-.16 17.003-.319 25.514-.496.934-.018 1.868-.089 2.819-.142 2.29-.036 4.581-.071 6.872-.124 6.043-.124 12.087-.249 18.13-.408 3.242-.071 6.52-.213 9.797-.319zm-31.064-2.96c0 .301.036.585.036.886 0 .337-.159.567-.511.603-.476.035-.934.035-1.41.035-4.158.018-8.334.018-12.492.071-6.749.089-13.497.23-20.228.337-2.061.035-2.061.266-1.956-1.95.07-1.347-.035-2.712-.052-4.077-.053-3.014-.07-6.027-.141-9.023-.018-1.24-.106-2.481-.177-3.704-.035-.656.088-.816.776-.851 1.233-.053 2.466-.107 3.7-.124 4.687-.053 9.391-.089 14.078-.142v.089c5.444-.142 10.907-.284 16.351-.444 2.379-.071 2.062-.195 2.026 2.003-.035 5.442 0 10.866 0 16.291zm22.853-9.094c0 2.765 0 5.548-.017 8.314 0 .478 0 .939-.036 1.418-.017.337-.211.532-.546.567-.229.018-.476.018-.705.035-3.876.071-7.735.125-11.611.178-.23 0-.493.035-.687-.053-.176-.071-.423-.266-.44-.444-.071-.46-.054-.939-.054-1.4-.017-3.297-.035-6.612-.07-9.909-.018-1.648-.123-3.297-.176-4.945-.018-.656-.036-1.294-.036-1.95.018-1.294.018-1.294 1.234-1.365l2.625-.16 9.48-.425c.176 0 .37-.053.528.018.176.088.405.248.458.425.088.266.053.585.053.869v8.827zM45.182 21.377c.035-2.481.088-4.963.124-7.444.07-3.368.158-6.736.229-10.104 0-.302.017-.585.035-.886.035-.337.247-.515.581-.532.406-.018.828-.018 1.234-.018 4.933.018 9.867.035 14.8.035 16.263.036 32.526.071 48.807.09 2.414 0 2.15-.16 2.132 2.197-.053 4.662-.053 9.324-.053 14.004 0 2.712.071 5.442.088 8.154.053 6.558.088 13.117.124 19.676.141 23.097.264 46.194.422 69.291.071 10.759.212 21.501.353 32.261.035 2.304.141 4.609.194 6.913.017.585.017 1.188-.036 1.773-.017.159-.282.443-.422.443-2.626.053-2.362.496-2.414-2.039-.088-4.378-.177-8.739-.282-13.117-.018-.727-.071-1.4.793-1.755.317-.142.176-.709-.177-.833a2.222 2.222 0 00-.669-.177c-.476-.036-.934-.036-1.41-.036-9.338.036-18.677.054-28.015.142-4.352.036-8.687.178-13.039.302-6.22.195-12.44.407-18.659.62-.23 0-.476 0-.705.018-.705.071-1.092.39-1.198 1.081-.123.869-.229 1.755-.247 2.641-.035 1.011 0 2.003.018 3.014.07 3.492.158 6.966.229 10.458 0 .23.035.496-.035.709-.07.195-.247.443-.406.479-.387.088-.81.072-1.215.072-.353 0-.511-.25-.546-.569-.036-.354-.036-.709-.036-1.063-.053-8.332-.105-16.663-.14-24.994-.071-17.194-.106-34.389-.16-51.583h-.087c-.07-8.81-.124-17.602-.212-26.412-.053-4.378-.282-8.738-.282-13.117.018-6.576.176-13.135.282-19.693zM17.484 156.203c.088-5.673.23-11.345.247-17.017.035-19.676.017-39.352.017-59.028h.141V42.401 3.935c0-.23-.017-.478 0-.709.018-.904.106-1.01 1.022-1.028a116.81 116.81 0 013.524 0c6.167.053 12.334.124 18.5.177h1.058c1.357.036 1.374.036 1.374 1.383 0 7.445 0 14.89-.035 22.335-.053 18.665-.158 37.33-.194 56.014-.017 9.696.07 19.375.124 29.071.07 14.659.158 29.301.246 43.96 0 .408.018.833 0 1.241-.017 1.241-.035 1.259-1.304 1.276-1.427.018-1.427.018-1.48-1.453l-.422-13.1c-.018-.301-.018-.585-.07-.886-.177-1.081-.406-1.329-1.463-1.383-4.053-.23-8.105-.266-12.14 0-1.163.071-2.344.089-3.524.142-.529.018-1.058.053-1.586.124-.212.036-.493.142-.617.302-.106.141-.035.425-.035.638 0 .762.018 1.524.018 2.286-.036 4.131-.089 8.278-.124 12.409 0 .301 0 .585-.017.886-.036.425-.23.603-.688.62-.704.018-1.41.036-2.114-.017-.159-.018-.405-.266-.423-.444-.07-.514-.035-1.045-.035-1.577z" fill="#131B43"/></g></g></svg>
