<?xml version="1.0" encoding="UTF-8"?>
<svg xmlns="http://www.w3.org/2000/svg" width="938" height="448" viewBox="0 0 938 448" fill="none">
  <rect x="22" y="351" width="828" height="97" fill="#FFC229"></rect>
  <line y1="346.5" x2="938" y2="346.5" stroke="#1E285A" stroke-width="9"></line>
  <line x1="73" y1="443.5" x2="879" y2="443.5" stroke="#1E285A" stroke-width="9"></line>
  <g clip-path="url(#clip0)">
    <path d="M266.2 270.299C266.8 245.199 267.4 222.399 268.1 199.599C268.2 195.899 267.6 193.099 264.4 190.699C249 178.899 245.3 162.899 249.8 145.099C253.4 130.799 257.9 116.499 263.5 102.799C268 91.8992 267.4 81.0992 267.4 69.9992C267.4 68.4992 266.4 66.9992 265.7 65.5992C261.3 56.9992 263 49.0992 268.5 41.7992C273.8 34.5992 281.1 29.7992 288.9 25.5992C303.3 17.9992 318.8 13.3992 334.6 9.89919C379.5 0.0991936 424.9 -1.50081 470.7 1.09919C502.8 2.89919 534.5 7.49919 565.5 16.0992C580.1 20.1992 594.5 24.8992 607.5 32.6992C614.7 36.9992 621.8 42.0992 627.5 48.0992C636.6 57.6992 636.5 66.1992 629.2 77.3992C628.3 78.8992 627.6 80.6992 627.5 82.4992C624.5 140.199 618.1 197.799 619.9 255.699C620.4 271.599 621.4 287.499 622.3 303.399C623.3 321.199 623.2 338.899 621.2 356.599C620.1 365.899 615.7 373.699 609.5 380.499C600.6 390.299 589.8 397.299 577.8 402.699C557.6 411.899 536.2 417.199 514.3 419.899C456.1 427.299 398.9 422.399 343.2 403.899C329.7 399.399 316.7 393.199 304 386.699C296.1 382.699 289 376.799 281.8 371.499C270.3 362.999 265.2 350.999 265.1 337.099C264.9 319.299 265.3 301.599 265.6 283.799C265.6 278.599 266 273.299 266.2 270.299ZM277.9 201.099C277.9 205.299 278 208.199 277.9 211.099C276.4 240.199 274.8 269.399 273.3 298.499C272.5 314.099 271.8 329.699 270.9 345.399C270.7 349.399 271.7 352.499 275 355.099C281.3 359.999 287 365.599 293.5 370.099C310 381.599 328.3 389.299 347.4 395.099C403.6 412.299 460.8 415.999 518.8 407.499C540.4 404.299 561.5 398.999 580.8 388.499C588.6 384.199 596.1 378.899 602.7 372.999C610.3 366.199 614 357.299 613.2 346.699C611.7 325.499 610.7 304.299 609.5 283.199C609.4 281.399 608.8 279.699 608.4 277.899C601.1 280.299 596.2 277.199 593.6 271.399C591 265.699 588.4 259.499 588.1 253.299C587.1 236.899 586.9 220.499 587.2 204.099C587.5 187.999 588.9 171.799 589.6 155.699C589.8 151.199 589 146.799 584.7 142.299C583.4 145.399 582.2 147.599 581.4 149.899C579.6 155.399 578.3 161.199 576.2 166.599C574.6 170.799 572.6 174.999 569.9 178.499C564.7 185.199 557.8 184.999 552.6 178.299C548.7 173.299 546.8 167.499 546.7 161.299C546.6 154.999 547 148.599 547.4 142.299C547.8 135.799 548.5 129.299 549 122.299C534.7 124.399 521.5 126.399 508.2 128.399C507.6 130.999 507.2 132.999 506.8 135.099C502.9 153.799 497.4 171.999 489.7 189.599C482.1 207.099 469.2 218.199 451.2 223.599C450.2 223.899 449.2 224.299 448.2 224.599C435.5 228.399 422.4 230.799 409.2 231.399C405.2 231.599 402.3 232.499 400.1 236.199C397.4 240.899 393.2 244.199 388.1 246.099C383.8 247.699 379.5 247.599 376.4 244.099C373.5 240.899 370.3 240.299 366.4 240.699C360.8 241.299 355.8 240.399 352.3 235.399C350.2 232.399 347.2 231.899 343.8 232.599C341.5 233.099 339.1 233.299 336.8 233.799C331.8 234.799 327 234.099 323.5 230.399C318.3 224.699 312.5 224.399 305.4 225.799C295.7 227.699 287.5 221.299 286.1 211.499C285.8 209.199 285.8 206.799 285.6 204.199C283.4 203.299 281.5 202.499 277.9 201.099ZM277.7 89.5992C278.3 122.599 278.9 154.899 279.5 187.799C282.9 189.599 286.6 191.499 290 193.299C300.3 184.199 302.4 183.999 312.9 192.399C316.5 195.299 319.5 194.699 323.1 193.099C328.5 190.699 333.9 191.099 337.3 196.199C341 201.799 345.8 202.199 351.1 200.599C360.6 197.799 367.8 199.899 372.4 209.099C374 212.299 376.6 212.899 379.7 212.199C381.5 211.799 383.3 211.199 385 210.599C397.6 206.199 401.1 207.999 405.2 220.999C405.3 221.199 405.6 221.299 406.3 221.999C424.7 221.599 443 218.299 460.7 211.499C469.3 208.199 475.5 202.399 478.3 193.399C484.5 173.399 490.7 153.499 496.9 133.499C497.3 132.399 496.9 130.999 496.9 129.899C496.1 129.599 495.6 129.299 495.1 129.299C491.7 129.399 488.2 129.399 484.8 129.699C442.5 132.899 400.7 129.299 359.1 121.399C337 116.999 315.4 110.599 295.3 100.099C289.3 96.8992 283.6 93.0992 277.7 89.5992ZM465.4 108.499C476.5 107.799 496.1 106.899 515.6 104.999C541 102.499 566.1 98.2992 590 89.2992C599.3 85.7992 608.6 81.4992 617 75.9992C628.8 68.2992 629 60.3992 618.8 50.7992C610.6 42.9992 600.6 37.9992 590.3 33.7992C568.3 24.8992 545.4 19.6992 522 15.9992C477.5 9.09919 432.9 7.59919 388 11.3992C364.2 13.3992 340.6 16.7992 317.8 24.1992C307.8 27.4992 298 31.6992 288.7 36.6992C283.5 39.4992 278.9 43.9992 275.3 48.6992C270.1 55.5992 271.4 62.8992 278.1 68.2992C282.8 72.0992 287.9 75.4992 293.2 78.4992C306.1 85.7992 319.9 90.4992 334 94.1992C374.3 104.599 415.5 107.299 465.4 108.499ZM555.2 120.199C554.4 132.999 553.4 145.099 553 157.299C552.9 161.399 553.9 165.699 555.1 169.699C556 172.599 557.3 175.799 562.1 176.099C563.6 173.799 565.6 171.299 566.8 168.499C569.3 162.699 571.2 156.599 573.5 150.699C574.7 147.499 575.7 144.099 577.4 141.199C581.9 133.699 589.1 133.599 593.6 141.299C595.5 144.599 596.9 148.599 597.3 152.499C598.1 160.399 598.4 168.399 598.1 176.299C597.5 194.599 596.2 212.799 595.5 231.099C595.1 241.199 595.5 251.299 598.9 260.899C600 264.099 600.8 267.599 604.3 268.899C609.2 266.199 608.7 261.899 608.6 257.599C607.8 213.799 610.6 170.199 616.1 126.799C617.3 117.399 618.5 107.999 619.8 97.1992C599.1 108.899 577.6 115.099 555.2 120.199ZM385.9 228.399C388.4 220.899 394.1 223.699 397.9 222.099C397.7 214.599 396.5 213.599 390.3 215.199C387.5 215.899 384.7 216.899 381.9 217.499C376.5 218.799 371.6 217.799 368.8 212.699C365.2 206.399 360.1 205.699 353.9 207.399C351.9 207.999 349.8 208.399 347.7 208.599C342.1 209.199 336.9 207.999 333.7 202.999C330.9 198.699 327.7 198.599 323.5 200.499C317.7 203.099 312.2 202.699 307.3 198.299C306.5 197.599 305.6 196.999 304.7 196.499C302.3 195.099 300.2 195.399 298.3 197.299C294.5 200.999 293 208.399 295.2 212.799C297.5 217.399 301.8 218.799 308.8 217.399C308.8 216.199 308.8 214.999 308.8 213.699C313.3 212.999 316.7 215.199 319.8 217.599C322.7 219.899 325.4 222.499 328.5 224.599C333.4 228.099 338.6 226.699 341 221.599C348.1 222.299 352.1 223.799 356.6 229.599C359.9 233.699 363.4 235.099 368.3 233.899C369.5 233.599 370.9 233.599 371.8 233.499C374.1 230.799 372.4 225.999 376.9 225.299C380.3 229.899 377.3 236.999 383.3 240.099C390.3 237.599 390.3 237.599 393.9 232.499C391.2 231.099 388.6 229.799 385.9 228.399ZM267.9 178.899C267.9 157.499 267.9 137.599 267.9 117.699C262.6 130.799 257.9 143.899 257.1 157.899C256.7 166.199 260.4 172.599 267.9 178.899Z" fill="#131B43"></path>
    <path d="M277.9 201.099C281.5 202.499 283.4 203.299 285.4 204.099C285.6 206.699 285.5 209.099 285.9 211.399C287.3 221.199 295.5 227.599 305.2 225.699C312.2 224.299 318.1 224.599 323.3 230.299C326.7 233.999 331.6 234.799 336.6 233.699C338.9 233.199 341.3 232.899 343.6 232.499C347 231.799 349.9 232.299 352.1 235.299C355.6 240.199 360.7 241.199 366.2 240.599C370.1 240.199 373.3 240.799 376.2 243.999C379.3 247.599 383.6 247.599 387.9 245.999C393.1 244.099 397.2 240.699 399.9 236.099C402.1 232.299 404.9 231.399 409 231.299C422.3 230.699 435.3 228.299 448 224.499C449 224.199 450 223.799 451 223.499C469 217.999 481.9 206.899 489.5 189.499C497.2 171.899 502.7 153.699 506.6 134.999C507 132.899 507.5 130.899 508 128.299C521.3 126.299 534.6 124.299 548.8 122.199C548.2 129.299 547.6 135.799 547.2 142.199C546.8 148.499 546.4 154.899 546.5 161.199C546.6 167.399 548.5 173.199 552.4 178.199C557.6 184.899 564.5 185.099 569.7 178.399C572.4 174.899 574.4 170.699 576 166.499C578.1 161.099 579.4 155.399 581.2 149.799C582 147.399 583.2 145.199 584.5 142.199C588.8 146.699 589.6 151.099 589.4 155.599C588.7 171.699 587.2 187.899 587 203.999C586.7 220.399 587 236.799 587.9 253.199C588.3 259.299 590.8 265.599 593.4 271.299C596 277.099 600.9 280.199 608.2 277.799C608.6 279.699 609.2 281.399 609.3 283.099C610.6 304.299 611.6 325.499 613 346.599C613.7 357.299 610.1 366.199 602.5 372.899C595.8 378.799 588.4 384.199 580.6 388.399C561.3 398.899 540.2 404.199 518.6 407.399C460.6 415.899 403.4 412.199 347.2 394.999C328.1 389.199 309.8 381.499 293.3 369.999C286.8 365.499 281 359.899 274.8 354.999C271.5 352.399 270.5 349.399 270.7 345.299C271.6 329.699 272.3 314.099 273.1 298.399C274.6 269.299 276.2 240.199 277.7 210.999C278 208.199 277.9 205.299 277.9 201.099ZM323.8 365.099C322 352.599 314.3 339.699 307.5 337.599C311.3 348.399 314.8 358.399 323.8 365.099ZM299.6 347.899C297.3 340.199 294.7 334.699 289.1 329.799C288.9 338.199 291.1 341.999 299.6 347.899Z" fill="#94A9BF"></path>
    <path d="M277.7 89.5996C283.6 93.1996 289.3 96.9996 295.3 100.1C315.4 110.6 337 117 359.2 121.2C400.8 129.1 442.6 132.7 484.9 129.5C488.3 129.2 491.8 129.2 495.2 129.1C495.7 129.1 496.2 129.4 497 129.7C497 130.9 497.3 132.2 497 133.3C490.9 153.3 484.6 173.3 478.4 193.2C475.6 202.2 469.4 208 460.8 211.3C443.1 218.1 424.8 221.4 406.4 221.8C405.6 221.1 405.3 221 405.3 220.8C401.2 207.8 397.7 206 385.1 210.4C383.4 211 381.6 211.6 379.8 212C376.7 212.7 374.1 212.2 372.5 208.9C367.9 199.7 360.7 197.7 351.2 200.4C345.9 202 341 201.6 337.4 196C334.1 190.9 328.6 190.5 323.2 192.9C319.6 194.5 316.6 195 313 192.2C302.5 183.8 300.4 184.1 290.1 193.1C286.7 191.3 283 189.4 279.6 187.6C278.9 154.9 278.3 122.6 277.7 89.5996Z" fill="#94A9BF"></path>
    <path d="M465.4 108.499C415.5 107.399 374.3 104.599 334 94.1994C319.9 90.4994 306.1 85.7994 293.3 78.6994C288 75.6994 282.9 72.3994 278.2 68.4994C271.5 62.9994 270.3 55.7994 275.4 48.8994C279 44.1994 283.6 39.5994 288.8 36.8994C298.1 31.8994 307.9 27.6994 317.9 24.3994C340.7 16.8994 364.3 13.5994 388.1 11.5994C432.9 7.79936 477.6 9.29936 522.1 16.1994C545.5 19.7994 568.4 24.9994 590.4 33.9994C600.7 38.1994 610.7 43.1994 618.9 50.9994C629 60.5994 628.9 68.4994 617.1 76.1994C608.7 81.5994 599.5 85.8994 590.1 89.4994C566.1 98.4994 541 102.699 515.7 105.199C496.1 106.899 476.5 107.699 465.4 108.499ZM613.1 62.1994C605.5 51.0994 595.4 45.3994 584.5 40.8994C579.1 38.6994 573.7 36.5994 568.1 34.8994C539.8 26.0994 510.6 22.5994 481.2 21.1994C452.3 19.7994 423.4 20.1994 394.6 22.6994C368.4 24.8994 342.6 29.4994 317.8 38.6994C304.9 43.4994 292.1 48.6994 284.5 60.7994C280.2 60.9994 279.3 54.6994 273.8 56.7994C275 58.8994 275.6 61.0994 277 62.2994C282 66.5994 286.8 71.4994 292.5 74.4994C300.7 78.6994 309.4 82.0994 318.3 84.6994C351.3 94.4994 385.2 98.2994 419.4 100.399C454.9 102.599 490.4 100.699 525.8 96.9994C544.8 94.9994 563.6 91.9994 581.9 86.2994C592.1 83.1994 602.2 79.7994 610.5 72.8994C613.7 70.2994 616.6 66.8994 618.6 63.2994C620.5 59.9994 621 55.9994 616.8 52.0994C615.5 55.5994 614.6 58.1994 613.1 62.1994Z" fill="#5B93B2"></path>
    <path d="M555.2 120.2C577.6 115.2 599.1 108.9 619.8 97.0996C618.4 107.8 617.2 117.3 616.1 126.7C610.6 170.1 607.8 213.7 608.6 257.5C608.7 261.8 609.1 266.1 604.3 268.8C600.7 267.5 600 264 598.9 260.8C595.5 251.1 595.2 241 595.5 231C596.2 212.7 597.5 194.5 598.1 176.2C598.4 168.3 598 160.3 597.3 152.4C596.9 148.6 595.6 144.6 593.6 141.2C589.2 133.5 582 133.6 577.4 141.1C575.7 144 574.7 147.4 573.5 150.6C571.3 156.5 569.3 162.6 566.8 168.4C565.6 171.2 563.6 173.7 562.1 176C557.3 175.7 556 172.5 555.1 169.6C553.9 165.6 552.9 161.3 553 157.2C553.4 145.1 554.4 133 555.2 120.2Z" fill="#FFC229"></path>
    <path d="M385.9 228.4C388.6 229.8 391.2 231.1 393.8 232.4C390.2 237.6 390.2 237.6 383.2 240C377.2 236.9 380.2 229.8 376.8 225.2C372.3 225.9 374 230.7 371.7 233.4C370.8 233.5 369.4 233.5 368.2 233.8C363.3 235 359.8 233.6 356.5 229.5C351.9 223.8 347.9 222.2 340.9 221.5C338.6 226.6 333.3 228 328.4 224.5C325.4 222.4 322.7 219.8 319.7 217.5C316.5 215.1 313.2 212.9 308.7 213.6C308.7 215 308.7 216.2 308.7 217.3C301.7 218.7 297.4 217.2 295.1 212.7C292.9 208.3 294.4 200.9 298.2 197.2C300.2 195.2 302.3 194.9 304.6 196.4C305.5 196.9 306.4 197.5 307.2 198.2C312.1 202.6 317.6 203 323.4 200.4C327.6 198.5 330.8 198.6 333.6 202.9C336.8 207.8 342 209.1 347.6 208.5C349.7 208.3 351.8 207.9 353.8 207.3C360 205.6 365.1 206.3 368.7 212.6C371.6 217.7 376.4 218.7 381.8 217.4C384.6 216.7 387.4 215.8 390.2 215.1C396.4 213.5 397.6 214.5 397.8 222C394.1 223.7 388.3 220.9 385.9 228.4Z" fill="#FFC229"></path>
    <path d="M323.8 365.1C314.8 358.4 311.3 348.4 307.5 337.6C314.3 339.7 322.1 352.6 323.8 365.1Z" fill="#131B43"></path>
    <path d="M299.6 347.899C291.1 342.099 288.9 338.199 289.1 329.799C294.7 334.699 297.3 340.199 299.6 347.899Z" fill="#131B43"></path>
    <path d="M613.1 62.1989C614.6 58.1989 615.5 55.5989 616.7 52.1989C620.9 55.9989 620.5 60.0989 618.5 63.3989C616.4 66.9989 613.6 70.2989 610.4 72.9989C602.1 79.8989 591.9 83.1989 581.8 86.3989C563.5 91.9989 544.7 95.0989 525.7 97.0989C490.3 100.699 454.9 102.699 419.3 100.499C385.1 98.3989 351.2 94.5989 318.2 84.7989C309.4 82.1989 300.6 78.7989 292.4 74.5989C286.7 71.5989 281.9 66.6989 276.9 62.3989C275.5 61.1989 274.9 58.9989 273.7 56.8989C279.2 54.7989 280.1 61.0989 284.4 60.8989C292 48.7989 304.8 43.5989 317.7 38.7989C342.5 29.5989 368.3 25.0989 394.5 22.7989C423.3 20.2989 452.2 19.9989 481.1 21.2989C510.5 22.6989 539.7 26.1989 568 34.9989C573.6 36.6989 579 38.6989 584.4 40.9989C595.4 45.3989 605.5 51.0989 613.1 62.1989ZM289.3 64.3989C300.4 70.4989 311.6 73.6989 322.8 76.6989C353.1 84.6989 384.1 88.4989 415.4 90.0989C461.5 92.3989 507.5 93.3989 553.2 84.5989C568.8 81.5989 584.4 78.2989 598.9 71.5989C601.7 70.2989 604.2 68.5989 606.8 67.0989C604.1 60.5989 600 56.2989 594.8 53.5989C587.3 49.7989 579.6 45.9989 571.6 43.3989C538.8 32.7989 504.8 29.2989 470.7 27.5989C429.5 25.4989 388.7 29.0989 348.2 37.1989C333.6 40.0989 319.3 43.9989 306.1 50.9989C300 54.1989 294.2 57.8989 289.3 64.3989Z" fill="#131B43"></path>
    <path d="M289.3 64.3997C294.2 57.8997 300 54.1997 306.1 50.9997C319.4 43.9997 333.7 40.0997 348.2 37.1997C388.6 29.0997 429.5 25.4997 470.7 27.5997C504.9 29.2997 538.9 32.7997 571.6 43.3997C579.6 45.9997 587.3 49.7997 594.8 53.5997C600.1 56.2997 604.1 60.4997 606.8 67.0997C604.2 68.5997 601.6 70.2997 598.9 71.5997C584.4 78.2997 568.8 81.5997 553.2 84.5997C507.5 93.2997 461.5 92.3997 415.4 90.0997C384.1 88.5997 353.1 84.7997 322.8 76.6997C311.6 73.6997 300.4 70.4997 289.3 64.3997ZM508.6 45.1997C499.7 43.9997 492.6 43.2997 485.7 42.1997C463.4 38.5997 441 37.4997 418.5 38.1997C417.2 38.1997 415.8 38.1997 414.6 38.4997C397 43.5997 380.8 51.2997 364.3 62.0997C368.1 62.9997 370.6 63.7997 373.2 64.0997C385.8 65.5997 398.4 67.2997 411.1 68.0997C427.7 69.1997 444.4 69.3997 461 69.9997C462.8 70.0997 464.9 70.1997 466.4 69.3997C478.9 62.9997 491.2 56.3997 503.5 49.7997C504.9 48.9997 506 47.4997 508.6 45.1997Z" fill="#FFC229"></path>
    <path d="M508.6 45.1993C506 47.5993 504.9 48.9993 503.4 49.7993C491.1 56.3993 478.7 62.9993 466.3 69.3993C464.8 70.1993 462.7 70.0993 460.9 69.9993C444.3 69.4993 427.6 69.1993 411 68.0993C398.3 67.2993 385.7 65.4993 373.1 64.0993C370.5 63.7993 368.1 62.9993 364.2 62.0993C380.6 51.2993 396.9 43.5993 414.5 38.4993C415.7 38.0993 417.1 38.1993 418.4 38.1993C440.9 37.4993 463.4 38.5993 485.6 42.1993C492.7 43.2993 499.7 43.9993 508.6 45.1993ZM382.1 57.3993C382.6 58.0993 382.7 58.4993 382.8 58.4993C408.2 59.2993 433.5 61.7993 458.6 65.8993C460 66.0993 461.8 65.7993 463 65.1993C472.8 59.9993 482.6 54.7993 492.4 49.4993C493.2 49.0993 493.8 48.2993 495.4 46.7993C492.4 46.4993 490.7 46.2993 488.9 46.1993C472.8 45.2993 456.6 44.4993 440.5 43.3993C412.3 41.4993 408.5 42.0993 386 54.3993C384.7 55.2993 383.4 56.3993 382.1 57.3993Z" fill="#FFC229"></path>
    <path d="M382.101 57.3999C383.401 56.3999 384.701 55.2999 386.101 54.4999C408.501 42.2999 412.301 41.5999 440.601 43.4999C456.701 44.5999 472.801 45.2999 489.001 46.2999C490.701 46.3999 492.501 46.5999 495.501 46.8999C493.901 48.3999 493.301 49.0999 492.501 49.5999C482.701 54.8999 473.001 60.1999 463.101 65.2999C461.801 65.9999 460.101 66.2999 458.701 65.9999C433.601 61.7999 408.301 59.3999 382.901 58.5999C382.701 58.4999 382.601 58.0999 382.101 57.3999Z" fill="#FFC229"></path>
    <path d="M549.8 101.199C549.8 101.199 548.2 94.0992 547.1 92.9992C546 91.8992 551.8 90.6992 551.8 90.6992C551.8 90.6992 555.6 97.0992 555.6 98.6992C555.6 100.299 555.6 100.799 555.6 100.799L549.8 101.199Z" fill="#131B43"></path>
    <path d="M617.3 64.8984C617.3 64.8984 619.5 64.8984 621.6 67.1984C623.7 69.3984 623.4 71.3984 623.5 72.7984C623.6 74.1984 619 76.4984 619 76.4984L612.4 69.0984L617.3 64.8984Z" fill="#131B43"></path>
    <path d="M555.201 120.2C555.501 113.7 555.501 109.2 554.701 101.5C553.801 93.0996 550.701 86.6996 530.901 87.8996C517.301 88.6996 530.601 72.0996 530.601 72.0996L599.601 61.0996C599.601 61.0996 611.201 64.6996 617.901 70.3996C622.501 74.2996 620.501 92.8996 619.701 97.2996C619.001 101.6 569.801 122.2 569.801 122.2L555.201 120.2Z" fill="#FFC229"></path>
    <path d="M560 118.299C560 118.299 556.6 155.599 556.8 158.299C557 160.999 556.5 164.199 559.9 164.699C563.3 165.199 564.201 160.399 564.201 160.399C564.201 160.399 561.801 117.599 561.101 117.499C560.401 117.399 560.1 117.599 560 118.299Z" fill="white"></path>
  </g>
  <defs>
    <clipPath id="clip0">
      <rect width="386.5" height="423.3" fill="white" transform="translate(248)"></rect>
    </clipPath>
  </defs>
</svg>
