<?xml version="1.0" encoding="UTF-8"?>
<!-- Generator: Adobe Illustrator 25.2.1, SVG Export Plug-In . SVG Version: 6.00 Build 0)  -->
<svg xmlns="http://www.w3.org/2000/svg" xmlns:xlink="http://www.w3.org/1999/xlink" version="1.1" id="Layer_1" x="0px" y="0px" viewBox="0 0 771 866" style="enable-background:new 0 0 771 866;" xml:space="preserve">
<style type="text/css">
	.st0{fill:#FFC229;}
	.st1{fill:#D38D11;}
	.st2{fill:#131B43;}
	.st3{fill:#FFFFFF;}
	.st4{fill:#94A9BF;}
</style>
<path class="st0" d="M638,573c5.9-0.1,11.3-2.2,16.1-6.4c2.6-2.3,4.5-5.4,5.6-9.4c1.4-5.1,0.7-9.9,0.1-13.1  c-2.4-11.7-5.1-23.2-8.4-36.8c-5-20.6-10.1-41.8-15.1-62.9c-5.1-21.6-5.9-24.9-11.1-46.9c0,0-38.4-37.3-40.7-46.9  c-2-8.5,2.1-19.8,4.7-29.5c3.3-12.6,10-34.9,10-34.9c-1.9-8.2-3.8-16.7-5.7-25c-2.6-11.2-5.2-22.7-7.8-33.8  c-5.1-22.2-10.5-45.2-15.5-67.9c-2.8-12.8-5.8-25.8-8.8-38.3c-3.1-13.2-6.3-26.8-9.2-40.2c-1-4.4-2-8.8-3.1-13  c-0.6-2.6-1.3-5.3-1.9-7.9c-0.4-1.6-0.7-3.1-1-4.8c-0.1-0.6-0.2-1.2-0.3-1.7c-0.7-3.9-1.6-7.6-3.6-11.2c-2-3.6-4.6-6.4-7.8-8.5  c-1.9-1.2-3.8-2-6-2.6c-2-0.5-4-0.7-5.9-0.7c-3.7,0-7.4,0.9-10.8,2.8c-4.3,2.3-7.6,4.7-10.2,7.6c-1.1,1.2-2.2,2.3-3.4,3.5  c-0.4,0.4-0.8,0.8-1.2,1.2c-3.1,3.1-6.2,6.2-9.4,9.3c-7.7,7.6-15.7,15.6-23.6,23.3c-14,13.7-28.3,27.7-41.6,40.7  c-10.3,10.1-20.7,20.1-31,30.2c-7.8,7.5-15.5,15.1-23.3,22.6c-10.8,10.5-21.5,21-32.3,31.5l-14,13.7l-64.4,62.8  c-12.9,12.6-25.9,25.2-38.8,37.8c-8.5,8.3-17.1,16.6-25.6,25c-10.3,10-20.6,20-30.9,30c-2.7,2.6-5.5,5.4-8.1,8c-2,2-4.1,4.1-6.2,6.1  c-1.3,1.3-2.7,2.6-4,3.9c-1.5,1.4-3,2.9-4.5,4.4c-3.3,3.2-5.7,7.1-7.3,11.5c-0.9,2.6-1.3,5-1.3,7.3c0.1,7.3,3.4,13.1,9.5,16.8  c1.8,1.1,3.5,1.9,5.2,2.5c4.3,1.5,8.1,2.8,11.7,3.8c28.4,8.5,56.7,16.5,90.5,25.9c39,10.9,78.5,22.1,120.9,34.4  c11.6,3.4,23.5,6.8,34.9,10c20,5.7,40.6,11.7,60.9,17.6c22.1,6.5,44.6,13,66.4,19.2c5.6,1.6,11.3,3.2,16.9,4.9  c18.7,5.4,38.3,11,58.3,16.8c3.3,1,6.7,2,10,3.1c1.3,0.4,2.7,0.8,4,1.3c4.7,1.4,8.4,2.3,11.9,2.7c2,0.2,3.7,0.4,5.4,0.4  C637.7,573,637.8,573,638,573z"></path>
<path class="st1" d="M623.3,406c-0.3-0.9,0.8-2.2,2.5-3.6c0.1,0.1,0.1,0.1,0.1,0.1c4.8,20.3,5.5,23.4,10.3,43.4  c4.6,19.5,9.3,39.1,13.9,58.2c3.1,12.6,5.5,23.2,7.8,34c0.6,3,1.2,7.4-0.1,12.1c-1,3.7-2.8,6.6-5.2,8.7c-4.4,3.8-9.5,5.9-14.9,5.9  c-0.1,0-0.2,0-0.4,0c-1.5,0-3.1-0.1-5-0.3c-3.3-0.4-6.7-1.2-11-2.5c-1.2-0.4-2.5-0.8-3.7-1.2c-3-1-6.1-1.9-9.2-2.8  c-18.5-5.4-36.6-10.6-53.9-15.6c-5.2-1.5-10.5-3-15.7-4.5c-13.2-3.8-26.7-7.6-40.2-11.6c-0.8-1.3-0.9-2.4-0.2-3.5  C567.3,467.9,624.6,410.3,623.3,406z"></path>
<path class="st2" d="M522.9,34c-3.1,0-6.2,0.8-9.2,2.4c-3.5,1.8-6.6,3.9-9.2,6.9c-1.5,1.7-3.2,3.2-4.8,4.8  c-11,10.9-21.9,21.8-32.9,32.6c-13.8,13.6-27.7,27.2-41.6,40.7c-18.1,17.6-36.2,35.2-54.3,52.8c-15.4,15.1-30.9,30.1-46.3,45.2  c-17.1,16.7-34.3,33.4-51.4,50.1c-17.3,16.8-34.5,33.7-51.8,50.5c-18.8,18.3-37.7,36.7-56.5,55c-4.8,4.7-9.5,9.4-14.3,14.1  c-2.8,2.8-5.7,5.5-8.5,8.2c-2.9,2.9-5.1,6.3-6.4,10.2c-0.7,2-1.1,4-1.1,6.1c0.1,6,2.6,10.7,7.8,13.9c1.4,0.9,3,1.6,4.5,2.2  c3.8,1.3,7.6,2.6,11.5,3.8c30.1,9,60.2,17.4,90.4,25.9c40.4,11.2,80.7,22.7,120.9,34.4c31.9,9.2,63.9,18.3,95.8,27.7  c27.7,8.2,55.5,16.1,83.3,24.1c19.4,5.6,38.9,11.2,58.3,16.8c4.7,1.4,9.4,2.9,14,4.3c3.7,1.2,7.4,2.1,11.3,2.6  c1.7,0.2,3.3,0.3,5,0.3c0.1,0,0.2,0,0.4,0c5.3-0.1,9.9-2.1,13.9-5.5c2.3-2,3.7-4.7,4.5-7.7c1.1-3.8,0.8-7.6,0-11.5  c-2.5-12.3-5.4-24.5-8.4-36.7c-5.1-21-10.1-41.9-15.1-63c-3.9-16.7-7.9-33.4-11.8-50.1c-1.2-5.3-9.1-5.4-10.4-10.6  c-6-8.9-26.2-24.4-28.5-33.9c-2-8.5,9-21,7-29.5c4.1-19.7,5.8-38.1,1-59.2c-7.8-33.9-15.8-67.7-23.3-101.7  c-5.8-26.2-12.3-52.3-18-78.5c-1.5-7-3.3-13.9-5-20.9c-0.5-2.2-0.9-4.4-1.3-6.7c-0.7-3.5-1.4-7-3.2-10.2c-1.6-3-3.8-5.4-6.6-7.2  c-1.5-1-3.1-1.7-4.9-2.1C526.2,34.3,524.6,34,522.9,34z M522.9,27c2.2,0,4.5,0.3,6.8,0.8c2.5,0.6,4.8,1.6,7,3c3.7,2.4,6.7,5.6,9,9.7  c2.3,4.1,3.2,8.1,3.9,12.3c0.1,0.6,0.2,1.2,0.3,1.7c0.3,1.6,0.6,3.1,1,4.6c0.6,2.6,1.3,5.3,1.9,7.9c1.1,4.3,2.1,8.7,3.1,13.1  c2.9,13.4,6.1,27,9.2,40.1c3,12.5,6,25.5,8.8,38.3c5,22.6,10.3,45.6,15.5,67.8c2.6,11.1,5.2,22.5,7.8,33.8c0.6,2.7,1.3,5.5,1.9,8.3  c1.3,5.6-3.1,15.3-1.9,20.8c2.8,12.5-14.8,18.2-6.8,31.2c1.9,8.2-10.1,21.2-8.1,30c2.1,9.2,46.4,45.9,48.8,56.1  c5.4,22.7,8.8,36.9,8.8,36.9c5,21.1,10,42.2,15.1,62.9c3.3,13.6,6,25.1,8.4,36.9c0.7,3.6,1.5,9-0.1,14.8c-1.3,4.7-3.6,8.4-6.7,11.1  c-5.5,4.7-11.7,7.2-18.4,7.2c-0.1,0-0.3,0-0.5,0c-1.8,0-3.7-0.1-5.8-0.4c-3.8-0.5-7.7-1.3-12.5-2.8c-1.3-0.4-2.7-0.8-4-1.3  c-3.2-1-6.6-2.1-9.9-3c-20-5.8-39.6-11.5-58.3-16.8c-5.7-1.6-11.3-3.2-17-4.9c-21.8-6.2-44.3-12.7-66.4-19.2  c-20.3-6-40.9-11.9-60.9-17.6c-11.5-3.3-23.3-6.7-34.9-10c-42.4-12.3-81.9-23.5-120.8-34.4c-33.8-9.4-62.1-17.4-90.6-25.9  c-3.6-1.1-7.5-2.4-11.9-3.9c-1.9-0.7-3.9-1.6-5.8-2.8c-7.3-4.3-11.1-11.2-11.2-19.8c0-2.7,0.5-5.5,1.5-8.5c1.7-4.9,4.4-9.3,8.1-12.9  c1.5-1.5,3.1-3,4.5-4.4c1.3-1.3,2.7-2.6,4-3.9c2-2,4.2-4.1,6.2-6.1c2.7-2.6,5.4-5.4,8.1-8c10.3-10,20.8-20.2,30.9-30.1  c8.5-8.3,17.1-16.6,25.5-24.9c12.8-12.5,25.9-25.2,38.5-37.5l13.4-13c13.3-12.9,26.5-25.9,39.8-38.8l11.6-11.3  c4.7-4.6,9.4-9.2,14.1-13.8c10.5-10.3,21.5-20.9,32.2-31.4c7.8-7.5,15.5-15.1,23.3-22.7c10.1-9.9,20.6-20.1,31-30.2  c13.3-13,27.6-26.9,41.6-40.7c7.9-7.7,15.8-15.6,23.5-23.3c3.1-3.1,6.3-6.2,9.4-9.3c0.4-0.4,0.8-0.8,1.3-1.2  c1.2-1.1,2.3-2.2,3.3-3.3c2.9-3.2,6.4-5.9,11.1-8.4C514.4,28.1,518.6,27,522.9,27z"></path>
<path class="st3" d="M293.8,310.4c0,0.5-0.2,0.8-0.1,1.2c0.3,1.6,0.6,3.1,1,4.7c2.9,11.1,6.3,22.1,9.8,33c4,12.5,8,24.9,12.7,37.1  c0.4,1,0.7,1.9,1.1,2.9c0.2,0.6,0.2,1.6,1,1.3c0.7-0.2,0.2-1.2,0.1-1.8c-2-10.4-4.8-20.5-7.9-30.6c-4.6-15.2-9.8-30.1-15.4-44.9  c-0.4-1-0.6-2.2-1.6-2.9C294.4,310.3,294.1,310.4,293.8,310.4z"></path>
<path class="st3" d="M292.5,359.6c-0.2-0.1-0.5-0.2-0.6-0.2c-0.2,0.2-0.4,0.5-0.4,0.7c0.2,1,0.5,2,0.7,3  c4.6,15.2,9.1,30.5,13.8,45.6c2.1,6.8,4.6,13.5,6.9,20.3c0.5,1.3,0.7,2.9,2,3.8c0.3-1.4-0.5-2.7-0.7-4.1c-0.8-4.1-1.7-8.1-2.7-12.1  c-4.4-18.1-10.1-35.8-17.2-53.1C294,362.1,293.6,360.7,292.5,359.6z"></path>
<path class="st3" d="M581,232.3c-0.8-0.4-1.5-1-1.9-1.3c-0.5-0.6-0.7-0.8-0.9-1.1c-3.8-5.5-7.1-11.2-8.9-17.7  c-1.7-6.1-3.3-12.2-4.8-18.3c-1.2-4.9-2.1-9.9-2.6-15c-0.2-2.8-0.3-5.6-0.4-8.4c0-1,0.2-2.1,0.6-3c0.6-1.7,2.3-2.5,4-2  c0.8,0.2,1.7,0.7,2.4,1.3c4.9,21.8,9.9,43.6,14.9,65.3C582.7,232.7,581.8,232.7,581,232.3z"></path>
<path class="st3" d="M555.6,143c-0.1-0.9-0.1-1.9,0.1-2.8c0.1-0.8,0.3-1.7,0.7-2.4c1-1.9,3.2-2.4,5-1.1c0.1,0.1,0.3,0.2,0.4,0.3  c1.8,7.8,3.6,15.5,5.3,23.2c0.1,0.5,0.2,0.9,0.3,1.4c-0.5,0.5-1.1,0.8-1.8,1.1c-1.6,0.5-3.1,0.1-4.2-1.2c-0.6-0.7-1.1-1.6-1.4-2.4  C557.6,154,556,148.6,555.6,143z"></path>
<path class="st2" d="M589.1,236.7c0,1.5-0.1,3.1,0.1,4.6c0.6,5.6,1.2,11.1,1.8,16.7c0.6,5.8,1.4,11.6,1.9,17.5  c0.6,6.7-0.3,13.3-1.7,19.8c-1.8,8.4-3.8,16.7-5.7,25c-1.4,6-2.7,11.9-4.1,17.9c-0.2,0.9-0.4,1.7-0.7,2.6c-0.1,0.2-0.7,0.4-0.8,0.2  c-0.5-0.4-0.9-0.9-1.3-1.4c-2.6-3.2-5.1-6.3-7.6-9.6c-5.4-6.9-11.3-13.5-17.5-19.7c-0.8-0.8-1.7-1.6-2.5-2.3c-0.2-0.2-0.7-0.3-1-0.1  c-0.2,0.1-0.4,0.6-0.3,0.9c0.3,1,0.7,1.9,1.1,2.9c2.9,6.4,6.5,12.4,10.4,18.3c11,16.1,22.7,31.8,36,46.1  c5.3,5.7,10.9,11.1,16.3,16.7c1.3,1.3,2.6,2.5,3.8,3.7c3.3,3.4,5.7,5.9,7.6,14.5c0.8,3.7,3.2,4.2,4.6,7.8c0.8,2,1.7,4,2.7,5.9  c0.2,0.4,0.6,0.8,1,1.1c0.2,0.1,0.7-0.1,0.9-0.4c0.2-0.3,0.1-0.7,0.1-1.1c-0.3-2.1-0.7-7.9-1.2-10c-2.4-12.4-4.1-14.1-13-24.6  c-5-5.9-10.1-11.8-15.1-17.8c-5.3-6.4-10.6-12.8-15.8-19.2c-0.4-0.5-0.8-1-1.2-1.5c-0.6-0.7-0.8-1.6-0.6-2.5  c0.8-3.2,1.4-6.5,2.3-9.7c4-14.5,6.3-29.4,9.2-44.2c3-14.9,2-18.2-0.1-27.9c-0.8-4.9-1.6-4.1-2.6-9c-1.1-5.5-2.3-11-3.5-16.5  c-0.4-1.7-1-3.4-1.7-5.1c-0.1-0.3-0.8-0.5-1.2-0.6C589.5,235.8,589.3,236.4,589.1,236.7z"></path>
<path class="st3" d="M546,412.3c2.1,0.6,3.2,0.5,3.8-0.4c0.7-1.1,0.4-2.3-0.3-3.2c-1.2-1.8-2.4-3.6-3.8-5.3  c-4.2-4.8-8.5-9.6-12.8-14.2c-5.6-5.9-11.4-11.7-17.8-16.7c-1.2-1-2.4-1.9-3.7-2.7c-1.1-0.7-2.3-1.1-3.6-0.9c-1.4,0.1-2.5,1-2.5,2.4  c0,1.1,0.2,2.3,0.6,3.3c0.6,1.3,1.4,2.4,2.3,3.5c9.3,11.5,19.9,21.5,31.6,30.5c1.4,1.1,2.9,2,4.4,3  C544.8,411.9,545.6,412.1,546,412.3z"></path>
<path class="st3" d="M531,262.9c0,0.4-0.1,1.4,0.2,2.2c0.5,1.5,1.1,2.9,1.8,4.3c2.7,5.3,5.8,10.4,9.2,15.4c0.6,0.9,1.4,1.8,2.2,2.6  c0.8,0.8,1.8,1.1,2.8,0.6c0.9-0.5,1.3-1.3,1.1-2.4c-0.1-0.9-0.2-1.9-0.5-2.7c-0.7-2-1.3-4.1-2.2-6.1c-2-4.7-4.2-9.2-7.3-13.2  c-0.7-1-1.6-1.9-2.6-2.6C534,259.8,531.8,260.6,531,262.9z"></path>
<path class="st2" d="M532.6,242.1c0,0.4,0,0.7,0.1,1.1c0.9,2.1,1.7,4.3,2.8,6.3c8.7,16.5,17.4,33,26.1,49.4c1,1.8,1.9,3.6,3,5.3  c0.6,1,1.4,1.7,2.3,2.5c0.1,0.1,0.8-0.2,0.8-0.4c0.1-0.6,0.1-1.3-0.1-1.9c-0.8-2.3-1.5-4.6-2.4-6.8c-4.9-11.8-10.8-23.1-17.1-34.2  c-2.9-5-5.8-9.9-8.8-14.8c-1.3-2.2-3.1-4.1-4.7-6c-0.3-0.4-0.8-0.6-1.2-0.8C533.2,241.8,532.9,242,532.6,242.1z"></path>
<path class="st2" d="M506.5,254.2c-1.7-0.5-3.2,0.5-3.2,2.2c-0.1,3.1,1,5.7,3.6,7.5c1.9,1.3,3.9,0.4,4.3-1.8  C511.7,259.1,509.3,255,506.5,254.2z"></path>
<path class="st0" d="M612,785c1,0,3.2-0.5,3.9-3.6c0.3-1.4,0.6-2.8,0.9-4.2c0.6-3,1.3-6,2-9l1.1-4.5c3.6-14.7,7.3-30,11-44.9  c3.3-13,6.7-26.2,9.9-39c1.6-6.2,3.2-12.3,4.7-18.5c2.7-10.5,5.8-21.1,8.9-31.4c0.6-2,1.2-4,1.8-6c0.2-0.8,0.5-1.7,0.7-2.6  c0.3-1.1,0-1.9-0.1-2.3l-0.5-2l-2-0.6c-0.1,0-0.2,0-0.3-0.1c-0.3-0.1-0.6-0.2-1-0.2c-1.5-0.4-3.1-0.7-4.7-1c-3.1-0.7-6.2-1.3-9.3-2  c-67.8-15.8-137.5-32.5-213.2-51c-19.7-4.8-39.7-9.7-59-14.4c-25.7-6.3-52.4-12.7-78.5-19.1c-28.1-6.9-56.6-14-84.3-20.8l-19.1-4.7  c-15.1-3.7-29.9-7.4-46.3-11.6c-2-0.5-4.1-1.1-6-1.6c-1.5-0.4-3.1-0.8-4.6-1.2c-0.6-0.1-1.2-0.3-1.9-0.2c-2.1,0.1-3.5,1.4-4.1,4  c-0.2,0.8-0.4,1.7-0.6,2.6c-2.7,14-5.9,28.1-9,41.8c-0.6,2.7-1.2,5.4-1.8,8.1c-3.6,16.1-6.8,30.2-9.8,43.3c-2.3,10,0.2,0.4-2.4,10.6  c-1.2,4.8,8.7,17.9,7.4,22.7c-0.9,3.5,6.2,7.8,5.3,11.2c-0.2,1.1,1.2,3.6,1,4.7c-0.1,0.6-0.7,0.5,0.2,2c0.9,1.5,0.9,1.9,1.4,2.1  c6.6,1.6-0.1,7.4,6.5,9c2.4,0.6,6.2,10.7,8.6,11.3c12.1,3,12.4,3,24.6,6.1c19.4,4.8,39,9.8,58.1,14.6c5.4,1.4,10.8,2.7,16.2,4.1  l18.2,4.6c28.1,7.1,57.2,14.5,85.9,21.7c11.5,2.9,23.2,6,34.5,8.9c9.1,2.4,18.6,4.8,27.9,7.2c11.5,2.9,23.1,5.9,34.3,8.7  c16.5,4.2,30.5,7.7,47.2,12.1c8.2,2.1,34.9-20.9,37.8-19.6c3.1,1.4,10.2,32.1,20.2,34.7c6.6,1.7,13.1,3.5,19.7,5.2  c8.6,2.3,17.2,4.5,25.9,6.8c8.2,2.2,16.5,4.3,24.7,6.5c2.1,0.6,4.3,1.1,6.3,1.5h0.1C610.9,784.9,611.4,785,612,785z"></path>
<path class="st3" d="M184.3,672c-0.1-0.4-0.1-0.7-0.1-1.2c0.1-1.6,1.1-2.5,2.5-2.7c4.1-0.6,7.8,0.7,11.3,3.2c1.1,1,1.7,2.1,1.5,3.5  c-0.1,0.4-0.1,0.6-0.3,0.9C194.2,674.5,189.2,673.3,184.3,672z"></path>
<path class="st3" d="M145.5,658.2c1.9-0.1,3.8-0.3,5.7-0.2c8.1,0.6,16,2.9,23.7,6.3c1.1,0.5,2.1,1.1,2.7,1.4c0.6,0.5,0.8,0.7,1,0.9  c1.4,1.4,1.8,3,1.2,4.2c-8.4-2.1-16.8-4.2-25.2-6.3c-4.5-1.1-8.9-2.2-13.4-3.3c0.1-1.1,0.7-1.9,1.9-2.3  C143.8,658.6,144.6,658.3,145.5,658.2z"></path>
<path class="st4" d="M140.2,663.9l-3.8-5.8c0,0,6.8-52.4,6.1-52.4c-0.7,0-15-3.7-15-3.7l-17.3-5.3c0,0-6.4,5.6,2.4-44  c-4.5,3-14.1,46.3-14.1,46.3s17,41.6,17.1,42.2C115.8,641.7,121.4,661.4,140.2,663.9z"></path>
<path class="st2" d="M499.8,721.4c0.4,0.1,0.8,0.2,1.3,0.2c0.7,0.1,1.4-0.7,1.3-1.3c-0.1-0.7-0.3-1.4-0.7-1.9  c-2.9-4.5-6.2-8.7-10.3-12.2c-1.7-1.5-3.5-1.9-4-1.1c-0.8,1.4,0,2.7,0.7,3.9c2.8,4.4,6.2,8.4,10.3,11.7  C498.9,720.9,499.3,721.2,499.8,721.4z"></path>
<path class="st2" d="M95.1,597.9c0.8-3.5,1.6-6.9,2.4-10.4c2.9-13,6.1-27.1,9.8-43.3c0.6-2.7,1.2-5.4,1.8-8.1  c3.1-13.7,6.3-27.8,9-41.7c0.2-1,0.4-1.9,0.6-2.7c0.2-0.8,0.5-1.8,1.1-2.9c1.3-2.3,3.7-3.7,6.3-3.8c1.2,0,2.1,0.2,3,0.4  c1.5,0.4,3.1,0.8,4.7,1.2c2,0.5,4,1.1,6,1.6c16.5,4.1,31.3,7.8,46.3,11.6c6.4,1.6,12.8,3.2,19.1,4.7c27.6,6.8,56.2,13.9,84.2,20.8  c26.1,6.4,52.7,12.9,78.4,19.1c19.4,4.7,39.4,9.6,59.1,14.4c75.7,18.5,145.4,35.1,213.1,51c3.1,0.7,6.2,1.4,9.3,2  c1.6,0.3,3.1,0.7,4.7,1c0.5,0.1,0.9,0.2,1.2,0.3c0.1,0,0.1,0,0.2,0.1l4.1,1.1l0.9,3.9c0.2,0.7,0.6,2.2,0.1,4.1  c-0.2,1-0.5,1.9-0.7,2.7c-0.6,2-1.2,4-1.8,6c-3,10.2-6.2,20.8-8.8,31.3c-1.6,6.2-3.2,12.4-4.8,18.6c-3.3,12.8-6.7,25.9-9.9,38.9  c-3.7,14.9-7.4,30.2-11,44.9l-1.1,4.5c-0.7,2.9-1.4,6-2,8.9c-0.3,1.4-0.6,2.8-0.9,4.2c-1,4.5-4.3,6.2-7.2,6.3c-1,0-1.9-0.1-2.5-0.2  l-0.1,0c-2.1-0.5-4.3-1-6.4-1.6c-8.2-2.1-16.4-4.3-24.6-6.5c-8.7-2.3-17.3-4.5-26-6.8c-6.6-1.7-13.2-3.5-19.7-5.2  c0,0-5.6-1.4-8.4-4.7c-4.2-5.5-9.4-25-10.7-29.4c-0.4-1.5-0.8-1.6-2-0.7c-4.2,3.3-8.4,6.7-12.8,9.7c-3.5,2.4-7.2,4.5-10.9,6.4  c-8.3,4.7-12.4,4.6-24.2,0.7c-13.9-3.6-21.1-5.4-36.2-9.2c-11.2-2.9-22.9-5.8-34.3-8.7c-9.3-2.4-18.7-4.8-27.9-7.2  c-11.3-2.9-23-6-34.5-8.8c-28.6-7.3-57.7-14.6-85.8-21.7l-18.2-4.6c-5.4-1.3-10.7-2.7-16.1-4.1c-19.1-4.8-38.8-9.8-58.1-14.6  c-5.3-1.3-16.6-4.2-21.9-5.5c-13.1-7.8-29-38.9-35.8-67.9C95.1,598,95.1,598,95.1,597.9z M106,607.2c5,15.4,14.3,36,21.3,43.6  c2.9,3.2,5,5.4,7.1,7c-1.8-7.1,5.1-47,5.8-50.7c0-0.1-0.1-0.3-0.2-0.3c-32.8-6.3-32-9.1-31.2-14.1c0.1-0.8,0.3-1.7,0.6-2.4  c0-0.1,0.2-0.2,0.3-0.2c0.1,0,0.2,0.1,0.2,0.3c0,0.8,0,1.6,0.1,2.3c0.1,0.8,0.5,1.4,0.9,2c2.4,3.2,26.4,6.8,34.1,7.9  c1.3,0.2,2.1,1.4,1.9,2.7c-0.8,4-2.5,11.9-3.1,15.6c-0.4,2.5-0.8,5-1.2,7.4c-0.4,2.5-0.7,5-1.1,7.5c-0.6,5-1.2,10-1.5,15  c-0.1,2.5-0.5,5,0,7.5c0.4,2.5,10.8,5.4,18,7.1c23.7,5.4,47.2,11.9,70.8,17.9c34.7,8.8,69.4,17.5,104.1,26.3  c20.8,5.3,41.6,10.7,62.4,16c24.7,6.3,49.4,12.5,74.1,18.9c0,0,3.7,0.9,7.5,1.9c4.5,1.4,9.8-3.5,15.1-7.6c5.9-4.6,11.9-9,17.9-13.4  c0.9-0.7,1.2-1.4,1-2.5c-0.4-1.8-1-3.6-1.2-5.4c-0.2-1.7-0.1-3.3,0-5c0.2-1.4,1.6-1.8,2.5-0.8c1,1.2,2,2.4,2.6,3.8  c1,2,1.8,4.1,2.5,6.3c3.1,9.2,6.1,18.5,9.1,27.7c0.8,2.4,1.7,4.8,2.5,7.2c0.8,2.6,1.5,4.5,7.5,5.9l11.7,2.7  c18.5,4.1,39.9,10.2,56.8,14.6c2.1,0.6,4.2,1,6.3,1.5c0.2,0.1,0.5,0.1,0.6,0.1c0.4,0,0.5-0.2,0.6-0.8c1-4.4,1.9-8.8,2.9-13.3  c4-16.5,8-33,12.1-49.4c4.8-19.2,9.8-38.3,14.7-57.5c3.2-12.6,7-25,10.7-37.5c0.2-0.8,0.5-1.6,0.7-2.4c0-0.1-0.1-0.4-0.1-0.6  c-0.4-0.1-0.7-0.2-1.1-0.3c-4.7-1-9.4-2-14.1-3.1c-71.2-16.6-142.2-33.6-213.2-51c-45.8-11.2-91.7-22.3-137.5-33.5  c-34.5-8.5-68.9-17-103.4-25.5c-15.5-3.8-30.9-7.7-46.3-11.6c-3.6-0.9-7.1-1.9-10.6-2.8c-0.4-0.1-0.7-0.2-0.9-0.1  c-0.5,0-0.6,0.4-0.8,1.3c-0.2,0.8-0.4,1.7-0.5,2.5c-3.2,16.7-7.1,33.3-10.9,50c-3.2,14.4-6.5,28.9-9.8,43.3  C102.6,596.7,103.3,599.1,106,607.2z"></path>
<path class="st3" d="M532.3,741.7c0.8,1.1,1.4,1.5,2,1.3c0.8-0.3,1.1-1,1.2-1.7c0.1-1.4,0.3-2.7,0.3-4.1c-0.1-4-0.2-8.1-0.5-12.1  c-0.4-5.1-0.8-10.3-1.9-15.3c-0.2-1-0.5-1.9-0.7-2.8c-0.2-0.8-0.7-1.4-1.4-1.9c-0.8-0.5-1.6-0.5-2.2,0.2c-0.5,0.6-0.8,1.2-1,1.9  c-0.2,0.8-0.3,1.8-0.3,2.6c-0.1,9.3,1,18.5,3,27.6c0.2,1.1,0.6,2.2,1,3.2C531.9,741,532.2,741.4,532.3,741.7z"></path>
<path class="st2" d="M450.5,402.6c3.1-0.7,6.9-1.6,10.7-2.4c2.3-0.5,4.6-0.8,6.9-1.1c0.2,0,0.6,0.2,0.7,0.4c0.1,0.2,0.1,0.6-0.1,0.8  c-0.5,0.6-1,1.1-1.6,1.7c-6.3,5.7-12.7,11.4-19,17.1c-8,7.2-15.9,14.4-24,21.5c-7.7,6.9-15.6,13.6-23.5,20.4c-2,1.7-4.1,3.2-6.2,4.9  c-0.7,0.6-1.3,0.4-1.5-0.5c-0.5-2.4-1-4.7-1.3-7.1c-0.6-4.7-1.1-9.4-1.7-14.1c-0.6-5.4-1.1-10.8-1.7-16.2c-0.4-4.2-0.9-8.5-1.4-12.7  c-0.6-4.9-1.1-9.8-1.7-14.7c-0.5-4.2-1-8.4-1.5-12.7c-0.2-1.8-0.4-3.7-0.6-5.5c0-0.5,0.1-1,0.1-1.4c0.1-0.4,0.6-0.6,0.9-0.4  c0.6,0.4,1.1,0.8,1.6,1.2c1.6,1.7,3.1,3.4,4.6,5.2c3.4,4,6.7,8,10.1,12c0.4,0.5,0.8,0.5,1.1,0c0.6-0.8,1.1-1.6,1.6-2.4  c10-15.5,19.9-30.9,29.9-46.4c7.6-11.7,15.2-23.4,22.8-35.1c0.5-0.7,0.9-1.5,1.4-2.2c1.2-1.8,0.4-1.6-1-1.7  c-16.4-0.9-32.8-1.7-49.3-2.6c-21.4-1.2-42.7-2.5-64-3.8c-2.3-0.1-4.6-0.3-6.9-0.4c-0.5,0-1,0-1.4-0.1c-1.2-0.2-1.6-1.2-0.9-2.1  c0.5-0.6,1-1.2,1.6-1.7c27.8-30.1,55.6-60.1,83.5-90.2c14.9-16,29.8-32,44.7-48.1c2.8-3.1,5.8-6,8.7-9c0.4-0.4,0.8-0.8,1.2-1.2  c0.7-0.8,1.6-1,2.6-0.8c1.1,0.2,2.1,0.3,3.1,0.6c11.5,2.6,23,5.2,34.5,7.9c8.2,1.9,16.4,3.7,24.6,5.6c0.8,0.2,1.5,0.3,2.2,0.6  c0.9,0.3,1.1,0.9,0.5,1.8c-0.5,0.7-1.1,1.4-1.7,2c-7.9,8.6-15.7,17.2-23.7,25.6c-24.5,25.8-49,51.5-73.5,77.3  c-0.5,0.5-0.9,1-1.4,1.5c-0.1,0.1-0.2,0.5-0.2,0.5c0.2,0.1,0.4,0.3,0.6,0.3c6.9,0,13.7,0.1,20.6,0.1c19,0,38.1,0,57.2,0  c1.1,0,2.5-0.4,3.1,0.8c0.6,1.2-0.6,2.2-1.2,3.1c-5.7,8.3-11.4,16.6-17.1,24.9c-6.7,9.6-13.4,19.3-20,28.9  c-12.6,18.1-25.2,36.2-37.9,54.4c-4.2,6.1-8.5,12.3-12.7,18.4c-0.3,0.4-0.6,0.8-0.8,1.2c-0.1,0.1-0.1,0.4,0,0.5  c0.1,0.1,0.4,0.1,0.5,0c0.8-0.2,1.5-0.4,2.2-0.6C440.3,405.2,445.1,404,450.5,402.6z"></path>
<path class="st2" d="M170.4,563.5l-7.7,31.4l5.7,1.4l3.4-13.9l13.3,3.2l-3.4,13.8l5.7,1.4l7.7-31.4l-5.7-1.4l-3.1,12.6l-13.3-3.2  l3.1-12.6L170.4,563.5z"></path>
<path class="st2" d="M209.7,581.8c-6.7-1.6-12.7,1.8-14.5,9.1c-1,3.9-0.3,7.3,1.5,9.9l-2.7,2.4l1.7,2.2l2.9-2.6  c1.4,1.3,3.2,2.2,5.3,2.7c5.6,1.4,12.4-1,14.4-9.2c0.9-3.7,0.3-7.1-1.5-9.7l2.8-2.5l-1.8-2.1l-2.8,2.5  C213.5,583.2,211.7,582.3,209.7,581.8z M200.9,597.1l-0.1,0c-0.5-1.6-0.4-3.3-0.1-4.9c0.9-3.6,3.5-7.3,7.8-6.3c1.3,0.3,2.3,1,3,1.9  L200.9,597.1z M212.5,590.3L212.5,590.3c0.6,1.7,0.4,3.5,0.1,4.8c-1.1,4.5-4.2,7.1-7.9,6.2c-1.1-0.3-2.1-0.8-2.8-1.8L212.5,590.3z"></path>
<path class="st2" d="M222.6,585.5l3.3,22.9c0.1,0.6,0.1,1,0,1.2c-0.1,0.3-0.2,0.6-0.6,0.9c-1.2,1.3-2.8,2.4-4,2.8  c-1.4,0.6-2.7,0.8-3.7,0.8l0.1,5.1c1.4,0.2,4,0,6.7-1.4c3.2-1.7,6.2-5,11.4-12.7l9.5-14.1l-6.1-1.5l-6.5,11.3  c-0.8,1.3-1.7,3-2.3,4.1l-0.1,0c0-1.3-0.1-3.2-0.2-4.7L229,587L222.6,585.5z"></path>
<path class="st2" d="M241.5,613c1.5,1.3,3.8,2.6,6.5,3.3c6,1.5,10-0.7,11-4.9c0.8-3.4-0.6-5.9-4.4-8.4c-2.6-1.8-3.5-2.7-3.2-4.1  c0.3-1.4,1.7-2.2,3.8-1.7c2,0.5,3.7,1.7,4.5,2.5l2.1-3.7c-1.2-1.1-3.2-2.2-5.7-2.8c-5.3-1.3-9.3,1-10.3,5c-0.7,2.7,0.6,5.6,4.6,8.1  c2.5,1.7,3.3,2.7,2.9,4.2c-0.4,1.5-1.7,2.3-4.3,1.7c-2.1-0.5-4.3-2-5.4-3.1L241.5,613z"></path>
<path class="st2" d="M259.8,628.4l5.7,1.4l2.9-11.8l0.1,0c0.7,2.1,2.8,3.9,5.6,4.6c5.2,1.3,11.3-1.4,13.3-9.6  c1.7-7.1-1.5-12.6-6.7-13.9c-3.5-0.8-6.5,0-8.8,2.1l-0.1,0l0.6-3.6l-5-1.2c-0.4,2.2-0.9,4.6-1.7,7.6L259.8,628.4z M270.9,607.5  c0.1-0.5,0.3-1,0.5-1.4c1.2-2.4,3.8-3.6,6.2-3c3.7,0.9,4.8,4.6,3.9,8.7c-1.1,4.5-4,7-7.6,6.1c-2.5-0.6-4.1-2.8-4.1-5.2  c0-0.5,0.1-1.1,0.2-1.6L270.9,607.5z"></path>
<path class="st2" d="M310.9,620.8c0.2-0.5,0.5-1.3,0.8-2.4c1.2-5,0.3-11.6-7.1-13.4c-7.3-1.8-12.5,3.2-14.1,9.5  c-1.7,6.9,1.5,12.5,8.9,14.3c3.3,0.8,6.1,0.8,8.3,0.5l0.1-4.1c-1.9,0.2-3.9,0.1-6.5-0.5c-3.7-0.9-6.4-3.4-5.6-7.6L310.9,620.8z   M296.7,613c0.8-2.3,3.1-5.1,6.6-4.3c3.8,0.9,3.9,4.6,3.4,6.7L296.7,613z"></path>
<path class="st2" d="M313.3,631.7l5.7,1.4l3.3-13.4c0.2-0.7,0.4-1.3,0.7-1.8c1-1.6,3-2.8,5.3-2.3c3.1,0.8,3.7,3.5,2.9,6.8l-3.1,12.8  l5.7,1.4l3.3-13.5c1.8-7.2-1.7-10.7-5.7-11.7c-3.8-0.9-6.8,0.6-8.2,2.1l-0.1,0l0.5-3.5l-5-1.2c-0.4,2-0.8,4.2-1.5,6.8L313.3,631.7z"></path>
<path class="st2" d="M340,638.2l5.7,1.4l3.3-13.4c0.2-0.7,0.4-1.3,0.7-1.8c1-1.6,3-2.8,5.3-2.3c3.1,0.8,3.7,3.5,2.9,6.8l-3.1,12.8  l5.7,1.4l3.3-13.5c1.8-7.2-1.7-10.7-5.7-11.7c-3.8-0.9-6.8,0.6-8.2,2.1l-0.1,0l0.6-3.5l-5-1.2c-0.4,2-0.8,4.2-1.5,6.8L340,638.2z"></path>
<path class="st2" d="M372.5,646.1l5.5-22.7l-5.7-1.4l-5.5,22.7L372.5,646.1z M377.5,613.2c-1.9-0.5-3.5,0.6-4,2.3  c-0.4,1.7,0.5,3.4,2.4,3.9c2,0.5,3.6-0.6,4-2.3C380.3,615.3,379.4,613.7,377.5,613.2z"></path>
<path class="st2" d="M378.7,647.6l5.7,1.4l3.3-13.4c0.2-0.7,0.4-1.3,0.7-1.8c1-1.6,3-2.8,5.3-2.3c3.1,0.8,3.7,3.5,2.9,6.8l-3.1,12.8  l5.7,1.4l3.3-13.5c1.8-7.2-1.7-10.7-5.7-11.7c-3.8-0.9-6.8,0.6-8.2,2.1l-0.1,0l0.5-3.5l-5-1.2c-0.4,2-0.8,4.2-1.5,6.8L378.7,647.6z"></path>
<path class="st2" d="M429.9,642.9c0.8-3.1,1.3-5,1.8-6.5l-5-1.2l-1,3l-0.1,0c-0.6-2.1-2.2-4.3-5.7-5.1c-5.5-1.3-11.4,2-13.2,9.5  c-1.6,6.4,1.3,12.1,6.9,13.5c3,0.7,5.6-0.1,7.4-1.7l0.1,0l-0.5,2c-1.2,4.9-4.5,6.2-8.2,5.3c-2.8-0.7-5-2.1-6.2-3.3l-2.3,4  c1.7,1.6,4.6,3,7.5,3.8c3.1,0.8,6.6,0.9,9.4-0.6c2.9-1.6,4.7-4.7,5.9-9.5L429.9,642.9z M422.6,647.8c-0.2,0.7-0.4,1.4-0.7,1.9  c-1.2,1.9-3.4,2.9-5.5,2.4c-3.6-0.9-4.8-4.5-3.8-8.3c1.1-4.6,4.2-6.8,7.4-6.1c2.4,0.6,3.7,2.6,3.8,4.8c0,0.5-0.1,1-0.2,1.6  L422.6,647.8z"></path>
<path class="st2" d="M441.7,663l5.7,1.4l8.1-33.1l-5.7-1.4L441.7,663z"></path>
<path class="st2" d="M459.4,667.3l5.5-22.7l-5.7-1.4l-5.5,22.7L459.4,667.3z M464.4,634.4c-1.9-0.5-3.5,0.6-4,2.3  c-0.4,1.7,0.5,3.4,2.4,3.9c2,0.5,3.6-0.6,4-2.3C467.3,636.5,466.4,634.9,464.4,634.4z"></path>
<path class="st2" d="M468.6,645.4l2.9,24.8l5.6,1.4l14.2-20.6l-6-1.5l-6.4,10.6c-1.1,1.9-2.1,3.6-2.9,5.3l-0.1,0c0-2,0-3.9-0.2-6.1  l-0.9-12.4L468.6,645.4z"></path>
<path class="st2" d="M487.6,673c1.5,1.3,3.8,2.6,6.5,3.3c6,1.5,10-0.7,11-4.9c0.8-3.4-0.6-5.9-4.4-8.4c-2.6-1.8-3.5-2.7-3.2-4.1  c0.3-1.4,1.7-2.2,3.8-1.7c2,0.5,3.7,1.7,4.5,2.5l2.1-3.7c-1.2-1.1-3.2-2.2-5.7-2.8c-5.3-1.3-9.3,1-10.3,5c-0.7,2.7,0.6,5.6,4.6,8.1  c2.5,1.7,3.3,2.7,2.9,4.2c-0.4,1.5-1.7,2.3-4.3,1.7c-2.1-0.5-4.3-2-5.4-3.1L487.6,673z"></path>
<path class="st2" d="M514.6,680.7l4.5-18.4l4.9,1.2l1-4.3l-4.9-1.2l0.3-1.2c0.7-2.8,2.2-4.9,5-4.3c1.1,0.3,1.8,0.6,2.4,1l1.5-4.3  c-0.8-0.5-2-1.1-3.5-1.4c-2-0.5-4.4-0.4-6.5,0.7c-2.4,1.4-3.9,4.1-4.6,7.1l-0.2,1l-3.1-0.8l-1,4.3l3.1,0.8l-4.5,18.4L514.6,680.7z"></path>
<path class="st2" d="M544.1,673.5c1.2-5,0.2-10.1-7-11.9c-3.6-0.9-6.8-0.6-8.7,0l0.2,4c1.8-0.6,4.3-0.7,6.5-0.2c4,1,4,3.6,3.7,5.1  l-0.1,0.4c-8.4-2.1-14.2-0.4-15.6,5.3c-0.8,3.5,0.9,7.4,5.5,8.5c3,0.7,5.7,0,7.5-1.4l0.1,0l-0.2,2.6l5.2,1.3c0.1-1.5,0.5-3.5,1-5.5  L544.1,673.5z M537.1,677.8c-0.1,0.4-0.2,0.8-0.4,1.2c-1,1.5-3,2.6-5.3,2c-1.8-0.4-3-1.8-2.5-4.1c0.8-3.5,4.9-3.3,9-2.3L537.1,677.8  z"></path>
<path class="st2" d="M546.8,688.6l5.7,1.4l2.9-11.8c0.1-0.6,0.3-1.2,0.6-1.7c1.1-2.5,3.5-3.7,6.2-3.1c0.7,0.2,1.2,0.3,1.7,0.6  l1.3-5.4c-0.4-0.2-0.8-0.3-1.3-0.5c-2.5-0.6-5.5,0.4-7.4,3.3l-0.1,0l0.8-4.3l-4.9-1.2c-0.3,2-0.8,4.3-1.6,7.4L546.8,688.6z"></path>
<path class="st2" d="M584.6,687.5c0.2-0.5,0.5-1.3,0.8-2.4c1.2-5,0.3-11.6-7.1-13.4c-7.3-1.8-12.5,3.2-14.1,9.5  c-1.7,6.9,1.5,12.5,8.9,14.3c3.3,0.8,6.1,0.8,8.3,0.5l0.1-4.1c-1.9,0.2-3.9,0.1-6.5-0.5c-3.7-0.9-6.4-3.4-5.6-7.6L584.6,687.5z   M570.4,679.7c0.8-2.3,3.1-5.1,6.6-4.3c3.8,0.9,3.9,4.6,3.4,6.7L570.4,679.7z"></path>
</svg>
