<?xml version="1.0" encoding="UTF-8"?>
<svg xmlns="http://www.w3.org/2000/svg" width="492" height="385" viewBox="0 0 492 385" fill="none">
  <path d="M308.344 201.207H338.865V176.529H308.344V201.207Z" fill="#ACCBEE"></path>
  <path d="M324.161 176.137V196.622H307.539V176.531L324.161 176.137Z" fill="#718DAA"></path>
  <path d="M91.5901 176.531H61.0693V197.889H91.5901V176.531Z" fill="#E7F0FD"></path>
  <path d="M122.111 176.531H91.5898V197.889H122.111V176.531Z" fill="#ACCBEE"></path>
  <path d="M152.659 176.531H122.139V197.889H152.659V176.531Z" fill="#E7F0FD"></path>
  <path d="M183.181 176.531H152.66V197.889H183.181V176.531Z" fill="#ACCBEE"></path>
  <path d="M61.0413 197.889H30.5205V219.247H61.0413V197.889Z" fill="#E7F0FD"></path>
  <path d="M91.5901 197.889H61.0693V219.247H91.5901V197.889Z" fill="#ACCBEE"></path>
  <path d="M61.0413 219.219H30.5205V240.577H61.0413V219.219Z" fill="#ACCBEE"></path>
  <path d="M122.111 197.889H91.5898V219.247H122.111V197.889Z" fill="#E7F0FD"></path>
  <path d="M152.659 197.889H122.139V219.247H152.659V197.889Z" fill="#ACCBEE"></path>
  <path d="M91.5901 219.219H61.0693V240.577H91.5901V219.219Z" fill="#E7F0FD"></path>
  <path d="M122.111 219.219H91.5898V240.577H122.111V219.219Z" fill="#ACCBEE"></path>
  <path d="M61.0413 240.576H30.5205V261.934H61.0413V240.576Z" fill="#E7F0FD"></path>
  <path d="M30.5208 219.219H0V240.577H30.5208V219.219Z" fill="#E7F0FD"></path>
  <path d="M91.5901 240.576H61.0693V261.934H91.5901V240.576Z" fill="#ACCBEE"></path>
  <path d="M399.955 197.875H430.476V176.517H399.955V197.875Z" fill="#E7F0FD"></path>
  <path d="M369.409 197.875H399.93V176.517H369.409V197.875Z" fill="#ACCBEE"></path>
  <path d="M338.89 197.875H369.411V176.517H338.89V197.875Z" fill="#E7F0FD"></path>
  <path d="M430.502 219.211H461.022V197.853H430.502V219.211Z" fill="#E7F0FD"></path>
  <path d="M461.02 197.875H491.541V176.517H461.02V197.875Z" fill="#E7F0FD"></path>
  <path d="M399.955 219.211H430.476V197.853H399.955V219.211Z" fill="#ACCBEE"></path>
  <path d="M430.502 240.576H461.022V219.218H430.502V240.576Z" fill="#ACCBEE"></path>
  <path d="M461.02 219.211H491.541V197.853H461.02V219.211Z" fill="#ACCBEE"></path>
  <path d="M369.409 219.211H399.93V197.853H369.409V219.211Z" fill="#E7F0FD"></path>
  <path d="M338.89 219.211H369.411V197.853H338.89V219.211Z" fill="#ACCBEE"></path>
  <path d="M399.955 240.576H430.476V219.218H399.955V240.576Z" fill="#E7F0FD"></path>
  <path d="M369.409 240.576H399.93V219.218H369.409V240.576Z" fill="#ACCBEE"></path>
  <path d="M430.502 261.914H461.022V240.556H430.502V261.914Z" fill="#E7F0FD"></path>
  <path d="M399.955 261.914H430.476V240.556H399.955V261.914Z" fill="#ACCBEE"></path>
  <path d="M348.672 220.314C348.082 219.864 347.465 219.442 346.847 219.02C343.674 216.853 340.473 214.742 337.328 212.519C336.542 211.957 335.363 211.675 335.419 210.353C335.419 210.353 335.138 210.043 333.285 209.902C333.313 209.987 333.341 210.071 333.341 210.127C333.341 210.353 333.145 210.718 332.948 210.775C332.246 211.028 331.544 211.253 330.814 211.366C329.523 211.563 328.203 211.647 326.911 211.788C326.771 211.816 326.574 211.985 326.546 212.097C326.518 212.238 326.631 212.491 326.743 212.576C329.326 214.405 331.909 216.29 334.577 218.035C335.644 218.738 336.879 219.301 338.143 219.667C341.484 220.595 344.937 220.849 348.419 220.989C348.56 220.989 348.784 220.849 348.84 220.736C348.84 220.652 348.784 220.398 348.672 220.314Z" fill="#94A9BF"></path>
  <path d="M122.307 174.786C105.853 174.617 89.3716 174.448 72.9179 174.307C69.8293 174.279 66.7407 174.336 63.6521 174.336C62.2763 174.336 62.0517 174.054 62.0236 172.675C61.9674 170.79 61.9955 168.933 61.8832 167.047C61.8271 166.063 62.2202 165.5 62.9783 164.993C65.7018 163.164 68.3973 161.307 71.0928 159.45C99.8166 139.274 128.456 118.985 156.815 98.3307C157.601 97.7679 158.219 96.7548 159.426 96.98C159.51 97.8804 159.595 98.809 159.707 99.7095C159.847 100.723 160.044 101.707 160.24 102.72C160.269 102.833 160.549 103.03 160.662 103.002C160.886 102.946 161.195 102.805 161.279 102.608C161.448 102.298 161.532 101.904 161.56 101.539C161.616 100.779 161.532 100.047 161.616 99.2874C161.729 98.1055 161.139 96.8674 161.897 95.7418C163.104 95.7137 164.284 95.6293 165.491 95.6293C170.461 95.6011 175.403 95.6293 180.372 95.6011C183.349 95.573 183.264 95.5448 183.208 98.5558C183.18 99.9628 183.18 101.37 183.124 102.777C183.096 103.424 182.703 103.818 182.057 103.846C181.299 103.874 180.569 103.874 179.811 103.874C174.673 103.93 169.534 104.015 164.368 104.099C163.526 104.127 162.711 104.268 161.897 104.465C161.729 104.493 161.476 104.859 161.504 105.056C161.532 105.253 161.813 105.563 162.009 105.591C163.104 105.788 164.228 105.985 165.323 106.041C170.461 106.266 175.599 106.463 180.737 106.66C181.215 106.688 181.664 106.66 182.141 106.716C182.647 106.773 182.984 107.11 183.04 107.645C183.096 108.292 183.096 108.967 183.096 109.615C182.956 130.522 182.843 151.43 182.703 172.338C182.703 172.901 182.703 173.463 182.675 174.026C182.619 174.898 182.31 175.264 181.524 175.292C180.597 175.349 179.642 175.321 178.716 175.321C159.904 175.152 141.119 174.955 122.307 174.786C122.307 174.701 122.307 174.73 122.307 174.786ZM159.875 105.703C159.454 105.506 159.061 105.169 158.893 105.253C157.573 105.956 156.253 106.66 155.018 107.504C129.074 125.457 103.326 143.692 77.8315 162.236C75.0237 164.262 72.3002 166.4 69.5766 168.539C68.3973 169.467 67.3303 170.537 66.2353 171.55C65.9545 171.803 65.7299 172.169 66.0668 172.507C66.2072 172.647 66.6003 172.619 66.8249 172.507C67.4988 172.197 68.2008 171.887 68.8185 171.494C71.4297 169.861 74.0971 168.257 76.6242 166.513C82.3802 162.517 88.1361 158.465 93.8079 154.357C114.838 139.189 135.841 123.966 156.843 108.77C157.685 108.18 158.472 107.504 159.23 106.829C159.482 106.576 159.595 106.182 159.875 105.703ZM99.0866 163.474C99.0585 161.11 97.0369 158.437 94.7345 157.761C94.1168 157.564 93.6675 157.846 93.3587 158.409C92.3478 160.407 91.309 162.404 90.2982 164.402C89.4558 166.119 89.1189 167.892 89.4277 169.805C89.6243 170.959 89.9612 171.381 90.972 171.128C93.1621 170.565 95.1837 169.58 96.8965 168.061C98.3004 166.879 99.1427 165.331 99.0866 163.474ZM102.933 169.524C103.383 169.524 104.281 169.074 105.067 168.398C107.538 166.26 108.605 163.417 109.082 160.322C109.138 159.9 109.026 159.365 108.802 159C108.661 158.746 108.212 158.493 107.903 158.493C107.594 158.493 107.145 158.746 107.033 159C106.836 159.506 106.78 160.069 106.724 160.632C106.527 162.404 106.134 164.121 105.32 165.725C104.758 166.851 104 167.751 102.905 168.342C102.175 168.736 101.277 168.145 101.333 167.357C101.361 166.991 101.445 166.625 101.557 166.26C101.754 165.528 102.035 164.824 102.203 164.121C102.316 163.671 102.372 163.108 101.754 162.995C101.501 162.939 101.08 163.277 100.94 163.53C100.519 164.374 100.154 165.218 99.8728 166.119C99.2831 168.145 100.238 169.439 102.933 169.524ZM115.849 157.171C115.737 157.03 115.653 156.833 115.512 156.805C115.259 156.72 114.951 156.692 114.698 156.72C112.985 157.002 111.778 157.958 111.16 159.562C110.57 161.054 111.469 162.067 112.396 163.024C112.452 163.08 112.536 163.164 112.592 163.221C113.266 163.924 113.687 164.712 113.743 165.697C113.799 166.766 113.154 167.413 112.452 168.061C112.255 168.229 112.171 168.764 112.283 169.017C112.48 169.439 112.901 169.355 113.238 169.13C115.456 167.582 116.186 165.106 115.119 162.714C114.894 162.207 114.558 161.729 114.277 161.251C113.547 159.928 113.603 159.675 114.698 158.577C115.035 158.24 115.428 157.987 115.737 157.649C115.849 157.564 115.821 157.339 115.849 157.171ZM120.229 160.885C119.64 160.997 118.629 161.194 117.674 161.448C117.225 161.56 117.085 162.404 117.506 162.545C118.938 163.024 118.853 164.065 118.713 165.247C118.601 165.978 118.601 166.71 118.657 167.441C118.657 167.61 119.022 167.892 119.247 167.92C119.471 167.948 119.836 167.807 119.977 167.638C120.201 167.357 120.342 166.991 120.398 166.625C120.566 165.809 120.65 164.965 120.763 164.149C120.847 163.53 121.156 163.136 121.774 162.995C122.447 162.827 123.093 162.545 122.841 161.729C122.616 161.026 121.886 160.913 121.24 160.913C121.015 160.885 120.819 160.885 120.229 160.885Z" fill="#BACCDB"></path>
  <path d="M182.142 106.604C181.693 106.548 181.215 106.548 180.738 106.548C175.6 106.351 170.462 106.154 165.323 105.929C164.2 105.873 163.105 105.676 162.01 105.479C161.926 105.479 161.842 105.394 161.757 105.338C159.792 105.45 159.736 105.619 159.82 105.676C159.848 105.676 159.848 105.704 159.876 105.704C159.595 106.182 159.483 106.576 159.23 106.801C158.472 107.477 157.686 108.152 156.844 108.743C135.841 123.938 114.839 139.162 93.8086 154.329C88.1087 158.437 82.3808 162.489 76.6248 166.485C74.0978 168.258 71.4304 169.834 68.8192 171.466C68.2014 171.86 67.4995 172.169 66.8256 172.479C66.6852 172.535 66.4606 172.563 66.2921 172.535L64.1582 174.28C67.0783 174.28 69.9984 174.224 72.9466 174.252C89.4003 174.392 105.882 174.561 122.336 174.73C122.336 174.702 122.336 174.646 122.336 174.618C141.148 174.786 159.932 174.983 178.745 175.152C179.671 175.152 180.626 175.18 181.552 175.124C182.367 175.068 182.647 174.73 182.704 173.858C182.732 173.295 182.732 172.732 182.732 172.169C182.872 151.262 182.984 130.354 183.125 109.446C183.125 108.799 183.097 108.124 183.069 107.476C183.012 106.998 182.675 106.689 182.142 106.604ZM96.9252 168.089C95.2125 169.609 93.1909 170.565 91.0008 171.156C89.99 171.41 89.653 170.988 89.4565 169.834C89.1195 167.92 89.4846 166.119 90.3269 164.431C91.3096 162.433 92.3485 160.435 93.3874 158.437C93.6682 157.874 94.1174 157.593 94.7632 157.79C97.0656 158.465 99.0872 161.111 99.1153 163.502C99.1434 165.331 98.3011 166.879 96.9252 168.089ZM109.111 160.294C108.606 163.418 107.539 166.26 105.096 168.371C104.31 169.046 103.383 169.524 102.962 169.496C100.238 169.412 99.2838 168.117 99.9296 166.091C100.21 165.191 100.575 164.347 100.997 163.502C101.137 163.249 101.586 162.94 101.811 162.968C102.4 163.08 102.344 163.643 102.26 164.093C102.092 164.825 101.839 165.528 101.614 166.232C101.502 166.598 101.418 166.964 101.39 167.329C101.333 168.117 102.232 168.68 102.962 168.314C104.057 167.723 104.843 166.823 105.377 165.697C106.163 164.093 106.584 162.377 106.781 160.604C106.837 160.041 106.865 159.478 107.089 158.972C107.202 158.719 107.651 158.465 107.96 158.465C108.269 158.465 108.718 158.691 108.858 158.972C109.055 159.366 109.195 159.872 109.111 160.294ZM115.737 157.677C115.401 158.015 115.007 158.268 114.699 158.606C113.604 159.675 113.575 159.957 114.277 161.279C114.558 161.786 114.895 162.236 115.12 162.743C116.187 165.163 115.457 167.639 113.239 169.158C112.902 169.384 112.452 169.468 112.284 169.046C112.172 168.793 112.256 168.286 112.452 168.089C113.154 167.442 113.8 166.823 113.744 165.725C113.688 164.712 113.267 163.924 112.593 163.249C112.537 163.193 112.452 163.108 112.396 163.052C111.47 162.095 110.571 161.054 111.161 159.591C111.807 157.987 112.986 157.03 114.699 156.749C114.951 156.693 115.26 156.749 115.513 156.833C115.653 156.861 115.737 157.058 115.85 157.199C115.822 157.34 115.85 157.565 115.737 157.677ZM121.718 162.968C121.1 163.108 120.792 163.502 120.707 164.121C120.595 164.938 120.483 165.782 120.342 166.598C120.286 166.935 120.146 167.329 119.921 167.611C119.781 167.808 119.416 167.92 119.191 167.892C118.966 167.864 118.63 167.583 118.601 167.414C118.545 166.682 118.545 165.951 118.658 165.219C118.826 164.037 118.91 162.996 117.45 162.517C117.029 162.377 117.169 161.533 117.619 161.42C118.601 161.167 119.584 160.998 120.174 160.857C120.763 160.857 120.96 160.857 121.157 160.857C121.83 160.885 122.56 160.97 122.757 161.673C123.066 162.546 122.392 162.827 121.718 162.968Z" fill="#94A9BF"></path>
  <path d="M304.73 190.966C304.842 173.097 304.983 157.057 305.011 141.018C305.039 114.848 305.123 88.6782 304.871 62.5366C304.758 48.9452 305.151 35.3538 305.236 21.7623C305.264 18.9484 305.46 16.1344 305.685 13.3486C305.769 12.3356 306.134 11.3507 306.443 10.394C306.499 10.197 306.892 10 307.117 10C307.341 10 307.706 10.2251 307.763 10.4221C308.071 11.4914 308.408 12.5888 308.521 13.6863C308.717 15.8249 308.773 17.9916 308.914 20.1302C308.97 21.0589 309.195 21.2558 310.093 21.3965C312.143 21.6779 314.192 21.8749 316.214 22.2126C318.713 22.6347 321.1 23.507 323.346 24.6607C327.277 26.6586 331.039 28.9098 334.605 31.5268C338.003 34.0312 341.428 36.4793 344.854 38.9275C348.56 41.6007 352.715 43.2328 357.18 44.1333C357.461 44.1896 357.741 44.2177 358.022 44.274C364.059 45.287 369.45 47.7633 374.167 51.6747C376.104 53.2787 378.098 54.8545 380.007 56.4866C385.707 61.3829 389.722 67.3484 391.66 74.6647C393.204 80.4615 394.664 86.2864 396.124 92.0831C397.668 98.1613 399.044 104.296 401.15 110.233C403.115 115.777 406.007 120.729 410.247 124.894C416.705 131.253 420.44 139.161 422.461 147.912C423.023 150.276 423.584 152.668 424.062 155.031C424.314 156.326 424.988 157.226 426.083 157.93C427.487 158.858 428.807 159.928 430.211 160.856C431.558 161.757 432.26 162.939 432.288 164.599C432.345 168.173 432.569 171.718 432.625 175.292C432.682 178.106 432.26 178.528 429.368 178.556C410.753 178.64 392.137 178.753 373.493 178.753C357.489 178.753 341.484 178.669 325.48 178.584C320.903 178.556 316.298 178.443 311.722 178.359C311.16 178.359 310.598 178.331 310.037 178.331C309.391 178.359 308.998 178.697 308.914 179.344C308.886 179.541 308.886 179.71 308.886 179.907C308.886 184.409 308.858 188.911 308.914 193.414C308.914 194.821 309.138 194.99 310.57 195.046C310.851 195.046 311.132 195.046 311.413 195.046C318.039 195.243 324.694 195.496 331.32 195.609C333.089 195.637 334.549 196.2 336.009 197.128C347.409 204.304 358.864 211.451 370.264 218.599C383.966 227.209 397.724 235.764 411.37 244.487C418.221 248.877 424.876 253.604 431.643 258.135C432.541 258.726 432.906 259.485 432.99 260.442C433.243 262.778 433.44 265.113 433.664 267.449C433.748 268.462 433.805 269.503 433.917 270.544C434.085 271.839 434.422 273.021 435.096 274.231C436.921 277.551 436.528 280.928 434.479 284.079C433.131 286.134 431.334 287.794 429.368 289.257C428.386 289.989 427.375 290.664 426.364 291.311C423.725 293 421.535 295.166 419.625 297.615C418.249 299.387 416.93 301.216 415.694 303.102C412.943 307.266 409.068 309.912 404.379 311.375C402.947 311.825 401.487 312.163 400.027 312.472C396.854 313.119 394.495 315.117 392.109 317.087C391.716 317.425 391.463 317.988 391.238 318.494C391.07 318.832 391.07 319.226 390.986 319.592C390.031 324.432 387.167 327.696 382.562 329.272C378.575 330.622 374.532 331.832 370.433 332.789C363.217 334.534 356.731 337.657 350.862 342.188C348.139 344.298 345.359 346.38 342.467 348.322C338.48 351.023 334.184 353.106 329.439 354.034C323.627 355.16 317.758 355.582 311.834 355.329C311.469 355.301 311.076 355.273 310.711 355.244C308.549 355.132 308.549 355.132 308.436 357.299C308.212 362.167 308.015 367.035 307.763 371.903C307.706 372.832 307.482 373.732 307.257 374.633C307.201 374.83 306.864 375.083 306.639 375.111C306.443 375.139 306.106 374.886 306.022 374.689C305.825 374.182 305.657 373.62 305.601 373.085C305.264 369.539 304.786 365.994 304.702 362.448C304.253 336.757 303.467 311.065 303.86 285.374C304.028 275.159 304 264.945 304.112 254.702C304.281 240.547 304.534 226.393 304.674 212.239C304.786 204.501 304.73 196.819 304.73 190.966ZM315.821 212.211C312.058 212.492 312.03 212.014 313.238 215.531C313.434 216.066 313.575 216.601 313.743 217.135C314.979 220.794 315.681 224.564 315.765 228.447C315.821 231.261 316.074 234.075 316.27 236.861C316.439 239.591 316.944 242.236 317.758 244.853C318.544 247.357 319.274 249.89 319.864 252.422C320.763 256.39 321.043 260.358 320.313 264.41C319.724 267.618 319.443 270.91 319.022 274.174C318.657 276.96 319.106 279.577 320.454 282.053C321.605 284.108 322.7 286.162 323.879 288.188C325.199 290.495 326.21 292.887 326.547 295.532C326.884 298.121 327.136 300.738 327.389 303.355C327.558 305.043 327.586 306.732 327.81 308.392C328.4 312.81 329.972 316.918 331.994 320.858C333.875 324.488 335.195 328.259 335.728 332.283C336.234 336.081 336.767 339.908 335.953 343.763C335.784 344.495 335.672 345.227 335.588 345.986C335.475 346.718 335.925 347.028 336.599 346.662C338.003 345.902 339.406 345.17 340.698 344.242C343.646 342.103 346.538 339.852 349.458 337.685C354.99 333.549 361.026 330.482 367.765 328.793C371.022 327.977 374.279 327.133 377.536 326.233C378.884 325.867 380.232 325.445 381.552 324.966C384.668 323.813 386.774 321.674 387.588 318.438C388.094 316.44 388.374 314.414 388.768 312.388C388.908 311.656 388.88 310.756 389.722 310.531C390.761 310.277 390.845 311.234 391.098 311.909C391.126 311.994 391.154 312.078 391.21 312.163C391.435 312.557 391.8 312.613 392.137 312.388C393.063 311.741 393.906 311.009 394.86 310.418C396.714 309.264 398.791 308.702 400.897 308.195C403.649 307.52 406.204 306.394 408.647 304.959C410.36 303.946 411.792 302.652 412.858 300.907C413.869 299.219 414.992 297.586 416.031 295.926C418.109 292.606 420.805 289.932 424.174 287.935C425.859 286.922 427.515 285.852 429.088 284.67C430.126 283.882 431.081 282.954 431.952 281.969C433.945 279.69 433.468 275.863 431.362 274.399C430.126 273.527 429.003 272.57 427.74 271.754C405.446 257.291 383.124 242.827 360.802 228.391C359.791 227.744 358.724 227.069 357.601 226.703C354.849 225.774 352.098 224.761 349.29 224.227C346.173 223.607 343 223.382 339.828 223.185C337.525 223.017 335.419 222.369 333.482 221.216C332.19 220.456 330.983 219.555 329.748 218.711C328.063 217.529 326.434 216.263 324.694 215.166C321.858 213.337 318.797 212.267 315.821 212.211ZM372.763 174.701C384.78 174.842 402.385 175.067 419.99 175.292C420.917 175.292 421.872 175.376 422.798 175.348C423.612 175.32 424.399 175.179 425.213 175.095C425.157 174.054 424.202 173.885 423.584 173.406C422.237 172.393 420.833 171.437 419.457 170.48C393.962 152.668 368.327 135.08 343.253 116.705C340.305 114.538 337.385 112.344 334.465 110.149C333.875 109.698 333.285 109.22 332.752 108.714C332.331 108.32 332.05 107.813 332.387 107.222C332.612 106.772 333.285 106.631 333.875 106.941C334.633 107.335 335.363 107.757 336.065 108.207C339.491 110.486 342.944 112.766 346.342 115.073C365.94 128.383 385.258 142.115 404.547 155.876C412.409 161.475 420.271 167.047 428.161 172.619C428.526 172.872 429.031 173.153 429.396 173.069C430.014 172.956 429.761 172.309 429.761 171.887C429.761 170.114 429.621 168.313 429.705 166.54C429.789 164.965 429.256 163.923 427.908 163.051C424.539 160.856 421.198 158.605 417.913 156.269C390.171 136.797 362.206 117.634 334.774 97.711C333.875 97.0638 333.005 96.8106 331.938 96.8387C325.564 96.9231 319.218 96.9513 312.845 97.0075C312.087 97.0075 311.357 97.0075 310.598 97.0357C309.363 97.092 309.082 97.3452 309.054 98.5271C309.026 100.778 309.026 103.029 309.054 105.281C309.082 106.491 309.335 106.688 310.626 106.716C311.272 106.744 311.946 106.688 312.592 106.688C317.281 106.659 321.942 106.603 326.631 106.631C327.529 106.631 328.456 106.885 329.355 107.082C329.523 107.11 329.635 107.504 329.663 107.757C329.691 107.869 329.495 108.151 329.383 108.179C328.288 108.404 327.193 108.714 326.097 108.714C321.24 108.798 316.354 108.798 311.497 108.826C309.082 108.854 309.054 108.854 309.026 111.387C308.97 120.195 308.914 129.03 308.858 137.838C308.829 141.159 309.026 140.849 311.665 139.442C312.901 138.795 314.22 138.26 315.568 137.894C316.719 137.585 317.983 137.444 319.162 137.5C323.009 137.641 325.087 140.568 324.104 144.254C323.879 145.07 323.486 145.83 323.205 146.618C323.149 146.758 323.177 147.012 323.29 147.124C323.374 147.237 323.627 147.321 323.767 147.265C325.087 146.815 326.406 146.28 327.726 145.858C329.523 145.295 331.348 144.957 333.257 145.182C337.329 145.689 339.322 148.475 338.536 152.499C338.143 154.581 337.16 156.382 335.981 158.07C333.342 161.785 330.085 164.852 326.126 167.131C325.087 167.722 323.964 168.229 322.812 168.651C321.858 168.989 320.819 169.27 319.808 169.354C317.084 169.58 315.316 167.694 315.624 165.021C315.765 163.783 316.214 162.657 316.916 161.644C319.19 158.38 322.335 156.241 325.929 154.75C326.491 154.525 327.192 154.609 327.838 154.637C328.259 154.666 328.596 155.425 328.288 155.735C327.67 156.438 327.024 157.114 326.35 157.705C324.609 159.252 322.784 160.716 321.071 162.319C320.398 162.939 319.92 163.783 319.387 164.543C319.246 164.74 319.246 165.162 319.359 165.33C319.471 165.499 319.864 165.64 320.089 165.612C320.819 165.443 321.549 165.246 322.223 164.908C327.108 162.432 330.871 158.718 333.538 153.934C333.847 153.371 334.1 152.724 334.268 152.105C334.802 150.248 334.184 149.347 332.331 149.347C331.404 149.347 330.421 149.403 329.551 149.685C327.501 150.332 325.424 150.979 323.514 151.908C320.931 153.202 318.488 154.778 315.961 156.213C315.231 156.635 314.501 157.114 313.715 157.311C312.508 157.592 311.497 156.382 311.946 155.2C312.143 154.694 312.48 154.215 312.845 153.821C313.603 153.005 314.473 152.274 315.203 151.429C316.663 149.741 318.123 148.025 319.471 146.224C320.117 145.351 320.622 144.282 320.931 143.213C321.437 141.524 320.594 140.399 318.881 140.342C317.955 140.314 317 140.399 316.13 140.68C314.529 141.187 312.957 141.778 311.413 142.481C308.689 143.719 308.858 143.579 308.858 146.449C308.858 154.891 308.886 163.333 308.886 171.774C308.886 172.534 308.886 173.294 309.026 173.997C309.082 174.279 309.475 174.645 309.756 174.673C310.486 174.785 311.244 174.757 312.002 174.757C316.214 174.729 320.426 174.701 324.637 174.701C338.761 174.701 352.968 174.701 372.763 174.701ZM330.028 33.3277C329.776 33.4684 329.467 33.5528 329.298 33.7498C328.737 34.3689 328.175 35.0161 327.726 35.7196C325.367 39.2089 323.964 43.0359 323.599 47.2287C323.486 48.72 323.43 50.2396 323.486 51.731C323.57 54.2917 323.205 56.7961 322.307 59.188C321.408 61.5517 320.398 63.8591 319.303 66.1384C318.713 67.3766 318.488 68.5866 318.685 69.9373C319.611 75.931 319.415 81.8966 318.151 87.834C317.814 89.3817 317.59 90.9575 317.337 92.5334C317.225 93.2931 317.478 93.5745 318.236 93.6308C318.797 93.6589 319.359 93.6589 319.92 93.6589C323.486 93.6871 327.024 93.7434 330.59 93.7434C333.201 93.7434 335.504 94.4187 337.694 95.9664C342.972 99.6808 348.363 103.255 353.642 106.969C374.813 121.799 395.956 136.656 417.098 151.486C417.856 152.02 418.643 152.527 419.429 153.033C419.541 153.118 419.822 153.09 419.906 153.005C420.018 152.893 420.018 152.668 420.046 152.499C420.046 152.414 420.018 152.302 419.99 152.217C417.913 143.297 414.01 135.306 407.973 128.383C406.429 126.61 404.884 124.838 403.593 122.924C400.055 117.69 397.472 111.95 395.703 105.9C393.765 99.3431 392.221 92.6741 390.508 86.0613C389.329 81.4464 388.234 76.7752 386.521 72.301C384.865 67.9112 382.394 64.0843 379.053 60.8763C376.694 58.6252 374.167 56.5147 371.584 54.4887C367.232 51.1119 362.43 48.6638 356.899 47.9321C356.534 47.8759 356.169 47.7352 355.804 47.6789C350.946 46.7784 346.51 44.8649 342.467 42.0228C339.322 39.7998 336.234 37.5205 333.117 35.2975C332.359 34.7628 331.601 34.1719 330.843 33.6654C330.59 33.4684 330.281 33.4403 330.028 33.3277ZM320.398 209.284C320.398 209.2 320.398 209.116 320.398 209.059C321.802 209.059 323.205 209.059 324.609 209.059C326.659 209.059 328.737 209.003 330.786 209.059C331.517 209.087 332.247 209.313 332.949 209.538C333.145 209.594 333.342 209.96 333.342 210.185C333.342 210.41 333.145 210.776 332.949 210.832C332.247 211.085 331.545 211.31 330.815 211.423C329.523 211.62 328.203 211.704 326.912 211.845C326.771 211.873 326.575 212.042 326.547 212.155C326.519 212.295 326.631 212.549 326.743 212.633C329.326 214.462 331.91 216.347 334.577 218.092C335.644 218.796 336.879 219.358 338.143 219.724C341.484 220.653 344.938 220.906 348.419 221.047C348.56 221.047 348.784 220.906 348.841 220.794C348.897 220.681 348.813 220.428 348.7 220.343C348.111 219.893 347.493 219.471 346.875 219.049C343.702 216.882 340.501 214.772 337.357 212.549C336.571 211.986 335.391 211.704 335.447 210.382C336.711 209.453 337.525 210.607 338.368 211.142C346.735 216.291 355.102 221.441 363.385 226.759C384.78 240.547 406.12 254.42 427.487 268.265C428.273 268.771 429.059 269.278 429.874 269.756C430.548 270.15 431.025 269.925 430.997 269.194C430.913 266.464 430.8 263.763 430.716 261.033C430.688 260.301 430.267 259.851 429.649 259.514C427.599 258.388 425.55 257.262 423.528 256.081C409.854 248.117 396.461 239.703 383.152 231.177C382.141 230.53 381.243 229.657 379.895 229.714C379.614 229.714 379.137 229.404 379.024 229.123C378.547 227.969 377.508 227.491 376.582 226.9C374.56 225.549 372.51 224.255 370.461 222.932C359.258 215.757 348.083 208.609 336.879 201.433C336.318 201.068 335.756 200.73 335.195 200.42C334.689 200.139 334.324 200.336 334.24 200.983C334.1 202.193 333.987 203.403 333.819 204.613C333.735 205.176 333.594 205.711 333.454 206.245C333.398 206.386 333.229 206.555 333.061 206.611C332.977 206.639 332.752 206.442 332.724 206.33C332.555 205.035 332.359 203.741 332.275 202.447C332.19 201.433 332.275 200.392 332.275 199.351C332.247 198.676 331.853 198.31 331.208 198.338C329.607 198.366 328.035 198.423 326.434 198.451C321.493 198.591 316.523 198.76 311.581 198.901C311.216 198.901 310.823 198.901 310.458 198.901C309.194 198.957 308.914 199.126 308.886 200.336C308.829 202.869 308.801 205.401 308.801 207.934C308.801 209.116 309.11 209.341 310.374 209.341C313.659 209.284 317.028 209.284 320.398 209.284Z" fill="#131B43"></path>
  <path d="M187.252 203.712C187.14 237.001 187.028 272.541 186.859 308.082C186.803 319.056 186.578 330.031 186.41 341.005C186.298 348.04 186.129 355.075 185.933 362.11C185.905 363.489 185.624 364.896 185.371 366.274C185.315 366.499 184.838 366.753 184.529 366.809C184.332 366.837 183.939 366.584 183.883 366.387C183.658 365.486 183.49 364.586 183.321 363.657C183.097 362.391 183.771 360.815 182.844 359.887C182.058 359.099 180.654 358.93 179.559 358.48C178.352 357.973 177.116 357.495 175.937 356.932C171.529 354.793 166.868 354.118 162.01 354.399C160.241 354.512 158.444 354.54 156.675 354.596C151.116 354.85 145.893 353.527 140.924 351.163C136.515 349.081 132.416 346.464 128.485 343.566C124.638 340.752 120.792 337.91 116.973 335.039C114.699 333.323 112.312 331.972 109.561 331.184C106.697 330.34 103.889 329.215 101.053 328.342C94.4265 326.288 89.4005 322.067 85.3573 316.608C83.5603 314.188 82.1845 311.543 81.0333 308.729C80.219 306.731 79.3486 304.761 78.422 302.82C77.2989 300.484 75.6704 298.599 73.4522 297.22C72.1887 296.432 70.9533 295.56 69.7459 294.659C68.0051 293.365 66.4327 291.901 65.2534 290.044C64.7199 289.2 64.2988 288.215 63.9618 287.258C63.5687 286.189 63.9057 285.204 64.6357 284.416C65.2253 283.797 65.8992 283.319 66.5169 282.728C68.1735 281.068 69.8021 279.407 71.3744 277.691C71.8237 277.184 72.6941 276.565 72.1887 275.806C71.9641 275.44 71.0094 275.468 70.3917 275.44C67.7804 275.355 65.1411 275.355 62.5299 275.299C61.6875 275.271 60.8452 275.215 60.0309 275.074C58.9078 274.877 58.1778 274.145 58.0093 273.02C57.8408 272.007 57.7285 270.966 57.7285 269.953C57.7285 268.18 57.897 266.407 57.9251 264.606C57.9531 263.171 58.5989 262.158 59.7501 261.314C62.5299 259.26 65.2815 257.121 68.0612 255.067C79.5451 246.512 91.1694 238.127 103.018 230.051C119.416 218.879 135.87 207.736 152.239 196.536C153.868 195.411 155.524 194.904 157.49 194.961C164.79 195.129 172.09 195.186 179.391 195.326C182.76 195.383 182.648 195.523 182.648 192.203C182.648 188.826 182.676 185.449 182.676 182.073C182.676 181.51 182.704 180.947 182.676 180.384C182.619 179.202 182.395 178.977 181.131 178.893C180.486 178.837 179.812 178.865 179.166 178.837C147.353 178.527 115.541 178.218 83.7287 177.88C77.2708 177.824 70.8129 177.655 64.3549 177.542C63.1195 177.514 61.9402 177.402 60.8171 176.839C59.9467 176.389 59.3851 175.741 59.2166 174.7C58.6551 171.802 59.0482 168.903 59.2447 166.005C59.3009 165.189 59.8063 164.626 60.3678 164.12C61.491 163.135 62.6422 162.15 63.8495 161.278C64.7761 160.602 65.1973 159.786 65.0569 158.632C64.9726 157.901 64.9446 157.141 64.8884 156.381C64.5234 151.429 65.8711 146.926 68.4824 142.762C69.1282 141.721 69.8021 140.708 70.504 139.723C73.3118 135.558 74.4911 130.915 74.9684 125.962C75.4457 120.925 76.0073 115.888 76.6812 110.88C77.2147 106.94 78.6185 103.254 80.6963 99.8489C82.3248 97.1756 84.4026 94.9245 87.2104 93.4049C88.7828 92.5607 90.3271 91.6884 91.8433 90.7598C95.1846 88.79 97.9924 86.2575 100.295 83.0777C102.401 80.2075 104.703 77.5061 107.062 74.8328C109.757 71.7656 113.211 69.9647 117.282 69.5144C118.854 69.3456 120.427 69.1205 122.027 68.9516C124.189 68.7265 126.239 68.1074 128.12 67.01C131.77 64.8995 135.224 62.4795 138.425 59.7219C141.906 56.7391 145.22 53.5311 149.066 50.9986C152.379 48.8318 155.805 46.8902 159.736 46.1586C162.123 45.7083 164.537 45.427 166.98 45.3425C169.395 45.2581 171.838 45.4832 174.28 45.5677C176.807 45.6521 179.334 45.7646 181.861 45.7928C183.293 45.8209 183.49 45.5958 183.602 44.217C183.743 42.3597 183.771 40.4744 183.967 38.6172C184.051 37.7167 184.36 36.8162 184.669 35.9158C184.81 35.4937 185.624 35.4937 185.848 35.8595C186.045 36.169 186.242 36.5067 186.298 36.8725C186.466 37.8011 186.635 38.7297 186.663 39.6583C186.803 42.9507 186.943 46.2149 186.943 49.5072C187.028 100.158 187.14 150.81 187.252 203.712ZM168.805 211.085C168.805 211.028 168.805 211 168.805 210.944C165.913 211.028 163.021 211.085 160.101 211.169C157.742 211.253 155.496 211.816 153.306 212.745C149.937 214.152 146.68 215.84 143.675 217.923C126.576 229.741 109.476 241.56 92.4329 253.435C90.9167 254.504 89.5409 255.798 88.1932 257.093C85.1326 259.963 83.0268 263.452 81.314 267.279C80.1628 269.84 78.9555 272.373 77.6077 274.849C75.2773 279.126 72.1606 282.7 67.6681 284.838C67.4997 284.923 67.3312 285.007 67.1627 285.092C66.2642 285.654 66.0396 286.33 66.6573 287.202C67.3593 288.187 68.1455 289.144 69.0439 289.932C70.1671 290.888 71.4867 291.676 72.7222 292.521C73.7891 293.252 74.8842 293.984 75.9792 294.715C78.6747 296.573 80.6682 299.021 81.9879 301.975C82.8583 303.945 83.7007 305.943 84.5992 307.885C88.4739 316.355 94.3703 322.658 103.468 325.556C105.967 326.344 108.409 327.273 110.936 328.033C114.193 329.018 117.198 330.509 119.949 332.479C123.543 335.039 127.053 337.685 130.675 340.189C133.904 342.412 137.217 344.522 140.587 346.577C142.103 347.505 143.76 348.209 145.388 348.884C149.796 350.713 154.401 351.22 159.146 350.91C159.876 350.854 160.382 350.572 160.719 349.925C160.943 349.503 161.14 349.081 161.308 348.659C162.712 344.719 163.583 340.752 162.824 336.531C162.516 334.786 162.431 332.985 162.094 331.241C160.859 324.937 161.87 318.944 164.228 313.062C164.537 312.274 164.846 311.487 165.155 310.699C167.008 305.999 168.861 301.3 170.237 296.404C171.051 293.505 171.501 290.551 171.641 287.54C171.978 280.308 171.36 273.104 170.658 265.929C169.872 257.627 170.434 249.439 172.539 241.391C174.168 235.228 175.937 229.094 177.734 222.988C178.604 220.005 178.969 216.938 179.278 213.87C179.334 213.42 179.306 212.942 179.278 212.463C179.222 211.591 178.941 211.253 178.127 211.197C177.481 211.141 176.807 211.141 176.162 211.141C173.663 211.085 171.22 211.085 168.805 211.085ZM122.308 174.785C122.308 174.756 122.308 174.7 122.308 174.672C141.12 174.841 159.904 175.038 178.717 175.207C179.643 175.207 180.598 175.235 181.524 175.179C182.339 175.122 182.619 174.785 182.676 173.912C182.704 173.349 182.704 172.787 182.704 172.224C182.844 151.316 182.956 130.408 183.097 109.501C183.097 108.854 183.069 108.178 183.041 107.531C183.013 106.996 182.676 106.687 182.142 106.602C181.693 106.546 181.216 106.546 180.738 106.546C175.6 106.349 170.462 106.152 165.323 105.927C164.2 105.871 163.105 105.674 162.01 105.477C161.814 105.449 161.533 105.139 161.505 104.942C161.477 104.745 161.729 104.379 161.898 104.351C162.712 104.182 163.555 104.014 164.369 103.985C169.507 103.901 174.645 103.817 179.812 103.76C180.57 103.76 181.3 103.76 182.058 103.732C182.704 103.704 183.097 103.31 183.125 102.663C183.181 101.256 183.209 99.8489 183.209 98.4419C183.237 95.431 183.35 95.4591 180.373 95.4872C175.403 95.5154 170.462 95.5154 165.492 95.5154C164.285 95.5154 163.105 95.5998 161.898 95.6279C161.168 96.7535 161.729 97.9917 161.617 99.1735C161.561 99.9052 161.617 100.665 161.561 101.425C161.533 101.791 161.449 102.184 161.28 102.494C161.168 102.691 160.887 102.832 160.662 102.888C160.55 102.916 160.269 102.747 160.241 102.607C160.045 101.622 159.848 100.609 159.708 99.5956C159.567 98.6952 159.511 97.7666 159.427 96.8661C158.22 96.641 157.602 97.654 156.816 98.2168C128.457 118.871 99.8174 139.188 71.0936 159.336C68.4262 161.221 65.7027 163.078 62.9791 164.879C62.1929 165.386 61.8279 165.977 61.8841 166.934C61.9964 168.791 61.9683 170.676 62.0244 172.562C62.0525 173.94 62.2771 174.222 63.653 174.222C66.7416 174.25 69.8301 174.165 72.9187 174.194C89.3724 174.447 105.854 174.616 122.308 174.785ZM104.478 101.819C108.157 104.942 112.284 107.278 116.524 109.473C119.472 110.992 122.504 112.652 124.189 115.832C124.47 116.367 124.975 116.254 125.397 115.973C126.014 115.579 126.632 115.129 127.222 114.678C136.431 108.066 145.641 101.453 154.85 94.8682C155.693 94.2772 156.507 93.63 157.405 93.1235C158.051 92.7859 158.781 92.5045 159.511 92.5045C163.807 92.3919 168.103 92.3919 172.427 92.3075C173.691 92.2793 175.038 92.8421 176.246 91.9979C176.19 90.7879 176.162 89.5779 176.049 88.3961C175.6 83.6686 174.421 79.1663 171.809 75.1423C171.416 74.5233 171.079 73.8198 170.658 73.2007C168.777 70.2742 168.187 67.1788 169.17 63.8021C169.254 63.5207 169.254 63.2393 169.339 62.986C169.9 60.8756 169.591 58.9058 168.44 57.0486C167.373 55.3602 166.727 53.5312 166.447 51.5332C166.278 50.2951 165.969 50.07 164.79 50.2107C161.533 50.6328 158.36 51.4207 155.412 52.9121C152.127 54.5723 149.122 56.5984 146.287 58.9339C144.181 60.6505 142.159 62.4795 139.969 64.0835C136.965 66.3065 133.876 68.4451 130.787 70.5556C128.092 72.4128 125.003 73.1163 121.774 73.3414C120.567 73.4258 119.36 73.6228 118.152 73.7354C114.783 74.0168 112.116 75.6489 109.954 78.1251C107.735 80.6577 105.489 83.1903 103.468 85.8635C100.969 89.1277 98.0204 91.7728 94.4545 93.7426C93.0506 94.5024 91.7029 95.3465 90.2709 96.05C87.2666 97.5133 85.273 99.9052 83.7007 102.775C81.9598 105.955 80.949 109.36 80.4717 112.906C79.8821 117.267 79.3205 121.657 78.8993 126.019C78.3097 132.35 76.2319 138.062 72.4695 143.184C72.1325 143.634 71.8237 144.084 71.5429 144.591C70.8971 145.716 70.1951 146.842 69.6336 148.024C68.2858 150.782 67.7804 153.708 67.8647 156.747C67.8928 157.507 68.342 157.76 68.9597 157.366C69.2686 157.169 69.5774 156.944 69.8863 156.719C72.5256 154.777 75.1369 152.808 77.7762 150.866C91.9837 140.454 106.191 130.071 120.399 119.687C122.364 118.252 122.392 118.055 120.623 116.339C120.09 115.804 119.5 115.354 118.91 114.904C116.58 113.159 114.25 111.471 111.666 110.092C110.515 109.473 109.448 108.685 108.437 107.841C106.5 106.293 104.956 104.464 104.478 101.819ZM168.356 198.759C168.356 198.703 168.356 198.675 168.356 198.619C164.425 198.534 160.494 198.506 156.563 198.337C155.131 198.281 154.064 198.703 152.969 199.491C144.349 205.766 135.701 212.013 127.025 218.232C105.882 233.399 84.7676 248.567 62.7264 262.439C61.154 263.424 60.424 264.493 60.8171 266.323C60.9013 266.688 60.8452 267.082 60.8733 267.448C60.9575 268.546 61.0979 269.615 61.1821 270.712C62.5579 270.853 63.3441 269.784 64.2988 269.137C73.8172 262.496 83.1953 255.658 92.7979 249.129C112.368 235.819 131.77 222.228 151.678 209.424C152.913 208.636 153.559 207.792 153.475 206.273C153.39 204.978 153.587 203.656 153.727 202.361C153.783 201.827 154.008 201.292 154.233 200.757C154.289 200.617 154.513 200.504 154.654 200.504C154.794 200.504 155.047 200.617 155.075 200.729C155.3 201.348 155.552 201.967 155.637 202.615C155.805 203.825 155.805 205.035 155.945 206.245C156.086 207.652 156.338 207.849 157.714 207.792C159.876 207.736 162.01 207.595 164.172 207.623C169.142 207.652 174.084 207.792 179.054 207.849C179.896 207.849 180.738 207.849 181.581 207.82C182.086 207.792 182.535 207.511 182.535 206.976C182.591 204.556 182.591 202.108 182.563 199.688C182.563 199.153 182.086 198.9 181.609 198.844C181.047 198.788 180.486 198.788 179.924 198.788C176.021 198.759 172.203 198.759 168.356 198.759ZM68.8193 271.528C69.2686 271.528 69.5494 271.5 69.8301 271.528C71.9079 271.838 73.4522 270.881 74.6315 269.305C76.0354 267.448 77.327 265.535 78.6466 263.621C78.7309 263.48 78.7309 263.284 78.7589 263.115C78.5062 263.087 78.1974 262.974 78.057 263.058C74.7719 265.169 71.5148 267.307 68.2858 269.502C67.612 269.953 67.0785 270.544 66.4608 271.078C67.1627 272.007 68.1455 271.36 68.8193 271.528Z" fill="#131B43"></path>
  <path d="M163.216 135.137C163.947 134.799 164.677 134.461 165.435 134.123C167.063 133.392 168.748 132.801 170.545 132.716C171.78 132.66 172.96 132.745 174.111 133.307C175.964 134.264 176.834 135.953 176.301 137.979C175.43 141.299 173.381 143.803 170.657 145.801C170.292 146.055 169.815 146.139 169.366 146.224C168.804 146.336 168.271 145.604 168.523 145.098C168.888 144.338 169.366 143.635 169.759 142.903C170.545 141.412 171.387 139.948 172.061 138.401C172.566 137.275 172.005 136.656 170.713 136.74C170.152 136.769 169.59 136.853 169.057 137.022C165.182 138.26 162.009 140.455 159.679 143.804C158.949 144.873 157.994 146.055 158.584 147.405C159.201 148.812 160.746 148.615 162.037 148.728C163.525 148.869 165.013 148.925 166.502 149.094C167.147 149.178 167.793 149.347 168.355 149.628C169.169 150.05 169.506 150.838 169.394 151.767C169.281 152.696 168.776 153.399 167.877 153.568C167.063 153.737 166.221 153.709 165.378 153.68C163.132 153.624 160.886 153.596 158.696 154.187C155.27 155.059 152.238 156.72 149.851 159.365C148.981 160.321 148.391 161.503 147.746 162.657C147.437 163.192 147.802 163.839 148.447 163.923C149.374 164.036 150.301 164.148 151.227 164.064C154.905 163.726 158.387 162.629 161.532 160.687C163.273 159.618 164.929 158.38 166.642 157.226C167.344 156.776 168.074 156.326 168.832 155.988C169.534 155.707 170.32 155.735 170.938 156.297C171.64 156.945 171.668 157.789 171.415 158.633C171.247 159.168 170.966 159.674 170.657 160.124C170.208 160.715 169.703 161.306 169.169 161.813C164.873 165.809 159.875 168.426 154.035 169.27C151.901 169.579 149.739 169.692 147.661 168.932C146.707 168.594 145.752 168.144 144.966 167.497C143.365 166.231 142.804 164.486 143.253 162.46C143.618 160.772 144.46 159.337 145.527 157.986C147.324 155.763 149.543 154.074 152.013 152.696C152.743 152.274 153.501 151.908 154.232 151.514C154.681 151.26 154.99 150.867 154.737 150.388C153.81 148.587 153.53 146.674 154.316 144.451C152.856 144.957 152.35 145.886 151.676 146.589C150.918 147.405 150.216 148.306 149.402 149.066C148.672 149.741 147.717 149.882 146.791 149.46C145.864 149.037 145.331 148.25 145.303 147.237C145.303 146.702 145.527 146.139 145.668 145.604C145.836 144.901 146.033 144.197 146.229 143.494C145.19 143.213 144.797 144.141 144.236 144.62C141.793 146.814 139.547 149.206 137.806 152.02C137.441 152.611 136.992 153.512 137.188 154.046C137.553 154.975 138.62 154.722 139.434 154.525C140.614 154.215 141.737 153.765 142.888 153.427C143.787 153.174 144.657 152.864 145.583 152.752C146.482 152.639 147.015 153.371 146.707 154.187C146.538 154.609 146.37 155.087 146.061 155.425C143.674 158.014 140.923 159.759 137.216 159.393C132.696 158.943 130.618 155.51 132.471 151.401C132.976 150.304 133.65 149.263 134.38 148.306C137.216 144.535 140.614 141.327 144.32 138.457C145.19 137.782 146.201 137.219 147.184 136.712C148.728 135.953 150.216 136.037 151.648 137.163C152.659 137.979 152.715 137.894 153.726 137.022C156.478 134.602 159.201 132.182 161.953 129.79C162.599 129.227 163.273 128.721 163.975 128.27C164.789 127.736 165.491 127.792 166.024 128.327C166.53 128.833 166.642 129.537 166.137 130.381C165.547 131.338 164.845 132.21 164.199 133.11C163.778 133.673 163.385 134.236 162.964 134.799C163.076 134.94 163.132 135.052 163.216 135.137Z" fill="white"></path>
  <path d="M136.963 132.914C136.767 132.577 136.458 132.267 136.486 131.986C136.514 131.535 136.655 131.057 136.907 130.663C138.171 128.581 139.743 126.724 141.765 125.317C142.214 125.007 142.776 124.838 143.281 124.641C143.646 124.5 144.236 125.063 144.179 125.485C144.123 125.851 144.095 126.245 143.927 126.555C142.551 129.059 140.614 131.057 138.171 132.548C137.862 132.717 137.469 132.774 136.963 132.914Z" fill="white"></path>
  <path d="M139.94 135.023C139.462 135.079 139.041 134.488 139.182 134.066C139.238 133.897 139.266 133.7 139.378 133.532C140.782 131.505 142.495 129.817 144.685 128.607C144.91 128.466 145.218 128.438 145.499 128.41C146.033 128.326 146.679 128.945 146.538 129.451C146.37 129.986 146.201 130.549 145.864 130.943C144.404 132.715 142.551 133.954 140.501 134.939C140.277 134.995 140.08 134.995 139.94 135.023Z" fill="white"></path>
  <path d="M315.821 212.211C318.797 212.295 321.858 213.365 324.665 215.137C326.406 216.235 328.035 217.501 329.719 218.683C330.955 219.527 332.162 220.428 333.454 221.187C335.391 222.369 337.497 223.017 339.799 223.157C342.972 223.382 346.145 223.607 349.262 224.198C352.098 224.761 354.849 225.746 357.573 226.675C358.696 227.069 359.763 227.716 360.774 228.363C383.096 242.799 405.39 257.262 427.684 271.726C428.947 272.542 430.098 273.499 431.306 274.371C433.383 275.835 433.889 279.661 431.895 281.941C431.025 282.926 430.07 283.854 429.031 284.642C427.459 285.824 425.802 286.893 424.118 287.906C420.748 289.904 418.053 292.578 415.975 295.898C414.936 297.558 413.813 299.19 412.802 300.879C411.763 302.623 410.303 303.89 408.59 304.931C406.148 306.366 403.593 307.492 400.841 308.167C398.735 308.673 396.657 309.236 394.804 310.39C393.85 310.981 393.007 311.712 392.081 312.36C391.744 312.613 391.379 312.557 391.154 312.135C391.098 312.05 391.07 311.966 391.042 311.881C390.789 311.206 390.705 310.221 389.666 310.502C388.824 310.728 388.852 311.628 388.711 312.36C388.346 314.386 388.037 316.44 387.532 318.41C386.718 321.646 384.612 323.812 381.495 324.938C380.176 325.416 378.828 325.839 377.48 326.204C374.223 327.077 370.966 327.921 367.709 328.765C360.97 330.453 354.933 333.521 349.402 337.657C346.482 339.852 343.59 342.075 340.642 344.214C339.35 345.142 337.946 345.874 336.542 346.634C335.869 346.999 335.419 346.69 335.532 345.958C335.644 345.227 335.756 344.467 335.897 343.735C336.711 339.88 336.177 336.081 335.672 332.254C335.138 328.23 333.819 324.432 331.938 320.83C329.888 316.918 328.344 312.782 327.754 308.364C327.529 306.704 327.501 305.015 327.333 303.327C327.08 300.71 326.827 298.093 326.49 295.504C326.154 292.859 325.143 290.467 323.823 288.16C322.644 286.134 321.549 284.079 320.398 282.025C319.022 279.577 318.601 276.932 318.966 274.146C319.387 270.882 319.668 267.618 320.257 264.382C321.015 260.33 320.706 256.334 319.808 252.394C319.218 249.834 318.488 247.301 317.702 244.825C316.888 242.208 316.382 239.563 316.214 236.833C316.045 234.019 315.793 231.233 315.709 228.419C315.624 224.536 314.922 220.794 313.687 217.107C313.518 216.573 313.35 216.038 313.182 215.503C312.03 212.014 312.058 212.492 315.821 212.211ZM389.526 302.736C389.273 301.554 389.048 299.978 388.627 298.459C387.195 293.253 384.5 288.666 381.523 284.248C379.221 280.843 377.059 277.354 374.897 273.837C373.774 272.008 372.791 270.094 371.696 268.237C371.584 268.04 371.247 267.984 371.022 267.871C370.966 268.04 370.826 268.209 370.854 268.349C370.938 269.081 371.022 269.841 371.191 270.572C372.342 275.638 374.392 280.309 377.199 284.67C378.968 287.428 380.765 290.158 382.338 293C384.247 296.433 385.96 299.95 387.757 303.439C388.009 303.918 388.318 304.396 388.655 304.818C388.711 304.875 389.104 304.818 389.132 304.762C389.273 304.255 389.357 303.693 389.526 302.736ZM350.609 271.473C350.609 269.981 350.076 268.574 349.43 267.224C348.082 264.325 346.482 261.568 344.573 259.007C342.242 255.884 340.614 252.451 339.799 248.624C339.575 247.526 339.182 246.457 338.873 245.387C338.311 243.361 337.104 241.673 335.728 240.125C335.616 239.985 335.279 240.013 335.054 239.957C335.026 240.125 334.942 240.351 334.998 240.491C336.093 243.615 336.43 246.879 336.711 250.143C336.767 250.987 336.964 251.803 337.104 252.647C337.497 255.208 338.508 257.488 340.052 259.542C342.579 262.918 345.05 266.323 347.577 269.7C348.251 270.601 349.065 271.388 349.823 272.176C349.908 272.261 350.188 272.289 350.329 272.233C350.441 272.176 350.497 271.951 350.553 271.782C350.609 271.726 350.581 271.614 350.609 271.473ZM379.474 254.083C379.389 254.111 379.249 254.111 379.221 254.167C379.137 254.308 379.024 254.533 379.081 254.617C379.867 255.518 380.625 256.474 381.495 257.291C384.808 260.414 388.178 263.509 391.547 266.577C392.053 267.055 392.361 267.899 393.26 267.815C393.709 267.787 393.653 266.633 393.148 265.507C392.923 265.001 392.642 264.494 392.305 264.072C391.379 262.918 390.452 261.737 389.413 260.667C386.69 257.938 383.32 256.109 380.007 254.167C379.839 254.111 379.642 254.139 379.474 254.083ZM350.076 315.765C349.992 311.206 348.756 307.379 345.892 304.171C345.415 303.636 344.882 302.623 344.18 303.045C343.309 303.58 344.011 304.537 344.348 305.268C345.752 308.336 346.819 311.487 347.661 314.752C347.914 315.736 348.279 316.693 348.672 317.65C348.784 317.931 349.121 318.128 349.374 318.353C349.571 318.044 349.823 317.734 349.907 317.425C350.048 316.778 350.048 316.102 350.076 315.765Z" fill="#2C6634"></path>
  <path d="M372.763 174.7C352.968 174.7 338.733 174.7 324.525 174.7C320.313 174.7 316.102 174.756 311.89 174.756C311.132 174.756 310.374 174.785 309.644 174.672C309.363 174.644 308.97 174.25 308.914 173.997C308.773 173.265 308.773 172.505 308.773 171.774C308.745 163.332 308.745 154.89 308.745 146.448C308.745 143.55 308.549 143.719 311.3 142.48C312.817 141.777 314.417 141.186 316.017 140.679C316.888 140.398 317.871 140.314 318.769 140.342C320.51 140.398 321.324 141.496 320.819 143.212C320.51 144.281 320.005 145.351 319.359 146.223C318.039 148.024 316.551 149.74 315.091 151.429C314.361 152.273 313.49 153.005 312.732 153.821C312.367 154.215 312.002 154.693 311.834 155.199C311.385 156.381 312.395 157.591 313.603 157.31C314.389 157.113 315.119 156.635 315.849 156.213C318.376 154.777 320.819 153.173 323.402 151.907C325.311 150.95 327.389 150.331 329.439 149.684C330.309 149.403 331.292 149.346 332.218 149.346C334.1 149.346 334.689 150.247 334.156 152.104C333.987 152.723 333.735 153.37 333.426 153.933C330.758 158.717 326.996 162.431 322.11 164.908C321.465 165.245 320.706 165.414 319.976 165.611C319.752 165.667 319.359 165.527 319.246 165.33C319.134 165.133 319.134 164.739 319.275 164.542C319.78 163.754 320.285 162.938 320.959 162.319C322.672 160.743 324.497 159.252 326.238 157.704C326.94 157.085 327.586 156.409 328.175 155.734C328.456 155.396 328.147 154.637 327.726 154.637C327.08 154.609 326.378 154.524 325.817 154.749C322.195 156.241 319.078 158.407 316.804 161.643C316.102 162.656 315.652 163.782 315.512 165.02C315.203 167.722 316.972 169.607 319.696 169.354C320.706 169.269 321.717 168.988 322.7 168.65C323.851 168.228 324.974 167.722 326.013 167.131C329.972 164.851 333.229 161.784 335.869 158.07C337.076 156.381 338.031 154.552 338.424 152.498C339.21 148.474 337.216 145.688 333.145 145.182C331.236 144.957 329.411 145.294 327.614 145.857C326.266 146.279 324.974 146.814 323.655 147.264C323.514 147.32 323.262 147.236 323.177 147.123C323.093 147.011 323.065 146.758 323.093 146.617C323.374 145.829 323.767 145.069 323.992 144.253C325.002 140.567 322.897 137.64 319.05 137.5C317.843 137.443 316.607 137.584 315.456 137.894C314.108 138.259 312.788 138.766 311.553 139.441C308.914 140.848 308.717 141.158 308.745 137.837C308.829 129.03 308.858 120.194 308.914 111.386C308.942 108.854 308.97 108.854 311.385 108.825C316.242 108.797 321.128 108.797 325.985 108.713C327.08 108.685 328.175 108.375 329.27 108.178C329.383 108.15 329.579 107.897 329.551 107.756C329.523 107.503 329.383 107.109 329.242 107.081C328.344 106.884 327.417 106.631 326.519 106.631C321.83 106.602 317.169 106.659 312.48 106.687C311.834 106.687 311.16 106.743 310.514 106.715C309.223 106.687 308.97 106.49 308.942 105.28C308.914 103.029 308.914 100.778 308.942 98.5264C308.97 97.3445 309.251 97.0913 310.486 97.035C311.244 97.0069 311.974 97.0069 312.732 97.0069C319.106 96.9506 325.452 96.9506 331.825 96.838C332.92 96.8099 333.791 97.0632 334.661 97.7104C362.093 117.633 390.059 136.796 417.8 156.269C421.085 158.576 424.427 160.856 427.796 163.05C429.144 163.923 429.677 164.936 429.593 166.54C429.509 168.313 429.649 170.113 429.649 171.886C429.649 172.308 429.902 172.956 429.284 173.068C428.919 173.124 428.414 172.843 428.049 172.618C420.187 167.046 412.297 161.475 404.435 155.875C385.145 142.115 365.856 128.382 346.229 115.072C342.832 112.765 339.378 110.486 335.953 108.206C335.251 107.728 334.521 107.334 333.763 106.94C333.145 106.631 332.499 106.771 332.275 107.222C331.966 107.812 332.218 108.319 332.64 108.713C333.173 109.219 333.763 109.698 334.352 110.148C337.273 112.343 340.193 114.538 343.141 116.705C368.214 135.08 393.878 152.667 419.344 170.479C420.72 171.436 422.124 172.393 423.472 173.406C424.09 173.884 425.044 174.053 425.1 175.094C424.286 175.179 423.5 175.319 422.686 175.347C421.759 175.376 420.805 175.319 419.878 175.291C402.385 175.094 384.809 174.869 372.763 174.7ZM361.869 157.957C361.785 159.702 362.262 161.503 363.16 163.191C364.396 165.527 366.081 167.525 368.102 169.241C368.608 169.663 369.169 170.001 369.731 170.339C370.657 170.845 370.854 170.733 371.668 169.691C372.061 169.185 372.567 168.763 373.044 168.369C375.122 166.765 377.059 164.992 378.575 162.825C379.895 160.968 380.934 158.998 381.299 156.719C381.495 155.481 381.411 154.271 380.316 153.399C379.193 152.526 378.014 152.751 376.891 153.314C376.132 153.68 375.43 154.158 374.729 154.609C374.195 154.974 373.718 155.425 373.184 155.819C372.567 156.269 372.258 156.1 371.977 155.34C371.584 154.186 371.303 152.976 370.685 151.963C369.001 149.178 365.996 149.037 363.947 151.541C362.515 153.37 361.841 155.453 361.869 157.957ZM329.214 125.737C328.737 126.272 328.259 126.835 327.754 127.313C326.547 128.467 325.283 129.592 324.076 130.774C323.374 131.478 322.419 132.153 322.981 133.391C323.346 134.179 323.992 134.179 325.732 133.673C328.231 132.941 330.758 132.238 333.285 131.562C333.735 131.45 334.212 131.422 334.661 131.393C334.745 131.393 334.886 131.45 334.914 131.506C334.914 131.675 334.942 131.9 334.858 131.984C334.577 132.238 334.268 132.435 333.959 132.632C332.415 133.532 330.843 134.348 329.355 135.333C328.512 135.896 327.81 136.656 327.08 137.359C326.968 137.443 326.968 137.725 327.024 137.894C327.08 138.034 327.305 138.175 327.445 138.175C328.175 138.062 328.933 138.006 329.635 137.753C332.892 136.543 335.925 134.883 338.704 132.772C339.21 132.378 339.687 131.9 340.08 131.365C340.782 130.409 340.389 129.255 339.266 128.889C338.733 128.72 338.171 128.608 337.609 128.636C336.318 128.692 334.998 128.776 333.707 128.973C332.415 129.17 331.152 129.48 329.86 129.705C329.635 129.733 329.383 129.564 329.13 129.508C329.214 129.255 329.242 128.945 329.411 128.748C330.506 127.595 331.629 126.469 332.696 125.287C333.257 124.668 333.791 124.021 334.212 123.289C334.661 122.501 334.044 121.488 333.145 121.46C332.612 121.432 332.022 121.488 331.517 121.685C330.028 122.248 328.596 122.923 327.136 123.542C326.743 123.711 326.322 124.218 325.929 123.711C325.817 123.571 326.097 123.064 326.266 122.755C326.603 122.079 327.024 121.46 327.305 120.785C327.698 119.8 326.884 118.815 325.845 119.04C324.974 119.237 324.048 119.603 323.318 120.138C319.948 122.586 317.253 125.681 315.231 129.339C314.866 129.986 314.726 130.746 314.585 131.45C314.557 131.647 314.782 132.012 314.979 132.097C315.175 132.209 315.568 132.153 315.737 132.012C316.242 131.59 316.691 131.112 317.113 130.634C317.786 129.846 318.404 129.03 319.05 128.242C319.134 128.157 319.359 128.214 319.499 128.214C319.527 128.214 319.555 128.382 319.527 128.439C319.471 128.72 319.303 128.973 319.303 129.255C319.274 130.437 320.145 130.999 321.128 130.38C321.689 130.043 322.195 129.621 322.7 129.227C324.637 127.735 326.659 126.413 329.214 125.737ZM400.504 167.018C400.28 166.906 400.111 166.709 400.027 166.737C399.128 167.131 397.865 169.269 398.118 170.085C398.146 170.226 398.679 170.395 398.791 170.31C399.83 169.438 400.139 168.2 400.504 167.018Z" fill="#94A9BF"></path>
  <path d="M330.029 33.3281C330.31 33.4125 330.591 33.4688 330.816 33.6095C331.602 34.1442 332.332 34.707 333.09 35.2416C336.207 37.4928 339.295 39.7721 342.44 41.967C346.483 44.8091 350.919 46.6944 355.777 47.623C356.142 47.6793 356.507 47.82 356.872 47.8763C362.403 48.6079 367.233 51.0561 371.557 54.4328C374.14 56.4589 376.667 58.5412 379.025 60.8205C382.395 64.0284 384.866 67.8554 386.494 72.2452C388.179 76.7193 389.274 81.3905 390.481 86.0054C392.194 92.6182 393.766 99.2873 395.676 105.844C397.445 111.894 400.056 117.634 403.566 122.868C404.857 124.81 406.43 126.583 407.946 128.327C413.983 135.25 417.885 143.241 419.963 152.162C419.991 152.246 420.019 152.359 420.019 152.443C419.991 152.612 419.991 152.837 419.879 152.949C419.795 153.034 419.514 153.062 419.402 152.978C418.615 152.471 417.829 151.965 417.071 151.43C395.928 136.6 374.786 121.743 353.615 106.913C348.336 103.199 342.945 99.6531 337.667 95.9105C335.505 94.391 333.174 93.6875 330.563 93.6875C326.997 93.6875 323.459 93.6312 319.893 93.6031C319.332 93.6031 318.77 93.6031 318.209 93.575C317.479 93.5187 317.198 93.2373 317.31 92.4775C317.563 90.9017 317.787 89.3259 318.124 87.7782C319.36 81.8407 319.584 75.8752 318.658 69.8814C318.461 68.5307 318.686 67.3207 319.275 66.0826C320.342 63.8033 321.381 61.4677 322.28 59.1321C323.178 56.7403 323.543 54.2358 323.459 51.6751C323.403 50.1837 323.459 48.6642 323.571 47.1728C323.908 42.98 325.34 39.1249 327.699 35.6637C328.176 34.9602 328.738 34.3412 329.271 33.6939C329.468 33.5532 329.749 33.4688 330.029 33.3281ZM334.213 79.0831C334.353 79.3082 334.466 79.674 334.718 79.8428C334.859 79.9554 335.308 79.8147 335.477 79.6459C336.01 79.1112 336.6 78.6047 336.908 77.9575C337.695 76.3817 338.425 74.7496 339.014 73.0612C340.446 68.8965 341.682 64.6756 343.872 60.8205C344.405 59.8637 344.602 58.71 344.883 57.6407C344.995 57.2749 344.518 56.9372 344.153 57.0498C343.816 57.1623 343.394 57.2468 343.142 57.5C342.243 58.4286 341.261 59.3291 340.531 60.3984C338.902 62.8184 338.004 65.5761 337.245 68.39C336.431 71.3728 335.561 74.3275 334.69 77.2821C334.522 77.8731 334.381 78.4077 334.213 79.0831ZM378.324 89.6354C378.127 89.4947 377.902 89.1852 377.706 89.2133C376.779 89.2696 375.825 89.2696 374.954 89.551C373.55 90.0012 372.202 90.6484 370.827 91.2112C367.177 92.6745 364.958 95.6573 362.824 98.7526C362.516 99.1747 362.853 99.7094 363.386 99.7375C364.818 99.8219 365.913 99.0903 366.868 98.1898C369.002 96.1638 371.416 94.6724 374.056 93.4343C375.066 92.9559 375.965 92.2805 376.892 91.6615C377.341 91.3519 377.734 90.9298 378.071 90.5077C378.211 90.2826 378.211 89.9731 378.324 89.6354ZM377.79 100.469C380.064 100.497 381.609 100.131 382.844 99.3717C383.911 98.7245 384.753 97.8803 385.231 96.7266C385.483 96.1638 385.118 95.5729 384.473 95.5447C384.023 95.5166 383.518 95.4884 383.097 95.601C380.626 96.1356 378.295 97.0643 376.049 98.2461C375.881 98.3305 375.74 98.4712 375.628 98.5838C375.179 98.9777 375.291 99.7657 375.853 99.9626C376.639 100.216 377.453 100.385 377.79 100.469Z" fill="#41914E"></path>
  <path d="M320.398 209.284C317.029 209.284 313.659 209.284 310.29 209.284C309.027 209.284 308.718 209.031 308.718 207.877C308.718 205.344 308.718 202.812 308.802 200.279C308.83 199.097 309.083 198.9 310.374 198.844C310.739 198.816 311.132 198.844 311.498 198.844C316.439 198.703 321.409 198.535 326.351 198.394C327.951 198.338 329.524 198.309 331.124 198.281C331.798 198.281 332.191 198.619 332.191 199.294C332.219 200.335 332.135 201.348 332.191 202.39C332.275 203.684 332.472 204.978 332.64 206.273C332.668 206.385 332.893 206.582 332.977 206.554C333.146 206.498 333.314 206.357 333.37 206.188C333.539 205.654 333.679 205.119 333.735 204.556C333.904 203.346 334.016 202.136 334.156 200.926C334.241 200.307 334.606 200.11 335.111 200.364C335.673 200.673 336.234 201.011 336.796 201.377C347.999 208.524 359.174 215.7 370.377 222.875C372.427 224.198 374.476 225.52 376.498 226.843C377.425 227.462 378.464 227.912 378.941 229.066C379.053 229.347 379.502 229.685 379.811 229.657C381.159 229.601 382.086 230.473 383.068 231.12C396.405 239.646 409.799 248.06 423.444 256.024C425.466 257.206 427.516 258.331 429.565 259.457C430.183 259.794 430.604 260.245 430.632 260.976C430.717 263.706 430.829 266.407 430.913 269.137C430.941 269.868 430.464 270.093 429.79 269.699C428.976 269.221 428.19 268.715 427.403 268.208C406.036 254.363 384.697 240.491 363.301 226.702C355.046 221.384 346.651 216.262 338.284 211.085C337.442 210.578 336.627 209.396 335.364 210.325C335.336 211.648 336.487 211.929 337.273 212.492C340.418 214.687 343.619 216.825 346.792 218.992C347.409 219.414 348.027 219.836 348.617 220.286C348.729 220.371 348.813 220.624 348.757 220.737C348.701 220.877 348.476 220.99 348.336 220.99C344.882 220.849 341.429 220.624 338.059 219.667C336.824 219.33 335.588 218.739 334.493 218.035C331.826 216.291 329.271 214.405 326.66 212.576C326.547 212.492 326.435 212.238 326.463 212.098C326.491 211.985 326.688 211.788 326.828 211.788C328.12 211.619 329.439 211.535 330.731 211.366C331.461 211.254 332.163 211.028 332.865 210.775C333.061 210.719 333.258 210.353 333.258 210.128C333.258 209.903 333.061 209.537 332.865 209.481C332.163 209.256 331.433 209.031 330.703 209.002C328.653 208.946 326.575 209.002 324.526 209.002C323.122 209.002 321.718 209.002 320.314 209.002C320.398 209.115 320.398 209.199 320.398 209.284ZM398.371 245.443C398.174 244.261 397.192 243.361 396.096 243.473C395.956 243.502 395.675 243.924 395.731 244.064C396.068 244.993 396.686 245.64 397.641 245.978C397.781 246.034 398.034 246.006 398.146 245.922C398.259 245.809 398.287 245.612 398.371 245.443Z" fill="#BACCDB"></path>
  <path d="M168.804 211.086C171.247 211.086 173.662 211.086 176.105 211.086C176.75 211.086 177.424 211.086 178.07 211.142C178.884 211.226 179.165 211.536 179.221 212.408C179.249 212.887 179.278 213.337 179.221 213.815C178.912 216.882 178.547 219.95 177.677 222.932C175.88 229.039 174.111 235.173 172.483 241.336C170.377 249.384 169.815 257.572 170.601 265.873C171.303 273.049 171.921 280.253 171.584 287.485C171.444 290.496 170.994 293.422 170.18 296.349C168.804 301.245 166.979 305.944 165.098 310.643C164.789 311.431 164.48 312.219 164.172 313.007C161.813 318.86 160.802 324.882 162.038 331.185C162.375 332.93 162.459 334.731 162.768 336.476C163.526 340.697 162.683 344.692 161.251 348.604C161.083 349.054 160.886 349.476 160.662 349.87C160.325 350.517 159.819 350.799 159.089 350.855C154.372 351.164 149.739 350.658 145.331 348.829C143.703 348.154 142.046 347.45 140.53 346.521C137.189 344.467 133.875 342.357 130.618 340.134C126.996 337.629 123.487 334.984 119.893 332.423C117.141 330.454 114.137 328.962 110.879 327.977C108.381 327.218 105.91 326.289 103.411 325.501C94.3135 322.631 88.4171 316.328 84.5423 307.83C83.6438 305.86 82.8296 303.89 81.9311 301.92C80.5833 298.937 78.5898 296.517 75.9224 294.66C74.8554 293.929 73.7604 293.197 72.6653 292.465C71.4299 291.621 70.1383 290.861 68.9871 289.876C68.0886 289.089 67.3024 288.132 66.6005 287.147C65.9828 286.275 66.2074 285.599 67.1059 285.036C67.2744 284.952 67.4428 284.868 67.6113 284.783C72.1038 282.645 75.2204 279.071 77.5509 274.794C78.8987 272.317 80.1341 269.785 81.2572 267.224C82.9419 263.425 85.0758 259.908 88.1363 257.038C89.4841 255.771 90.8599 254.449 92.3761 253.379C109.448 241.505 126.547 229.686 143.618 217.867C146.623 215.785 149.88 214.097 153.249 212.69C155.439 211.761 157.686 211.198 160.044 211.114C162.936 211.029 165.828 210.973 168.748 210.889C168.804 211.001 168.804 211.058 168.804 211.086ZM124.301 271.586C124.329 271.923 124.301 272.008 124.329 272.092C124.413 272.346 124.469 272.683 124.666 272.796C124.862 272.908 125.199 272.852 125.424 272.739C125.761 272.571 126.042 272.317 126.322 272.064C129.383 269.306 132.443 266.549 135.504 263.819C138.592 261.033 141.204 257.882 142.945 254.083C143.534 252.817 144.152 251.55 144.713 250.256C145.696 247.92 146.875 245.669 148.336 243.615C148.616 243.221 148.869 242.827 149.094 242.433C149.15 242.321 149.122 242.039 149.038 241.983C148.925 241.898 148.644 241.842 148.532 241.898C147.353 242.658 146.033 243.277 145.079 244.234C143.843 245.472 142.804 246.964 141.85 248.455C140.839 250.031 139.996 251.691 139.154 253.379C137.862 256.053 135.981 258.219 133.763 260.105C132.191 261.427 130.618 262.778 129.102 264.157C128.204 264.973 127.333 265.845 126.575 266.802C125.424 268.265 124.469 269.869 124.301 271.586ZM123.711 298.093C123.795 298.628 123.852 299.078 123.964 299.528C124.048 299.894 124.61 300.091 124.862 299.838C125.312 299.359 125.761 298.881 126.098 298.318C128.512 294.182 131.545 290.524 134.662 286.922C136.234 285.093 137.554 283.039 138.929 281.041C139.351 280.422 139.631 279.718 139.884 279.015C139.94 278.818 139.772 278.508 139.631 278.311C139.575 278.255 139.238 278.283 139.126 278.396C135.532 281.209 131.713 283.77 128.484 287.034C128.147 287.372 127.867 287.71 127.558 288.076C125.143 291.03 124.132 294.491 123.711 298.093ZM88.754 286.894C88.8102 287.316 88.8944 287.766 88.9787 288.216C89.0629 288.554 89.6525 288.779 89.8772 288.526C90.4949 287.822 91.1407 287.147 91.6461 286.387C93.2465 283.826 95.0154 281.435 97.0932 279.268C97.8794 278.452 98.6094 277.608 99.2271 276.679C99.7325 275.919 100.069 275.019 100.406 274.175C100.491 273.978 100.294 273.64 100.126 273.443C100.069 273.359 99.7325 273.359 99.6202 273.415C96.6159 275.328 93.6396 277.27 91.4214 280.14C89.9052 282.11 89.091 284.389 88.754 286.894ZM130.506 312.416C130.646 312.67 130.787 313.204 131.096 313.401C131.573 313.711 131.966 313.232 132.219 312.866C133.482 311.066 133.932 308.955 134.268 306.816C134.325 306.366 133.623 306.057 133.23 306.282C133.005 306.423 132.724 306.563 132.556 306.788C131.264 308.392 130.674 310.221 130.506 312.416Z" fill="#2C6634"></path>
  <path d="M104.477 101.82C104.954 104.466 106.499 106.295 108.408 107.87C109.419 108.686 110.486 109.503 111.637 110.122C114.22 111.5 116.55 113.189 118.881 114.933C119.471 115.384 120.088 115.834 120.594 116.369C122.334 118.085 122.335 118.282 120.369 119.717C106.162 130.129 91.9541 140.512 77.7466 150.896C75.1073 152.837 72.468 154.807 69.8567 156.749C69.5479 156.974 69.239 157.199 68.9301 157.396C68.3405 157.762 67.8632 157.509 67.8351 156.777C67.7509 153.738 68.2563 150.783 69.604 148.054C70.1937 146.872 70.8675 145.746 71.5133 144.621C71.7941 144.142 72.131 143.664 72.4399 143.214C76.2023 138.12 78.2801 132.38 78.8698 126.049C79.2909 121.659 79.8525 117.297 80.4421 112.936C80.9195 109.39 81.9303 105.985 83.6711 102.805C85.2435 99.9351 87.237 97.5432 90.2413 96.0799C91.6733 95.3765 93.0491 94.5604 94.425 93.7725C97.9909 91.7746 100.967 89.1295 103.438 85.8934C105.488 83.2202 107.706 80.6876 109.924 78.155C112.086 75.6787 114.753 74.0467 118.123 73.7653C119.33 73.6527 120.538 73.4557 121.745 73.3713C124.974 73.1462 128.062 72.4427 130.758 70.5855C133.846 68.475 136.935 66.3645 139.939 64.1134C142.101 62.4813 144.151 60.6803 146.257 58.9638C149.093 56.6564 152.125 54.6022 155.382 52.942C158.359 51.4506 161.503 50.6627 164.76 50.2406C165.94 50.0717 166.22 50.2968 166.417 51.5631C166.698 53.561 167.344 55.362 168.41 57.0785C169.562 58.9357 169.871 60.9055 169.309 63.0159C169.225 63.2973 169.225 63.5787 169.141 63.832C168.13 67.2087 168.719 70.3041 170.629 73.2306C171.022 73.8497 171.359 74.525 171.78 75.1722C174.363 79.2243 175.542 83.7267 176.02 88.426C176.132 89.636 176.16 90.8178 176.216 92.0278C175.009 92.872 173.689 92.3092 172.398 92.3374C168.102 92.4218 163.806 92.4218 159.482 92.5344C158.78 92.5625 158.022 92.8158 157.376 93.1534C156.477 93.6318 155.663 94.279 154.821 94.8981C145.611 101.511 136.402 108.124 127.192 114.708C126.574 115.159 125.985 115.609 125.367 116.003C124.946 116.284 124.44 116.369 124.16 115.862C122.475 112.682 119.442 111.022 116.494 109.503C112.283 107.279 108.155 104.944 104.477 101.82ZM131.572 81.5318C132.218 85.1618 133.875 88.2853 137.075 90.452C137.16 90.5083 137.244 90.5083 137.328 90.5646C137.805 90.7897 138.339 90.4802 138.311 89.9737C138.283 89.5234 138.255 89.0169 138.058 88.623C136.71 85.6683 134.605 83.3046 132.386 81.0253C132.274 80.9127 132.021 80.8846 131.881 80.9408C131.769 81.0253 131.713 81.2504 131.572 81.5318ZM148.7 87.6381C148.672 87.3567 148.615 86.9909 148.559 86.625C148.222 84.4583 147.408 82.4885 146.257 80.6595C146.145 80.4906 145.808 80.4343 145.555 80.4343C145.471 80.4343 145.246 80.6876 145.274 80.8283C145.443 83.3608 145.78 85.8653 147.099 88.0883C147.24 88.3134 147.492 88.4823 147.689 88.6792C147.942 88.9043 148.503 88.6792 148.587 88.3134C148.587 88.1164 148.644 87.9195 148.7 87.6381Z" fill="#41914E"></path>
  <path d="M168.356 198.76C172.203 198.76 176.021 198.76 179.868 198.76C180.429 198.76 180.991 198.76 181.553 198.816C182.058 198.872 182.507 199.097 182.507 199.66C182.535 202.08 182.535 204.528 182.479 206.948C182.479 207.483 182.03 207.764 181.524 207.792C180.682 207.821 179.84 207.849 178.997 207.821C174.028 207.736 169.086 207.624 164.116 207.596C161.954 207.567 159.82 207.708 157.658 207.764C156.282 207.792 156.03 207.595 155.889 206.217C155.749 205.007 155.749 203.769 155.58 202.587C155.496 201.939 155.243 201.32 155.019 200.701C154.963 200.589 154.738 200.448 154.598 200.476C154.457 200.476 154.205 200.617 154.176 200.729C153.98 201.264 153.727 201.771 153.671 202.333C153.531 203.628 153.334 204.95 153.418 206.245C153.531 207.764 152.857 208.609 151.621 209.396C131.714 222.2 112.312 235.791 92.7418 249.101C83.1392 255.63 73.7611 262.44 64.2427 269.109C63.288 269.756 62.5018 270.853 61.126 270.684C61.0137 269.587 60.9014 268.518 60.8172 267.42C60.7891 267.054 60.8452 266.66 60.761 266.295C60.3679 264.466 61.0979 263.396 62.6703 262.411C84.7115 248.567 105.826 233.371 126.997 218.204C135.673 211.985 144.321 205.738 152.941 199.463C154.064 198.647 155.131 198.225 156.535 198.309C160.466 198.506 164.397 198.506 168.328 198.591C168.356 198.675 168.356 198.703 168.356 198.76Z" fill="#BACCDB"></path>
  <path d="M68.8202 271.529C68.1464 271.332 67.1636 271.979 66.4336 271.078C67.0513 270.544 67.5848 269.925 68.2587 269.503C71.4876 267.336 74.7728 265.197 78.0298 263.059C78.1983 262.946 78.5071 263.087 78.7318 263.115C78.7037 263.284 78.7037 263.509 78.6195 263.621C77.2998 265.535 75.9801 267.448 74.6043 269.306C73.425 270.881 71.8807 271.81 69.803 271.529C69.5503 271.5 69.2695 271.529 68.8202 271.529Z" fill="#94A9BF"></path>
  <path d="M389.526 302.735C389.358 303.692 389.274 304.255 389.161 304.789C389.133 304.846 388.74 304.93 388.684 304.846C388.347 304.395 388.038 303.945 387.785 303.467C385.988 299.978 384.276 296.46 382.366 293.027C380.766 290.185 378.997 287.427 377.228 284.698C374.42 280.336 372.371 275.665 371.219 270.6C371.051 269.868 370.967 269.137 370.883 268.377C370.855 268.236 370.995 268.067 371.051 267.898C371.276 268.011 371.613 268.067 371.725 268.264C372.792 270.121 373.775 272.035 374.926 273.864C377.088 277.353 379.25 280.843 381.552 284.276C384.556 288.722 387.252 293.28 388.656 298.486C389.049 299.978 389.274 301.553 389.526 302.735Z" fill="#131B43"></path>
  <path d="M350.61 271.472C350.61 271.613 350.61 271.726 350.582 271.81C350.526 271.979 350.47 272.204 350.357 272.26C350.217 272.317 349.936 272.317 349.852 272.204C349.094 271.388 348.28 270.6 347.606 269.728C345.079 266.351 342.608 262.946 340.081 259.569C338.536 257.515 337.526 255.236 337.133 252.675C337.02 251.831 336.824 251.015 336.739 250.171C336.459 246.907 336.122 243.643 335.027 240.519C334.971 240.378 335.055 240.153 335.083 239.984C335.308 240.041 335.616 240.013 335.757 240.153C337.104 241.729 338.312 243.389 338.901 245.415C339.21 246.485 339.603 247.554 339.828 248.651C340.642 252.478 342.243 255.911 344.601 259.035C346.511 261.595 348.111 264.353 349.459 267.252C350.077 268.602 350.61 269.981 350.61 271.472Z" fill="#131B43"></path>
  <path d="M379.475 254.082C379.643 254.11 379.868 254.11 380.008 254.195C383.321 256.108 386.663 257.937 389.414 260.695C390.453 261.736 391.38 262.918 392.306 264.1C392.643 264.522 392.924 265.028 393.149 265.535C393.654 266.66 393.71 267.786 393.261 267.842C392.362 267.927 392.054 267.083 391.548 266.604C388.179 263.537 384.809 260.442 381.496 257.318C380.626 256.502 379.868 255.545 379.082 254.645C379.025 254.589 379.138 254.335 379.222 254.195C379.25 254.11 379.39 254.11 379.475 254.082Z" fill="#131B43"></path>
  <path d="M350.076 315.766C350.048 316.103 350.048 316.75 349.908 317.398C349.852 317.735 349.571 318.017 349.374 318.326C349.15 318.101 348.785 317.904 348.672 317.623C348.279 316.666 347.914 315.709 347.662 314.724C346.791 311.488 345.752 308.309 344.348 305.241C344.011 304.538 343.31 303.553 344.18 303.018C344.882 302.596 345.415 303.609 345.893 304.144C348.757 307.38 349.992 311.207 350.076 315.766Z" fill="#131B43"></path>
  <path d="M361.869 157.958C361.841 155.453 362.515 153.343 364.003 151.542C366.053 149.037 369.057 149.206 370.742 151.964C371.359 152.977 371.64 154.215 372.033 155.341C372.286 156.1 372.623 156.269 373.241 155.819C373.774 155.425 374.251 154.975 374.785 154.609C375.487 154.131 376.189 153.68 376.947 153.315C378.07 152.752 379.277 152.527 380.372 153.399C381.467 154.271 381.552 155.481 381.355 156.72C380.962 158.971 379.951 160.969 378.631 162.826C377.087 164.993 375.178 166.737 373.1 168.369C372.595 168.763 372.089 169.185 371.724 169.692C370.91 170.733 370.742 170.874 369.787 170.339C369.225 170.03 368.664 169.664 368.158 169.242C366.137 167.525 364.452 165.527 363.217 163.192C362.262 161.531 361.757 159.73 361.869 157.958Z" fill="#131B43"></path>
  <path d="M329.214 125.738C326.659 126.414 324.609 127.736 322.644 129.171C322.11 129.565 321.605 129.987 321.072 130.325C320.089 130.916 319.218 130.381 319.247 129.199C319.247 128.918 319.387 128.665 319.471 128.383C319.499 128.299 319.443 128.158 319.443 128.158C319.275 128.158 319.05 128.102 318.994 128.186C318.32 128.974 317.702 129.79 317.056 130.578C316.635 131.085 316.186 131.563 315.681 131.957C315.512 132.098 315.119 132.126 314.923 132.041C314.726 131.929 314.473 131.591 314.529 131.394C314.67 130.663 314.838 129.903 315.175 129.284C317.197 125.626 319.892 122.53 323.262 120.082C323.992 119.547 324.918 119.21 325.789 118.985C326.828 118.731 327.642 119.744 327.249 120.729C326.968 121.433 326.547 122.052 326.21 122.699C326.041 123.009 325.761 123.515 325.873 123.656C326.266 124.191 326.687 123.656 327.08 123.487C328.54 122.896 330 122.221 331.46 121.63C331.966 121.433 332.556 121.377 333.089 121.405C333.987 121.433 334.605 122.446 334.156 123.234C333.735 123.965 333.201 124.613 332.64 125.232C331.573 126.414 330.422 127.511 329.355 128.693C329.186 128.862 329.158 129.199 329.074 129.453C329.327 129.537 329.579 129.706 329.804 129.65C331.095 129.424 332.359 129.087 333.651 128.918C334.942 128.721 336.262 128.637 337.553 128.58C338.087 128.552 338.676 128.665 339.21 128.834C340.333 129.199 340.726 130.353 340.024 131.31C339.659 131.844 339.182 132.323 338.648 132.717C335.869 134.827 332.836 136.487 329.579 137.697C328.905 137.951 328.119 138.007 327.389 138.12C327.249 138.148 327.024 137.979 326.968 137.838C326.912 137.697 326.94 137.416 327.024 137.304C327.754 136.6 328.456 135.84 329.298 135.277C330.787 134.321 332.359 133.477 333.903 132.576C334.212 132.379 334.549 132.182 334.802 131.929C334.886 131.844 334.886 131.619 334.858 131.45C334.858 131.394 334.689 131.338 334.605 131.338C334.156 131.394 333.679 131.394 333.229 131.507C330.702 132.182 328.175 132.886 325.676 133.617C323.936 134.124 323.29 134.124 322.925 133.336C322.363 132.098 323.318 131.422 324.02 130.719C325.199 129.537 326.491 128.411 327.698 127.258C328.26 126.807 328.737 126.245 329.214 125.738Z" fill="#131B43"></path>
  <path d="M400.504 167.019C400.139 168.229 399.831 169.467 398.792 170.311C398.679 170.396 398.174 170.227 398.118 170.086C397.865 169.27 399.129 167.131 400.027 166.737C400.111 166.709 400.28 166.878 400.504 167.019Z" fill="#131B43"></path>
  <path d="M334.213 79.083C334.381 78.4076 334.522 77.873 334.69 77.3383C335.533 74.3837 336.431 71.429 337.245 68.4462C338.003 65.6323 338.902 62.8746 340.53 60.4546C341.261 59.3853 342.215 58.4848 343.142 57.5562C343.394 57.303 343.788 57.2467 344.153 57.106C344.518 56.9934 344.967 57.3311 344.883 57.6969C344.574 58.7662 344.405 59.92 343.872 60.8767C341.682 64.7318 340.446 68.9528 339.014 73.1174C338.453 74.7776 337.695 76.4097 336.908 78.0137C336.6 78.6609 336.01 79.1674 335.476 79.7021C335.308 79.8709 334.859 79.9835 334.718 79.899C334.466 79.6739 334.353 79.3081 334.213 79.083Z" fill="#131B43"></path>
  <path d="M378.322 89.6338C378.21 89.9715 378.21 90.281 378.042 90.478C377.677 90.9001 377.312 91.3222 376.862 91.6317C375.936 92.2789 375.037 92.9262 374.027 93.4045C371.415 94.6427 368.972 96.1622 366.839 98.1601C365.912 99.0606 364.789 99.7922 363.357 99.7078C362.823 99.6797 362.515 99.1732 362.795 98.7229C364.929 95.6276 367.147 92.6448 370.798 91.1815C372.173 90.6187 373.521 89.9715 374.925 89.5213C375.795 89.2399 376.75 89.2399 377.677 89.1836C377.901 89.1836 378.098 89.465 378.322 89.6338Z" fill="#131B43"></path>
  <path d="M377.789 100.468C377.452 100.384 376.638 100.215 375.851 99.9615C375.29 99.7645 375.178 98.9766 375.627 98.5826C375.767 98.4701 375.908 98.3294 376.048 98.245C378.266 97.035 380.625 96.1345 383.096 95.5998C383.545 95.5154 384.022 95.5436 384.471 95.5436C385.117 95.5717 385.482 96.1626 385.23 96.7254C384.752 97.8792 383.91 98.7515 382.843 99.3705C381.607 100.13 380.063 100.496 377.789 100.468Z" fill="#131B43"></path>
  <path d="M398.37 245.444C398.286 245.613 398.258 245.81 398.117 245.923C398.005 246.007 397.752 246.035 397.612 245.979C396.685 245.641 396.04 244.994 395.703 244.065C395.646 243.925 395.927 243.502 396.068 243.474C397.163 243.362 398.174 244.262 398.37 245.444Z" fill="#131B43"></path>
  <path d="M124.302 271.586C124.47 269.87 125.425 268.266 126.576 266.774C127.306 265.818 128.205 264.973 129.103 264.129C130.619 262.75 132.192 261.4 133.764 260.077C136.01 258.192 137.863 255.997 139.155 253.352C139.969 251.663 140.84 250.003 141.85 248.427C142.805 246.936 143.844 245.473 145.079 244.206C146.034 243.25 147.354 242.63 148.533 241.871C148.645 241.786 148.926 241.843 149.038 241.955C149.123 242.04 149.151 242.293 149.095 242.405C148.87 242.827 148.617 243.221 148.337 243.587C146.876 245.67 145.725 247.893 144.714 250.228C144.153 251.523 143.535 252.761 142.946 254.055C141.205 257.882 138.593 261.034 135.505 263.791C132.444 266.521 129.384 269.307 126.323 272.036C126.043 272.29 125.762 272.543 125.425 272.712C125.2 272.824 124.835 272.881 124.667 272.768C124.47 272.655 124.414 272.318 124.33 272.064C124.302 272.008 124.33 271.924 124.302 271.586Z" fill="#131B43"></path>
  <path d="M123.713 298.092C124.162 294.49 125.145 291.029 127.532 288.074C127.812 287.708 128.121 287.343 128.458 287.033C131.715 283.797 135.506 281.236 139.1 278.394C139.212 278.31 139.577 278.253 139.605 278.31C139.745 278.507 139.914 278.816 139.858 279.013C139.605 279.717 139.324 280.42 138.903 281.039C137.527 283.037 136.208 285.091 134.635 286.92C131.519 290.55 128.458 294.181 126.071 298.317C125.763 298.88 125.285 299.33 124.836 299.837C124.611 300.09 124.022 299.893 123.938 299.527C123.853 299.105 123.797 298.627 123.713 298.092Z" fill="#131B43"></path>
  <path d="M88.7539 286.893C89.0908 284.388 89.9051 282.109 91.4213 280.139C93.6395 277.297 96.6157 275.327 99.6201 273.414C99.7324 273.329 100.069 273.329 100.126 273.442C100.266 273.639 100.462 273.976 100.406 274.173C100.069 275.046 99.7324 275.918 99.227 276.678C98.6093 277.607 97.8512 278.451 97.0931 279.267C95.0153 281.433 93.2464 283.825 91.6459 286.386C91.1686 287.174 90.4947 287.849 89.877 288.525C89.6524 288.778 89.0628 288.553 88.9785 288.215C88.8943 287.765 88.8101 287.315 88.7539 286.893Z" fill="#131B43"></path>
  <path d="M130.507 312.416C130.675 310.221 131.265 308.392 132.557 306.816C132.725 306.619 132.978 306.478 133.23 306.31C133.624 306.056 134.354 306.394 134.269 306.844C133.96 308.983 133.511 311.065 132.22 312.894C131.967 313.26 131.574 313.738 131.096 313.429C130.788 313.204 130.647 312.669 130.507 312.416Z" fill="#131B43"></path>
  <path d="M159.875 105.703C159.594 106.182 159.482 106.576 159.229 106.801C158.471 107.476 157.685 108.152 156.843 108.743C135.84 123.938 114.838 139.161 93.8077 154.329C88.1078 158.437 82.3799 162.489 76.6239 166.485C74.0969 168.258 71.4295 169.834 68.8183 171.466C68.2005 171.86 67.4986 172.169 66.8247 172.479C66.6001 172.563 66.207 172.591 66.0666 172.479C65.7297 172.169 65.9543 171.803 66.2351 171.522C67.3301 170.509 68.3971 169.44 69.5764 168.511C72.2999 166.372 75.0516 164.262 77.8313 162.208C103.326 143.636 129.074 125.429 155.018 107.448C156.225 106.604 157.573 105.9 158.893 105.197C159.061 105.169 159.454 105.506 159.875 105.703Z" fill="#131B43"></path>
  <path d="M99.0874 163.473C99.1716 165.331 98.3012 166.878 96.9254 168.088C95.2126 169.608 93.191 170.565 91.0009 171.156C89.9901 171.409 89.6532 170.987 89.4566 169.833C89.1197 167.919 89.4847 166.119 90.327 164.43C91.3098 162.432 92.3487 160.434 93.3875 158.436C93.6683 157.874 94.1176 157.592 94.7634 157.789C97.0377 158.465 99.0593 161.11 99.0874 163.473ZM96.785 162.854C96.6165 162.517 96.3638 161.841 95.9707 161.222C95.7461 160.856 95.2969 160.631 94.9599 160.322C94.6791 160.659 94.3141 160.941 94.1456 161.307C93.556 162.686 93.0506 164.092 92.5452 165.471C92.2644 166.231 92.096 167.047 91.8713 167.835C92.9383 168.313 93.556 167.413 94.3141 167.019C94.8757 166.709 95.3811 166.259 95.8303 165.809C96.5042 165.106 96.8411 164.233 96.785 162.854Z" fill="#131B43"></path>
  <path d="M102.935 169.523C100.211 169.438 99.2563 168.144 99.9021 166.118C100.183 165.218 100.548 164.373 100.969 163.529C101.109 163.276 101.559 162.966 101.783 162.995C102.373 163.107 102.317 163.67 102.233 164.12C102.064 164.852 101.811 165.555 101.587 166.259C101.474 166.625 101.39 166.99 101.362 167.356C101.306 168.144 102.204 168.707 102.935 168.341C104.03 167.75 104.816 166.85 105.349 165.724C106.135 164.12 106.557 162.404 106.753 160.631C106.809 160.068 106.837 159.505 107.062 158.999C107.174 158.745 107.624 158.492 107.932 158.492C108.241 158.492 108.691 158.717 108.831 158.999C109.056 159.393 109.168 159.899 109.112 160.321C108.606 163.445 107.539 166.287 105.097 168.397C104.31 169.073 103.384 169.523 102.935 169.523Z" fill="#131B43"></path>
  <path d="M115.849 157.169C115.821 157.338 115.821 157.563 115.737 157.676C115.4 158.014 115.007 158.267 114.698 158.604C113.603 159.674 113.575 159.955 114.277 161.278C114.558 161.784 114.895 162.234 115.119 162.741C116.186 165.161 115.456 167.637 113.238 169.157C112.901 169.382 112.452 169.466 112.283 169.044C112.171 168.791 112.255 168.284 112.452 168.087C113.154 167.44 113.8 166.821 113.744 165.724C113.687 164.711 113.266 163.923 112.592 163.247C112.536 163.191 112.452 163.107 112.396 163.051C111.469 162.094 110.571 161.053 111.16 159.589C111.806 157.985 112.985 157.029 114.698 156.747C114.951 156.691 115.26 156.747 115.512 156.832C115.653 156.832 115.737 157.029 115.849 157.169Z" fill="#131B43"></path>
  <path d="M120.23 160.885C120.82 160.885 121.017 160.885 121.213 160.885C121.887 160.913 122.617 160.997 122.814 161.701C123.066 162.545 122.392 162.826 121.747 162.967C121.129 163.108 120.82 163.502 120.736 164.121C120.624 164.937 120.511 165.781 120.371 166.597C120.315 166.935 120.174 167.329 119.95 167.61C119.809 167.807 119.444 167.92 119.22 167.892C118.995 167.863 118.658 167.582 118.63 167.413C118.574 166.682 118.574 165.95 118.686 165.218C118.855 164.036 118.939 162.995 117.479 162.517C117.058 162.376 117.198 161.532 117.647 161.419C118.63 161.194 119.641 160.997 120.23 160.885Z" fill="#131B43"></path>
  <path d="M131.574 81.5312C131.715 81.2216 131.771 80.9965 131.883 80.9402C132.023 80.884 132.304 80.9121 132.388 81.0247C134.607 83.304 136.713 85.6958 138.06 88.6223C138.257 89.0163 138.285 89.5228 138.313 89.973C138.369 90.4796 137.808 90.7891 137.33 90.564C137.246 90.5358 137.162 90.5077 137.078 90.4514C133.877 88.2847 132.22 85.1612 131.574 81.5312Z" fill="#131B43"></path>
  <path d="M148.701 87.6381C148.645 87.9195 148.616 88.0884 148.56 88.2853C148.476 88.6511 147.943 88.8763 147.662 88.6512C147.437 88.4823 147.213 88.3135 147.072 88.0602C145.752 85.8372 145.416 83.3328 145.247 80.8002C145.247 80.6595 145.444 80.4062 145.528 80.4062C145.781 80.4062 146.117 80.4907 146.23 80.6314C147.353 82.4886 148.167 84.4583 148.532 86.597C148.616 86.9909 148.645 87.3567 148.701 87.6381Z" fill="#131B43"></path>
  <path d="M96.7847 162.855C96.8128 164.234 96.4759 165.106 95.8301 165.81C95.3808 166.288 94.8754 166.738 94.3139 167.02C93.5558 167.413 92.91 168.314 91.8711 167.836C92.0957 167.048 92.2642 166.26 92.545 165.472C93.0504 164.065 93.5838 162.658 94.1454 161.307C94.3139 160.941 94.6789 160.66 94.9597 160.322C95.2966 160.632 95.7458 160.857 95.9705 161.223C96.3636 161.814 96.6443 162.517 96.7847 162.855Z" fill="#94A9BF"></path>
  <path d="M102.905 160.632C103.607 160.829 103.495 161.898 102.765 161.87C102.709 161.87 102.652 161.87 102.596 161.842C102.4 161.785 102.259 161.532 102.119 161.307C102.063 161.194 102.063 161.054 102.175 160.969C102.372 160.8 102.568 160.604 102.793 160.604C102.821 160.604 102.849 160.604 102.905 160.632Z" fill="#131B43"></path>
  <path d="M429.65 166.569C429.734 164.993 429.2 163.952 427.853 163.08C424.483 160.885 421.142 158.634 417.857 156.298C390.116 136.826 362.15 117.662 334.718 97.7397C333.82 97.0924 332.949 96.8392 331.882 96.8673C325.508 96.9517 319.163 96.9799 312.789 97.0362C312.031 97.0362 311.301 97.0362 310.543 97.0643C309.307 97.1206 309.027 97.3738 308.999 98.5557C308.971 100.807 308.971 103.058 308.999 105.309C309.027 106.519 309.279 106.716 310.571 106.744C311.217 106.772 311.891 106.716 312.536 106.716C317.225 106.688 321.886 106.632 326.575 106.66C327.474 106.66 328.4 106.913 329.299 107.11C329.439 107.138 329.58 107.532 329.608 107.785C330.703 107.785 331.601 107.785 332.247 107.785C332.247 107.617 332.275 107.42 332.388 107.223C332.612 106.772 333.286 106.632 333.876 106.941C334.634 107.335 335.364 107.757 336.066 108.208C339.491 110.487 342.945 112.766 346.342 115.074C365.941 128.384 385.258 142.116 404.548 155.876C412.41 161.476 420.272 167.047 428.162 172.619C428.527 172.872 429.032 173.154 429.397 173.069C430.015 172.957 429.762 172.31 429.762 171.887C429.678 170.143 429.537 168.342 429.65 166.569Z" fill="#BACCDB"></path>
  <path d="M375.431 163.051C375.29 163.164 374.954 163.501 374.925 163.473C373.999 162.77 373.072 162.01 372.174 161.278C372.146 161.25 372.174 161.11 372.202 161.025C372.23 160.941 372.342 160.828 372.398 160.828C373.606 161.11 374.56 161.841 375.431 162.685C375.459 162.742 375.431 162.854 375.431 163.051Z" fill="#94A9BF"></path>
  <path d="M369.534 154.103C369.45 154.272 369.422 154.412 369.394 154.412C369.253 154.44 369.001 154.525 368.944 154.44C368.607 154.131 368.299 153.793 368.018 153.456C367.484 152.752 367.428 151.992 367.737 152.105C368.214 152.274 368.664 152.583 369.001 152.977C369.281 153.287 369.366 153.765 369.534 154.103Z" fill="#94A9BF"></path>
  <path d="M378.632 157.48C378.492 157.536 378.295 157.705 378.211 157.648C377.762 157.367 377.312 157.086 376.891 156.748C376.779 156.664 376.723 156.382 376.779 156.298C376.863 156.185 377.144 156.044 377.228 156.101C377.705 156.438 378.155 156.832 378.604 157.226C378.66 157.283 378.632 157.395 378.632 157.48Z" fill="#94A9BF"></path>
  <path d="M364.817 157.591C364.958 157.478 365.154 157.478 365.295 157.619C365.491 157.844 365.688 158.097 365.856 158.351C365.884 158.407 365.744 158.717 365.66 158.745C365.154 158.885 364.564 158.351 364.649 157.844C364.649 157.732 364.733 157.675 364.817 157.591Z" fill="#94A9BF"></path>
  <path d="M366.306 153.766C366.194 153.85 365.997 153.991 365.941 153.963C365.885 153.907 365.828 153.85 365.772 153.766C365.716 153.653 365.744 153.512 365.857 153.456C365.969 153.4 366.11 153.428 366.166 153.54C366.222 153.597 366.25 153.681 366.306 153.766Z" fill="#94A9BF"></path>
  <path d="M367.401 162.377C367.148 162.293 366.923 162.208 366.698 162.096C366.642 162.068 366.642 161.955 366.586 161.87C366.727 161.814 366.923 161.701 367.008 161.758C367.204 161.898 367.345 162.124 367.486 162.293C367.486 162.293 367.401 162.377 367.401 162.377Z" fill="#94A9BF"></path>
  <path d="M314.417 97.0352C313.856 97.0352 313.322 97.0352 312.761 97.0352C312.003 97.0352 311.273 97.0352 310.515 97.0633C309.279 97.1196 308.998 97.3728 308.97 98.5547C308.942 100.806 308.942 103.057 308.97 105.308C308.998 106.518 309.251 106.715 310.543 106.743C311.188 106.771 311.862 106.715 312.508 106.715C312.929 106.715 313.322 106.715 313.743 106.715L314.417 97.0352Z" fill="#718496"></path>
  <path d="M180.374 95.4883C179.644 95.4883 178.914 95.4883 178.184 95.4883C178.296 97.5706 178.521 101.595 178.773 103.761C179.11 103.761 179.475 103.761 179.812 103.761C180.57 103.761 181.3 103.761 182.058 103.733C182.704 103.705 183.097 103.311 183.125 102.664C183.182 101.257 183.21 99.8499 183.21 98.4429C183.266 95.4602 183.35 95.4883 180.374 95.4883Z" fill="#718496"></path>
  <path d="M323.178 168.483C323.01 168.539 322.842 168.623 322.673 168.68C321.718 169.017 320.68 169.299 319.669 169.383C316.945 169.608 315.176 167.723 315.485 165.05C315.625 163.811 316.075 162.686 316.777 161.673C318.04 159.872 319.556 158.409 321.269 157.199C321.073 155.96 320.848 154.694 320.623 153.4C318.995 154.328 317.422 155.313 315.794 156.242C315.064 156.664 314.334 157.142 313.548 157.339C312.34 157.621 311.33 156.411 311.779 155.229C311.975 154.722 312.312 154.244 312.677 153.85C313.435 153.034 314.306 152.302 315.036 151.458C316.496 149.77 317.956 148.053 319.304 146.252C319.332 146.224 319.332 146.196 319.36 146.168C319.023 144.254 318.686 142.313 318.349 140.371C317.535 140.371 316.692 140.484 315.934 140.709C314.334 141.215 312.762 141.806 311.217 142.51C308.494 143.748 308.662 143.607 308.662 146.477C308.662 154.919 308.69 163.361 308.69 171.803C308.69 172.563 308.69 173.323 308.831 174.026C308.887 174.307 309.28 174.673 309.561 174.701C310.291 174.814 311.049 174.786 311.807 174.786C315.906 174.758 320.006 174.73 324.077 174.73C323.965 173.238 323.628 171.1 323.178 168.483Z" fill="#718496"></path>
  <path d="M319.275 164.543C319.135 164.74 319.135 165.162 319.247 165.331C319.359 165.5 319.752 165.64 319.977 165.612C320.707 165.444 321.437 165.247 322.111 164.909C322.279 164.824 322.42 164.74 322.56 164.656C322.392 163.586 322.195 162.489 321.999 161.363C321.634 161.673 321.297 161.982 320.932 162.32C320.286 162.939 319.809 163.783 319.275 164.543Z" fill="#718496"></path>
  <path d="M308.915 111.416C308.859 120.224 308.803 129.06 308.746 137.867C308.718 141.188 308.915 140.878 311.554 139.471C312.79 138.824 314.109 138.289 315.457 137.924C316.243 137.699 317.114 137.586 317.928 137.53C317.535 135.25 317.142 132.999 316.777 130.832C316.412 131.226 316.047 131.62 315.654 131.958C315.485 132.099 315.092 132.127 314.895 132.042C314.699 131.93 314.446 131.592 314.502 131.395C314.643 130.664 314.811 129.904 315.148 129.285C315.485 128.694 315.85 128.103 316.215 127.512C314.643 118.535 313.379 111.247 312.958 108.855C312.453 108.855 311.919 108.855 311.414 108.855C308.971 108.884 308.943 108.884 308.915 111.416Z" fill="#718496"></path>
  <path d="M182.814 139.47C179.192 141.131 176.019 143.41 173.38 146.365C172.818 146.984 172.369 147.715 172.032 148.475C170.993 150.839 171.836 153.315 174.166 154.384C175.233 154.891 176.497 155.06 177.676 155.257C178.603 155.425 179.529 155.369 180.456 155.482C180.652 155.51 180.877 155.791 180.989 156.016C181.045 156.129 180.933 156.41 180.793 156.495C179.361 157.536 177.929 158.577 176.441 159.534C174.784 160.575 173.043 161.504 171.358 162.517C170.797 162.854 170.263 163.248 169.814 163.727C168.831 164.74 169.084 166.09 170.376 166.738C170.853 166.991 171.415 167.16 171.976 167.216C173.464 167.385 174.952 167.272 176.412 166.794C178.715 166.034 180.793 164.796 182.786 163.417C182.842 155.425 182.898 147.434 182.927 139.414C182.898 139.442 182.842 139.442 182.814 139.47Z" fill="white"></path>
  <path d="M182.984 120.729C179.446 121.911 176.077 123.459 173.101 125.766C172.876 125.935 172.623 126.132 172.539 126.357C172.371 126.864 172.146 127.398 172.202 127.905C172.286 128.496 172.876 128.777 173.466 128.805C174.196 128.834 174.954 128.805 175.684 128.665C177.509 128.299 179.306 127.849 181.103 127.398C182.001 127.173 182.591 127.033 183.012 126.864C183.012 124.81 183.04 122.755 183.04 120.701C183.012 120.701 183.012 120.701 182.984 120.729Z" fill="white"></path>
  <path d="M348.672 220.314C348.082 219.864 347.465 219.442 346.847 219.02C343.674 216.853 340.473 214.742 337.328 212.519C336.542 211.957 335.363 211.675 335.419 210.353C335.419 210.353 335.138 210.043 333.285 209.902C333.313 209.987 333.341 210.071 333.341 210.127C333.341 210.353 333.145 210.718 332.948 210.775C332.246 211.028 331.544 211.253 330.814 211.366C329.523 211.563 328.203 211.647 326.911 211.788C326.771 211.816 326.574 211.985 326.546 212.097C326.518 212.238 326.631 212.491 326.743 212.576C329.326 214.405 331.909 216.29 334.577 218.035C335.644 218.738 336.879 219.301 338.143 219.667C341.484 220.595 344.937 220.849 348.419 220.989C348.56 220.989 348.784 220.849 348.84 220.736C348.84 220.652 348.784 220.398 348.672 220.314Z" fill="#94A9BF"></path>
  <path d="M288.157 12.2422H204.682V26.166H288.157V12.2422Z" fill="#131B43"></path>
  <path d="M286.475 13.9238V24.4843H206.363V13.9238H286.475ZM289.839 10.5605H286.475H206.363H203V13.9238V24.4843V27.8476H206.363H286.475H289.839V24.4843V13.9238V10.5605Z" fill="#131B43"></path>
  <path d="M288.157 50.6172H204.682V64.541H288.157V50.6172Z" fill="#131B43"></path>
  <path d="M286.475 52.2988V62.8593H206.363V52.2988H286.475ZM289.839 48.9355H286.475H206.363H203V52.2988V62.8593V66.2226H206.363H286.475H289.839V62.8593V52.2988V48.9355Z" fill="#131B43"></path>
  <path d="M288.157 89.0254H204.682V102.949H288.157V89.0254Z" fill="#131B43"></path>
  <path d="M286.475 90.707V101.268H206.363V90.707H286.475ZM289.839 87.3438H286.475H206.363H203V90.707V101.268V104.631H206.363H286.475H289.839V101.268V90.707V87.3438Z" fill="#131B43"></path>
  <path d="M288.157 127.432H204.682V141.355H288.157V127.432Z" fill="#131B43"></path>
  <path d="M286.475 129.113V139.674H206.363V129.113H286.475ZM289.839 125.75H286.475H206.363H203V129.113V139.674V143.037H206.363H286.475H289.839V139.674V129.113V125.75Z" fill="#131B43"></path>
  <path d="M288.157 165.807H204.682V179.73H288.157V165.807Z" fill="#131B43"></path>
  <path d="M286.475 167.488V178.049H206.363V167.488H286.475ZM289.839 164.125H286.475H206.363H203V167.488V178.049V181.412H206.363H286.475H289.839V178.049V167.488V164.125Z" fill="#131B43"></path>
  <path d="M288.157 204.215H204.682V218.139H288.157V204.215Z" fill="#131B43"></path>
  <path d="M286.475 205.896V216.457H206.363V205.896H286.475ZM289.839 202.533H286.475H206.363H203V205.896V216.457V219.82H206.363H286.475H289.839V216.457V205.896V202.533Z" fill="#131B43"></path>
  <path d="M224.021 0H212.25V230.381H224.021V0Z" fill="white"></path>
  <path d="M213.931 230.381V4.6749V0H210.567V4.6749V230.381H213.931V230.381ZM225.702 230.381V4.6749V0H222.339V4.6749V230.381H225.702V230.381Z" fill="#131B43"></path>
  <path d="M280.591 0H268.819V230.381H280.591V0Z" fill="white"></path>
  <path d="M270.501 230.381V4.00225V0H267.138V4.00225V230.381H270.501V230.381ZM282.272 230.381V4.00225V0H278.909V4.00225V230.381H282.272V230.381Z" fill="#131B43"></path>
  <path d="M288.157 166.242H204.682V180.166H288.157V166.242Z" fill="#131B43"></path>
  <path d="M286.475 167.924V178.484H206.363V167.924H286.475ZM289.839 164.561H286.475H206.363H203V167.924V178.484V181.848H206.363H286.475H289.839V178.484V167.924V164.561Z" fill="#131B43"></path>
  <path d="M288.157 204.617H204.682V218.541H288.157V204.617Z" fill="#131B43"></path>
  <path d="M286.475 206.299V216.859H206.363V206.299H286.475ZM289.839 202.936H286.475H206.363H203V206.299V216.859V220.223H206.363H286.475H289.839V216.859V206.299V202.936Z" fill="#131B43"></path>
  <path d="M288.157 243.025H204.682V256.949H288.157V243.025Z" fill="#131B43"></path>
  <path d="M286.475 244.707V255.268H206.363V244.707H286.475ZM289.839 241.344H286.475H206.363H203V244.707V255.268V258.631H206.363H286.475H289.839V255.268V244.707V241.344Z" fill="#131B43"></path>
  <path d="M288.157 281.432H204.682V295.355H288.157V281.432Z" fill="#131B43"></path>
  <path d="M286.475 283.113V293.674H206.363V283.113H286.475ZM289.839 279.75H286.475H206.363H203V283.113V293.674V297.037H206.363H286.475H289.839V293.674V283.113V279.75Z" fill="#131B43"></path>
  <path d="M288.157 319.807H204.682V333.73H288.157V319.807Z" fill="#131B43"></path>
  <path d="M286.475 321.488V332.049H206.363V321.488H286.475ZM289.839 318.125H286.475H206.363H203V321.488V332.049V335.412H206.363H286.475H289.839V332.049V321.488V318.125Z" fill="#131B43"></path>
  <path d="M288.157 358.215H204.682V372.139H288.157V358.215Z" fill="#131B43"></path>
  <path d="M286.475 359.896V370.457H206.363V359.896H286.475ZM289.839 356.533H286.475H206.363H203V359.896V370.457V373.82H206.363H286.475H289.839V370.457V359.896V356.533Z" fill="#131B43"></path>
  <path d="M224.021 154H212.25V384.381H224.021V154Z" fill="white"></path>
  <path d="M213.931 384.381V158.675V154H210.567V158.675V384.381H213.931V384.381ZM225.702 384.381V158.675V154H222.339V158.675V384.381H225.702V384.381Z" fill="#131B43"></path>
  <path d="M280.591 154H268.819V384.381H280.591V154Z" fill="white"></path>
  <path d="M270.501 384.381V158.002V154H267.138V158.002V384.381H270.501V384.381ZM282.272 384.381V158.002V154H278.909V158.002V384.381H282.272V384.381Z" fill="#131B43"></path>
</svg>
