<?xml version="1.0" encoding="UTF-8"?>
<svg width="1121px" height="994px" viewBox="0 0 1121 994" version="1.1" xmlns="http://www.w3.org/2000/svg" xmlns:xlink="http://www.w3.org/1999/xlink">
    <title>Artboard</title>
    <g id="Artboard" stroke="none" stroke-width="1" fill="none" fill-rule="evenodd">
        <g id="Group" fill-rule="nonzero">
            <path d="M76.7608,150.524 L34.9206,146.863 L0.107664,173.029 C2.8761,196.459 30.5246,228.089 71.4682,231.671 L107.032,234.783 C149.47,238.496 181.683,214.512 185.082,175.66 C187.671,146.073 172.582,125.781 155.969,112.583 L121.353,84.8606 C107.273,73.6909 103.392,66.425 104.229,56.8615 C104.673,51.7809 105.883,48.273 107.938,45.4413 C123.385,51.31 132.863,66.8953 131.866,85.178 L173.706,88.8385 L208.519,62.6731 C205.75,39.2427 178.102,7.61258 137.158,4.03048 L101.594,0.919017 C65.1335,-2.27088 27.2049,18.2013 23.5443,60.0415 C20.9558,89.6285 36.0446,109.921 52.3849,122.794 L87.572,150.868 C98.5476,159.658 105.235,169.277 104.398,178.84 C103.954,183.921 102.717,187.728 100.364,190.533 C85.2413,184.392 75.4385,169.079 76.7608,150.524 Z M110.883,201.09 C130.907,202.842 147.52,191.949 149.245,172.224 C150.683,155.787 141.348,142.021 125.579,129.499 L89.7942,101.373 C75.7141,90.2032 66.1169,79.4257 67.4504,64.1839 C68.7839,48.9422 81.4965,41.3211 97.0371,42.6807 C97.9337,42.7592 99.1291,42.8638 99.9995,43.2411 C97.8926,46.6705 96.63,50.7761 96.1594,56.1555 C95.0089,69.3053 101.098,78.8724 114.061,89.0409 L149.521,117.44 C166.679,131.288 179.288,148.954 177.013,174.954 C174.006,209.323 145.693,230.034 107.738,226.714 C71.8753,223.576 51.1343,202.488 45.2988,179.693 L69.465,161.63 C72.9096,184.216 87.2737,199.025 110.883,201.09 Z M112.467,179.546 C113.618,166.397 107.528,156.829 95.4095,147.337 L58.8327,117.937 C42.4925,105.064 29.3388,86.7481 31.6135,60.7475 C34.8819,23.3902 68.9104,6.1905 100.888,8.9882 C136.452,12.0997 157.492,33.2137 163.328,56.0091 L139.188,73.7727 C135.418,51.4593 121.054,36.651 97.7431,34.6116 C77.7195,32.8597 61.1069,43.7533 59.3812,63.478 C57.9431,79.9152 67.305,93.3824 82.7748,105.878 L117.988,133.653 C132.912,145.499 142.51,156.276 141.176,171.518 C139.843,186.76 127.13,194.381 111.589,193.021 L108.302,192.734 C110.409,189.304 111.997,184.926 112.467,179.546 Z M198.828,56.4047 L171.333,53.9992 C166.144,37.5844 155.172,21.8684 137.401,11.5804 C162.778,14.1017 190.512,30.9831 198.828,56.4047 Z M9.79821,179.297 L37.2932,181.703 C42.1834,198.091 53.1293,214.106 71.2253,224.122 C45.5496,221.574 18.0881,205.018 9.79821,179.297 Z M37.8009,155.246 L61.1119,157.286 L39.1946,173.738 L15.8836,171.699 L37.8009,155.246 Z M170.826,80.4556 L147.515,78.4161 L169.432,61.9638 L192.743,64.0032 L170.826,80.4556 Z M454.404,31.7858 L261.341,14.8951 L220.405,45.6443 L217.085,83.5993 L292.696,90.2144 L278.733,249.805 L320.574,253.465 L361.509,222.716 L372.491,97.1956 L409.848,100.464 L451.083,69.7409 L454.404,31.7858 Z M367.926,56.4426 L353.78,218.125 L323.816,240.499 L340.132,54.011 L235.83,44.8857 L264.221,23.278 L438.755,38.5477 L410.065,60.1293 L367.926,56.4426 Z M406.968,67.9893 L404.876,91.898 L373.197,89.1264 L375.289,65.2177 L406.968,67.9893 Z M413.416,87.2245 L415.22,66.6033 L445.21,43.9308 L443.38,64.8509 L413.416,87.2245 Z M300.948,88.8284 L330.938,66.1559 L315.302,244.873 L287.509,242.442 L300.948,88.8284 Z M225.86,76.2361 L227.952,52.3274 L324.483,60.7728 L296.092,82.3806 L225.86,76.2361 Z M691.835,166.09 C697.98,95.8587 652.68,49.1328 597.69,44.3218 L564.517,41.4195 C505.343,36.2424 453.289,80.474 447.119,151.005 C440.974,221.236 486.274,267.962 541.264,272.773 L574.139,275.649 C630.025,280.539 685.351,240.207 691.835,166.09 Z M656.129,161.16 C660.522,110.951 637.517,70.9944 602.091,52.5366 C649.971,59.4359 689.309,102.026 683.766,165.384 C677.569,236.214 626.248,272.077 576.339,267.711 C525.234,263.24 485.246,221.195 490.894,156.641 C494.921,110.617 526.487,80.2528 560.856,83.2596 C569.822,84.044 577.981,87.167 585.411,91.732 C551.326,92.3637 522.27,118.129 518.505,161.165 C514.295,209.281 543.621,238.95 577.392,241.905 C616.841,245.356 651.763,211.069 656.129,161.16 Z M482.825,155.935 C478.275,207.937 502.879,246.829 537.136,264.883 C489.554,258.01 449.619,215.367 455.188,151.711 C460.757,88.0537 507.027,44.5208 563.512,49.4625 C613.72,53.8552 653.708,95.9003 648.06,160.454 C644.033,206.478 612.467,236.842 578.098,233.835 C569.132,233.051 560.648,230.201 553.244,225.337 C587.303,225.004 616.684,198.966 620.449,155.93 C624.659,107.814 595.333,78.145 561.263,75.1643 C522.113,71.7391 487.191,106.026 482.825,155.935 Z M612.354,155.523 C608.536,199.156 574.583,222.385 542.84,216.898 C531.308,204.144 524.535,185.182 526.6,161.572 C530.418,117.939 564.371,94.7096 595.789,100.47 C607.646,112.951 614.419,131.913 612.354,155.523 Z M749.695,291.009 L790.63,260.259 L793.219,230.672 L817.128,232.764 C864.945,236.948 902.616,212.538 907.557,156.054 C912.499,99.5694 876.352,68.7015 830.925,64.7272 L766.073,59.0534 L725.137,89.8026 L707.854,287.348 L749.695,291.009 Z M814.845,200.342 C848.616,203.296 868.949,184.296 871.694,152.916 C874.492,120.938 856.818,99.2152 821.254,96.1037 L739.965,88.9918 L768.954,67.4363 L829.921,72.7703 C875.347,76.7446 903.646,107.829 899.488,155.348 C895.305,203.165 862.961,228.643 817.834,224.695 L749.993,218.76 L744.423,282.416 L716.63,279.985 L732.684,96.4857 L819.95,104.121 C851.629,106.892 865.926,125.911 863.625,152.21 C861.194,180.004 843.942,194.757 814.953,192.22 L767.434,188.063 L796.423,166.507 L812.263,167.893 C826.608,169.148 834.838,161.135 835.858,149.48 C836.956,136.928 828.319,128.944 816.065,127.872 L758.386,122.826 L752.084,194.851 L814.845,200.342 Z M765.749,131.601 L793.543,134.033 L791.294,159.735 L761.304,182.407 L765.749,131.601 Z M752.937,278.042 L757.356,227.535 L785.15,229.966 L782.901,255.668 L752.937,278.042 Z M799.52,158.647 L801.612,134.739 L815.957,135.994 C824.325,136.726 828.715,141.627 828.087,148.8 C827.59,154.478 824.027,160.792 813.865,159.903 L799.52,158.647 Z M922.861,271.828 L957.835,309.219 L999.676,312.879 L1005.24,249.222 L1029.15,251.314 C1076.97,255.497 1114.64,231.088 1119.58,174.604 C1124.53,118.119 1088.38,87.2514 1042.95,83.2771 L940.144,74.2826 L922.861,271.828 Z M964.816,205.332 L959.247,268.988 L931.453,266.557 L947.507,83.0578 L1041.95,91.3201 C1087.37,95.2944 1115.67,126.379 1111.51,173.898 C1107.33,221.715 1074.99,247.193 1029.86,243.245 L1003.56,240.944 L978.754,214.682 L1026.87,218.892 C1060.64,221.846 1080.98,202.846 1083.72,171.466 C1086.52,139.488 1068.84,117.765 1033.28,114.654 L973.209,109.398 L966.908,181.423 L1024.29,186.443 C1038.63,187.698 1046.86,179.685 1047.88,168.029 C1048.98,155.477 1040.34,147.494 1028.09,146.422 L1011.95,145.01 L987.148,118.748 L1031.98,122.67 C1063.66,125.442 1077.95,144.46 1075.65,170.76 C1073.22,198.554 1055.97,213.306 1026.98,210.77 L964.816,205.332 Z M967.186,271.189 L971.735,219.187 L997.333,246.723 L992.757,299.023 L967.186,271.189 Z M980.128,123.254 L1005.73,150.79 L1003.48,176.491 L975.683,174.06 L980.128,123.254 Z M1027.98,154.544 C1036.35,155.276 1040.74,160.177 1040.11,167.35 C1039.62,173.028 1036.05,179.341 1025.59,178.426 L1011.55,177.197 L1013.64,153.289 L1027.98,154.544 Z M985.439,303.503 L962.128,301.463 L937.322,275.201 L960.932,277.267 L985.439,303.503 Z" id="Shape" fill="#FFFFFF"></path>
            <path d="M308.17,875.087 L272.897,837.67 L231.356,834.035 L228.558,866.013 L201.362,863.634 L212.344,738.113 L177.369,700.723 L135.529,697.062 L118.246,894.608 L153.22,931.998 L302.052,945.019 L308.17,875.087 Z M230.243,874.292 L254.75,900.527 L126.838,889.337 L142.892,705.838 L170.686,708.269 L156.724,867.86 L230.243,874.292 Z M268.987,909.904 L271.784,877.926 L299.578,880.358 L294.689,936.244 L157.214,924.217 L133.006,898.007 L268.987,909.904 Z M178.311,714.056 L203.934,741.293 L193.293,862.928 L165.499,860.496 L178.311,714.056 Z M236.47,868.512 L238.248,848.19 L263.898,875.128 L262.068,896.048 L236.47,868.512 Z M245.294,843.386 L268.904,845.451 L293.41,871.687 L270.099,869.648 L245.294,843.386 Z M395.112,781.207 L359.801,716.684 L316.168,712.866 L289.577,744.871 L351.099,857.461 L343.124,948.613 L384.964,952.273 L425.9,921.524 L431.652,855.775 L505.379,763.45 L485.023,727.639 L440.792,723.769 L395.112,781.207 Z M411.266,827.19 L460.3,765.83 L491.083,768.523 L423.792,852.678 L418.171,916.933 L388.207,939.307 L395.815,852.339 L324.428,721.72 L354.911,724.387 L411.266,827.19 Z M359.377,855.776 L299.115,746.006 L316.941,724.679 L387.563,853.725 L379.693,943.681 L351.899,941.25 L359.377,855.776 Z M399.266,788.798 L440.538,736.998 L454.118,760.772 L412.521,812.844 L399.266,788.798 Z M462.202,757.865 L447.856,732.518 L479.834,735.316 L494.18,760.663 L462.202,757.865 Z M508.56,767.944 L543.833,805.361 L581.19,808.629 L570.209,934.149 L605.183,971.54 L647.023,975.2 L660.986,815.61 L736.597,822.225 L739.917,784.27 L704.943,746.88 L511.881,729.989 L508.56,767.944 Z M578.801,928.878 L592.763,769.288 L550.624,765.601 L526.117,739.365 L700.651,754.635 L724.859,780.845 L620.557,771.719 L606.595,931.31 L578.801,928.878 Z M614.481,934.108 L627.502,785.276 L653.099,812.812 L640.104,961.345 L614.481,934.108 Z M731.325,789.541 L729.233,813.45 L659.002,807.306 L634.794,781.096 L731.325,789.541 Z M552.309,773.88 L583.988,776.651 L581.896,800.56 L550.217,797.788 L552.309,773.88 Z M516.995,764.466 L518.799,743.845 L544.423,771.082 L542.619,791.703 L516.995,764.466 Z M632.786,965.824 L609.475,963.785 L584.67,937.523 L608.28,939.588 L632.786,965.824 Z M985.861,771.457 L792.798,754.566 L751.862,785.315 L748.542,823.27 L824.153,829.885 L810.191,989.476 L852.031,993.136 L892.966,962.387 L903.948,836.867 L941.305,840.135 L982.54,809.412 L985.861,771.457 Z M899.383,796.114 L885.237,957.796 L855.273,980.17 L871.589,793.682 L767.287,784.557 L795.678,762.949 L970.212,778.219 L941.522,799.8 L899.383,796.114 Z M938.425,807.66 L936.333,831.569 L904.654,828.797 L906.746,804.889 L938.425,807.66 Z M944.873,826.895 L946.677,806.274 L976.667,783.602 L974.837,804.522 L944.873,826.895 Z M832.405,828.499 L862.395,805.827 L846.759,984.544 L818.966,982.113 L832.405,828.499 Z M757.317,815.907 L759.409,791.998 L855.94,800.444 L827.549,822.052 L757.317,815.907 Z" id="Shape" fill="#FFFFFF"></path>
            <path d="M453.437,590.27 C429.828,592.336 413.11,580.247 405.796,558.602 L385.133,580.586 C394.839,602.022 418.926,619.188 454.789,616.05 C492.744,612.73 517.031,587.417 514.024,553.048 C511.749,527.047 496.265,511.839 476.962,501.181 L437.11,479.371 C422.578,471.608 414.92,463.244 413.769,450.094 C413.299,444.715 413.829,440.452 415.309,436.709 C414.386,436.489 413.19,436.593 412.294,436.672 C396.753,438.031 385.557,447.744 386.891,462.986 C388.224,478.228 399.547,487.175 415.353,495.73 L455.478,517.214 C473.181,526.808 484.766,538.744 486.204,555.181 C487.93,574.906 473.461,588.518 453.437,590.27 Z M451.256,568.779 C451.727,574.158 450.923,578.745 449.444,582.489 L452.731,582.201 C468.272,580.841 479.468,571.129 478.135,555.887 C476.801,540.645 465.478,531.698 448.724,522.624 L409.222,501.386 C391.818,491.766 380.26,480.129 378.821,463.692 C377.096,443.967 391.564,430.354 411.588,428.602 C434.899,426.563 451.616,438.652 459.203,459.972 L479.892,438.286 C470.187,416.85 445.8,399.711 410.236,402.822 C378.258,405.62 347.733,428.467 351.001,465.825 C353.276,491.825 369.411,507.579 387.738,517.419 L428.864,540.021 C442.447,547.264 450.106,555.629 451.256,568.779 Z M514.922,432.511 C502.318,408.92 472.073,397.111 446.644,399.035 C465.932,406.08 479.466,419.652 487.427,434.917 L514.922,432.511 Z M350.104,586.361 C362.734,610.252 392.653,621.788 418.381,619.838 C398.821,613.117 385.26,599.246 377.598,583.956 L350.104,586.361 Z M354.777,577.822 L378.088,575.782 L396.815,555.774 L373.504,557.813 L354.777,577.822 Z M510.248,441.051 L486.937,443.09 L468.21,463.099 L491.521,461.059 L510.248,441.051 Z M572.409,393.753 L546.786,420.99 L563.023,606.581 L697.808,594.789 L695.716,570.88 L588.725,580.241 L583.836,524.354 L690.827,514.994 L688.735,491.085 L581.744,500.446 L572.409,393.753 Z M609.92,409.444 L716.911,400.083 L714.819,376.175 L580.034,387.967 L588.663,486.59 L614.286,459.353 L609.92,409.444 Z M595.682,491.095 L690.719,482.781 L714.927,456.571 L620.487,464.834 L595.682,491.095 Z M602.962,570.864 L697.7,562.576 L722.207,536.34 L627.469,544.629 L602.962,570.864 Z M620.787,440.716 L686.237,434.99 L710.743,408.754 L618.695,416.807 L620.787,440.716 Z M595.644,566.385 L621.241,538.849 L620.405,529.286 L592.611,531.718 L595.644,566.385 Z M724.049,481.672 L722.245,461.05 L696.621,488.287 L698.478,509.506 L724.049,481.672 Z M731.056,561.766 L729.226,540.846 L703.602,568.082 L705.433,589.003 L731.056,561.766 Z" id="Shape" fill="#FFC229"></path>
        </g>
    </g>
</svg>