<svg width="40" height="40" viewBox="0 0 40 40" xmlns="http://www.w3.org/2000/svg" xmlns:xlink="http://www.w3.org/1999/xlink"><defs><path id="a" d="M0 0h40v40H0z"/></defs><g fill="none" fill-rule="evenodd"><mask id="b" fill="#fff"><use xlink:href="#a"/></mask><g mask="url(#b)" fill-rule="nonzero"><path d="M9.166 34.34s2.707 5.738 13.93 4.278c3.05-.558 4.52-1.066 4.52-1.066s-.23-1.548-.703-2.564c-.472-1.015-3.051-5.09-3.051-5.09l-7.865-4.454c-.115-.05-4.418-.114-4.418-.114l-.613 5.686c-.013 0-.92 2.22-1.8 3.325z" fill="#585E92"/><path d="M29.428 17.727a14.8 14.8 0 01.243-2.487c.14-.724.421-1.41.728-2.082.076-.177.166-.177.268 0 .293.495.702.876 1.085 1.282.524.546 1.06 1.079 1.558 1.65.536.622.97 1.32 1.25 2.082.141.355.244.736.307 1.116.14.85-.076 1.625-.638 2.272-.575.66-1.29.978-2.183.838a5.763 5.763 0 01-2.018-.736c-.178-.114-.28-.254-.306-.457-.051-.38-.102-.774-.14-1.155l-.154-2.323zM24.398 16.243c-.013.088-.013.215-.038.317-.026.076-.09.14-.18.089-.089-.038-.165-.09-.255-.14-.766-.419-1.544-.825-2.31-1.244-.09-.05-.18-.089-.256-.127a.383.383 0 01-.217-.317c-.038-.368-.051-.736.077-1.091.127-.368.255-.737.421-1.08.09-.202.128-.443.358-.57.14.152.293.304.434.47.268.278.536.558.804.85.664.698 1.021 1.548 1.162 2.487a1.638 1.638 0 000 .356z" fill="#AF6852"/><path d="M19.687 16c-1.456.013-2.35.584-2.643 1.587-.269.901.217 2.17 1.021 2.678.37.228.753.203 1.149.127.715-.14 1.417-.038 2.107.127.587.14 1.123.38 1.57.8.32.304.6.215.894-.026.651-.533.868-1.51.485-2.399-.613-1.421-1.75-2.246-3.192-2.703-.485-.127-.996-.216-1.391-.19z" fill="#FFF"/><path d="M21.96 18.324c-.358-.077-.729-.077-1.073.05a1.87 1.87 0 00-.74.483c-.652.698-.358 1.751.548 2.018.754.228 1.43 0 1.992-.495.651-.572.51-1.523-.268-1.904a1.771 1.771 0 00-.46-.152z" fill="#131B43"/><path d="M10.009 25.608c-2.784-3.972-3.716-9.024-3.512-10.915.205-1.89 2.4-1.662 3.933-1.878 10.942.393 17.415 7.006 17.415 7.006s2.783 2.919 2.477 6.866c-.32 3.947-4.8 6.55-4.8 6.55-2.286-2.07-9.806-8.047-12.973-7.286-1.302.317.715 5.267.715 5.267l-.587.178s-2.975 2.716-3.856 1.675c-2.95-3.477 1.328-3.16 1.328-3.16s-.97-.457-1.902-3.008c-.945-2.551 1.008-1.485 1.762-1.295zm8.222-5.457c.345.216.715.19 1.072.127.664-.127 1.316-.026 1.967.127.549.127 1.06.355 1.468.761.294.292.562.216.83-.025.613-.508.817-1.422.46-2.26-.575-1.345-1.635-2.119-2.975-2.55-.46-.14-.92-.229-1.29-.203-1.366.012-2.196.545-2.477 1.497-.255.85.204 2.056.945 2.526z" fill="#AF6852"/><path d="M30.411 21.281c2.21.025 3.473-.99 3.818-3.046.076-.457.14-.927.115-1.396v-.127c.166.343.306.698.421 1.066.332 1.003.409 2.018.064 3.033-.524 1.536-1.596 2.17-3.294 1.727-.473-.127-.932-.343-1.405-.483-.344-.101-.446-.304-.498-.609-.012-.076-.025-.165-.038-.241.268.038.536.076.817.076z" fill="#6B3D34"/><path d="M13.456 26.484c-1.022-.114-1.341.254-1.341 1.37 0 .597.166.648.32 1.207.204.786.127 1.091.51 1.815.077.14.051.253-.102.317a8.68 8.68 0 00-1.826 1.117c-.128.101-.906 1.028-1.072.99-.613-.178-1.648-.8-2.21-1.13-.306-.178-.076-1.434.23-1.663.256-.19.881-.24 1.162-.393.422-.228.6 0 1.022-.216.166-.089-.102-.266-.23-.419a20.89 20.89 0 00-.74-.761c-.6-.61-.18-.597-.639-1.307-.345-.533-.396-.902-.549-1.523-.038-.153.294-.445.294-.61 0-.14.153-.24.28-.177.333.152.396-.026.728.14.243.114.473.24.715.355.051.025.154.355.205.304.025-.025.012-.101-.013-.152-.013-.05-.051-.089-.09-.127-.497-.482-1.276-1.675-1.608-2.272-1.022-1.827-1.558-3.858-1.864-5.94-.14-.99-.307-2.03-.166-3.033.025-.19.46-.419.638-.317.702.368 1.353.545 2.107.317.447 1.155 1.187 2.576 2.004 3.528 1.315 1.51 3.026 2.26 4.954 2.628 1.303.253 2.605.507 3.894.761.74.152 1.418.419 2.018.889.766.609.983 1.535.574 2.411-.255.546-.69.927-1.2 1.231-1.455.838-3.026 1.79-4.66 1.675h-.077c-.127-.05-.255-.114-.37-.165-.932-.431-1.89-.748-2.898-.85z" fill="#EDA898"/><path d="M21.27 29.39c-.128-.203.37-.076.587.051 1.851 1.079 7.393.127 8.26-2.488.013-.05.013-.05.052-.088.127-.127.268-.165.383-.102-.409 3.719-4.52 6.295-4.52 6.295a56.229 56.229 0 00-5.069-3.63c.102-.025.37.051.307-.038zM15.167 15.938a.346.346 0 00.408-.013l.026-.025c.115-.14.09-.305.013-.457-.102-.178-.217-.33-.434-.33a.288.288 0 00-.18.076c-.178.216-.076.571.167.749zM11.821 15.823a.346.346 0 00.409-.013l.026-.025c.115-.14.089-.305.012-.457-.102-.178-.217-.33-.434-.33a.287.287 0 00-.178.076c-.18.216-.09.571.165.749zM13.417 17.55a.346.346 0 00.409-.013l.025-.025c.115-.14.09-.305.013-.457-.102-.178-.217-.33-.434-.33a.287.287 0 00-.179.076c-.166.216-.076.57.166.749z" fill="#6B3D34"/><path d="M9.013 24.809c-.09-.152-.154-.267-.217-.38-1.328-1.98-2.171-4.164-2.618-6.5a9.409 9.409 0 01-.166-2.322c.026-.583.153-1.155.473-1.662.05-.076.076-.178.127-.267.396-.837 1.073-1.32 2.03-1.409a4.37 4.37 0 011.852.203c.255.09.523.14.804.153 2.911.14 5.707.8 8.427 1.827.127.051.255.102.383.14.09.025.166-.025.166-.114 0-.774.345-1.422.728-2.056.268-.432.523-.863.804-1.282.128-.19.294-.19.409.025.204.394.523.673.842.952.332.305.677.584.983.914.677.723 1.137 1.561 1.34 2.538.116.533.09 1.041-.19 1.523-.077.127-.052.216.063.292.179.127.345.254.51.38.959.75 1.865 1.537 2.657 2.45.038.039.089.064.14.102.013-.05.051-.101.051-.14-.013-.304-.038-.621-.051-.926-.013-.558 0-1.13 0-1.688 0-.19.013-.394 0-.584a8.11 8.11 0 01.28-2.475 5.346 5.346 0 011.048-1.992c.115-.14.243-.254.383-.356.243-.178.421-.14.613.076.025.026.05.064.076.09.32.57.818.976 1.29 1.42.498.458 1.009.914 1.494 1.397.664.66 1.2 1.434 1.609 2.272a6.74 6.74 0 01.625 2.17 3.257 3.257 0 01-.217 1.6c-.485 1.268-1.353 2.17-2.732 2.461-.754.165-1.469.051-2.183-.228-.128-.05-.256-.102-.384-.14-.012 0-.076.051-.076.064.025.114.05.228.09.33.306.85.42 1.726.408 2.627a6.8 6.8 0 01-.805 3.122c-.69 1.346-1.71 2.399-2.923 3.287-.217.165-.447.305-.664.47-.077.05-.077.127-.026.203.217.292.447.597.651.888.473.673.805 1.422.97 2.234.077.381.039.736-.076 1.092-.128.38-.383.622-.792.698-.753.14-1.493.279-2.234.431-.957.19-1.915.381-2.873.559a9.572 9.572 0 01-.638.101c-.064 0-.166-.05-.192-.101-.025-.051 0-.153.039-.203.14-.203.357-.292.562-.406a11.743 11.743 0 012.017-.762c.996-.28 1.992-.533 3.039-.596.204-.013.28-.102.255-.305a2.85 2.85 0 00-.077-.457c-.166-.71-.523-1.333-.944-1.916-1.111-1.562-2.426-2.945-3.971-4.087-2.247-1.663-4.724-2.856-7.457-3.503-.561-.14-1.149-.19-1.736-.28a1.135 1.135 0 00-.294 0c-.191.013-.28.09-.293.292-.013.115 0 .229 0 .343.012.406.127.8.242 1.193.217.724.51 1.422.907 2.082.09.152.191.215.383.177a8.826 8.826 0 011.162-.152c.88-.063 1.749.076 2.604.317 1.635.47 3.013 1.346 4.226 2.513.154.153.294.318.422.483.089.127.268.24.178.444-.127-.076-.268-.14-.395-.229a23.187 23.187 0 01-.907-.634c-1.48-1.079-3.128-1.739-4.928-2.03-1.162-.179-2.298-.026-3.396.367-1.264.444-2.324 1.18-3.205 2.17-.268.305-.51.635-.779.94-.153.177-.32.342-.485.495-.013.012-.077.012-.102 0-.026-.013-.051-.064-.051-.09.012-.088.025-.19.076-.278a8.85 8.85 0 01.422-.762c.166-.266.37-.508.549-.749.063-.076.038-.14-.051-.177-.154-.051-.294-.09-.447-.14a2.55 2.55 0 01-1.137-.8c-.702-.863-.498-1.929.46-2.475a2.308 2.308 0 011.11-.33c.09 0 .243 0 .269-.05.05-.127-.09-.19-.166-.28-.14-.165-.294-.317-.421-.482-.511-.672-.907-1.409-1.124-2.22-.102-.356-.166-.724-.102-1.092.09-.52.332-.75.855-.787.115-.013.243-.013.422-.013zm1.174 5.407c-.74 0-1.264.101-1.608.292-.652.368-.767 1.002-.269 1.56.383.432.894.673 1.456.813.14.038.268 0 .37-.101.192-.165.37-.343.575-.495a7.257 7.257 0 012.043-1.117c.191-.076.217-.127.089-.305-.523-.787-.817-1.675-.945-2.602a6.982 6.982 0 01-.038-1.155c.013-.38.217-.66.625-.736.269-.05.537-.101.805-.114.613-.038 1.213.05 1.8.165 1.29.254 2.515.685 3.716 1.218 1.813.8 3.51 1.777 5.017 3.072.613.533 1.188 1.13 1.775 1.688.166.165.217.177.409.063 1.302-.8 2.413-1.777 3.191-3.097.575-.977.881-2.03.881-3.16a8.018 8.018 0 00-.83-3.427c-.548-1.104-1.315-2.068-2.157-2.957-1.034-1.091-2.26-1.967-3.537-2.767-1.902-1.18-3.958-2.005-6.077-2.678-1.941-.622-3.92-1.015-5.925-1.358-.089-.012-.191-.038-.293-.025-.064.013-.153.063-.166.114-.166.66-.664.99-1.226 1.231-.28.127-.587.203-.894.254-.625.089-1.238.063-1.825-.241-.243-.127-.281-.102-.32.19a3.57 3.57 0 00-.038.52c0 .8.077 1.587.217 2.374.255 1.421.702 2.78 1.2 4.125.217.609.485 1.193.792 1.751.638 1.117 1.315 2.196 2.107 3.211.076.09.14.19.191.292.038.064-.013.165-.102.153-.179-.013-.358-.013-.524-.064-.727-.178-1.302-.584-1.762-1.18-.076-.09-.127-.19-.191-.292-.102-.127-.294-.102-.383.05-.09.166-.09.33-.051.508.076.406.191.8.396 1.155.293.483.587.965.906 1.422.256.368.562.685.843 1.04.128.166.357.33.23.546-.09.153-.332.038-.498.051-.026.013-.064.013.025.013zm19.241-12.49c.051.775.102 1.55.166 2.324.026.38.09.774.14 1.155a.583.583 0 00.307.456c.626.368 1.29.622 2.017.737.894.14 1.61-.178 2.184-.838.574-.647.779-1.422.638-2.272a6.9 6.9 0 00-.306-1.117 6.528 6.528 0 00-1.252-2.081c-.497-.571-1.034-1.105-1.557-1.65-.396-.406-.805-.8-1.085-1.282-.103-.178-.192-.178-.269 0-.293.672-.574 1.358-.727 2.081a13.59 13.59 0 00-.256 2.488zm-5.03-1.484c-.013-.14-.013-.254-.026-.368-.14-.94-.498-1.79-1.162-2.488-.268-.279-.536-.558-.804-.85-.14-.152-.294-.305-.434-.47-.217.127-.268.368-.358.571-.153.356-.28.724-.421 1.08-.128.355-.115.723-.077 1.09.013.153.09.255.218.318.089.05.178.089.255.127.766.406 1.545.825 2.31 1.244.09.05.167.101.256.14.09.037.153-.013.179-.09.051-.088.051-.215.064-.304z" fill="#131B43"/><path d="M19.252 22.195c.447.038.817.165 1.162.342.332.165.638.368.945.571.076.051.14.127.204.204.115.14.14.304.051.355-.115.089-.217.025-.319-.038-.217-.127-.447-.241-.664-.368-.204-.114-.383-.127-.6-.013-.51.254-1.072.343-1.647.355a8.716 8.716 0 01-3.996-.926c-.473-.229-.907-.52-1.354-.787-.127-.076-.242-.19-.357-.292-.128-.114-.179-.28-.102-.28a.64.64 0 01.268.064c1.902 1.054 3.958 1.473 6.116 1.523.178 0 .344-.012.523-.025.026 0 .077-.038.077-.063.012-.026-.013-.077-.039-.09-.153-.075-.319-.152-.472-.24a.278.278 0 01-.115-.127c-.013-.026.013-.09.026-.102.114-.038.23-.05.293-.063z" fill="#131B43"/></g></g></svg>
