<svg width="40" height="40" viewBox="0 0 40 40" xmlns="http://www.w3.org/2000/svg" xmlns:xlink="http://www.w3.org/1999/xlink"><defs><path id="a" d="M0 0h40v40H0z"/></defs><g fill="none" fill-rule="evenodd"><mask id="b" fill="#fff"><use xlink:href="#a"/></mask><g mask="url(#b)" fill-rule="nonzero"><path d="M16.8 38.68s1.758 1.077 3.455 0c-.036-2.035.65-2.885-1.348-3.029-1.999-.143-2.227.623-2.227.623l.12 2.405z" fill="#AF6852"/><path d="M24.253 38.512c-1.12.012-2.12-.084-3.118-.311l-.157-.036c-.108-.012-.18.036-.193.143-.012.144-.012.288-.036.431-.024.144-.06.288-.108.42-.036.07-.12.155-.193.167-.072 0-.168-.072-.216-.132a1.525 1.525 0 01-.17-.407 5.995 5.995 0 01-.252-1.735c0-.527-.012-.491-.481-.467-.627.048-1.253-.036-1.867-.18-.168-.035-.24.012-.253.192a108.45 108.45 0 01-.048 1.975c-.012.18-.048.359-.096.538a.399.399 0 01-.169.204c-.084.06-.192.06-.24-.024a.882.882 0 01-.169-.335c-.06-.264-.096-.539-.156-.814-.037-.204-.097-.24-.301-.228-.398.036-.807.084-1.204.132-.976.12-1.951.06-2.914-.06a11.361 11.361 0 01-2.938-.73c-1.445-.586-2.697-1.424-3.624-2.68a6.713 6.713 0 01-1.348-3.986c-.025-1.269.24-2.466.734-3.627a9.873 9.873 0 011.89-2.944c.277-.3.59-.55.891-.826.12-.12.145-.155.024-.263-.662-.634-.927-1.448-1.06-2.31-.156-1.101-.12-2.19.266-3.244.71-1.986 2.384-3.207 4.49-3.315 1.494-.072 2.926.228 4.323.718.879.311 1.734.706 2.577 1.113.878.42 1.757.838 2.66 1.21a13.34 13.34 0 002.962.86 7.298 7.298 0 001.975.06 2.56 2.56 0 001.228-.454c.686-.479.975-1.28.722-2.083-.18-.586-.542-1.04-1.023-1.4-.482-.359-1.023-.562-1.613-.658a5.849 5.849 0 00-1.65-.036c-.59.072-1.156.18-1.722.347-.373.108-.734.24-1.06.443-.06.036-.156.155-.228.036-.024-.048.036-.168.072-.24.217-.37.53-.658.891-.885a6.473 6.473 0 012.661-.994c3.287-.443 6.008.635 8.2 3.064.794.886 1.336 1.927 1.54 3.112a4.91 4.91 0 01-.18 2.537c-.084.252-.072.42.108.635 1.313 1.556 2.18 3.339 2.517 5.35.144.885.156 1.783-.06 2.669-.241.957-.735 1.747-1.542 2.334-.626.454-1.348.646-2.119.706-.108.012-.216 0-.325.012-.108.012-.168.06-.156.18 0 .167.012.322 0 .49-.06 1.197-.578 2.178-1.397 3.028-.843.874-1.878 1.46-3.046 1.807a9.687 9.687 0 01-3.3.49zm-.566-25.864c.325 0 .662-.012.987 0 .735.024 1.421.227 2.047.586.867.491 1.481 1.21 1.734 2.179.24.873.048 1.663-.542 2.357-.433.503-1 .79-1.637.958-.747.18-1.505.155-2.252.06a12.82 12.82 0 01-2.408-.575c-1.192-.395-2.324-.91-3.455-1.46-.964-.467-1.927-.91-2.938-1.245-1.385-.466-2.805-.766-4.274-.646-.976.072-1.818.443-2.505 1.125a4.485 4.485 0 00-1.095 1.76c-.386 1.1-.398 2.226-.157 3.35.096.455.277.874.518 1.257.096.156.24.276.361.407.132-.06.265-.107.397-.167.012-.012.036-.012.049-.024.12-.048.3-.024.3.036a.592.592 0 01-.096.239.737.737 0 01-.204.18c-.735.55-1.3 1.232-1.843 1.95-1.312 1.784-1.83 3.806-1.757 5.997a4.71 4.71 0 00.409 1.807 6.037 6.037 0 001.854 2.358c.987.778 2.095 1.28 3.311 1.556 1.746.395 3.504.395 5.262.18.108-.013.216-.037.325-.06.108-.013.168-.072.168-.18 0-.515-.012-1.03-.024-1.532 0-.06-.072-.132-.12-.156-.072-.048-.169-.06-.265-.084-.65-.131-1.276-.335-1.902-.562-1.554-.586-2.938-1.424-4.058-2.67-1.108-1.232-1.758-2.656-1.686-4.344.049-1.005.41-1.89 1.253-2.525.156-.12.252-.251.349-.419.192-.311.397-.622.614-.91.325-.442.71-.837 1.12-1.208.06-.06.072-.12.012-.192-.157-.18-.313-.359-.458-.55-.156-.204-.289-.431-.325-.683 0-.035.012-.083.036-.095a.208.208 0 01.145-.024c.204.155.409.31.602.479.879.777 1.842 1.46 2.877 2.034.578.311 1.168.623 1.746.934 1.65.885 3.287 1.795 4.828 2.872.94.658 1.818 1.365 2.625 2.178a10.181 10.181 0 011.794 2.49c.397.802.602 1.652.674 2.525.024.335-.036.659-.157.97-.024.06-.048.155-.144.12-.036-.013-.084-.072-.084-.12-.085-.443-.169-.898-.265-1.34a5.207 5.207 0 00-.205-.743c-.072-.227-.132-.24-.3-.096-.892.802-1.927 1.34-3.06 1.7-.312.096-.637.168-.962.251-.18.048-.217.084-.217.264l.036 1.7c0 .179.024.203.229.25.41.084.83.168 1.24.228 1.336.227 2.673.227 4.01-.036 1.059-.203 2.058-.563 2.973-1.137.963-.61 1.662-1.424 2.035-2.513.072-.228.06-.264-.169-.276a1.843 1.843 0 01-.842-.227 8.33 8.33 0 01-.988-.599c-.879-.622-1.589-1.412-2.227-2.262-.289-.395-.554-.813-.83-1.232-.025-.036.011-.096.023-.144.036.012.073 0 .097.024.12.084.228.18.337.275.698.659 1.469 1.221 2.3 1.7.65.383 1.348.67 2.082.838.614.143 1.228.203 1.854.083 1.072-.215 1.843-.79 2.288-1.783a5.07 5.07 0 00.434-1.975c.036-1.364-.301-2.645-.867-3.878-.012-.024-.049-.035-.109-.083v.347c-.048.826-.433 1.46-1.144 1.89a2.97 2.97 0 01-1.36.42 6.419 6.419 0 01-1.914-.168c-1.289-.3-2.457-.85-3.588-1.52-1.144-.67-2.168-1.52-3.179-2.37-.048-.048-.084-.107-.132-.167 0-.012.012-.024.012-.036a.092.092 0 01.048-.024c.048.012.108.024.156.048.88.526 1.855.802 2.842 1.005.879.18 1.77.287 2.685.156 1.011-.144 1.914-.503 2.697-1.161 1.156-.958 1.661-2.202 1.565-3.687-.06-.921-.361-1.747-.855-2.525a7.663 7.663 0 00-1.794-1.987c-2.035-1.58-4.346-2.226-6.947-1.723zm-5.141 21.639a10.759 10.759 0 003.106-.479 8.52 8.52 0 001.915-.838c.168-.095.216-.227.18-.418a5.12 5.12 0 00-.554-1.664c-.421-.754-.915-1.46-1.54-2.059-1.024-.981-2.12-1.867-3.36-2.573-.975-.55-1.962-1.09-2.938-1.64a80.051 80.051 0 01-2.191-1.28c-.361-.216-.686-.491-1.023-.742-.097-.072-.181-.048-.241.036-.193.239-.385.49-.578.742-.325.43-.674.837-.94 1.292-.168.276-.348.503-.59.694-.264.204-.445.491-.565.802a3.91 3.91 0 00-.18 2.167c.168.91.577 1.687 1.143 2.405.494.623 1.084 1.137 1.746 1.592 1.987 1.34 4.202 1.903 6.61 1.963zm8.645-10.042c-.253-.047-.542-.107-.831-.155-.048-.012-.108-.036-.157-.036-.036 0-.084.024-.12.024.024.024.036.072.072.084 1.156.754 2.36 1.412 3.709 1.77.505.133 1.01.157 1.529.133.12-.012.252-.036.373-.084.951-.311 1.312-1.317 1.144-2.119-.073-.359-.205-.694-.325-1.053-.037-.096-.133-.108-.217-.024-.036.036-.084.072-.12.108a5.485 5.485 0 01-2.288 1.28c-.903.24-1.818.216-2.77.072z" fill="#131B43"/><path d="M23.687 12.648c2.6-.503 4.912.144 6.971 1.747a7.86 7.86 0 011.794 1.987c.482.778.783 1.604.855 2.526.096 1.496-.41 2.728-1.565 3.686-.783.646-1.686 1.017-2.697 1.16-.915.132-1.806.025-2.685-.155-1-.203-1.963-.479-2.842-1.005a.602.602 0 00-.156-.048.091.091 0 00-.048.024c-.012.012-.024.036-.012.036.036.06.072.131.132.167 1.011.85 2.035 1.688 3.179 2.37 1.131.67 2.3 1.22 3.588 1.52a6.422 6.422 0 001.914.168c.482-.036.939-.168 1.36-.42.71-.43 1.096-1.064 1.144-1.89.012-.108 0-.216 0-.347.06.036.097.048.109.083.565 1.233.903 2.514.866 3.878a5.345 5.345 0 01-.433 1.975c-.445.993-1.216 1.58-2.288 1.783-.626.12-1.24.06-1.854-.083-.746-.168-1.433-.467-2.083-.838a12.266 12.266 0 01-2.3-1.7 6.748 6.748 0 00-.336-.275c-.025-.024-.073-.012-.097-.024-.012.048-.036.108-.024.144.265.419.53.838.83 1.232.639.862 1.35 1.64 2.228 2.263.313.227.65.418.988.598.265.144.541.203.842.227.23.012.241.048.169.276-.361 1.089-1.072 1.903-2.035 2.513-.915.575-1.914.934-2.974 1.137-1.336.263-2.673.251-4.009.036-.421-.072-.83-.144-1.24-.227-.205-.048-.229-.072-.229-.252l-.036-1.7c0-.179.036-.215.217-.263.325-.083.65-.155.963-.251 1.144-.347 2.18-.886 3.058-1.7.157-.143.229-.131.301.096.072.24.145.49.205.742.096.443.168.898.265 1.34.012.049.048.108.084.12.096.036.12-.06.144-.12.12-.31.181-.634.157-.969-.072-.885-.265-1.735-.674-2.525a9.584 9.584 0 00-1.794-2.49c-.795-.813-1.686-1.52-2.625-2.178-1.541-1.077-3.179-1.987-4.828-2.872-.578-.311-1.168-.61-1.746-.934a15.436 15.436 0 01-2.877-2.034c-.193-.168-.398-.324-.602-.48-.025-.023-.097 0-.145.025-.024.012-.036.06-.036.096.036.263.169.478.325.682.145.191.301.359.458.55.06.072.048.132-.012.192-.41.37-.795.766-1.12 1.209-.217.299-.422.598-.614.91-.097.155-.193.298-.35.418-.842.634-1.203 1.52-1.252 2.525-.084 1.688.566 3.112 1.686 4.345 1.12 1.245 2.504 2.083 4.058 2.669.626.227 1.252.43 1.902.563.084.012.18.035.265.083.06.036.12.108.12.156.012.515.024 1.03.024 1.532 0 .108-.072.155-.168.18-.109.023-.217.047-.325.06-1.77.215-3.528.215-5.262-.18a8.265 8.265 0 01-3.311-1.556 6.15 6.15 0 01-1.854-2.358 4.942 4.942 0 01-.41-1.807c-.072-2.19.434-4.201 1.758-5.996.53-.73 1.108-1.413 1.842-1.951.073-.06.157-.108.205-.18a.591.591 0 00.096-.24c0-.071-.168-.083-.3-.035-.013.012-.037.012-.049.024-.132.06-.265.108-.397.167-.12-.131-.265-.251-.361-.407a3.61 3.61 0 01-.518-1.256c-.253-1.137-.229-2.25.157-3.351.228-.67.59-1.257 1.095-1.76a3.9 3.9 0 012.505-1.125c1.48-.12 2.89.18 4.274.646 1.011.348 1.986.79 2.938 1.245 1.131.539 2.263 1.065 3.455 1.46.783.264 1.59.467 2.408.575.747.096 1.505.12 2.252-.06.638-.156 1.204-.443 1.637-.958.59-.694.783-1.484.542-2.357-.265-.97-.867-1.676-1.734-2.179a4.358 4.358 0 00-2.047-.586c-.349-.036-.674-.024-1.011-.024zm-11.354 4.608c.963.012 1.927.24 2.878.527.722.227 1.432.442 2.155.658.12.036.253.06.373.084.048 0 .133-.048.133-.072-.013-.132.012-.204.168-.132l.614.251c.566.204 1.132.42 1.71.61.132.049.289.06.433.073.085.012.205.012.217-.108.012-.06-.036-.144-.084-.18a3.83 3.83 0 00-.446-.323c-.951-.622-1.926-1.209-2.95-1.7-.842-.406-1.697-.801-2.6-1.04-1.024-.276-2.06-.372-3.107-.168a4.125 4.125 0 00-1.48.562c-.518.336-.771.814-.82 1.413-.011.12-.035.263.11.335.12.06.204-.024.3-.084.253-.156.482-.323.747-.455.505-.24 1.06-.275 1.65-.251zm2.974 2.633c-.012 0-.12.012-.229.024-.024 0-.06.036-.06.072s.012.084.036.095c.12.084.24.156.373.228.82.467 1.59.993 2.324 1.568 1.168.897 2.348 1.771 3.528 2.645.373.275.758.514 1.144.754.132.084.3.131.457.191.024.012.084-.012.097-.024.024-.048.048-.107.036-.143a1.814 1.814 0 00-.217-.311c-.157-.18-.325-.348-.482-.527-.012-.024-.012-.06-.024-.084.036 0 .072-.024.097-.012.3.216.59.431.89.635.771.538 1.518 1.089 2.3 1.603.41.276.867.479 1.313.694.144.072.313.072.481.096.024 0 .072-.024.084-.048.012-.024 0-.083-.024-.095a2.101 2.101 0 00-.168-.144c-.337-.263-.674-.515-1-.778-1.035-.85-2.058-1.711-3.106-2.55a16.85 16.85 0 00-3.287-2.106c-.433-.215-.867-.407-1.336-.514a2.253 2.253 0 01-.662-.264c-.494-.251-.976-.502-1.47-.742-.3-.167-.637-.263-1.095-.263zm15.122-2.035c0-.024-.024-.143-.048-.275-.012-.06-.156-.084-.18-.024a1.8 1.8 0 00-.181.335c-.77 1.7-2.12 2.55-3.961 2.693a5.784 5.784 0 01-1.698-.084c-.036-.012-.072-.012-.108-.012a.244.244 0 00-.097.048c-.012.024-.012.084.012.096.085.072.157.144.253.203.723.407 1.481.707 2.324.778 1.264.096 2.3-.323 3.155-1.244.12-.132.204-.3.289-.467.048-.12.06-.251-.109-.311-.084-.036-.084-.108-.036-.18.24-.443.385-.933.385-1.556z" fill="#7FD3D3"/><path d="M18.546 34.287c-2.42-.06-4.636-.623-6.61-1.963a7.604 7.604 0 01-1.746-1.592c-.566-.718-.975-1.496-1.144-2.405a4.143 4.143 0 01.18-2.167c.121-.311.29-.598.567-.802a2.19 2.19 0 00.59-.694c.265-.455.614-.862.939-1.292.193-.252.373-.491.578-.742.06-.084.144-.096.24-.036.338.25.675.514 1.024.742.722.442 1.457.861 2.191 1.28.976.55 1.963 1.09 2.938 1.64 1.24.706 2.336 1.592 3.36 2.573a8.314 8.314 0 011.54 2.059c.29.514.458 1.077.554 1.663.036.18-.012.312-.18.42a8.524 8.524 0 01-1.915.837c-1.023.323-2.07.467-3.106.479zm-2.89-3.136c.927.012 1.758-.18 2.577-.479.47-.167.939-.37 1.264-.754.277-.335.626-.466 1.023-.538.157-.036.326-.072.482-.132.133-.048.265-.132.385-.203.024-.012.049-.084.036-.084-.036-.036-.084-.072-.12-.072-.313.024-.626.036-.927.072a11.786 11.786 0 01-3.78-.108c-.59-.12-1.193-.227-1.795-.311-.47-.072-.95-.096-1.42.024-.301.072-.542.227-.687.503a.606.606 0 00-.048.263c0 .024.06.072.109.084.024.012.06-.036.096-.048.06-.024.12-.036.18-.048 0 .048.013.108 0 .156-.12.43.073.742.362 1.029.277.275.638.43 1.011.526.422.084.855.132 1.252.12z" fill="#AF6852"/><path d="M12.333 17.256c-.59-.024-1.143 0-1.65.251-.264.132-.505.3-.746.455-.096.06-.18.144-.3.084-.145-.072-.121-.216-.109-.335.048-.599.301-1.077.819-1.413a4.126 4.126 0 011.48-.562c1.048-.204 2.084-.096 3.107.168.915.239 1.758.634 2.6 1.04a27.669 27.669 0 012.95 1.7c.157.096.301.216.446.323.048.036.096.12.084.18-.012.12-.132.108-.217.108a2.723 2.723 0 01-.433-.072c-.578-.192-1.144-.407-1.71-.61a6.625 6.625 0 01-.614-.252c-.156-.072-.18 0-.168.132 0 .024-.085.072-.133.072a1.883 1.883 0 01-.373-.084c-.722-.216-1.445-.431-2.155-.658-.951-.288-1.914-.515-2.878-.527zM15.307 19.889c.458 0 .795.095 1.108.239.493.24.987.49 1.469.742.216.108.421.204.662.263.47.096.903.3 1.336.515 1.18.575 2.264 1.293 3.287 2.107 1.048.837 2.071 1.699 3.107 2.549.325.263.662.515.999.778.06.048.12.096.169.143.024.024.024.072.024.096-.012.024-.06.06-.085.048-.156-.024-.337-.036-.481-.096-.446-.215-.903-.419-1.313-.694-.782-.515-1.54-1.065-2.3-1.604-.3-.215-.59-.43-.89-.634-.024-.012-.06.012-.097.012 0 .036 0 .072.025.084.156.18.325.347.481.526.084.096.157.204.217.312.024.035-.012.107-.036.143-.012.024-.073.036-.097.024-.156-.06-.313-.108-.457-.191-.385-.24-.783-.491-1.144-.754-1.18-.874-2.36-1.748-3.528-2.645a21.328 21.328 0 00-2.323-1.568c-.133-.072-.253-.156-.374-.228-.024-.012-.036-.06-.036-.095 0-.024.036-.06.06-.072.097.012.205 0 .217 0zM30.43 17.854c0 .623-.145 1.114-.398 1.568-.036.072-.048.144.036.18.169.06.157.191.109.311a1.689 1.689 0 01-.29.467c-.842.921-1.89 1.34-3.154 1.245-.843-.06-1.601-.36-2.324-.778a1.045 1.045 0 01-.252-.204c-.025-.024-.025-.072-.013-.096.013-.024.06-.048.097-.048.036-.011.072 0 .108.012.566.12 1.132.132 1.698.084 1.83-.155 3.19-1.005 3.96-2.693.05-.12.121-.227.182-.335.036-.048.168-.036.18.024.036.12.06.24.06.263z" fill="#FFF"/><path d="M15.657 31.151a4.692 4.692 0 01-1.265-.131c-.373-.096-.734-.24-1.011-.527-.289-.287-.47-.61-.361-1.03.012-.047 0-.107 0-.155-.06.012-.12.036-.18.048-.037.012-.073.048-.097.048-.036-.012-.109-.048-.109-.084a.64.64 0 01.049-.263c.156-.276.385-.431.686-.503.47-.12.951-.096 1.42-.024.603.084 1.193.192 1.795.311 1.252.24 2.516.276 3.78.108.313-.036.626-.06.927-.072.036 0 .085.036.12.072.013.012-.011.072-.035.084-.133.072-.253.143-.386.203a2.21 2.21 0 01-.481.132c-.398.072-.747.203-1.024.538-.325.383-.794.587-1.264.755-.807.31-1.65.49-2.564.49zm-.23-.502c.47-.036.82-.048 1.157-.096.806-.108 1.565-.347 2.251-.814.024-.024.048-.048.072-.084-.036-.012-.084-.048-.12-.048-.807.024-1.613-.072-2.408-.227-.554-.096-1.12-.204-1.674-.287-.289-.048-.578-.048-.879-.06a.323.323 0 00-.276.143c-.193.3-.17.647.072.898.168.18.385.287.614.335.445.12.879.18 1.192.24z" fill="#131B43"/><path d="M15.428 30.649c-.313-.06-.747-.12-1.18-.216a1.243 1.243 0 01-.614-.335.689.689 0 01-.073-.898c.073-.095.169-.155.277-.143.29.012.59.012.88.06.565.083 1.119.191 1.673.287.794.143 1.589.24 2.408.227.036 0 .084.036.12.048-.024.024-.036.06-.072.084-.686.467-1.445.706-2.252.814-.349.024-.698.036-1.167.072z" fill="#FFF"/><path d="M11.514 28.027c-.216-.035-.349.132-.505.216-.169.084-.325.108-.47-.024-.168-.156-.144-.347-.048-.515.157-.275.397-.466.71-.502.217-.024.446.012.675-.012.277-.036.409.203.277.454a.679.679 0 01-.639.383z" fill="#EDA898"/><path d="M12.622 26.77c1.024 0 1.95.216 2.613.551.229-.167.434-.383.59-.67.169-.311.12-.622-.096-.91-.458-.61-1.89-1.113-2.77-.897-.072.024-.288.084-.457.18-.65.358-.927 1.184-.626 1.783a7.41 7.41 0 01.746-.036z" fill="#FFF"/><path d="M15.343 26.603c-.096-.802-1.071-1.269-1.71-.97-.337.156-.517.503-.397.862.036.108.084.228.157.324.602.06 1.143.203 1.589.383.06-.036.12-.072.169-.12a.508.508 0 00.192-.479zM14.248 25.167c-.41-.192-.795-.443-1.18-.682a.827.827 0 01-.229-.228c-.024-.036-.024-.096-.012-.143 0-.024.072-.036.096-.036.157.048.313.083.458.155.433.192.855.407 1.288.599.265.12.542.227.807.347.06.024.108.096.132.155.024.048-.108.144-.204.132h-.06c.011.012-.747-.144-1.096-.3z" fill="#131B43"/><path d="M17.57 28.087s-1.444.096-1.504-.12c-.073-.335 1.204-1.663 1.818-1.663.614 0 1.878 1.149 1.89 1.292.024.132-2.203.491-2.203.491z" fill="#8E5140"/><path d="M17.475 28.195a24.397 24.397 0 01-.94-.048c-.132-.012-.252-.048-.373-.083-.12-.036-.132-.168-.036-.252.036-.036.084-.072.132-.108.458-.299.928-.586 1.385-.897.193-.12.373-.132.566-.036.494.251.987.49 1.48.73.157.084.157.251 0 .347-.071.048-.168.072-.252.096-.638.18-1.288.287-1.962.251z" fill="#131B43"/></g></g></svg>
