<svg width="40" height="40" viewBox="0 0 40 40" xmlns="http://www.w3.org/2000/svg" xmlns:xlink="http://www.w3.org/1999/xlink"><defs><path id="a" d="M0 0h40v40H0z"/></defs><g fill="none" fill-rule="evenodd"><mask id="b" fill="#fff"><use xlink:href="#a"/></mask><g mask="url(#b)" fill-rule="nonzero"><path d="M17.314 36.46s1.843 2.217 4.471 1.319c.434-2.088.47-5.05.4-5.11-.071-.058-4.061-1.877-4.085-1.667-.011.21-.786 5.459-.786 5.459z" fill="#EDA898"/><path d="M17.878 35.236a45.24 45.24 0 01-.153 1.435 26.37 26.37 0 01-.211 1.341c-.024.105-.082.21-.141.304-.059.081-.223.058-.27-.024a.873.873 0 01-.14-.56c.011-.501.011-1.003.034-1.504.07-1.272.212-2.543.352-3.815a37.418 37.418 0 01.787-4.386c.094-.326.234-.42.61-.361.458.07.857.245 1.22.501.481.339.892.735 1.28 1.155.187.198.375.408.563.607.281.303.575.595.95.816.141.082.2.187.2.327 0 .198.011.385-.012.583-.047.665-.106 1.318-.164 1.983l-.141 1.447c-.059.56-.082 1.131-.153 1.691-.058.467-.164.921-.234 1.388-.047.327-.13.63-.235.933-.024.059-.035.129-.07.175-.047.059-.13.094-.188.14-.047-.058-.13-.116-.153-.186-.035-.105-.035-.222-.047-.339-.058-.7 0-1.388.047-2.088l.141-2.123c0-.07.012-.128.012-.198 0-.128-.059-.187-.188-.187-.669-.023-1.256-.28-1.807-.606a8.514 8.514 0 01-.786-.537c-.223-.175-.423-.373-.622-.548-.036-.035-.094-.058-.13-.082-.023.047-.046.082-.058.129-.07.735-.14 1.481-.211 2.216-.036.117-.059.268-.082.373z" fill="#131B43"/><path d="M5.627 23.817c-.07.046 2.206 3.79 11.288 3.289 2.993-.548 1.901-9.67 1.901-9.67s1.714-5.564 2.03-5.844c.317-.28 4.6-1.715 4.6-1.715l-.704-1.307-7.486-.7s-4.812 6.556-4.894 6.591c-.082.024-3.485 7.267-6.735 9.355z" fill="#FFC229"/><path d="M26.056 14.648c.012-.024.06-.035.083-.047.011 0 .035.012.046.012h.2c-.024-.047-.047-.093-.082-.14-.235-.292-.47-2.17-.035-2.065.293.07.516.257.715.455.294.28.493.618.54 1.015.047.35.024.688-.352.875-.023.011-.047.058-.035.082.012.023.047.046.082.058.822.245 1.655.49 2.476.723.047.012.141.012.141 0 .012-.058.023-.14 0-.187-.704-1.353-1.56-2.6-2.687-3.65a8.303 8.303 0 00-1.444-1.109c-.457-.268-.927-.466-1.466-.502-.141-.011-.352.024-.376-.14a.185.185 0 01.047-.163h-.657c-.035.035-.059.07-.094.094-.012.011-.035.011-.047.011-.505.024-.939.233-1.35.478a5.78 5.78 0 00-1.96 1.948 8.874 8.874 0 00-1.043 2.45c-.188.723-.282 1.47-.376 2.216-.023.175-.047.35.07.514.423.641.81 1.306 1.35 1.866.27.292.563.548.903.747.716.42 1.456.455 2.218.163.141-.058.165-.093.118-.245a3.71 3.71 0 01-.165-.945c-.023-1.4.47-2.613 1.303-3.71a3.95 3.95 0 01.47-.513c.175-.151.375-.268.574-.396.047-.023.106-.058.153-.047.047 0 .094.035.129.07.012.012.012.023.012.047.129-.012.305 0 .504.058.024 0 .035-.011.035-.023z" fill="#EDA898"/><path d="M8.584 21.122s.223.128.938-.863c3.861-5.32 7.393-10.872 13.6-10.289-1.208.863 2.324-.373 4.941 3.196.915 1.26-.153-1.05-.153-1.05s-5.14-3.93-5.292-3.954c-.152-.023-6.383.91-6.56.945-.176.035-2.828 2.543-2.828 2.636 0 .093-.868 2.695-.868 2.695l-3.778 6.684z" fill="#FFF"/><path d="M25.587 24.05c-1.537-.059-2.816-.63-3.92-1.622-.152-.14-.14-.14.083-.256a.318.318 0 00.117-.094c.012-.011.012-.07-.012-.081-.058-.035-.117-.082-.187-.094-.34-.035-.68-.07-1.021-.093-.07 0-.141.023-.2.058a.214.214 0 00-.082.117c-.012.023.024.07.047.093.024.024.059.035.094.059.094.07.282.023.305.163.024.117-.035.245-.07.361-.247.969-.305 1.937-.106 2.917.117.548.305 1.061.622 1.528.74 1.073 1.948 1.4 3.121.851.364-.163.693-.385.974-.653.622-.583 1.127-1.248 1.444-2.03l.105-.245c.13-.408.34-.711.751-.921.493-.257.81-.7.998-1.213.07-.187.176-.245.364-.233.61.058 1.22.046 1.83 0 .67-.059 1.314-.164 1.925-.455.2-.094.223-.082.27.163.082.443.093.886.046 1.33-.058.501-.093 1.003.036 1.493.082.303.187.618.305.91.281.665.422 1.353.352 2.088-.035.385-.13.735-.329 1.061-.164.28-.328.548-.516.817-.376.525-.68 1.085-.868 1.703-.165.513-.482.91-.904 1.225a2.226 2.226 0 01-1.02.443c-.494.082-.998.163-1.491 0a4.103 4.103 0 01-.74-.303 2.636 2.636 0 00-1.396-.339c-.61.012-1.22.012-1.83-.011-.892-.035-1.679-.315-2.3-.992-.083-.093-.177-.175-.259-.268a2.591 2.591 0 00-1.267-.758c-.54-.152-1.08-.269-1.608-.432a11.76 11.76 0 01-1.009-.373c-.14-.059-.164-.129-.105-.245.48-.957.668-1.983.692-3.056.035-1.144-.059-2.275-.176-3.418-.14-1.4-.317-2.8-.305-4.211 0-.164.023-.315.035-.479 0-.011.012-.035.035-.035.012 0 .035 0 .047.012.035.058.082.117.118.175.21.327.387.688.633.992.599.77 1.385 1.283 2.359 1.481.493.093.962.047 1.431-.093.106-.035.212-.07.306-.117a.27.27 0 01.293.035c1.256.887 2.699 1.307 4.2 1.517.153.023.376-.024.447.128.082.175-.106.315-.211.443a2.589 2.589 0 01-1.655.91c-.293.023-.563.023-.798.047z" fill="#FFC229"/><path d="M11.635 6.214a3.33 3.33 0 01-.212-1.89 2.675 2.675 0 011.186-1.772 3.686 3.686 0 011.067-.49c.787-.222 1.596-.234 2.394-.094 1.584.292 2.946.992 4.049 2.17.457.49.821 1.038 1.08 1.656.034.082.07.164.081.257.012.082-.035.14-.117.14H21c-2.065-.152-4.025.268-5.88 1.178a9.372 9.372 0 00-2.135 1.435c-.117.105-.176.093-.246-.047-.435-.77-.575-1.598-.587-2.473 0-.163-.012-.315-.024-.478 0-.035-.07-.093-.105-.093-.047-.012-.117.023-.14.058-.071.117-.153.268-.247.443z" fill="#585E92"/><path d="M20.612 6.867c.762-.023 1.502.058 2.217.338 1.033.409 1.854 1.074 2.383 2.053a.573.573 0 01.07.199c0 .011-.047.058-.059.058a1.437 1.437 0 01-.2-.082 6.443 6.443 0 00-3.484-.688c-2.617.198-4.882 1.225-6.842 2.928-.563.49-1.08 1.05-1.607 1.575-.106.105-.188.21-.294.315-.105.116-.176.116-.258 0a2.229 2.229 0 01-.41-1.038 2.582 2.582 0 01.27-1.505c.316-.618.75-1.132 1.255-1.587A8.555 8.555 0 0115.79 8c1.525-.724 3.121-1.12 4.823-1.132z" fill="#585E92"/><path d="M23.134 27.467c-.363 0-.75-.163-1.067-.49a2.89 2.89 0 01-.67-1.143c-.258-.805-.304-1.645-.246-2.484 0-.024 0-.035.012-.059.012-.093.082-.116.153-.058.375.327.774.63 1.208.875.904.525 1.89.746 2.922.805.247.011.493-.047.74-.07.082-.012.14.058.105.128-.458.77-.962 1.505-1.725 2.018-.399.28-.845.478-1.432.478z" fill="#FFF"/><path d="M32.37 15.815c-.012.116 0 .198-.024.268-.094.513-.176.478-.551.327-.27-.105-.529-.222-.798-.304-.247-.081-.376-.21-.47-.455-.692-1.784-1.795-3.266-3.203-4.549a3.574 3.574 0 01-.294-.303c.176-.105.305.046.446.105a11.965 11.965 0 012.946 1.831c.469.397.88.84 1.232 1.33.293.408.528.851.645 1.341.035.14.047.292.07.409z" fill="#FFC229"/><path d="M26.197 14.333c.07.07.329-.082.176.233a.254.254 0 00-.058-.093c-.036-.047-.083-.093-.118-.14zM26.174 11.3c-.47.128-.634.665-.563 1.341.117-.21.363-.291.668-.221.294.07.517.256.716.455.294.28.493.618.54 1.015.047.35.023.688-.352.874-.024.012-.047.059-.035.082.011.023.047.047.082.058.458.14.927.269 1.385.409.41-.21.633-.502.563-1.05a12.705 12.705 0 00-2.007-2.485c-.164-.151-.328-.303-.504-.443-.2-.058-.352-.07-.493-.035z" fill="#FFC229" opacity=".8"/><path d="M33.226 20.504c.305-.152.61-.292.916-.455a2.09 2.09 0 00.727-.63c.188-.268.247-.537.13-.852-.118-.326-.306-.618-.588-.805a24.969 24.969 0 00-1.185-.735c-.152-.093-.328-.151-.48-.233-.153-.081-.189-.128-.118-.303.27-.7.164-1.365-.13-2.018-.199-.455-.469-.887-.786-1.272-1.196-1.458-2.698-2.484-4.47-3.137a8.402 8.402 0 00-.716-.222c-.188-.047-.317-.152-.352-.35a2.021 2.021 0 00-.34-.84c-.587-.84-1.315-1.505-2.289-1.866-.317-.117-.633-.245-.962-.327-.223-.058-.34-.175-.375-.396 0-.035-.012-.07-.024-.105a3.904 3.904 0 00-.493-1.237C20.166 2.33 17.948 1.198 15.425 1c-1.29.012-2.277.222-3.168.793-2.042 1.295-2.148 3.896-.857 5.471a.725.725 0 01.188.42c.058.595.211 1.155.551 1.656.106.164.082.292-.023.432a4.926 4.926 0 00-.657 1.283c-.376 1.12-.282 2.181.41 3.161.165.245.165.245-.035.502-.892 1.143-1.654 2.38-2.382 3.628a40.015 40.015 0 01-.915 1.516 16.549 16.549 0 01-1.385 1.971c-.34.42-.704.805-1.138 1.132-.211.163-.434.303-.657.455-.247.175-.282.268-.106.525.164.233.34.466.54.665.974 1.014 2.16 1.691 3.473 2.181 1.256.467 2.57.665 3.896.747.657.034 1.326.104 1.983.034.106-.011.176.035.2.14.281 1.389 1.173 2.287 2.37 2.952.41.233.845.373 1.303.501.48.129.962.269 1.455.397.375.105.692.291.962.571.176.175.364.35.54.525.422.409.915.677 1.478.852.481.152.974.222 1.479.222.587 0 1.185.011 1.772 0a1.88 1.88 0 011.032.245c.575.338 1.197.455 1.866.396.575-.046 1.15-.116 1.655-.396.81-.444 1.431-1.074 1.701-1.983.176-.607.481-1.155.857-1.657.188-.256.364-.525.516-.816.423-.782.528-1.61.364-2.485a6.045 6.045 0 00-.47-1.412 3.094 3.094 0 01-.304-1.55c.011-.21.035-.433.035-.643.023-.664-.047-1.318-.34-1.924-.13-.269-.294-.525-.446-.793-.059-.082-.047-.164.058-.21zm-5.761-9.624a11.966 11.966 0 012.945 1.831c.47.397.88.84 1.232 1.33.293.409.528.852.645 1.342.036.151.06.315.07.42-.01.116 0 .198-.023.268-.093.513-.176.478-.551.327-.27-.105-.528-.222-.798-.304-.246-.081-.376-.21-.47-.455-.692-1.784-1.795-3.266-3.203-4.549-.106-.093-.2-.198-.293-.303.176-.105.316.035.446.093zM12.163 6.284c0-.163-.012-.315-.024-.478 0-.035-.07-.093-.105-.093-.047-.012-.118.023-.141.058-.082.128-.164.28-.258.455a3.33 3.33 0 01-.212-1.89 2.675 2.675 0 011.186-1.773 3.687 3.687 0 011.067-.49c.787-.221 1.596-.233 2.394-.093 1.584.291 2.946.991 4.049 2.17.457.49.821 1.038 1.08 1.656.035.082.07.163.081.257.012.081-.035.14-.117.14H21c-2.065-.152-4.025.268-5.88 1.178a9.37 9.37 0 00-2.135 1.434c-.117.105-.176.094-.246-.046-.423-.782-.575-1.622-.575-2.485zm.234 4.748c.317-.618.751-1.132 1.256-1.587a8.555 8.555 0 012.136-1.434c1.525-.735 3.121-1.132 4.823-1.144.762-.023 1.502.059 2.217.339 1.033.408 1.854 1.073 2.383 2.053a.571.571 0 01.07.198c0 .012-.047.058-.059.058a1.436 1.436 0 01-.2-.081 6.442 6.442 0 00-3.484-.689c-2.617.199-4.882 1.225-6.842 2.928-.563.49-1.08 1.05-1.607 1.575-.106.105-.188.21-.294.315-.105.117-.176.117-.258 0a2.229 2.229 0 01-.41-1.038 2.657 2.657 0 01.27-1.493zm21.017 15.047c.282.665.422 1.354.352 2.088-.035.385-.129.735-.329 1.062-.164.28-.328.548-.516.817-.375.524-.68 1.084-.868 1.703-.164.513-.481.91-.904 1.224a2.225 2.225 0 01-1.02.444c-.494.081-.998.163-1.49 0a4.093 4.093 0 01-.74-.304 2.636 2.636 0 00-1.397-.338c-.61.012-1.22.012-1.83-.012-.892-.035-1.678-.315-2.3-.991-.082-.093-.176-.175-.258-.268a2.591 2.591 0 00-1.268-.759c-.54-.151-1.08-.268-1.607-.431-.34-.105-.67-.234-1.01-.374-.14-.058-.164-.128-.105-.244.481-.957.669-1.984.692-3.057.035-1.143-.058-2.274-.176-3.417-.14-1.4-.317-2.8-.305-4.212 0-.163.024-.314.035-.478 0-.011.012-.035.036-.035.011 0 .035 0 .046.012.036.058.083.117.118.175.211.326.387.688.633.991.599.77 1.385 1.284 2.36 1.482.492.093.961.046 1.43-.093.106-.035.212-.07.306-.117a.27.27 0 01.293.035c1.256.886 2.7 1.306 4.201 1.516.153.024.376-.023.446.129.082.175-.106.315-.211.443a2.589 2.589 0 01-1.655.91c-.27.035-.54.035-.762.046-1.538-.058-2.817-.63-3.92-1.621-.152-.14-.14-.14.082-.257a.32.32 0 00.118-.093c.011-.012.011-.07-.012-.082-.059-.035-.13-.081-.188-.093-.34-.035-.68-.07-1.02-.093-.071 0-.142.023-.2.058a.214.214 0 00-.082.117c-.012.023.023.07.047.093.023.023.058.035.093.058.094.07.282.024.306.164.023.116-.036.245-.07.361-.247.968-.306 1.937-.106 2.916.117.549.305 1.062.621 1.529.74 1.073 1.948 1.4 3.122.851.364-.163.692-.385.974-.653.622-.583 1.126-1.248 1.443-2.03l.106-.245c.129-.408.34-.711.75-.921.494-.257.81-.7.998-1.213.07-.187.176-.245.364-.234.61.059 1.22.047 1.83 0 .67-.058 1.315-.163 1.925-.455.2-.093.223-.081.27.164.082.443.094.886.047 1.33-.059.501-.094 1.003.035 1.493.047.303.153.606.27.91zm-7.123-1.096c-.458.77-.962 1.505-1.725 2.018-.41.268-.845.467-1.431.467-.364 0-.751-.164-1.068-.49a2.891 2.891 0 01-.67-1.144c-.257-.804-.304-1.644-.246-2.484 0-.024 0-.035.012-.059.012-.093.082-.116.153-.058.375.327.774.63 1.208.875.904.525 1.89.747 2.922.805.247.012.493-.047.74-.07.093.012.14.082.105.14zm6.83-5.168c-1.033.362-2.113.56-3.18.759-1.35.245-2.711.268-4.072.198-.493-.023-.998-.128-1.49-.21-.353-.058-.576-.28-.705-.595a2.283 2.283 0 01-.176-1.155A6.501 6.501 0 0125 15.324c.188-.221.364-.443.552-.665.012-.023.012-.081 0-.093a.28.28 0 00-.13-.07.384.384 0 00-.152.047c-.2.128-.399.245-.575.397a3.257 3.257 0 00-.47.513c-.844 1.096-1.325 2.31-1.302 3.71 0 .326.07.64.165.944.047.152.023.187-.118.245-.762.292-1.514.257-2.218-.163a3.941 3.941 0 01-.903-.747c-.528-.56-.927-1.225-1.35-1.866-.105-.163-.082-.338-.07-.514.094-.746.2-1.48.375-2.216a8.728 8.728 0 011.045-2.45c.493-.804 1.138-1.47 1.96-1.948.422-.244.856-.454 1.35-.478.022 0 .034 0 .046-.011.035-.024.059-.059.094-.094-.035-.035-.07-.081-.118-.093a1.781 1.781 0 00-.856.047c-.563.14-1.08.396-1.537.734a6.38 6.38 0 00-1.561 1.61 9.11 9.11 0 00-1.432 3.383 16.424 16.424 0 00-.34 4.153c.094 1.131.188 2.274.27 3.418.059.874.059 1.75-.082 2.613-.012.093-.047.174-.059.256-.023.222-.14.35-.375.385-.376.047-.74.14-1.115.163-.892.07-1.784.07-2.687-.023a21.761 21.761 0 01-3.227-.583 9.46 9.46 0 01-3.145-1.47 6.292 6.292 0 01-.622-.513c-.176-.152-.164-.198.023-.315 1.045-.607 1.866-1.447 2.523-2.438a47.76 47.76 0 001.444-2.321c.762-1.307 1.513-2.637 2.417-3.861.692-.934 1.42-1.844 2.265-2.648 1.326-1.272 2.851-2.217 4.623-2.742a9.79 9.79 0 012.007-.361c.868-.07 1.713.093 2.534.373.036.012.07.058.094.093-.035.012-.07.024-.094.035-.152.047-.375.07-.34.269.023.151.235.128.376.14.528.035 1.009.233 1.466.501.34.198.646.42.95.665.764.233 1.855 1.19 2.266 2.146.129.304.21.56.234.77.235.385.47.77.681 1.178.023.047.012.129 0 .187 0 .012-.094.012-.14 0l-1.092-.315c-.458-.14-.927-.268-1.385-.408-.035-.012-.07-.035-.082-.059-.012-.023.012-.07.035-.081.376-.187.4-.525.352-.875a1.608 1.608 0 00-.54-1.015c-.21-.198-.422-.385-.715-.455-.294-.07-.54.024-.67.222.036.396.165.828.353 1.271.07.152.14.292.234.432.036.047.083.093.118.14.023.023.035.058.058.093.012.012.012.035.024.047h-.2c-.011 0-.035-.012-.046-.012-.036.012-.07.024-.083.047-.011.023-.011.082 0 .093.153.129.294.268.47.35.281.152.586.268.892.385a87.676 87.676 0 014.494 1.785c.505.221 1.01.466 1.49.735.27.14.517.326.74.525.41.373.363.665-.13.91-.34.163-.633.28-.938.384z" fill="#131B43"/><path d="M29.166 14.251a3.42 3.42 0 00-.235-.77c-.41-.956-1.502-1.913-2.264-2.146.176.14.34.292.504.443.763.735 1.42 1.575 1.995 2.473z" fill="#131B43"/><path d="M26.655 11.335a.835.835 0 00-.47-.035c-.469.128-.633.665-.563 1.341.118-.21.364-.291.67-.221.292.07.515.256.715.455.293.28.493.618.54 1.015.047.35.023.688-.352.874-.024.012-.047.059-.036.082.012.023.047.047.083.058.457.14.927.269 1.384.409.411-.21.634-.502.563-1.05a12.698 12.698 0 00-2.006-2.485c-.188-.163-.364-.303-.528-.443z" fill="#FFF"/><path d="M21.538 14.893c.575.105 1.068.35 1.456.676.023-.023.035-.046.058-.07.165-.221.223-.478.223-.758-.023-.84-.364-1.516-1.126-1.913-.552-.291-1.162-.14-1.291.677v.105c-.012.443.082.851.27 1.225.129.011.27.035.41.058z" fill="#131B43"/><path d="M24.824 13.178c-.457-1.388-1.69-2.228-2.734-1.878-.81.268-1.279 1.167-1.232 2.205.13-.817.74-.957 1.29-.677.764.397 1.104 1.073 1.127 1.913 0 .28-.047.525-.223.758-.023.024-.035.047-.058.07.27.222.48.49.61.782h.023c.165-.303.364-.595.575-.875.141-.187.305-.362.47-.513a2.3 2.3 0 01.27-.199 3.23 3.23 0 00-.118-1.586z" fill="#FFF"/><path d="M23.029 17.32l.059.303a5.17 5.17 0 01.129-.397l-.188.093z" fill="#EDA898"/><path d="M34.13 18.532a3.548 3.548 0 00-.74-.525 19.548 19.548 0 00-1.49-.735c-1.478-.653-2.98-1.224-4.494-1.784a8.56 8.56 0 01-.892-.385c-.176-.094-.317-.234-.47-.35-.011-.012-.011-.047-.011-.07-.2-.047-.364-.07-.505-.059v-.011c0 .023 0 .046-.011.058-.177.222-.364.443-.552.665a6.54 6.54 0 00-1.502 3.488c-.047.396.023.781.176 1.155.13.315.364.536.704.595.493.081.986.186 1.49.21 1.362.07 2.723.046 4.072-.199 1.08-.198 2.148-.396 3.18-.758.305-.105.61-.222.892-.373.516-.257.563-.549.153-.922z" fill="#D67B72"/><path d="M20.506 15.22c.481.093.915.315 1.197.793.105.186.129.396-.035.571a.498.498 0 01-.564.152c-.504-.187-.868-.548-1.126-1.003-.14-.268.105-.525.528-.513zM28.051 16.351c.282.245 5.844 2.567 5.34 1.657a19.548 19.548 0 00-1.49-.735 78.845 78.845 0 00-3.99-1.598c-.294.035-.4.21.14.676z" fill="#FFF"/></g></g></svg>
