<svg width="96" height="96" viewBox="0 0 96 96" fill="none" xmlns="http://www.w3.org/2000/svg"><path d="M48.81 84.109c-4.506-.68-8.812-2.138-12.982-4.147-.64-.324-1.245-.746-1.816-1.134-.068-.033-.068-.195-.101-.292a43.245 43.245 0 01-6.155-3.629.242.242 0 00-.068.13c-.47-.195-.975-.292-1.379-.55-1.042-.681-2.085-1.362-3.027-2.172-2.522-2.17-4.709-4.6-6.256-7.484a6.494 6.494 0 01-.538-1.328c-.033-.065.034-.195.101-.26a42.185 42.185 0 01-3.834-7.42c.235.649.437 1.264.672 1.912.068.227.068.454.135.875-1.177-1.296-1.85-2.56-2.455-3.888-1.75-3.823-2.893-7.776-3.33-11.826-.64-5.767-.168-11.307 1.547-16.588.101-.357.236-.745.336-1.102-.201.032-.269.097-.302.195-3.23 5.086-4.944 10.853-6.054 16.847-.236 1.296-.438 2.592-.505 3.953-.538 12.02 3.565 22.94 12.445 32.335 9.552 10.109 21.223 15.001 34.576 15.001 5.348 0 9.417-2.235 12.612-5.929.841-.972 1.48-2.074 1.85-3.467a8.063 8.063 0 00-1.076.13c-4.776.648-9.552.55-14.395-.162z" fill="red"/><path d="M11.813 53.265c.27.842.572 1.684.874 2.56a48.756 48.756 0 003.835 7.419c0-.033.034-.033.034-.065.033-.032.201.032.269.097.269.26.538.55.773.81 1.85 2.041 3.666 4.115 5.55 6.124 1.379 1.49 2.859 2.916 4.305 4.374.1.097.168.226.235.324 0 0 0 .032-.033.032 1.883 1.328 3.935 2.527 6.155 3.629v-.065c.1 0 .202-.065.302-.032.64.226 1.279.42 1.918.68 4.54 1.814 9.148 3.11 13.89 3.694 17.928 2.138 34.88-7.55 40.967-23.393 6.66-17.399-1.379-38.588-18.768-49.377C49.517-4.051 21.533 3.077 12.217 25.304c-3.734 8.877-3.633 18.24-.404 27.96z" fill="#FF4A54"/><path d="M79.182 84.368c-5.448 5.152-12.747 9.494-21.795 10.952-12.377 2.008-24.317-.39-35.484-7.744C4.38 76.042-1.304 58.254.243 44.096c.673-6.642 2.96-12.669 5.953-18.404 3.263-6.285 7.972-11.34 13.622-15.649 2.489-1.911 4.978-3.855 7.837-5.248 13.588-6.642 27.883-6.513 42.547 1.198C87.76 15.227 98.422 33.954 95.53 52.65c-1.11 7.128-3.633 13.705-7.164 19.829-2.557 4.374-5.382 8.132-9.183 11.89zm-14.967-.291a8.061 8.061 0 00-1.076.13c-4.709.712-9.485.615-14.328-.098-4.507-.68-8.813-2.138-12.983-4.147-.64-.324-1.245-.745-1.816-1.134-.068-.065-.068-.227-.101-.356.1 0 .202-.065.303-.033.639.227 1.278.422 1.917.68 4.54 1.815 9.148 3.111 13.89 3.694 17.928 2.139 34.88-7.549 40.967-23.392 6.66-17.4-1.379-38.589-18.768-49.378C49.517-4.05 21.533 3.077 12.217 25.303c-3.734 8.878-3.633 18.242-.404 27.962.505 1.49 1.043 2.98 1.547 4.47.068.228.068.454.135.876-1.177-1.296-1.85-2.56-2.455-3.888-1.75-3.824-2.893-7.776-3.33-11.826-.64-5.767-.168-11.308 1.547-16.589.1-.356.235-.745.336-1.102-.202.033-.269.098-.303.195-3.228 5.087-4.944 10.854-6.054 16.848-.235 1.296-.437 2.592-.504 3.953-.538 12.02 3.565 22.939 12.444 32.335 9.553 10.108 21.224 15 34.576 15 5.348 0 9.418-2.235 12.613-5.929.841-1.004 1.48-2.138 1.85-3.531z" fill="#101A46"/><path d="M27.655 75.037c-.471-.195-.976-.292-1.38-.55-1.042-.681-2.084-1.362-3.026-2.172-2.523-2.17-4.71-4.6-6.256-7.484a6.499 6.499 0 01-.538-1.329c-.034-.097.067-.226.168-.324.033-.032.202.033.269.098.269.259.538.55.773.81 1.85 2.04 3.667 4.115 5.55 6.123 1.38 1.49 2.859 2.916 4.305 4.374.101.097.168.227.236.324-.034 0-.068.065-.101.13z" fill="#101A46"/><path d="M31.724 34.44c.438 6.254 1.077 12.474 1.85 18.695.202 1.62.505 3.208.841 4.828.202.94.505 1.879.875 2.786.706 1.685.975 1.814 2.724 1.264.975-.292 1.917-.616 2.825-1.07 2.657-1.263 5.348-2.527 7.938-3.92 6.559-3.5 13.084-7.03 19.609-10.562-16.817-8.035-31.717-11.146-36.661-12.02z" fill="#fff"/><path d="M80.494 39.625c-.403-.26-.773-.519-1.21-.713-7.232-3.402-14.463-6.772-21.964-9.623-5.785-2.203-11.637-4.244-17.759-5.508-1.681-.226-3.33-.453-5.011-.68-.404-.065-.807-.032-1.211 0-1.11.097-1.379.324-1.614 1.393-.404 1.75-.37 3.5-.303 5.249l.1 2.041c4.474.778 21.056 4.05 39.69 13.154 2.925-1.587 5.852-3.142 8.778-4.73.168-.097.37-.194.504-.324.067-.032.067-.227 0-.26z" fill="red"/><path d="M83.488 38.782c-1.11-.842-2.22-1.717-3.465-2.398-2.556-1.458-5.146-2.883-7.803-4.18a166.547 166.547 0 00-21.728-8.618c-3.128-1.004-6.39-1.652-9.585-2.527-.337-.065-.673-.13-1.01-.162-2.017-.291-4.002-.55-6.053-.453-2.893.162-3.869 1.555-4.474 3.564a19.774 19.774 0 00-.74 4.438c-.134 2.852-.235 5.735-.134 8.586.201 7.128 1.177 14.127 3.296 20.995a26.605 26.605 0 001.681 4.18c1.01 1.976 2.355 2.624 4.642 2.236a18.212 18.212 0 003.666-1.07 87.433 87.433 0 006.424-2.883c10.124-5.087 20.013-10.595 29.868-16.2 1.816-1.037 3.531-2.17 5.246-3.305 1.178-.745 1.211-1.425.169-2.203zM40.907 60.943c-.908.422-1.884.778-2.826 1.07-1.749.55-2.018.42-2.724-1.264a16.737 16.737 0 01-.874-2.786c-.337-1.588-.64-3.208-.841-4.828-.774-6.22-1.447-12.441-1.85-18.695 4.91.875 19.844 4.018 36.728 12.053-6.525 3.532-13.083 7.03-19.608 10.562-2.657 1.361-5.348 2.625-8.005 3.888zm39.62-21.027c-.134.13-.302.227-.504.324-2.926 1.587-5.852 3.143-8.778 4.73-18.6-9.136-35.215-12.409-39.689-13.154l-.1-2.041c-.101-1.75-.101-3.532.302-5.249.236-1.07.505-1.296 1.615-1.393a7.553 7.553 0 011.21 0c1.682.227 3.364.453 5.012.68 6.121 1.231 11.974 3.305 17.759 5.508 7.5 2.851 14.732 6.22 21.963 9.623.404.194.807.453 1.21.713.034 0 .034.194 0 .259z" fill="#101A46"/></svg>
