<svg width="96" height="96" viewBox="0 0 96 96" fill="none" xmlns="http://www.w3.org/2000/svg"><g clip-path="url(#clip0)"><path d="M48.824 84.11c-4.506-.68-8.81-2.139-12.98-4.148-.638-.324-1.244-.745-1.815-1.134-.068-.032-.068-.194-.101-.291-2.22-1.07-4.27-2.3-6.154-3.629a.242.242 0 00-.067.13c-.47-.195-.975-.292-1.378-.551-1.043-.68-2.085-1.361-3.027-2.171-2.522-2.17-4.707-4.6-6.254-7.484a6.498 6.498 0 01-.538-1.329c-.034-.065.034-.194.1-.259a42.186 42.186 0 01-3.832-7.42c.235.649.437 1.264.672 1.912.067.227.067.454.135.875-1.177-1.296-1.85-2.56-2.455-3.888-1.749-3.823-2.892-7.776-3.329-11.826-.639-5.767-.168-11.307 1.547-16.588.1-.357.235-.746.336-1.102-.202.032-.269.097-.303.194C6.153 30.488 4.44 36.255 3.33 42.25c-.235 1.296-.437 2.592-.504 3.953-.538 12.02 3.564 22.939 12.44 32.335 9.55 10.108 21.218 15 34.568 15 5.346 0 9.415-2.235 12.609-5.928.84-.972 1.48-2.074 1.85-3.467a8.06 8.06 0 00-1.077.13c-4.774.647-9.55.55-14.391-.163z" fill="red"/><path d="M11.836 53.265c.27.843.572 1.685.874 2.56a48.75 48.75 0 003.834 7.42c0-.033.033-.033.033-.066.034-.032.202.033.27.098.268.259.537.55.773.81 1.849 2.04 3.665 4.114 5.548 6.123 1.378 1.49 2.858 2.916 4.304 4.374.1.097.168.227.235.324 0 0 0 .033-.033.033 1.883 1.328 3.934 2.527 6.153 3.628v-.065c.1 0 .202-.064.303-.032.639.227 1.277.421 1.916.68 4.54 1.815 9.146 3.11 13.888 3.694 17.922 2.138 34.869-7.549 40.955-23.392 6.658-17.399-1.379-38.588-18.763-49.377C49.53-4.05 21.554 3.078 12.24 25.304c-3.733 8.878-3.632 18.241-.404 27.961z" fill="#FF4A54"/><path d="M79.187 84.369C73.74 89.52 66.443 93.862 57.398 95.32c-12.374 2.009-24.31-.389-35.474-7.743C4.404 76.041-1.278 58.254.269 44.096c.673-6.643 2.959-12.669 5.952-18.404 3.261-6.285 7.969-11.34 13.618-15.649 2.488-1.911 4.976-3.855 7.835-5.249 13.584-6.641 27.875-6.512 42.536 1.2 17.552 9.233 28.211 27.96 25.32 46.655-1.11 7.128-3.632 13.705-7.163 19.828-2.555 4.374-5.38 8.133-9.18 11.89zm-14.963-.292a8.058 8.058 0 00-1.076.13c-4.707.713-9.482.616-14.324-.097-4.506-.68-8.81-2.139-12.98-4.147-.638-.324-1.244-.746-1.815-1.134-.068-.065-.068-.227-.101-.357.1 0 .202-.065.303-.032.638.227 1.277.421 1.916.68 4.54 1.814 9.146 3.11 13.887 3.694 17.923 2.138 34.87-7.55 40.956-23.393 6.658-17.398-1.379-38.588-18.763-49.377C49.53-4.05 21.554 3.078 12.24 25.304c-3.733 8.878-3.632 18.241-.404 27.961.505 1.49 1.043 2.981 1.547 4.471.067.227.067.454.134.875-1.176-1.296-1.849-2.56-2.454-3.888-1.749-3.823-2.892-7.776-3.33-11.826-.638-5.767-.167-11.307 1.548-16.588.1-.357.235-.745.336-1.102-.202.033-.27.097-.303.195-3.228 5.086-4.943 10.853-6.052 16.847-.236 1.296-.437 2.592-.505 3.953-.538 12.02 3.565 22.94 12.442 32.335 9.55 10.109 21.217 15.001 34.566 15.001 5.347 0 9.415-2.236 12.61-5.93.84-1.004 1.48-2.138 1.85-3.53z" fill="#101A46"/><path d="M27.674 75.038c-.471-.195-.976-.292-1.38-.551-1.041-.68-2.084-1.36-3.025-2.17-2.522-2.172-4.708-4.601-6.255-7.485a6.498 6.498 0 01-.538-1.328c-.033-.098.068-.227.169-.325.033-.032.201.033.268.098.27.259.538.55.774.81 1.85 2.04 3.665 4.114 5.548 6.123 1.379 1.49 2.858 2.916 4.304 4.374.101.097.168.227.235.324-.033 0-.067.065-.1.13z" fill="#101A46"/><path d="M31.776 20.38s-6.12 34.992 4.674 43.318c6.826-1.49 31.271-10.789 47.142-22.356 1.48-3.24 3.33-9.298 2.253-9.85-1.076-.55-54.07-11.112-54.07-11.112z" fill="#E4EFFD"/><path d="M29.994 24.074c.437-1.555 1.076-4.018 1.782-6.448.168-.615.504-1.199.84-1.75.101-.161.505-.356.673-.29.269.096.538.388.639.647.1.292.067.648 0 .972-.27 1.264-.47 2.56-.874 3.823-1.345 4.147-1.816 8.392-1.95 12.7-.236 5.476.235 10.984 1.042 16.492.437 2.981 1.21 5.864 2.152 8.716.37 1.101.975 2.138 1.513 3.175.269.518.74.616 1.379.518 2.05-.356 4.068-.907 6.052-1.587 6.624-2.3 13.013-5.12 19.234-8.327 6.523-3.337 12.81-6.998 18.83-11.146 1.042-.712 1.85-1.457 2.152-2.721.302-1.264.672-2.527 1.042-3.758.303-1.005.606-2.01.942-2.981.067-.227.202-.486.403-.648.202-.13.505-.26.74-.194.202.064.538.291.538.486.067.647.168 1.295.067 1.943-.37 2.463-1.244 4.796-2.32 7.064-.437.907-1.21 1.555-2.017 2.17-2.758 2.203-5.717 4.18-8.777 5.962a207.725 207.725 0 01-18.729 9.784c-4.64 2.106-9.415 3.986-14.392 5.25-1.11.29-2.252.453-3.396.582-1.647.195-2.858-.388-3.732-1.781-.773-1.232-1.412-2.528-1.85-3.888-1.176-3.597-1.95-7.323-2.454-11.049-1.042-7.614-1.042-15.228.47-23.716z" fill="#101A46"/><path d="M39.543 56.505c-.605 1.459-.908 2.949-1.916 4.148-.068.097-.27.162-.337.162-.1-.033-.168-.195-.201-.292-.034-.194-.101-.389-.068-.583.37-1.393.74-2.754 1.144-4.147.033-.162.235-.39.403-.422.236-.032.639-.032.706.098.135.324.168.712.27 1.036z" fill="#101A46"/><path d="M42.67 15.714c6.12 1.231 11.971 3.305 17.755 5.508 7.498 2.851 14.727 6.22 21.957 9.623.403.194.807.453 1.21.713.068.032.068.259 0 .291a1.89 1.89 0 01-.504.324c-10.39 5.605-20.747 11.21-31.17 16.783-2.59 1.393-5.28 2.624-7.936 3.92-.908.422-1.883.778-2.825 1.07-1.748.55-2.017.42-2.723-1.264a16.736 16.736 0 01-.875-2.786c-.336-1.588-.639-3.208-.84-4.828-.975-7.743-1.749-15.52-2.152-23.328-.101-1.75-.101-3.531.302-5.248.236-1.07.505-1.296 1.614-1.394a7.55 7.55 0 011.21 0c1.615.162 3.296.39 4.977.616z" fill="#fff"/><path d="M44.05 13.025c3.194.875 6.422 1.523 9.582 2.527 7.465 2.333 14.694 5.25 21.722 8.619 2.656 1.263 5.212 2.721 7.801 4.18 1.21.68 2.354 1.555 3.464 2.397 1.008.777.975 1.458-.101 2.17-1.715 1.135-3.464 2.301-5.246 3.306-9.852 5.605-19.704 11.113-29.859 16.2a94.317 94.317 0 01-6.422 2.883 18.204 18.204 0 01-3.666 1.069c-2.286.421-3.631-.227-4.64-2.236a26.607 26.607 0 01-1.681-4.18c-2.118-6.835-3.094-13.866-3.295-20.994-.068-2.851 0-5.735.134-8.586.067-1.49.336-2.98.74-4.439.572-2.009 1.58-3.37 4.472-3.564 2.017-.13 4.035.162 6.053.454.269.065.605.13.941.194zm-1.38 2.69c-1.68-.227-3.328-.454-5.01-.68-.403-.066-.807-.033-1.21 0-1.11.096-1.379.323-1.614 1.392-.404 1.75-.37 3.5-.303 5.249.37 7.808 1.177 15.584 2.152 23.328.202 1.62.505 3.207.84 4.827.203.94.505 1.88.875 2.787.706 1.684.975 1.814 2.724 1.263.975-.291 1.916-.615 2.824-1.069 2.657-1.264 5.347-2.527 7.936-3.92 10.39-5.573 20.78-11.178 31.17-16.783.168-.098.37-.195.505-.324.067-.065.033-.26 0-.292-.404-.26-.774-.518-1.21-.713-7.23-3.402-14.46-6.771-21.958-9.622-5.75-2.139-11.6-4.18-17.72-5.444z" fill="#101A46"/></g><defs><clipPath id="clip0"><path fill="#fff" d="M0 0h96v96H0z"/></clipPath></defs></svg>
