<svg width="150" height="150" viewBox="0 0 150 150" xmlns="http://www.w3.org/2000/svg"><g fill="#1E285A" fill-rule="nonzero"><path d="M6.773 71.409c.33-.522.661-1.306.727-2.155.067-.914-.264-1.437-.86-1.502-.529-.065-.926.327-1.39 1.372-.66 1.436-1.587 2.285-2.844 2.154-1.522-.13-2.58-1.502-2.382-3.591.066-.98.397-1.698.662-2.22l1.587.588c-.198.326-.529.914-.595 1.763-.066.848.265 1.306.728 1.37.595.066.86-.391 1.39-1.501.727-1.502 1.587-2.155 2.844-2.024 1.456.13 2.647 1.371 2.448 3.787-.066.98-.463 1.959-.794 2.416l-1.521-.457zM9.684 63.769l-8.668-2.024.53-2.286 3.572-1.045c1.06-.326 2.25-.522 3.309-.718v-.065c-1.191-.13-2.382-.392-3.64-.653l-2.514-.588.464-1.763 8.667 2.024-.463 2.024L7.17 59.72c-1.06.261-2.316.588-3.44.784v.065c1.19.196 2.38.457 3.837.784l2.646.587-.53 1.829zM4.722 48.946l4.763 1.893c1.456.588 2.382.327 2.78-.653.396-.98-.067-1.763-1.523-2.35L5.98 45.941l.727-1.763 4.632 1.828c2.58 1.045 3.242 2.808 2.382 4.898-.86 2.089-2.514 2.807-5.161 1.762L3.928 50.84l.794-1.893zM8.625 40.653a25.81 25.81 0 011.191-2.351c.662-1.11 1.323-1.828 2.051-2.09.662-.26 1.323-.195 2.051.196.993.588 1.257 1.633 1.125 2.416h.066c.53-.391 1.191-.391 2.051-.196.993.262 2.184.588 2.514.653l-1.058 1.764c-.265 0-.993-.196-2.117-.523-1.059-.326-1.522-.196-1.985.523l-.331.522 3.043 1.763-.992 1.698-7.609-4.375zm4.3.196l.398-.653c.53-.85.397-1.633-.331-2.025-.728-.392-1.323-.13-1.853.653-.264.392-.33.653-.397.784l2.184 1.24zM13.918 32.23c.331-.588.86-1.372 1.522-2.22.794-1.046 1.522-1.633 2.316-1.83.661-.13 1.323 0 1.985.523.926.719.992 1.763.794 2.547.595-.327 1.257-.261 2.05.065.993.392 2.052.914 2.449.98l-1.257 1.632c-.265-.065-.993-.326-2.052-.783-.992-.523-1.521-.392-1.984.26l-.464.458 2.78 2.155-1.258 1.567-6.88-5.355zm4.235.783l.463-.588c.595-.783.595-1.567 0-2.024-.662-.522-1.323-.326-1.919.392-.33.392-.463.653-.53.718l1.986 1.502zM23.313 21.455l4.103-3.526 1.124 1.24-2.646 2.22 1.323 1.502 2.382-2.09 1.059 1.242-2.382 2.09 2.382 2.676-1.522 1.306zM31.65 14.795l5.227 7.118-1.654 1.175-5.227-7.118zM34.694 12.705l1.72-.98 3.639 6.139 3.043-1.763.86 1.436-4.83 2.808zM51.631 10.616c-.463-.98-.926-2.155-1.455-3.33h-.066c.132 1.175.264 2.415.33 3.526l.265 3.591-1.456.588-2.117-2.808c-.661-.849-1.39-1.894-2.05-2.873.396 1.11.86 2.416 1.19 3.46l1.125 3.135-1.72.653-2.78-8.358 2.515-.98 1.919 2.416c.661.85 1.323 1.763 1.852 2.677h.066c-.132-1.044-.33-2.22-.397-3.264l-.198-3.07L51.102 5l3.771 8.032-1.852.718-1.39-3.134zM142.341 78.265a4.903 4.903 0 00-.727 2.155c-.067.914.264 1.437.86 1.502.529.065.926-.326 1.389-1.371.662-1.437 1.522-2.286 2.845-2.155 1.522.13 2.581 1.502 2.382 3.526-.066.98-.331 1.698-.662 2.22l-1.588-.587c.199-.327.53-.915.596-1.829.066-.849-.265-1.306-.728-1.371-.595-.065-.86.457-1.389 1.502-.728 1.502-1.588 2.155-2.845 2.024-1.522-.13-2.647-1.371-2.448-3.787.066-.98.463-1.96.727-2.416l1.588.587zM139.496 85.97l8.734 1.959-.529 2.285-3.573 1.045c-1.059.326-2.25.588-3.308.718v.066c1.191.13 2.382.326 3.639.652l2.514.588-.397 1.763-8.734-1.959.463-2.024 3.772-1.11c1.058-.327 2.315-.588 3.44-.784v-.065c-1.191-.196-2.382-.457-3.837-.784l-2.647-.587.463-1.763zM144.591 100.663l-4.764-1.894c-1.455-.588-2.382-.326-2.779.653-.397.98.066 1.763 1.522 2.35l4.764 1.894-.728 1.829-4.631-1.829c-2.581-.979-3.242-2.742-2.382-4.897.794-2.09 2.448-2.808 5.094-1.828l4.632 1.828-.728 1.894zM140.82 109.021c-.199.588-.662 1.502-1.191 2.416-.662 1.11-1.324 1.828-2.051 2.155-.662.261-1.324.196-2.051-.196a2.34 2.34 0 01-1.125-2.416h-.066c-.53.392-1.191.392-2.051.196-.993-.261-2.184-.588-2.515-.588l1.059-1.763c.265 0 1.059.196 2.117.457 1.059.327 1.522.131 1.985-.522l.331-.523-3.044-1.697.993-1.698 7.609 4.179zm-4.367-.196l-.397.653c-.529.849-.331 1.632.331 2.024.728.392 1.323.131 1.786-.653.265-.392.331-.653.397-.783l-2.117-1.241zM135.527 117.509c-.331.588-.861 1.371-1.522 2.22-.794 1.045-1.522 1.633-2.316 1.829-.662.13-1.323 0-1.985-.457-.926-.653-1.058-1.763-.794-2.547-.595.326-1.257.261-2.051-.065-.992-.392-2.051-.849-2.448-.915l1.257-1.632c.265.065.993.327 2.051.784 1.059.457 1.522.391 1.985-.262l.397-.457-2.779-2.089 1.191-1.567 7.014 5.158zm-4.235-.718l-.463.653c-.595.783-.595 1.567.066 2.024.662.523 1.323.327 1.919-.392.331-.391.463-.653.529-.783l-2.051-1.502zM126.264 128.349l-4.036 3.592-1.125-1.241 2.58-2.286-1.389-1.501-2.382 2.089-1.125-1.175 2.382-2.09-2.382-2.612 1.522-1.306zM117.927 135.074l-5.293-7.117 1.654-1.176 5.293 7.118zM114.884 137.164l-1.721 1.045-3.705-6.138-3.043 1.763-.86-1.436 4.763-2.808zM98.012 139.384c.463.98.992 2.155 1.456 3.331h.066a33.835 33.835 0 01-.397-3.526l-.331-3.592 1.455-.588 2.184 2.808c.661.849 1.455 1.894 2.051 2.873-.397-1.11-.86-2.416-1.257-3.46l-1.125-3.135 1.72-.718 2.845 8.358-2.514.98-1.919-2.416a65.804 65.804 0 01-1.918-2.612h-.067c.133 1.044.331 2.22.397 3.265l.265 3.069-2.448.979-3.837-7.966 1.852-.719 1.522 3.069zM144.26 67.883a.45.45 0 01-.463-.457c-3.904-34.87-33.677-61.12-69.273-61.12-3.573 0-7.212.262-10.718.784-.265.065-.53-.13-.596-.392-.066-.26.132-.522.397-.587 3.573-.523 7.212-.85 10.85-.85 36.06 0 66.297 26.643 70.2 62.034.133.327-.066.588-.397.588.066 0 .066 0 0 0zM74.788 144.869c-36.059 0-66.295-26.642-70.199-62.034 0-.26.199-.522.463-.522.265-.065.53.196.53.457 3.903 34.869 33.677 61.119 69.273 61.119 3.572 0 7.212-.261 10.718-.783.265-.066.53.13.596.392.066.261-.133.522-.397.587-3.706.457-7.345.784-10.984.784z"/></g></svg>
