<svg width="55" height="48" viewBox="0 0 55 48" xmlns="http://www.w3.org/2000/svg"><g fill-rule="nonzero" fill="none"><path d="M5.976 23.773c-.69-.98-1.215-1.795-1.796-2.539-2.502-3.21-3.662-6.817-3.046-10.86C1.751 6.456 4.09 3.7 7.607 1.941 11.234.11 15.17-.343 19.085.237c7.108 1.052 13 4.334 17.316 10.19 1.76 2.394 2.43 4.153 2.902 7.036 1.994.67 4.098 1.25 6.074 2.085 4.297 1.795 7.144 5.005 8.83 9.32.726 1.85.417 3.518-.652 5.15-1.94 2.973-4.262 5.548-7.29 7.47-4.66 2.956-9.737 4.787-15.176 5.657-5.911.943-11.804.925-17.57-.924-2.122-.671-4.298-1.36-6.202-2.484-2.792-1.65-4.642-4.243-5.457-7.398-1.143-4.37-.037-8.232 2.937-11.605.29-.29.653-.544 1.179-.961zm16.844 21.07c8.523-.127 16.464-2.158 23.482-7.235 2.23-1.614 4.061-3.59 5.584-5.875.417-.617.635-1.215.236-2.013-1.36-2.665-2.937-5.131-5.24-7.09-.453-.38-.943-.815-1.487-.997-2.593-.816-5.15-1.85-7.797-2.23-8.576-1.197-16.845.2-24.714 3.808a24.776 24.776 0 00-4.787 2.9c-3.626 2.793-4.46 7-2.303 10.99.762 1.432 1.723 2.773 2.484 4.206.417.761.98 1.124 1.76 1.414 4.133 1.505 8.394 2.176 12.782 2.122zm14.416-27.707c-.671-2.556-1.85-4.714-3.536-6.563-4.95-5.458-11.206-8.033-18.495-8.07-3.355-.017-6.437.98-8.921 3.373-2.611 2.52-3.463 6.292-2.158 9.43.272-.073.544-.146.87-.237.708 2.575 1.469 5.041 3.246 7.036 9.175-4.588 18.894-5.694 28.994-4.969z" fill="#131B43"/><path d="M22.82 44.843c-4.406.054-8.667-.635-12.801-2.122-.78-.29-1.342-.653-1.759-1.414-.78-1.433-1.722-2.774-2.484-4.207-2.158-4.007-1.305-8.214 2.303-10.988a25.707 25.707 0 014.787-2.901c7.87-3.609 16.138-4.987 24.714-3.808 2.647.363 5.222 1.414 7.797 2.23.544.163 1.033.617 1.487.998 2.303 1.94 3.88 4.424 5.24 7.09.399.779.163 1.395-.236 2.012-1.523 2.285-3.336 4.261-5.584 5.875-7 5.077-14.923 7.108-23.464 7.235z" fill="#585E92"/><path d="M37.236 17.136c-10.1-.725-19.819.381-29.012 4.969-1.777-1.995-2.539-4.443-3.246-7.036-.326.091-.598.164-.87.236-1.287-3.119-.435-6.908 2.158-9.429 2.484-2.393 5.566-3.39 8.92-3.372 7.308.018 13.546 2.593 18.496 8.069 1.704 1.85 2.883 4.007 3.554 6.563z" fill="#585E92"/><path d="M6.864 5.369c4.37-3.155 11.188-1.56 15.286.127 5.167 2.14 9.882 6.8 12.855 11.495a98.53 98.53 0 012.249.127c-.671-2.556-1.85-4.714-3.536-6.564-4.95-5.457-11.206-8.032-18.495-8.068-3.119.018-5.984.87-8.359 2.883zM52.122 29.72c-1.36-2.665-2.937-5.131-5.24-7.09-.453-.38-.943-.815-1.487-.997-2.593-.816-5.15-1.85-7.797-2.23-5.131-.707-10.154-.508-15.031.544.272.036.562-.018.816-.018 18.295-.254 21.16 8.703 22.284 9.628-.344.308 5.222 3.318 5.35 3.39.307-.398.598-.815.888-1.25.38-.58.616-1.179.217-1.977z" fill="#FFF"/><path d="M13.446 42.485c-7.724-3.155 1.922-12.42 14.343-14.288 15.013-2.248 27.796 1.197 23.046 6.909C40.663 47.29 23.49 46.6 13.446 42.486z" fill="#131B43"/></g></svg>
