<svg width="69" height="148" viewBox="0 0 69 148" xmlns="http://www.w3.org/2000/svg"><g fill-rule="nonzero" fill="none"><path d="M68.145 9.411c-.531-.386-.98-.896-1.548-1.145C65 7.572 63.376 6.894 61.73 6.382 55.39 4.35 49.04 2.437 42.713.36c-2.806-.92-4.057-.081-4.81 2.623-.592 2.112-1.248 4.182-1.857 6.266a80590.317 80590.317 0 00-29.477 102.69c-2.009 7.006-3.864 14.078-5.781 21.11-.307 1.138-.597 2.305-.75 3.51-.189 1.61.31 2.474 1.783 3.086 1.608.65 3.27 1.19 4.932 1.731 4.666 1.537 9.304 3.091 13.995 4.538a66.419 66.419 0 007.283 1.796c2.146.376 2.691-.015 3.392-2.074a59.08 59.08 0 001.343-4.353c4.747-17.09 9.523-34.196 14.254-51.315a9273.126 9273.126 0 009.566-34.99c3.765-13.984 7.484-27.98 11.232-41.992.17-.637.36-1.246.44-1.908.044-.526-.078-1.07-.113-1.666zM28.25 142.543c-.17-.094-.44-.093-.523-.237-.245-.358-.433-.75-.62-1.142-3.296-7.445-6.563-14.907-9.86-22.352-1.326-2.965-2.624-5.948-4.083-8.875-.817-1.683-.834-3.25-.31-5.014 2.046-6.875 4-13.774 6.001-20.66.164-.518.328-1.036.554-1.513.065-.153.33-.23.52-.3.058-.034.216.106.266.193.216.375.404.766.563 1.175 1.42 3.527 2.736 7.076 4.184 10.586 3.006 7.344 5.995 14.658 9.162 21.947.71 1.63.69 3.064.248 4.704-1.746 6.393-3.43 12.828-5.13 19.233-.17.638-.342 1.276-.576 1.873-.02.165-.24.253-.396.382zM35.827 28.57c.108.322.23.598.338.92 4.353 10.413 8.666 20.887 13.094 31.295.692 1.6.706 3.093.219 4.72a2440.594 2440.594 0 00-4.952 17.939c-.257.956-.486 1.896-.835 2.829-.06.227-.425.399-.69.475-.057.033-.344-.263-.398-.424-1.169-2.826-2.292-5.64-3.444-8.437-3.302-8.057-6.53-16.118-9.948-24.109-.797-1.848-.906-3.439-.329-5.31 1.78-6.068 3.44-12.143 5.174-18.222.172-.638.36-1.246.623-1.86.066-.153.31-.332.487-.358.15-.01.34.188.482.3.09.024.112.127.179.242zm20.433 6.206c-.258-.581-.588-1.353-.934-2.153a4856.1 4856.1 0 01-9.337-21.114c-.81-1.803-1.516-3.627-2.221-5.45-.16-.409.32-.916.713-.835.439.093.85.202 1.247.357 5.757 2.023 11.444 4.126 17.372 5.512.212.031.485.104.597.232.208.226.375.515.42.796.035.326-.05.645-.136.964l-6.048 21.65c-.062.227-.111.409-.234.596-.095.17-.293.361-.471.387-.178.026-.393-.08-.535-.192-.157-.14-.216-.375-.433-.75z" fill="#131B43"/><path d="M28.25 142.543c.156-.129.388-.263.453-.416.218-.626.406-1.235.578-1.872 1.7-6.406 3.383-12.84 5.129-19.234.441-1.64.461-3.075-.248-4.704-3.15-7.26-6.156-14.603-9.162-21.947-1.449-3.51-2.81-7.07-4.185-10.586-.158-.408-.375-.783-.562-1.175-.05-.087-.192-.198-.266-.193-.19.071-.455.147-.52.3a9.218 9.218 0 00-.554 1.513c-2 6.886-3.94 13.814-6.002 20.66-.524 1.764-.535 3.348.311 5.014 1.414 2.915 2.757 5.91 4.083 8.875 3.296 7.445 6.563 14.907 9.86 22.352.187.392.374.784.62 1.142.025.178.282.222.464.271zM35.826 28.57c-.05-.087-.087-.219-.166-.289-.141-.11-.333-.308-.481-.3-.178.027-.422.206-.488.36a17.823 17.823 0 00-.623 1.86c-1.705 6.062-3.377 12.182-5.174 18.22-.548 1.856-.451 3.492.33 5.312 3.417 7.99 6.645 16.051 9.947 24.108 1.169 2.826 2.292 5.64 3.444 8.437.07.19.34.457.399.424.248-.105.612-.276.69-.475.32-.916.577-1.872.834-2.829 1.636-5.983 3.254-11.996 4.952-17.939.47-1.656.428-3.132-.22-4.72-4.398-10.425-8.723-20.853-13.093-31.294-.121-.277-.23-.599-.35-.875zM56.26 34.776c.233.404.32.623.45.779.14.11.373.246.535.191.178-.025.33-.229.47-.387.124-.186.156-.397.234-.596l6.048-21.65c.086-.318.2-.654.138-.964-.047-.28-.213-.57-.421-.795-.13-.157-.386-.201-.597-.233-5.945-1.415-11.632-3.517-17.372-5.512-.398-.155-.837-.247-1.248-.357-.393-.08-.872.427-.713.835.706 1.824 1.412 3.648 2.176 5.438 3.108 7.053 6.228 14.061 9.337 21.115.358.754.705 1.554.963 2.136z" fill="#FFC229"/></g></svg>
