<svg width="149" height="70" viewBox="0 0 149 70" xmlns="http://www.w3.org/2000/svg"><g fill-rule="nonzero" fill="none"><path d="M10.098 1.026c-.388.536-.901.989-1.152 1.561-.7 1.609-1.384 3.247-1.901 4.904C4.992 13.88 3.088 20.26.989 26.635c-.929 2.827-.09 4.086 2.623 4.838 2.118.592 4.196 1.248 6.286 1.857a79316.773 79316.773 0 00103.02 29.47c7.029 2.007 14.124 3.861 21.179 5.777 1.142.306 2.313.595 3.522.748 1.614.186 2.484-.319 3.102-1.802.655-1.62 1.2-3.295 1.747-4.97 1.553-4.701 3.122-9.374 4.584-14.1a67.27 67.27 0 001.817-7.338c.383-2.16-.009-2.709-2.074-3.41a59.13 59.13 0 00-4.367-1.343c-17.145-4.745-34.307-9.52-51.481-14.248a9286.142 9286.142 0 00-35.104-9.56c-14.03-3.762-28.07-7.477-42.128-11.222-.64-.172-1.251-.36-1.915-.44-.528-.043-1.075.08-1.702.134zm133.587 39.88c-.095.172-.094.443-.239.527-.36.248-.754.437-1.148.627-7.48 3.334-14.977 6.639-22.457 9.973-2.98 1.342-5.976 2.654-8.918 4.129-1.69.827-3.263.848-5.033.324-6.897-2.046-13.818-4-20.727-6-.52-.165-1.039-.329-1.517-.555-.154-.066-.23-.332-.301-.524-.033-.058.107-.217.194-.268a8.55 8.55 0 011.182-.569c3.543-1.436 7.108-2.769 10.635-4.235 7.378-3.041 14.726-6.066 22.049-9.27 1.636-.717 3.077-.7 4.722-.26 6.414 1.745 12.87 3.427 19.297 5.126.64.171 1.28.343 1.878.577.136.037.224.257.383.398zm-114.42-7.378c.323-.11.6-.232.924-.343 10.46-4.404 20.984-8.768 31.44-13.248 1.607-.7 3.106-.717 4.739-.23 5.99 1.68 11.994 3.314 17.997 4.949.96.257 1.903.485 2.837.834.229.062.4.427.475.694.034.058-.263.347-.426.402-2.838 1.183-5.665 2.32-8.475 3.486-8.094 3.341-16.193 6.607-24.221 10.065-1.857.807-3.454.92-5.332.342-6.087-1.78-12.181-3.438-18.28-5.172-.64-.171-1.25-.36-1.866-.623-.153-.066-.333-.311-.359-.49-.008-.15.19-.343.302-.485.025-.092.157-.13.244-.18zm6.27-20.587c-.583.261-1.358.595-2.162.945a4855.485 4855.485 0 01-21.214 9.445c-1.782.802-3.631 1.487-5.463 2.202-.41.16-.919-.32-.837-.717.094-.442.205-.855.361-1.256 2.014-5.784 4.12-11.544 5.552-17.533.032-.213.106-.488.234-.601.228-.21.518-.378.8-.426.327-.035.647.051.967.137l21.72 6.045c.228.061.41.11.598.234.17.095.362.294.387.473.027.18-.08.397-.193.539-.107.217-.343.277-.75.513z" fill="#131B43"/><path d="M143.685 40.906c-.13-.157-.263-.39-.417-.456a26.998 26.998 0 00-1.878-.577c-6.426-1.699-12.882-3.38-19.297-5.125-1.644-.441-3.085-.458-4.722.26-7.293 3.186-14.671 6.228-22.049 9.27-3.527 1.465-7.103 2.844-10.636 4.234-.41.16-.787.38-1.18.57-.087.05-.198.192-.194.267.071.192.146.458.3.524.479.226 1.014.42 1.518.554 6.909 2 13.859 3.938 20.727 6.001 1.77.523 3.359.531 5.033-.323 2.93-1.43 5.938-2.789 8.917-4.13 7.48-3.334 14.977-6.639 22.458-9.973.393-.19.787-.38 1.147-.627.179-.026.195-.268.273-.469zM29.264 33.528c-.087.05-.22.089-.29.168-.111.143-.31.336-.301.486.025.179.205.424.358.49.599.234 1.226.451 1.866.623 6.083 1.704 12.223 3.376 18.28 5.172 1.862.548 3.505.448 5.332-.342 8.028-3.458 16.127-6.724 24.22-10.066 2.84-1.182 5.667-2.32 8.477-3.485.19-.072.46-.344.426-.402-.105-.25-.277-.616-.476-.694-.918-.32-1.878-.577-2.837-.835-6.003-1.634-12.035-3.251-17.997-4.948-1.662-.47-3.144-.425-4.739.23-10.473 4.45-20.95 8.827-31.44 13.248-.278.123-.572.216-.879.355zM35.536 12.94c.406-.235.626-.324.783-.454.111-.142.248-.376.193-.539-.026-.179-.23-.332-.387-.473-.188-.124-.4-.156-.6-.234L13.807 5.195c-.32-.086-.656-.2-.967-.137-.282.048-.572.216-.8.426-.157.13-.202.389-.234.601-1.403 5.973-3.538 11.749-5.552 17.533-.156.4-.25.843-.36 1.256-.082.397.426.877.836.717 1.832-.715 3.664-1.43 5.463-2.202 7.086-3.144 14.127-6.3 21.214-9.445.77-.408 1.545-.742 2.13-1.003z" fill="#FFC229"/></g></svg>
