<svg width="289" height="203" viewBox="0 0 289 203" xmlns="http://www.w3.org/2000/svg"><g fill-rule="nonzero" fill="none"><path d="M105.233 130.755c21.249-12.18 42.463-24.339 63.746-36.46 12.496-7.138 25.058-14.16 37.604-21.21 1.006-.583 2.096-1.1 3.168-1.567.588-.264 1.227-.44 1.83-.597 2.793-.69 5.577.214 6.629 2.125 1.032 1.96.122 5.125-2.125 7.088-.679.589-1.476 1.052-2.257 1.543-11.378 6.993-22.654 14.16-34.165 20.92-50.482 29.614-100.996 59.092-151.528 88.62a3721.936 3721.936 0 00-16.921 9.977c-4.092 2.452-5.419 2.719-8.155-1.16-1.192-1.675-2.002-3.648-2.812-5.543-.629-1.496-.038-2.964 1.559-4.046 1.632-1.102 3.314-2.117 5.013-3.103 19.829-11.434 39.676-22.916 59.521-34.32 12.965-7.448 25.928-14.818 38.893-22.267zm-14.28 18.683l-.083-.145 79.544-46.06c1.144-.664 2.27-1.279 3.347-2.059.365-.25.683-.822.655-1.194.047-1.85-1.402-2.522-3.185-1.602-.71.373-1.369.755-2.062 1.158l-57.164 32.95-103.392 59.67c-.555.322-1.161.634-1.7.986-1.248.803-1.392 1.196-.93 2.324 1.027 2.35 1.335 2.405 4.107.873l.694-.402a28564.892 28564.892 0 0080.17-46.499z" fill="#131B43"/><path d="M90.953 149.438c-26.729 15.516-53.441 31.061-80.136 46.557l-.693.402c-2.772 1.533-3.08 1.478-4.107-.873-.497-1.107-.354-1.5.93-2.324.538-.351 1.144-.664 1.699-.986l103.392-59.67 57.164-32.95a53.948 53.948 0 012.062-1.158c1.784-.92 3.198-.228 3.185 1.602-.006.391-.324.964-.654 1.195-1.06.73-2.204 1.395-3.348 2.06L90.903 149.35l.05.088z" fill="#94A9BF"/></g></svg>
