<svg width="91" height="103" viewBox="0 0 91 103" fill="none" xmlns="http://www.w3.org/2000/svg">
<path d="M81.1 53.5C87.6 59.4 91 66.1 91 74.6C91 91 76.2 102.5 54.1 102.5H16.8L0 87.5V0H54.3C75.4 0 88.8 14.3 88.8 33C88.8 37.7 87.2 46.9 81.1 53.5ZM35.3 35.3H51.7C52.8 35.3 53.4 34.4 53.4 33.6C53.4 32.5 52.6 31.9 51.7 31.9H35.3V35.3ZM55.6 67.1H35.3V70.7H48.4C51.8 70.7 54.2 69.2 55.6 67.1Z" fill="#1E285A"/>
<path d="M18.4 99.3999L6.5 88.7999H49.4C65.1 88.7999 76.6 79.8999 76.6 62.9999C76.6 59.5999 75.7 55.9999 74.2 52.7999L74.6 53.0999C76.7 56.7999 77.4 60.8999 77.4 63.7999C77.4 72.2999 75 80.0999 69.2 84.8999C75.3 81.4999 79.1 73.7999 79.1 67.0999C79.1 61.8999 77.8 56.8999 74.9 53.3999L75.8 54.1999C79.2 58.2999 81.1 63.2999 81.1 67.8999C81.1 76.3999 78.1 83.5999 72.1 88.3999C78.6 84.7999 82.8 77.7999 82.8 70.5999C82.8 64.4999 80.4 59.0999 76.6 54.8999L77.3 55.3999C81.9 59.7999 84.8 65.6999 84.8 72.2999C84.8 79.5999 81.5 86.7999 75.7 91.2999C82.4 87.4999 86.4 81.0999 86.4 73.8999C86.4 66.7999 83.2 61.2999 78.7 56.6999C85 62.3999 87.4 68.2999 87.4 75.0999C87.4 87.7999 75.2 99.3999 53.7 99.3999H18.4ZM31.7 31.4999V35.6999H30L29.7 30.1999L29.6 35.6999H25.9L25.6 26.5999L25.5 35.6999H21.8L21.5 22.8999L21.4 35.6999H19.4V20.3999L31.7 31.4999ZM31.7 66.7999V71.1999H30L29.7 65.4999L29.6 71.1999H25.9L25.6 61.9999L25.5 71.1999H21.8L21.5 58.2999L21.4 71.1999H19.4V55.6999L31.7 66.7999ZM51.4 28.6999H34.2L22.3 18.0999H51.6C62.3 18.0999 69.2 24.2999 69.2 33.3999C69.2 37.9999 67.1 42.0999 64 44.7999C66.8 42.2999 68.6 37.7999 68.6 33.9999C68.6 28.1999 65.2 19.0999 51.4 19.2999L25 19.6999L50.5 20.0999C60.1 20.1999 65.7 25.3999 65.7 32.9999C65.7 37.1999 63.6 41.1999 59.9 42.8999C62.9 40.8999 64.7 37.4999 64.7 33.7999C64.7 25.6999 57.8 22.6999 51.6 22.7999L29.1 23.1999L50.5 23.5999C56.2 23.6999 61.6 26.7999 61.6 33.1999C61.6 36.8999 59.4 40.1999 55.7 40.9999C58.7 39.8999 60.6 37.1999 60.6 34.0999C60.6 29.5999 57.4 25.9999 51.6 26.1999L33 26.8999L50.4 27.2999C56.2 27.3999 57.5 30.8999 57.5 33.5999C57.5 37.1999 54.7 39.2999 51.3 39.2999C54.7 39.2999 56.8 36.6999 56.8 33.9999C56.9 31.7999 55.1 28.6999 51.4 28.6999ZM48.4 53.3999C50.1 53.3999 51.7 53.7999 53.2 54.5999L25 54.9999L54.5 55.4999C55.2 56.1999 56 57.0999 56.4 57.9999L29.2 58.4999L56.7 58.9999C57 59.7999 57.1 60.4999 57.2 61.4999L33 62.0999L57.2 62.5999C57.2 62.8999 57.1 63.3999 57.1 63.8999H34.2L22.3 53.3999H48.4ZM69.5 43.5999C71.5 40.6999 72.8 36.9999 72.8 33.3999C72.8 27.2999 70.3 21.1999 63.8 17.4999C70.1 20.2999 74.1 26.6999 74.1 34.3999C74.1 36.8999 73.6 39.5999 72.6 41.7999C74.5 38.7999 75.4 35.1999 75.4 31.4999C75.4 25.1999 72.6 18.7999 67.2 14.8999C74.1 18.5999 78.2 26.4999 78.2 34.5999C78.2 37.5999 77.7 40.7999 76.4 43.6999C78.5 40.3999 79.7 36.1999 79.7 31.7999C79.7 23.9999 76.5 16.8999 70.3 12.0999C78.5 16.4999 82.3 25.2999 82.3 34.3999C82.3 38.0999 81.6 41.7999 80.1 45.1999C82.7 41.0999 83.8 36.1999 83.8 31.0999C83.8 22.7999 80.4 14.6999 73.5 9.3999C81.3 14.7999 85.3 23.3999 85.3 33.1999C85.3 39.2999 83.6 45.7999 78.4 51.2999L69.5 43.5999Z" fill="#99D2ED"/>
</svg>
