<svg width="90" height="114" viewBox="0 0 90 114" xmlns="http://www.w3.org/2000/svg"><g fill-rule="nonzero" fill="none"><path d="M32.855 106.316l-18.32-2.575L0 86.451 12.15 0l45.057 6.332C77.111 9.13 92.248 23.577 88.783 48.235 86.305 65.86 76.654 75.613 64.3 78.725l22.82 35.217-25.35-3.562-20.252-31.222-4.753-.668-3.911 27.826zm9.826-69.913L41.205 46.9l6.239.877c4.555.64 6.246-2.05 6.594-4.526.445-3.17-1.356-5.442-5.02-5.957l-6.337-.89z" fill="#1E285A"/><path d="M26.75 102.328l-10.2-1.434L6.243 88.741 16.54 90.19l10.21 12.14zM39.257 35.62L37.67 46.91l-1.684-.237 1.47-12.618-1.866 12.562-3.664-.515 1.972-16.183-2.368 16.127-3.664-.515 2.486-19.847-2.882 19.792-1.98-.279 3.13-22.28 10.636 12.703zm-5.9 41.988L30.14 100.48l-1.036-1.256 2.465-23.283-3.94 21.561-2.24-2.738 2.607-22.86-4.11 21.336-2.17-2.526 2.72-22.945-3.91 21.363-1.036-1.256 3.229-22.974 10.635 12.704zM31.812 21.04l19.607 2.756c13.864 1.948 19.71 10.647 18.096 22.134.8-8.572-2.023-18.663-18.29-20.748L34.15 23.087l16.977 2.79c8.771 1.535 16.309 7.543 14.37 19.186.781-10.594-6.032-15.288-14.675-16.3l-13.113-1.54 13.016 2.232c6.89 1.272 12.488 6.704 10.683 15.236.281-7.03-3.717-11.63-10.988-12.35l-9.152-.983 9.055 1.676c5.107 1.021 7.945 5.257 7.124 11.1.766-5.447-2.849-9.186-8.196-9.938l-7.23-1.016-10.21-12.139zm-5.915 42.087l5.347.751 7.636 11.778-2.773-.39-10.21-12.14zm51.925-14.515c-.918 6.536-4.139 14.364-10.224 18.86 7.372-4.315 11.639-12.4 12.905-21.412 1.016-7.228.038-14.637-4.035-20.864 5.22 6.691 6.597 15.57 5.4 24.086-1.391 9.902-5.844 17.153-12.113 21.523 8.672-4.94 13.387-14.78 14.751-24.485 1.142-8.12-.165-16.786-4.96-23.62 6.042 8.019 6.728 17.507 5.615 25.429-2.171 15.448-11.101 25.1-22.989 27.77l-6.386-9.884c9.23-1.733 15.608-8.309 17.195-19.598.96-6.833-.255-12.558-3.73-17.287 4.338 5.053 5.33 12.362 4.398 18.997-.904 6.436-3.62 12.82-9.508 16.638 7.501-3.793 11.09-11.367 12.245-19.586.905-6.437.084-12.813-3.591-18.278 4.978 6.254 6.113 13.987 5.027 21.711zM56.35 95.783l15.746 2.213 7.635 11.777-15.844-2.227-7.537-11.762z" fill="#99D2ED"/></g></svg>
