<svg width="120" height="110" viewBox="0 0 120 110" xmlns="http://www.w3.org/2000/svg"><g fill-rule="nonzero" fill="none"><path d="M86.345 106.86l-6.16-15.104-41.888-5.888L28.215 98.69 8.41 95.907 0 78.87 61.776 0l19.607 2.756 37.673 92.645-13.106 14.214-19.607-2.755h.002zM61.156 56.868l5.248.737-1.935-4.917-3.313 4.18z" fill="#1E285A"/><path d="M5.167 81.616l13.864 1.949 5.754 11.513-13.864-1.949-5.754-11.513zm28.824 1.123l-7.293 8.063-1.52-2.839 6.825-9.038-7.293 8.063-1.42-2.825L30 75.21l-7.095 8.091-.625-1.3 7.29-9.477 5.782 11.315-7.375 9.365-.71-1.413 6.724-9.052zm52.487 2.327l7.724 19.768-1.584-.223-7.592-17.83-46.06-5.666 44.663 6.984 6.004 16.193-.693-.097-6.158-15.104-43.869-6.165-5.852-11.527 45.156 6.346L66.91 49.7l8.136-10.47 27.164 66.831-.793-.111-27.552-64.06 24.384 63.613-1.486-.209-25.606-59.947L85.626 83.23l-48.055-5.845 48.907 7.681zM68.662 48.733l11.51 30.196-44.18-5.401 46.63 7.36-13.96-32.155zm46.067 46.565l-8.803 9.467-29.652-72.836-19.643 24.807-13.072-1.837 36.057-46.03 35.113 86.429zm-3.514-3.019L79.477 9.86 46.344 54.484l32.312-38.78 32.559 76.576v-.001zm-2.751 3.047L78.391 17.584l-27.59 37.525 26.77-31.682 30.893 71.899zM52.876 59.743l15.052 2.116 4.664 11.36-15.052-2.116 13.421.068-15.112-3.84 13.42.068L54.455 63.6l13.421.069-15-3.926zm52.513 38.786L77.207 25.294 55.058 55.708l21.257-24.783 29.074 67.604z" fill="#99D2ED"/></g></svg>
