<svg width="109" height="103" viewBox="0 0 109 103" fill="none" xmlns="http://www.w3.org/2000/svg">
<path d="M47.7 102.4C21.5 102.4 0.400024 81 0.400024 49.8C0.400024 18.8 22.1 0 46.4 0H60.9C85.6 0 108.3 19.8 108.3 52.6C108.3 83.6 86.6 102.4 62.3 102.4H47.7ZM45 24.7C39.5 29.7 35.8 37.8 35.8 48.2C35.8 67.5 49.8 79 63.8 77.8C69.5 72.6 73.2 64.6 73.2 54.1C73.1 35 59.1 23.5 45 24.7Z" fill="#1E285A"/>
<path d="M61.6 4C83.7 4 104.8 21.7 104.8 53C104.8 81 85.9 98.2 64.6 99.5C80.9 92.6 92.5 76.1 92.5 53.8C92.5 31.7 78.5 15.4 61.1 15.4C46.2 15.4 32.2 27.3 32.2 48.6C32.2 67.6 44 80.2 58.9 81.6C55.5 83.5 51.8 84.4 47.8 84.4C32.6 84.4 19.9 69.9 19.9 49.5C19.9 20.9 39 4 61.6 4ZM103.1 53C103.1 29.7 89.6 5.4 61.5 5.4C36.8 5.4 20.7 23.8 20.7 49.3C20.7 58.4 25.1 68.7 30.7 74.8C25.2 66.9 22.9 57.9 22.9 49.3C22.9 23.1 36.1 6.4 61.5 6.4C87.1 6.4 102.3 30.6 102.3 53.3C102.3 64.8 98.3 77.3 90.4 86.7C99 77.9 103.1 64.8 103.1 53ZM99 53.3C99 31.2 87.2 9.3 61.3 9.3C38.4 9.3 24.7 26.7 24.7 49.1C24.7 58.7 28.5 67.2 34.7 74.1C29.3 66.6 26.9 58.5 26.9 49.1C26.9 27.4 37.2 10.3 61.3 10.3C84.6 10.3 98.2 33.3 98.2 53.6C98.2 64.8 94.1 77 86.8 86.8C94.6 78 99 64.8 99 53.3ZM94.9 53.6C94.9 33 83.5 13.2 61.2 13.2C40.3 13.2 28.8 29.7 28.8 48.7C28.8 59 33.3 67.7 39 73.4C33.6 66 30.9 58.6 30.9 48.7C30.9 29.8 39.8 14.1 61.2 14.1C82.9 14.1 94.1 36.8 94.1 53.9C94.1 64.9 90.8 76.9 83.4 86.8C91.3 77.7 94.9 64.8 94.9 53.6ZM80.8 54.3C79.7 41.2 73.4 27.2 60.8 23.3C71.8 29.1 76.7 41.3 76.7 54.7C76.7 35.7 64.8 23.3 49.9 21.7C53.3 20 57.2 18.9 61.1 18.9C76.3 18.9 89 33.4 89 53.8C89 40.9 81.1 25.5 68.3 21.2C79.9 27.5 85.5 41.3 84.9 54.1C84.2 41.2 77.5 26.5 64.7 22.4C75.7 28.3 81.3 41.8 80.8 54.3Z" fill="#99D2ED"/>
</svg>
