<svg width="121" height="103" viewBox="0 0 121 103" xmlns="http://www.w3.org/2000/svg"><g fill-rule="nonzero" fill="none"><path d="M89.4 102.4l-8.2-14.1H38.9l-8.2 14.1h-20L0 86.7 50.2 0H70l50.2 86.5-11 15.9H89.4zm-31.9-46h5.3l-2.6-4.6-2.7 4.6z" fill="#1E285A"/><path d="M5.5 88.7h14l7.3 10.6h-14L5.5 88.7zm28.7-2.9l-6.1 9-1.9-2.6 5.5-9.9-6.1 9-1.8-2.6 5.4-9.8-5.9 9-.8-1.2 5.9-10.4 7.3 10.4-6 10.3-.9-1.3 5.4-9.9zm52.3-5l10.4 18.5h-1.6l-10-16.6-46.4.8 45.2.7 8.2 15.2h-.7l-8.2-14.1H39.1l-7.4-10.6h45.6L62.2 48.5 68.8 37 105 99.4h-.8L68 39.8l33 59.6h-1.5L65.8 43.6l19.6 35.5L37 80l49.5.8zM63.8 47.3l15.6 28.3-44.5.8 47.2.8-18.3-29.9zM115.9 87l-7.4 10.6-39.5-68-16 27.3H39.8L69.1 6.3 115.9 87zm-3.9-2.5L69.1 7.3 42.5 56.1l26.6-42.9L112 84.5zm-2.3 3.4L69.1 15.1 47 56.1 69.1 21l40.6 66.9zm-60-27.5h15.2L71.1 71H55.9l13.3-1.8-15.5-1.7L67 65.7 51.8 64l13.3-1.8-15.4-1.8zm57.4 31.1L69 22.9 51.3 56.1l17.6-27.5 38.2 62.9z" fill="#99D2ED"/></g></svg>
