<svg width="119" height="110" viewBox="0 0 119 110" xmlns="http://www.w3.org/2000/svg"><g fill-rule="nonzero" fill="none"><path d="M90.715 98.704L80.632 85.882l-41.888 5.887-6.158 15.104-19.805 2.784L0 95.599 37.645 2.756 57.252 0l61.75 78.672-8.68 17.276-19.607 2.756zM52.723 57.59l5.249-.738-3.215-4.193-2.033 4.93z" fill="#1E285A"/><path d="M5.725 96.814l13.864-1.95 8.704 9.482-13.864 1.949-8.704-9.481zm28.017-6.867l-4.788 9.762-2.244-2.31 4.07-10.57-4.789 9.762-2.144-2.324L27.83 83.81l-4.59 9.734-.959-1.077 4.395-11.12 8.677 9.283-4.509 11.035-1.072-1.162 3.97-10.556zm51.095-12.23L97.711 94.59l-1.585.223-12.213-15.047-45.837 7.25 44.858-5.598L93.17 95.33l-.694.097-10.082-12.822-43.87 6.165-8.803-9.467 45.157-6.346-18.6-23.843 4.936-12.307 44.532 56.755-.792.11-44.143-53.98 40.974 54.427-1.486.209L59.16 43.76l24.35 32.427-47.804 7.627 49.13-6.097zM57.696 47.703l19.386 25.853-43.955 6.985 46.852-5.776-22.283-27.062zm57.118 32.062l-5.853 11.527-48.58-61.84-12.044 29.26-13.072 1.837L57.238 6.364l57.576 73.401zm-4.21-1.933L57.377 7.354l-19.55 52.027 20.371-46.184 52.406 64.635zM108.8 81.52L58.463 15.08l-16.18 43.676 17-37.834L108.8 81.519zM45.556 62.637l15.052-2.115 7.615 9.634-15.052 2.115 12.92-3.633-15.586.474 12.92-3.634-15.288.432 12.92-3.633-15.501.36zm61.17 22.81l-47.277-62.63-12.907 35.34 13.602-29.682 46.582 56.971z" fill="#99D2ED"/></g></svg>
