<svg width="115" height="103" viewBox="0 0 115 103" fill="none" xmlns="http://www.w3.org/2000/svg">
<path d="M79.0001 87.2V81L66.8 102.4H45.0001L35.6 85.9V102.4H17.1L0.300049 87.3V0H21.7001L34.6 11.6L55.7001 49.1L83.8 0H101.4L114.3 11.6V102.4H95.8L79.0001 87.2Z" fill="#1E285A"/>
<path d="M32.1 80V99.3H30.8L30.1 77.4L29.6 99.3H26.6L25.9001 69.8L25.4001 99.3H22.4001L21.7001 62.4L21.2001 99.3H19.9001V58.3L32.1 80ZM46.8 65.7L26.7001 30.2L47.6 62.8L31.3 30.2L49.9001 58.9L35.9001 30.2L52.3 54.9L40.7001 30.3L53.8 53.4L46.8 65.7ZM110.7 15V99.3H98.4001V39.4L64.4001 99.3H50.5001L98.3 15H99.1L53.4001 98.5L102.4 15H103.7L58.0001 98.5L103.5 21.1L104.7 98.5L106.3 15H107.4L108.9 98.5L110.4 15H110.7ZM102.1 26.2L62.6 98.5L99.6 35.1L100.5 98.5L102.1 26.2ZM94.9001 53.3V97L93.6 95.9L93.0001 57.5L92.3 94.8L89.3 92.2L88.8 65L88.1 91.2L84.9001 88.4L84.5001 72.5L84.0001 87.5L82.5001 86V75L94.9001 53.3Z" fill="#99D2ED"/>
</svg>
