<svg width="87" height="103" viewBox="0 0 87 103" fill="none" xmlns="http://www.w3.org/2000/svg">
<path d="M35.8 71.5V87.4L19 102.5H0.5V9.1L10.5 0H31.5L51.1 29.9V15.1L67.9 0H86.4V90.8L73.5 102.4H56.2L35.8 71.5Z" fill="#1E285A"/>
<path d="M29.4 88.7L17.5 99.3H7.20001L19 88.7H29.4ZM57.4 97.6L19.2 39.5L58.3 95.3L18 30.3L61.2 92.7L22.8 30.3L64.4 90L27.4 30L66.5 89.6L57.4 97.6ZM32.3 66.5V85.1H31L30.3 64.2L29.8 85.1H26.8L26.1 57.8L25.6 85.1H22.6L21.9 51.3L21.4 85.1H20V47.7L32.3 66.5ZM47.3 53.4L72.4 88.3H70.3L47.3 53.4ZM76.9 88.3H73.2L52.1 53.4L76.9 88.3ZM62.9 32.8L64.9 51.2L54.7 35.7V30.2L56.7 38.7L58.8 31.6L60.8 44.9L62.9 32.8ZM74.2 4H75.3L76.8 86.6L57 53.4L73.5 75.5L74.2 4ZM80.2 91.9L72 99.3H61L69.2 91.9H80.2ZM70.6 4H71.1L72.2 71.4L61.8 53.4L70.7 66.9V4H70.6ZM64.9 51.2L67 34.2V54.4L64.9 51.2ZM79.3 4L80.6 88.3H77.4L78.3 4H79.3ZM81.4 88.3L82.3 4H82.8V88.3H81.4Z" fill="#99D2ED"/>
</svg>
