<svg width="199" height="302" viewBox="0 0 199 302" xmlns="http://www.w3.org/2000/svg"><path d="M112.283 240.867c2.988-.69 6.584-1.539 10.206-2.308 2.169-.451 4.364-.77 6.559-1.088.21-.026.555.159.634.371.106.187.053.584-.105.744-.477.557-.98 1.087-1.534 1.592-6.03 5.438-12.085 10.878-18.114 16.317-7.616 6.872-15.178 13.796-22.846 20.59-7.378 6.553-14.862 13.027-22.345 19.475-1.878 1.618-3.887 3.104-5.87 4.642-.715.532-1.217.345-1.402-.503-.45-2.283-.925-4.538-1.217-6.82-.581-4.484-1.084-8.994-1.585-13.504-.556-5.147-1.032-10.296-1.587-15.443-.423-4.033-.873-8.092-1.322-12.125-.53-4.696-1.085-9.367-1.64-14.036a11836 11836 0 01-1.428-12.125c-.212-1.751-.37-3.503-.53-5.254-.025-.45.054-.928.134-1.38.052-.371.555-.61.845-.397.53.37 1.059.743 1.508 1.194a155.09 155.09 0 014.39 4.988c3.225 3.82 6.399 7.642 9.598 11.461.397.478.714.478 1.084 0a49.566 49.566 0 001.56-2.308c9.493-14.778 18.986-29.557 28.506-44.335 7.22-11.198 14.49-22.34 21.736-33.511.45-.69.873-1.406 1.349-2.096 1.137-1.698.396-1.566-.978-1.646-15.655-.822-31.283-1.618-46.937-2.493-20.335-1.168-40.643-2.415-60.978-3.609l-6.61-.398c-.45-.027-.926-.027-1.375-.106-1.164-.186-1.561-1.115-.846-2.017.448-.584.978-1.114 1.48-1.644a241791.93 241791.93 0 0179.488-86.179c14.173-15.336 28.373-30.619 42.6-45.927 2.697-2.919 5.5-5.732 8.276-8.57.398-.398.794-.77 1.19-1.169.688-.742 1.534-.928 2.513-.769 1.004.186 2.009.318 2.987.557 10.975 2.494 21.922 5.016 32.896 7.536 7.827 1.804 15.628 3.581 23.455 5.386.713.16 1.428.318 2.142.531.899.265 1.084.901.475 1.697-.502.664-1.057 1.3-1.612 1.91-7.51 8.173-14.914 16.398-22.53 24.465-23.296 24.648-46.646 49.218-69.969 73.84-.449.477-.899.928-1.322 1.406-.105.133-.21.451-.184.478.158.132.396.291.607.291 6.532.027 13.09.053 19.621.053 18.14 0 36.307-.026 54.447-.026 1.058 0 2.406-.424 2.987.796.53 1.167-.528 2.069-1.136 2.944a3420.763 3420.763 0 01-16.29 23.827 10238.781 10238.781 0 01-19.091 27.594c-12.005 17.325-24.037 34.625-36.069 51.95-4.045 5.838-8.064 11.729-12.11 17.593-.265.37-.53.769-.74 1.166-.08.133-.08.399 0 .505.079.08.344.08.502.027.714-.16 1.427-.345 2.142-.532 4.653-1.114 9.228-2.28 14.385-3.608z" fill="#131B43" fill-rule="nonzero"/></svg>
