<svg width="107" height="239" viewBox="0 0 107 239" fill="none" xmlns="http://www.w3.org/2000/svg"><path d="M104.533 128.298c-.472 8.413-.944 16.783-1.417 25.196-.043.429 0 .901.129 1.331 2.276 7.812 3.006 15.881 3.435 23.951.816 14.508.172 28.887-3.091 43.095-.43 1.889-1.16 3.691-1.675 5.537-1.631 5.623-5.753 8.542-11.034 10.044-2.06.601-4.207 1.116-6.354 1.202-21.51 1.116-42.763-.214-63.242-7.769-3.52-1.288-6.827-3.048-10.304-4.55-2.92-1.288-4.809-3.477-5.582-6.481-1.46-5.838-3.048-11.676-3.993-17.599-2.275-14.766-1.846-29.488 1.718-44.082 1.502-6.181 3.477-12.276 6.912-17.728.344-.558.601-1.245.644-1.888 2.104-19.659 6.955-38.717 12.966-57.475 5.539-17.255 12.108-34.081 20.394-50.22C48.805 21.633 54.3 12.877 61.341 5.193c1.16-1.244 2.362-2.446 3.693-3.52 2.533-2.06 5.023-2.317 7.47-.214 2.362 2.06 4.809 4.378 6.269 7.082 3.134 5.795 6.096 11.718 8.372 17.9 7.342 19.701 11.807 40.133 14.383 60.994 1.76 13.521 2.619 27.17 3.005 40.863zM54.3 138.042c.43.3.816.815 1.288.901 2.791.558 5.582.944 8.372 1.502 7.385 1.46 14.64 3.305 21.64 6.095 1.588.644 3.348 1.031 4.894 3.091-1.932-.301-3.306-.386-4.594-.687-3.435-.858-6.827-1.846-10.219-2.704-18.848-4.893-37.91-7.726-57.403-5.838-.944.086-1.889.258-2.92.43 4.123 8.413 20.48 29.102 26.105 33.094.687-.988 1.33-2.104 2.147-3.005 3.177-3.477 7.513-2.576 9.102 1.803.343.901.6 1.803.944 2.833 3.736-2.361 7.17-4.593 10.648-6.739 8.801-5.409 17.646-10.817 26.49-16.225 1.117-.687 2.19-1.717 3.693-1.031-1.503 8.671-3.478 17.17-4.38 25.84-.944 8.8-1.159 17.728-1.073 26.57.086 8.671.902 17.341 1.46 26.613-2.319-2.404-2.748-4.98-3.22-7.469-4.466-21.934-2.448-43.482 4.25-64.686.43-1.373.945-2.747 1.46-4.378-.601.215-.945.215-1.202.386-11.249 7.34-22.498 14.68-33.704 22.063-4.937 3.262-4.894 3.262-4.98 9.314-.043 3.048-.215 6.053-.343 9.315H41.42c-1.675-2.619-3.091-5.065-2.748-8.027.3-2.79-.901-5.966 2.319-8.027-11.25-10.945-19.707-23.693-27.95-36.785-1.89 7.426-3.435 14.723-4.81 22.063-2.962 15.667-3.477 31.42-.944 47.215 1.632 10.259 1.718 10.13 11.249 13.607 21.51 7.855 43.707 10.516 66.462 9.572 2.834-.129 5.624-.815 8.415-1.288 1.718-.3 2.834-1.201 3.306-2.961 1.331-5.151 3.091-10.259 4.036-15.496 2.834-15.538 2.962-31.248 1.674-46.958-.429-5.194-.858-10.43-.901-15.667-.172-21.29-.387-42.58-3.306-63.741-2.748-20.003-7.041-39.662-13.782-58.72-2.705-7.64-5.882-15.066-10.132-21.977-.773-1.244-1.76-2.403-2.62-3.562 3.435 6.782 6.913 13.435 9.017 20.646 3.005 10.387 6.053 20.775 8.458 31.291 3.306 14.422 5.023 29.145 6.526 43.868 1.545 15.195 2.232 30.433 1.889 45.713 0 .859-.215 1.675-.3 2.361-1.503-.644-2.749-1.33-4.08-1.674-12.794-3.605-25.674-6.996-38.898-8.541zm41.646 6.009c0-.859.043-1.545 0-2.189-1.288-15.539-2.361-31.077-3.95-46.615-1.76-17.213-4.593-34.296-8.887-51.08-2.705-10.472-5.71-20.86-10.476-30.604-1.33-2.704-3.048-5.193-4.852-8.284-1.76 2.49-3.305 4.336-4.508 6.353C55.76 24.38 49.02 37.558 43.695 51.422 33.52 77.949 26.179 105.29 19.524 132.805c-.085.386-.042.815-.085 1.245 26.361-2.662 51.735-.043 76.508 10.001zm-82.176-8.284c1.675.085 2.19-.73 2.405-2.061a208.053 208.053 0 011.717-8.713c4.25-19.573 9.531-38.889 15.757-57.904.343-1.03.601-2.103.901-3.176-6.654 12.49-18.633 54.727-20.78 71.854zm27.693 46.486c-.129 2.704-.258 5.065-.386 7.64h6.869v-7.34c-2.06-.086-4.165-.172-6.483-.3zm9.918-2.919c-.516-2.146-.687-3.992-1.374-5.58-.945-2.189-2.662-2.404-4.25-.644-1.503 1.674-2.49 3.691-2.877 6.224h8.5z" fill="#131B43"/><path d="M54.3 138.042c13.225 1.588 26.105 4.936 38.9 8.498 1.33.387 2.575 1.073 4.078 1.674.086-.686.257-1.545.3-2.36.344-15.281-.343-30.476-1.889-45.714-1.502-14.723-3.22-29.445-6.526-43.868-2.404-10.516-5.452-20.903-8.458-31.29-2.103-7.212-5.581-13.865-9.016-20.647.902 1.202 1.846 2.318 2.62 3.563 4.25 6.91 7.427 14.336 10.132 21.976 6.74 19.058 11.034 38.675 13.781 58.72 2.92 21.161 3.135 42.451 3.306 63.741.043 5.237.473 10.473.902 15.667 1.288 15.71 1.202 31.42-1.674 46.958-.945 5.237-2.705 10.302-4.036 15.496-.473 1.803-1.589 2.704-3.306 2.962-2.79.472-5.582 1.158-8.415 1.287-22.755.987-44.952-1.717-66.462-9.572-9.575-3.476-9.618-3.348-11.25-13.606-2.532-15.796-2.017-31.549.945-47.216 1.374-7.34 2.92-14.637 4.809-22.063 8.243 13.092 16.701 25.84 27.95 36.786-3.22 2.06-2.018 5.236-2.318 8.026-.344 2.962 1.073 5.409 2.747 8.027h11.335c.129-3.219.258-6.267.344-9.315.085-6.052.043-6.052 4.98-9.314 11.206-7.383 22.455-14.723 33.703-22.063.258-.171.558-.171 1.202-.386-.558 1.631-1.03 3.005-1.46 4.378-6.697 21.205-8.715 42.752-4.25 64.686.515 2.49.902 5.065 3.22 7.469-.558-9.272-1.374-17.942-1.46-26.613-.085-8.885.13-17.77 1.074-26.57.901-8.627 2.876-17.169 4.38-25.839-1.504-.687-2.577.386-3.693 1.03a3359.638 3359.638 0 00-26.49 16.225 659.337 659.337 0 00-10.648 6.739c-.344-1.03-.601-1.932-.945-2.833-1.588-4.378-5.925-5.28-9.102-1.803-.816.901-1.417 2.017-2.147 3.005-5.624-3.992-21.982-24.681-26.104-33.094 1.074-.172 1.975-.344 2.92-.43 19.535-1.888 38.598.902 57.403 5.838 3.392.901 6.784 1.889 10.218 2.704 1.288.344 2.662.429 4.594.687-1.545-2.017-3.306-2.447-4.894-3.091-6.998-2.79-14.254-4.635-21.639-6.095-2.79-.558-5.581-.944-8.372-1.502-.472-.086-.859-.558-1.288-.858zm40.359 88.164c.472-3.82 1.116-7.64 1.417-11.46.644-8.156 1.33-16.311 1.588-24.509.344-10.688.344-21.333.387-32.021 0-1.589-.43-3.22-.773-5.452-2.447 6.482-4.938 68.935-2.62 73.442z" fill="#EDA898"/><path d="M13.77 135.767c2.147-17.126 14.125-59.32 20.823-71.81-.3 1.072-.558 2.145-.902 3.175-6.268 19.015-11.506 38.331-15.756 57.904a195.255 195.255 0 00-1.718 8.714c-.214 1.287-.73 2.06-2.447 2.017z" fill="#D67B72"/><path d="M41.463 182.252c2.361.129 4.422.215 6.483.344v7.34h-6.87c.129-2.619.258-4.979.387-7.684zM51.38 179.334h-8.5c.386-2.533 1.374-4.55 2.877-6.224 1.588-1.76 3.306-1.545 4.25.644.687 1.631.859 3.434 1.374 5.58z" fill="#FFC229"/><path d="M94.658 226.206c-2.318-4.507.13-66.96 2.62-73.442.343 2.232.772 3.863.772 5.451-.043 10.688-.043 21.376-.386 32.021-.258 8.156-.945 16.354-1.589 24.51-.3 3.82-.944 7.64-1.417 11.46z" fill="#131B43"/></svg>
