<svg width="172" height="197" viewBox="0 0 172 197" fill="none" xmlns="http://www.w3.org/2000/svg"><path d="M22.255 50.266c-2.607 3.8-5.01 7.464-7.55 10.994-.813 1.143-.237 2.05.136 2.992a8588.722 8588.722 0 009.987 26.827c.576 1.58 1.186 3.16 1.863 4.942 2.505-1.849 5.248-2.521 8.092-2.924 1.218-.169 2.37-.774 3.487-1.345 3.86-2.017 7.449-1.748 10.699 1.143 1.66 1.479 3.521 2.387 5.722 2.757 4.334.706 7.516 2.992 9.886 6.723.982 1.547 2.404 2.891 3.894 3.967 3.792 2.656 5.688 6.052 5.282 10.691-.271 2.958.135 5.85 1.591 8.573 1.32 2.487 1.151 5.211.339 7.833-.373 1.277-.948 2.521-1.558 3.698-1.15 2.252-1.963 4.572-2.065 7.127-.17 4.101-2.133 7.127-5.756 9.043-2.099 1.11-3.927 2.455-5.45 4.27-1.423 1.714-3.285 2.387-5.486 2.286-3.149-.168-6.23.168-9.31.874-4.538 1.009-8.465-.605-11.885-3.631-1.523-1.344-3.08-2.689-4.74-3.933-2.235-1.681-3.08-4.068-3.893-6.556-.576-1.748-1.22-3.53-2.1-5.143-3.724-7.027-5.823-14.356-4.537-22.39.034-.269 0-.572.136-.774 1.354-2.79.372-5.177-.88-7.765C11.42 96.324 5.767 81.7 2.55 66.235c-.406-1.916-.237-4.169-2.268-5.48-.271-.269-.305-.907-.271-1.344.101-1.143.068-2.354.44-3.43.677-2.017 1.422-4.067 2.404-5.916 2.133-3.967 4.706-7.598 5.891-12.137 1.185-4.639 4.57-8.203 7.957-11.598 6.568-6.59 14.322-11.565 22.718-15.565C55.47 3.133 72.297-1.002 90.208.207c5.586.37 11.037 1.547 16.014 4.236 1.727.942 3.42 2.017 4.842 3.328 1.253 1.177 2.607 1.749 4.232 2.085 5.485 1.177 10.564 3.463 15.372 6.22 3.825 2.218 6.67 5.244 8.227 9.513 3.589 9.85 6.399 19.869 7.753 30.257.441 3.261.711 6.556.948 9.85.068.908.373 1.412 1.118 1.95 13.881 9.817 19.129 23.5 17.741 40.006-.406 4.673-2.302 8.976-4.604 13.145 2.81 5.48 4.909 11.262 6.568 17.179 1.93 6.724 3.149 13.515 3.555 20.508.203 3.698-.779 6.925-3.047 9.715a76.327 76.327 0 01-6.569 7.06c-3.758 3.497-8.024 6.287-12.595 8.64-.778.404-1.557.841-2.505 1.311 1.151 3.564.068 6.522-2.709 8.842-2.979 2.488-6.433 3.496-10.292 2.656-5.282-1.143-7.551-6.287-4.91-10.96 2.709-4.74 9.514-7.026 14.525-4.673 1.524.706 2.573.639 3.894-.269 6.026-4.101 11.85-8.371 16.455-14.086.677-.84 1.286-1.714 1.929-2.588 1.287-1.749 1.49-3.665 1.321-5.816-.779-10.086-4.334-19.432-7.415-28.946-.406-1.244-.914-2.454-1.456-3.9-.779.706-1.32 1.143-1.794 1.647-4.232 4.169-9.277 6.422-15.236 7.228-4.131.538-7.584-.302-10.869-2.655-.778-.572-1.692-1.076-2.64-1.312-5.079-1.21-7.754-4.841-9.616-9.312a23.783 23.783 0 01-.711-2.017c-.745-2.723-2.065-5.144-3.961-7.194-2.303-2.488-3.42-5.413-3.285-8.775.136-3.294-.507-6.354-2.268-9.211-1.185-1.95-1.253-4.102-.677-6.22.508-1.815 1.253-3.53 1.828-5.312.44-1.344.813-2.723 1.05-4.135.948-5.379 3.589-9.38 8.837-11.53 4.943-2.018 9.954-3.598 15.337-3.53.136 0 .305-.169.677-.37-.541-3.228-1.049-6.556-1.659-9.884-1.693-9.582-4.063-18.995-7.008-28.274-.373-1.21-.948-2.017-2.167-2.487-2.472-1.009-4.91-2.118-7.517-3.261-2.031 3.563-5.315 4.773-9.04 5.009-1.049.067-2.234 0-3.148-.47-1.524-.808-2.675-.404-3.962.369-3.724 2.219-7.652 3.026-11.85 1.48-1.524-.572-2.81-.169-4.063.638a250.256 250.256 0 00-4.943 3.26c-3.454 2.388-7.28 3.632-11.444 3.094-3.826-.47-6.84.807-9.548 3.294a72.826 72.826 0 01-2.404 2.152c-3.284 2.925-7.144 4.505-11.545 4.202-3.521-.235-6.264 1.11-8.702 3.396-.981.908-1.896 1.883-2.911 2.79-3.115 2.824-6.569 4.27-11.106 2.185zm0 74.903c-.101.538-.203.806-.169 1.075.745 6.522 2.912 12.507 7.246 17.549 1.32 1.513 3.013 2.824 4.807 3.799 3.522 1.883 6.806.908 8.634-2.622 1.016-1.916 1.625-4.169 1.998-6.32.71-4.102 0-8.17-.78-12.204-.168-.975-.236-1.95-.338-2.958.203-.034.44-.068.644-.135 2.37 2.891 3.013 6.455 3.453 10.019.813 6.353.271 12.438-4.74 17.582 4.368 1.009 7.55-.437 10.191-3.295 3.488-3.765 5.079-8.337 5.553-13.346.17-1.647.339-3.261.542-5.245 2.2 3.362 2.336 8.573.677 19.6 3.792 2.152 7.686.538 8.193-3.765.474-4.068 1.693-7.8 3.318-11.498 1.016-2.286 1.084-4.673-.067-6.993-1.422-2.891-1.862-5.984-1.592-9.11.271-3.295-.846-5.682-3.69-7.43-1.998-1.21-3.69-2.824-4.842-4.908-1.591-2.925-4.029-4.707-7.347-5.346-2.607-.504-4.875-1.68-6.94-3.328-3.048-2.42-4.504-2.32-8.228.135 4.875 2.151 8.803 5.311 11.884 9.48 3.081 4.202 5.282 8.808 6.636 14.053-.542-.135-.779-.135-.846-.236-.542-.806-1.084-1.613-1.558-2.487-2.742-4.942-5.925-9.548-10.259-13.313-2.438-2.085-5.18-3.53-8.43-3.866-2.641-.27-5.147.134-7.381 1.916.508 1.513 1.05 2.925 1.456 4.37.338 1.21 1.015 1.916 2.268 2.353 3.792 1.379 6.4 4.169 8.566 7.43.44.639.847 1.345-.101 2.354-.712-.807-1.287-1.581-1.964-2.219-1.727-1.648-3.488-3.295-5.316-4.875-.372-.336-1.016-.37-1.76-.605 1.455 5.043 3.42 9.615 3.622 14.658a6.044 6.044 0 01-1.625-2.018c-1.286-2.857-2.675-5.647-3.724-8.572-5.96-16.07-11.783-32.173-17.606-48.277-.339-.907-.677-1.781-.948-2.588-2.269-.303-4.3-.538-6.467-.807.17.807.237 1.311.372 1.815 1.66 5.547 3.285 11.128 5.045 16.641 4.57 14.49 10.7 28.375 16.624 42.326.745 1.782 1.896 3.463 3.081 5.01.779 1.008 1.964 1.68 3.081 2.588.78-1.076 1.32-1.815 1.93-2.622 1.66 2.656.508 5.11-2.302 5.177-2.743.067-4.842-1.277-6.535-3.227-1.523-1.715-2.708-3.597-4.266-5.715zM126.3 68.723c-2.167.403-4.029.672-5.824 1.11-3.724.874-6.365 4.168-6.907 7.967-.304 2.286-.948 4.505-1.523 6.724-.339 1.378-1.016 2.69-1.185 4.101-.169 1.177-.169 2.589.372 3.597 1.829 3.396 2.675 6.96 2.573 10.792-.033 1.883.271 3.832 1.659 5.244 3.319 3.362 5.215 7.363 6.569 11.801.745 2.487 2.404 4.605 4.875 5.816 2.641 1.311 5.35 2.487 8.025 3.664 2.911 1.278 4.807.941 7.11-1.177.846-.806 1.591-1.748 2.573-2.319 2.912-1.748 4.977-3.934 6.399-7.195 1.05-2.42 2.539-4.639 2.709-7.396 0-.067.271-.101.541-.201 1.558 2.386.847 5.009.61 7.665 2.37-1.513 3.724-3.093 5.18-6.119 2.539-5.211 3.352-10.624 2.201-16.372-2.099-10.523-6.738-19.5-15.304-26.256-3.013-2.387-6.433-3.8-10.293-4.304-3.859-.504-7.482.236-11.139 1.278-.135.034-.237.168-.406.302.339.337.609.64 1.185 1.278zm-14.457-54.63c.101-.168.203-.303.304-.47-1.015-1.178-1.929-2.421-3.047-3.464-2.404-2.218-5.315-3.597-8.43-4.639-5.214-1.782-10.632-2.488-16.15-2.488C70.943 3 58.009 6.058 45.55 11.202c-8.6 3.53-16.625 8-23.701 14.019-4.063 3.429-7.584 7.328-10.259 11.934-.44.773-.812 1.614-1.219 2.488 2.303 0 4.266-.168 6.196.067 1.49.168 2.946.74 4.334 1.345 3.216 1.48 6.06 1.176 8.6-1.379a80.165 80.165 0 011.727-1.68c2.64-2.42 5.484-4.27 9.277-4.236 2.505 0 4.74-.942 6.703-2.42 1.355-1.01 2.709-2.052 4.063-3.06 1.998-1.48 3.996-3.026 6.06-4.438 2.439-1.647 5.181-2.454 8.16-2.185 2.675.269 5.18-.336 7.55-1.513a347.925 347.925 0 007.89-4.034c4.3-2.286 8.769-3.06 13.509-1.715 2.1.606 4.232.538 6.365-.1 3.623-1.076 7.313-1.85 11.038-.202zM12.606 61.125c.575-1.11 1.05-2.151 1.659-3.126 2.133-3.396 4.232-6.791 6.433-10.12 1.185-1.781 1.32-2.689-.576-3.597-1.896-.907-4.063-1.244-6.06-1.916-1.456-.47-2.336.1-3.183 1.244-2.912 3.967-5.45 8.136-7.313 12.708-.339.807-.542 1.68-.813 2.622 3.284.706 6.4 1.412 9.853 2.185zm120.262-24.81c2.167 9.144 4.233 17.851 4.639 26.995l7.652 2.354c-1.422-7.699-2.709-14.96-4.165-22.155-.982-4.942-1.185-5.01-6.06-6.656-.508-.202-1.016-.27-2.066-.538zm.508-13.347c-4.706-5.547-11.004-8.136-17.944-10.186.237 2.521.982 3.866 3.419 4.27 2.336.403 4.639 1.344 6.84 2.285 2.64 1.11 5.146 2.42 7.685 3.631z" fill="#131B43"/><path d="M22.255 125.168c1.524 2.118 2.742 4.001 4.165 5.682 1.658 1.95 3.792 3.295 6.534 3.227 2.81-.067 3.961-2.487 2.302-5.177-.575.807-1.15 1.547-1.93 2.622-1.117-.907-2.302-1.58-3.08-2.588-1.186-1.547-2.337-3.228-3.082-5.009-5.925-13.952-12.053-27.837-16.624-42.326-1.726-5.514-3.385-11.094-5.045-16.642-.135-.504-.203-1.042-.372-1.815 2.2.269 4.198.538 6.467.807.305.807.643 1.715.948 2.589 5.823 16.103 11.647 32.206 17.538 48.276 1.084 2.925 2.438 5.749 3.724 8.573.34.773.88 1.445 1.626 2.017-.204-5.043-2.167-9.615-3.623-14.658.745.235 1.388.269 1.76.605a121.197 121.197 0 015.316 4.875c.677.639 1.253 1.412 1.964 2.219.948-1.009.542-1.681.101-2.354-2.133-3.261-4.774-6.051-8.566-7.429-1.218-.437-1.896-1.143-2.268-2.354-.406-1.445-.948-2.857-1.456-4.37 2.235-1.782 4.74-2.185 7.381-1.916 3.217.336 5.993 1.748 8.43 3.866 4.334 3.731 7.517 8.337 10.26 13.313.474.84 1.015 1.681 1.557 2.488.068.1.305.1.846.235-1.32-5.245-3.555-9.817-6.636-14.053-3.047-4.202-7.008-7.328-11.884-9.48 3.725-2.488 5.18-2.555 8.228-.135 2.099 1.648 4.367 2.824 6.94 3.329 3.319.638 5.722 2.42 7.348 5.345 1.15 2.084 2.844 3.698 4.841 4.908 2.844 1.715 3.962 4.135 3.69 7.43-.27 3.127.17 6.253 1.592 9.111 1.151 2.319 1.084 4.706.068 6.992-1.625 3.698-2.844 7.43-3.318 11.498-.508 4.303-4.402 5.917-8.194 3.765 1.66-11.027 1.524-16.238-.677-19.599-.203 1.949-.372 3.597-.542 5.244-.474 5.009-2.065 9.581-5.552 13.347-2.641 2.857-5.824 4.303-10.191 3.294 5.01-5.143 5.552-11.228 4.74-17.582-.44-3.564-1.084-7.127-3.454-10.019-.203.034-.44.068-.643.135.101.975.17 1.983.338 2.958.745 4.035 1.49 8.102.78 12.204-.373 2.151-.983 4.37-1.998 6.32-1.863 3.53-5.113 4.505-8.634 2.622-1.76-.941-3.488-2.286-4.808-3.799-4.334-5.042-6.5-11.026-7.245-17.548.169-.236.27-.505.338-1.043z" fill="#5B93B2"/><path d="M126.3 68.723l-1.151-1.278c.169-.1.27-.268.406-.302 3.657-1.042 7.279-1.782 11.139-1.278 3.86.505 7.279 1.917 10.293 4.303 8.566 6.758 13.204 15.734 15.303 26.257 1.152 5.748.339 11.161-2.2 16.372-1.456 2.992-2.81 4.606-5.18 6.118.237-2.622.948-5.244-.61-7.665-.271.101-.508.169-.542.202-.169 2.757-1.659 4.942-2.708 7.396-1.422 3.261-3.488 5.446-6.399 7.195-.982.571-1.727 1.546-2.574 2.319-2.302 2.118-4.198 2.454-7.11 1.177-2.674-1.21-5.383-2.353-8.024-3.664-2.438-1.211-4.097-3.329-4.875-5.816-1.355-4.438-3.251-8.472-6.569-11.801-1.388-1.412-1.693-3.361-1.659-5.244.068-3.833-.779-7.396-2.573-10.792-.542-1.008-.542-2.42-.372-3.597.169-1.378.846-2.723 1.185-4.101.575-2.22 1.185-4.472 1.523-6.724.508-3.799 3.183-7.06 6.907-7.968 1.761-.403 3.623-.706 5.79-1.11zm9.243 22.592c1.083 1.344 1.761 2.588 2.81 3.328 1.354.941 1.659 2.151 1.896 3.597.406 2.723.779 5.446 2.302 7.9.373.572.373 1.614.136 2.286-1.117 3.228-2.269 6.455-6.128 7.497-.44.101-.813.37-1.219.572-2.133 1.143-3.691 2.79-4.605 5.043-.305.807-.575 1.58.169 2.689 1.964-2.925 4.131-5.177 7.483-5.95.576 6.69.576 6.69 1.998 7.53.067-.369.203-.706.203-1.042.135-3.799 1.252-7.362 2.979-10.724.576-1.11 1.117-2.286 1.355-3.463.27-1.277.846-2.017 2.302-1.916-.169-.437-.203-.74-.373-.941-2.471-2.791-3.284-6.254-4.063-9.75-.237-1.076-.101-1.849 1.118-2.387-.711-.672-1.185-1.21-1.761-1.614-2.234-1.546-3.589-3.698-4.232-6.32-.203-.773-.44-1.546-.677-2.32-.711-2.151-2.032-3.731-4.199-4.572-.575-.235-1.151-.537-1.726-.74-2.438-.84-4.165-2.386-4.91-4.907-.135-.505-.541-.942-1.015-1.681-1.185 2.756-.068 4.807 1.049 6.824-3.555.74-5.756-2.118-8.938-3.294.271 1.815.982 2.824 1.896 3.664.948.84 1.997 1.546 3.013 2.32-.034.168-.068.336-.068.504-1.997.134-3.961.269-5.958.437 3.419 2.958 7.245 2.656 11.071 1.647 4.131 4.774 4.605 5.11 8.092 5.783zm12.967-8.237c.542-2.588-.067-4.169-2.539-5.413-1.659-.84-2.641-1.95-3.25-3.63-.813-2.354-2.607-3.9-4.91-4.539-2.674-.74-5.485-1.143-8.227-1.68-.068.201-.169.403-.237.604.711.437 1.388.942 2.133 1.278 1.219.538 2.505.941 3.792 1.345 2.539.806 4.3 2.32 5.18 4.942.407 1.21 1.219 2.454 2.167 3.227 1.761 1.412 3.792 2.521 5.891 3.866zm-18.621 29.45c.169-1.009.474-1.95.406-2.858-.169-2.824-.982-5.513-3.115-7.463-1.354-1.21-1.625-2.42-1.456-4.169.406-3.866-1.151-6.959-4.672-8.875-.373-.202-.88-.168-1.524-.302 3.386 4.84 3.725 5.816 3.623 10.253h-2.641c2.133 2.152 4.266 3.799 5.722 5.917 1.524 2.152 2.404 4.807 3.657 7.497zm23.598-7.531c.204.068.441.135.644.236.508-.639 1.151-1.211 1.49-1.95 1.286-2.891 1.083-5.749-.745-8.371-1.389-1.984-2.675-3.967-3.318-6.354-.204-.74-.474-1.58-1.592-1.379-.677 3.329-.44 5.11 1.524 7.8 1.727 2.387 2.505 4.841 2.031 7.766-.135.74-.034 1.513-.034 2.252zM111.843 14.092c-3.759-1.647-7.415-.874-11.038.202-2.133.639-4.266.673-6.365.101-4.774-1.345-9.21-.571-13.51 1.715a347.518 347.518 0 01-7.888 4.034c-2.37 1.177-4.876 1.748-7.55 1.513-2.98-.27-5.723.538-8.16 2.185-2.066 1.378-4.063 2.925-6.06 4.438-1.355 1.008-2.71 2.05-4.064 3.059-1.997 1.48-4.232 2.454-6.704 2.42-3.792-.033-6.67 1.816-9.277 4.236a40.508 40.508 0 00-1.726 1.681c-2.506 2.589-5.35 2.892-8.6 1.379-1.354-.64-2.844-1.177-4.334-1.345-1.93-.235-3.894-.067-6.196-.067.44-.874.779-1.715 1.219-2.488 2.64-4.606 6.196-8.472 10.259-11.935 7.11-6.017 15.134-10.489 23.734-14.019 12.46-5.143 25.393-8.203 38.936-8.169 5.485 0 10.903.706 16.151 2.488 3.081 1.042 5.992 2.42 8.43 4.64 1.117 1.041 2.032 2.319 3.047 3.462-.101.168-.203.302-.304.47z" fill="#585E92"/><path d="M12.605 61.125c-3.453-.773-6.568-1.479-9.818-2.219.304-.941.474-1.815.812-2.622 1.862-4.572 4.368-8.74 7.313-12.708.847-1.11 1.693-1.714 3.183-1.244 2.031.673 4.198 1.009 6.06 1.917 1.897.907 1.795 1.781.576 3.597-2.234 3.328-4.334 6.724-6.433 10.119-.643.975-1.117 2.05-1.693 3.16z" fill="#99D2ED"/><path d="M132.868 36.315c1.05.268 1.558.336 2.065.504 4.876 1.647 5.079 1.714 6.061 6.656 1.456 7.228 2.709 14.456 4.164 22.155-2.81-.874-5.214-1.614-7.651-2.353-.373-9.111-2.472-17.818-4.639-26.962z" fill="#5B93B2"/><path d="M133.376 22.968c-2.539-1.21-5.045-2.555-7.652-3.63-2.234-.942-4.503-1.883-6.839-2.287-2.438-.403-3.183-1.748-3.42-4.27 6.907 2.051 13.239 4.674 17.911 10.187z" fill="#99D2ED"/><path d="M135.543 91.314c-3.488-.672-3.962-1.042-8.058-5.748-3.826 1.008-7.686 1.277-11.072-1.648 1.998-.134 3.961-.269 5.959-.437.034-.168.068-.336.068-.504-1.016-.773-2.099-1.48-3.014-2.32-.914-.84-1.625-1.815-1.896-3.664 3.183 1.177 5.35 4.034 8.939 3.294-1.117-2.017-2.235-4.067-1.05-6.824.474.74.881 1.177 1.016 1.68.745 2.556 2.472 4.069 4.909 4.91.576.2 1.151.503 1.727.739 2.167.807 3.487 2.42 4.198 4.572.237.773.508 1.513.678 2.32.643 2.622 1.963 4.74 4.232 6.32.575.403 1.049.941 1.76 1.614-1.219.537-1.354 1.31-1.117 2.386.813 3.497 1.591 6.96 4.063 9.75.169.168.203.471.372.941-1.455-.067-2.031.639-2.302 1.916-.237 1.211-.812 2.354-1.354 3.463-1.727 3.396-2.844 6.926-2.98 10.724 0 .337-.135.673-.203 1.043-1.388-.874-1.388-.874-1.997-7.531-3.352.773-5.519 3.026-7.483 5.951-.745-1.11-.474-1.917-.169-2.69.914-2.252 2.437-3.9 4.604-5.043.407-.201.779-.47 1.219-.571 3.86-1.042 5.011-4.27 6.128-7.497.238-.673.204-1.715-.135-2.286-1.524-2.454-1.896-5.177-2.302-7.9-.203-1.48-.542-2.656-1.896-3.598-1.084-.773-1.761-2.017-2.844-3.362zM148.51 83.078c-2.099-1.345-4.131-2.42-5.891-3.866-.982-.774-1.761-2.051-2.167-3.228-.88-2.622-2.641-4.135-5.18-4.942a50.545 50.545 0 01-3.792-1.344c-.745-.337-1.422-.84-2.133-1.278.067-.202.169-.403.237-.605 2.742.538 5.518.908 8.227 1.68 2.302.64 4.097 2.186 4.909 4.54.576 1.714 1.592 2.823 3.251 3.63 2.471 1.244 3.115 2.824 2.539 5.413z" fill="#131B43"/><path d="M129.889 112.528c-1.253-2.69-2.133-5.346-3.657-7.564-1.456-2.118-3.589-3.766-5.722-5.917h2.641c.102-4.404-.237-5.413-3.623-10.254.677.134 1.151.1 1.524.302 3.487 1.95 5.045 5.01 4.672 8.876-.169 1.748.102 2.958 1.456 4.169 2.133 1.949 2.946 4.639 3.115 7.463.068.941-.271 1.883-.406 2.925zM153.487 104.997c0-.739-.101-1.513.034-2.219.474-2.89-.304-5.379-2.031-7.766-1.964-2.689-2.167-4.47-1.524-7.799 1.118-.202 1.388.639 1.592 1.378.643 2.354 1.929 4.37 3.318 6.354 1.828 2.623 2.065 5.447.745 8.371-.339.706-.982 1.278-1.49 1.95-.203-.134-.44-.201-.644-.269z" fill="#131B43"/><path d="M69.825 117.268c.271-3.295-.846-5.681-3.69-7.43-1.998-1.21-3.69-2.824-4.842-4.908-1.591-2.925-4.029-4.707-7.347-5.345-2.607-.505-4.875-1.681-6.94-3.328-3.048-2.421-4.504-2.32-8.228.134 4.875 2.151 8.803 5.312 11.884 9.48 3.08 4.203 5.282 8.808 6.636 14.053 1.388 4.471 2.031 9.111 2.031 9.111 2.201 3.361 2.337 8.572.678 19.599 3.792 2.152 7.685.538 8.193-3.765.474-4.068 1.693-7.8 3.318-11.498 1.016-2.286 1.084-4.673-.067-6.992-1.456-2.858-1.897-5.951-1.626-9.111z" fill="#585E92"/></svg>
