<svg width="102" height="95" viewBox="0 0 102 95" fill="none" xmlns="http://www.w3.org/2000/svg"><path d="M6.371 34.498c-.17-6.47 1.367-12.314 5.128-17.535 3.305-4.596 7.578-7.944 13.219-9.193 3.304-.737 6.666-.68 9.97 0C44.83 9.984 53.32 15.204 60.557 22.524c.684.681 1.197 1.42 1.88 2.043.513.454 1.083 1.59 1.88.852.741-.625-.113-1.476-.455-2.1-1.425-2.894-3.533-5.334-5.812-7.66-.797-.795-.797-1.363-.114-2.044C64.26 7.6 71.61 4.763 80.327 6.352 90.184 8.11 93.774 14.58 95.141 21.73c1.539 8.001.114 15.719-2.62 23.21-2.622 7.206-6.667 13.732-11.34 19.747-7.292 9.42-16.295 17.023-26.095 23.663-.683.454-1.424.738-2.222.284-.456-.284-1.025-.398-1.481-.625-7.464-3.915-14.985-7.83-21.822-12.824-9.117-6.64-15.669-15.322-20.17-25.593-2.108-4.823-3.248-9.93-3.02-15.094z" fill="#DC0032"/><path d="M32.353 7.6c4.5-1.362 12.307 1.986 14.415 6.186 1.424 2.894.342 5.674-2.963 6.355-4.73 1.022-9.23.057-13.276-2.61-1.88-1.192-2.905-2.951-2.62-5.278.284-2.61 2.05-3.915 4.444-4.653zM83.86 6.408c4.045.057 9.629 4.824 10.256 8.796.456 2.724-1.197 4.767-4.103 4.483-4.159-.397-7.635-2.327-10.256-5.561-1.196-1.476-1.652-3.178-.797-4.994.968-2.1 2.792-2.724 4.9-2.724zM52.067 19.573c2.336.057 5.526 2.838 5.811 5.05.228 1.533-.74 2.668-2.393 2.497-2.393-.226-4.387-1.418-5.868-3.234-.684-.851-.912-1.816-.4-2.837.514-1.192 1.596-1.532 2.85-1.476z" fill="#fff"/><path d="M101.979 28.937c0 10.214-2.906 19.236-7.692 27.635-8.604 15.094-20.284 27.238-35.27 36.204l-1.708 1.021c-2.222 1.419-4.502 1.646-6.838.34-.455-.283-1.025-.397-1.481-.623-7.065-3.632-14.244-6.98-20.74-11.52-8.375-5.788-15.27-13.108-20.511-21.79C2.497 51.522-.41 42.158.047 31.944.446 23.49 3.522 16.055 9.676 10.04c7.52-7.377 16.41-9.817 26.665-7.15 5.64 1.476 10.826 4.03 15.498 7.49 1.196.909 1.31.909 2.279-.17 4.729-5.05 10.598-8.058 17.32-9.59C83.29-1.99 94.744 3.798 99.416 14.977c1.88 4.54 2.735 9.42 2.564 13.96zm-95.608 5.56c-.17 5.165.912 10.272 3.02 15.095 4.501 10.214 11.054 18.953 20.17 25.593 6.837 4.993 14.358 8.909 21.822 12.824.456.227 1.026.34 1.481.624.855.454 1.539.227 2.223-.283 9.857-6.64 18.802-14.244 26.095-23.663 4.73-6.072 8.718-12.541 11.338-19.748 2.735-7.49 4.16-15.265 2.621-23.21-1.367-7.092-4.9-13.561-14.814-15.377-8.717-1.59-16.124 1.248-22.392 7.263-.74.681-.74 1.248.114 2.043 2.28 2.27 4.388 4.71 5.812 7.66.342.682 1.197 1.476.456 2.1-.855.681-1.368-.397-1.88-.85-.684-.625-1.254-1.42-1.88-2.044C53.32 15.204 44.83 10.04 34.688 7.77c-3.305-.737-6.667-.794-9.971 0-5.641 1.305-9.914 4.597-13.219 9.193C7.74 22.183 6.2 28.03 6.371 34.498z" fill="#131B43"/></svg>
