<svg width="135" height="131" viewBox="0 0 135 131" fill="none" xmlns="http://www.w3.org/2000/svg"><path d="M32.97 34.005c2.657-5.901 6.582-10.497 12.237-13.566 4.974-2.704 10.277-3.863 15.9-2.537 3.297.771 6.3 2.283 8.981 4.332 8.173 6.4 13.552 14.79 16.89 24.527.32.91.46 1.797.805 2.657.265.631.285 1.901 1.324 1.583.938-.24.538-1.378.502-2.089-.026-3.225-.865-6.34-1.907-9.425-.373-1.062-.127-1.573.785-1.89 8.31-2.67 16.162-2.032 23.324 3.187 8.114 5.866 8.537 13.252 6.662 20.287-2.09 7.875-6.726 14.207-12.444 19.765-5.491 5.353-11.97 9.473-18.792 12.861-10.66 5.316-22.073 8.254-33.784 9.976-.813.112-1.604.046-2.125-.71-.287-.453-.751-.803-1.063-1.205-5.022-6.77-10.095-13.564-14.084-21.032-5.326-9.94-7.456-20.607-7.048-31.814.197-5.26 1.39-10.355 3.838-14.907z" fill="#DC0032"/><path d="M68.058 21.065c4.646.73 10.222 7.136 10.296 11.834.026 3.225-2.157 5.26-5.43 4.437-4.703-1.134-8.338-3.959-10.823-8.118-1.175-1.89-1.335-3.92-.068-5.892 1.391-2.228 3.549-2.636 6.025-2.26zM114.968 42.37c3.619 1.808 6.577 8.527 5.416 12.377-.773 2.652-3.148 3.774-5.642 2.256-3.574-2.165-5.866-5.413-6.822-9.465-.437-1.848-.108-3.58 1.451-4.844 1.785-1.47 3.698-1.24 5.597-.325zM80.612 40.415c2.08 1.066 3.746 4.956 3.04 7.073-.46 1.48-1.825 2.08-3.24 1.21-2.056-1.244-3.335-3.184-3.88-5.463-.246-1.064-.032-2.032.874-2.73.98-.85 2.102-.686 3.206-.09z" fill="#fff"/><path d="M121.5 70.532c-4.437 9.2-10.974 16.064-18.934 21.55-14.307 9.857-30.103 15.72-47.495 17.286l-1.983.177c-2.618.312-4.77-.473-6.307-2.664-.287-.453-.75-.803-1.063-1.205-4.786-6.341-9.797-12.475-13.675-19.386-5.03-8.852-8.059-18.44-9.008-28.538-.95-10.098.5-19.793 5.349-28.795 4.032-7.442 10.033-12.801 18.189-15.546 9.979-3.377 19.045-1.713 27.123 5.145 4.44 3.78 8 8.332 10.705 13.48.683 1.337.786 1.387 2.127.836 6.453-2.494 13.046-2.653 19.767-1.112 11.809 2.797 19.609 12.986 18.961 25.085-.279 4.905-1.63 9.672-3.756 13.687zM32.97 34.004c-2.397 4.577-3.64 9.648-3.837 14.908-.383 11.155 1.722 21.873 7.048 31.814 3.99 7.468 9.062 14.262 14.084 21.031.312.403.776.753 1.063 1.206.573.78 1.287.873 2.125.71 11.762-1.698 23.123-4.66 33.784-9.976 6.898-3.415 13.3-7.508 18.792-12.86 5.718-5.56 10.378-11.943 12.444-19.767 1.85-6.983 1.479-14.344-6.662-20.287-7.162-5.218-15.066-5.88-23.324-3.186-.963.292-1.21.803-.785 1.89 1.067 3.035 1.905 6.148 1.906 9.425.013.762.437 1.849-.501 2.089-1.066.242-1.06-.952-1.324-1.584-.345-.859-.513-1.822-.806-2.656-3.337-9.737-8.74-18.077-16.889-24.527-2.656-2.1-5.66-3.612-8.98-4.332-5.648-1.275-10.927-.167-15.9 2.537-5.656 3.068-9.58 7.665-12.237 13.565z" fill="#131B43"/></svg>
