<svg width="130" height="126" viewBox="0 0 130 126" fill="none" xmlns="http://www.w3.org/2000/svg"><path d="M18.512 66.486c-2.408-6.007-2.996-12.022-1.284-18.224 1.502-5.458 4.346-10.082 9.202-13.213 2.842-1.84 6.014-2.954 9.35-3.464 10.279-1.448 20.053.497 29.382 4.847.877.401 1.614.915 2.473 1.263.638.247 1.567 1.114 2.058.145.478-.843-.62-1.344-1.156-1.81-2.342-2.22-5.166-3.775-8.112-5.165-1.024-.468-1.22-1-.816-1.876 3.84-7.838 9.747-13.052 18.473-14.59 9.854-1.776 15.468 3.043 19.234 9.272 4.223 6.969 5.568 14.7 5.606 22.674.047 7.669-1.479 15.193-3.77 22.457-3.567 11.367-9.366 21.625-16.249 31.256-.483.663-1.08 1.186-1.985 1.038-.526-.108-1.1-.017-1.606-.071-8.36-1.078-16.772-2.137-24.918-4.444-10.856-3.058-20.016-8.923-27.806-16.99-3.652-3.79-6.495-8.183-8.076-13.105z" fill="#99D2ED"/><path d="M33.53 32.237c3.747-2.841 12.23-2.414 15.666.791 2.341 2.22 2.292 5.203-.57 6.99-4.08 2.6-8.636 3.26-13.356 2.164-2.177-.464-3.75-1.757-4.29-4.038-.64-2.546.562-4.384 2.55-5.907zM81.414 13.224c3.813-1.352 10.705 1.178 12.673 4.684 1.374 2.396.534 4.886-2.29 5.63-4.037 1.072-7.967.47-11.548-1.652-1.635-.968-2.654-2.406-2.483-4.405.178-2.306 1.671-3.524 3.648-4.257zM56.176 36.615c2.21-.759 6.168.74 7.204 2.716.746 1.358.232 2.759-1.376 3.173-2.323.619-4.607.194-6.627-.994-.937-.56-1.486-1.386-1.36-2.522.067-1.295.964-1.99 2.159-2.373z" fill="#fff"/><path d="M106.231 28.053c3.549 9.578 3.959 19.049 2.389 28.587-2.823 17.143-9.556 32.588-20.493 46.202l-1.248 1.552c-1.59 2.102-3.649 3.107-6.293 2.694-.526-.107-1.1-.016-1.606-.07-7.886-.951-15.782-1.596-23.45-3.596-9.864-2.518-18.873-6.986-26.804-13.307-7.932-6.32-13.91-14.09-17.031-23.826-2.564-8.067-2.262-16.107 1.418-23.885 4.49-9.53 11.977-14.907 22.52-15.97 5.802-.576 11.551.017 17.135 1.64 1.437.436 1.544.396 2.078-.951 2.68-6.38 7.138-11.239 12.91-15.011 10.206-6.565 22.956-5.117 31.221 3.742 3.34 3.604 5.837 7.883 7.254 12.2zM18.512 66.486c1.634 4.902 4.424 9.314 8.076 13.105 7.77 8.014 16.95 13.932 27.805 16.99 8.147 2.307 16.56 3.366 24.919 4.444.506.054 1.08-.037 1.606.071.96.128 1.521-.322 1.985-1.039 6.936-9.65 12.682-19.888 16.248-31.255 2.325-7.337 3.817-14.789 3.771-22.457-.038-7.974-1.403-15.759-5.606-22.674-3.747-6.176-9.307-11.015-19.234-9.273-8.726 1.539-14.686 6.773-18.473 14.59-.458.897-.261 1.429.816 1.877 2.926 1.337 5.75 2.892 8.111 5.164.558.52 1.635.968 1.157 1.81-.564.936-1.42.103-2.058-.144-.859-.348-1.669-.895-2.473-1.263-9.329-4.35-19.084-6.242-29.383-4.847-3.355.456-6.527 1.571-9.35 3.464-4.835 3.184-7.699 7.755-9.2 13.213-1.713 6.202-1.125 12.217 1.283 18.224z" fill="#131B43"/></svg>
