<svg width="132" height="175" viewBox="0 0 132 175" fill="none" xmlns="http://www.w3.org/2000/svg"><path d="M64.15 174.724c-1.346 0-2.693.092-4.04 0-3.205-.185-6.039-1.382-7.943-4.006-2.183-2.947-4.46-5.847-6.178-9.07-13.052-24.217-24.804-49.079-35.441-74.447-3.159-7.551-5.992-15.24-8.78-22.929C.887 61.878.423 59.3.098 56.814c-.558-4.834 1.3-8.656 5.527-11.142 2.74-1.611 5.574-3.13 8.593-4.19 11.38-4.097 23.225-6.353 35.163-8.149 6.828-1.013 13.656-1.795 20.484-2.67 1.208-.138 2.462-.276 3.67-.323 4.087-.138 7.153 1.52 8.965 5.203a361.34 361.34 0 014.459 9.623c10.637 23.112 22.064 45.81 34.001 68.278 2.834 5.294 5.388 10.681 7.85 16.16 1.254 2.762 1.905 5.755 2.787 8.701.883 2.993.232 5.802-1.115 8.518-3.205 6.584-8.453 11.096-15.049 13.95-14.586 6.354-29.45 11.787-45.382 13.674-1.95.23-3.902.369-5.9.553v-.276zm-5.062-13.214c.232-.184.418-.414.65-.599.325.092.743.138 1.022.323 3.716 2.394 7.757 2.9 12.03 1.841 13.1-3.361 26.198-6.676 39.251-10.129 4.552-1.197 8.732-3.361 12.495-6.169 3.669-2.716 4.366-4.374 3.065-8.84a35.295 35.295 0 00-2.601-6.446 3218.78 3218.78 0 00-17.744-32.919C98.431 82.32 90.163 65.885 83.846 48.48c-.883-2.394-1.951-4.742-3.02-7.09-3.158-6.814-3.994-7.412-11.612-6.215a1116.014 1116.014 0 00-30.192 5.11c-8.965 1.658-17.837 3.684-26.384 6.86-6.689 2.486-8.593 5.341-7.014 12.34 1.208 5.432 2.834 10.91 4.97 16.067 10.87 26.289 22.9 52.118 35.395 77.717 2.23 4.604 4.924 8.978 7.571 13.397.883 1.474 2.323 2.625 3.67 4.098 1.904-2.118 3.39-3.821 4.784-5.387-1.068-1.473-1.997-2.67-2.926-3.867z" fill="#131B43"/><path d="M116.082 47.422c-2.183.875-3.995.138-5.806-.737-10.033-4.88-14.632-16.529-10.544-26.888.185-.506.418-1.059.789-2.025-9.29.598-15.142-3.545-18.069-12.385-8.454 8.38-16.629 5.064-24.99-.645-.51 5.985-1.95 11.188-7.571 14.089-3.995 2.025-8.407 2.716-12.402 1.38.975-.275 1.533-.506 2.137-.598 1.114-.23 2.276-.368 3.39-.644C50.82 17.127 54.63 12.66 55.093 4.65c.093-1.243.093-2.486.14-4.236 1.16.645 1.95 1.013 2.694 1.428 2.415 1.335 4.738 2.946 7.292 4.005 5.667 2.44 10.87 1.29 15.468-2.762 1.115-.967 2.276-1.888 3.716-3.085.325 5.064 2.323 9.208 6.457 12.247 4.134 3.038 9.057 3.085 14.538 3.038-3.808 6.308-4.319 12.523-2.09 18.923 2.183 6.216 6.503 10.543 12.774 13.214z" fill="#FFF500"/><path d="M59.088 161.51c.929 1.197 1.858 2.394 2.973 3.821-1.394 1.566-2.926 3.269-4.785 5.387-1.347-1.473-2.787-2.624-3.67-4.097-2.647-4.374-5.34-8.794-7.57-13.398C33.54 127.624 21.51 101.842 10.64 75.506 8.504 70.35 6.878 64.917 5.67 59.438c-1.533-6.998.325-9.852 7.014-12.339 8.546-3.176 17.418-5.248 26.383-6.86a1116.021 1116.021 0 0130.193-5.11c7.57-1.197 8.453-.599 11.612 6.215 1.068 2.348 2.183 4.65 3.02 7.09 6.27 17.404 14.585 33.886 23.41 50.093 5.946 10.957 11.891 21.915 17.744 32.919a35.329 35.329 0 012.601 6.445c1.301 4.42.604 6.078-3.066 8.84-3.762 2.809-7.943 4.972-12.495 6.17-13.052 3.499-26.15 6.768-39.25 10.128-4.273 1.105-8.268.599-12.03-1.841-.279-.184-.65-.23-1.022-.322-.279.276-.465.46-.697.644zm2.23-9.945c3.39-.92 6.456-1.795 9.522-2.578 9.522-2.44 19.044-4.788 28.566-7.32 5.482-1.428 10.87-3.039 16.258-4.789 3.762-1.197 3.902-1.795 2.183-5.202-.046-.092-.139-.23-.186-.322-11.426-21.732-22.203-43.785-31.214-66.667-2.462-6.262-4.877-12.523-7.432-18.692-1.115-2.67-1.347-2.717-4.18-2.164-7.943 1.565-15.933 3.13-23.83 4.834-10.59 2.256-21.134 4.558-31.678 6.998-3.577.829-3.902 1.611-2.555 4.834 3.763 9.116 7.153 18.463 11.52 27.302 9.94 20.028 20.345 39.779 30.61 59.669.604 1.381 1.487 2.578 2.416 4.097zm-3.856 7.873c.279-.23.558-.46.79-.736-.372-.875-.697-1.75-1.161-2.579-13.239-23.849-24.758-48.48-35.674-73.434-3.53-8.057-7.2-16.022-10.87-24.033-.603-1.29-1.067-2.809-2.972-3.96.372 1.427.465 2.256.743 3.039 3.763 10.175 7.386 20.442 11.38 30.525 9.198 23.066 20.3 45.211 33.723 66.16 1.208 1.795 2.694 3.361 4.041 5.018zm39.576-6.445c2.647.046 5.248-2.302 5.156-4.65-.093-2.256-1.673-3.73-4.088-3.822-2.926-.092-5.203 1.796-5.249 4.42-.093 2.394 1.626 4.052 4.18 4.052zM47.568 44.245c-2.972-1.842-5.899-.599-8.732-.138-1.951.322-4.18.414-5.11 2.716 1.069 1.52 2.509 1.105 3.716.737 3.391-1.013 7.246-.415 10.126-3.315zm4.506-3.223c-.743.92-1.765 1.75-1.58 2.072.326.69 1.116 1.335 1.905 1.565.279.092 1.347-1.013 1.347-1.611-.046-.599-.929-1.151-1.672-2.026z" fill="#5B93B2"/><path d="M61.318 151.565c-.93-1.519-1.766-2.716-2.462-4.005-10.266-19.844-20.67-39.641-30.61-59.669-4.367-8.84-7.758-18.186-11.52-27.302-1.347-3.223-1.022-4.005 2.554-4.834 10.544-2.44 21.089-4.742 31.68-6.998 7.942-1.704 15.885-3.269 23.828-4.834 2.833-.553 3.112-.507 4.18 2.163 2.555 6.216 4.97 12.477 7.432 18.693 9.012 22.836 19.788 44.889 31.215 66.667.046.092.139.23.185.322 1.719 3.407 1.58 3.959-2.183 5.203-5.388 1.703-10.776 3.314-16.257 4.788-9.476 2.532-19.045 4.88-28.567 7.32-3.019.691-6.085 1.566-9.476 2.486zM76.832 45.902C56.858 50 37.442 53.96 17.887 57.965c13.285 31.307 30.146 60.635 44.777 90.93 9.244-2.486 18.07-4.788 26.756-7.274 8.825-2.533 17.558-5.341 26.662-8.104-15.979-28.222-28.474-57.458-39.25-87.615zM57.462 159.438c-1.347-1.657-2.833-3.222-3.995-5.018-13.47-20.948-24.525-43.094-33.722-66.16-4.041-10.083-7.618-20.304-11.38-30.525-.28-.783-.419-1.611-.744-3.039 1.951 1.151 2.416 2.67 2.973 3.96 3.67 8.01 7.34 15.976 10.87 24.033 10.915 24.954 22.435 49.586 35.673 73.435.464.828.743 1.703 1.161 2.578-.279.276-.557.506-.836.736zM97.037 152.993c-2.508-.046-4.227-1.704-4.18-4.052.046-2.578 2.322-4.512 5.249-4.42 2.369.092 3.994 1.612 4.087 3.822.047 2.394-2.508 4.696-5.156 4.65zm3.205-5.341c-.51-.368-1.207-1.197-2.136-1.427-1.44-.369-3.02 1.013-3.112 2.394-.093 1.427.79 1.934 2.043 2.026 1.719.138 3.113-.921 3.205-2.993zM47.568 44.245c-2.88 2.9-6.781 2.302-10.126 3.315-1.254.368-2.647.782-3.716-.737.93-2.302 3.159-2.394 5.11-2.716 2.88-.46 5.76-1.704 8.732.138zM52.074 41.022c.743.875 1.626 1.427 1.626 1.98 0 .552-1.022 1.703-1.347 1.611-.744-.23-1.58-.875-1.905-1.565-.14-.276.883-1.105 1.626-2.026z" fill="#131B43"/><path d="M76.832 45.902c10.776 30.157 23.271 59.439 39.25 87.615-9.104 2.763-17.837 5.571-26.662 8.104-8.733 2.532-17.512 4.788-26.755 7.274-14.586-30.295-31.447-59.623-44.778-90.93 19.509-4.006 38.971-8.011 58.945-12.063z" fill="#fff"/><path d="M100.242 147.652c-.092 2.072-1.486 3.131-3.158 2.992-1.254-.092-2.137-.598-2.044-2.025.093-1.428 1.672-2.809 3.112-2.394.836.23 1.58 1.105 2.09 1.427z" fill="#5B93B2"/><path d="M77.854 144.797a688.217 688.217 0 0011.52-3.223c8.825-2.532 17.557-5.34 26.662-8.103-5.714-10.037-10.916-20.258-15.84-30.571l-22.342 41.897zM29.639 83.61c6.131 12.569 12.541 24.908 18.905 37.292 11.705-20.81 25.78-45.764 33.815-60.036a581.166 581.166 0 01-5.527-15.01c-9.755 1.98-19.323 3.96-28.892 5.894L29.639 83.61z" fill="#FFC229"/></svg>
