<svg width="200" height="107" viewBox="0 0 200 107" fill="none" xmlns="http://www.w3.org/2000/svg"><path d="M8.312 21.295c-1.797-.524-3.224-.786-4.44-1.363-2.59-1.153-4.229-4.036-3.806-6.395.476-3.092 2.749-5.346 6.08-5.137 4.968.315 9.038-1.205 13.32-3.564C28.24.17 37.86-.616 47.693.38c8.564.891 16.81 2.988 24.791 6.186 4.018-2.464 8.511-2.883 13.004-2.83 13.32.156 26.166 2.672 38.324 8.229 5.233 2.359 10.254 5.084 14.166 9.54.846.944 2.643 1.415 4.07 1.468 8.299.576 16.387 2.254 24.052 5.451 3.594 1.52 7.241 3.093 10.413 5.295 3.647 2.516 7.295 5.346 9.991 8.806 3.013 3.827 5.497 7.6 10.36 9.645 3.647 1.573 4.123 7.6 1.374 10.536-.845.891-2.378 1.363-3.647 1.573-1.163.157-2.379-.367-3.859-.63-.37 1.311-.687 2.517-1.004 3.67-3.859 13.996-11.735 25.109-23.893 33.181-12.422 8.283-25.161 8.65-37.953 1.101-15.224-8.911-26.483-24.637-22.519-48.54.793-4.77 1.058-9.383-.528-13.995-1.374-4.037-3.7-4.98-7.4-2.936-3.278 1.782-5.762 4.246-6.714 8.072-2.749 10.642-7.612 20.287-15.065 28.516-5.973 6.658-13.003 11.847-21.884 14.049C30.514 92.48 9.528 78.485 5.722 54.79 4.084 44.57 5.564 34.557 7.678 24.598c.106-.996.37-2.044.634-3.303zM40.874 4.312c-6.977.052-13.955 1.153-20.404 4.56-5.127 2.726-8.563 6.553-9.303 12.528-.634 5.242-1.533 10.432-2.009 15.674-.74 8.124.212 16.04 3.013 23.745C18.41 78.17 34.954 84.2 49.331 81.315c10.784-2.15 18.713-8.44 25.056-16.931 7.137-9.54 11.101-20.391 13.903-31.87 1.057-4.457-.106-7.916-3.013-11.061-3.965-4.404-8.617-7.968-14.061-10.38C61.648 6.88 51.605 4.68 40.874 4.313zm68.56 55.354c.317 13.21 4.969 24.008 15.012 32.29 14.748 12.161 34.359 10.536 46.992-3.774 6.555-7.444 11.101-15.988 14.326-25.266.634-1.835 1.004-3.774 1.321-5.661.793-5.032-.37-9.436-4.493-12.738-2.273-1.835-4.546-3.722-7.03-5.242-9.885-6.185-20.88-9.33-32.404-10.85-7.77-1.049-15.329-.42-22.888 1.677-1.903.524-3.224 1.415-4.07 3.197-4.176 8.44-6.555 17.351-6.766 26.367zm-15.7-33.496c2.908-1.677 6.132-3.25 9.938-2.673 4.017.629 6.502 3.355 8.352 6.29 3.224-1.887 6.132-3.617 9.462-5.608-11.524-4.98-23.259-7.968-35.364-9.855 2.59 4.088 5.022 7.915 7.612 11.846zM80.836 7.51c1.692 2.463 3.436 2.62 5.286 2.83 13.903 1.258 27.488 3.512 40.015 10.17.635.366 1.533.314 2.273.418.053-.314.159-.576.212-.89C114.244 11.02 98.28 7.823 80.836 7.508zm27.012 27.31c1.269-2.726 1.216-3.303-.423-5.033-3.912-4.088-11.26-2.254-13.85 3.46 8.723-2.883 8.881-2.83 14.273 1.572zM10.744 11.911c-1.691 0-3.224-.21-4.705.053-.792.157-1.85.996-1.955 1.625-.106.734.475 2.044 1.163 2.359 1.215.629 2.748.681 4.176.996.528-1.94.898-3.408 1.321-5.033zm181.151 42.093c-.951 5.084-.951 5.084 2.96 5.923 1.005-3.774.793-4.193-2.96-5.923z" fill="#131B43"/><path d="M40.874 4.312c10.73.366 20.774 2.568 30.342 6.814 5.445 2.411 10.096 5.976 14.06 10.379 2.855 3.198 4.07 6.657 3.014 11.06-2.802 11.428-6.766 22.33-13.902 31.871-6.344 8.492-14.273 14.782-25.056 16.931-14.378 2.83-30.976-3.145-37.16-20.496-2.75-7.758-3.754-15.673-3.014-23.745.476-5.242 1.375-10.432 2.009-15.673.74-5.924 4.176-9.803 9.303-12.529 6.45-3.46 13.427-4.56 20.404-4.612zm7.348 47.334c.74-1.573 1.321-3.198 2.114-4.718 1.428-2.568 3.172-4.927 4.388-7.548 1.744-3.827.687-6.972-3.12-8.65-2.59-1.153-5.602-1.991-8.404-2.096-9.938-.367-18.924 3.04-27.54 7.548-1.639.839-2.167 2.254-2.114 3.774.105 4.98-.317 10.117.793 14.887 3.7 16.198 18.448 27.625 37.742 21.282 9.726-3.197 16.703-9.854 22.412-18.032 1.639-2.359 2.802-5.032 4.176-7.443-2.431-2.936-5.339-3.25-8.299-2.673-5.074.995-10.043 2.306-15.118 3.407-2.061.42-4.176 1.677-7.03.262zM28.294 14.009c-.106 4.77 3.647 7.653 8.087 6.657 1.956-.42 3.542-.681 5.498.21 2.484 1.048 5.074-1.258 4.387-3.722-.687-2.463-1.639-4.875-2.907-7.076-.687-1.154-2.22-2.254-3.542-2.569-3.964-.891-7.453.367-10.096 3.407-.846.996-1.163 2.464-1.427 3.093zM109.433 59.666c.212-9.016 2.59-17.927 6.714-26.419.845-1.782 2.167-2.673 4.07-3.197 7.506-2.097 15.118-2.674 22.888-1.678 11.524 1.52 22.466 4.666 32.403 10.85 2.485 1.573 4.758 3.46 7.031 5.243 4.123 3.302 5.286 7.705 4.493 12.738-.317 1.94-.687 3.826-1.322 5.66-3.224 9.279-7.77 17.823-14.325 25.267-12.633 14.363-32.244 15.988-46.992 3.774-9.991-8.23-14.642-18.976-14.96-32.238zm4.916-5.66c-1.691 14.205 3.436 27.571 13.427 36.063 3.594 3.04 7.664 5.19 12.369 5.766 9.409 1.101 18.237-.681 25.373-7.233 3.33-3.093 6.29-6.658 9.039-10.327 3.171-4.298 2.114-6.133-3.172-6.343-2.378-.105-4.757.053-7.083.367-3.436.472-6.872 1.258-10.308 1.73-2.431.315-4.863.42-8.193.682 1.004-2.202 1.48-3.617 2.22-4.875.793-1.468 1.903-2.779 2.749-4.194 2.96-4.98 1.956-8.964-3.119-11.899-1.321-.734-2.749-1.415-4.229-1.782-9.937-2.36-19.505-1.206-29.073 2.044zm13.955-16.565c-.052 3.984 3.225 6.971 7.771 6.814 1.903-.052 3.647-.367 5.339 1.206 1.163 1.1 2.96.681 4.176-.472 1.374-1.31 1.638-2.778.687-4.508-.529-.891-1.216-1.992-1.057-2.936.581-3.46-1.533-5.189-4.018-6.552-5.286-2.988-12.845.787-12.898 6.448z" fill="#FFC229"/><path d="M80.836 7.51c17.444.261 33.408 3.459 47.786 12.527-.053.315-.159.577-.212.892-.74-.158-1.638-.105-2.273-.42-12.475-6.657-26.112-8.911-40.015-10.17-1.85-.156-3.594-.314-5.286-2.83zM107.848 34.82c-5.392-4.456-5.498-4.456-14.326-1.573 2.59-5.714 9.938-7.548 13.85-3.46 1.691 1.73 1.744 2.307.476 5.033zM10.745 11.913c-.423 1.625-.793 3.092-1.322 5.032-1.48-.315-2.96-.42-4.176-.996-.634-.315-1.269-1.625-1.163-2.359.106-.681 1.216-1.52 1.956-1.625 1.48-.21 3.013-.052 4.705-.052zM191.896 54.005c3.7 1.73 3.911 2.149 2.96 5.923-3.859-.838-3.859-.838-2.96-5.923z" fill="#BACCDB"/><path d="M48.222 51.646c2.854 1.415 4.916.21 7.03-.262 5.075-1.048 10.044-2.411 15.118-3.407 2.96-.577 5.867-.262 8.3 2.673-1.322 2.411-2.538 5.085-4.177 7.444-5.709 8.124-12.686 14.834-22.412 18.032-19.294 6.342-34.042-5.085-37.743-21.283-1.11-4.77-.687-9.907-.792-14.887-.053-1.52.475-2.935 2.114-3.774 8.616-4.508 17.602-7.967 27.54-7.548 2.854.105 5.815.944 8.405 2.097 3.806 1.73 4.863 4.875 3.119 8.649-1.216 2.62-2.96 5.032-4.388 7.548-.793 1.468-1.374 3.093-2.114 4.718z" fill="#131B43"/><path d="M28.293 14.01c.265-.63.582-2.045 1.48-3.04 2.643-3.094 6.132-4.352 10.097-3.408 1.321.314 2.854 1.363 3.541 2.568 1.27 2.202 2.22 4.613 2.908 7.077.687 2.464-1.903 4.77-4.388 3.722-2.008-.839-3.594-.63-5.497-.21-4.493.944-8.246-1.94-8.14-6.71z" fill="#fff"/><path d="M114.35 54.005c9.567-3.25 19.135-4.403 28.967-2.044 1.48.367 2.907 1.048 4.229 1.782 5.074 2.935 6.079 6.92 3.119 11.899-.846 1.415-1.903 2.726-2.749 4.193-.74 1.259-1.216 2.674-2.22 4.875 3.33-.262 5.761-.314 8.193-.681 3.436-.472 6.872-1.258 10.308-1.73 2.326-.314 4.757-.472 7.083-.367 5.339.157 6.343 2.044 3.172 6.343-2.696 3.67-5.656 7.234-9.039 10.326-7.137 6.553-15.911 8.335-25.373 7.234-4.705-.576-8.775-2.725-12.37-5.766-9.884-8.492-15.012-21.911-13.32-36.064z" fill="#131B43"/><path d="M128.305 37.44c.053-5.66 7.612-9.435 12.95-6.395 2.485 1.416 4.599 3.145 4.018 6.553-.159.89.528 1.992 1.057 2.935.951 1.73.634 3.198-.687 4.508-1.216 1.206-3.013 1.573-4.176.472-1.692-1.625-3.436-1.31-5.339-1.206-4.546.105-7.823-2.883-7.823-6.867z" fill="#fff"/></svg>
