<svg width="234" height="213" viewBox="0 0 234 213" fill="none" xmlns="http://www.w3.org/2000/svg"><g clip-path="url(#clip0)"><path d="M165.756 163.636c-2.219-1.986-4.48-3.959-6.668-6-.944-.899-1.754-1.906-2.608-2.9-.319-.4-.764-.834-.824-1.306-.095-.602.635-.737 1.008-1.075 2.152-2.072 2.574-5.452.932-7.879-.382-.544-.78-1.062-1.405-1.305-.778-.294-.959-.872-1.145-1.635-.249-.908-.71-1.827-1.191-2.647-.469-.776-1.098-1.461-2.049-1.706-.601-.158-.779-.55-.992-1.073a18.477 18.477 0 00-1.068-2.285c-.477-.891-1.224-1.496-2.167-1.883-.873-.384-.885-.427-.804-1.405.13-1.9.075-3.794-.564-5.618-.233-.68-.568-1.308-.903-1.936-.13-.219-.272-.482-.492-.607-.77-.435-1.588-.788-2.374-1.196.175-.888.437-1.8.117-2.711-.075-.189-.091-.417-.213-.523-1.019-.832-.958-1.711-.469-2.896.473-1.158.067-2.301-.63-3.317-.303-.427-.371-.757-.006-1.209.333-.397.599-.867.849-1.311.294-.455.522-.472.849.042.433.646.866 1.293 1.182 2.02a103.826 103.826 0 011.905 4.915 32.381 32.381 0 003.8 7.667c1.039 1.501 2.212 2.895 3.608 4.087 3.116 2.711 6.809 3.63 10.865 3.329 1.665-.119 3.136-.858 4.399-1.935.772-.66 1.313-1.487 1.48-2.489.096-.75.445-1.174 1.073-1.513.498-.303.945-.708 1.376-1.086.224-.202.368-.522.525-.799.207-.431-.245-.98-.689-.901-.33.069-.632.154-.91.325-.44.263-.895.554-1.267.892-.478.46-.926.61-1.578.35-.888-.356-1.831-.231-2.635.228-.906.511-1.884.506-2.854.36-3.406-.464-6.048-2.214-8.252-4.739a16.282 16.282 0 01-2.903-4.821c-.635-1.638-1.227-3.288-1.862-4.927a27.944 27.944 0 01-.624-1.851c-.912-2.562-2.42-4.584-5.029-5.621-.417-.162-.645-.401-.548-.894.179-.959-.015-1.836-.613-2.576-.28-.341-.347-.671-.155-1.075.062-.11.098-.237.133-.363.801-2.252.449-3.62-1.321-5.242-.095-.09-.205-.153-.299-.243-.406-.375-.398-.517-.018-.996.333-.397.666-.793 1.027-1.174 1.901-2.141 3.856-4.251 5.745-6.436a40.698 40.698 0 005.104-7.42c1.021-1.871 1.638-3.861 1.638-5.981.031-2.687-1.088-4.818-3.412-6.169-.77-.435-1.662-.72-2.542-.962-2.279-.594-4.604-.85-6.941-.891-4.76-.06-9.492.151-14.235.576-.314.042-.64.04-.97.11-.514.074-.872-.128-1.163-.512-.543-.71-1.098-1.462-1.7-2.131-2.027-2.133-4.417-3.813-7.102-5.039-1.246-.558-2.476-1.144-3.757-1.576-3.717-1.261-6.565-3.675-8.644-6.934-1.674-2.628-3.171-5.375-4.727-8.082-1.013-1.742-1.967-3.523-3.097-5.186-.669-1-1.586-1.883-2.565-2.656-2.175-1.741-4.931-1.619-7.139.166-.651.51-.792.502-1.198-.13-.248-.395-.469-.776-.717-1.172-1.477-2.59-2.762-5.326-3.745-8.148-.825-2.33-1.548-4.712-2.287-7.067-.616-1.993-1.19-3.998-1.849-5.979-.268-.81-.639-1.567-1.01-2.325-.354-.785-.96-1.384-1.64-1.915-1.322-1.003-2.79-1.102-4.175-.13a10.876 10.876 0 00-2 1.865c-2.143 2.699-3.272 5.788-3.498 9.206-.076 1.162-.054 2.344-.103 3.523-.004.07-.141.249-.169.233-.098-.019-.235-.097-.287-.199-.374-.686-.646-1.425-1.08-2.072-1.161-1.863-3.22-2.076-4.752-.458-.917.98-1.422 2.193-1.8 3.44-.637 2.09-.892 4.211-.923 6.386-.055 4.208.517 8.333 1.993 12.274.162.42.324.84.47 1.289.051.102-.027.24-.019.355-.098-.02-.212-.01-.295-.057-.676-.602-1.337-1.232-2.045-1.778-.558-.425-1.175-.811-1.828-1.07-1.442-.597-2.679-.272-3.638.976-.396.507-.697 1.104-.928 1.705-.41 1.047-.499 2.166-.544 3.274-.094 4.149 1.075 7.99 3.037 11.584.17.279.354.53.508.836.13.22.201.479.288.71-.267-.04-.534-.082-.813-.167-2.177-.646-3.75.402-3.903 2.727-.141 2.113.303 4.155 1.135 6.087a21.773 21.773 0 004.587 6.724c.378.36.755.719 1.117 1.106.256.255.13.476-.21.502-1.614.22-2.088 1.379-2.262 2.779-.181 1.541.21 2.969.888 4.339.24.538.453 1.06.694 1.598-.423.492-.792 1.014-1.282 1.432a9.293 9.293 0 00-2.456 3.508c-.261.656-.665 1.05-1.344 1.287-1.88.69-3.405 1.911-4.797 3.28-2.768 2.712-4.698 5.933-5.956 9.571-.336.979-.562 2.021-.744 3.051-.249 1.467-.125 2.853.742 4.147.185.251.323.584.406.887.715 2.78 2.572 4.634 4.966 5.988.991.56 1.735 1.236 2.349 2.205 1.213 1.965 3.077 3.165 5.175 3.95.96.359 1.64.89 2.175 1.741.82 1.377 2.117 2.293 3.481 3.028.688.389 1.274.83 1.676 1.532.803 1.405 2.074 2.306 3.59 2.834.64.216 1.101.623 1.557 1.1.807.822 1.684 1.647 2.612 2.317 4.094 2.973 8.262 5.878 12.37 8.822a145.94 145.94 0 015.868 4.524c5.668 4.556 10.865 9.688 16.034 14.803 2.962 2.918 5.94 5.808 8.887 8.753 1.963 1.987 3.837 4.07 5.757 6.069.495.536.846 1.136 1.122 1.804.651 1.611 1.827 2.678 3.571 2.933.534.083.763.321.979.773.746 1.7 2.016 2.857 3.804 3.357.405.119.692.318.826.722.682 1.556 1.956 2.386 3.489 2.887.514.181.884.427 1.215.869.952 1.27 2.171 2.069 3.84 1.879.542-.059.821.282 1.144.61 1.267 1.228 2.474 2.496 3.847 3.601 5.817 4.678 12.353 7.825 19.617 9.557 3.191.781 6.305.604 9.342-.785 1.381-.644 2.601-1.453 3.694-2.552 2.066-2.048 3.735-4.357 4.802-7.079.692-1.802 1.242-3.61.379-5.487-.103-.205-.001-.513.053-.738.036-.126.126-.221.188-.332 2.213-3.463 2.351-7.113.994-10.877-1.038-2.853-2.618-5.39-4.773-7.486-2.412-2.351-4.957-4.594-7.443-6.876-.173.048-.204.103-.247.116zm-21.1-29.801c.163.932.282 1.621.456 2.34.171.791.21.85-.579 1.025-2.183.52-2.642 2.746-2.121 4.137.777 2.157 3.521 3.599 5.696 2.964.49-.161.957-.409 1.436-.613.213.522.324 1.097.596 1.579.732 1.146.6 2.021-.588 2.774-.279.172-.451.476-.663.722-.728.904-.782 1.897-.269 2.918.883 1.778 2.687 2.762 4.658 2.487.314-.041.632-.154.962-.223.345-.097.6-.099.762.321.955 2.55 2.616 4.622 4.587 6.467 1.282 1.201 2.596 2.345 3.894 3.518 2.014 1.833 4.087 3.626 6.07 5.515 1.699 1.619 3.191 3.412 4.357 5.46.335.628.627 1.268.887 1.964.162.42-.069.765-.395 1.019-.561.414-1.201.454-1.849.38-1.056-.122-2.027-.525-2.92-1.066-1.387-.821-2.728-1.726-4.128-2.59-1.152-.725-2.304-1.449-3.503-2.09-1.253-.673-2.581-.766-3.963-.377a9.014 9.014 0 01-2.304.414c-2.603.173-4.275-1.174-4.696-3.897-.159-1.004-.031-2.065.096-3.125.105-.892.394-1.788.612-2.688.246-.884.076-1.675-.409-2.424-.981-1.541-1.918-3.094-2.899-4.636-.208-.337-.433-.647-.732-.889-.149-.121-.459-.15-.675-.089-.087.024-.161.348-.141.505.083.303.194.621.363.9.709 1.314 1.36 2.669 2.406 3.772.63.685.777 1.389.429 2.326-.399 1.09-.687 2.242-.933 3.383-.327 1.35-.301 2.716.023 4.069.741 3.123 3.572 5.053 6.716 4.565.687-.123 1.394-.345 1.994-.7 1.051-.575 2.01-.472 2.942.128.369.246.735.562 1.105.808 1.981 1.376 3.873 2.848 6.027 3.92 1.159.582 2.382 1.054 3.678 1.202 1.041.15 2.062.143 3.039-.365.612-.312.848-.215.904.328.068 1.099.263 2.232.092 3.305-.341 2.402-1.256 4.662-2.419 6.783-.234.415-.54.571-.961.479-.954-.174-1.909-.348-2.86-.593-4.825-1.23-9.278-3.309-13.582-5.78-7.647-4.396-15.12-9.097-22.363-14.143-.425-.276-.897-.47-1.38-.707-.028-.015-.13.037-.188.076-.016.028-.008.142.02.158.279.341.586.697.924.998 2.4 2.307 5.043 4.313 7.732 6.236 5.395 3.817 11.017 7.362 16.69 10.752 3.118 1.872 6.455 3.357 9.959 4.352 1.619.477 3.304.772 4.974.839 1.076.023 2.077-.142 2.766-1.104.047-.083.189-.076.291-.128.035.13.086.232.122.361a.346.346 0 01-.039.198c-1.314 5.214-4.138 9.245-9.031 11.668-.816.416-1.734.627-2.638.555-.832-.069-1.696-.082-2.525-.222-2.715-.402-5.324-1.183-7.862-2.216-6.548-2.679-12.555-6.185-17.92-10.826-.338-.301-.7-.689-1.108-.737-1.466-.17-2.496-1.045-3.389-2.099-.347-.415-.775-.621-1.262-.786-1.352-.436-2.414-1.255-3.127-2.499-.26-.44-.543-.709-1.019-.832-1.548-.473-2.743-1.442-3.622-2.779-.405-.631-.893-1.053-1.647-1.26-.979-.261-1.812-.842-2.32-1.678-.56-.937-1.252-1.767-1.988-2.585-2.113-2.365-4.121-4.852-6.308-7.149-3.663-3.862-7.327-7.724-11.229-11.355l-1.416-1.349c-6.008-6.138-12.62-11.594-19.532-16.709-4.023-2.969-8.077-5.882-12.131-8.796-.354-.273-.736-.562-1.152-.724-1.725-.61-2.859-1.946-4.051-3.241-.563-.61-1.184-1.181-1.79-1.78-1.416-1.349-2.864-2.642-4.221-4.031-.512-.508-.835-1.093-1.675-1.02-.271.03-.566-.283-.826-.467-1.454-.895-2.638-2.076-3.776-3.341-.562-.61-1.2-1.153-1.837-1.696-.582-.512-1.285-.873-1.793-1.453-1.204-1.339-2.287-2.828-3.519-4.182-1.07-1.19-1.21-2.548-.961-4.016.31-1.834.94-3.525 1.82-5.146 1.895-3.607 4.792-6.355 7.728-9.043.389-.366.738-.278.869.198.506 1.931 1.436 3.626 2.628 5.178.941 1.226 2.043 2.36 3.133 3.452 2.53 2.527 5.45 4.617 8.282 6.803 3.335 2.58 6.745 5.092 10.126 7.589.559.425 1.176.811 1.766 1.181.11.062.326.002.483-.019-.032-.201.023-.426-.084-.559-.263-.369-.527-.737-.865-1.038-.89-.868-1.751-1.721-2.7-2.549-3.44-2.969-6.941-5.899-10.355-8.852-2.75-2.395-5.366-4.898-7.637-7.754-.929-1.183-1.74-2.445-2.245-3.864-.454-1.317-.358-2.578.496-3.703.29-.384.604-.426.954-.082.944.9 2.01 1.648 3.2 2.175 2.119.942 4.25 1.927 6.446 2.731 1.14.425 2.056 1.053 2.815 1.957 2.975 3.473 4.93 7.466 5.881 11.95.25 1.165.444 2.298.71 3.435.023.086.172.207.27.226.099.019.275-.1.28-.171.065-.694.162-1.443.156-2.141-.18-4.561-1.763-8.635-4.299-12.371-.224-.31-.417-.675-.599-.996-.011-.044.114-.265.169-.234.452.036.9.143 1.336.207 2.628.426 5.256.852 7.9 1.25.56.099 1.181.157 1.739.07.758-.12 1.567.12 2.234-.418-.45-.875-1.392-.75-2.13-.985-2.79-.846-5.63-1.539-8.401-2.484-5.026-1.709-9.578-4.32-13.45-8.006-1.077-1.048-2.022-2.204-2.774-3.506-.453-.805-.777-1.645-.869-2.574-.127-1.06.186-1.357 1.176-1.053.865.27 1.726.61 2.559.935 5.167 1.971 10.358 3.774 15.796 4.948 4.82 1.044 9.695 1.864 14.682 1.65.255-.002.542-.06.793.01.209.081.495.28.543.453.25 1.42.802 2.756 1.413 4.052.138.334.139.59-.309.739-1.99.629-2.654 2.19-2.769 4.062-.034.639.03 1.296.208 1.945.308 1.124.703 2.225 1.082 3.353.162.42.367.828.529 1.249.035.13-.078.394-.208.43-.231.089-.514.075-.785.105-1.767.17-2.83 1.214-3.411 2.822-.38.992-.464 2.04-.364 3.084.044.5.116 1.015.184 1.602-.57-.213-1.042-.406-1.545-.545-1.819-.443-3.404.305-4.163 2.032a4.97 4.97 0 00-.343 1.122c-.525 2.663.154 5.057 1.8 7.157.212.266.601.413.916.628.462-.433-.092-.673-.175-.976-.233-.68-.568-1.308-.757-2-.333-1.211-.437-2.44-.2-3.694.16-.86.57-1.651 1.438-1.965 1.072-.417 2.187-.079 3.271.059.676.09.885.683 1.228 1.169.079.118.29.128.471.194.024-.17.106-.379.058-.552-.14-1.102-.408-2.168-.434-3.279-.01-.882.197-1.825.455-2.667.238-.742.716-1.459 1.52-1.661 1.351-.333 2.721-.509 3.745.764.24.282.582.512.896.727.028.015.248-.116.251-.187-.043-.244-.071-.516-.201-.736-.556-1.264-1.187-2.461-1.672-3.722-.521-1.391-.94-2.834-1.316-4.29-.296-1.08-.208-2.2.218-3.275a3.77 3.77 0 01.713-1.132c.333-.396.855-.357 1.174.043.547.638 1.02 1.344 1.61 1.97 2.125 2.407 4.477 4.541 7.088 6.347 1.121.78 2.367 1.338 3.565 1.979.083.047.271-.03.334-.14.031-.056.015-.284-.067-.33-2.182-1.344-3.957-3.151-5.821-4.864-1.85-1.74-3.416-3.721-4.759-5.906-.847-1.393-1.548-2.85-2.003-4.422-.26-.951-.435-1.927-.284-2.901.058-.296.164-.675.372-.85.31-.227.573.141.774.364.456.478.885.94 1.326 1.445 2.487 2.795 5.444 5.015 8.601 6.946.48.308 1.038.477 1.58.674.083.047.259-.073.306-.156.047-.083 0-.256-.04-.315a7.403 7.403 0 00-.85-.809 178.824 178.824 0 00-3.37-2.966c-3.269-2.761-5.87-6.06-8.116-9.668-1.146-1.89-2.174-3.861-2.783-5.996-.297-1.081-.522-2.16-.434-3.279.027-.24.168-.49.25-.699.22.124.472.194.617.385.642.729 1.267 1.484 1.909 2.213 3.735 4.377 8.147 8.005 13.034 10.988.48.307 1.018.575 1.529.828.221.124.484.236.723.262.24.026.472-.062.715-.107-.087-.232-.119-.433-.264-.625-.091-.16-.299-.242-.449-.363-3.982-2.398-7.389-5.493-10.674-8.74a37.246 37.246 0 01-4.966-5.987c-1.682-2.486-3.1-5.115-3.864-8.069-.506-1.93-.73-3.848-.313-5.805a1.81 1.81 0 01.2-.545c.047-.083.29-.128.33-.07.303.428.606.855.866 1.294 1.925 2.953 4.133 5.663 6.742 8.052 2.714 2.521 5.534 4.92 8.612 6.99 1.793 1.196 3.59 2.321 5.602 3.13.291.128.598.228.92.3.098.02.259-.072.306-.155.047-.083.015-.284-.068-.33a28.808 28.808 0 00-1.403-1.05c-2.037-1.408-4.152-2.677-6.083-4.207-3.115-2.455-6.05-5.101-8.682-8.088a39.392 39.392 0 01-7.97-13.716c-.623-1.851-.988-3.775-.953-5.765.042-1.036.225-2.066.435-3.08.152-.718.579-1.28 1.198-1.734 1.428-.984 2.708-1.064 4.155-.027.818.609 1.542 1.384 2.223 2.17 1.61 1.97 2.588 4.351 3.801 6.572 1.175 2.163 2.376 4.34 3.668 6.423 2.407 3.773 5.675 6.534 9.962 8.008 1.462.498 2.9 1.165 4.327 1.789 3.003 1.369 5.657 3.162 7.61 5.874.606.855 1.185 1.694 1.791 2.548.646.913 1.44 1.692 2.56 1.96.126.034.428-.051.475-.134.227-.53.561-.414.962-.224 1.199.641 2.413 1.255 3.612 1.896 3.349 1.784 5.412 4.559 6.204 8.296.626 2.875.474 5.713-.145 8.542-.794 3.718-2.229 7.219-3.845 10.654-.289.64-.736 1.046-1.4 1.255-1.452.385-2.884.927-4.341 1.127-2.642.37-5.289.555-7.967.795-1.225.111-2.458.108-3.71.204-3.746.331-7.078 1.663-9.999 4.068-.965.807-1.835 1.703-2.308 2.861-.227.53-.544 1.155-.429 1.658.258 1.279-.31 2.09-1.133 2.904a4.91 4.91 0 00-.839 1.097 6.64 6.64 0 00-.618 1.222c-.18.447-.053.994.229 1.007.283.014.629-.083.852-.286.31-.226.541-.571.784-.872.49-.673.967-1.39 1.512-2.032.196-.218.549-.457.789-.431 1.127.125 2.041-.271 2.963-.81.483-.275.907-.255 1.453-.129 1.049.264 2.176.39 3.26.528 1.1.11 2.219.122 3.304.26 1.323.163 2.502.647 3.501 1.578.311.285.28.597-.096.749-.35.168-.714.364-1.076.489-2.138.764-4.281 1.599-6.456 2.233-8.364 2.397-16.879 3.905-25.517 4.795-.656.068-1.292.037-1.932.077-.213-.778.383-1.318.656-1.931.192-.403.454-.803.729-1.16 3.384-4.701 7.883-7.712 13.461-9.163.502-.118 1.005-.236 1.495-.397.087-.024.239-.23.212-.246-.106-.133-.236-.353-.35-.344-1.512-.088-2.977.254-4.405.725-5.907 2.033-10.55 5.62-13.406 11.315-.27.541-.415.605-.867.313-.673-.416-1.27-.901-1.943-1.317-.987-.631-1.977-1.191-2.98-1.795-.082-.047-.318.113-.451.22-.075.068-.058.296.024.343.527.48 1.086.906 1.628 1.359 3.615 3.177 7.171 6.393 10.606 9.761 4.457 4.384 8.514 9.09 12.658 13.772 3.286 3.758 6.497 7.584 9.752 11.398 3.79 4.408 8.273 8.04 12.984 11.398.629.428 1.305.774 2.17 1.3-.375-.943-1.008-1.301-1.507-1.766-1.975-1.774-4.008-3.509-5.967-5.311-.96-.872-1.771-1.878-2.684-2.833-.094-.09-.13-.22-.181-.322.161-.091.322-.183.51-.259.13-.037.271-.03.385-.039 7.35-.924 14.403-2.929 21.223-5.871.667-.28 1.346-.774 1.966-.715.833.068.902 1.167 1.351 1.786.476.635.823 1.306 1.299 1.941.319.4.693 1.086 1.16.839.51-.26.108-.962-.081-1.398-.249-.652-.611-1.296-.946-1.924-1.552-2.778-3.164-5.516-4.657-8.334a1302.506 1302.506 0 01-8.981-17.321c-1.541-2.991-3.11-5.998-5-8.821a24.17 24.17 0 00-3.384-4.033c-1.633-1.544-3.531-2.362-5.813-2.373-.978-.005-1.956-.009-2.918-.042a17.735 17.735 0 01-1.917-.206c-.098-.019-.204-.153-.212-.267-.008-.114.07-.252.145-.32 1.102-.729 2.346-1.195 3.669-1.287 3.872-.297 7.755-.549 11.882-.847-.263.4-.4.578-.525.799-.787 1.456-.615 2.759.541 3.924.567.54 1.196.969 1.946 1.247 1.168.441 2.358.712 3.638.632 1.649-.091 1.485.072 2.049 1.45.15.377.272.739.351 1.113.163.676.072.771-.56.926-.816.159-1.688.288-2.457.62-1.569.721-1.991 2.237-1.195 3.783a4.318 4.318 0 001.747 1.792c1.584.859 3.246 1.324 5.04.913.416-.094.739-.021.955.43.292.64.611 1.296.903 1.936.162.421.08.63-.336.724-.244.045-.526.031-.785.104-1.869.478-2.652 1.863-2.169 3.707.45 1.644 1.544 2.664 3.116 3.224 1.607.433 3.001.345 4.401-.398zM59.503 61.311c-.574-.654-1.066-1.26-1.574-1.84-2.487-2.795-4.343-6-5.44-9.582-.787-2.527-1.16-5.078-.906-7.711.073-.836.287-1.665.557-2.463.219-.644.811-.857 1.432-.542.621.314 1.282.688 1.766 1.18 1.735 1.75 3.485 3.47 5.13 5.314 3.864 4.34 8.348 7.972 13.074 11.303 3.197 2.246 6.739 3.883 10.44 5.172 1.155.397 2.373.683 3.583.856.774.109 1.183.413 1.475 1.053.153.306.209.593-.062.879-1.47 1.508-1.596 3.337-1.246 5.288.075.445.221.893.296 1.338.008.114-.176.375-.29.384-.596.028-1.162 0-1.755-.042-3.005-.274-5.869-1.053-8.722-2.045-5.383-1.91-10.54-4.351-15.536-7.14-.814-.423-1.538-.942-2.222-1.402zm10.668-9.683c-4.129-3.102-6.876-6.593-8.738-10.751-2.062-4.638-2.99-9.548-2.916-14.623.012-1.82.209-3.646.7-5.415.313-1.066.653-2.116 1.338-3.008.412-.535.922-.538 1.186.086.608 1.367 1.156 2.773 1.72 4.152 1.59 3.932 3.442 7.72 5.923 11.17a160.19 160.19 0 003.492 4.678c2.77 3.577 5.965 6.663 9.775 9.11.987.63 1.99 1.234 2.992 1.837.727.448.755.463.473 1.218-.863 2.362-.82 4.726-.14 7.12.348 1.184.825 2.33 1.216 3.502.047.173.052.358.083.559-.169-.023-.341.026-.495-.024-2.801-.89-5.442-2.128-7.958-3.587-3.244-1.907-6.28-3.989-8.65-6.024zm10.71-8.6c-.583-.512-.921-.813-1.26-1.113-4.763-4.229-8.432-9.3-11.435-14.908-.335-.628-.509-1.348-.67-2.024-.86-3.812-.655-7.643.116-11.447a14.628 14.628 0 012.123-5.231c.571-.883 1.238-1.676 2.226-2.14.452-.22.93-.168 1.238.188.295.313.57.725.748 1.117.24.538.351 1.113.506 1.675.648 2.45 1.28 4.927 1.973 7.365 1.031 3.763 2.365 7.44 4.194 10.887 1.068 2.029 2.328 3.91 4.27 5.228.452.293.544.71.348 1.184-.766 1.869-.716 3.835-.465 5.767.24 1.89.737 3.706 1.408 5.474.202.48.36.97.545 1.478.012.043.004.185.004.185-.13.036-.247.116-.373.081a2.05 2.05 0 01-.691-.318 202.481 202.481 0 00-4.806-3.448zM58.122 73.066c-3.219-3.172-4.92-5.56-6.315-8.614-.686-1.484-1.07-3.054-1.222-4.711-.044-.5-.151-1.146.32-1.464.513-.331.97.146 1.378.45.315.215.598.485.897.727 2.568 2.073 5.242 4.024 8.1 5.713 4.356 2.572 8.869 4.868 13.67 6.523 4.413 1.509 8.872 2.422 13.577 2.195.227-.018.561.098.652.259.902 1.423 1.804 2.847 2.647 4.31.09.161.044.5-.066.694-.156.277-.45.476-.635.738-.387.621-.949.779-1.648.859a18.86 18.86 0 01-5.05.068c-2.828-.393-5.656-.786-8.46-1.349-4.586-.948-9.15-1.994-13.497-3.684-1.78-.641-3.376-1.543-4.348-2.714zm52.79 74.654a326.471 326.471 0 01-4.412-5.236c-.106-.133-.236-.353-.201-.479.062-.111.294-.199.467-.248 3.565-.396 7.11-.694 10.667-1.204 4.142-.582 8.201-1.466 12.157-2.811 1.66-.56 3.297-1.206 4.973-1.793.679-.238.875-.2 1.147.283.93 1.695 1.844 3.418 2.758 5.141.233.424.119.689-.442.846-1.731.557-3.477 1.141-5.22 1.654-6.206 1.79-12.498 3.093-18.83 4.337-.644.111-1.276.265-1.916.305-.228.017-.519-.11-.68-.275-.248-.14-.402-.446-.468-.52zm-13.994-15.843l.031-.055c-.621-.571-1.258-1.114-1.88-1.685-.161-.164-.464-.335-.264-.624.106-.123.322-.184.522-.217 2.466-.25 4.9-.445 7.37-.767 8.504-1.039 16.791-2.785 24.713-6.199.102-.052.232-.089.377-.153.377-.152.64-.04.821.282l2.117 4.157c.244.467.146.704-.36.893-1.939.731-3.881 1.533-5.883 2.119-7.316 2.149-14.85 3.334-22.412 4.248-.828.117-1.692.103-2.544.133-.413.023-.731-.121-1.026-.434-.508-.579-1.059-1.146-1.582-1.698zm36.361-64.63c1.673-.004 3.292.473 4.93.851 2.464.589 4.911 1.205 7.453 1.4.832.068 1.696.082 2.525-.035.926-.097 1.742-.512 2.283-1.34.078-.138.074-.324.07-.509.015-.027-.236-.096-.338-.044-1.393.6-2.831.446-4.218.137-4.105-.896-8.238-1.808-12.355-2.747-.099-.02-.162-.164-.256-.254.102-.052.192-.148.263-.144.84-.073 1.68-.146 2.517-.148 2.851-.033 5.702-.066 8.561.016 1.755.042 3.48.396 5.134 1.003 2.016.738 3.185 2.203 3.236 4.424.006.954-.161 1.956-.395 2.883-.296 1.295-1.077 1.84-2.388 1.72-.692-.062-1.387-.31-2.024-.596-.597-.229-1.128-.638-1.694-.922-1.23-.586-1.729-.539-2.564.488-.607.753-1.092 1.611-1.688 2.407-.121.151-.286.314-.471.319-.113.009-.314-.214-.334-.372-.632-1.965-1.734-3.612-3.1-5.115-1.362-1.574-3.166-2.557-5.147-3.422zm8.626 37.732c.208-.174.427-.306.58-.512.377-.409.758-.376 1.213-.155 1.604.761 2.776 1.899 3.439 3.553.442 1.017.797 2.058 1.196 3.088.836 2.117 1.57 4.287 2.509 6.352 1.463 3.13 3.698 5.599 6.662 7.422 2.622 1.592 5.4 2.139 8.394 1.274.432-.121.88-.27 1.323-.348.459-.106.939-.054 1.226.401.288.455.08.886-.139 1.273-.125.222-.333.397-.513.587-1.208 1.108-2.652 1.607-4.282 1.599-4.489-.089-8.167-1.804-10.954-5.353a28.955 28.955 0 01-4.074-7.054c-.552-1.336-1.033-2.668-1.645-3.964-.65-1.354-1.332-2.653-2.143-3.916-.366-.573-.917-1.14-1.538-1.454-.912-.443-1.102-1.391-1.72-2.033-.039-.058-.028-.271.047-.339.109-.194.27-.285.419-.421zm-3.296-9.392c.446-.66.85-1.31 1.28-1.944.263-.4.62-.453 1.017-.192 1.258.858 1.61 2.226.941 3.602-.399.834-.947 1.547-1.7 2.108-4.706 3.699-9.862 6.009-15.953 5.928a79.981 79.981 0 00-5.832.101c-3.282.154-6.253 1.105-8.637 3.522-.27.286-.607.497-.929.681-.322.183-.841-.183-.849-.554-.005-.185-.021-.413.073-.579.372-.85.771-1.684 1.563-2.187 1.055-.645 2.071-1.35 3.166-1.937 2.287-1.156 4.744-1.776 7.316-1.893 2.6-.102 5.188-.247 7.795-.491 4.032-.387 7.721-1.773 10.893-4.365.608-.497 1.094-1.1 1.635-1.67.09-.096.105-.38.042-.525-.051-.102-.346-.16-.491-.095-.435.192-.757.632-1.33.49zm15.278 50.63c.258-.329.47-.574.627-.851.078-.139-.009-.371-.099-.532-.04-.058-.279-.084-.354-.017l-1.765 1.195c-.337.211-.671.096-.766-.25-.49-1.703-.925-3.374-.391-5.155.141-.505.113-1.033.225-1.554.024-.169.173-.304.306-.412.059-.04.267.042.334.116.76.905 1.256 1.953 1.549 3.105.119.433-.109.706-.34 1.051-.352.495-.285.569.253.837.676.346 1.395.679 2.025 1.108.562.355.885.939 1.063 1.588.534 2.202-.808 4.769-2.935 5.577-1.26.493-2.498.049-3.203-1.08-.339-.557-.351-1.113.115-1.616.662-.722 1.392-1.37 2.093-2.033.404-.393.863-.755 1.263-1.077zm-23.899-35.769c-1.003-.859-.933-1.624-.086-2.095.279-.172.569-.3.887-.413a22.906 22.906 0 011.707-.386c2.489-.42 5.046-.51 7.448-1.418.274-.1.494.024.636.287.631 1.197.393 2.196-.787 3.063-2.683 1.919-5.608 2.275-8.712 1.47-.491-.095-.928-.415-1.093-.508zm13.196 17.511c-.016.028-.059.04-.09.095-.28-.34-.732-.633-.839-1.022a20.289 20.289 0 00-1.231-3.474c-.166-.349.132-.619.411-.791.204-.104.522-.216.687-.123 1.037.477 1.824 1.141 2.274 2.273.69 1.669.909 3.401.743 5.171-.061.623-.351 1.263-.609 1.848-.211.502-.638.809-1.184.939-1.955.503-4.42-1.111-4.683-3.086-.052-.359.105-.636.439-.776.231-.088.506-.189.734-.206.793.01 1.57.048 2.332.113.452.036.884.171 1.348.25.098.019.259-.073.306-.156.047-.083.043-.268.003-.327-.169-.278-.413-.489-.641-.728zm4.511 10.006c-.016.028-.059.04-.059.04-.28-.341-.677-.602-.854-.995-.509-1.091-.574-2.261-.285-3.413.054-.225.431-.378.635-.226.299.242.657.445.882.754 1.37 1.944 1.935 4.091 1.229 6.433-.207.687-.567 1.324-1.199 1.734-.294.199-.686.38-1.056.39-.938.054-1.783-.314-2.44-1.014-.74-.747-.883-1.779-.405-2.495.493-.745 1.278-.849 2.08-.725.267.042.503.139.754.208.252.069.472.193.755.207.168.022.345-.097.49-.161-.09-.161-.138-.334-.244-.467-.079-.118-.189-.18-.283-.27zm-13.901-16.777c-.17-.279-.461-.663-.639-1.055-.216-.452-.036-.898.415-1.118.843-.4 1.754-.47 2.65-.512 1.107-.032 2.199-.036 3.246-.54.35-.168.625-.012.869.199.609.527.787 1.176.576 1.934-.323 1.279-1.198 1.99-2.446 2.271-1.649.347-3.166-.182-4.671-1.179zm10.684-41.761c-.451.476-.874.967-1.325 1.444-.106.122-.306.155-.463.176-.043.012-.146-.192-.181-.322-.084-.558-.179-1.16-.219-1.731-.013-.3.077-.651.246-.885a97.639 97.639 0 012.51-3.477c.306-.412.636-.482.99-.208 1.431 1.065 2.901 1.933 4.759 1.923.043-.012.209.337.134.405-.853 1.381-.629 1.69-2.362.967a9.795 9.795 0 00-.904-.329c-.684-.204-1.3-.077-1.782.454-.466.504-.921 1.051-1.403 1.583zm-7.534 33.748c.134-.107.251-.187.353-.239l2.308-.998c.435-.192.655-.068.856.412.612 1.551-.12 2.782-.907 3.981-.294.456-.903.44-1.437.358-.365-.061-.445-.434-.528-.737-.229-.751-.43-1.486-.659-2.237-.02-.158.019-.355.014-.54zm3.893-10.225c-.149.135-.451.476-.819.743-1.499.98-3.218 1.324-4.969 1.466-.044.013-.126-.034-.181-.065.062-.111.086-.281.16-.348.279-.172.542-.315.848-.471 2.114-1.107 4.217-2.257 5.887-4.054.059-.04.259-.073.298-.014.067.075.13.22.123.362-.132.875-.622 1.549-1.347 2.381z" fill="#131B43"/><path d="M59.502 61.311c.7.433 1.451.967 2.222 1.403 4.996 2.788 10.153 5.229 15.536 7.14 2.81 1.004 5.718 1.77 8.722 2.044.578.07 1.159.07 1.756.043.114-.01.298-.27.29-.385-.076-.444-.194-.877-.297-1.337-.35-1.952-.223-3.78 1.247-5.289.27-.285.215-.572.061-.879-.292-.64-.7-.944-1.475-1.053a19.583 19.583 0 01-3.583-.856c-3.701-1.29-7.215-2.91-10.44-5.172-4.726-3.33-9.225-6.934-13.074-11.303-1.645-1.843-3.38-3.592-5.13-5.313-.484-.493-1.145-.866-1.766-1.18-.62-.315-1.213-.102-1.432.542-.27.797-.484 1.626-.557 2.462-.255 2.634.104 5.212.905 7.712a25.915 25.915 0 005.441 9.581c.508.58 1 1.187 1.574 1.84z" fill="#fff"/><path d="M70.17 51.629c2.372 2.035 5.407 4.117 8.611 5.965 2.516 1.459 5.158 2.697 7.96 3.586.153.05.325.002.494.024-.032-.2-.036-.386-.083-.559-.391-1.17-.868-2.318-1.216-3.501-.668-2.351-.724-4.758.14-7.12.281-.755.254-.77-.473-1.218a129.499 129.499 0 01-2.992-1.838c-3.81-2.447-7.005-5.532-9.776-9.109a160.194 160.194 0 01-3.491-4.679c-2.48-3.449-4.334-7.237-5.923-11.17-.564-1.378-1.113-2.785-1.72-4.151-.264-.625-.775-.621-1.186-.086-.686.891-1.069 1.954-1.338 3.008-.491 1.768-.688 3.594-.7 5.414-.074 5.075.854 9.986 2.944 14.639 1.873 4.202 4.604 7.72 8.75 10.794z" fill="#fff"/><path d="M80.88 43.029c1.42 1.022 3.114 2.2 4.82 3.42.205.152.456.221.692.318.099.02.244-.045.373-.081.016-.028.035-.127-.004-.185-.158-.492-.36-.971-.545-1.478a22.685 22.685 0 01-1.408-5.474c-.278-1.948-.301-3.898.465-5.767.196-.474.116-.848-.348-1.184-1.942-1.317-3.159-3.211-4.27-5.228-1.856-3.462-3.163-7.124-4.194-10.887-.692-2.438-1.297-4.9-1.973-7.365-.155-.562-.293-1.152-.506-1.675a3.885 3.885 0 00-.748-1.117c-.335-.372-.786-.408-1.238-.188-.988.464-1.627 1.272-2.226 2.14a14.626 14.626 0 00-2.123 5.231c-.77 3.804-.976 7.635-.117 11.447.162.676.337 1.396.671 2.024 3.003 5.608 6.672 10.68 11.436 14.908.338.3.676.601 1.243 1.14zM58.122 73.066c.972 1.171 2.568 2.073 4.36 2.758 4.39 1.678 8.94 2.752 13.496 3.684 2.79.59 5.634.956 8.462 1.349 1.689.224 3.35.176 5.05-.069.671-.095 1.248-.28 1.648-.859.156-.276.478-.46.634-.737.11-.194.157-.533.066-.694-.843-1.463-1.745-2.887-2.647-4.31-.118-.177-.424-.277-.652-.26-4.693.27-9.179-.658-13.576-2.194-4.802-1.655-9.315-3.95-13.67-6.523-2.858-1.69-5.532-3.64-8.1-5.713-.3-.242-.583-.512-.897-.727-.41-.304-.881-.754-1.38-.45-.47.318-.347.936-.319 1.464.168 1.63.552 3.199 1.222 4.71 1.384 3.012 3.1 5.372 6.303 8.571zM114.495 152.816c.067.074 3.93 3.647 4.174 3.858.177.137-.228.018 0 0 .655-.068 5.539 3.498 6.156 3.371 6.332-1.244 7.144-3.964 13.321-5.77 1.743-.513 1.765.413 3.495-.144.534-.173 3.773-.571 3.541-.995-.914-1.723-5.984-10.29-6.914-11.986-.272-.482-.468-.52-1.147-.283-1.649.603-3.285 1.249-4.973 1.794-3.956 1.344-8.042 2.213-12.157 2.81-3.541.483-4.677-.269-8.242.127-.157.021-.472.063-.507.189-.062.111-.882.854-.775.987 1.412 1.676 2.454 4.202 4.028 6.042zM96.918 131.877c.523.552 1.074 1.119 1.582 1.699.295.313.613.456 1.026.434.852-.03 1.688-.032 2.544-.133 7.562-.914 15.053-2.087 22.412-4.249 2.002-.586 3.917-1.403 5.883-2.119.506-.189.604-.426.36-.893a137.96 137.96 0 00-2.117-4.157c-.181-.321-.444-.434-.821-.281-.13.036-.232.088-.377.152-7.895 3.43-16.225 5.189-24.713 6.2-2.454.294-4.932.501-7.37.767-.185.005-.416.093-.522.216-.216.317.087.488.264.625.622.57 1.243 1.141 1.88 1.684l-.03.055zM133.279 67.248c1.981.864 3.785 1.848 5.175 3.437 1.349 1.53 2.468 3.15 3.1 5.115.063.145.22.38.334.372.141.007.349-.168.471-.319.568-.811 1.053-1.67 1.688-2.407.834-1.027 1.333-1.074 2.563-.488.566.284 1.113.666 1.695.922.652.259 1.332.534 2.023.596 1.312.12 2.108-.453 2.389-1.72.206-.943.401-1.93.395-2.883-.039-2.178-1.193-3.67-3.236-4.424-1.655-.607-3.379-.96-5.135-1.003-2.859-.082-5.71-.05-8.561-.016-.836.002-1.692.102-2.517.148-.086.024-.176.12-.263.144.095.09.174.207.256.254 4.117.939 8.223 1.835 12.356 2.747 1.387.309 2.824.464 4.217-.137.102-.052.354.017.338.044.004.186.009.37-.07.51-.54.826-1.356 1.242-2.283 1.34-.813.088-1.692.102-2.525.034-2.525-.222-4.989-.811-7.452-1.4-1.666-.394-3.257-.855-4.958-.866zM141.905 104.98c-.149.135-.325.254-.403.393-.047.083-.102.308-.047.339.618.642.808 1.59 1.72 2.032.593.299 1.16.839 1.538 1.455.784 1.247 1.477 2.589 2.143 3.916.611 1.296 1.093 2.628 1.645 3.964 1.042 2.525 2.389 4.895 4.074 7.054 2.786 3.549 6.465 5.264 10.954 5.353 1.63.008 3.074-.491 4.282-1.599.208-.175.415-.35.513-.587.192-.403.415-.862.139-1.274-.287-.455-.739-.491-1.226-.4-.443.078-.891.227-1.323.348-2.994.865-5.756.29-8.394-1.274-2.98-1.795-5.215-4.265-6.662-7.422-.939-2.065-1.689-4.207-2.509-6.352-.399-1.03-.754-2.071-1.196-3.088-.678-1.627-1.878-2.78-3.439-3.553-.483-.237-.837-.254-1.213.155-.168.233-.388.365-.596.54zM138.609 95.588c.574.141.895-.298 1.299-.435.13-.037.424.02.491.095.079.117.064.401-.042.524-.513.587-1.027 1.174-1.635 1.67-3.172 2.592-6.861 3.978-10.893 4.366-2.58.259-5.179.361-7.795.49-2.572.117-5.029.738-7.316 1.893-1.107.544-2.122 1.249-3.166 1.938-.835.515-1.207 1.364-1.563 2.186-.066.182-.062.367-.073.58.008.37.543.709.849.553.322-.183.675-.422.929-.68 2.384-2.417 5.355-3.368 8.638-3.522a79.946 79.946 0 015.831-.102c6.075.11 11.247-2.229 15.953-5.927.725-.576 1.274-1.29 1.7-2.108.669-1.376.302-2.717-.941-3.602-.369-.246-.727-.192-1.017.192-.399.578-.802 1.227-1.249 1.889zM153.887 146.218c-.4.322-.859.683-1.278 1.104a91.592 91.592 0 00-2.093 2.033c-.451.476-.438 1.031-.115 1.616.662 1.141 1.915 1.558 3.202 1.08 2.127-.808 3.47-3.374 2.935-5.577-.162-.676-.501-1.233-1.063-1.588-.645-.401-1.348-.762-2.024-1.108-.539-.268-.606-.342-.253-.837.231-.345.458-.618.34-1.051-.336-1.14-.79-2.2-1.549-3.105-.067-.074-.276-.155-.334-.116-.134.108-.283.243-.306.412-.097.494-.057 1.064-.225 1.554-.535 1.781-.088 3.496.39 5.155.095.346.429.461.767.25l1.765-1.195c.074-.067.314-.041.353.018.091.16.178.392.099.531-.141.249-.395.507-.611.824zM129.989 110.449c.165.093.617.385 1.092.508 3.104.805 6.057.464 8.712-1.47 1.208-.852 1.418-1.866.788-3.063-.142-.263-.362-.387-.637-.287-2.429.892-4.958.997-7.447 1.417-.573.115-1.146.229-1.708.387a3.628 3.628 0 00-.886.412c-.864.499-.917 1.236.086 2.096zM143.184 127.96c.228.238.456.477.641.728.067.074.072.259-.003.327-.047.083-.208.175-.306.156-.436-.064-.896-.214-1.347-.251a32.232 32.232 0 00-2.333-.113c-.255.002-.503.118-.734.207-.334.14-.506.445-.439.775.291 1.991 2.728 3.589 4.683 3.086.546-.13.961-.479 1.184-.938.259-.585.505-1.213.61-1.848.208-1.783-.054-3.502-.744-5.172-.466-1.104-1.236-1.795-2.274-2.272-.181-.066-.511.003-.687.123-.279.171-.549.457-.411.791.52 1.135.927 2.278 1.232 3.474.106.389.558.681.838 1.022.031-.056.074-.068.09-.095zM147.695 137.965c.094.09.204.152.283.27.106.133.154.306.244.467-.172.048-.349.168-.49.161-.24-.026-.503-.138-.755-.207-.251-.069-.487-.166-.754-.208-.801-.124-1.587-.02-2.08.725-.493.744-.335 1.748.405 2.495.657.7 1.475 1.053 2.441 1.014.369-.01.761-.191 1.055-.39.632-.41.992-1.047 1.199-1.734.722-2.369.141-4.489-1.229-6.433-.225-.309-.582-.512-.881-.754-.205-.152-.581.001-.636.226-.304 1.18-.224 2.322.285 3.413.177.393.559.682.854.995 0 0 .016-.028.059-.04zM133.794 121.189c1.506.997 2.995 1.51 4.687 1.151 1.233-.253 2.123-.992 2.446-2.271.211-.758.033-1.407-.576-1.934-.272-.227-.547-.382-.869-.199-1.02.52-2.139.508-3.246.54-.923.026-1.807.112-2.65.512-.451.22-.631.666-.414 1.118.189.436.453.804.622 1.083z" fill="#fff"/><path d="M144.478 79.427c.482-.531.937-1.078 1.447-1.594.509-.516 1.098-.658 1.782-.454.306.1.613.2.903.328 1.734.724 1.482.399 2.363-.967.047-.083-.091-.417-.134-.405-1.858.01-3.356-.873-4.76-1.923-.354-.273-.699-.176-.989.208-.842 1.168-1.696 2.293-2.511 3.477-.168.234-.258.585-.246.885.025.599.109 1.157.22 1.732.008.114.11.318.181.322.157-.021.357-.054.463-.177.407-.464.831-.956 1.281-1.432zM136.944 113.176c.02.157-.019.354.029.527.202.736.431 1.486.66 2.237.083.303.135.661.527.737.519.111 1.128.126 1.437-.357.787-1.2 1.519-2.43.908-3.982-.201-.479-.406-.631-.857-.411l-2.307.997c-.161.092-.279.172-.397.252zM140.837 102.951c.725-.833 1.258-1.518 1.347-2.382a.458.458 0 00-.123-.361c-.039-.059-.239-.026-.298.014-1.67 1.797-3.773 2.947-5.887 4.053-.306.156-.569.3-.848.471-.102.052-.125.222-.16.348.055.031.11.062.181.066 1.751-.143 3.443-.502 4.969-1.466.368-.267.67-.608.819-.743z" fill="#fff"/><path d="M86.472 142.453c3.918 3.604 7.836 7.208 11.726 10.797.566.539 1.058 1.146 1.582 1.698.133.149.299.242.464.335.082.047.255-.001.329-.069.075-.067.141-.249.09-.351-.736-1.074-1.414-2.188-2.24-3.167a81.007 81.007 0 00-13.041-12.454c-1.852-1.413-3.642-2.936-5.541-4.266-1.9-1.329-3.92-2.508-5.91-3.743-.082-.047-.227.017-.357.054.036.13.044.244.095.346a.34.34 0 00.134.149l.283.269c3.01 2.579 6.034 5.13 9.015 7.692 1.086.907 2.199 1.828 3.284 2.734.055.031.071.004.087-.024zM128.798 68.88c-.184.518-.383 1.063-.555 1.624-.667 2.4-1.291 4.788-1.915 7.176-.776 2.85-1.635 5.654-3.091 8.23a20.39 20.39 0 01-1.728 2.604c-.924 1.122-2.034 1.993-3.423 2.523-.84.33-1.707.643-2.535 1.015-2.598 1.126-4.716 2.816-5.932 5.417-.622 1.293-1.091 2.636-1.576 4.007-.164.418-.104.891-.115 1.36-.004.071.161.164.228.238.028.016.157-.02.173-.048.309-.483.689-.963.944-1.477a179.519 179.519 0 001.91-3.634c.997-1.958 2.57-3.261 4.453-4.28.628-.34 1.283-.663 1.934-.916 3.069-1.188 5.174-3.434 6.81-6.2a25.772 25.772 0 002.304-5.166 77.287 77.287 0 002.39-9.685c.147-.904.154-1.814.23-2.72-.011-.044-.063-.146-.09-.161a2.297 2.297 0 00-.416.093zM132.976 93.025c.945-.965 1.281-2.2 1.211-3.555-.133-2.269-2.182-3.72-4.376-3.242-2.454.55-4.188 3.552-3.437 5.95.553 1.848 2.428 2.835 4.327 2.301a4.576 4.576 0 002.275-1.454zm-4.571-4.376c.208-.175.388-.365.581-.512 1.588-1.076 3.573-.282 3.914 1.555.265 1.393-.874 3.087-2.268 3.432-1.55.366-2.86-.593-3.032-2.152-.107-.902.147-1.672.805-2.323zM130.687 75.43c-1.478 1.65-1.737 3.586-.78 5.297 1.229 2.193 3.499 2.161 5.056 1.141 2.013-1.31 2.759-3.337 1.573-5.799-1.14-2.289-3.61-2.736-5.504-.992-.149.135-.271.285-.345.353zm.485 1.005c.705-.99 2.212-1.344 3.391-.86 1.097.437 1.684 1.39 1.446 2.645-.136.69-.347 1.449-.785 1.968-1.376 1.598-3.415 1.285-4.329-.438-.619-1.153-.373-2.294.277-3.315zM83.628 133.353c-1.758-1.323-3.744-2.885-5.805-4.379-.982-.702-2.13-1.241-3.203-1.848-.083-.046-.24-.026-.354-.017.02.158.009.37.103.46.323.329.66.63.984.959 3.39 3.123 7.067 5.933 10.642 8.795.244.211.52.366.822.537.44.249.865.526 1.352.692.252.069-.013-.812-.647-1.426-1.223-1.24-2.439-2.366-3.894-3.773zM160.41 193.578c-.468-.264-.838-.51-1.223-.728l-8.82-4.439a.662.662 0 00-.366-.06c-.07-.003-.157.021-.172.049-.047.083-.141.249-.102.308.453.548.831 1.164 1.389 1.589 2.065 1.679 4.361 3.014 6.864 3.918.668.231 1.375.265 2.066.327.142.007.42-.164.44-.263.054-.225-.06-.472-.076-.701zM144.181 190.103c2.41 1.838 4.506 3.462 6.927 4.575.637.287 1.352.435 2.008.624.098.019.232-.089.294-.2.047-.083.043-.268.004-.327-.228-.238-.413-.489-.673-.672-3.22-2.077-6.428-4.11-9.664-6.159-.11-.062-.251-.069-.35-.088-.043.012-.129.036-.145.064-.031.055-.007.142.004.185.583.768 1.209 1.524 1.595 1.998zM144.707 194.311c3.024 2.295 6.287 4.359 10.036 5.565.683.204 1.327.093 1.182-.099-.225-.31-.492-.607-.811-.751-2.641-1.237-5.204-2.614-7.657-4.183a149.415 149.415 0 01-3.232-2.12c-.85-.553-.92-.557-.877-.313.056.287.194.621.351.856.237.353.618.642 1.008 1.045zM76.613 124.307c2.116 1.525 4.503 3.277 6.933 5.016.204.152.471.194.723.263.027.015.13-.036.16-.092.048-.083.099-.237.06-.296a6.541 6.541 0 00-.776-.877c-2.392-2.192-5.132-3.961-7.845-5.714-.165-.094-.362-.132-.558-.17-.055-.031-.157.021-.173.049-.047.083-.097.237-.042.268.401.446.834.837 1.518 1.553z" fill="#131B43"/><path d="M128.405 88.65c-.658.65-.912 1.42-.804 2.322.156 1.586 1.508 2.534 3.031 2.152 1.394-.345 2.533-2.04 2.268-3.432-.341-1.837-2.326-2.63-3.914-1.555-.22.131-.4.322-.581.512zm2.97 2.775c-.541.571-1.161.769-1.915.561a1.053 1.053 0 01-.512-.508c-.106-.39.259-.329.502-.374.315-.042.652.003.955-.082.345-.097.552-.528.477-.973-.064-.401-.429-.717-.834-.58-.373.081-.71.292-1.044.433-.102.052-.357.053-.357.053-.047-.173-.134-.404-.083-.558.281-.755.826-1.141 1.635-1.159.766-.005 1.36.294 1.687 1.063.257.767.136 1.43-.511 2.124zM131.172 76.435c-.623 1.037-.868 2.178-.277 3.316.942 1.738 2.953 2.035 4.328.437.439-.52.65-1.277.786-1.968.237-1.254-.349-2.207-1.446-2.644-1.179-.484-2.686-.13-3.391.86zm1.96 2.57c.181.066.334.117.401.19.122.106.295.314.232.425-.05.154-.231.344-.388.365-1.06.205-1.972-.494-2.06-1.494-.1-1.043.385-1.902 1.303-2.37.773-.403 1.421-.329 1.929.25.641.729.823 1.563.373 2.295-.047.083-.443.078-.483.019-.181-.322-.288-.711-.469-1.033-.091-.16-.224-.31-.378-.36-.361-.13-.93.169-1.094.588-.145.32-.062.623.194.877.18.065.33.186.44.249z" fill="#FFC229"/><path d="M131.376 91.425c.646-.694.767-1.357.44-2.127-.328-.77-.921-1.069-1.687-1.063-.766.005-1.354.404-1.636 1.158-.05.154.036.386.084.559 0 0 .255-.002.357-.054.361-.124.699-.336 1.044-.433.416-.094.77.18.834.581.048.43-.132.876-.478.973-.302.085-.64.04-.954.082-.228.017-.609-.016-.502.374.059.216.288.455.512.508.825.21 1.445.013 1.986-.558zM133.132 79.005c-.095-.09-.26-.183-.409-.304-.256-.254-.339-.557-.194-.877.164-.42.733-.719 1.094-.587.154.05.315.214.378.36.166.349.288.71.469 1.032.04.059.436.064.483-.02.407-.72.268-1.565-.373-2.293-.508-.58-1.128-.638-1.929-.25-.918.467-1.419 1.353-1.303 2.37.088 1 1.001 1.698 2.06 1.493.158-.02.338-.211.389-.365.019-.099-.127-.29-.233-.424a3.372 3.372 0 01-.432-.135z" fill="#131B43"/><path d="M144.656 133.835c-1.401.743-2.807.789-4.198.295-1.571-.56-2.665-1.58-3.116-3.224-.51-1.86.301-3.229 2.169-3.707.259-.073.514-.075.785-.105.416-.093.526-.287.337-.723-.276-.668-.611-1.296-.903-1.936-.189-.436-.539-.524-.955-.43-1.837.423-3.472-.026-5.04-.913a4.323 4.323 0 01-1.747-1.792c-.812-1.519-.39-3.035 1.195-3.783.741-.348 1.625-.433 2.457-.621.616-.126.722-.249.56-.925a10.12 10.12 0 00-.352-1.113c-.591-1.394-.399-1.541-2.048-1.451-1.237.068-2.455-.218-3.638-.631-.751-.278-1.38-.707-1.946-1.247-1.145-1.122-1.344-2.441-.541-3.924.109-.194.262-.4.524-.799-4.126.297-8.01.55-11.881.846-1.324.093-2.54.574-3.67 1.288-.102.052-.153.206-.145.32.024.086.142.263.213.266.648.074 1.28.176 1.917.207.962.032 1.94.037 2.918.042 2.238.023 4.152.813 5.812 2.373a24.94 24.94 0 013.385 4.033c1.89 2.823 3.431 5.814 4.999 8.82 2.98 5.778 5.959 11.556 8.982 17.322 1.493 2.818 3.104 5.556 4.657 8.334.334.628.669 1.256.946 1.924.173.463.591 1.138.081 1.398-.467.247-.869-.455-1.16-.839-.492-.607-.851-1.322-1.3-1.941-.449-.619-.506-1.674-1.35-1.787-.621-.058-1.342.448-1.966.716-6.793 2.957-13.846 4.963-21.223 5.871-.114.009-.256.002-.385.038-.173.049-.349.168-.51.26.051.102.114.248.181.322.885.939 1.724 1.961 2.683 2.833 1.959 1.802 3.993 3.536 5.967 5.311.5.465 1.117.85 1.508 1.766-.865-.526-1.557-.844-2.17-1.301-4.727-3.33-9.195-6.989-12.984-11.398-3.271-3.786-6.466-7.639-9.752-11.398-4.117-4.666-8.201-9.388-12.659-13.772-3.434-3.367-6.99-6.584-10.605-9.76-.527-.481-1.086-.906-1.628-1.36-.067-.074-.083-.302-.025-.342.106-.123.37-.267.452-.22a62.404 62.404 0 012.98 1.795c.672.416 1.285.873 1.942 1.317.452.292.597.228.867-.314 2.884-5.678 7.5-9.281 13.407-11.314 1.401-.487 2.892-.813 4.404-.725.142.007.272.226.351.344.027.015-.126.221-.212.246-.491.161-1.021.263-1.496.397-5.577 1.451-10.092 4.49-13.46 9.163a6.647 6.647 0 00-.729 1.16c-.274.612-.87 1.153-.656 1.931.64-.04 1.276-.009 1.932-.077 8.638-.89 4.792.517 13.128-1.896 2.175-.634 15.544 8.606 17.683 7.842.361-.125 8.679-4.303 9.028-4.471.365-.195-6.454-9.459-6.737-9.729-.972-.915-2.178-1.415-3.502-1.578-1.084-.138-2.203-.15-3.303-.26-1.1-.11-2.2-.22-3.261-.528-.573-.141-.982-.19-1.452.129-.922.539-1.837.935-2.964.809-.24-.025-.593.214-.788.432-.545.642-.995 1.374-1.513 2.032-.243.301-.474.645-.783.872-.236.16-.569.3-.852.286-.283-.013-.41-.56-.23-1.007.164-.419.372-.849.619-1.222.246-.372.509-.772.838-1.097.823-.814 1.391-1.625 1.134-2.904-.115-.504.202-1.128.428-1.658.489-1.185 1.344-2.054 2.308-2.861 2.906-2.377 6.253-3.737 9.999-4.068 1.225-.111 2.458-.109 3.711-.204 2.662-.213 5.324-.425 7.966-.795 1.457-.2 2.889-.742 4.342-1.127.675-.166 1.094-.587 1.399-1.255 1.616-3.435 3.051-6.936 3.845-10.654.62-2.829.744-5.682.146-8.542-.792-3.737-2.855-6.512-6.204-8.296-1.199-.641-2.414-1.255-3.613-1.896-.385-.218-.707-.29-.961.224-.047.083-.322.183-.475.133-1.163-.255-1.915-1.046-2.56-1.96-.607-.854-1.186-1.693-1.792-2.547-1.953-2.712-4.634-4.52-7.61-5.874-1.411-.652-2.837-1.276-4.327-1.789-4.287-1.474-7.555-4.235-9.961-8.008-1.335-2.07-2.494-4.26-3.668-6.423-1.214-2.22-2.192-4.601-3.802-6.571-.637-.8-1.361-1.574-2.222-2.17-1.448-1.038-2.728-.958-4.155.025-.62.454-1.047 1.017-1.199 1.735-.21 1.014-.393 2.044-.434 3.08-.063 1.974.302 3.898.953 5.765 1.725 5.105 4.4 9.688 7.97 13.716 2.632 2.987 5.566 5.633 8.681 8.088 1.931 1.53 4.046 2.8 6.083 4.207.464.335.928.67 1.404 1.05.082.046.099.274.067.33-.047.083-.208.175-.306.156a5.014 5.014 0 01-.919-.3c-2.012-.81-3.809-1.935-5.602-3.132-3.079-2.07-5.883-4.496-8.613-6.99-2.608-2.388-4.816-5.098-6.742-8.05a28.402 28.402 0 00-.866-1.294c-.012-.044-.283-.014-.33.069-.094.166-.16.348-.2.545-.416 1.957-.192 3.874.314 5.805.779 2.926 2.197 5.555 3.863 8.068 1.457 2.176 3.137 4.15 4.967 5.988 3.285 3.246 6.691 6.342 10.674 8.74.165.093.358.202.448.363.118.177.162.42.264.625-.243.045-.502.118-.714.107-.24-.026-.503-.138-.723-.262-.511-.253-1.05-.52-1.529-.828-4.915-2.998-9.3-6.61-13.035-10.988a95.147 95.147 0 00-1.908-2.213c-.162-.164-.413-.233-.618-.385-.097.237-.223.459-.25.7-.115 1.103.122 2.224.434 3.278.609 2.135 1.622 4.133 2.784 5.996 2.245 3.608 4.847 6.906 8.115 9.668 1.125.965 2.262 1.973 3.371 2.966.283.27.582.512.85.81.067.074.114.247.039.314-.047.083-.223.203-.306.156-.542-.197-1.1-.366-1.579-.674-3.157-1.931-6.115-4.151-8.602-6.946-.413-.49-.87-.967-1.326-1.445-.2-.223-.464-.591-.774-.364-.235.16-.34.538-.371.85-.152.974.023 1.95.284 2.901a17.258 17.258 0 002.003 4.422c1.358 2.157 2.91 4.167 4.758 5.906 1.849 1.74 3.639 3.52 5.821 4.863.055.031.114.248.067.331-.047.083-.278.171-.333.14-1.199-.641-2.445-1.2-3.566-1.98-2.638-1.82-4.99-3.954-7.088-6.346-.547-.638-1.035-1.317-1.61-1.97-.346-.415-.84-.44-1.174-.043-.302.341-.564.741-.712 1.132-.427 1.075-.472 2.182-.218 3.276.375 1.455.794 2.898 1.315 4.288.47 1.29 1.128 2.502 1.672 3.723.087.232.158.492.202.736.011.043-.224.202-.251.187-.315-.215-.657-.445-.897-.727-1.05-1.288-2.394-1.097-3.744-.764-.805.202-1.31.903-1.52 1.661-.274.869-.465 1.785-.455 2.667-.002 1.095.294 2.177.434 3.279.004.185-.062.367-.058.552-.153-.05-.393-.076-.472-.194-.315-.47-.567-1.052-1.227-1.169-1.096-.181-2.2-.476-3.271-.059-.868.314-1.279 1.105-1.438 1.965-.222 1.227-.133 2.483.199 3.694.19.692.552 1.335.758 2 .083.303.664.558.174.976-.314-.215-.72-.334-.916-.628-1.63-2.128-2.298-4.479-1.8-7.157.078-.395.21-.758.344-1.122.786-1.712 2.344-2.475 4.163-2.032.503.139.974.332 1.544.545-.068-.587-.112-1.087-.183-1.602a7.182 7.182 0 01.363-3.084c.61-1.592 1.672-2.636 3.411-2.822.271-.03.554-.016.786-.104.102-.052.258-.33.207-.431-.146-.448-.367-.829-.529-1.25-.394-1.1-.789-2.2-1.082-3.352a6.332 6.332 0 01-.207-1.945c.087-1.888.751-3.449 2.769-4.062.431-.122.447-.405.309-.74-.596-1.323-1.136-2.615-1.414-4.051-.031-.2-.318-.4-.542-.453-.236-.097-.523-.04-.794-.01-4.987.214-9.862-.606-14.682-1.65-5.41-1.159-10.613-3.004-15.796-4.948-.833-.325-1.694-.666-2.558-.935-.99-.304-1.304-.006-1.176 1.053.092.929.415 1.77.868 2.574a15.137 15.137 0 002.775 3.506c3.871 3.687 8.423 6.297 13.45 8.006 2.77.945 5.61 1.638 8.4 2.484.739.235 1.68.11 2.13.985-.666.537-1.491.326-2.234.419-.557.086-1.178.028-1.74-.07-2.643-.399-5.271-.825-7.899-1.251-.436-.064-.9-.143-1.336-.207-.043.012-.196.218-.168.234.165.349.374.686.599.996 2.535 3.736 4.102 7.838 4.299 12.371.032.713-.076 1.419-.157 2.141-.004.071-.18.19-.279.171-.098-.019-.248-.14-.271-.226-.25-1.165-.444-2.298-.71-3.435-.95-4.484-2.878-8.461-5.88-11.95-.76-.904-1.676-1.532-2.816-1.957-2.196-.804-4.3-1.773-6.445-2.73a10.526 10.526 0 01-3.2-2.176c-.35-.344-.665-.302-.955.082-.842 1.168-.95 2.386-.496 3.703.49 1.446 1.301 2.709 2.246 3.864 2.27 2.856 4.914 5.374 7.636 7.754 3.442 2.969 6.915 5.883 10.356 8.852.92.813 1.81 1.681 2.699 2.549.323.329.602.669.866 1.038.106.133.051.358.083.559-.157.021-.373.081-.483.019-.617-.386-1.207-.756-1.765-1.181-3.366-2.525-6.791-5.009-10.126-7.589-2.832-2.186-5.726-4.261-8.283-6.803-1.09-1.092-2.176-2.254-3.132-3.452-1.193-1.552-2.123-3.247-2.629-5.178-.142-.519-.48-.564-.868-.198-2.937 2.688-5.806 5.451-7.728 9.043-.853 1.637-1.482 3.328-1.82 5.146-.25 1.468-.11 2.826.96 4.016 1.205 1.339 2.303 2.8 3.52 4.182.507.579 1.21.941 1.793 1.453.637.543 1.274 1.086 1.837 1.696 1.137 1.264 2.321 2.446 3.776 3.341.275.156.554.497.825.467.856-.101 1.207.499 1.675 1.02 1.358 1.389 2.805 2.682 4.221 4.031.622.571 1.243 1.142 1.79 1.78 1.193 1.295 2.326 2.631 4.051 3.241.417.162.798.451 1.152.724 4.054 2.914 8.108 5.827 12.131 8.796 6.886 5.099 13.497 10.555 19.532 16.709.457.477.944.899 1.417 1.349 3.917 3.604 7.565 7.493 11.228 11.355 2.188 2.297 4.195 4.784 6.308 7.148.736.819 1.401 1.633 1.988 2.586.508.836 1.342 1.417 2.32 1.678.755.207 1.242.629 1.648 1.26.878 1.337 2.074 2.306 3.622 2.779.46.15.758.392 1.018.832.686 1.228 1.775 2.063 3.127 2.498.515.182.916.372 1.262.787.893 1.053 1.924 1.928 3.389 2.099.408.048.77.436 1.109.737 5.38 4.613 11.372 8.147 17.919 10.826 2.539 1.033 5.148 1.814 7.862 2.216.845.112 1.693.153 2.526.222a5.01 5.01 0 002.638-.555c4.755-2.245 7.607-6.261 8.893-11.49.004-.071.035-.127.039-.197a2.019 2.019 0 00-.122-.362c-.102.052-.216.061-.291.128-.689.963-1.706 1.155-2.766 1.104-1.712-.055-3.355-.362-4.973-.839-3.533-1.01-6.842-2.479-9.959-4.352-5.658-3.418-11.252-6.947-16.691-10.752-2.705-1.895-5.332-3.929-7.731-6.236-.339-.301-.603-.669-.925-.998-.028-.015-.036-.13-.02-.157.031-.056.118-.08.188-.077.456.222.971.403 1.38.707 7.243 5.046 14.717 9.747 22.363 14.143 4.277 2.455 8.758 4.55 13.582 5.78.951.245 1.906.419 2.86.594.421.091.727-.065.962-.48 1.15-2.164 2.077-4.381 2.418-6.782.144-1.089-.023-2.207-.092-3.305-.04-.571-.292-.64-.904-.329-.977.508-1.998.515-3.039.365-1.308-.191-2.503-.647-3.678-1.202-2.154-1.072-4.089-2.531-6.027-3.92-.37-.245-.708-.546-1.105-.807-.932-.6-1.89-.704-2.942-.129-.627.34-1.322.605-1.993.7-3.145.488-5.976-1.442-6.716-4.564-.325-1.353-.351-2.72-.023-4.07.245-1.14.534-2.293.932-3.383.332-.909.201-1.641-.428-2.326-1.047-1.103-1.697-2.457-2.407-3.772a3.551 3.551 0 01-.362-.9c-.02-.157.054-.481.14-.505.2-.033.526-.031.676.09.298.242.507.579.732.889.98 1.541 1.933 3.066 2.898 4.635.485.749.612 1.552.409 2.424-.245.885-.491 1.769-.611 2.688-.112 1.033-.24 2.094-.097 3.125.394 2.708 2.065 4.055 4.696 3.898.754-.049 1.543-.224 2.305-.415 1.397-.416 2.736-.28 3.963.377 1.199.641 2.351 1.366 3.503 2.09 1.372.849 2.713 1.753 4.128 2.59.892.541 1.863.944 2.92 1.066.675.09 1.288.034 1.849-.38.325-.254.556-.599.394-1.019a17.283 17.283 0 00-.887-1.963c-1.15-2.076-2.658-3.842-4.357-5.461-1.983-1.888-4.028-3.666-6.07-5.515l-3.894-3.517c-1.971-1.846-3.604-3.902-4.587-6.468-.161-.42-.417-.418-.762-.321-.302.085-.62.197-.962.224-1.971.274-3.775-.71-4.658-2.488-.512-1.021-.459-2.014.27-2.918.211-.245.384-.55.662-.721 1.173-.726 1.305-1.602.588-2.774-.288-.455-.426-1.045-.596-1.58-.479.205-.945.452-1.436.613-2.19.662-4.918-.807-5.696-2.964-.521-1.391-.061-3.617 2.121-4.137.805-.203.765-.261.58-1.024-.186-.763-.29-1.48-.48-2.428zm-58.184 8.618c-.015.028-.031.056-.074.068-1.086-.906-2.199-1.828-3.284-2.734a1259.433 1259.433 0 01-9.015-7.692l-.284-.27c-.039-.059-.094-.09-.133-.149-.052-.102-.06-.216-.095-.346.114-.008.275-.1.357-.054 1.99 1.235 3.983 2.398 5.91 3.744 1.898 1.329 3.688 2.853 5.54 4.266 4.822 3.676 9.149 7.84 13.041 12.453.827.979 1.504 2.093 2.241 3.167.039.059 0 .256-.09.351-.075.068-.232.089-.33.07a1.17 1.17 0 01-.464-.336c-.523-.551-1-1.186-1.582-1.698-3.902-3.632-7.82-7.236-11.738-10.84zm42.326-73.573c.173-.048.302-.085.416-.093.043-.012.095.09.091.16-.077.907-.056 1.833-.231 2.72-.587 3.287-1.355 6.507-2.39 9.686a26.13 26.13 0 01-2.303 5.167c-1.609 2.781-3.714 5.026-6.81 6.2-.652.252-1.307.576-1.935.915-1.883 1.019-3.455 2.322-4.453 4.28-.618 1.222-1.264 2.428-1.91 3.635-.282.498-.634.993-.944 1.476-.031.055-.145.064-.172.049-.11-.063-.248-.14-.229-.239.011-.469-.021-.926.116-1.36.469-1.343.953-2.714 1.575-4.007 1.244-2.585 3.334-4.29 5.932-5.417.828-.372 1.695-.686 2.535-1.015a8.477 8.477 0 003.424-2.523 20.49 20.49 0 001.727-2.605c1.456-2.575 2.342-5.363 3.091-8.229a610.775 610.775 0 011.915-7.176c.172-.561.371-1.106.555-1.624zm4.179 24.145c-.65.765-1.439 1.196-2.318 1.466-1.872.55-3.732-.465-4.328-2.3-.75-2.398.984-5.401 3.437-5.95 2.21-.506 4.243.973 4.377 3.241.112 1.343-.223 2.579-1.168 3.543zm-2.29-17.595c.075-.067.196-.218.345-.353 1.894-1.743 4.365-1.296 5.504.992 1.202 2.434.44 4.489-1.572 5.8-1.558 1.02-3.827 1.052-5.057-1.142-.957-1.71-.697-3.647.78-5.297zm-47.059 57.923c1.456 1.408 2.683 2.577 3.867 3.758.634.614.883 1.523.647 1.426-.46-.151-.912-.443-1.352-.692a10.052 10.052 0 01-.822-.537c-3.587-2.906-7.252-5.672-10.643-8.796-.338-.3-.676-.601-.983-.958-.095-.09-.056-.287-.103-.46.114-.009.27-.029.353.017 1.073.607 2.194 1.131 3.204 1.848 2.104 1.482 4.09 3.044 5.832 4.394zm76.782 60.225c.032.201.146.449.092.674-.036.126-.298.27-.44.263-.691-.062-1.441-.084-2.066-.328-2.503-.904-4.799-2.238-6.864-3.917-.543-.454-.936-1.042-1.389-1.59-.039-.059.039-.197.102-.308.015-.028.102-.052.172-.049.142.007.256-.001.366.061l8.82 4.439c.37.245.739.491 1.207.755zm-16.229-3.475c-.386-.474-.984-1.214-1.61-1.97a.176.176 0 01-.004-.185c.016-.027.102-.052.145-.064.126.035.267.042.35.088 3.235 2.049 6.428 4.11 9.664 6.159.259.183.487.422.672.673.067.074.044.243-.003.327-.047.083-.223.202-.294.199-.684-.204-1.371-.337-2.008-.624-2.405-1.141-4.529-2.78-6.912-4.603zm.526 4.208c-.39-.403-.771-.692-1.035-1.06a2.17 2.17 0 01-.351-.856c-.044-.244.055-.225.876.312 1.082.721 2.163 1.442 3.232 2.12 2.454 1.57 5.017 2.946 7.658 4.184.318.143.613.456.81.75.146.192-.498.303-1.182.1-3.721-1.191-6.984-3.255-10.008-5.55zm-68.093-70.004a79.38 79.38 0 01-1.507-1.51c-.04-.058-.004-.185.043-.268.015-.028.101-.052.172-.048.197.038.393.076.558.169 2.713 1.753 5.453 3.522 7.845 5.715.283.269.523.551.775.877.04.058-.011.212-.058.296a.431.431 0 01-.16.091c-.252-.069-.52-.11-.724-.262-2.442-1.783-4.856-3.55-6.944-5.06z" fill="#fff"/><path d="M95.085 130.11c-.655.068-7.65-9.077-8.29-9.037-.214-.778.382-1.318.656-1.931.192-.403.454-.803.728-1.16a26.653 26.653 0 012.093-2.544c3.338.389 8.262 2.15 12.185 4.075.346.159 9.89 7.237 10.236 7.396-4.366.784-13.202 2.732-17.608 3.201z" fill="#BACCDB"/><path d="M80.922 115.852c.157.235.343.486.528.737.212.266.601.413.916.628.462-.433-.092-.673-.175-.976-.075-.189-.134-.405-.21-.594 2.003-.329 4.096-.498 6.26-.407a22.195 22.195 0 00-3.051 4.56c-.27.542-.415.606-.867.314-.673-.417-1.27-.901-1.943-1.318-.986-.631-1.977-1.191-2.98-1.794-.082-.047-.318.112-.45.22-.075.067-.06.296.023.342.527.481 1.086.907 1.629 1.36 3.614 3.176 7.17 6.393 10.605 9.76 4.457 4.384 8.515 9.091 12.658 13.772 3.286 3.759 6.498 7.585 9.752 11.398 3.79 4.409 8.274 8.04 12.984 11.398.629.429 1.305.775 2.17 1.301-.374-.943-1.007-1.301-1.507-1.766-1.975-1.775-4.008-3.509-5.967-5.311-.96-.872-1.771-1.878-2.683-2.833-.095-.09-.13-.22-.182-.322.161-.092.322-.183.51-.26.13-.036.271-.029.385-.038a73.323 73.323 0 009.237-1.757c4.573 15.742 4.031 30.894 5.918 36.164a.445.445 0 00-.197-.038c-1.465-.171-2.495-1.046-3.389-2.099-.346-.415-.775-.621-1.262-.787-1.352-.435-2.413-1.255-3.126-2.499-.26-.439-.544-.709-1.019-.831-1.548-.474-2.744-1.442-3.622-2.779-.406-.632-.893-1.054-1.648-1.261-.978-.261-1.812-.842-2.32-1.677-.559-.938-1.252-1.768-1.988-2.586-2.113-2.364-4.12-4.851-6.308-7.148-3.663-3.862-7.31-7.752-11.228-11.356l-1.416-1.349c-6.008-6.138-12.62-11.593-19.533-16.708-4.023-2.969-8.077-5.883-12.13-8.796-.355-.274-.736-.562-1.153-.725-1.28-.432-2.24-1.303-3.126-2.242 3.794-3.885 10.758-9.779 19.905-11.697zm-7.24 15.824a.338.338 0 00.133.149l.284.27c3.009 2.578 6.033 5.129 9.015 7.691 1.085.907 2.198 1.828 3.284 2.734.015-.027.031-.055.074-.067 3.918 3.604 7.836 7.208 11.726 10.796.567.54 1.059 1.147 1.582 1.699.134.149.299.242.464.335.083.047.255-.002.33-.069.074-.068.141-.249.09-.351-.737-1.075-1.414-2.189-2.24-3.167a81.012 81.012 0 00-13.042-12.454c-1.852-1.413-3.641-2.936-5.54-4.266-1.9-1.33-3.92-2.509-5.91-3.743-.082-.047-.228.017-.357.054.047.173.055.287.107.389zm.687-4.106c.323.328.661.629.984.958 3.39 3.123 7.068 5.933 10.643 8.795.243.211.519.366.821.538.44.248.865.525 1.352.691.252.069-.013-.812-.646-1.425-1.184-1.182-2.412-2.351-3.867-3.759-1.758-1.322-3.744-2.884-5.805-4.378-.983-.702-2.13-1.241-3.204-1.848-.082-.047-.24-.026-.353-.017-.008.142-.02.355.075.445zm.726-4.816c.417.418.806.821 1.507 1.51 2.115 1.525 4.502 3.276 6.932 5.016.205.152.472.193.723.262.028.016.13-.036.161-.091.047-.083.098-.237.059-.296a6.48 6.48 0 00-.776-.877c-2.391-2.193-5.132-3.962-7.845-5.715-.165-.093-.361-.131-.557-.169-.056-.031-.158.021-.173.048-.008.142-.086.281-.031.312z" fill="#fff"/><path d="M118.669 156.674c-.228.017-7.088-8.21-7.249-8.375-.244-.211-.398-.517-.465-.591a332.628 332.628 0 01-4.412-5.236c-.106-.133-.236-.352-.201-.479.063-.11.294-.199.467-.247 3.565-.397 7.111-.694 10.668-1.205a67.292 67.292 0 005.123-.904c1.111 2.017 5.112 12.539 6.008 14.617M95.343 129.269c2.465-.251 4.9-.446 7.369-.767 3.353-.406 6.698-.927 9.968-1.636a50.91 50.91 0 014.305 4.59c-4.919 1.056-9.905 1.782-14.927 2.378-.828.116-1.692.102-2.544.132-.412.023-.746-.093-1.026-.433-.507-.58-1.058-1.147-1.582-1.699l.032-.055c-.622-.571-1.259-1.114-1.88-1.685-.162-.164-.465-.335-.265-.624.134-.107.365-.196.55-.201z" fill="#BACCDB"/><path d="M80.921 115.852c.158.235.343.486.528.737.213.266.602.413.916.628.463-.433-.091-.673-.174-.976-.075-.189-.135-.405-.21-.594 2.003-.329 4.095-.498 6.26-.407a22.195 22.195 0 00-3.052 4.56c-.27.542-.415.606-.867.314-.672-.417-1.27-.901-1.942-1.318-.987-.631-1.978-1.191-2.98-1.794-.083-.047-.318.112-.451.22-.075.067-.059.296.024.342.527.481 1.085.907 1.628 1.36 3.615 3.176 7.17 6.393 10.605 9.76 4.458 4.384 8.515 9.091 12.659 13.772 3.286 3.759 6.497 7.585 9.752 11.398 3.79 4.409 8.273 8.04 12.984 11.398.629.429 1.305.775 2.17 1.301-.375-.943-1.008-1.301-1.507-1.766-1.975-1.775-4.008-3.509-5.967-5.311-.96-.872-1.771-1.878-2.684-2.833-.094-.09-.13-.22-.181-.322.161-.092.322-.183.51-.26.13-.036.271-.029.385-.038a73.39 73.39 0 009.237-1.757c4.572 15.742 4.03 30.894 5.917 36.164a.443.443 0 00-.196-.038c-1.465-.171-2.496-1.046-3.389-2.099-.347-.415-.775-.621-1.262-.787-1.352-.435-2.414-1.255-3.127-2.499-.26-.439-.543-.709-1.019-.831-1.548-.474-2.743-1.442-3.621-2.779-.406-.632-.894-1.054-1.648-1.261-.978-.261-1.812-.842-2.32-1.677-.56-.938-1.252-1.768-1.988-2.586-2.113-2.364-4.121-4.851-6.308-7.148-3.663-3.862-7.311-7.752-11.229-11.356l-1.416-1.349c-6.008-6.138-12.62-11.593-19.532-16.708-4.023-2.969-8.077-5.883-12.131-8.796-.354-.274-.736-.562-1.152-.725-1.281-.432-2.241-1.303-3.126-2.242 3.794-3.885 10.758-9.779 19.904-11.697zm-7.24 15.824a.338.338 0 00.134.149l.283.27c3.01 2.578 6.034 5.129 9.015 7.691 1.086.907 2.199 1.828 3.284 2.734.016-.027.031-.055.075-.067 3.918 3.604 7.836 7.208 11.726 10.796.566.54 1.058 1.147 1.582 1.699.133.149.299.242.464.335.082.047.255-.002.329-.069.075-.068.141-.249.09-.351-.736-1.075-1.414-2.189-2.24-3.167a81.008 81.008 0 00-13.041-12.454c-1.852-1.413-3.642-2.936-5.541-4.266-1.9-1.33-3.92-2.509-5.91-3.743-.082-.047-.227.017-.357.054.048.173.056.287.107.389zm.688-4.106c.322.328.66.629.983.958 3.391 3.123 7.068 5.933 10.643 8.795.244.211.519.366.822.538.44.248.865.525 1.352.691.251.069-.013-.812-.647-1.425-1.184-1.182-2.411-2.351-3.867-3.759-1.758-1.322-3.744-2.884-5.804-4.378-.983-.702-2.13-1.241-3.204-1.848-.083-.047-.24-.026-.354-.017-.007.142-.019.355.076.445zm.725-4.816c.418.418.807.821 1.507 1.51 2.116 1.525 4.503 3.276 6.933 5.016.204.152.471.193.723.262.027.016.13-.036.16-.091.048-.083.099-.237.06-.296a6.487 6.487 0 00-.776-.877c-2.392-2.193-5.132-3.962-7.845-5.715-.165-.093-.362-.131-.558-.169-.055-.031-.157.021-.173.048-.007.142-.086.281-.03.312z" fill="#BACCDB"/><path d="M113.928 141.422l4.399 2.56c.22.125.35.344.367.573l.378 5.111c.052.614.76.904 1.207.499l3.826-3.428a.703.703 0 01.675-.166l4.955 1.193c.601.157 1.087-.445.862-1.011l-2.031-4.693c-.087-.232-.088-.488.065-.694l2.686-4.365c.325-.511-.092-1.185-.705-1.13l-5.088.522a.81.81 0 01-.625-.244l-3.279-3.9c-.385-.474-1.147-.283-1.279.336l-1.091 5.012a.728.728 0 01-.439.519l-4.74 1.961c-.596.284-.666 1.049-.143 1.345z" fill="#131B43"/></g><defs><clipPath id="clip0"><path fill="#fff" transform="scale(-1 1) rotate(-29.485 62.297 491.458)" d="M0 0h191v136H0z"/></clipPath></defs></svg>
