<svg width="201" height="149" viewBox="0 0 201 149" fill="none" xmlns="http://www.w3.org/2000/svg"><g clip-path="url(#clip0)"><path d="M31.65 105.408c2.856-.836 5.746-1.642 8.598-2.54 1.239-.405 2.404-.962 3.602-1.49.46-.223 1.048-.423 1.305-.821.345-.499-.256-.931-.447-1.392-1.053-2.775.02-5.985 2.545-7.462.58-.326 1.16-.62 1.83-.573.828.068 1.24-.373 1.737-.978.615-.708 1.426-1.335 2.212-1.866.758-.497 1.62-.843 2.584-.658.61.115.94-.161 1.356-.54a18.561 18.561 0 011.948-1.593c.813-.596 1.748-.82 2.766-.766.953.028.982-.006 1.33-.917.699-1.76 1.563-3.435 2.924-4.798.502-.51 1.075-.93 1.647-1.351.212-.142.453-.317.705-.335.883-.063 1.773-.03 2.658-.062.224-.87.38-1.8 1.06-2.48.149-.138.262-.336.417-.378 1.277-.313 1.6-1.127 1.668-2.398.071-1.24.93-2.092 1.996-2.706.457-.254.66-.521.525-1.082-.13-.497-.168-1.032-.204-1.536-.07-.534-.268-.646-.783-.325-.67.396-1.339.792-1.936 1.309a103.577 103.577 0 00-3.834 3.595 32.389 32.389 0 01-6.726 5.257c-1.584.904-3.242 1.654-5.015 2.128-3.978 1.105-7.708.356-11.24-1.642-1.452-.815-2.462-2.105-3.14-3.608-.413-.92-.545-1.892-.266-2.862.235-.713.103-1.242-.318-1.813-.32-.484-.549-1.038-.776-1.56-.115-.277-.108-.626-.13-.94-.002-.475.642-.774 1.01-.515.267.202.504.407.681.68.284.423.57.877.76 1.339.235.616.574.94 1.275.986.955.059 1.752.572 2.28 1.326.599.844 1.484 1.256 2.423 1.538 3.274 1.035 6.412.59 9.487-.735a16.294 16.294 0 004.693-3.087c1.278-1.198 2.522-2.426 3.8-3.625.476-.445.917-.92 1.36-1.394 1.924-1.909 4.154-3.08 6.956-2.898.446.031.755-.086.879-.57.25-.935.803-1.639 1.661-2.048.399-.187.602-.454.602-.897a1.585 1.585 0 01.036-.383c.245-2.36 1.151-3.437 3.447-4.138.124-.04.25-.05.374-.09.527-.164.581-.294.444-.886-.13-.497-.26-.995-.422-1.49-.796-2.73-1.654-5.454-2.42-8.218a40.075 40.075 0 01-1.418-8.827c-.118-2.113.181-4.16 1.092-6.06 1.128-2.423 3.055-3.858 5.733-4.079.883-.062 1.81.062 2.709.22 2.313.438 4.522 1.2 6.65 2.157 4.322 1.973 8.503 4.178 12.603 6.578.266.171.561.309.829.511.432.287.842.257 1.27.037.795-.404 1.62-.843 2.451-1.186 2.746-1.05 5.627-1.539 8.578-1.494 1.365.03 2.727.028 4.069.186 3.899.452 7.508-.5 10.786-2.536 2.641-1.644 5.173-3.47 7.742-5.234 1.663-1.13 3.29-2.323 5.025-3.332 1.034-.611 2.242-1.013 3.458-1.29 2.712-.635 5.148.65 6.374 3.19.369.734.5.788 1.137.394.395-.25.757-.497 1.152-.746 2.447-1.693 4.784-3.6 6.884-5.711 1.747-1.739 3.424-3.567 5.103-5.364 1.413-1.524 2.792-3.078 4.239-4.574.591-.611 1.251-1.133 1.912-1.655.658-.553 1.462-.831 2.304-1.018 1.624-.336 2.993.2 3.826 1.66.436.793.782 1.655 1.002 2.526.775 3.332.467 6.583-.799 9.744-.431 1.075-.959 2.125-1.421 3.203-.027.065.02.283.052.28.096.026.254.015.344-.055.633-.456 1.197-1.003 1.866-1.399 1.85-1.175 3.8-.49 4.488 1.614.406 1.269.34 2.572.146 3.852-.324 2.144-1.005 4.155-1.912 6.118-1.759 3.797-4.05 7.252-7.077 10.157a26.05 26.05 0 00-.978.956c-.09.07-.079.227-.135.326.096.025.196.081.29.075.87-.252 1.737-.535 2.611-.724.687-.143 1.41-.226 2.11-.18 1.559.079 2.536.896 2.866 2.424.139.623.154 1.287.104 1.924-.079 1.114-.481 2.155-.916 3.167-1.699 3.761-4.406 6.707-7.722 9.095-.273.177-.548.323-.818.533-.212.141-.388.344-.566.514.259.077.518.154.806.197 2.243.347 3.213 1.957 2.351 4.107-.781 1.955-2.059 3.596-3.641 4.975a21.831 21.831 0 01-7.032 4.075c-.496.162-.991.324-1.485.517-.34.119-.322.371-.025.54 1.362.885 1.292 2.124.847 3.454-.499 1.46-1.466 2.573-2.667 3.513-.448.38-.865.758-1.314 1.138.171.62.279 1.246.542 1.83a9.17 9.17 0 01.709 4.191c-.046.7.15 1.224.661 1.726 1.4 1.42 2.252 3.165 2.92 4.985 1.333 3.61 1.691 7.32 1.263 11.118-.118 1.021-.362 2.052-.64 3.053-.406 1.421-1.114 2.611-2.453 3.402a2.812 2.812 0 00-.748.623c-1.841 2.188-4.315 3.06-7.058 3.254-1.136.081-2.097.371-3.069.978-1.94 1.245-4.138 1.527-6.37 1.337-1.02-.086-1.863.1-2.712.635-1.332.886-2.897 1.155-4.445 1.233-.788.056-1.506.202-2.171.661-1.33.917-2.864 1.184-4.46 1.012-.671-.079-1.262.089-1.879.323-1.081.393-2.228.759-3.354.966-4.974.922-9.986 1.751-14.961 2.642-2.408.455-4.843.976-7.243 1.558-7.075 1.672-13.973 4.06-20.84 6.446-3.928 1.354-7.86 2.677-11.786 4.064-2.627.945-5.213 2.015-7.806 2.99-.678.27-1.253.659-1.79 1.14-1.28 1.167-2.8 1.623-4.484 1.109-.518-.153-.827-.037-1.217.276-1.404 1.207-3.048 1.704-4.877 1.39-.416-.065-.761-.009-1.056.297-1.285 1.104-2.792 1.305-4.39 1.102-.543-.057-.983.006-1.471.262-1.406.733-2.85.93-4.275.05-.464-.284-.863-.097-1.295.06-1.672.561-3.307 1.184-5.022 1.59-7.262 1.717-14.517 1.756-21.82.216-3.215-.659-5.951-2.143-8.096-4.682-.97-1.166-1.723-2.411-2.238-3.862-.985-2.716-1.499-5.497-1.292-8.393.15-1.91.43-3.766 2.017-5.082.18-.139.221-.458.269-.683.023-.129-.018-.252-.027-.378-.508-4.048.935-7.38 3.78-10.177 2.163-2.116 4.68-3.719 7.527-4.68 3.188-1.081 6.45-2.008 9.676-2.997.135.118.14.181.173.21zm31.86-17.737c-.547.766-.95 1.333-1.417 1.904-.494.637-.555.673.082 1.166 1.747 1.396 1.205 3.587.137 4.612-1.63 1.604-4.727 1.728-6.417.233-.374-.353-.689-.774-1.033-1.161-.417.377-.764.845-1.217 1.162-1.154.715-1.411 1.556-.662 2.738.178.272.202.619.288.93.27 1.12-.11 2.033-1.011 2.73-1.562 1.219-3.614 1.333-5.275.247-.266-.171-.505-.407-.772-.61-.27-.234-.5-.344-.827-.036-1.958 1.88-4.349 3.03-6.922 3.846-1.673.53-3.352.997-5.027 1.495-2.607.787-5.25 1.512-7.851 2.361-2.23.728-4.348 1.701-6.282 3.041-.572.42-1.11.87-1.645 1.383-.326.308-.266.715-.081 1.082.328.61.889.918 1.506 1.128 1.006.34 2.056.392 3.094.287 1.606-.145 3.205-.385 4.84-.564 1.352-.159 2.703-.318 4.061-.383 1.422-.069 2.66.413 3.74 1.35.577.529 1.212.99 1.903 1.353 2.276 1.263 4.364.767 5.915-1.495.575-.832.916-1.838 1.257-2.843.288-.844.413-1.771.603-2.671.158-.897.652-1.534 1.411-1.999 1.548-.965 3.062-1.958 4.61-2.923.334-.213.67-.395 1.043-.485.187-.045.48.061.649.207.067.059-.005.38-.09.513a3.517 3.517 0 01-.715.652c-1.206.877-2.375 1.815-3.794 2.358-.863.346-1.298.915-1.387 1.903-.109 1.147-.344 2.304-.612 3.431-.285 1.35-.896 2.564-1.771 3.639-2.01 2.485-5.396 3.01-8.026 1.233-.567-.403-1.11-.902-1.499-1.476-.702-.964-1.611-1.279-2.71-1.138-.44.063-.906.191-1.345.254-2.381.39-4.722.904-7.127.948-1.297.028-2.604-.069-3.838-.488-1.004-.309-1.923-.751-2.586-1.622-.419-.54-.673-.554-.958-.09-.534.956-1.197 1.889-1.504 2.924-.724 2.299-.87 4.715-.732 7.111.033.473.243.743.662.84.936.25 1.873.5 2.837.685 4.884.953 9.799.984 14.747.602 8.794-.686 17.562-1.718 26.27-3.158.503-.067 1.012-.04 1.55-.047.032-.002.101.088.137.149.002.032-.054.13-.085.133-.4.186-.83.375-1.264.501-3.159 1.047-6.407 1.72-9.662 2.299-6.512 1.126-13.111 1.91-19.69 2.534-3.62.351-7.271.261-10.863-.339a20.726 20.726 0 01-4.85-1.366c-.982-.437-1.815-1.011-2.024-2.168-.007-.094-.137-.148-.207-.238-.088.101-.178.17-.266.272a.336.336 0 00-.05.193c-1.055 5.235-.238 10.053 3.137 14.309.558.72 1.297 1.301 2.143 1.621.782.293 1.567.649 2.376.877 2.623.795 5.314 1.206 8.05 1.361 7.064.386 13.994-.2 20.833-2.077.435-.126.928-.319 1.318-.189 1.396.471 2.703.126 3.962-.438.491-.225.966-.227 1.477-.168 1.408.185 2.719-.098 3.898-.91.423-.283.795-.404 1.277-.312 1.6.235 3.097-.124 4.464-.949.638-.393 1.26-.564 2.03-.429.995.183 1.998.017 2.816-.516.908-.602 1.89-1.052 2.906-1.472 2.924-1.22 5.806-2.595 8.768-3.723 4.968-1.903 9.935-3.806 15.02-5.401l1.858-.606c8.063-2.946 16.378-5.023 24.818-6.665 4.908-.949 9.821-1.835 14.734-2.721.437-.095.905-.191 1.351-.159 1.82.187 3.417-.527 5.051-1.181.77-.308 1.576-.555 2.381-.834 1.858-.606 3.721-1.15 5.544-1.817.68-.238 1.223-.625 1.95-.201.232.142.633-.013.946-.067 1.699-.184 3.276-.739 4.846-1.388.77-.308 1.579-.524 2.388-.739.745-.211 1.536-.236 2.243-.539 1.663-.687 3.281-1.562 4.975-2.252 1.478-.611 2.188-1.769 2.594-3.191.508-1.777.667-3.561.569-5.39-.159-4.041-1.593-7.739-3.089-11.4-.193-.493-.547-.563-.869-.192-1.287 1.516-2.855 2.64-4.599 3.523-1.377.7-2.859 1.248-4.312 1.762-3.37 1.188-6.907 1.819-10.403 2.573-4.12.893-8.278 1.694-12.405 2.493-.687.144-1.41.226-2.101.307-.126.009-.295-.137-.428-.223.115-.166.162-.391.316-.466.396-.218.793-.436 1.227-.561 1.176-.4 2.321-.798 3.533-1.137 4.383-1.197 8.803-2.333 13.155-3.528 3.512-.976 6.95-2.106 10.228-3.7 1.347-.665 2.623-1.452 3.689-2.509.976-.987 1.431-2.159 1.144-3.531-.096-.469-.362-.64-.826-.48-1.239.404-2.523.622-3.825.587-2.317-.057-4.664-.08-6.993-.296-1.212-.104-2.309.069-3.383.556-4.179 1.847-7.661 4.595-10.447 8.212-.726.937-1.389 1.87-2.117 2.777-.059.068-.246.112-.342.088-.097-.025-.205-.208-.178-.273.239-.65.474-1.363.778-1.986 2.125-4.013 5.304-6.992 9.2-9.263.336-.182.667-.427.969-.638.029-.034.012-.286-.052-.281-.423-.16-.873-.255-1.294-.383-2.556-.738-5.112-1.475-7.67-2.243-.549-.151-1.135-.363-1.601-.678-.632-.43-1.466-.561-1.837-1.326.782-.594 1.579-.08 2.347.023 2.883.43 5.745 1.018 8.652 1.35 5.272.608 10.505.206 15.585-1.452 1.423-.48 2.773-1.114 4.012-1.962.755-.528 1.409-1.144 1.891-1.938.571-.895.415-1.296-.609-1.445-.897-.126-1.82-.188-2.712-.251-5.513-.433-10.974-1.027-16.388-2.29-4.801-1.116-9.554-2.458-13.965-4.773-.23-.11-.464-.284-.721-.329-.223-.016-.567.04-.684.175-.837 1.168-1.909 2.13-3.018 3.032-.268.24-.379.47-.039.794 1.526 1.411 1.455 3.094.753 4.822a6.067 6.067 0 01-1.023 1.655c-.762.877-1.591 1.696-2.419 2.546-.326.308-.687.587-1.014.895-.088.101-.099.387.002.475.171.177.432.285.664.427 1.522.906 2.033 2.294 1.867 3.984-.084 1.05-.459 2.027-.997 2.92-.255.43-.542.861-.855 1.358.606.052 1.115.08 1.628.17 1.833.376 2.943 1.722 2.885 3.594a4.88 4.88 0 01-.172 1.152c-.67 2.612-2.314 4.47-4.702 5.652-.306.148-.721.114-1.097.172-.231-.585.372-.564.577-.8.503-.51 1.075-.931 1.544-1.47.821-.945 1.443-2.003 1.768-3.229.226-.839.195-1.723-.453-2.373-.788-.831-1.941-1.003-2.979-1.34-.649-.208-1.093.235-1.611.525-.121.072-.317-.01-.509-.027.052-.162.068-.385.185-.52.6-.929 1.301-1.77 1.802-2.755.388-.788.607-1.721.736-2.585.104-.767-.019-1.613-.659-2.138-1.076-.873-2.237-1.614-3.709-.909-.338.151-.745.212-1.121.27-.032.002-.174-.21-.147-.275.145-.2.287-.431.499-.573 1.045-.897 2.129-1.702 3.109-2.626 1.069-1.026 2.067-2.141 3.032-3.286.732-.843 1.134-1.885 1.211-3.03a3.726 3.726 0 00-.156-1.318c-.131-.498-.619-.685-1.079-.462-.768.34-1.498.77-2.3 1.08-2.954 1.255-5.995 2.166-9.128 2.673-1.347.222-2.712.192-4.07.257-.095.007-.232-.142-.241-.268-.004-.063.108-.26.203-.268 2.548-.275 4.926-1.14 7.346-1.881 2.417-.773 4.684-1.883 6.835-3.27 1.364-.888 2.623-1.895 3.71-3.112.644-.742 1.222-1.543 1.504-2.48.074-.291.142-.676.03-.921-.183-.336-.579-.117-.856-.003-.617.234-1.203.465-1.818.73-3.447 1.447-7.072 2.18-10.752 2.566-.565.072-1.142-.014-1.716-.068-.095.007-.203-.176-.209-.27-.007-.095.11-.23.171-.266a7.474 7.474 0 011.115-.364 179.7 179.7 0 014.318-1.223c4.139-1.085 7.906-2.934 11.484-5.214 1.847-1.207 3.623-2.536 5.09-4.191.733-.843 1.4-1.714 1.802-2.755.079-.228.059-.511.075-.734-.253.018-.509-.027-.723.083-.893.38-1.782.791-2.675 1.17-5.253 2.336-10.797 3.71-16.491 4.303-.566.072-1.167.083-1.737.091-.252.018-.538.007-.766-.072-.227-.08-.398-.257-.598-.401.178-.17.293-.337.507-.447.151-.106.374-.09.561-.135 4.626-.454 9.032-1.78 13.394-3.291a37.406 37.406 0 007.058-3.255c2.587-1.512 4.998-3.266 6.957-5.59 1.287-1.515 2.313-3.139 2.778-5.071a1.76 1.76 0 00.054-.574c-.006-.094-.207-.239-.267-.203a18.97 18.97 0 00-1.339.792c-3.008 1.827-6.167 3.317-9.548 4.348-3.534 1.105-7.112 2.055-10.781 2.6-2.133.31-4.239.553-6.403.422a5.047 5.047 0 01-.96-.122c-.097-.025-.202-.176-.209-.27-.007-.095.108-.261.203-.268a29.024 29.024 0 011.719-.343c2.444-.395 4.899-.632 7.3-1.182 3.868-.876 7.654-1.998 11.315-3.556a39.46 39.46 0 0013.092-8.905c1.359-1.394 2.516-2.964 3.339-4.763.408-.947.686-1.948.932-2.947.172-.709.028-1.395-.336-2.066-.866-1.49-1.988-2.107-3.74-1.793-1 .198-1.987.584-2.94 1-2.3 1.08-4.207 2.799-6.257 4.274-1.99 1.439-4.011 2.88-6.073 4.197-3.794 2.358-7.933 3.443-12.437 2.939-1.533-.177-3.119-.191-4.675-.24-3.3-.05-6.467.427-9.396 2.027-.915.508-1.798 1.014-2.713 1.522-.975.544-2.027.904-3.153.667-.129-.023-.365-.228-.372-.322.023-.572-.328-.61-.772-.61-1.358.064-2.718.097-4.076.162-3.791.173-6.846 1.783-9.168 4.796-1.801 2.312-2.884 4.922-3.541 7.722-.881 3.672-1.091 7.422-1.11 11.19-.013.698.216 1.252.725 1.723 1.145.963 2.206 2.06 3.435 2.859 2.226 1.457 4.536 2.75 6.85 4.105 1.059.621 2.173 1.144 3.263 1.763 3.24 1.892 5.675 4.506 7.278 7.906.524 1.134.924 2.309.854 3.549-.023.571-.006 1.266-.326 1.669-.782 1.037-.618 2.006-.225 3.087.158.432.252.868.285 1.34.063.44.065.914.033 1.36-.029.477-.379.913-.64.805-.261-.108-.531-.343-.646-.62-.182-.335-.243-.742-.333-1.115-.152-.813-.275-1.659-.491-2.467-.083-.279-.299-.643-.527-.722-1.072-.367-1.726-1.112-2.327-1.988-.317-.453-.709-.615-1.256-.734-1.061-.21-2.133-.577-3.171-.915-1.04-.37-2.056-.836-3.094-1.174-1.265-.417-2.538-.485-3.84-.077-.403.124-.51.416-.234.714.242.299.488.63.76.895 1.603 1.597 3.178 3.258 4.868 4.753 6.521 5.711 13.561 10.69 20.977 15.166.563.34 1.15.584 1.711.892.527-.607.221-1.345.238-2.011a6.56 6.56 0 00-.159-1.35c-1.035-5.657-3.802-10.273-8.214-13.95-.403-.32-.806-.639-1.179-.992-.068-.059-.117-.309-.086-.31.153-.075.365-.217.464-.16 1.403.565 2.578 1.495 3.665 2.526 4.459 4.338 7.109 9.532 7.24 15.854.01.601.114.72.648.651.786-.087 1.534-.267 2.32-.354 1.162-.146 2.297-.226 3.462-.34.094-.007.238.236.313.389.038.092-.075.29-.17.297-.682.207-1.369.35-2.054.525-4.629 1.31-9.223 2.68-13.771 4.236-5.909 2.033-11.595 4.526-17.35 6.959-4.582 1.971-9.126 4.034-13.704 6.068-5.317 2.339-10.926 3.686-16.622 4.691-.753.116-1.512.139-2.519.242.744-.686 1.47-.738 2.12-.942 2.546-.75 5.127-1.44 7.67-2.221 1.242-.373 2.407-.93 3.641-1.398.124-.04.212-.141.302-.211-.105-.151-.211-.302-.348-.45-.102-.088-.232-.142-.331-.198-6.239-3.959-11.744-8.761-16.637-14.303-.482-.536-.882-1.267-1.468-1.479-.78-.293-1.315.663-1.987 1.027-.703.367-1.304.821-2.007 1.187-.46.223-1.093.679-1.408.258-.349-.45.316-.909.674-1.219.505-.479 1.109-.902 1.681-1.322 2.596-1.83 5.228-3.6 7.788-5.49 5.21-3.852 10.383-7.764 15.555-11.707 2.677-2.026 5.386-4.054 8.306-5.78 1.52-.9 3.087-1.612 4.79-2.176 2.137-.69 4.203-.614 6.267.348.885.412 1.77.824 2.653 1.205.587.243 1.204.453 1.819.63.097.026.25-.048.307-.147.056-.1.045-.257.006-.35-.681-1.122-1.604-2.07-2.759-2.716-3.368-1.915-6.765-3.795-10.363-5.82.065.47.112.689.13.94.084 1.641-.63 2.736-2.176 3.29-.743.242-1.495.358-2.293.288-1.243-.102-2.434-.366-3.555-.983-1.45-.783-1.372-.567-2.474.429a6.843 6.843 0 00-.795.848c-.438.537-.397.66.107 1.068.669.491 1.4.977 1.952 1.603 1.107 1.315.836 2.854-.548 3.901a4.345 4.345 0 01-2.347.863c-1.8.096-3.5-.195-4.943-1.328-.336-.26-.658-.333-1.048-.02-.538.45-1.108.901-1.647 1.35-.327.309-.343.532-.007.793.2.144.461.252.664.428 1.481 1.224 1.593 2.8.364 4.248-1.113 1.282-2.54 1.73-4.199 1.563-1.637-.295-2.858-.969-3.803-2.231zm108.058-28.769c.8-.341 1.505-.676 2.213-.98 3.447-1.447 6.5-3.53 9.031-6.274 1.796-1.932 3.23-4.06 4.133-6.53.293-.78.456-1.615.556-2.445.079-.67-.364-1.114-1.06-1.096-.696.017-1.453.07-2.102.307-2.318.829-4.639 1.626-6.916 2.579-5.355 2.247-10.964 3.594-16.663 4.568-3.852.652-7.753.612-11.649.191a19.693 19.693 0 01-3.603-.758c-.745-.232-1.246-.133-1.784.317-.271.209-.444.443-.323.814.679 1.978.007 3.672-1.147 5.273-.26.367-.584.706-.844 1.073-.056.099-.002.412.097.468.527.28 1.049.495 1.603.71 2.83 1.034 5.751 1.555 8.753 1.88 5.682.58 11.387.587 17.097.215.917-.034 1.793-.19 2.608-.312zM166.1 45.676c5.061-1.023 9.042-2.983 12.511-5.92 3.856-3.28 6.804-7.288 8.92-11.87.771-1.637 1.378-3.358 1.695-5.153.176-1.089.321-2.176.085-3.267-.141-.655-.6-.876-1.107-.428-1.136.967-2.236 1.994-3.338 2.99-3.126 2.85-6.427 5.458-10.149 7.494-1.708.944-3.42 1.825-5.164 2.709-4.04 2.027-8.25 3.433-12.742 4.004-1.162.146-2.326.26-3.491.374-.849.092-.881.094-.951.89-.236 2.487-1.291 4.588-2.935 6.445-.822.913-1.746 1.738-2.603 2.622-.117.135-.2.3-.315.466.162.052.297.169.457.189 2.912.395 5.828.41 8.727.173 3.748-.328 7.384-.902 10.4-1.718zm-5.971-12.272c.745-.21 1.18-.336 1.615-.462 6.118-1.763 11.611-4.748 16.733-8.498.572-.42 1.039-.992 1.476-1.53 2.415-3.051 3.876-6.574 4.816-10.313a14.42 14.42 0 00.332-5.595c-.136-1.035-.397-2.03-1.09-2.867-.313-.39-.768-.547-1.198-.358a4.282 4.282 0 00-1.156.683c-.448.38-.795.848-1.176 1.286-1.639 1.92-3.275 3.873-4.948 5.764-2.549 2.935-5.335 5.665-8.467 7.976-1.837 1.365-3.783 2.516-6.103 2.87-.534.07-.796.405-.823.913-.112 2.002-1.003 3.743-2.06 5.37-1.028 1.592-2.259 3.009-3.625 4.309-.387.343-.741.717-1.126 1.092a.973.973 0 00-.084.165c.101.087.173.209.302.231.256.046.511.06.761.01 2.063-.4 4.097-.765 5.821-1.046zm7.632 36.627c4.269-1.474 6.831-2.89 9.405-5.035 1.257-1.04 2.278-2.283 3.128-3.704.255-.43.629-.963.341-1.45-.321-.514-.939-.28-1.439-.182-.376.058-.748.18-1.122.27-3.21.765-6.462 1.375-9.769 1.672-5.038.452-10.099.59-15.146.029-4.633-.527-9.051-1.607-13.2-3.814-.198-.113-.55-.151-.701-.046-1.426.893-2.852 1.785-4.243 2.738-.151.106-.254.43-.239.65.023.316.203.62.256.932.083.722.522 1.103 1.119 1.472a18.881 18.881 0 004.53 2.212c2.722.852 5.445 1.704 8.219 2.394 4.546 1.102 9.118 2.108 13.769 2.444 1.882.183 3.711.053 5.092-.582zm-79.755 44.46a331.01 331.01 0 006.234-2.815c.153-.075.365-.216.387-.344-.009-.126-.18-.304-.315-.421-3.048-1.874-6.121-3.651-9.113-5.623-3.49-2.286-6.774-4.807-9.767-7.698-1.259-1.209-2.458-2.485-3.719-3.725-.51-.502-.704-.552-1.157-.235-1.568 1.124-3.135 2.28-4.7 3.435-.393.281-.404.567.035.948 1.323 1.235 2.649 2.503 4.002 3.705 4.832 4.248 9.954 8.096 15.136 11.908.533.374 1.038.781 1.598 1.09.198.112.516.121.732.043.284-.02.554-.229.647-.268zm19.445-8.246l-.005-.063c.807-.247 1.615-.463 2.422-.71.216-.079.563-.103.507-.448-.043-.155-.212-.301-.378-.416-2.119-1.275-4.233-2.486-6.324-3.826-7.231-4.553-13.962-9.648-19.647-16.084-.07-.09-.171-.178-.275-.297-.274-.297-.56-.308-.862-.097L79.19 87.13c-.421.315-.435.569-.06.954 1.437 1.481 2.846 3.028 4.401 4.405 5.681 5.043 11.973 9.315 18.408 13.354.697.458 1.483.813 2.24 1.203.362.196.711.203 1.112.048.708-.303 1.449-.578 2.159-.849zm-5.043-73.438c-1.508-.717-3.175-.978-4.817-1.337-2.477-.521-4.951-1.01-7.33-1.919-.78-.292-1.566-.648-2.264-1.105-.795-.482-1.353-1.203-1.485-2.175-.011-.157.072-.321.156-.486-.003-.031.254.014.324.104.999 1.132 2.364 1.605 3.748 1.919 4.092.945 8.215 1.887 12.336 2.799.097.024.217-.079.341-.12-.07-.09-.111-.213-.176-.24-.727-.424-1.454-.847-2.209-1.205-2.56-1.243-5.12-2.487-7.736-3.631-1.603-.71-3.312-1.127-5.067-1.288-2.137-.196-3.822.62-4.823 2.59-.415.852-.695 1.822-.883 2.753-.29 1.287.181 2.109 1.417 2.56.651.238 1.385.313 2.083.327.638.05 1.293-.092 1.926-.105 1.363-.002 1.793.253 2.105 1.529.224.934.294 1.91.489 2.878.045.186.123.402.288.486.099.056.376-.059.462-.191 1.415-1.494 3.119-2.5 4.997-3.267 1.906-.831 3.958-.945 6.118-.876zm-24.01 30.16c-.112-.245-.253-.456-.303-.706-.164-.527-.522-.66-1.028-.655-1.775-.001-3.323.52-4.632 1.72-.836.725-1.605 1.507-2.407 2.26-1.666 1.543-3.261 3.176-4.997 4.628-2.666 2.184-5.745 3.446-9.205 3.818-3.052.311-5.795-.381-8.127-2.432-.337-.293-.677-.617-1.044-.876-.37-.29-.824-.448-1.28-.162-.455.285-.453.76-.421 1.2.017.253.13.498.21.746.615 1.507 1.704 2.57 3.179 3.257 4.091 1.831 8.15 1.86 12.191-.135a28.982 28.982 0 006.71-4.591c1.073-.962 2.08-1.952 3.19-2.853 1.17-.938 2.343-1.813 3.618-2.6.577-.357 1.319-.631 2.014-.649 1.014-.008 1.593-.777 2.427-1.09.06-.035.142-.231.104-.324-.016-.22-.122-.37-.198-.555zm7.015-7.018c-.12-.783-.204-1.536-.32-2.288-.066-.47-.365-.67-.836-.606-1.505.234-2.41 1.31-2.398 2.83.001.918.19 1.79.629 2.614 2.658 5.32 6.32 9.588 11.854 12.109a80.133 80.133 0 015.221 2.574c2.898 1.536 5.171 3.655 6.284 6.837.121.371.335.704.546 1.006.212.301.838.194 1.005-.135.083-.164.196-.362.183-.55.03-.921.028-1.84-.471-2.627-.675-1.028-1.29-2.093-2.025-3.086-1.569-2.01-3.52-3.612-5.792-4.813a144.14 144.14 0 01-6.826-3.759c-3.474-2.065-6.209-4.879-7.959-8.554-.335-.704-.514-1.451-.757-2.194-.04-.123.068-.384.187-.488.09-.07.38.005.484.124.31.358.412.89.99 1.006zm-35.56 38.894c-.093-.405-.178-.716-.2-1.03-.011-.158.166-.33.318-.435.06-.036.288.043.326.135l1.08 1.823c.214.334.565.372.8.102 1.174-1.318 2.285-2.631 2.568-4.456.09-.513.343-.974.465-1.489.052-.162-.025-.346-.1-.5-.035-.06-.258-.076-.35-.038-1.075.488-1.974 1.216-2.734 2.125-.293.337-.205.68-.145 1.087.106.594.013.632-.588.643-.76.022-1.552.015-2.304.131-.66.079-1.203.465-1.643.971-1.429 1.748-1.32 4.62.253 6.251.925.979 2.233 1.108 3.355.395.546-.355.796-.848.591-1.498-.287-.93-.667-1.82-1.016-2.714-.195-.524-.454-1.044-.677-1.503zm36.953-21.897c1.276-.343 1.542-1.059.98-1.842a4.53 4.53 0 00-.624-.747c-.439-.38-.907-.728-1.376-1.074-2.066-1.437-4.336-2.606-6.114-4.443-.204-.207-.457-.189-.698-.014-1.084.805-1.298 1.802-.606 3.083 1.598 2.862 4.085 4.427 7.234 5.027.484.124 1.015.023 1.204.01zM67.365 83.029c.002.031.036.06.04.124.4-.187.933-.256 1.197-.56a20.24 20.24 0 012.605-2.59c.3-.243.147-.612-.03-.885-.14-.18-.379-.416-.568-.403-1.142-.014-2.138.247-3.03 1.07-1.341 1.203-2.283 2.662-2.895 4.32-.212.585-.226 1.282-.245 1.917-.025.54.23.997.666 1.346 1.549 1.283 4.468.886 5.555-.773.2-.3.178-.615-.063-.882-.17-.178-.375-.385-.574-.498a32.104 32.104 0 00-2.154-.892c-.424-.16-.872-.223-1.325-.35-.096-.024-.202-.175-.209-.27-.006-.094.077-.258.138-.294.272-.178.583-.263.892-.38zm-8.374 7.051c.002.032.036.06.036.06.398-.186.87-.25 1.198-.527.929-.762 1.49-1.784 1.725-2.94.048-.225-.227-.522-.477-.473-.374.09-.784.12-1.12.301-2.072 1.16-3.506 2.844-3.875 5.245-.108.704-.057 1.429.337 2.066.18.303.457.632.785.799.824.448 1.745.478 2.64.13.989-.356 1.561-1.22 1.438-2.065-.125-.878-.79-1.306-1.566-1.536-.26-.076-.514-.09-.77-.135-.257-.045-.51-.027-.77-.135-.163-.052-.27-.235-.374-.354.15-.106.268-.24.421-.315.122-.072.248-.08.372-.12zm19.763-9.124c.272-.178.7-.398 1.03-.675.39-.312.419-.789.106-1.178-.59-.718-1.382-1.169-2.172-1.588-.986-.5-1.97-.968-2.7-1.866-.242-.3-.558-.277-.869-.192-.777.213-1.216.72-1.352 1.489-.258 1.284.226 2.295 1.232 3.078 1.34 1.013 2.936 1.185 4.725.932zm8.308-41.997c.202.619.373 1.24.575 1.859.043.155.21.27.342.355.034.03.214-.11.302-.211.316-.466.66-.965.942-1.46.14-.263.21-.616.159-.897a96.168 96.168 0 00-.772-4.188c-.099-.5-.367-.702-.804-.608-1.75.346-3.45.498-5.123-.302-.034-.029-.334.214-.296.306.177 1.602-.159 1.784 1.717 1.873.318.01.638.05.958.09.704.109 1.206.485 1.413 1.167.205.65.38 1.334.587 2.016zm-7.708 33.47a2.11 2.11 0 00-.216-.365l-1.654-1.877c-.31-.358-.563-.34-.95.004-1.22 1.131-1.088 2.546-.893 3.957.07.534.626.78 1.144.932.356.102.588-.2.793-.436.53-.575 1.028-1.149 1.557-1.725.086-.132.136-.326.22-.49zm.881-10.826c.077.184.203.619.42 1.015.932 1.517 2.337 2.557 3.857 3.43.033.03.128.023.191.019-.009-.126.043-.288.005-.38a11.48 11.48 0 00-.563-.784c-1.433-1.893-2.837-3.82-3.572-6.142-.036-.06-.203-.175-.263-.14a.54.54 0 00-.266.273c-.258.841-.105 1.654.191 2.709z" fill="#131B43"/><path d="M171.569 58.903c-.818.09-1.725.249-2.608.311-5.71.373-11.415.366-17.097-.213-2.968-.297-5.923-.847-8.753-1.881a10.361 10.361 0 01-1.603-.71c-.1-.056-.153-.37-.097-.468.259-.367.552-.704.843-1.073 1.154-1.601 1.827-3.295 1.148-5.273-.122-.371.052-.605.322-.814.539-.45 1.039-.549 1.784-.317 1.167.361 2.39.623 3.604.758 3.896.42 7.765.463 11.648-.192 5.699-.973 11.31-2.288 16.663-4.567 2.278-.953 4.596-1.782 6.917-2.58.648-.235 1.405-.289 2.101-.306.696-.018 1.139.425 1.06 1.096-.1.83-.262 1.665-.556 2.445-.902 2.47-2.334 4.63-4.132 6.53-2.563 2.745-5.585 4.827-9.032 6.274-.707.304-1.412.639-2.212.98z" fill="#fff"/><path d="M166.1 45.677c-3.016.816-6.651 1.39-10.339 1.682-2.898.237-5.815.222-8.727-.173-.16-.02-.295-.137-.457-.19.115-.166.198-.33.316-.465.856-.884 1.78-1.709 2.603-2.622 1.614-1.824 2.698-3.958 2.934-6.444.071-.797.102-.799.951-.89 1.165-.115 2.329-.229 3.492-.375 4.491-.571 8.701-1.977 12.741-4.005a160.633 160.633 0 005.164-2.708c3.722-2.036 7.024-4.644 10.149-7.493 1.102-.997 2.202-2.024 3.338-2.991.507-.448.966-.227 1.108.428.236 1.091.124 2.207-.086 3.267-.316 1.795-.923 3.516-1.695 5.154-2.115 4.581-5.064 8.59-8.951 11.872-3.498 2.97-7.477 4.962-12.541 5.953z" fill="#fff"/><path d="M160.129 33.405c-1.721.312-3.757.646-5.823 1.014-.25.05-.507.005-.761-.01-.097-.024-.201-.143-.302-.231-.002-.031.023-.128.084-.164.353-.373.741-.718 1.126-1.093a22.568 22.568 0 003.625-4.309c1.089-1.628 1.948-3.367 2.06-5.37.027-.508.26-.81.823-.913 2.32-.354 4.233-1.534 6.103-2.87 3.164-2.313 5.918-5.04 8.467-7.975 1.673-1.892 3.278-3.841 4.948-5.764.381-.439.759-.909 1.176-1.287a3.903 3.903 0 011.156-.683c.462-.19.885-.031 1.198.358.693.838.922 1.835 1.091 2.867a14.42 14.42 0 01-.333 5.596c-.94 3.739-2.401 7.261-4.816 10.313-.437.538-.904 1.109-1.476 1.53-5.122 3.75-10.615 6.734-16.733 8.497-.435.126-.87.252-1.613.494zM167.762 70.031c-1.381.636-3.21.765-5.122.616-4.685-.365-9.254-1.34-13.769-2.444-2.772-.658-5.497-1.542-8.219-2.394-1.621-.518-3.101-1.268-4.53-2.212-.565-.371-1.006-.783-1.118-1.472-.023-.315-.234-.616-.257-.931-.015-.22.089-.545.24-.65 1.39-.953 2.816-1.846 4.242-2.738.183-.108.503-.068.701.045 4.12 2.24 8.57 3.319 13.2 3.814 5.047.56 10.108.424 15.146-.028 3.307-.298 6.56-.908 9.77-1.673.374-.09.745-.212 1.121-.27.501-.099 1.12-.3 1.44.183.287.486-.089.988-.342 1.449-.852 1.39-1.873 2.634-3.128 3.704-2.544 2.111-5.108 3.496-9.375 5.001zM82.58 117.535c-.091.039-5.115 1.597-5.426 1.683-.218.047.198.112 0 0-.563-.34-6.505.777-7.007.401-5.182-3.812-4.746-6.597-9.547-10.848-1.352-1.202-1.77-.381-3.093-1.617-.408-.382-3.16-2.118-2.769-2.4 1.566-1.155 9.827-6.679 11.395-7.803.453-.317.647-.267 1.158.235 1.228 1.242 2.428 2.519 3.718 3.725 2.993 2.891 6.31 5.41 9.767 7.698 2.99 1.941 4.339 1.75 7.387 3.624.133.086.399.257.376.385.01.126.43 1.141.276 1.215-1.996.901-4.022 2.723-6.234 3.702zM107.451 106.245c-.71.272-1.451.546-2.158.85-.401.155-.75.148-1.113-.048-.756-.39-1.511-.748-2.24-1.203-6.434-4.04-12.692-8.282-18.408-13.354-1.555-1.378-2.932-2.926-4.4-4.405-.376-.385-.362-.64.06-.954 1.23-.974 2.463-1.916 3.697-2.826.302-.212.588-.2.863.097.101.088.171.177.275.297 5.653 6.438 12.417 11.562 19.646 16.084 2.089 1.308 4.237 2.549 6.324 3.826.165.083.336.261.378.416.059.376-.288.4-.507.448-.806.247-1.613.494-2.421.709l.004.063zM102.409 32.807c-2.16-.068-4.212.045-6.15.879-1.876.798-3.582 1.773-4.997 3.267-.12.103-.363.247-.462.19-.13-.053-.243-.299-.288-.486-.163-.97-.233-1.946-.489-2.877-.312-1.276-.742-1.53-2.105-1.53-.633.014-1.29.124-1.925.105-.7-.045-1.433-.088-2.084-.327-1.236-.45-1.708-1.304-1.417-2.559.22-.934.468-1.9.883-2.753.972-1.937 2.655-2.784 4.824-2.59 1.754.161 3.463.578 5.066 1.288 2.617 1.144 5.177 2.387 7.737 3.63.754.359 1.483.814 2.208 1.206.068.058.108.182.176.24-.124.04-.246.113-.34.12-4.121-.912-8.213-1.857-12.336-2.8-1.385-.313-2.75-.786-3.749-1.918-.07-.09-.326-.135-.324-.104-.084.164-.167.329-.156.486.132.972.69 1.692 1.485 2.174.696.426 1.484.813 2.265 1.106 2.376.877 4.853 1.398 7.33 1.919 1.673.356 3.308.62 4.848 1.334zM78.4 62.968c.076.185.184.367.195.524.007.095-.04.32-.104.324-.833.313-1.413 1.082-2.426 1.09-.665.016-1.408.258-2.014.65-1.244.784-2.447 1.692-3.62 2.598-1.108.902-2.115 1.892-3.188 2.854-2.026 1.821-4.261 3.373-6.71 4.59-4.042 1.996-8.1 1.967-12.192.136-1.475-.687-2.564-1.75-3.178-3.257-.112-.246-.225-.491-.211-.745 0-.444-.004-.95.422-1.201.455-.286.878-.126 1.28.162.366.26.706.583 1.044.876 2.331 2.05 5.072 2.712 8.126 2.432 3.462-.34 6.542-1.603 9.206-3.818 1.735-1.452 3.333-3.053 4.996-4.628.802-.753 1.57-1.535 2.407-2.26 1.312-1.169 2.89-1.692 4.632-1.72.538-.007.865.128 1.029.655.051.281.193.493.305.738zM85.413 55.95c-.578-.117-.68-.649-.986-.943-.1-.088-.391-.163-.484-.124-.121.072-.23.332-.187.488.211.745.422 1.49.757 2.194 1.75 3.675 4.485 6.489 7.959 8.554 2.217 1.33 4.52 2.529 6.826 3.758 2.272 1.2 4.223 2.804 5.792 4.814.765.959 1.379 2.023 2.025 3.086.533.817.503 1.737.471 2.626-.018.19-.102.355-.183.55-.167.329-.795.405-1.005.135-.211-.301-.427-.666-.546-1.006-1.113-3.182-3.386-5.3-6.284-6.836a80.184 80.184 0 00-5.221-2.575c-5.532-2.489-9.196-6.788-11.854-12.108-.408-.826-.596-1.7-.63-2.615-.012-1.519.897-2.565 2.399-2.83.44-.062.739.139.835.606.112.689.197 1.443.316 2.226zM49.853 94.844c.223.459.481.979.68 1.535.348.893.698 1.818 1.015 2.714.203.618-.048 1.111-.59 1.498-1.09.742-2.4.581-3.356-.396-1.574-1.63-1.682-4.503-.253-6.25.437-.538.983-.893 1.643-.971.754-.085 1.545-.11 2.304-.132.601-.01.694-.049.588-.643-.06-.407-.148-.75.145-1.087.793-.879 1.659-1.637 2.733-2.124.093-.038.316-.023.352.038.074.153.15.338.099.5-.125.483-.407.978-.465 1.489-.283 1.824-1.424 3.171-2.569 4.456-.234.27-.586.231-.8-.102l-1.08-1.823c-.037-.092-.265-.171-.326-.135-.15.105-.329.276-.317.434.02.283.139.623.197.999zM86.807 72.947c-.19.013-.723.082-1.205-.01-3.148-.6-5.668-2.163-7.233-5.028-.725-1.278-.478-2.277.606-3.082.24-.175.493-.193.698.014 1.81 1.834 4.047 3.006 6.114 4.442a22.7 22.7 0 011.375 1.074c.237.205.446.475.624.747.564.815.296 1.499-.98 1.843zM67.366 83.03a7.803 7.803 0 00-.893.38c-.092.037-.175.202-.137.294.007.094.112.245.21.27.42.128.9.19 1.323.35.716.265 1.434.563 2.155.891.23.11.403.32.574.498.24.268.265.614.062.882-1.118 1.662-4.005 2.056-5.554.773a1.728 1.728 0 01-.666-1.346c.019-.634.066-1.302.245-1.916.577-1.688 1.554-3.118 2.894-4.32.895-.792 1.889-1.084 3.03-1.07.192.018.46.22.568.403.177.272.299.643.03.884a20.247 20.247 0 00-2.605 2.59c-.263.304-.797.374-1.196.56-.004-.063-.038-.092-.04-.124zM58.992 90.08c-.124.041-.25.05-.372.122-.153.074-.27.209-.421.315.135.117.242.299.373.353.227.079.514.09.77.135.257.046.511.06.77.136.777.23 1.441.658 1.567 1.535.125.878-.45 1.71-1.438 2.065-.895.348-1.784.316-2.64-.13-.329-.166-.605-.495-.785-.799-.394-.637-.445-1.361-.337-2.066.367-2.431 1.803-4.084 3.875-5.244.336-.182.746-.211 1.12-.301.25-.05.525.248.477.473-.233 1.187-.797 2.177-1.725 2.94-.329.276-.797.372-1.198.527 0 0-.003-.031-.036-.06zM78.754 80.957c-1.788.253-3.354.08-4.727-.963-1.004-.752-1.49-1.794-1.232-3.079.136-.77.575-1.275 1.352-1.489.343-.087.658-.11.87.192.697.9 1.713 1.367 2.699 1.867.822.416 1.583.87 2.172 1.587.313.39.283.867-.107 1.179-.358.31-.754.528-1.027.706z" fill="#fff"/><path d="M87.062 38.96c-.206-.682-.382-1.366-.62-2.046-.238-.68-.709-1.058-1.414-1.166-.32-.04-.64-.081-.957-.09-1.876-.09-1.509-.274-1.717-1.873-.007-.095.261-.335.295-.306 1.673.8 3.405.645 5.124.302.437-.094.707.14.804.608.258 1.406.545 2.779.772 4.187.051.281-.019.635-.159.898-.28.526-.595.992-.942 1.46-.057.098-.237.238-.302.21-.133-.085-.3-.2-.342-.355-.169-.59-.34-1.21-.542-1.83zM79.355 72.43c-.086.133-.136.326-.253.461a82.438 82.438 0 01-1.557 1.725c-.205.236-.406.535-.793.436-.516-.122-1.072-.367-1.144-.932-.195-1.411-.327-2.826.892-3.957.388-.344.638-.394.951-.004l1.654 1.877c.106.15.178.272.25.394zM80.236 61.604c-.297-1.056-.483-1.897-.192-2.71a.457.457 0 01.266-.271c.06-.036.227.078.263.14.735 2.321 2.14 4.248 3.573 6.141.21.27.385.51.563.783.07.09.017.252-.005.38a.401.401 0 01-.192-.018c-1.52-.873-2.893-1.916-3.856-3.43-.218-.397-.344-.83-.42-1.015z" fill="#fff"/><path d="M112.336 120.177a11550.43 11550.43 0 00-15.229 4.688c-.743.242-1.448.577-2.158.849-.185.076-.374.09-.563.103-.095.007-.23-.11-.268-.203-.038-.092-.02-.283.07-.353 1.127-.649 2.217-1.36 3.384-1.886a81.5 81.5 0 0117.128-5.613c2.28-.478 4.55-1.082 6.837-1.466 2.286-.383 4.617-.58 6.944-.84.095-.006.198.113.299.201-.088.101-.144.2-.234.27a.349.349 0 01-.185.076l-.371.121c-3.826 1.031-7.653 2.03-11.446 3.059-1.37.35-2.771.702-4.141 1.053-.063.004-.065-.027-.067-.059zM105.753 36.18c-.056.542-.111 1.115-.197 1.691-.429 2.437-.893 4.844-1.356 7.251-.525 2.886-.954 5.766-.747 8.696.074 1.039.21 2.074.439 3.07.353 1.4.981 2.654 2.007 3.721.616.653 1.265 1.303 1.852 1.99 1.861 2.116 3.047 4.533 3.027 7.384.005 1.424-.149 2.828-.301 4.263-.031.446-.289.844-.48 1.269-.027.065-.217.078-.309.117-.031.002-.133-.086-.135-.118-.072-.564-.209-1.156-.217-1.725a172.699 172.699 0 01-.162-4.073c-.059-2.18-.918-4.019-2.181-5.734a17.11 17.11 0 00-1.352-1.645c-2.26-2.373-3.195-5.282-3.483-8.46a25.42 25.42 0 01.141-5.613 76.19 76.19 0 012.007-9.703c.255-.873.641-1.691.961-2.537.029-.034.119-.104.151-.106.099.056.2.144.335.261zM91.6 56.05c-.438-1.267-.21-2.517.435-3.703 1.096-1.977 3.57-2.405 5.346-1.043 1.978 1.538 2.253 4.969.545 6.8-1.294 1.42-3.411 1.507-4.897.22a4.535 4.535 0 01-1.428-2.273zm6.009-1.976c-.113-.246-.194-.493-.304-.707-.972-1.64-3.105-1.774-4.203-.272-.838 1.136-.538 3.14.572 4.043 1.243.989 2.837.686 3.663-.639.484-.763.586-1.561.272-2.425zM101.232 41.249c.624 2.108.026 3.955-1.573 5.081-2.053 1.444-4.089.448-5.056-1.13-1.253-2.032-1.056-4.167 1.074-5.869 2.012-1.567 4.435-.916 5.395 1.454.077.185.122.371.16.464zm-.87.694c-.211-1.188-1.42-2.147-2.692-2.215-1.178-.075-2.118.53-2.443 1.756-.174.677-.31 1.447-.136 2.1.555 2.018 2.53 2.606 4.095 1.45 1.055-.77 1.324-1.898 1.176-3.09zM118.815 113.228c2.156-.437 4.621-.992 7.123-1.454 1.189-.211 2.457-.206 3.687-.293.095-.006.228.079.327.136-.086.132-.167.328-.291.368-.433.158-.867.283-1.3.441-4.404 1.356-8.932 2.31-13.39 3.354-.31.085-.626.108-.973.132-.504.036-1.006.103-1.518.044-.256-.045.361-.722 1.197-1.002 1.638-.591 3.219-1.083 5.138-1.726zM23.603 134.534c.536-.038.975-.101 1.417-.132l9.872-.224a.665.665 0 01.355.101c.066.027.133.086.135.117.007.095.02.284-.04.32-.645.299-1.25.69-1.938.833-2.586.627-5.232.846-7.88.59-.704-.077-1.357-.347-2.007-.586-.13-.054-.309-.326-.284-.423.048-.225.257-.398.37-.596zM39.749 138.329c-2.967.622-5.557 1.185-8.222 1.152-.698-.014-1.407-.185-2.08-.296-.097-.024-.171-.177-.18-.303-.007-.095.076-.259.137-.295.309-.117.584-.263.897-.317 3.8-.491 7.57-.948 11.372-1.407.127-.009.257.045.354.07.034.029.101.088.103.119.005.063-.054.131-.083.165-.856.44-1.746.851-2.298 1.112zM37.465 141.879c-3.717.769-7.55 1.231-11.453.716-.705-.109-1.239-.482-1.024-.593.335-.182.705-.334 1.054-.328 2.916.016 5.822-.127 8.712-.49 1.288-.154 2.575-.34 3.83-.524 1.004-.135 1.069-.108.925.092a2.525 2.525 0 01-.685.619c-.365.216-.834.312-1.359.508zM129.037 108.104c-2.565.467-5.473 1.021-8.415 1.546-.25.049-.509-.027-.766-.073-.031.003-.101-.087-.106-.15-.006-.095.014-.255.075-.291a6.593 6.593 0 011.077-.456c3.102-.948 6.336-1.367 9.539-1.783.19-.014.383.036.577.085.063-.004.133.086.135.118.007.094-.014.254-.077.258-.554.229-1.113.396-2.039.746z" fill="#131B43"/><path d="M97.608 54.073c.315.865.213 1.663-.272 2.426-.823 1.356-2.451 1.63-3.662.639-1.11-.903-1.41-2.908-.572-4.043 1.098-1.503 3.231-1.369 4.203.272.142.211.222.459.303.706zm-3.874 1.225c.243.742.717 1.183 1.488 1.319.223.016.531-.101.68-.238.264-.304-.092-.405-.293-.55-.265-.17-.59-.274-.826-.48-.27-.233-.272-.708-.013-1.075.23-.333.697-.46 1.003-.166.302.232.515.565.756.833.07.09.3.2.3.2.117-.134.295-.305.315-.465.07-.796-.256-1.375-.979-1.735-.689-.331-1.353-.316-1.98.235-.56.578-.737 1.224-.451 2.122zM100.362 41.944c.116 1.194-.153 2.322-1.176 3.09-1.598 1.158-3.54.568-4.096-1.45-.173-.653-.037-1.423.137-2.1.325-1.226 1.265-1.83 2.442-1.756 1.273.069 2.482 1.028 2.693 2.216zm-2.875 1.47c-.192-.019-.352-.039-.444 0-.155.042-.401.154-.392.28-.02.16.06.408.193.493.87.635 1.993.397 2.503-.462.539-.893.47-1.87-.158-2.68-.524-.69-1.141-.9-1.849-.597-.892.38-1.415 1.05-1.323 1.898.006.095.367.26.428.223.302-.211.565-.515.867-.726.151-.106.336-.182.496-.162.383.037.767.547.735.993-.006.349-.212.585-.552.704-.191-.018-.378.027-.504.036z" fill="#FFC229"/><path d="M93.733 55.297c-.285-.897-.109-1.543.517-2.094.627-.55 1.291-.566 1.98-.235.69.331 1.05.939.979 1.735-.02.16-.198.33-.316.466 0 0-.23-.11-.3-.2-.271-.266-.485-.6-.755-.834-.336-.26-.773-.166-1.003.166-.227.365-.257.842.013 1.076.237.205.56.308.826.48.198.112.557.245.293.549-.147.168-.455.285-.68.238-.836-.163-1.31-.604-1.554-1.346zM97.487 43.413c.124-.04.313-.053.5-.098.34-.12.546-.356.553-.704.031-.446-.353-.957-.736-.993a.72.72 0 00-.496.162c-.3.243-.566.515-.867.726-.061.036-.422-.128-.428-.223-.058-.819.431-1.518 1.323-1.898.708-.303 1.293-.092 1.849.597.628.81.699 1.818.158 2.68-.51.859-1.634 1.097-2.503.462-.133-.086-.213-.333-.193-.493.025-.097.239-.207.392-.28.097.024.257.044.448.062z" fill="#131B43"/><path d="M63.51 87.672c.946 1.262 2.195 1.902 3.664 2.051 1.66.168 3.085-.281 4.199-1.563 1.26-1.45 1.117-3.024-.364-4.248-.203-.176-.433-.286-.665-.428-.335-.261-.35-.482.008-.792.536-.481 1.108-.902 1.647-1.352.358-.31.712-.24 1.047.021 1.477 1.162 3.146 1.455 4.943 1.328a4.346 4.346 0 002.348-.863c1.385-1.016 1.657-2.555.547-3.9-.52-.629-1.28-1.081-1.951-1.604-.502-.376-.545-.53-.108-1.068.264-.304.498-.574.796-.848 1.133-.999 1.023-1.212 2.473-.429 1.088.588 2.31.85 3.556.983.797.07 1.55-.046 2.293-.289 1.516-.519 2.262-1.616 2.175-3.288-.015-.22-.064-.47-.13-.94 3.598 2.024 6.996 3.904 10.364 5.819 1.155.646 2.046 1.596 2.759 2.717.07.09.049.25-.007.349-.059.067-.241.175-.306.148-.617-.21-1.232-.388-1.82-.631-.882-.38-1.767-.793-2.652-1.205-2.03-.933-4.098-1.04-6.268-.348a25.027 25.027 0 00-4.79 2.176c-2.92 1.726-5.597 3.752-8.305 5.78-5.174 3.912-10.348 7.824-15.556 11.707-2.56 1.89-5.191 3.66-7.787 5.49-.572.42-1.145.841-1.681 1.322-.356.342-1.023.769-.675 1.219.316.421.98-.038 1.408-.258.706-.335 1.337-.823 2.008-1.187.671-.364 1.176-1.286 1.987-1.027.585.212 1.02.973 1.468 1.479 4.86 5.544 10.366 10.346 16.636 14.303.1.056.23.11.331.198.135.117.243.299.349.45-.09.07-.21.173-.302.211-1.203.465-2.4 1.025-3.64 1.398-2.544.781-5.125 1.471-7.671 2.221-.651.204-1.374.287-2.12.942 1.007-.103 1.768-.094 2.518-.242 5.699-.974 11.306-2.352 16.623-4.691 4.58-2.003 9.122-4.097 13.704-6.068 5.723-2.431 11.441-4.926 17.35-6.959 4.548-1.556 9.141-2.926 13.771-4.236.682-.206 1.369-.35 2.054-.525.092-.038.205-.236.169-.297-.043-.155-.218-.396-.313-.389a61.948 61.948 0 00-3.462.34c-.786.087-1.536.235-2.32.354-.534.07-.637-.05-.648-.651-.162-6.32-2.78-11.516-7.239-15.854-1.056-1.033-2.262-1.96-3.665-2.526-.131-.054-.342.087-.464.16-.032.001.018.251.085.31.374.353.808.67 1.18.993 4.412 3.676 7.181 8.323 8.213 13.949.095.436.16.907.159 1.35-.016.666.29 1.404-.238 2.011-.56-.308-1.148-.552-1.711-.892-7.416-4.477-4.548-1.577-11.038-7.29-1.69-1.496-17.732 1.097-19.335-.5-.272-.265-5.986-7.553-6.229-7.853-.245-.33 9.894-5.734 10.265-5.855 1.271-.407 2.575-.34 3.84.076 1.039.338 2.054.804 3.094 1.174 1.041.37 2.081.739 3.171.915.579.117.968.248 1.256.734.601.876 1.256 1.62 2.328 1.988.227.079.443.444.526.723.216.807.308 1.656.492 2.466.09.373.15.78.332 1.116.144.243.385.51.646.619.261.108.611-.328.641-.805.031-.446.029-.92-.033-1.36-.063-.438-.128-.908-.285-1.34-.394-1.08-.558-2.05.225-3.087.32-.403.302-1.098.325-1.67.068-1.27-.329-2.413-.853-3.548-1.602-3.369-4.039-6.014-7.279-7.905-1.058-.622-2.172-1.144-3.262-1.764-2.312-1.324-4.624-2.648-6.85-4.105-1.23-.8-2.29-1.896-3.436-2.86-.538-.436-.736-.992-.724-1.72.018-3.77.228-7.52 1.109-11.191.657-2.801 1.772-5.413 3.541-7.722 2.322-3.014 5.377-4.623 9.168-4.797 1.358-.064 2.719-.097 4.077-.162.441-.031.763.041.772.61.006.095.211.302.371.322 1.16.266 2.178-.122 3.154-.666.915-.508 1.798-1.014 2.713-1.522 2.929-1.6 6.127-2.08 9.395-2.027 1.554.017 3.11.065 4.676.239 4.504.504 8.642-.58 12.436-2.939 2.096-1.288 4.083-2.758 6.073-4.197 2.051-1.475 3.957-3.193 6.257-4.274.92-.445 1.906-.831 2.94-1 1.753-.313 2.874.304 3.74 1.794.364.67.508 1.357.336 2.065-.246.999-.523 2-.932 2.947-.791 1.797-1.948 3.367-3.339 4.764-3.752 3.843-8.137 6.813-13.091 8.905-3.661 1.557-7.448 2.68-11.316 3.555-2.401.55-4.856.787-7.3 1.182-.563.103-1.126.206-1.719.343-.094.007-.207.205-.203.268.007.094.113.245.21.27.322.072.641.113.959.122 2.164.132 4.27-.112 6.403-.422 3.67-.545 7.245-1.526 10.782-2.6 3.381-1.03 6.54-2.52 9.548-4.348.455-.285.881-.537 1.338-.791.029-.034.261.108.268.202.013.19-.005.38-.055.574-.465 1.932-1.491 3.556-2.778 5.072-1.961 2.292-4.372 4.045-6.956 5.59-2.251 1.33-4.617 2.385-7.059 3.254-4.361 1.512-8.768 2.837-13.394 3.291-.189.014-.41.03-.561.135-.182.108-.327.308-.507.447.2.144.403.32.599.401.227.079.513.09.765.073.57-.01 1.172-.02 1.737-.092 5.726-.595 11.238-1.967 16.492-4.302.89-.411 1.782-.79 2.674-1.17.216-.08.473-.034.723-.084-.014.255.004.507-.075.734-.37 1.04-1.066 1.943-1.801 2.755-1.468 1.655-3.241 3.016-5.091 4.191-3.578 2.28-7.345 4.13-11.483 5.214-1.431.386-2.89.806-4.319 1.224-.371.121-.745.21-1.115.364-.092.038-.209.173-.171.265.007.095.115.277.209.27.574.054 1.151.14 1.716.069 3.681-.388 7.305-1.12 10.752-2.566a32.406 32.406 0 011.818-.73c.277-.115.674-.333.856.002.144.243.076.628-.03.92-.282.938-.859 1.74-1.504 2.481a17.248 17.248 0 01-3.709 3.112c-2.154 1.356-4.419 2.497-6.836 3.27-2.417.773-4.798 1.606-7.346 1.882-.063.004-.209.173-.203.267.007.095.178.273.241.268 1.358-.064 2.723-.034 4.07-.256 3.165-.51 6.206-1.421 9.128-2.673.768-.34 1.501-.74 2.301-1.081.491-.225.948-.035 1.078.462.126.434.191.904.157 1.318-.078 1.146-.513 2.158-1.212 3.03-.964 1.145-1.963 2.26-3.031 3.286-.978.956-2.094 1.763-3.11 2.626-.178.171-.354.373-.498.574-.03.033.114.276.146.274.376-.058.784-.119 1.122-.27 1.502-.707 2.633.036 3.709.91.639.524.794 1.368.658 2.137-.127.896-.348 1.798-.736 2.585-.469.983-1.202 1.826-1.801 2.755-.084.164-.102.356-.185.52.159.02.387.099.509.027.486-.288.964-.701 1.61-.526 1.068.305 2.191.51 2.979 1.34.648.651.679 1.536.453 2.375-.327 1.194-.947 2.283-1.768 3.227-.468.54-1.072.963-1.543 1.471-.205.236-.841.218-.577.8.376-.058.792.008 1.097-.172 2.385-1.214 3.999-3.038 4.702-5.651.099-.387.135-.77.172-1.152.026-1.87-1.052-3.218-2.885-3.595-.514-.09-1.023-.118-1.629-.17.314-.497.569-.926.855-1.358a7.09 7.09 0 00.997-2.92c.134-1.687-.376-3.076-1.866-3.983-.232-.142-.493-.25-.664-.428-.07-.09-.093-.405-.002-.475.324-.34.687-.587 1.014-.895.829-.818 1.659-1.637 2.418-2.545.41-.473.78-1.069 1.024-1.656.733-1.73.804-3.413-.754-4.822-.337-.293-.229-.553.039-.794 1.107-.933 2.15-1.862 3.018-3.031.115-.167.46-.223.685-.175.254.013.488.186.72.328 4.411 2.316 9.164 3.657 13.966 4.773 5.382 1.265 10.872 1.826 16.388 2.29.891.064 1.815.125 2.711.251 1.025.15 1.18.55.61 1.445-.483.794-1.137 1.41-1.891 1.939a15.215 15.215 0 01-4.013 1.962c-5.08 1.657-10.312 2.06-15.584 1.452-2.908-.333-5.77-.921-8.653-1.35-.768-.104-1.564-.618-2.346-.024.371.765 1.206.927 1.837 1.326.466.315 1.051.527 1.6.678 2.558.769 5.114 1.506 7.67 2.243.421.128.874.254 1.295.383.034.03.083.279.051.281a6.371 6.371 0 01-.968.639c-3.896 2.27-7.074 5.281-9.2 9.262-.336.626-.542 1.305-.779 1.987-.027.065.081.247.178.272.097.025.284-.02.342-.088.726-.938 1.389-1.87 2.117-2.777 2.786-3.617 6.236-6.362 10.447-8.211 1.075-.488 2.172-.66 3.383-.557 2.329.215 4.644.241 6.993.297a10.604 10.604 0 003.825-.588c.464-.16.73.012.826.48.258 1.406-.168 2.544-1.144 3.532-1.064 1.088-2.339 1.875-3.689 2.509-3.278 1.593-6.747 2.725-10.227 3.7-4.384 1.197-8.772 2.33-13.156 3.527-1.18.337-2.356.737-3.532 1.137a8.665 8.665 0 00-1.228.562c-.153.074-.201.299-.316.465.133.086.302.232.428.223.723-.083 1.415-.163 2.102-.307 4.124-.83 8.285-1.6 12.405-2.493 3.496-.754 7-1.382 10.402-2.573 1.453-.514 2.933-1.094 4.312-1.761 1.744-.884 3.312-2.008 4.599-3.524.352-.404.676-.3.87.192 1.495 3.662 2.898 7.361 3.089 11.4.066 1.831-.093 3.615-.569 5.39-.407 1.422-1.117 2.58-2.595 3.192-1.662.687-3.282 1.53-4.974 2.251-.708.304-1.498.328-2.244.539-.809.216-1.617.431-2.388.739-1.57.65-3.147 1.204-4.845 1.388-.316.022-.714.209-.946.067-.73-.455-1.304-.066-1.951.201-1.822.668-3.685 1.211-5.544 1.818-.806.247-1.613.494-2.381.833-1.633.654-3.231 1.369-5.05 1.181-.446-.032-.915.065-1.352.159-4.913.886-9.825 1.772-14.734 2.721-8.409 1.64-16.723 3.717-24.817 6.665-.618.233-1.24.404-1.859.606-5.087 1.564-10.052 3.498-15.02 5.401-2.962 1.128-5.843 2.503-8.768 3.724-1.016.42-1.966.867-2.906 1.472-.818.533-1.82.698-2.816.516-.77-.136-1.392.035-2.03.428-1.367.825-2.863 1.185-4.464.95-.48-.061-.854.029-1.277.312-1.147.809-2.49 1.094-3.897.909-.543-.057-.987-.057-1.478.168-1.26.564-2.566.91-3.962.439-.39-.131-.883.062-1.318.188-6.84 1.846-13.77 2.463-20.832 2.077-2.736-.155-5.428-.565-8.05-1.361-.812-.259-1.595-.584-2.376-.877a4.992 4.992 0 01-2.143-1.621c-3.329-4.038-4.177-8.853-3.09-14.09.027-.066.023-.129.05-.194.088-.101.175-.202.266-.272.07.09.168.146.207.239.208 1.156 1.044 1.762 2.023 2.167 1.57.681 3.184 1.105 4.85 1.367 3.624.598 7.243.69 10.863.338 6.577-.655 13.145-1.437 19.69-2.534 3.258-.547 6.504-1.252 9.662-2.299.435-.125.832-.343 1.264-.501.032-.002.088-.101.086-.132-.005-.063-.072-.122-.138-.149-.506.004-1.049-.052-1.55.046-8.707 1.44-17.476 2.473-26.27 3.159-4.916.38-9.862.35-14.747-.602-.963-.185-1.9-.435-2.837-.685-.419-.097-.628-.368-.662-.84-.108-2.43.008-4.813.733-7.112.338-1.037.97-1.968 1.504-2.924.282-.495.539-.449.957.091.664.871 1.583 1.312 2.587 1.621 1.263.385 2.538.485 3.837.488 2.406-.044 4.78-.528 7.127-.948.44-.063.874-.188 1.345-.253 1.1-.142 2.009.174 2.71 1.137.422.572.935 1.106 1.5 1.477 2.63 1.777 6.015 1.252 8.026-1.233.874-1.075 1.485-2.29 1.77-3.64.269-1.127.504-2.283.613-3.43.09-.957.523-1.557 1.386-1.903 1.42-.544 2.589-1.481 3.794-2.358.273-.178.51-.416.715-.652.086-.133.158-.455.09-.513-.166-.115-.461-.252-.648-.208-.374.09-.708.304-1.043.486a351.403 351.403 0 00-4.61 2.922c-.76.466-1.22 1.131-1.412 2-.158.897-.316 1.795-.603 2.67-.343.974-.684 1.98-1.256 2.843-1.52 2.261-3.608 2.757-5.916 1.496-.66-.365-1.296-.858-1.902-1.354-1.083-.968-2.35-1.416-3.74-1.349-1.358.064-2.71.223-4.061.382-1.604.177-3.203.417-4.84.565-1.039.105-2.088.053-3.095-.288-.648-.207-1.178-.518-1.506-1.128-.184-.367-.245-.774.082-1.082a17.559 17.559 0 011.645-1.383c1.931-1.371 4.051-2.313 6.281-3.041 2.602-.849 5.213-1.572 7.851-2.36l5.028-1.496c2.573-.815 4.932-1.964 6.922-3.846.326-.308.556-.197.826.037.236.205.475.441.772.61 1.662 1.085 3.714.972 5.275-.247.902-.697 1.28-1.61 1.011-2.73-.085-.311-.11-.658-.288-.93-.747-1.15-.49-1.992.662-2.738.455-.286.834-.756 1.217-1.163.345.388.66.808 1.033 1.162 1.693 1.526 4.788 1.37 6.417-.233 1.068-1.025 1.61-3.216-.136-4.612-.64-.525-.579-.56-.083-1.166.496-.605.897-1.203 1.477-1.972zm48.825 32.506c.003.031.005.063.039.092 1.369-.35 2.77-.703 4.14-1.053 3.827-.999 7.652-2.03 11.446-3.059l.371-.121c.061-.036.124-.04.185-.076.09-.07.147-.169.235-.27-.1-.056-.205-.207-.3-.2-2.327.259-4.626.454-6.944.84-2.286.383-4.557.987-6.837 1.465-5.933 1.243-11.63 3.135-17.127 5.614-1.168.525-2.258 1.236-3.385 1.885-.06.036-.11.23-.07.354.038.092.171.177.268.202.192.018.379-.027.563-.103.71-.272 1.413-.638 2.159-.849 5.084-1.595 10.171-3.158 15.257-4.721zm-6.582-83.998a2.31 2.31 0 00-.336-.261c-.033-.03-.123.04-.151.106-.32.845-.737 1.666-.961 2.537-.883 3.197-1.574 6.411-2.006 9.703a25.765 25.765 0 00-.142 5.613c.257 3.18 1.192 6.09 3.483 8.46.48.504.932 1.073 1.353 1.645 1.262 1.715 2.121 3.554 2.181 5.734.033 1.359.097 2.716.161 4.072.041.567.146 1.161.218 1.726.004.063.103.12.135.117.126-.009.283-.02.308-.117.192-.425.418-.82.481-1.268.154-1.404.306-2.84.3-4.264-.011-2.848-1.165-5.267-3.026-7.383-.588-.687-1.236-1.337-1.853-1.99a8.393 8.393 0 01-2.006-3.72 20.024 20.024 0 01-.439-3.072c-.208-2.93.19-5.807.746-8.695.464-2.407.925-4.846 1.357-7.251.086-.576.14-1.15.197-1.692zM91.6 56.05c.258.964.785 1.686 1.462 2.303 1.454 1.29 3.57 1.172 4.897-.22 1.708-1.83 1.433-5.262-.545-6.8-1.779-1.393-4.25-.933-5.346 1.044-.678 1.156-.907 2.407-.468 3.673zm9.631-14.801c-.038-.092-.083-.28-.159-.464-.96-2.37-3.383-3.02-5.396-1.454-2.131 1.67-2.327 3.837-1.073 5.87.967 1.578 3.002 2.573 5.055 1.13 1.6-1.127 2.198-2.974 1.573-5.082zm17.584 71.98c-1.919.642-3.53 1.168-5.107 1.723-.836.28-1.451.989-1.196 1.003.479.061 1.013-.009 1.518-.045.315-.022.66-.078.973-.132 4.487-1.077 8.985-1.998 13.389-3.354.435-.126.87-.252 1.3-.44.124-.041.174-.234.291-.369-.099-.057-.232-.142-.326-.135-1.23.087-2.467.079-3.688.292-2.536.433-5 .988-7.154 1.457zm-95.213 21.305c-.114.167-.324.34-.372.565-.022.128.153.369.284.423.65.239 1.337.538 2.006.586 2.649.256 5.295.037 7.881-.59.685-.175 1.293-.535 1.938-.833.06-.036.05-.194.04-.32-.002-.031-.07-.09-.134-.117-.131-.054-.23-.11-.356-.101l-9.872.224c-.44.063-.878.125-1.415.163zm16.147 3.795c.551-.26 1.41-.669 2.3-1.08a.175.175 0 00.083-.165c-.002-.031-.07-.09-.103-.119-.129-.023-.26-.077-.354-.07-3.802.459-7.57.948-11.372 1.407a3.05 3.05 0 00-.897.317c-.092.038-.144.2-.138.294.007.095.115.277.18.304.705.109 1.383.282 2.081.296 2.662.001 5.284-.564 8.22-1.184zm-2.284 3.55c.524-.196.993-.292 1.39-.51.275-.146.511-.385.685-.619.144-.2.047-.225-.926-.092-1.286.186-2.572.372-3.83.524-2.889.363-5.794.505-8.711.49-.35-.007-.75.148-1.054.328-.214.11.32.484 1.024.593 3.871.517 7.705.055 11.422-.714zm91.572-33.775a79.618 79.618 0 002.01-.712c.061-.036.083-.164.076-.259-.002-.031-.069-.09-.135-.117-.193-.049-.387-.099-.576-.085-3.203.416-6.438.835-9.54 1.783a7.835 7.835 0 00-1.077.456c-.06.036-.081.196-.074.291.002.031.072.121.106.15.256.046.515.122.765.073 2.972-.559 5.911-1.115 8.445-1.58z" fill="#fff"/><path d="M109.866 105.442c.563.34 10.809-4.881 11.37-4.573.527-.607.222-1.345.238-2.011a6.56 6.56 0 00-.159-1.35 26.282 26.282 0 00-.795-3.173c-3.182-1.073-8.384-1.59-12.754-1.534-.38-.005-12.04 2.277-12.42 2.272 3.604 2.562 10.744 8.072 14.52 10.369z" fill="#BACCDB"/><path d="M128.783 98.688c-.244.144-.519.29-.794.436-.306.149-.72.115-1.097.173-.231-.585.372-.564.578-.8.148-.138.295-.306.444-.444-1.666-1.148-3.483-2.19-5.476-3.03.47 1.707.755 3.492.794 5.388.011.601.114.72.648.651.786-.088 1.534-.267 2.32-.355 1.162-.145 2.298-.226 3.462-.34.095-.006.239.237.313.39.038.092-.075.29-.169.297-.683.206-1.37.35-2.055.525-4.629 1.309-9.222 2.679-13.771 4.236-5.909 2.033-11.595 4.525-17.349 6.959-4.582 1.971-9.127 4.034-13.705 6.067-5.317 2.34-10.925 3.687-16.622 4.692-.752.116-1.511.138-2.518.241.743-.686 1.469-.737 2.12-.941 2.545-.751 5.127-1.44 7.67-2.221 1.241-.373 2.406-.931 3.64-1.398.125-.04.213-.142.303-.211-.106-.151-.212-.302-.35-.45-.1-.088-.231-.142-.33-.199a73.285 73.285 0 01-7.584-5.509c-10.896 12.168-16.921 25.986-20.89 29.908.063-.004.128.023.194.05 1.396.471 2.702.125 3.962-.439.49-.225.966-.227 1.477-.168 1.408.185 2.719-.098 3.897-.909.424-.284.796-.405 1.278-.312 1.6.234 3.096-.125 4.464-.95.638-.393 1.26-.564 2.03-.428.995.182 1.998.016 2.816-.516.907-.603 1.89-1.052 2.906-1.473 2.924-1.22 5.806-2.595 8.768-3.723 4.968-1.903 9.933-3.838 15.02-5.401l1.858-.606c8.063-2.946 16.377-5.022 24.818-6.665 4.908-.949 9.821-1.835 14.734-2.721.437-.094.905-.191 1.351-.159 1.342.158 2.584-.215 3.787-.68-1.756-5.099-5.509-13.349-12.942-18.965zm-.267 17.273a.33.33 0 01-.184.076l-.372.122c-3.825 1.03-7.652 2.029-11.446 3.058-1.37.35-2.771.703-4.14 1.053-.003-.032-.005-.063-.039-.092-5.086 1.563-10.173 3.126-15.228 4.687-.743.243-1.449.578-2.158.849-.185.077-.374.09-.563.104-.095.006-.23-.111-.268-.203-.038-.092-.02-.283.07-.353 1.126-.65 2.217-1.36 3.384-1.886a81.571 81.571 0 0117.128-5.614c2.279-.478 4.55-1.082 6.836-1.465 2.287-.384 4.618-.58 6.945-.84.094-.007.198.113.299.2-.117.135-.174.234-.264.304zm1.145-3.975c-.433.157-.867.283-1.3.44-4.404 1.357-8.932 2.311-13.39 3.354-.311.086-.626.108-.973.133-.504.035-1.007.103-1.518.044-.257-.045.361-.722 1.197-1.003 1.577-.555 3.188-1.08 5.107-1.723 2.156-.438 4.62-.992 7.122-1.454 1.19-.211 2.458-.206 3.688-.293.094-.007.227.079.326.135-.054.131-.135.326-.259.367zm1.415-4.627c-.556.197-1.081.393-2.009.712-2.566.466-5.474 1.021-8.416 1.545-.25.05-.509-.027-.766-.072-.031.002-.101-.088-.105-.151-.007-.094.013-.254.074-.29a6.507 6.507 0 011.077-.456c3.102-.948 6.337-1.367 9.54-1.784.189-.013.383.036.576.086.063-.004.133.086.135.117-.054.131-.043.288-.106.293z" fill="#fff"/><path d="M77.154 119.218c.198.113 9.928-4.344 10.145-4.422.31-.086.58-.295.673-.333 2.213-.98 4.24-1.883 6.234-2.816.153-.074.365-.216.388-.344-.01-.126-.18-.304-.315-.421-3.049-1.873-6.122-3.65-9.114-5.623a67.372 67.372 0 01-4.236-2.992c-1.87 1.335-10.007 9.066-11.708 10.548M109.995 104.578c-2.119-1.275-4.233-2.487-6.324-3.826-2.853-1.793-5.649-3.684-8.296-5.713a51.151 51.151 0 00-5.86 2.283c3.987 3.042 8.177 5.816 12.454 8.489.698.457 1.484.813 2.24 1.202.363.196.714.235 1.113.048.707-.303 1.448-.577 2.158-.849l-.004-.063c.806-.247 1.615-.463 2.421-.71.217-.078.563-.103.507-.447a1.018 1.018 0 00-.409-.414z" fill="#BACCDB"/><path d="M128.783 98.688c-.244.144-.519.29-.794.436-.306.148-.72.114-1.097.173-.231-.585.372-.565.578-.801.148-.137.295-.306.444-.443-1.666-1.148-3.483-2.191-5.476-3.031.47 1.708.755 3.492.794 5.389.011.6.114.72.648.65.786-.087 1.534-.267 2.32-.354 1.162-.146 2.298-.226 3.462-.34.095-.007.239.236.313.389.038.092-.075.29-.169.297-.683.207-1.37.35-2.055.526-4.629 1.309-9.222 2.679-13.771 4.236-5.909 2.033-11.595 4.525-17.349 6.958-4.582 1.971-9.127 4.034-13.705 6.068-5.317 2.339-10.925 3.686-16.622 4.691-.752.117-1.511.139-2.518.242.743-.686 1.469-.737 2.12-.942 2.545-.75 5.127-1.439 7.67-2.221 1.241-.373 2.406-.93 3.64-1.397.125-.041.213-.142.303-.212a4.14 4.14 0 00-.35-.45c-.1-.088-.231-.142-.33-.198a73.146 73.146 0 01-7.584-5.51c-10.896 12.169-16.921 25.987-20.89 29.909.063-.005.128.022.194.049 1.396.471 2.702.125 3.962-.439.49-.224.966-.226 1.477-.168 1.408.186 2.719-.097 3.897-.909.424-.283.796-.404 1.278-.312 1.6.235 3.096-.124 4.464-.949.638-.394 1.26-.564 2.03-.429.995.183 1.998.017 2.816-.516.907-.602 1.89-1.052 2.906-1.472 2.924-1.22 5.806-2.596 8.768-3.723 4.968-1.903 9.933-3.838 15.02-5.401l1.858-.607c8.063-2.945 16.377-5.022 24.818-6.664 4.908-.949 9.821-1.836 14.734-2.722.437-.094.905-.19 1.351-.159 1.342.159 2.584-.214 3.787-.679-1.756-5.1-5.509-13.35-12.942-18.965zm-.267 17.272a.338.338 0 01-.184.077l-.372.121c-3.825 1.031-7.652 2.03-11.446 3.058-1.37.351-2.771.703-4.14 1.053-.003-.031-.005-.063-.039-.092-5.086 1.563-10.173 3.127-15.228 4.688-.743.242-1.449.577-2.158.849-.185.076-.374.09-.563.103-.095.007-.23-.11-.268-.202-.038-.093-.02-.284.07-.354 1.126-.649 2.217-1.36 3.384-1.886a81.51 81.51 0 0117.128-5.613c2.279-.478 4.55-1.082 6.836-1.466 2.287-.383 4.618-.58 6.945-.84.094-.006.198.113.299.201-.117.135-.174.234-.264.303zm1.145-3.975c-.433.158-.867.283-1.3.441-4.404 1.356-8.932 2.31-13.39 3.354-.311.085-.626.108-.973.132-.504.036-1.007.103-1.518.044-.257-.045.361-.722 1.197-1.002 1.577-.555 3.188-1.081 5.107-1.723 2.156-.438 4.62-.992 7.122-1.455 1.19-.21 2.458-.205 3.688-.292.094-.007.227.079.326.135-.054.13-.135.326-.259.366zm1.415-4.627c-.556.198-1.081.393-2.009.712-2.566.467-5.474 1.021-8.416 1.546-.25.049-.509-.027-.766-.072-.031.002-.101-.088-.105-.151-.007-.095.013-.254.074-.29a6.51 6.51 0 011.077-.457c3.102-.947 6.337-1.366 9.54-1.783.189-.014.383.036.576.086.063-.005.133.085.135.117-.054.13-.043.288-.106.292z" fill="#BACCDB"/><path d="M87.99 107.56l-5.072.423a.72.72 0 00-.577.357l-2.539 4.422c-.31.529-1.074.488-1.304-.066l-1.98-4.703a.699.699 0 00-.539-.437l-4.986-1.04c-.61-.115-.79-.862-.343-1.274l3.851-3.343c.178-.171.289-.4.24-.65l-.55-5.058c-.073-.597.594-1.024 1.123-.713l4.37 2.635a.817.817 0 00.669.047l4.636-2.1c.552-.261 1.158.234 1.011.846l-1.17 4.958a.72.72 0 00.173.652l3.437 3.778c.416.508.15 1.224-.45 1.266z" fill="#131B43"/></g><defs><clipPath id="clip0"><path fill="#fff" transform="rotate(-4.051 201.593 7.13)" d="M0 0h191v135H0z"/></clipPath></defs></svg>
