<svg width="102" height="149" viewBox="0 0 102 149" fill="none" xmlns="http://www.w3.org/2000/svg"><path d="M57.277 148.223c-1.011-.04-2.043-.06-3.054-.14-.714-.059-1.388.02-2.063.16-7.595 1.518-14.953.759-22.053-2.337a20.123 20.123 0 01-4.76-2.896c-1.17-.958-2.162-2.057-2.895-3.375-.952-1.738-1.349-3.555-.774-5.533.12-.399.04-.479-.357-.579-1.309-.28-2.638-.519-3.947-.859-1.804-.479-3.51-1.218-5.057-2.297-2.538-1.717-4.145-4.054-4.58-7.17-.378-2.656.257-5.113 1.645-7.35.516-.819 1.19-1.558 1.785-2.317.198-.26.178-.379-.119-.519-.714-.36-1.428-.659-2.122-1.039-3.173-1.777-5.652-4.214-7.259-7.51C-1.01 99.01-.593 92.279 3.87 87.205c2.042-2.316 4.482-4.034 7.318-5.232.377-.16.773-.32 1.15-.5.199-.08.199-.28.02-.44-.178-.139-.377-.279-.535-.439-.952-.878-1.964-1.717-2.836-2.676-6.129-6.69-4.106-16.638 2.24-21.231 1.706-1.239 3.59-2.137 5.573-2.816 2.48-.84 5.018-1.359 7.596-1.678 3.312-.42 6.644-.74 9.956-1.159 2.44-.32 4.859-.699 7.239-1.378.575-.16 1.15-.4 1.725-.56.754-.199 1.17-.698 1.329-1.457.139-.68.238-1.358.119-2.077-.337-1.938-.853-3.815-1.646-5.633-.496-1.158-.992-2.317-1.448-3.495-1.368-3.575-1.983-7.29-1.725-11.125.178-2.617.753-5.173 1.626-7.65 1.27-3.655 3.034-7.03 5.553-9.966C50.455 3.818 54.62 1.34 59.637.383c2.102-.4 4.224-.54 6.366-.16 3.074.559 5.553 2.077 7.398 4.574.654.898 1.19 1.897 1.666 2.896.952 1.977.674 3.835-.873 5.412-.734.74-1.27 1.598-1.725 2.517-.952 1.838-1.686 3.755-2.122 5.752-.615 2.837-.516 5.653.119 8.469 1.13 4.913 3.331 9.307 6.505 13.182 2.578 3.116 5.275 6.152 7.972 9.168 2.46 2.736 4.859 5.512 7.02 8.508 3.63 5.014 6.208 10.506 7.577 16.558.872 3.895.793 7.79-.16 11.664a43.429 43.429 0 01-.634 2.297c-.198.6-.178 1.119.12 1.718a27.037 27.037 0 012.478 7.25c.635 3.375.813 6.751.516 10.186-.813 9.907-5.315 17.976-12.316 24.707-6.306 6.072-13.783 10.046-22.311 12.004-3.47.839-6.168 1.158-9.956 1.138zM35.779 83.97c2.142-.02 4.264-.08 6.386-.4 2.578-.38 5.097-.978 7.516-2.017 1.508-.639 2.916-1.438 4.165-2.496 1.11-.96 2.003-2.078 2.46-3.496.852-2.596.198-6.431-2.837-8.588-.912-.66-1.884-1.179-2.915-1.618-2.559-1.079-5.236-1.638-7.953-1.878-4.7-.399-9.36-.08-13.982.9-1.626.339-3.272.638-4.918.938-.278.04-.555.04-.833.04-.178 0-.297-.3-.178-.42.416-.439.813-.898 1.269-1.278.912-.739 1.963-1.258 3.054-1.657 2.657-.98 5.375-1.758 8.21-2.058 4.145-.42 8.25-.28 12.297.68 2.538.599 4.958 1.557 7.12 3.095 2.34 1.658 4.065 3.795 4.878 6.631 1.27 4.494.218 8.309-3.292 11.385-.734.639-1.547 1.198-2.36 1.738-1.17.758-2.44 1.358-3.729 1.857-.337.14-.694.26-1.03.4-.12.06-.219.16-.318.24.099.06.198.139.297.159.417.08.813.16 1.23.24 1.805.32 3.49.958 5.097 1.837 1.289.7 2.42 1.578 3.352 2.697 1.725 2.097 2.419 4.474 1.824 7.19-.436 1.917-1.368 3.555-2.558 5.073-1.051 1.318-2.3 2.437-3.61 3.475-.317.24-.297.44.04.639 1.11.68 2.3 1.199 3.55 1.598 2.578.819 5.235 1.219 7.933 1.358 4.442.24 8.785-.419 13.03-1.757.575-.18 1.15-.36 1.725-.519.139-.04.278-.1.397-.08.119.02.257.1.317.199.04.1.04.3-.04.38-.178.22-.377.419-.595.579-.694.459-1.388.919-2.122 1.318-2.3 1.259-4.74 2.117-7.298 2.657-3.253.679-6.525.918-9.817.479-.694-.1-1.368-.2-2.063-.3a8.62 8.62 0 00-.694-.079c-.277-.02-.416.159-.357.439.298 1.178.516 2.377.377 3.595a11.991 11.991 0 01-1.487 4.634c-.218.399-.397.819-.595 1.238.436.36.971.16 1.447.2 1.865.14 3.67.479 5.355 1.358 3.55 1.838 6.505 6.052 5.077 11.445-.396 1.498-1.13 2.856-2.082 4.094-1.31 1.718-2.935 3.116-4.7 4.334-.199.14-.556.2-.457.54.02.06.437.02.655 0 .278-.04.535-.12.813-.16 8.548-1.578 16.163-5.133 22.708-10.885 5.712-5.014 9.877-11.106 12.137-18.456 1.408-4.534 1.944-9.107 1.012-13.821-.377-1.837-.833-3.635-1.507-5.373-.04-.12-.16-.22-.239-.34-.099.08-.198.16-.277.26-.694 1.039-1.349 2.118-2.102 3.136-1.746 2.377-3.828 4.434-6.287 6.112-.575.379-1.21.679-1.825.999-.119.059-.317-.04-.496-.08.04-.12.06-.28.16-.36.673-.639 1.368-1.258 2.022-1.917 3.55-3.635 6.029-7.91 7.318-12.863.397-1.538.615-3.116.813-4.694.298-2.396.218-4.753-.317-7.11-1.23-5.433-3.411-10.466-6.565-15.04-1.348-1.957-2.836-3.815-4.363-5.632-1.348-1.618-2.796-3.116-4.224-4.654-2.697-2.956-5.394-5.932-7.853-9.108-3.888-5.033-6.466-10.665-7.24-17.057-.555-4.573.298-8.848 2.876-12.683.734-1.078 1.567-2.077 2.38-3.115.377-.48.734-.959.754-1.618.06-1.398-.218-2.696-1.17-3.775-1.19-1.378-2.618-2.337-4.403-2.776-1.468-.36-2.955-.38-4.422-.16-5.236.779-9.54 3.196-12.713 7.53a28.94 28.94 0 00-4.82 10.326c-1.209 4.933-1.05 9.807.992 14.54.456 1.079.893 2.157 1.349 3.236.674 1.638 1.349 3.275 1.745 5.013.1.4.258.8.377 1.179.516-.12.694-.58.892-.96.278-.538.457-1.118.655-1.677.119-.36.159-.739.258-1.078.02-.1.178-.18.277-.2.06-.02.179.08.218.16.318.798.437 1.617.278 2.456-.317 1.518-1.031 2.796-2.162 3.835-1.527 1.398-3.232 2.497-5.156 3.256-1.567.599-3.173 1.038-4.8 1.418-3.589.799-7.238 1.178-10.867 1.658-2.3.3-4.601.619-6.862 1.138-2.182.5-4.304 1.178-6.267 2.257-1.686.919-3.193 2.077-4.344 3.655-3.014 4.154-3.53 10.146.853 14.58.694.7 1.428 1.339 2.202 1.918 1.943 1.458 4.125 2.516 6.386 3.355 5.037 1.798 10.233 2.597 15.568 2.557zm-16.163.919c-.893-.4-1.686-.66-2.38-1.079-.913-.56-1.726-.46-2.618.02-1.845.999-3.65 2.037-5.315 3.336-.774.599-1.527 1.238-2.202 1.937-1.507 1.558-2.637 3.375-3.113 5.532-.794 3.636-.06 6.951 2.042 9.987 1.686 2.417 3.967 4.015 6.684 5.073 2.3.899 4.72 1.378 7.16 1.678 2.954.359 5.91.32 8.884.08 4.7-.38 9.262-1.318 13.704-2.876 2.777-.959 5.434-2.177 7.913-3.735 1.944-1.219 3.709-2.637 5.097-4.514.575-.8 1.071-1.638 1.389-2.577.634-1.937.277-3.675-1.091-5.193-.675-.739-1.468-1.298-2.32-1.777-1.607-.88-3.293-1.538-5.098-1.818-1.923-.3-3.847-.56-5.79-.759-2.36-.24-4.7-.5-7.08-.48-2.916.02-5.831-.239-8.707-.878a7.396 7.396 0 00-3.034-.04c-2.638.48-5.315.879-7.913 1.558-.318.08-.635.1-.952.12-.278.02-.476-.42-.318-.64.179-.219.357-.439.595-.559 1.13-.659 2.261-1.278 3.392-1.897.337-.16.634-.3 1.07-.5zm8.409 45.858c1.487-.1 2.955-.18 4.442-.3a44.88 44.88 0 008.607-1.518c3.094-.879 6.049-2.117 8.687-3.994 1.804-1.279 3.351-2.797 4.462-4.734.595-1.019.992-2.117 1.13-3.276.179-1.458-.119-2.796-1.011-3.954-1.051-1.358-2.4-2.317-4.006-2.916-.694-.26-1.29-.22-1.983.1-7.18 3.355-14.776 4.873-22.63 5.153-3.45.119-6.861-.18-10.213-.959-.575-.14-.952-.04-1.368.379-1.25 1.299-2.201 2.777-2.777 4.474-.436 1.259-.515 2.557-.277 3.875.377 2.057 1.507 3.575 3.232 4.694 1.349.859 2.817 1.438 4.344 1.837 3.054.799 6.187 1.079 9.36 1.139zm17.035 14.92c3.054.04 6.783-.679 10.353-2.078 2.895-1.138 5.474-2.756 7.556-5.093.952-1.058 1.686-2.217 2.043-3.615.416-1.677.198-3.235-.734-4.693-.853-1.339-2.003-2.337-3.392-3.036-1.864-.919-3.847-1.319-5.91-1.458-.495-.04-.872.119-1.249.459-2.737 2.557-5.97 4.254-9.46 5.453-4.74 1.637-9.638 2.297-14.616 2.436-1.488.04-2.975-.08-4.443-.139-.733-.02-1.05.179-1.15.878-.06.32-.06.659-.04.979.06.819.357 1.538.754 2.237.595 1.019 1.388 1.858 2.3 2.617 1.23 1.018 2.599 1.797 4.066 2.416 4.205 1.778 8.587 2.657 13.922 2.637z" fill="#131B43"/><path d="M35.779 83.97c-5.335.04-10.531-.778-15.549-2.616-2.28-.839-4.442-1.877-6.386-3.355a20.248 20.248 0 01-2.2-1.918c-4.384-4.434-3.888-10.426-.854-14.58 1.15-1.578 2.638-2.737 4.344-3.655 1.983-1.079 4.085-1.738 6.267-2.257 2.26-.52 4.561-.84 6.861-1.139 3.63-.48 7.279-.859 10.869-1.658 1.626-.359 3.232-.798 4.799-1.418 1.924-.739 3.65-1.857 5.156-3.255 1.13-1.039 1.845-2.317 2.162-3.835.179-.859.04-1.678-.278-2.457-.02-.08-.158-.16-.218-.16-.099.04-.258.12-.277.2-.1.36-.159.74-.258 1.079-.198.579-.377 1.158-.655 1.678-.198.379-.377.858-.892.958-.139-.4-.298-.779-.377-1.178-.416-1.738-1.09-3.376-1.745-5.013a111.786 111.786 0 00-1.349-3.236c-2.042-4.734-2.181-9.607-.991-14.54a28.943 28.943 0 014.819-10.326c3.173-4.335 7.477-6.751 12.712-7.53 1.468-.22 2.955-.18 4.423.16 1.785.419 3.233 1.378 4.403 2.776.932 1.098 1.21 2.376 1.17 3.775-.02.639-.377 1.118-.754 1.617-.813 1.019-1.646 2.018-2.38 3.116-2.578 3.855-3.43 8.11-2.875 12.683.773 6.392 3.351 12.004 7.238 17.057 2.44 3.176 5.137 6.132 7.854 9.108 1.408 1.558 2.876 3.056 4.224 4.654 1.527 1.817 3.015 3.675 4.363 5.632 3.174 4.574 5.355 9.607 6.565 15.04.535 2.337.595 4.713.317 7.11-.198 1.578-.416 3.156-.813 4.694-1.29 4.933-3.768 9.207-7.318 12.862-.655.66-1.349 1.279-2.023 1.918-.08.08-.1.24-.159.359.159.04.357.14.496.08.615-.299 1.25-.599 1.825-.998 2.44-1.658 4.522-3.715 6.287-6.112.753-1.019 1.388-2.097 2.102-3.136.06-.1.178-.18.277-.26.08.12.199.22.238.34.675 1.738 1.15 3.555 1.508 5.373.952 4.713.396 9.287-1.012 13.821-2.26 7.35-6.425 13.442-12.137 18.455-6.545 5.752-14.16 9.308-22.708 10.885-.278.06-.535.14-.813.16-.218.02-.635.06-.655 0-.099-.339.258-.399.457-.539 1.765-1.218 3.39-2.597 4.7-4.334.932-1.238 1.686-2.577 2.082-4.095 1.428-5.392-1.527-9.607-5.077-11.444-1.686-.879-3.49-1.219-5.355-1.358-.476-.04-1.011.159-1.447-.2.198-.42.376-.839.595-1.238a12.697 12.697 0 001.487-4.634c.139-1.219-.08-2.417-.377-3.595-.08-.28.08-.46.357-.44.238.02.456.06.694.08l2.063.3c3.292.459 6.564.219 9.817-.48 2.558-.539 4.998-1.398 7.298-2.656.734-.399 1.428-.859 2.122-1.318.218-.16.417-.36.595-.579.06-.08.08-.28.04-.38-.04-.1-.199-.18-.318-.2-.118-.02-.277.04-.396.08-.575.18-1.15.34-1.726.52-4.244 1.358-8.567 1.997-13.03 1.757-2.697-.14-5.354-.539-7.932-1.358a16.668 16.668 0 01-3.55-1.598c-.337-.2-.337-.399-.04-.639 1.309-1.039 2.578-2.137 3.61-3.475 1.19-1.518 2.141-3.156 2.558-5.074.615-2.716-.08-5.093-1.825-7.19-.932-1.118-2.082-1.997-3.351-2.696-1.607-.859-3.292-1.498-5.097-1.838-.417-.08-.813-.14-1.23-.24-.099-.02-.198-.1-.297-.16.099-.079.198-.199.317-.239.337-.14.694-.26 1.031-.4 1.31-.499 2.579-1.098 3.729-1.857.813-.54 1.626-1.098 2.36-1.737 3.49-3.076 4.541-6.911 3.292-11.385-.793-2.816-2.519-4.953-4.879-6.631-2.161-1.538-4.561-2.477-7.12-3.096-4.065-.959-8.17-1.098-12.296-.68-2.836.3-5.553 1.08-8.21 2.058-1.09.4-2.142.919-3.054 1.658-.456.38-.853.839-1.27 1.278-.119.14 0 .42.179.42.278 0 .555.02.833-.04 1.646-.3 3.292-.6 4.918-.939 4.621-.979 9.282-1.298 13.982-.899 2.737.24 5.414.8 7.953 1.878 1.031.439 2.003.958 2.915 1.617 3.035 2.157 3.689 6.012 2.836 8.589-.456 1.418-1.348 2.556-2.46 3.495-1.248 1.059-2.657 1.858-4.164 2.497-2.4 1.018-4.938 1.618-7.516 2.017-2.142.38-4.264.46-6.406.46z" fill="#99D2ED"/><path d="M19.616 84.889c-.437.22-.734.34-1.012.5-1.13.618-2.28 1.258-3.391 1.897-.238.14-.417.36-.595.559-.179.2.04.64.317.64.317-.02.655-.04.952-.12 2.598-.68 5.276-1.08 7.913-1.559a7.76 7.76 0 013.034.04c2.856.62 5.792.9 8.707.88 2.38-.02 4.72.239 7.08.478a112 112 0 015.791.76c1.805.28 3.49.938 5.097 1.817.853.48 1.646 1.039 2.32 1.778 1.389 1.518 1.745 3.255 1.091 5.193-.317.938-.813 1.777-1.388 2.576-1.388 1.878-3.153 3.296-5.097 4.514-2.499 1.558-5.157 2.776-7.913 3.735-4.443 1.558-9.004 2.497-13.704 2.876-2.975.24-5.93.26-8.885-.08-2.44-.299-4.859-.779-7.16-1.677-2.697-1.039-4.997-2.657-6.683-5.074-2.102-3.016-2.836-6.351-2.043-9.986.476-2.157 1.607-3.975 3.114-5.533.674-.699 1.428-1.338 2.201-1.937 1.666-1.278 3.471-2.337 5.315-3.336.873-.479 1.706-.579 2.618-.02.635.42 1.428.68 2.32 1.079zM28.024 130.747c-3.173-.06-6.306-.339-9.38-1.158-1.527-.4-2.995-.979-4.343-1.838-1.726-1.118-2.876-2.636-3.233-4.693a7.796 7.796 0 01.277-3.875c.576-1.698 1.527-3.176 2.777-4.474.397-.42.793-.499 1.368-.38 3.372.779 6.783 1.079 10.214.959 7.873-.28 15.47-1.817 22.629-5.153.694-.32 1.289-.359 1.983-.1 1.606.599 2.955 1.558 4.006 2.916.892 1.179 1.19 2.517 1.011 3.955-.138 1.178-.555 2.257-1.13 3.275-1.11 1.938-2.658 3.456-4.462 4.734-2.638 1.878-5.593 3.116-8.687 3.995a42.055 42.055 0 01-8.607 1.518c-1.468.139-2.955.219-4.423.319zM45.06 145.667c-5.354.02-9.737-.859-13.942-2.636-1.467-.62-2.836-1.399-4.065-2.417-.893-.739-1.706-1.578-2.3-2.617-.397-.699-.715-1.418-.754-2.237a4.04 4.04 0 01.04-.978c.118-.699.416-.919 1.15-.879 1.487.06 2.974.18 4.442.14 4.978-.14 9.896-.799 14.616-2.437 3.51-1.218 6.724-2.916 9.46-5.453.377-.339.754-.499 1.25-.459 2.062.12 4.046.519 5.91 1.458a8.317 8.317 0 013.391 3.036c.932 1.458 1.15 3.036.734 4.694-.357 1.398-1.09 2.556-2.043 3.615-2.062 2.337-4.64 3.954-7.516 5.093-3.59 1.398-7.298 2.117-10.373 2.077z" fill="#99D2ED"/><path d="M48.987 11.308a28.943 28.943 0 00-4.819 10.326c-1.21 4.934-1.051 9.807.992 14.54.456 1.08.892 2.158 1.348 3.236.675 1.638 1.349 3.276 1.746 5.014.099.399.257.798.376 1.178.516-.12.694-.58.893-.959.277-.539.456-1.118.654-1.678.12-.359.159-.739.258-1.078.02-.1.179-.18.278-.2-7.2-24.726 19.773-34.793 20.824-30.519.079-.2.138-.419.158-.659.06-1.398-.218-2.696-1.17-3.775-1.19-1.378-2.618-2.336-4.403-2.776-1.467-.36-2.955-.38-4.422-.16-5.236.76-9.54 3.176-12.713 7.51zM56.107 70.388a7.374 7.374 0 00-2.638-3.415c-.912-.659-1.884-1.178-2.915-1.618-2.559-1.078-5.236-1.638-7.953-1.877-4.7-.4-9.36-.08-13.982.899-1.626.34-3.272.639-4.918.938-.278.04-.555.04-.833.04-.178 0-.119.14 0 0-10.194 1.798-11.185-3.455 3.431-5.233 20.626-2.496 22.53-8.129 24.691-15a6.897 6.897 0 01-1.924 2.996c-1.527 1.399-3.232 2.497-5.156 3.256-1.567.6-3.173 1.039-4.8 1.418-3.589.8-7.238 1.179-10.867 1.658-2.301.3-4.601.62-6.862 1.139-2.182.499-4.304 1.178-6.267 2.256-1.686.92-3.193 2.078-4.344 3.656-1.586 2.177-2.479 4.873-2.34 7.57 1.924 12.063 49.006 8.887 47.677 1.317z" fill="#fff"/><path d="M48.57 45.502c.02.04.02.08.04.12.159-.04.278-.1.377-.18l-.417.06z" fill="#fff"/></svg>
