<svg width="168" height="181" viewBox="0 0 168 181" fill="none" xmlns="http://www.w3.org/2000/svg"><path d="M49.412 155.648c-.829-.581-1.685-1.156-2.493-1.77-.568-.437-1.178-.734-1.82-.981-7.21-2.833-12.988-7.451-17.285-13.896a20.136 20.136 0 01-2.436-5.01c-.466-1.44-.706-2.9-.61-4.405.14-1.977.79-3.72 2.342-5.072.317-.272.293-.382.014-.68-.95-.944-1.938-1.864-2.855-2.858-1.259-1.379-2.293-2.923-3.011-4.667-1.206-2.818-1.293-5.652.026-8.509 1.12-2.438 2.983-4.161 5.36-5.291.877-.41 1.844-.667 2.755-.983.307-.112.355-.223.18-.502-.405-.688-.844-1.326-1.222-2.021-1.707-3.212-2.474-6.602-2.043-10.243.698-6.034 4.69-11.47 11.187-13.323 2.971-.843 5.952-.968 8.986-.442.403.07.823.15 1.237.202.21.04.318-.128.255-.359-.075-.214-.166-.439-.213-.659-.325-1.254-.722-2.507-.938-3.785-1.534-8.943 5.548-16.214 13.37-16.645 2.105-.118 4.176.145 6.21.647 2.54.635 4.956 1.572 7.297 2.697 3.012 1.44 5.987 2.973 9 4.412 2.225 1.05 4.465 2.04 6.834 2.756.57.177 1.183.287 1.753.464.742.24 1.363.045 1.907-.508.484-.496.934-1.014 1.223-1.683.765-1.811 1.347-3.67 1.663-5.627.21-1.243.42-2.485.673-3.723.783-3.747 2.276-7.204 4.567-10.29 1.565-2.104 3.432-3.943 5.506-5.554 3.045-2.388 6.355-4.272 10.062-5.379 4.898-1.456 9.74-1.286 14.479.622 1.984.8 3.845 1.831 5.441 3.309 2.283 2.133 3.547 4.751 3.747 7.848.064 1.11-.025 2.24-.165 3.337-.269 2.178-1.508 3.59-3.662 4.08-1.017.225-1.932.658-2.813 1.184-1.794 1.03-3.449 2.246-4.896 3.69-2.052 2.053-3.492 4.475-4.481 7.187-1.707 4.744-2.233 9.63-1.66 14.606.483 4.015 1.109 8.027 1.746 12.023.588 3.632 1.104 7.265 1.302 10.954.34 6.18-.462 12.194-2.585 18.024-1.373 3.748-3.547 6.981-6.444 9.725a44.097 44.097 0 01-1.776 1.588c-.491.397-.755.844-.829 1.509a27.01 27.01 0 01-1.837 7.439 37.278 37.278 0 01-5.077 8.846c-6.043 7.892-14.194 12.243-23.723 14.117-8.589 1.695-17.027.994-25.258-1.973-3.373-1.172-5.815-2.362-8.99-4.428zm16.677-65.67c1.813 1.142 3.63 2.24 5.587 3.118 2.374 1.076 4.817 1.934 7.413 2.37 1.614.278 3.23.367 4.854.153 1.452-.206 2.808-.664 3.959-1.61 2.122-1.722 3.646-5.301 2.26-8.757-.41-1.048-.947-2.01-1.576-2.938-1.569-2.29-3.518-4.21-5.673-5.88-3.737-2.88-7.83-5.132-12.246-6.808a194.294 194.294 0 01-4.644-1.872 5.818 5.818 0 01-.723-.416c-.15-.097-.088-.413.077-.45.588-.144 1.17-.316 1.76-.388 1.166-.128 2.331.004 3.465.258 2.764.614 5.47 1.429 8.018 2.71 3.713 1.89 7.09 4.229 9.974 7.224 1.811 1.877 3.328 3.992 4.314 6.455 1.071 2.66 1.366 5.39.516 8.216-1.364 4.466-4.311 7.106-8.928 7.794-.962.14-1.949.171-2.924.185-1.395.005-2.787-.177-4.141-.455-.36-.064-.724-.157-1.084-.222-.132-.014-.27.017-.396.03.05.104.091.225.164.296.307.292.597.574.904.867 1.345 1.245 2.417 2.694 3.293 4.302.706 1.285 1.181 2.636 1.36 4.081.317 2.697-.385 5.072-2.355 7.034-1.404 1.377-3.074 2.25-4.896 2.883-1.597.54-3.253.805-4.916.971-.396.03-.487.208-.312.559a16.253 16.253 0 002.121 3.264c1.726 2.083 3.745 3.857 5.938 5.433 3.606 2.605 7.616 4.4 11.91 5.571.58.16 1.161.32 1.731.496.139.042.288.067.377.148a.49.49 0 01.159.339c-.02.106-.129.274-.239.298a3.26 3.26 0 01-.814.165c-.832.011-1.664.022-2.497-.039-2.616-.186-5.132-.783-7.576-1.714-3.102-1.188-5.984-2.757-8.516-4.907l-1.572-1.368a8.158 8.158 0 00-.54-.442c-.223-.167-.437-.091-.539.176-.387 1.152-.852 2.278-1.627 3.228a12.007 12.007 0 01-3.758 3.092c-.4.218-.777.474-1.17.72.172.538.73.66 1.11.951 1.491 1.126 2.826 2.388 3.768 4.039 1.992 3.466 2.197 8.609-1.92 12.372-1.145 1.045-2.497 1.79-3.967 2.317-2.03.737-4.154 1.033-6.298 1.103-.242.01-.575-.133-.675.206-.016.062.356.253.55.354.255.117.515.189.77.306 8.043 3.297 16.371 4.426 24.987 3.129 7.516-1.127 14.314-3.997 20.192-8.956 3.637-3.052 6.561-6.609 8.327-11.078.677-1.749 1.266-3.507 1.639-5.334.032-.122-.014-.27-.016-.414-.127.014-.254.027-.374.068-1.146.498-2.28 1.051-3.465 1.5-2.753 1.055-5.618 1.659-8.594 1.74-.688.008-1.384-.084-2.074-.147-.133-.014-.245-.206-.374-.336.098-.079.201-.203.328-.216.913-.173 1.831-.318 2.739-.519 4.952-1.137 9.349-3.39 13.112-6.859 1.166-1.079 2.203-2.288 3.223-3.508 1.547-1.855 2.755-3.88 3.58-6.152 1.905-5.234 2.793-10.647 2.615-16.2-.076-2.376-.322-4.743-.623-7.097-.259-2.09-.666-4.134-1.035-6.2-.67-3.945-1.328-7.907-1.679-11.908-.546-6.336.332-12.468 3.139-18.262 2.007-4.147 5.037-7.28 9.279-9.111 1.201-.51 2.442-.9 3.688-1.333.576-.2 1.135-.41 1.509-.953.806-1.144 1.275-2.386 1.057-3.808-.255-1.803-.937-3.382-2.201-4.717-1.04-1.096-2.28-1.917-3.633-2.527-4.825-2.177-9.752-2.472-14.765-.543a28.933 28.933 0 00-9.639 6.077c-3.686 3.495-6.189 7.68-7.032 12.766-.2 1.154-.416 2.297-.616 3.45-.319 1.743-.638 3.485-1.244 5.161-.133.39-.215.812-.32 1.195.498.178.897-.111 1.269-.323.525-.304.988-.694 1.458-1.057.294-.238.533-.536.8-.768.071-.073.247-.054.341-.018.061.016.107.164.098.253-.166.843-.509 1.596-1.096 2.216-1.088 1.105-2.38 1.794-3.893 2.056-2.04.35-4.069.351-6.097-.051-1.642-.344-3.231-.843-4.804-1.404-3.451-1.27-6.726-2.925-10.037-4.485-2.097-.992-4.205-1.968-6.388-2.754-2.105-.76-4.257-1.337-6.491-1.492-1.915-.14-3.81.02-5.63.725-4.783 1.863-8.458 6.623-7.17 12.724.205.963.477 1.898.814 2.803.846 2.278 2.108 4.348 3.556 6.277 3.264 4.237 7.202 7.72 11.71 10.572zM52 82.007c-.535-.819-1.062-1.466-1.42-2.195-.464-.963-1.202-1.32-2.212-1.399-2.091-.158-4.17-.26-6.274-.07-.975.086-1.954.216-2.9.439-2.11.495-4.044 1.412-5.611 2.969-2.634 2.628-3.81 5.813-3.684 9.504.11 2.944 1.164 5.522 2.876 7.882 1.449 2.001 3.225 3.713 5.114 5.284 2.291 1.901 4.798 3.466 7.43 4.874 4.158 2.223 8.502 3.901 13.081 4.994 2.854.696 5.748 1.108 8.676 1.139 2.294.027 4.545-.211 6.729-1.039.915-.361 1.786-.798 2.561-1.416 1.582-1.286 2.222-2.941 1.892-4.958-.168-.986-.532-1.886-.99-2.75-.876-1.608-1.937-3.074-3.304-4.286a112.077 112.077 0 00-4.46-3.77c-1.855-1.48-3.683-2.963-5.695-4.234-2.463-1.56-4.774-3.356-6.847-5.449a7.397 7.397 0 00-2.53-1.675c-2.478-1.024-4.946-2.136-7.499-2.97-.31-.105-.588-.26-.865-.414-.245-.134-.174-.61.079-.71.269-.088.538-.176.803-.148 1.307.057 2.593.148 3.878.239.37.048.696.09 1.171.159zm-17.736 43.118c1.305.721 2.583 1.447 3.899 2.151a44.936 44.936 0 008.06 3.379c3.077.935 6.233 1.492 9.467 1.34 2.209-.099 4.331-.539 6.313-1.568 1.052-.534 1.98-1.244 2.723-2.143.939-1.13 1.413-2.416 1.289-3.873-.15-1.711-.765-3.247-1.792-4.62-.444-.594-.966-.882-1.722-.989-7.854-1.061-15.063-3.894-21.82-7.907-2.967-1.766-5.674-3.863-8.071-6.331-.408-.429-.78-.549-1.357-.421-1.753.416-3.353 1.144-4.755 2.261-1.047.822-1.817 1.871-2.33 3.108-.795 1.934-.666 3.823.18 5.697.67 1.452 1.59 2.733 2.66 3.895 2.136 2.324 4.62 4.254 7.256 6.021zm6.257 21.764c2.547 1.686 6.072 3.098 9.831 3.853 3.051.609 6.095.643 9.11-.196 1.373-.375 2.617-.953 3.674-1.936 1.258-1.185 1.917-2.614 1.922-4.344.007-1.587-.42-3.049-1.21-4.388-1.071-1.781-2.523-3.19-4.182-4.423-.395-.302-.799-.372-1.3-.29-3.684.67-7.322.349-10.905-.531-4.873-1.187-9.35-3.282-13.612-5.858-1.272-.771-2.458-1.676-3.66-2.52-.607-.414-.982-.418-1.443.116a4.08 4.08 0 00-.563.802c-.393.721-.532 1.487-.576 2.289-.05 1.179.162 2.313.52 3.445.482 1.522 1.212 2.918 2.111 4.232 2.575 3.77 5.786 6.88 10.283 9.749z" fill="#131B43"/><path d="M66.09 89.978c-4.51-2.852-8.437-6.352-11.663-10.611-1.464-1.94-2.72-3.983-3.555-6.277a20.257 20.257 0 01-.815-2.804c-1.287-6.1 2.371-10.871 7.17-12.724 1.821-.705 3.699-.874 5.63-.724 2.252.165 4.377.748 6.492 1.492 2.183.786 4.29 1.762 6.387 2.754 3.312 1.56 6.587 3.215 10.038 4.485 1.562.577 3.15 1.077 4.803 1.403 2.018.42 4.074.412 6.098.052 1.513-.262 2.805-.951 3.893-2.056.615-.626.941-1.39 1.095-2.217.027-.078-.047-.22-.097-.252-.105-.02-.281-.039-.341.018-.278.249-.533.535-.8.767-.48.38-.944.77-1.459 1.057-.372.212-.781.519-1.269.324.1-.411.171-.816.32-1.195.59-1.687.91-3.429 1.245-5.16.216-1.144.433-2.287.616-3.451.843-5.087 3.362-9.26 7.032-12.766a28.933 28.933 0 019.639-6.078c5.013-1.928 9.94-1.633 14.765.544a11.778 11.778 0 013.633 2.527c1.275 1.318 1.974 2.908 2.201 4.717.19 1.428-.268 2.653-1.058 3.808-.362.526-.922.736-1.509.953-1.234.416-2.475.806-3.687 1.333-4.253 1.847-7.272 4.964-9.279 9.111-2.807 5.794-3.675 11.909-3.139 18.262.334 3.99 1.003 7.935 1.678 11.908.342 2.072.766 4.126 1.036 6.2.301 2.354.547 4.721.623 7.097.194 5.563-.694 10.976-2.615 16.2-.814 2.255-2.05 4.286-3.58 6.152-1.02 1.22-2.057 2.429-3.223 3.508-3.753 3.452-8.15 5.705-13.113 6.859-.907.2-1.825.346-2.738.518-.11.025-.213.148-.328.217.112.119.225.311.374.335.679.081 1.375.172 2.074.147 2.949-.074 5.813-.678 8.594-1.739 1.185-.449 2.302-1.013 3.465-1.5.104-.052.247-.055.374-.068.001.143.047.292.016.414-.373 1.826-.956 3.612-1.639 5.334-1.749 4.48-4.69 8.026-8.327 11.077-5.878 4.959-12.676 7.83-20.192 8.956-8.616 1.298-16.944.169-24.987-3.128-.266-.1-.526-.172-.77-.306-.194-.101-.566-.293-.55-.354.1-.339.432-.196.675-.207 2.144-.07 4.257-.349 6.298-1.102 1.453-.538 2.811-1.255 3.966-2.317 4.118-3.764 3.913-8.907 1.92-12.372-.942-1.651-2.276-2.913-3.768-4.039-.379-.291-.937-.413-1.11-.952.394-.245.771-.501 1.17-.719a12.711 12.711 0 003.758-3.093c.776-.949 1.241-2.075 1.628-3.227.085-.278.316-.344.538-.177.19.146.351.297.54.443.53.459 1.044.908 1.573 1.368 2.52 2.167 5.403 3.736 8.516 4.907 2.444.93 4.96 1.528 7.575 1.714.834.061 1.666.05 2.498.039a3.26 3.26 0 00.814-.165c.093-.035.218-.192.239-.298.02-.105-.07-.258-.16-.34-.088-.081-.254-.116-.376-.147-.58-.16-1.151-.337-1.732-.497-4.304-1.153-8.286-2.954-11.91-5.57-2.192-1.576-4.211-3.35-5.937-5.433a16.686 16.686 0 01-2.121-3.265c-.176-.35-.068-.518.312-.559 1.663-.165 3.325-.402 4.916-.97 1.822-.633 3.508-1.496 4.896-2.883 1.987-1.952 2.689-4.326 2.355-7.034-.179-1.445-.67-2.807-1.36-4.081-.887-1.592-1.959-3.041-3.293-4.303-.307-.292-.608-.557-.904-.867-.073-.07-.113-.19-.164-.295.126-.013.275-.06.396-.03.36.065.725.157 1.084.222 1.37.288 2.762.47 4.14.455.976-.014 1.962-.044 2.925-.185 4.6-.699 7.558-3.355 8.928-7.794.856-2.798.56-5.529-.516-8.216-.987-2.463-2.497-4.551-4.314-6.456-2.9-3.005-6.278-5.344-9.974-7.222-2.547-1.283-5.254-2.097-8.018-2.712-1.134-.254-2.299-.386-3.466-.258-.589.073-1.17.245-1.759.389-.176.053-.227.353-.077.45.234.15.456.316.722.416 1.547.639 3.094 1.277 4.645 1.871 4.416 1.677 8.508 3.93 12.246 6.808 2.172 1.682 4.12 3.6 5.672 5.881.63.927 1.167 1.89 1.577 2.938 1.386 3.455-.15 7.052-2.26 8.757-1.151.946-2.518 1.42-3.96 1.61-1.623.214-3.24.124-4.853-.153-2.57-.442-5.028-1.311-7.413-2.37-2.006-.84-3.834-1.92-5.636-3.079z" fill="#99D2ED"/><path d="M51.998 82.007c-.486-.051-.801-.112-1.121-.127-1.286-.091-2.599-.176-3.879-.24-.275-.01-.544.078-.803.15-.258.07-.312.558-.078.709.277.154.572.32.865.414 2.553.834 5.02 1.946 7.498 2.97a7.76 7.76 0 012.53 1.675 39.891 39.891 0 006.848 5.449c2.012 1.27 3.84 2.755 5.695 4.233a112.072 112.072 0 014.46 3.771c1.367 1.212 2.428 2.678 3.304 4.286.458.865.822 1.764.99 2.75.346 2.028-.294 3.683-1.892 4.958-.775.618-1.646 1.055-2.562 1.416-2.183.828-4.434 1.066-6.728 1.039-2.945-.041-5.839-.454-8.676-1.139-4.579-1.093-8.923-2.771-13.082-4.994-2.631-1.408-5.127-2.99-7.429-4.874-1.89-1.571-3.665-3.283-5.114-5.284-1.707-2.332-2.766-4.938-2.877-7.882-.136-3.674 1.05-6.876 3.685-9.504 1.567-1.557 3.5-2.474 5.611-2.97.945-.222 1.925-.352 2.9-.438 2.092-.174 4.183-.088 6.274.07.993.069 1.748.436 2.213 1.4.307.695.833 1.343 1.368 2.162zM34.263 125.125c-2.636-1.767-5.12-3.697-7.263-6.048-1.068-1.162-1.99-2.443-2.659-3.895-.846-1.874-.992-3.773-.18-5.697a7.797 7.797 0 012.33-3.108c1.402-1.117 3.002-1.845 4.755-2.261.56-.138.938.009 1.357.421 2.414 2.479 5.12 4.576 8.071 6.331 6.773 4.024 13.994 6.84 21.82 7.907.756.107 1.278.395 1.722.989 1.027 1.373 1.642 2.909 1.791 4.62.114 1.474-.36 2.76-1.288 3.873-.754.916-1.688 1.598-2.723 2.143-1.982 1.029-4.104 1.469-6.314 1.568-3.233.152-6.389-.405-9.466-1.34-2.8-.851-5.5-1.97-8.06-3.379-1.31-.676-2.605-1.414-3.893-2.124zM40.52 146.889c-4.514-2.879-7.725-5.99-10.3-9.759-.899-1.315-1.628-2.71-2.111-4.232-.351-1.104-.581-2.25-.52-3.445.045-.803.167-1.579.576-2.289.157-.28.34-.565.563-.802.478-.523.847-.547 1.443-.117 1.219.855 2.405 1.761 3.66 2.521 4.263 2.575 8.756 4.682 13.612 5.857 3.611.875 7.232 1.185 10.906.532.5-.082.904-.012 1.3.289 1.669 1.217 3.121 2.626 4.181 4.424a8.315 8.315 0 011.21 4.388c-.005 1.73-.675 3.175-1.922 4.344-1.056.983-2.3 1.56-3.674 1.936-2.998.849-6.042.815-9.076.217-3.776-.766-7.284-2.167-9.848-3.864z" fill="#99D2ED"/><path d="M116.505 36.01a28.933 28.933 0 00-9.639 6.079c-3.687 3.494-6.189 7.679-7.032 12.765-.2 1.154-.416 2.297-.616 3.451-.319 1.742-.638 3.484-1.244 5.16-.133.39-.216.812-.32 1.195.498.179.896-.111 1.268-.323.526-.303.99-.694 1.458-1.057.295-.238.534-.536.801-.768.07-.073.247-.054.341-.018 7.321-24.69 35.452-18.566 34.024-14.403.174-.125.343-.278.489-.468.807-1.144 1.276-2.386 1.058-3.808-.255-1.803-.937-3.382-2.201-4.717-1.04-1.096-2.28-1.917-3.633-2.527-4.814-2.194-9.741-2.489-14.754-.56zM90.533 89.552a7.374 7.374 0 00-.37-4.3c-.411-1.047-.948-2.01-1.578-2.937-1.568-2.291-3.517-4.21-5.672-5.881-3.738-2.879-7.83-5.131-12.246-6.808-1.552-.594-3.098-1.233-4.645-1.87-.255-.118-.488-.268-.722-.418-.15-.096-.175.053 0 0-9.546-4.002-7.538-8.957 5.717-2.545 18.697 9.057 23.346 5.35 28.88.741a6.896 6.896 0 01-3.238 1.48c-2.04.349-4.07.35-6.098-.052-1.642-.344-3.23-.843-4.804-1.404-3.451-1.27-6.726-2.924-10.037-4.485-2.097-.992-4.205-1.968-6.387-2.754-2.105-.76-4.257-1.337-6.492-1.492-1.915-.14-3.81.02-5.63.725-2.512.973-4.721 2.758-6.063 5.1-4.908 11.187 36.408 33.985 39.385 26.9z" fill="#fff"/><path d="M97.657 64.544c-.005.044-.026.078-.031.122a.949.949 0 00.414.053l-.383-.175z" fill="#fff"/></svg>
