<svg width="116" height="136" viewBox="0 0 116 136" fill="none" xmlns="http://www.w3.org/2000/svg"><path d="M98.041 17.549c2.367-2.035 4.781-1.405 6.858.533 1.787 1.599 3.525 3.391 4.733 5.426 1.593 2.616 1.062 4.215-1.256 6.395-.338.339-.869.532-1.063.63 1.787 4.36 3.526 8.235 4.975 12.207.821 2.277 1.255 4.7 1.593 7.122.387 2.955-.193 5.668-3.332 7.364.676 2.131 1.304 4.214 1.932 6.25 2.414 8.041 3.912 16.228 3.429 24.658-.725 12.402-5.554 22.672-16.42 29.309-6.761 4.118-13.812 7.848-20.718 11.724-2.463 1.356-4.974 2.664-7.437 3.972-6.085 3.246-12.411 3.682-18.98 1.551-6.712-2.132-12.507-5.862-17.771-10.416-11.832-10.174-20.042-22.915-26.223-37.06C3.773 76.651.875 65.606.15 54.076c-.628-9.932.531-19.524 6.713-27.856a28.314 28.314 0 013.574-4.021c7.34-6.686 15.405-12.354 23.953-17.295 5.747-3.343 11.88-5.62 18.641-4.7 3.38.485 6.761 1.454 9.948 2.617 2.608.92 5.313 2.131 7.534 3.778 3.429 2.568 6.761 3.15 10.528.97 2.173-1.212 4.298-.679 6.133.58 1.884 1.309 3.67 2.81 5.41 4.312 1.738 1.647 3.38 3.246 5.456 5.087zM77.227 91.525c-2.028 1.453-1.98 1.453-1.787 3.294.29 3.343.724 6.637.821 9.98.097 5.184-.386 10.27-2.608 15.066-2.994 6.492-8.113 9.593-15.164 8.527-3.187-.485-6.471-1.744-9.32-3.295-8.403-4.553-14.826-11.287-20.139-19.184-.53-.775-.82-1.695-1.255-2.567.241-.194.483-.34.676-.533 1.449 1.598 2.752 3.391 4.346 4.844 4.395 4.07 8.79 8.236 13.474 12.015a23.095 23.095 0 0012.267 5.086c6.23.679 10.72-2.761 11.928-8.817-23.422-15.938-35.254-38.514-39.021-66.321a67.986 67.986 0 00-17.386 12.45c-1.641 1.599-2.124 3.1-1.545 5.474 1.69 6.88 4.057 13.517 7.003 19.96.58 1.211 1.014 2.47 1.545 3.73-.966-.194-1.545-.63-1.883-1.162C10.824 75.635 6.188 60.228 7.637 43.37c.386-4.505 1.545-8.865 4.056-12.74 3.526-5.475 8.451-8.043 15.02-7.22 4.732.582 8.692 2.86 12.459 5.62 1.014.727 1.98 1.502 3.09 2.277.677-.726 1.16-1.26 2.029-2.18-2.801-1.986-5.264-4.02-7.968-5.62-2.657-1.55-5.602-2.567-8.452-3.826 7.486-.34 13.667 2.519 18.738 7.266 3.477-.339 1.787-3.342 3.042-5.038 2.801 1.405 4.83-.339 7.003-1.84 2.221-1.551 4.54-2.908 6.858-4.264 2.318-1.357 4.636-2.616 7.292-4.118-5.312-3.972-10.963-6.056-17-7.509-3.766-.92-7.34-.339-10.865 1.066-7.679 3.052-14.392 7.8-21.297 12.256.676.533 1.207.921 2.124 1.648-1.159.339-1.835.533-2.56.726-7.195 1.841-11.686 6.589-14.294 13.323-2.076 5.329-2.946 10.9-3.042 16.568-.194 12.983 3.09 25.143 8.306 36.915 5.795 13.08 13.619 24.707 24.436 34.203 5.264 4.602 11.06 8.235 17.917 10.125 5.844 1.598 11.397 1.453 16.661-1.696 8.693-5.183 17.386-10.367 25.982-15.648 1.642-.969 3.042-2.325 4.491-3.585 4.395-3.827 7.148-8.574 8.307-14.388 1.159-5.862 1.545-11.724.821-17.634-.435-3.633-.677-7.315-2.367-11.045-10.528 4.747-19.8 10.948-28.638 17.682 3.526 13.371 2.995 25.918-3.622 37.836 1.884-4.942 2.463-10.125 2.608-15.357.097-5.232-.145-10.465-1.545-15.648zm-4.202-15.987c12.46-7.751 24.533-15.309 36.8-22.963-.049-.436 0-1.114-.145-1.696-3.719-15.6-12.074-28.389-23.954-38.998-1.497-1.357-2.8-1.211-4.49-.388-12.509 6.443-24.727 13.42-36.028 21.898-.917.678-1.69 1.453-2.51 2.131C47.96 49.184 63.511 69.58 73.024 75.538zM35.84 54.948l-.58.291c.048.63.097 1.26.242 1.89 3.525 15.405 10.093 29.358 20.62 41.13 3.575 3.972 7.873 7.267 11.978 10.755.965.823 2.318 1.259 3.621 1.937 1.16-7.509-1.014-21.46-4.056-26.402-3.09 2.325-5.747.969-8.258-1.115-.58-.484-1.208-.92-1.787-1.453-8.017-6.927-14.778-14.872-19.993-24.126a94.313 94.313 0 01-1.787-2.906zM63.8 83.29c2.367-1.89 4.54-3.585 7.003-5.571-7.1-5.232-13.329-10.9-18.496-17.634-5.12-6.686-9.466-13.855-12.943-21.655-.435.29-.82.436-1.062.678-.725.727-1.304 1.55-2.029 2.277-1.014 1.066-1.11 2.083-.483 3.44 5.892 13.225 13.474 25.288 24.05 35.316 1.111 1.163 2.512 2.035 3.96 3.15zm35.4-63.754c1.448 1.841 2.559 3.246 3.863 4.845.869-.678 1.497-1.163 2.269-1.793-1.738-1.647-2.897-3.585-6.133-3.052z" fill="#131B43"/><path d="M77.227 91.525c1.352 5.183 1.593 10.415 1.497 15.648-.145 5.232-.725 10.415-2.608 15.357 6.616-11.918 7.195-24.417 3.622-37.836 8.837-6.782 18.158-12.983 28.638-17.683 1.69 3.73 1.931 7.413 2.366 11.046.724 5.91.386 11.772-.821 17.634-1.159 5.813-3.912 10.513-8.306 14.388-1.449 1.26-2.85 2.616-4.492 3.585-8.644 5.281-17.337 10.464-25.981 15.648-5.264 3.149-10.866 3.294-16.661 1.696-6.858-1.89-12.653-5.523-17.917-10.125-10.77-9.496-18.641-21.123-24.437-34.203-5.215-11.724-8.5-23.932-8.306-36.915.097-5.668.918-11.24 3.043-16.568 2.656-6.734 7.147-11.482 14.294-13.323.725-.194 1.4-.387 2.56-.726-.918-.727-1.449-1.115-2.125-1.648C28.547 12.995 35.26 8.296 42.89 5.244c3.526-1.405 7.1-1.987 10.866-1.066 5.989 1.453 11.687 3.488 17 7.509-2.657 1.502-5.023 2.761-7.293 4.118-2.318 1.356-4.636 2.713-6.858 4.263-2.173 1.502-4.201 3.246-7.002 1.84-1.256 1.696.483 4.7-3.043 5.04-5.119-4.748-11.3-7.607-18.737-7.268 2.8 1.26 5.747 2.326 8.451 3.828 2.753 1.55 5.216 3.633 7.968 5.62-.869.92-1.352 1.453-2.028 2.18-1.11-.824-2.076-1.551-3.09-2.278-3.768-2.761-7.728-5.038-12.46-5.62-6.52-.774-11.494 1.745-15.02 7.219-2.462 3.876-3.67 8.236-4.056 12.741-1.4 16.86 3.187 32.265 11.542 46.701.338.582.918 1.018 1.883 1.163-.483-1.26-.965-2.52-1.545-3.73-2.946-6.444-5.312-13.08-7.002-19.96-.58-2.325-.097-3.875 1.545-5.474 5.119-5.087 10.866-9.205 17.385-12.45 3.767 27.807 15.6 50.383 39.021 66.321-1.207 6.104-5.698 9.495-11.928 8.817a23.088 23.088 0 01-12.267-5.087c-4.684-3.778-9.03-7.945-13.473-12.014-1.594-1.453-2.898-3.197-4.347-4.845-.241.194-.483.34-.676.533.435.872.725 1.744 1.256 2.568 5.312 7.897 11.735 14.63 20.138 19.184 2.85 1.551 6.133 2.81 9.32 3.295 7.051 1.065 12.122-2.035 15.165-8.527 2.221-4.796 2.704-9.883 2.607-15.066-.048-3.343-.483-6.637-.82-9.98-.145-1.84-.145-1.84 1.835-3.294z" fill="#99D2ED"/><path d="M73.025 75.538c-9.513-5.958-25.015-26.354-30.28-40.015.773-.679 1.594-1.454 2.512-2.132 11.3-8.478 23.519-15.454 36.027-21.897 1.69-.872 2.994-.97 4.49.387 11.833 10.61 20.187 23.35 23.954 38.999.145.63.097 1.26.145 1.695a20153.152 20153.152 0 00-36.848 22.963zm9.08-60.072c-1.787.678-3.623 1.211-5.361 2.035-9.61 4.65-18.351 10.706-26.996 16.907-2.608 1.89-2.608 2.18-1.207 5.087 5.312 10.852 12.7 20.202 21.056 28.728 2.221 2.229 2.366 2.083 5.215.34 8.596-5.378 17.193-10.659 25.837-15.988.869-.533 1.739-1.066 2.656-1.55 1.787-.872 2.27-2.374 1.932-4.166-.193-1.114-.483-2.277-.918-3.343-3.718-9.156-8.982-17.295-15.985-24.271a24.7 24.7 0 00-3.284-2.665c-.772-.484-1.835-.678-2.945-1.114z" fill="#7FD3D3"/><path d="M63.801 83.29c-1.448-1.115-2.849-1.987-4.008-3.101-10.528-10.028-18.158-22.091-24.05-35.317-.628-1.405-.531-2.422.483-3.44.724-.726 1.352-1.55 2.029-2.276.24-.242.627-.388 1.062-.678 3.477 7.8 7.823 14.97 12.943 21.655 5.167 6.733 11.397 12.402 18.496 17.634-2.415 1.938-4.588 3.633-6.955 5.522z" fill="#7FD3D3"/><path d="M99.2 19.535c3.284-.533 4.395 1.405 6.085 3.052-.773.582-1.4 1.115-2.27 1.793-1.255-1.599-2.366-3.004-3.815-4.845z" fill="#FFF500"/><path d="M82.104 15.466c1.111.436 2.125.63 2.946 1.162 1.16.776 2.27 1.648 3.284 2.665 7.002 6.976 12.266 15.115 15.985 24.271.435 1.066.724 2.18.918 3.343.338 1.792-.145 3.294-1.932 4.166-.918.436-1.787 1.017-2.656 1.55-8.596 5.33-17.24 10.61-25.837 15.987-2.85 1.793-2.994 1.938-5.216-.339-8.403-8.575-15.792-17.876-21.056-28.728-1.4-2.907-1.4-3.197 1.208-5.087 8.644-6.2 17.385-12.256 26.996-16.907 1.738-.872 3.573-1.405 5.36-2.083zm-10.72 51.836c10.72-6.54 21.055-12.838 31.535-19.281-4.83-11.53-10.77-22.43-20.96-30.472-10.817 6.734-22.118 11.966-31.97 20.153 6.423 10.61 13.909 20.153 21.394 29.6z" fill="#131B43"/><path d="M71.384 67.302c-7.486-9.447-14.971-18.99-21.394-29.6 9.852-8.187 21.152-13.42 31.97-20.153 10.238 8.042 16.178 18.894 20.959 30.472-10.48 6.395-20.814 12.693-31.535 19.281z" fill="#fff"/><path d="M54.19 34.408l48.197 12.354c-3.332-7.848-7.292-15.357-12.797-21.8l-14.054-3.585c-7.243 4.166-14.584 8.09-21.345 13.031zM71.384 67.302c4.974-3.052 9.852-6.007 14.68-8.962l-26.85-6.88c3.96 5.426 8.065 10.658 12.17 15.842z" fill="#FFC229"/><path d="M31.493 49.571a67.99 67.99 0 00-17.385 12.45c-1.642 1.6-2.125 3.101-1.546 5.475 1.69 6.88 4.057 13.516 7.003 19.96.58 1.21 1.014 2.47 1.545 3.73 3.14 4.893 5.65 9.011 7.293 11.724l.048-.049c1.448 1.599 2.752 3.391 4.346 4.845 4.395 4.069 8.79 8.235 13.474 12.014a23.104 23.104 0 0012.266 5.087c6.23.678 10.721-2.762 11.929-8.817-23.374-15.987-35.206-38.563-38.973-66.419zM110.791 78.057c-.435-3.633-.677-7.315-2.367-11.045-10.528 4.747-19.8 10.948-28.638 17.682 3.188 12.063 3.043 23.399-1.835 34.203a19.708 19.708 0 01-1.835 3.633c-3.042 4.699-6.278 7.267-9.224 8.623 1.449-.436 2.85-1.066 4.25-1.889 8.693-5.184 17.385-10.367 25.982-15.648 1.642-.969 3.042-2.325 4.491-3.585 4.395-3.827 7.147-8.575 8.306-14.388 1.256-5.814 1.594-11.675.87-17.586z" fill="#5B93B2"/></svg>
