<svg width="180" height="175" viewBox="0 0 180 175" fill="none" xmlns="http://www.w3.org/2000/svg"><path d="M106.765 150.09c.221 3.113-1.725 4.675-4.519 5.185-2.35.48-4.825.806-7.178.561-3.05-.282-4.016-1.662-4.383-4.823-.07-.474.091-1.016.129-1.229-4.565-1.167-8.713-2.084-12.765-3.291-2.318-.7-4.52-1.796-6.666-2.97-2.602-1.453-4.434-3.537-3.922-7.068-2.114-.729-4.16-1.468-6.168-2.178-7.894-2.86-15.358-6.544-21.834-11.961-9.52-7.98-14.882-17.983-13.725-30.663.729-7.883 1.942-15.767 2.952-23.622.381-2.785.83-5.581 1.25-8.338 1.025-6.82 4.45-12.157 10.079-16.156 5.715-4.115 12.166-6.54 18.962-8.048 15.223-3.425 30.346-2.412 45.387 1.067 11.213 2.619 21.806 6.884 31.491 13.181 8.344 5.422 15.351 12.075 18.35 22.007.532 1.72.901 3.498 1.095 5.267.985 9.88.722 19.734-.412 29.542-.746 6.606-2.578 12.887-7.351 17.763-2.406 2.424-5.2 4.559-8.035 6.423-2.294 1.544-4.88 2.992-7.527 3.792-4.106 1.22-6.561 3.547-7.059 7.871-.324 2.466-2.02 3.853-4.126 4.575-2.173.731-4.444 1.269-6.687 1.768-2.359.412-4.622.776-7.338 1.345zM59.816 89.25c.044-2.495.015-2.457-1.577-3.4-2.856-1.762-5.759-3.378-8.499-5.295-4.218-3.015-8.012-6.438-10.535-11.082-3.423-6.276-2.857-12.234 2.205-17.257 2.29-2.268 5.26-4.152 8.204-5.514 8.668-4.027 17.905-5.164 27.411-4.715.939.036 1.85.352 2.81.524.011.31-.016.59.024.86-2.147.21-4.364.186-6.481.598-5.888 1.099-11.853 2.14-17.68 3.645a23.098 23.098 0 00-11.401 6.809c-4.261 4.595-4.18 10.251-.041 14.833 26.765-9.287 51.941-5.313 76.505 8.254a67.999 67.999 0 00.381-21.38c-.304-2.271-1.221-3.555-3.471-4.506-6.53-2.748-13.268-4.809-20.196-6.289-1.318-.257-2.588-.66-3.916-.985.732-.66 1.428-.865 2.057-.818 16.57 1.908 31.7 7.38 44.365 18.6 3.385 2.998 6.193 6.53 7.805 10.858 2.289 6.095 1.411 11.58-3.168 16.36-3.291 3.45-7.481 5.27-11.944 6.646-1.188.38-2.387.693-3.671 1.122.179.976.319 1.681.539 2.928 3.265-1.063 6.368-1.825 9.264-3.042 2.829-1.207 5.403-2.964 8.114-4.499-4.194 6.21-10.176 9.465-17.011 10.702-1.803 2.993 1.616 3.428 2.228 5.448-2.799 1.409-2.61 4.078-2.701 6.718-.081 2.707-.376 5.377-.67 8.046-.294 2.67-.667 5.282-1.046 8.309 6.357-1.893 11.4-5.184 16.168-9.162 2.986-2.473 4.652-5.688 5.628-9.356 2.132-7.983 2.327-16.202 2.87-24.404-.831.225-1.459.42-2.59.723.42-1.133.668-1.79.944-2.488 2.816-6.873 1.686-13.31-2.162-19.42-3.038-4.846-6.99-8.868-11.482-12.327-10.304-7.901-22.021-12.52-34.581-15.358-13.954-3.154-27.953-3.812-42.027-.796-6.834 1.479-13.207 3.962-18.815 8.338-4.77 3.735-7.966 8.279-8.58 14.382-1.026 10.069-2.053 20.138-2.944 30.187-.202 1.896.051 3.829.198 5.743.45 5.81 2.617 10.852 6.59 15.25 4.014 4.428 8.487 8.235 13.663 11.18 3.175 1.819 6.273 3.822 10.276 4.691 2.47-11.281 3.027-22.422 2.895-33.532-12.834-5.148-22.586-13.06-28.203-25.48 2.842 4.46 6.656 8.017 10.769 11.255 4.141 3.199 8.484 6.127 13.48 8.096zm15.337 6.166c-1.213 14.624-2.352 28.822-3.527 43.233.378.221.894.664 1.447.895 14.737 6.323 29.986 7.249 45.588 4.044 1.982-.392 2.643-1.525 2.991-3.373 2.292-13.882 3.983-27.849 3.921-41.976.003-1.141-.158-2.224-.212-3.287-14.104-3.927-39.75-3.616-50.208.464zm38.709-17.558l.113-.639c-.534-.337-1.069-.673-1.661-.933-14.466-6.362-29.582-9.416-45.31-7.99-5.32.497-10.529 1.981-15.777 3.194-1.237.284-2.394 1.11-3.716 1.751 5.335 5.41 17.828 11.99 23.609 12.497-.022-3.868 2.651-5.19 5.821-5.963.735-.175 1.46-.42 2.233-.566 10.342-2.3 20.752-2.986 31.289-1.651 1.153.074 2.276.187 3.399.3zm-39.426 5.531c.104 3.026.168 5.782.293 8.944 8.434-2.576 16.7-4.194 25.187-4.323 8.419-.12 16.766.67 25.1 2.533.026-.522.14-.919.09-1.257-.151-1.015-.466-1.971-.617-2.986-.25-1.45-1.009-2.135-2.472-2.44-14.129-3.162-28.334-4.275-42.691-1.77-1.596.197-3.132.801-4.89 1.299zm30.044 66.446a332.14 332.14 0 00-6.193.21c.025 1.102.04 1.895.084 2.891 2.359-.413 4.606-.187 6.109-3.101z" fill="#131B43"/><path d="M59.817 89.25c-4.967-2.008-9.31-4.936-13.451-8.135-4.113-3.238-7.927-6.796-10.769-11.255C41.214 82.28 50.9 90.202 63.8 95.34c.17 11.139-.414 22.319-2.895 33.533-4.002-.87-7.101-2.872-10.276-4.691-5.176-2.945-9.678-6.714-13.662-11.18-3.974-4.399-6.103-9.412-6.591-15.25-.147-1.915-.4-3.848-.198-5.744.92-10.088 1.946-20.157 2.944-30.187.614-6.103 3.84-10.685 8.58-14.382 5.608-4.376 11.981-6.86 18.815-8.338 14.045-2.977 28.073-2.358 42.027.796 12.521 2.809 24.277 7.457 34.581 15.358 4.492 3.46 8.473 7.442 11.482 12.327 3.819 6.15 4.949 12.586 2.162 19.42-.276.698-.524 1.356-.943 2.488 1.13-.303 1.758-.498 2.589-.722-.533 8.269-.767 16.459-2.87 24.404-.976 3.667-2.642 6.882-5.628 9.356-4.739 3.938-9.772 7.298-16.168 9.162.379-3.028.78-5.678 1.046-8.309.294-2.67.589-5.339.67-8.047.092-2.64-.098-5.308 2.701-6.718-.612-2.019-4.06-2.416-2.228-5.448 6.864-1.275 12.846-4.53 17.011-10.702-2.682 1.497-5.295 3.225-8.114 4.5-2.886 1.284-6.028 2.017-9.264 3.041-.22-1.247-.359-1.952-.539-2.928 1.323-.4 2.483-.742 3.671-1.122 4.463-1.375 8.653-3.195 11.944-6.646 4.511-4.77 5.458-10.265 3.168-16.36-1.641-4.289-4.42-7.86-7.805-10.857-12.694-11.183-27.795-16.692-44.365-18.6-.668-.076-1.364.129-2.057.817 1.3.364 2.598.728 3.916.985 6.928 1.48 13.666 3.541 20.196 6.29 2.212.921 3.168 2.234 3.471 4.505 1.028 7.143.904 14.212-.381 21.38-24.564-13.567-49.74-17.54-76.505-8.254-4.179-4.61-4.22-10.238.04-14.833a23.097 23.097 0 0111.401-6.809c5.828-1.505 11.764-2.507 17.681-3.645 2.117-.411 4.295-.417 6.481-.597-.011-.31.016-.59-.024-.86-.96-.172-1.832-.46-2.81-.525-9.507-.448-18.743.689-27.41 4.715-2.945 1.362-5.915 3.246-8.205 5.515-5.062 5.022-5.6 10.941-2.205 17.256 2.523 4.644 6.317 8.067 10.535 11.082 2.712 1.956 5.615 3.572 8.499 5.295 1.564.982 1.564.982 1.549 3.439z" fill="#99D2ED"/><path d="M75.153 95.416c10.458-4.08 36.075-4.352 50.179-.425.083 1.024.215 2.146.212 3.287.062 14.127-1.629 28.094-3.921 41.976-.309 1.877-1.009 2.981-2.991 3.373-15.573 3.166-30.783 2.269-45.588-4.044-.592-.26-1.069-.674-1.447-.896a20157.55 20157.55 0 003.556-43.271zm42.792 43.127c.522-1.839 1.189-3.629 1.565-5.516 2.002-10.487 2.357-21.115 2.538-31.752.04-3.22-.193-3.394-3.362-4.004-11.878-2.211-23.79-1.86-35.617-.242-3.114.453-3.084.656-3.384 3.983-.813 10.107-1.704 20.156-2.585 30.273-.091 1.015-.182 2.031-.34 3.056-.367 1.955.55 3.238 2.19 4.036 1.01.51 2.116.971 3.23 1.258 9.567 2.479 19.239 3.11 29.016 1.653a24.687 24.687 0 004.097-1.046c.85-.331 1.639-1.068 2.652-1.699z" fill="#7FD3D3"/><path d="M74.436 83.39c1.758-.499 3.294-1.102 4.88-1.368 14.328-2.466 28.562-1.392 42.691 1.77 1.502.335 2.26 1.02 2.472 2.44.151 1.015.437 2.01.617 2.987.05.338-.064.735-.09 1.257-8.334-1.863-16.681-2.653-25.1-2.534-8.487.13-16.753 1.748-25.187 4.323-.115-3.094-.179-5.85-.283-8.876z" fill="#7FD3D3"/><path d="M104.48 149.834c-1.532 2.954-3.75 2.689-6.08 3.063-.006-.967-.059-1.789-.085-2.891 2.033-.054 3.823-.107 6.165-.172z" fill="#FFF500"/><path d="M117.945 138.543c-1.012.631-1.773 1.33-2.69 1.67-1.314.468-2.676.839-4.098 1.046-9.776 1.458-19.448.826-29.015-1.652-1.115-.287-2.182-.72-3.23-1.258-1.64-.799-2.557-2.082-2.191-4.036.197-.997.25-2.041.34-3.057.853-10.078 1.772-20.166 2.586-30.273.261-3.356.231-3.559 3.384-3.983 11.894-1.627 23.768-2.008 35.617.242 3.168.61 3.401.784 3.362 4.004-.181 10.637-.537 21.265-2.538 31.752-.338 1.916-1.005 3.706-1.527 5.545zm-35.203-39.53c-1.148 12.505-2.26 24.556-3.341 36.811 12.134 3.003 24.426 4.739 36.959 1.36 1.05-12.699 3.593-24.89 2.901-37.68-12.347-1.176-24.472-.863-36.519-.492z" fill="#131B43"/><path d="M82.742 99.012c12.047-.37 24.172-.684 36.519.491.692 12.791-1.851 24.982-2.901 37.681-12.562 3.418-24.815 1.711-36.96-1.36 1.121-12.226 2.233-24.277 3.342-36.812z" fill="#fff"/><path d="M119.397 104.84l-38.669 31.308c8.287 2.008 16.675 3.311 25.131 2.737l11.261-9.14c.979-8.299 2.209-16.531 2.277-24.905zM82.742 99.012c-.519 5.813-1.057 11.491-1.567 17.129l21.541-17.444c-6.717-.059-13.365.114-19.974.315z" fill="#FFC229"/><path d="M120.771 77.578a67.999 67.999 0 00.381-21.38c-.304-2.272-1.221-3.556-3.471-4.507-6.53-2.748-13.268-4.809-20.196-6.289-1.318-.257-2.588-.66-3.916-.985-5.8-.4-10.602-.842-13.76-1.143l.011.068c-2.147.209-4.364.186-6.481.598-5.888 1.099-11.853 2.14-17.68 3.645a23.098 23.098 0 00-11.401 6.809c-4.262 4.595-4.18 10.251-.041 14.833 26.775-9.22 51.951-5.246 76.554 8.35zM50.6 124.22c3.175 1.819 6.273 3.822 10.276 4.691 2.47-11.281 3.026-22.422 2.895-33.532C52.19 90.74 43.178 83.86 37.418 73.5a19.703 19.703 0 01-1.82-3.64c-1.957-5.246-2.087-9.374-1.418-12.547-.514 1.422-.845 2.922-1.02 4.537-1.026 10.069-2.052 20.138-2.943 30.187-.202 1.896.05 3.829.197 5.743.45 5.81 2.617 10.852 6.591 15.251 3.917 4.476 8.42 8.244 13.594 11.189z" fill="#5B93B2"/></svg>
