<svg width="160" height="238" viewBox="0 0 160 238" xmlns="http://www.w3.org/2000/svg" xmlns:xlink="http://www.w3.org/1999/xlink"><defs><path id="a" d="M0 0h160v238H0z"/></defs><g fill="none" fill-rule="evenodd"><mask id="b" fill="#fff"><use xlink:href="#a"/></mask><g mask="url(#b)" fill-rule="nonzero"><path d="M86.146.043c.107 5.148.193 10.296.3 15.443.022 1.137.043 2.295.15 3.432.216 2.166.065 4.29-.687 6.327-.795 2.166-.795 4.332-.236 6.541.193.773.322 1.545.516 2.295.623 2.531.386 5.127.386 7.679.022 7.442-.043 14.863-.086 22.306v.429c.022 1.18.13 1.286 1.376 1.394.279.021.58.043.86.043 3.029-.086 5.994.386 8.938 1.008 3.438.707 6.876 1.35 10.292 2.145 2.45.557 4.792 1.458 7.091 2.466 6.124 2.703 10.658 7.142 13.881 12.933 2.815 5.062 4.469 10.51 5.135 16.236.129 1.116.151 2.295.022 3.411-.129 1.158-.065 2.252.343 3.367.559 1.544 1.053 3.11.924 4.804-.043.536.194 1.115.366 1.652 1.375 4.246 2.019 8.622 2.084 13.062.043 2.723-.022 5.426-.086 8.15-.022.922-.193 1.844-.301 2.767-1.461 14.863-5.737 28.976-11.968 42.509-2.837 6.199-6.317 12.033-10.293 17.566-1.525 2.145-3.438 3.818-5.801 4.976-1.225.601-2.471 1.116-3.717 1.673-.645.279-1.333.536-1.977.837-1.547.729-2.686 1.801-3.331 3.453-1.654 4.225-4.77 7.099-8.852 8.879a23.146 23.146 0 01-5.974 1.673c-4.362.601-8.702.365-12.914-1.222-4.426-1.673-8.724-3.625-12.677-6.263-1.16-.772-2.342-1.223-3.782-1.223-2.063.022-4.147-.214-6.167-.772-6.08-1.716-10.679-5.362-14.031-10.638-2.32-3.668-3.782-7.7-4.727-11.904-.602-2.702-.967-5.49-1.44-8.236-.064-.343-.086-.707-.129-1.072-.086-.536-.365-.922-.902-1.094l-1.612-.579c-.537-.193-1.074-.386-1.611-.601-.903-.386-1.483-1.029-1.848-1.951a34.033 34.033 0 01-1.977-7.657c-.881-6.413-.881-12.826-.172-19.239 1.59-14.306 5.307-28.054 11.28-41.18 2.472-5.427 5.588-10.467 9.692-14.842.343-.365.73-.686 1.053-1.073 1.01-1.18 2.32-1.63 3.824-1.565 1.29.043 2.6-.065 3.846.171 1.311.258 1.956-.278 2.622-1.244.88-1.308 1.912-2.488 2.815-3.796 1.59-2.295 3.717-3.968 6.124-5.276.859-.472 1.46-1.008 1.869-1.93.86-1.93 2.278-3.454 3.89-4.783 2.105-1.76 4.361-3.26 7.004-4.097.838-.257 1.139-.73 1.096-1.544-.043-1.073-.022-2.145-.065-3.217-.15-5.148-.386-10.295-.408-15.421-.021-2.853-.623-5.513-1.87-8.065-.322-.643-.601-1.308-.923-1.93-.752-1.394-.838-2.874-.408-4.376.709-2.402 1.418-4.783 2.191-7.163.301-.965.516-1.91.494-2.939-.128-6.22-.236-12.44-.322-18.66-.021-1.35.043-2.702.043-4.075h3.868c.043 5.513.064 11.003.107 16.515 0 1.437-.086 2.874.108 4.29.215 1.609-.108 3.11-.473 4.654-.107.494-.28.965-.408 1.437-.666 2.402-1.333 4.826-1.999 7.228-.408 1.459.301 2.617 1.075 3.754.021.021.279-.022.3-.086.172-.536.301-1.094.495-1.63.064-.15.344-.28.515-.28.172 0 .43.151.538.301.15.236.215.515.279.794.344 1.544.322 3.131.236 4.697-.107 1.844-.279 3.71-.279 5.555-.043 5.512-.021 11.003-.021 16.515 0 2.831-.086 2.466 2.664 2.23.064 0 .172 0 .215-.042.193-.194.473-.365.537-.601.086-.493.086-.987.064-1.501-.085-4.569-.15-9.137-.257-13.727-.108-4.075-.387-8.129.129-12.204.085-.708.043-1.416-.237-2.102-.537-1.415-.816-2.895-.945-4.397-.065-.815-.344-.472-.752-.214-.366.236-.73-.022-.71-.43.022-.492.044-1.007.151-1.479.365-1.737.73-3.496 1.461-5.148.494-1.136.645-2.316.645-3.538-.043-6.07-.043-12.14-.065-18.231 0-.794.043-1.566.065-2.36h3.48zM49.703 168.925h.086c.043-.644.065-1.287.108-1.93.172-3.003.322-5.984.515-8.987.022-.343.15-.686.28-.987.021-.086.236-.086.365-.107.043 0 .129.064.15.129.065.343.172.686.172 1.029-.129 4.783-.043 9.566.387 14.349.537 5.984 1.397 11.925 3.073 17.716 1.611 5.598 3.846 10.917 7.198 15.721 1.977 2.831 4.297 5.362 7.177 7.314 6.124 4.161 12.699 4.869 19.66 2.552a7.648 7.648 0 001.741-.836c4.34-2.745 7.864-6.199 9.347-11.303.129-.408.301-.794.494-1.18.022-.043.279-.021.301 0 .086.193.107.408.172.601.215.922.322.986 1.074.579a250.283 250.283 0 014.169-2.231c3.158-1.651 5.823-3.818 7.864-6.799 5.931-8.6 10.464-17.887 13.859-27.732 2.665-7.721 4.556-15.636 5.888-23.679.838-5.147 1.439-10.338 1.525-15.549.065-3.582-.343-7.121-1.095-10.639-.065-.321-.28-.879-.473-.879-1.075-.086-.795-.836-.752-1.416.043-.557.236-1.115.301-1.672.086-.773.129-1.566.15-2.338 0-.322-.15-.494-.537-.386-.301.085-.58-.043-.623-.386-.065-.494-.086-.987-.108-1.48-.236-3.411-.322-6.842-.838-10.252-1.31-8.408-5.286-15.357-11.775-20.784-5.2-4.353-11.259-5.726-17.92-4.504-3.631.665-6.983 2.102-10.12 4.011-4.728 2.896-8.853 6.542-12.57 10.638-4.577 5.084-8.295 10.746-11.625 16.687-3.76 6.67-6.683 13.748-9.369 20.912-.73 1.93-1.353 3.903-2.04 5.876-.044.129-.087.301-.173.386-.129.129-.322.193-.472.279-.043-.128-.15-.279-.13-.386.387-1.737.731-3.496 1.182-5.212 1.913-7.056 4.556-13.834 7.822-20.375 4.04-8.108 9.046-15.572 15.277-22.177 2.364-2.51 4.9-4.805 7.736-6.778 3.803-2.617 7.778-4.826 12.29-5.963.065-.021.15-.021.194-.064.129-.15.236-.3.365-.45-.129-.065-.236-.172-.365-.172-3.546-.493-7.091-.944-10.637-1.501-3.61-.558-7.133-.193-10.657.536-.838.172-1.655.45-2.428.794-2.17.965-4.147 2.252-5.952 3.774-.645.558-1.203 1.201-1.762 1.866-.15.193-.28.58-.194.751.43.772-.021 1.266-.494 1.694-.838.772-1.74 1.48-2.664 2.145-4.427 3.132-3.932 2.467-7.542 7.743-.237.343-.473.708-.71 1.072-7.82 12.333-13.622 25.588-17.726 39.593-3.653 12.483-5.802 25.18-6.232 38.178a94.556 94.556 0 000 4.933c.022 1.179.108 1.265 1.29 1.63 3.91 1.179 7.8 2.359 11.71 3.539.537.171 1.053.407 1.569.643.107.043.193.236.172.365-.022.107-.15.3-.258.3-.559.086-1.117.193-1.676.15-3.653-.3-7.22-1.072-10.722-2.123-.473-.15-.967-.3-1.44-.386-.107-.022-.344.236-.365.386-.086.815.086 1.115.752 1.308.752.215 1.525.386 2.278.622a102.967 102.967 0 0012.913 3.153c.344.064.71.172 1.053.129.215-.022.537-.322.537-.472 0-.858-.107-1.716-.15-2.552-.215-3.153-.408-6.285-.602-9.416zm.194 15.979c.215-.022.558-.022.902-.065.086-.021.215-.193.215-.279 0-.128-.086-.321-.172-.343-.773-.15-1.525-.3-2.299-.429-4.9-.707-9.712-1.737-14.332-3.539-.193-.085-.408-.128-.623-.193-.043 0-.15.086-.15.129 0 .129-.022.322.043.365.3.193.601.364.945.472 2.364.793 4.749 1.587 7.134 2.337 2.664.858 5.393 1.352 8.337 1.545z" fill="#131B43"/><path d="M82.708.043c-.021.794-.064 1.566-.064 2.36 0 6.069 0 12.139.064 18.23 0 1.244-.15 2.424-.644 3.539-.731 1.651-1.096 3.389-1.462 5.148-.107.493-.129.986-.15 1.48-.021.407.365.664.709.428.387-.257.666-.6.752.215.129 1.501.387 2.981.946 4.397a4.4 4.4 0 01.236 2.102c-.516 4.053-.236 8.128-.129 12.203.107 4.569.193 9.137.258 13.727 0 .493.021 1.008-.065 1.502-.043.214-.343.407-.537.6-.043.043-.129.043-.215.043-2.729.257-2.643.6-2.664-2.23a1411.74 1411.74 0 01.021-16.516c.022-1.844.172-3.71.28-5.555.086-1.565.107-3.153-.237-4.697-.064-.279-.129-.557-.279-.793-.107-.15-.344-.3-.537-.3-.172 0-.473.128-.516.278-.215.536-.322 1.094-.494 1.63-.022.065-.28.108-.3.086-.774-1.137-1.483-2.273-1.075-3.753.666-2.402 1.332-4.826 1.998-7.228.129-.472.28-.965.408-1.437.366-1.523.666-3.024.473-4.654-.193-1.416-.086-2.853-.107-4.29-.043-5.512-.065-11.003-.108-16.515h3.438z" fill="#FFF"/><path d="M49.704 168.924c.193 3.132.387 6.263.58 9.416.064.858.15 1.716.15 2.552 0 .172-.322.451-.537.472-.344.043-.709-.064-1.053-.128a102.227 102.227 0 01-12.913-3.153c-.753-.236-1.526-.386-2.278-.622-.666-.193-.838-.515-.752-1.309.021-.15.258-.407.365-.386.494.086.967.236 1.44.386 3.502 1.051 7.069 1.845 10.722 2.124.559.043 1.117-.065 1.676-.15.107-.022.236-.193.258-.301.021-.107-.086-.321-.172-.364-.516-.236-1.032-.472-1.569-.644-3.91-1.179-7.8-2.359-11.71-3.539-1.182-.364-1.268-.45-1.29-1.63a94.556 94.556 0 010-4.933c.43-12.997 2.579-25.694 6.232-38.177 4.104-14.006 9.905-27.239 17.727-39.593.236-.365.45-.73.709-1.072 3.61-5.277 3.115-4.633 7.542-7.743a28.414 28.414 0 002.664-2.145c.451-.407.924-.922.494-1.694-.085-.172.022-.58.194-.751.559-.644 1.117-1.308 1.762-1.866a24.315 24.315 0 015.952-3.775 12.363 12.363 0 012.428-.793c3.524-.708 7.048-1.094 10.657-.537 3.524.558 7.091.987 10.637 1.502.129.021.236.128.365.171a3.73 3.73 0 01-.365.45c-.043.044-.13.044-.194.065-4.512 1.115-8.509 3.346-12.29 5.963-2.837 1.951-5.372 4.268-7.736 6.777-6.21 6.606-11.238 14.07-15.277 22.177-3.266 6.542-5.91 13.32-7.822 20.376-.472 1.716-.795 3.475-1.181 5.212-.022.107.086.257.129.386.15-.086.343-.15.472-.279.086-.086.13-.257.172-.386.666-1.952 1.31-3.925 2.041-5.877 2.686-7.163 5.609-14.22 9.369-20.912 3.352-5.92 7.07-11.603 11.624-16.686 3.718-4.118 7.843-7.743 12.57-10.638 3.138-1.91 6.49-3.368 10.121-4.011 6.639-1.201 12.72.172 17.92 4.504 6.511 5.426 10.486 12.376 11.775 20.783.537 3.389.602 6.821.838 10.252.043.494.043 1.008.108 1.48.043.322.322.472.623.386.387-.107.537.065.537.386a28.217 28.217 0 01-.15 2.338c-.065.558-.258 1.115-.301 1.673-.043.579-.323 1.33.752 1.416.172.021.408.557.473.879.752 3.496 1.16 7.035 1.095 10.638-.086 5.233-.687 10.402-1.525 15.55-1.332 8.043-3.223 15.957-5.888 23.679-3.395 9.844-7.928 19.131-13.859 27.732-2.041 2.96-4.706 5.147-7.864 6.799-1.397.729-2.772 1.48-4.169 2.23-.752.408-.859.344-1.074-.579a2.764 2.764 0 00-.172-.6c-.022-.043-.279-.043-.301 0-.172.386-.365.772-.494 1.179-1.483 5.105-4.985 8.558-9.347 11.303a8.651 8.651 0 01-1.74.837c-6.962 2.316-13.559 1.587-19.661-2.552-2.88-1.952-5.179-4.483-7.177-7.314-3.352-4.804-5.587-10.124-7.198-15.721-1.676-5.791-2.536-11.711-3.073-17.717-.43-4.782-.516-9.565-.387-14.348 0-.343-.086-.687-.172-1.03 0-.043-.107-.128-.15-.128-.129.021-.344.042-.365.107-.13.322-.258.665-.28.986-.193 3.003-.343 5.984-.515 8.987-.043.644-.065 1.287-.108 1.93h-.064zm24.087 42.253c.516-.064.795-.129 1.053-.129 3.352-.107 6.489-.943 9.497-2.423a35.662 35.662 0 006.833-4.397c3.91-3.196 7.306-6.864 10.228-10.939 7.306-10.187 12.871-21.255 16.631-33.201a146.797 146.797 0 004.964-21.041c.73-4.589 1.267-9.201 1.396-13.855.151-4.997.194-9.995-.343-14.992-.602-5.555-1.655-11.003-3.546-16.28-.365-1.007-.709-1.994-1.074-3.002 1.16-.236 2.213.257 3.309.45.494.086.988.215 1.461.365.258.086.494.257.688.472.128.15.236.407.193.58-.022.106-.344.235-.516.214-.773-.043-1.547-.15-2.342-.215-.086 0-.236.15-.279.257-.022.108.021.3.107.365.151.129.366.215.559.279.816.257 1.633.536 2.471.686.752.15 1.117.58 1.354 1.223.73 2.08 1.568 4.16 1.848 6.37.322 2.681.58 5.383.881 8.086.021.279-.237.815.322.772.193-.022.408-.515.516-.837.451-1.587.558-3.238.515-4.89-.129-4.911-1.246-9.63-3.158-14.134-1.805-4.268-4.427-8-8.058-10.938-3.739-3.025-7.993-4.655-12.871-4.59-4.34.064-8.315 1.33-12.076 3.367-3.352 1.823-6.338 4.14-9.132 6.735-4.899 4.568-9.024 9.758-12.462 15.485-4.942 8.258-8.767 17.008-11.775 26.124-3.524 10.638-5.716 21.534-6.511 32.708-.451 6.349-.473 12.697.215 19.046.516 4.783 1.375 9.48 2.772 14.07 1.353 4.396 3.287 8.536 5.909 12.332 1.44 2.059 3.072 3.947 5.05 5.512 5.135 4.054 10.915 5.641 17.318 4.118 6.489-1.544 10.872-5.49 12.763-12.01.108-.387.086-.837.086-1.244 0-.043-.258-.172-.3-.151-.323.279-.688.537-.903.88-.623.943-1.182 1.952-1.805 2.917-2.471 3.732-5.737 6.348-10.185 7.292-2.557.536-5.114.665-7.67.107-1.312-.3-2.622-.622-3.933-1.544zm52.021-46.885c-.151-.086-.301-.258-.495-.279-.172-.022-.472.043-.558.193-.258.429-.473.879-.666 1.33-1.053 2.573-2.042 5.19-3.159 7.742-3.588 8.151-7.95 15.829-13.365 22.907-1.053 1.373-2.256 2.574-3.76 3.453-.709.429-1.612.686-1.956 1.566-.129.364.623.278 2.536-.365.752-.257 1.461-.558 2.191-.858 1.01-.429 1.87-1.051 2.514-1.93.71-.987 1.462-1.93 2.171-2.939 6.446-9.072 10.894-19.088 14.289-29.619.107-.343.15-.687.258-1.201zm7.434-35.282c-.172-4.247-.988-8.365-1.719-12.504-.15-.837-.494-1.63-.795-2.424-.043-.129-.344-.193-.537-.236-.065 0-.215.215-.215.322.022.708.043 1.415.15 2.123.387 2.831.71 5.662.731 8.515.043 6.563-.322 13.105-1.182 19.625a75.926 75.926 0 00-.408 3.818c0 .085.15.257.236.257.129 0 .301-.086.344-.193.172-.472.365-.922.473-1.416.752-3.774 1.568-7.528 2.235-11.324.343-2.145.472-4.376.687-6.563zm-80.32-19.947c.173-.064.474-.129.689-.279 1.847-1.329 3.674-2.724 5.2-4.418.236-.257.386-.579.537-.901.021-.064-.13-.3-.215-.3-.194 0-.43.043-.602.15-2.213 1.223-4.061 2.874-5.737 4.719-.129.15-.236.364-.28.557-.02.086.065.236.13.343 0 .065.107.065.279.129zm-1.654 38.778c0 .536-.021.901 0 1.244 0 .129.108.257.172.386.108-.064.258-.129.323-.214.107-.193.171-.386.214-.601.624-3.067 1.225-6.113 1.848-9.18.022-.128.043-.3-.021-.407-.043-.107-.172-.236-.28-.258-.107-.021-.3.043-.365.129-.193.3-.386.601-.472.944-.731 2.659-1.225 5.362-1.419 7.957zm4.964-38.199c-.043-.043-.107-.128-.15-.128-.13-.022-.301-.043-.387.021-2.643 1.802-5.093 3.861-7.413 6.07a.643.643 0 00-.215.364.518.518 0 00.086.365c.086.107.279.214.365.172.322-.129.666-.258.924-.472 2.213-1.995 4.405-4.011 6.618-6.027.086-.086.107-.236.172-.365zm5.157-10.788c-.172-.064-.408-.236-.537-.172-1.805.687-3.374 1.716-4.663 3.175-.064.085-.086.343-.043.386.15.107.408.236.537.171 1.676-.793 3.137-1.887 4.512-3.131.108-.086.13-.258.194-.43z" fill="#FFC229"/><path d="M49.897 184.903c-2.944-.193-5.673-.686-8.337-1.523-2.385-.751-4.749-1.544-7.134-2.338-.322-.107-.644-.3-.945-.472-.065-.043-.065-.236-.043-.364 0-.043.107-.15.15-.129.215.043.408.107.623.193 4.62 1.802 9.433 2.831 14.332 3.539.774.107 1.547.257 2.3.429.085.021.171.236.171.343 0 .107-.129.279-.215.279-.343.021-.687.021-.902.043z" fill="#FFC229"/><path d="M73.791 211.177c1.31.943 2.622 1.244 3.932 1.544 2.557.558 5.114.429 7.671-.107 4.47-.944 7.736-3.561 10.185-7.293.623-.943 1.182-1.973 1.805-2.916.236-.344.58-.601.903-.88.042-.021.3.086.3.15 0 .429.022.858-.086 1.244-1.89 6.499-6.274 10.467-12.763 12.011-6.403 1.523-12.183-.064-17.319-4.118-1.977-1.566-3.61-3.453-5.05-5.512-2.62-3.796-4.555-7.914-5.908-12.333-1.397-4.589-2.278-9.287-2.772-14.069-.688-6.349-.645-12.719-.215-19.046.774-11.153 2.987-22.07 6.51-32.708 3.009-9.116 6.834-17.888 11.776-26.124 3.438-5.727 7.563-10.938 12.462-15.486 2.794-2.595 5.78-4.911 9.132-6.734 3.76-2.038 7.736-3.303 12.076-3.367 4.878-.065 9.111 1.565 12.871 4.59 3.653 2.938 6.253 6.691 8.058 10.938 1.912 4.504 3.029 9.222 3.158 14.134.043 1.652-.064 3.282-.515 4.89-.086.322-.323.815-.516.837-.537.043-.279-.494-.322-.772-.301-2.703-.559-5.384-.881-8.086-.258-2.21-1.118-4.269-1.848-6.37-.237-.644-.602-1.073-1.354-1.223-.838-.15-1.654-.45-2.471-.686-.193-.065-.408-.15-.559-.28-.086-.063-.15-.257-.107-.364.021-.107.193-.257.279-.257.774.064 1.547.15 2.342.214.172 0 .473-.107.516-.214.043-.172-.064-.429-.193-.58-.194-.192-.43-.385-.688-.471a8.573 8.573 0 00-1.461-.365c-1.096-.214-2.149-.707-3.309-.45.365 1.008.709 1.995 1.074 3.003 1.891 5.276 2.965 10.724 3.546 16.279.537 4.997.494 9.994.343 14.992-.128 4.654-.666 9.265-1.396 13.855-1.139 7.142-2.772 14.156-4.964 21.041-3.76 11.925-9.325 22.992-16.631 33.18-2.922 4.075-6.317 7.742-10.228 10.938a35.665 35.665 0 01-6.833 4.397c-3.008 1.48-6.145 2.316-9.497 2.424-.258.021-.537.085-1.053.15zm47.379-91.626c-.236-3.56-.386-7.142-.709-10.681-.451-4.697-1.418-9.33-2.986-13.791-1.118-3.174-2.493-6.241-4.491-8.965-2.192-3.003-4.942-5.341-8.337-6.885-1.225-.558-2.407-.708-3.718-.258-1.976.687-3.889 1.459-5.694 2.467-4.813 2.702-8.745 6.413-12.333 10.552-.43.494-.409.944-.237 1.566.516 1.737.602 3.517.301 5.298a.515.515 0 01-.236.321c-.28.172-.387-.085-.451-.257-.387-1.223-.753-2.445-1.14-3.668-.042-.171-.236-.3-.386-.407-.022-.022-.236.15-.3.257-4.19 5.47-7.736 11.325-10.787 17.502-.301.622-.13 1.008.257 1.523.817 1.072 1.547 2.23 2.278 3.367.193.3.344.708-.043.944-.344.214-.666-.086-.902-.343a9.203 9.203 0 01-.86-.966c-.451-.557-.86-1.136-1.29-1.715-.257-.344-.58-.279-.794.128a.777.777 0 00-.086.193c-2.557 5.748-4.684 11.668-6.317 17.738-.15.536 0 .729.644.815 1.075.107 2.127.3 3.073.836.193.107.28.451.3.687 0 .107-.3.3-.472.321-1.074.15-2.127-.021-3.18-.343-.71-.214-.924-.086-1.117.579a54.76 54.76 0 00-.731 2.681 138.645 138.645 0 00-2.944 17.309c-.236 2.338-.344 4.697-.494 7.056-.021.279.022.558.065.837.021.085.236.193.3.171.516-.236 1.01-.557 1.526-.772.709-.3 1.461-.558 2.192-.815.086-.021.279.086.365.193.064.086.129.3.064.386-.193.3-.386.622-.644.837a93.429 93.429 0 01-3.266 2.445c-.452.321-.688.686-.666 1.244.021.493 0 1.008 0 1.501a89.615 89.615 0 001.396 15.142c.881 4.869 2.256 9.588 4.298 14.113 1.396 3.089 3.201 5.898 5.522 8.365.559.579 1.139 1.072 1.955 1.265 1.827.429 3.632.729 5.522.451 3.095-.451 5.952-1.502 8.638-3.067 2.794-1.652 5.308-3.625 7.607-5.899 6.704-6.606 11.818-14.305 15.771-22.82 4.921-10.617 8.617-21.62 10.894-33.095 1.59-8.085 2.514-16.171 2.643-24.343zm1.268-30.242c.193-.064.365-.15.559-.214-.108-.257-.215-.493-.323-.75-.021-.065-.107-.108-.171-.13-1.526-.343-3.052-.686-4.556-1.029-.086-.022-.279.107-.322.214-.043.108 0 .3.086.408.215.257.451.622.752.686 1.311.3 2.643.537 3.975.815zM125.811 164.291c-.107.515-.15.858-.258 1.201-3.395 10.531-7.842 20.548-14.289 29.62-.709.987-1.439 1.952-2.17 2.938-.644.901-1.525 1.502-2.514 1.931-.73.3-1.439.622-2.191.858-1.891.643-2.665.729-2.536.364.344-.9 1.225-1.158 1.955-1.565 1.505-.88 2.708-2.059 3.761-3.453 5.414-7.078 9.776-14.778 13.365-22.907 1.117-2.552 2.105-5.147 3.158-7.743.194-.45.387-.922.666-1.329.086-.129.366-.215.559-.193.193.021.365.193.494.278zM133.246 129.009c-.236 2.188-.344 4.419-.731 6.585-.644 3.796-1.461 7.55-2.234 11.325-.108.493-.28.943-.473 1.415-.043.107-.236.193-.344.193-.086 0-.236-.171-.236-.257.129-1.266.258-2.553.408-3.818.86-6.52 1.225-13.062 1.182-19.625-.022-2.852-.365-5.684-.731-8.515-.086-.708-.107-1.415-.15-2.123 0-.107.15-.322.215-.322.193.022.494.107.537.236.301.794.645 1.587.795 2.424.795 4.118 1.612 8.236 1.762 12.482zM52.927 109.063c-.172-.065-.258-.065-.301-.107-.064-.108-.15-.236-.129-.344.065-.193.15-.407.28-.557 1.675-1.845 3.523-3.518 5.737-4.719.171-.107.408-.15.601-.15.065 0 .237.236.215.3-.15.322-.3.644-.537.901-1.526 1.716-3.33 3.089-5.2 4.418-.215.151-.494.193-.666.258zM51.272 147.841c.172-2.574.688-5.298 1.44-7.979.086-.322.28-.643.473-.944.064-.085.258-.15.365-.128.107.021.236.15.28.257a.876.876 0 01.02.408c-.6 3.067-1.224 6.112-1.847 9.179a2.008 2.008 0 01-.215.601c-.064.107-.215.15-.322.214-.065-.128-.15-.257-.172-.386-.022-.321-.022-.686-.022-1.222zM56.236 109.642c-.065.129-.086.279-.193.364a581.15 581.15 0 01-6.619 6.027c-.257.236-.601.365-.923.472-.086.043-.28-.086-.366-.171-.086-.086-.107-.258-.086-.365a.642.642 0 01.215-.365c2.32-2.209 4.77-4.268 7.413-6.069.086-.065.258-.043.387-.022.086 0 .129.086.172.129zM61.393 98.854c-.086.171-.108.343-.193.429-1.376 1.222-2.837 2.338-4.513 3.131-.129.064-.387-.064-.537-.171-.043-.043-.043-.301.043-.387 1.29-1.437 2.858-2.487 4.663-3.174.15-.064.365.107.537.172z" fill="#131B43"/><path d="M121.17 119.551c-.129 8.193-1.053 16.258-2.643 24.279-2.256 11.475-5.973 22.499-10.894 33.094-3.932 8.494-9.067 16.194-15.771 22.821a39.637 39.637 0 01-7.607 5.898c-2.686 1.587-5.544 2.617-8.638 3.067-1.89.279-3.696 0-5.522-.45-.795-.193-1.397-.665-1.955-1.265-2.321-2.467-4.126-5.298-5.523-8.365-2.04-4.504-3.437-9.244-4.297-14.113a89.396 89.396 0 01-1.397-15.142v-1.502c-.021-.557.215-.922.666-1.244 1.118-.772 2.192-1.608 3.267-2.445.279-.214.472-.536.644-.836.043-.086 0-.279-.064-.386-.086-.107-.258-.215-.366-.193-.73.257-1.482.515-2.191.815-.516.214-1.01.536-1.526.772-.064.021-.28-.086-.3-.172a2.75 2.75 0 01-.065-.836c.15-2.359.258-4.719.494-7.057a131.18 131.18 0 012.944-17.308c.215-.901.472-1.802.73-2.681.194-.665.409-.794 1.118-.579 1.053.322 2.084.472 3.18.343.172-.021.473-.236.473-.322-.022-.236-.13-.6-.301-.686-.946-.536-1.999-.708-3.073-.836-.645-.065-.795-.279-.645-.816 1.633-6.091 3.782-11.989 6.318-17.737.021-.064.064-.129.086-.193.236-.408.537-.472.795-.129.43.558.86 1.137 1.289 1.716.258.343.559.644.86.965.236.258.558.558.902.343.387-.235.236-.643.043-.943-.73-1.137-1.461-2.295-2.278-3.368-.387-.514-.58-.9-.258-1.522 3.03-6.177 6.597-12.033 10.787-17.502.086-.107.28-.279.3-.257.151.107.323.257.387.407.387 1.223.753 2.445 1.14 3.668.064.171.171.429.45.257.108-.064.237-.193.237-.322.3-1.78.215-3.56-.301-5.297-.193-.6-.215-1.051.236-1.566 3.589-4.14 7.5-7.85 12.334-10.552 1.826-1.008 3.739-1.78 5.694-2.467 1.332-.45 2.493-.3 3.717.258 3.395 1.565 6.146 3.882 8.337 6.884 1.999 2.746 3.395 5.791 4.491 8.966 1.569 4.482 2.536 9.094 2.987 13.791.322 3.603.473 7.163.709 10.745zm-18.178 1.373c.086.128.215.493.473.665.107.085.494-.15.709-.301.279-.214.515-.493.752-.75 2.106-2.252 4.405-4.29 6.94-6.07.989-.686 2.041-1.33 3.03-2.038a6.947 6.947 0 001.117-.986c.279-.279.151-.794-.215-.858-.623-.129-1.267-.236-1.891-.258-3.266-.15-6.381-.75-9.239-2.423-.494-.279-.86-.065-.86.472v2.788c0 .643-.322 1.072-.966 1.244-.967.257-1.934.493-2.901.815-1.16.365-2.3.772-3.438 1.18-.473.171-.559.622-.215 1.051.408.493.88.943.924 1.651.021.343.129.815-.043 1.03-.365.428-.73-.108-1.096-.215-.473-.129-.924-.386-1.397-.558-.3-.128-.558 0-.73.258-.13.171-.194.386-.28.579-1.89 4.568-3.76 9.115-5.63 13.684-.236.6-.429 1.222-.58 1.844-.128.579.108.965.645 1.201.559.236.967.172 1.311-.321.365-.537.71-1.073 1.01-1.652 1.826-3.41 3.61-6.82 5.436-10.231.645-1.201 1.31-2.359 1.977-3.539 1.354-.471 2.686-.943 4.04-1.437.129-.042.279-.085.408-.107.58-.128.967.172.945.815-.021.708-.129 1.48-.236 2.467zm-2.793 23.442c.086 0 .171-.021.236-.021-.172-.601-.193-1.308-.516-1.802-.666-1.008-1.482-1.909-2.277-2.831-.108-.107-.366-.086-.56-.129-.042.258-.214.58-.106.773.45.815.945 1.587 1.482 2.359.451.622.688 1.244.387 1.995-.473 1.179-.15 2.252.408 3.281.28.493.58.987.881 1.48l1.741 2.702c-.344 1.009-.795 1.995-1.032 3.025-.172.75-.623 1.093-1.246 1.308-1.848.579-3.674 1.18-5.544 1.673-.924.257-1.654.686-2.385 1.33-1.29 1.136-2.686 2.123-4.06 3.153-.151.107-.43.128-.474-.172-.043-.279-.043-.558-.064-.858-.172-4.075-.3-8.129-.494-12.204a16.682 16.682 0 00-.344-2.531c-.065-.279-.408-.557-.688-.708-.279-.128-.73.322-.795.816-.107.772-.193 1.565-.193 2.337.043 4.075.129 8.129.172 12.204.021.987-.043 1.995-.065 2.982-.773.622-1.525 1.243-2.32 1.865-.387.301-.838.558-1.225.858-1.01.837-2.192 1.309-3.416 1.759a459.24 459.24 0 00-9.004 3.453c-.73.279-1.396.708-2.062 1.094-.086.064-.194.279-.15.365.085.15.279.364.407.364.838-.128 1.698-.236 2.493-.514 2.149-.794 4.254-1.673 6.382-2.531.45-.193.988-.536 1.396-.451 1.14.258 1.913-.321 2.75-.858 2.343-1.501 4.728-2.959 7.027-4.525 1.719-1.158 3.48-2.317 4.942-3.754 1.504-1.479 3.159-2.38 5.157-2.831.623-.15 1.246-.3 1.87-.514a27.49 27.49 0 002.17-.901c.558-.236.902-.665 1.052-1.266.086-.343.258-.686.301-1.029.237-1.544.946-2.788 2.127-3.839.559-.515.967-1.223 1.397-1.866.086-.129 0-.451-.107-.579-.086-.108-.409-.129-.537-.065a4.887 4.887 0 00-.86.622c-.451.451-.881.922-1.332 1.394-.795-.257-.838-1.093-1.289-1.63-.086-.107-.151-.257-.237-.364-.472-.622-1.139-1.201-1.353-1.909-.237-.751-.043-1.652-.043-2.51zm-15.02 38.564h.043v2.788l.064 6.22c0 .365-.214.472-.558.322-.86-.343-1.72-.708-2.579-.965-.172-.043-.494.193-.644.386-.086.107.021.429.129.579.687.729 1.44 1.394 2.084 2.145.945 1.093 1.461 2.445 1.998 3.774.237.601.473 1.18 1.032 1.588.322.235.773.128.86-.258.235-1.051.536-2.08.6-3.153.151-2.766 1.054-5.319 2.064-7.828.128-.322.279-.665.408-.987.086-.193.172-.407.193-.6 0-.193-.043-.515-.172-.558-.215-.107-.644-.15-.752-.043-.558.644-1.031 1.351-1.547 2.016-.064.086-.236.107-.365.172-.043-.129-.13-.236-.15-.365-.044-.364-.044-.708-.044-1.072-.128-4.633-.257-9.287-.408-13.92-.021-.579.28-1.265-.387-1.737-.43.343-.88.686-1.31 1.051-.666.536-.86 1.244-.838 2.102.107 2.766.193 5.555.279 8.343zm-6.94-73.159c-.258 0-.323-.022-.387 0-.13.043-.301.086-.365.171-.043.065.021.279.107.344.408.278.838.536 1.268.815.838.536 1.697 1.051 2.535 1.608.537.365.623.708.387 1.287a16.994 16.994 0 01-.73 1.544c-1.075 2.102-2.386 4.075-3.782 5.963-.43.579-.817 1.179-1.14 1.801-.321.644.022 1.287.731 1.502.409.129.839.171 1.268.257.344.065.71.086 1.053.15.451.086.602.344.365.751-1.01 1.887-2.062 3.753-3.05 5.662-.388.751-.688 1.566-.946 2.381-.194.622.086 1.223.601 1.458.495.236 1.14.108 1.526-.428.387-.515.73-1.073.988-1.652 1.053-2.338 2.085-4.697 3.116-7.056.172-.386.322-.794.43-1.201.193-.773-.172-1.437-.924-1.695a6.779 6.779 0 00-1.461-.279c-1.526-.171-1.526-.15-.688-1.544.86-1.394 1.74-2.788 2.557-4.225a28.91 28.91 0 001.59-3.282c.43-1.008.258-1.608-.601-2.252-1.376-.986-2.966-1.651-4.448-2.08zM97.06 165.9c-.171-.064-.343-.214-.494-.193-1.375.343-2.75.708-4.147 1.073-.129.042-.28-.022-.408-.043.043-.108.043-.258.129-.322.365-.343.752-.665 1.096-1.008.043-.043-.022-.236-.065-.365-.021-.043-.129-.064-.172-.043-.343.129-.687.215-.988.386-3.073 1.802-6.145 3.604-9.218 5.427-.365.214-.688.515-.988.793-.065.043-.022.236.021.344a.3.3 0 00.172.107c.344-.065.709-.065 1.031-.215a26.722 26.722 0 002.45-1.33c1.16-.729 2.406-1.179 3.739-1.522 1.934-.494 3.846-1.094 5.737-1.695.666-.214 1.267-.622 1.89-.965.087-.021.108-.214.215-.429zM83.59 141.836c.021.278.021.643.107.986.13.579.387 1.094.989 1.287.709.236 1.246-.107 1.719-.579.15-.15.28-.322.408-.493.86-1.18 1.182-2.574 1.44-3.968.043-.193 0-.429-.022-.644-.172-.965-1.139-1.608-2.084-1.265-.451.171-.881.472-1.182.836-.88 1.094-1.246 2.381-1.375 3.84zm12.699 48.193c-.28-1.33-.58-2.852-.924-4.354a3.051 3.051 0 00-.516-1.137c-.129-.193-.451-.278-.709-.3-.086 0-.28.322-.28.494-.128 2.316.452 4.482 1.376 6.563a.262.262 0 00.15.15c.13.043.258.128.387.107a.506.506 0 00.301-.257c.065-.344.108-.687.215-1.266zm4.92-104.194c.108.493.172.9.28 1.308.021.107.193.236.301.258.107.021.279-.086.343-.194 1.118-1.715 1.676-3.581 1.655-5.619 0-.128-.022-.3-.107-.407-.129-.15-.301-.365-.473-.386a.66.66 0 00-.537.236c-.215.278-.43.6-.516.922-.365 1.308-.645 2.616-.946 3.882zm-26.58 113.524c-.042-.214-.085-.407-.128-.622-.022-.064-.086-.172-.13-.172-.128 0-.3-.021-.407.043-.172.129-.323.279-.409.472-.73 1.63-1.332 3.303-1.611 5.062-.086.558-.065 1.137-.065 1.694 0 .108.15.258.258.279.108.022.28-.043.387-.129.108-.085.215-.193.28-.321.966-1.995 1.61-4.075 1.826-6.306zm-8.207-13.534c-.065-.15-.086-.343-.172-.386-.172-.064-.387-.107-.559-.064-.193.043-.387.193-.516.343-1.353 1.394-2.213 3.089-2.793 4.933-.043.15.065.451.194.558.107.086.45.043.537-.065 1.332-1.394 2.428-2.938 3.18-4.697.086-.236.107-.45.129-.622zm37.344-16.772c-.064.172-.236.365-.193.515.258 1.48.795 2.874 1.526 4.204.107.171.258.364.429.471.172.108.452.236.559.172.215-.129.516-.429.494-.622-.279-1.802-1.096-3.367-2.342-4.697-.086-.064-.279-.022-.473-.043zm13.43-65.91c-.172-.085-.494-.343-.58-.278-.58.386-1.182.772-1.655 1.265-.881.922-1.719 1.866-2.148 3.11-.022.086.043.279.128.343.086.064.301.107.366.064 1.504-1.072 2.836-2.337 3.782-3.946.085-.107.064-.257.107-.558zm-13.043 56.451c-.15-.064-.344-.214-.472-.193-1.719.494-3.417.966-5.114 1.523-.43.129-1.225.258-1.053.794.236.729.967.236 1.46.129a38.062 38.062 0 003.482-.987c.515-.172.988-.536 1.482-.837.086-.042.108-.214.215-.429zm10.013-29.684c.129 0 .28.043.409.022 1.461-.322 2.857-.794 4.168-1.523.236-.129.451-.322.645-.536.086-.086.129-.3.064-.365-.107-.15-.301-.343-.451-.343a1.85 1.85 0 00-.817.15 283.67 283.67 0 00-3.652 1.695 1.408 1.408 0 00-.473.407c-.065.086-.065.258-.065.386 0 .022.108.065.172.107zm-1.762 17.974c-.021.043-.021.107-.043.15-.365 0-.709-.043-1.074.021-.172.022-.322.193-.494.301.107.171.172.429.322.472 1.096.321 2.192.643 3.309.879.387.086.838-.064 1.246-.15.108-.022.258-.215.237-.322-.022-.193-.108-.493-.215-.515-1.075-.321-2.17-.557-3.288-.836z" fill="#FFF"/><path d="M122.438 89.31c-1.354-.28-2.686-.516-3.997-.837-.279-.065-.515-.43-.752-.686-.086-.086-.107-.28-.086-.408.043-.107.237-.236.323-.215 1.525.322 3.051.665 4.555 1.03a.332.332 0 01.172.129c.107.236.215.493.322.75-.15.086-.344.15-.537.236z" fill="#FFC229"/><path d="M102.992 120.924c.086-.987.193-1.759.236-2.531.022-.643-.343-.944-.945-.815-.151.021-.279.064-.408.107a308.2 308.2 0 00-4.04 1.437c-.666 1.18-1.332 2.36-1.977 3.539-1.826 3.41-3.61 6.821-5.436 10.231-.3.558-.645 1.115-1.01 1.651-.344.494-.752.579-1.31.322-.538-.236-.774-.622-.645-1.201.15-.622.322-1.244.58-1.844 1.87-4.569 3.76-9.116 5.63-13.684.086-.193.15-.408.279-.579.172-.258.43-.386.73-.258.473.193.903.429 1.397.558.365.107.73.643 1.096.214.172-.214.043-.686.043-1.029-.022-.708-.494-1.158-.924-1.652-.344-.407-.258-.858.215-1.051a64.363 64.363 0 013.438-1.179c.945-.301 1.934-.558 2.901-.815.644-.172.966-.579.966-1.244.022-.923 0-1.845 0-2.788 0-.537.366-.751.86-.472 2.858 1.673 5.995 2.295 9.239 2.423.645.022 1.268.129 1.891.258.366.085.495.579.215.858a9.933 9.933 0 01-1.117.986c-.989.687-2.041 1.33-3.03 2.038-2.535 1.758-4.813 3.817-6.94 6.07-.237.257-.473.536-.752.75-.215.15-.602.386-.709.3-.258-.107-.387-.471-.473-.6zM100.199 144.366c0 .837-.194 1.738.043 2.51.215.708.881 1.265 1.354 1.909.085.107.128.257.236.364.451.515.494 1.373 1.289 1.63.451-.472.881-.943 1.332-1.394.258-.236.537-.472.86-.622.15-.064.451-.043.537.065.107.128.193.45.107.579-.429.643-.816 1.351-1.396 1.866-1.182 1.051-1.891 2.295-2.127 3.839-.065.343-.215.686-.301 1.029-.151.601-.473 1.03-1.053 1.266-.731.3-1.44.622-2.17.901-.602.214-1.225.364-1.87.514-1.998.451-3.674 1.33-5.157 2.831-1.46 1.437-3.223 2.596-4.942 3.754-2.299 1.566-4.684 3.024-7.026 4.525-.838.537-1.612 1.116-2.75.858-.409-.085-.946.258-1.397.451-2.127.836-4.233 1.737-6.382 2.531-.795.3-1.654.386-2.492.514-.13.022-.323-.193-.409-.364-.043-.065.043-.301.15-.365.688-.386 1.355-.815 2.064-1.094 2.986-1.179 5.973-2.359 9.003-3.453 1.225-.45 2.385-.922 3.416-1.759.387-.321.838-.557 1.225-.858.774-.6 1.547-1.244 2.32-1.865.022-.987.065-1.995.065-2.982-.043-4.075-.129-8.129-.172-12.204 0-.772.086-1.565.194-2.337.064-.494.537-.966.795-.816.279.151.623.429.687.708.194.837.301 1.695.344 2.531.193 4.075.322 8.129.494 12.204.022.279.022.579.065.858.043.3.322.3.472.172 1.376-1.03 2.772-2.017 4.061-3.153.731-.644 1.44-1.094 2.386-1.33 1.869-.493 3.695-1.094 5.543-1.673.645-.193 1.075-.558 1.246-1.308.237-1.03.688-2.016 1.032-3.025l-1.741-2.702c-.3-.472-.601-.965-.88-1.48-.56-1.029-.882-2.102-.409-3.281.301-.751.065-1.373-.387-1.995a24.233 24.233 0 01-1.482-2.359c-.108-.172.064-.515.107-.773.194.043.473.001.559.129.795.922 1.611 1.823 2.278 2.831.322.494.365 1.201.515 1.802-.086.021-.172.021-.236.021zM85.179 182.93c-.086-2.789-.15-5.577-.28-8.344-.042-.836.173-1.544.839-2.101.43-.344.88-.708 1.31-1.051.667.45.366 1.158.387 1.737.15 4.633.28 9.287.409 13.92 0 .364.02.707.042 1.072.022.129.108.236.15.365.13-.065.28-.086.366-.172.516-.665.989-1.373 1.547-2.016.108-.129.537-.064.752.043.108.043.172.364.172.557 0 .215-.107.408-.193.601-.13.343-.28.665-.408.987-1.01 2.531-1.913 5.083-2.063 7.828-.065 1.051-.366 2.102-.602 3.153-.086.386-.559.472-.86.257-.558-.407-.794-.986-1.03-1.587-.516-1.33-1.054-2.681-2-3.775-.644-.75-1.396-1.415-2.083-2.144-.13-.129-.215-.472-.13-.58.151-.193.473-.428.645-.386.881.279 1.72.644 2.579.966.344.128.559.042.559-.322l-.065-6.22v-2.788h-.043z" fill="#131B43"/><path d="M78.239 109.771c1.504.408 3.072 1.072 4.448 2.123.859.644 1.01 1.244.601 2.252a32.84 32.84 0 01-1.59 3.282c-.795 1.437-1.697 2.81-2.557 4.225-.838 1.373-.86 1.373.688 1.544.494.065.988.129 1.46.279.753.258 1.118.923.925 1.695a8.012 8.012 0 01-.43 1.201 702.2 702.2 0 01-3.116 7.056 8.632 8.632 0 01-.988 1.652c-.387.536-1.031.665-1.526.429-.494-.236-.795-.815-.601-1.459.258-.815.558-1.63.945-2.381.989-1.908 2.042-3.774 3.051-5.662.215-.407.086-.686-.365-.751-.344-.064-.709-.085-1.053-.15-.43-.064-.86-.128-1.267-.257-.71-.215-1.053-.858-.731-1.501.322-.622.73-1.223 1.139-1.802 1.396-1.909 2.707-3.861 3.782-5.963.257-.514.515-1.029.73-1.544.236-.579.15-.922-.387-1.287-.816-.579-1.676-1.072-2.535-1.608-.43-.258-.86-.515-1.268-.815-.086-.065-.15-.279-.107-.344.064-.107.236-.128.365-.171.043-.064.129-.043.387-.043z" fill="#585E92"/><path d="M97.062 165.9c-.108.215-.13.386-.215.451-.623.343-1.225.75-1.891.965-1.891.622-3.803 1.222-5.737 1.694-1.332.343-2.579.794-3.739 1.523a27.23 27.23 0 01-2.45 1.33c-.3.15-.687.15-1.031.214-.043 0-.15-.043-.172-.107-.021-.107-.086-.3-.021-.343.322-.279.623-.579.988-.794 3.073-1.823 6.145-3.624 9.218-5.426.3-.172.666-.279.989-.386.042-.021.15.021.171.043.043.107.108.3.065.364-.344.344-.752.665-1.096 1.009-.064.064-.086.214-.129.321.129.022.28.086.408.043 1.376-.343 2.75-.729 4.147-1.072.15-.043.323.107.495.171zM83.59 141.835c.128-1.458.493-2.745 1.374-3.817.301-.365.752-.665 1.182-.837.946-.343 1.913.279 2.084 1.266.043.214.065.429.022.643-.258 1.394-.602 2.788-1.44 3.968-.129.171-.258.343-.408.493-.473.472-1.01.815-1.719.579-.602-.214-.86-.708-.988-1.287-.065-.364-.065-.729-.108-1.008zM96.288 190.029c-.107.558-.15.922-.258 1.244-.021.107-.172.215-.3.258-.108.021-.258-.043-.387-.108-.065-.021-.108-.085-.15-.15-.925-2.102-1.505-4.268-1.376-6.563 0-.171.215-.493.28-.493.257.021.58.128.708.3.237.343.43.751.516 1.137.387 1.523.688 3.045.967 4.375zM101.208 85.835c.301-1.265.602-2.574.946-3.882.086-.322.301-.644.516-.922a.66.66 0 01.537-.236c.172.021.344.214.472.386.086.107.108.257.108.407a9.525 9.525 0 01-1.655 5.62.472.472 0 01-.343.193c-.108-.022-.28-.15-.301-.258-.129-.407-.194-.815-.28-1.308zM74.629 199.359c-.215 2.231-.86 4.333-1.826 6.327a.803.803 0 01-.28.322c-.107.086-.258.15-.386.129-.108-.022-.258-.172-.258-.279 0-.558-.043-1.137.064-1.694.28-1.759.881-3.432 1.612-5.062.086-.193.236-.343.408-.472.086-.064.258-.064.408-.043.043 0 .108.107.13.172.064.193.085.386.128.6zM66.42 185.826c-.042.171-.042.386-.128.579-.774 1.758-1.87 3.324-3.18 4.697-.108.107-.43.15-.538.064-.128-.107-.236-.386-.193-.558.58-1.844 1.418-3.539 2.793-4.933.15-.15.323-.278.516-.343.172-.043.408 0 .559.065.086.064.107.257.172.429zM103.766 169.053c.193.021.387-.022.451.064 1.246 1.33 2.063 2.896 2.342 4.697.022.193-.279.472-.494.622-.108.065-.408-.064-.559-.171-.172-.108-.322-.301-.43-.472-.73-1.33-1.267-2.724-1.525-4.204-.022-.172.15-.365.215-.536zM117.195 103.144c-.043.278-.043.45-.107.557-.946 1.609-2.278 2.853-3.782 3.947-.086.064-.279 0-.365-.065-.086-.064-.172-.257-.129-.343.408-1.244 1.267-2.188 2.148-3.11.473-.493 1.075-.901 1.655-1.265.107-.065.408.193.58.279zM104.152 159.594c-.107.215-.129.386-.215.451-.472.3-.945.643-1.482.836a40.161 40.161 0 01-3.481.987c-.494.128-1.225.622-1.461-.129-.172-.536.623-.665 1.053-.794a200.352 200.352 0 015.114-1.522c.128-.043.322.107.472.171zM114.165 129.911c-.064-.043-.172-.086-.172-.129 0-.129 0-.3.065-.386.129-.15.279-.322.473-.408a112.922 112.922 0 013.652-1.694c.258-.107.538-.172.817-.15.172.021.344.193.451.343.043.064 0 .279-.064.365a3.924 3.924 0 01-.645.536 14.56 14.56 0 01-4.168 1.523c-.129.042-.28 0-.409 0zM112.403 147.884c1.096.279 2.214.536 3.288.836.129.043.193.343.215.515 0 .107-.129.3-.237.322-.408.086-.859.236-1.246.15-1.117-.236-2.213-.558-3.309-.879-.15-.043-.215-.322-.322-.472.172-.108.322-.279.494-.301.344-.043.709-.021 1.074-.021a.387.387 0 00.043-.15z" fill="#131B43"/><path d="M68.806 74.81c1.225-1.115 17.791-.772 20.24.644 3.224-2.059 6.619-3.753 10.38-4.676.064-.021.15-.021.193-.064.128-.15.236-.3.365-.45-.13-.065-.237-.172-.365-.172-3.546-.493-7.091-.944-10.637-1.501-3.61-.558-7.133-.193-10.657.536a11.91 11.91 0 00-2.428.794c-2.17.965-4.147 2.251-5.952 3.774-.43.322-.795.708-1.14 1.116z" fill="#FFF"/><path d="M79.485 20.826c.215 1.609-.107 3.11-.473 4.633-.107.493-.279.965-.408 1.437-.666 2.402-1.332 4.826-1.998 7.228-.408 1.458.3 2.616 1.074 3.753.022.022.28-.021.3-.086.173-.536.302-1.093.495-1.63.065-.15.344-.279.516-.279.172 0 .43.15.537.3.15.237.215.515.28.794.343 1.545.322 3.132.236 4.697-.108 1.845-.28 3.71-.28 5.555-.043 5.513-.021 11.003-.021 16.515 0 2.831-.086 2.467 2.664 2.231.065 0 .172 0 .215-.043.194-.193.473-.364.537-.6.086-.494.086-.987.065-1.502-.086-4.568-.15-9.137-.258-13.727-.107-4.075-.387-8.128.129-12.203.086-.708.043-1.416-.236-2.102-.538-1.416-.817-2.896-.946-4.397-.064-.815-.344-.472-.752-.215-.365.236-.73-.021-.71-.429.022-.493.044-1.008.151-1.48.366-1.737.73-3.495 1.462-5.147.494-1.137.644-2.316.644-3.539-.043-6.07-.043-12.14-.064-18.23 0-.794.043-1.566.064-2.36H79.27c.043 5.512.065 11.003.108 16.515.021 1.458-.086 2.917.107 4.311z" fill="#94A9BF"/><path d="M79.764 111.68c-.3-.193-.601-.365-.902-.558a15.85 15.85 0 01-1.268-.815c-.086-.064-.15-.279-.107-.343.064-.107.236-.129.365-.172.064-.021.15 0 .387 0 .752.215 1.504.472 2.256.815 11.238-16.086 24.947-26.466 38.032-12.16a60.628 60.628 0 00-1.053-3.368c-1.117-3.174-2.492-6.241-4.49-8.965-2.192-3.003-4.942-5.34-8.337-6.885-1.225-.558-2.407-.708-3.718-.257-1.977.686-3.889 1.458-5.694 2.466-4.813 2.703-8.745 6.413-12.333 10.552-.43.494-.409.944-.237 1.566.516 1.737.602 3.518.3 5.298a.514.514 0 01-.235.322c-.28.171-.387-.086-.452-.258-.386-1.222-.752-2.445-1.138-3.667-.043-.172-.237-.3-.387-.408-.022-.021-.237.15-.301.257-4.19 5.47-7.735 11.325-10.787 17.502-.3.622-.129 1.008.258 1.523.817 1.072 1.547 2.23 2.278 3.367.193.3.344.708-.043.944-.344.214-.666-.086-.903-.343a9.293 9.293 0 01-.86-.965c-.45-.558-.859-1.137-1.288-1.716-.258-.343-.58-.279-.795.128-.043.065-.065.129-.086.193-2.557 5.749-4.684 11.668-6.317 17.738-.151.536 0 .729.644.815 1.074.107 2.127.3 3.073.836.193.108.28.451.3.687 0 .107-.3.3-.472.321-1.074.151-2.127-.021-3.18-.343-.71-.214-.924-.085-1.118.579-.257.88-.515 1.781-.73 2.681a138.676 138.676 0 00-2.944 17.309c0 .064-.021.129-.021.193 3.33-8.751 11.646-29.234 22.303-44.869zm22.369-29.727c.085-.322.3-.644.515-.922a.663.663 0 01.537-.236c.172.021.344.214.473.386.086.107.108.257.108.407a9.524 9.524 0 01-1.655 5.62.472.472 0 01-.344.193c-.107-.022-.279-.15-.301-.258-.107-.407-.171-.815-.279-1.308.322-1.265.602-2.574.946-3.882z" fill="#E7F0FD"/></g></g></svg>
