<svg width="160" height="238" viewBox="0 0 160 238" xmlns="http://www.w3.org/2000/svg" xmlns:xlink="http://www.w3.org/1999/xlink"><defs><path id="a" d="M0 0h160v238H0z"/></defs><g fill="none" fill-rule="evenodd"><mask id="b" fill="#fff"><use xlink:href="#a"/></mask><g mask="url(#b)" fill-rule="nonzero"><path d="M86.805.064c-.022.58-.065 1.137-.043 1.716l.129 57.052c0 1.501-.043 3.002-.065 4.504 0 .88.129 1.03.967 1.03 1.29.02 2.579-.022 3.868.02 4.125.13 8.1.88 11.882 2.596 3.631 1.63 6.769 3.99 9.648 6.713 3.395 3.218 6.231 6.907 8.659 10.874 3.803 6.199 6.618 12.805 8.853 19.711 2.471 7.636 4.061 15.464 5.071 23.421.859 6.821 1.203 13.684.838 20.547-.494 9.137-1.44 18.231-3.782 27.132-1.697 6.52-3.846 12.869-6.876 18.896-2.707 5.405-6.016 10.402-10.421 14.584-2.987 2.832-6.274 5.212-10.099 6.778-3.008 1.223-6.145 1.887-9.411 1.93-2.579.022-5.157.236-7.736.216-2.858-.023-5.737-.13-8.573-.344-5.372-.429-10.615-1.437-15.836-2.789-5.114-1.308-9.283-3.989-12.764-7.871-2.6-2.896-4.705-6.134-6.424-9.609-1.118-2.23-2.106-4.547-3.03-6.863-.344-.858-.881-1.266-1.74-1.33-.796-.064-1.57-.086-2.364-.15-1.375-.086-2.407-.643-3.202-1.823a38.307 38.307 0 01-4.125-7.743c-2.428-6.07-3.975-12.375-4.9-18.831-1.203-8.386-1.546-16.794-1.203-25.244.301-7.357 1.032-14.692 2.944-21.834 1.075-4.011 2.536-7.872 4.49-11.561 1.032-1.93 2.45-3.088 4.556-3.496 1.204-.236 2.385-.472 3.589-.708.687-.128 1.095-.472 1.375-1.158 1.031-2.595 2.063-5.19 3.201-7.721 1.87-4.118 4.104-8.022 6.94-11.56 2.02-2.531 4.32-4.762 6.984-6.607 3.008-2.059 6.317-3.346 9.863-4.01 2.664-.515 5.372-.858 8.057-1.287.838-.129.967-.258.946-1.094-.065-2.788-.172-5.577-.236-8.365a4037.08 4037.08 0 01-.344-16.3c-.086-3.646-.194-7.293-.258-10.939-.086-4.44-.108-8.858-.193-13.298-.108-5.083-.237-10.144-.344-15.228h3.867c.108 2.639.258 5.277.301 7.915.172 12.568.323 25.137.43 37.705.064 5.641.043 11.282.021 16.923 0 2.38-.193 2.273 2.407 2.059.967-.086 1.096-.215 1.074-1.201-.064-1.93-.236-3.861-.236-5.77-.172-18.36-.3-36.719-.451-55.078 0-.858-.065-1.716-.086-2.574 1.203.064 2.492.064 3.782.064zm46.756 144.688c0-2.08.107-4.161-.022-6.22-.365-6.284-.859-12.547-1.977-18.745-1.482-8.258-3.674-16.301-7.004-24.022-2.493-5.726-5.501-11.153-9.476-16.021-3.331-4.076-7.113-7.636-11.926-9.974-7.67-3.71-15.084-3.26-22.26 1.287-3.223 2.038-5.974 4.654-8.38 7.614-5.179 6.435-8.81 13.684-11.453 21.47-3.417 10.08-5.2 20.482-6.102 31.035-.194 2.123-.301 4.268-.452 6.413-.021.257-.172.515-.279.772-.021.043-.129.043-.193.043-.043 0-.15-.043-.15-.065-.065-.407-.151-.836-.173-1.265-.193-6.863.065-13.705 1.182-20.504.881-5.298 1.934-10.531 3.567-15.657 2.127-6.713 4.835-13.148 8.66-19.089 3.566-5.534 7.928-10.295 13.708-13.662.13-.065.258-.15.344-.236.086-.086.129-.236.193-.343-.107-.043-.236-.15-.343-.15-1.01.042-1.999.064-3.009.192-4.19.472-8.358 1.137-12.527 1.888-1.44.257-2.772.708-4.04 1.394-1.59.858-3.008 1.93-4.318 3.153-1.999 1.866-3.696 3.99-5.2 6.241-3.352 5.04-5.78 10.51-7.607 16.258-4.125 12.954-6.274 26.252-6.833 39.807-.365 9.008-.064 17.995 1.14 26.96.837 6.242 2.019 12.397 3.674 18.489.15.557.322 1.093.515 1.63.13.364.387.579.795.579.215 0 .43.021.645.021 4.211.129 8.444.279 12.656.408.365.021.73.021 1.053.107.172.043.365.279.365.45 0 .172-.172.408-.322.494a5.823 5.823 0 01-1.225.364c-3.46.687-6.962.88-10.464.772a29.69 29.69 0 00-1.934 0c-.344.022-.494.236-.387.579.236.815.43.966 1.397.987 4.877.064 9.733.214 14.59-.257 2.75-.258 2.6-.129 1.654-2.488-2.621-6.542-4.19-13.341-5.415-20.247-.064-.408-.043-.837-.021-1.244 0-.086.215-.15.344-.215.043-.021.15.022.193.065.129.171.3.321.344.514.902 4.719 2.385 9.266 3.996 13.77 2.128 6.005 4.663 11.839 8.015 17.266 2.944 4.783 6.36 9.158 10.68 12.783 2.642 2.23 5.543 4.032 8.809 5.254 2.579.966 5.264 1.373 8.015 1.287 3.953-.107 7.585-1.351 10.958-3.389 3.223-1.951 5.931-4.482 8.337-7.356 3.331-3.968 6.017-8.343 8.251-13.019 4.749-9.909 7.199-20.461 8.617-31.271.644-4.912.902-9.909.795-14.907zm-77.16 47.207v-.107c2.341 0 4.705.022 7.047 0 .774 0 .902-.236.58-.901-.387-.772-.516-.858-1.31-.772-1.548.172-3.116.386-4.663.536-3.975.408-7.95.494-11.947-.064-.13-.021-.301-.043-.43.022-.086.042-.193.214-.172.3.022.128.108.3.215.343.193.086.408.086.623.107 3.374.172 6.704.343 10.056.536z" fill="#131B43"/><path d="M82.937.064c.021.858.086 1.716.086 2.574l.451 55.079c.022 1.93.193 3.86.236 5.77.022.986-.107 1.136-1.074 1.2-2.6.215-2.407.322-2.407-2.059 0-5.64.022-11.281-.021-16.922-.129-12.569-.28-25.137-.43-37.706-.043-2.638-.193-5.276-.3-7.914 1.16-.022 2.299-.022 3.459-.022z" fill="#FFF"/><path d="M133.561 144.753a99.734 99.734 0 01-.795 14.97c-1.418 10.831-3.868 21.362-8.617 31.271-2.234 4.655-4.92 9.051-8.251 13.019-2.406 2.874-5.114 5.405-8.337 7.357-3.373 2.038-7.005 3.282-10.958 3.389a21.367 21.367 0 01-8.015-1.287c-3.266-1.201-6.145-3.024-8.81-5.255-4.319-3.625-7.735-8.021-10.679-12.783-3.352-5.448-5.887-11.26-8.015-17.265-1.611-4.505-3.094-9.052-3.996-13.77-.043-.193-.215-.343-.344-.515-.043-.043-.129-.086-.193-.064-.13.043-.323.129-.344.214-.022.408-.043.837.021 1.244 1.247 6.907 2.815 13.706 5.415 20.247.946 2.359 1.096 2.231-1.654 2.488-4.857.472-9.734.322-14.59.258-.967-.022-1.16-.151-1.397-.987-.107-.343.043-.579.387-.579.644-.022 1.289 0 1.934 0 3.524.086 7.005-.107 10.464-.772.408-.086.838-.193 1.225-.365.15-.064.322-.322.322-.493 0-.15-.215-.408-.365-.451a4.43 4.43 0 00-1.053-.107c-4.212-.15-8.445-.279-12.656-.407-.215 0-.43-.022-.645-.022-.408 0-.666-.214-.795-.579a23.772 23.772 0 01-.515-1.63c-1.655-6.07-2.837-12.247-3.675-18.488-1.203-8.965-1.504-17.952-1.139-26.96.56-13.555 2.708-26.853 6.833-39.808 1.827-5.748 4.255-11.217 7.607-16.257 1.504-2.274 3.201-4.397 5.2-6.242 1.31-1.222 2.75-2.295 4.319-3.152a13.274 13.274 0 014.04-1.395c4.146-.75 8.315-1.415 12.526-1.887.989-.107 1.999-.129 3.009-.193.107 0 .236.107.343.15-.064.129-.107.257-.193.343-.086.108-.236.172-.344.236-5.758 3.346-10.142 8.129-13.709 13.662-3.824 5.92-6.532 12.376-8.66 19.089-1.61 5.126-2.685 10.36-3.566 15.657-1.117 6.799-1.375 13.641-1.182 20.505.022.428.108.836.172 1.265 0 .021.086.064.15.064.065 0 .194 0 .194-.043.107-.257.258-.514.28-.772.171-2.145.279-4.268.45-6.413.903-10.574 2.686-20.954 6.103-31.035 2.643-7.785 6.274-15.035 11.453-21.47 2.385-2.98 5.135-5.576 8.38-7.613 7.176-4.526 14.59-4.998 22.26-1.287 4.814 2.338 8.595 5.898 11.926 9.973 3.953 4.847 6.983 10.274 9.476 16.022 3.352 7.721 5.543 15.743 7.004 24.021 1.118 6.199 1.591 12.462 1.977 18.746.108 1.995.022 4.075.022 6.156zm-3.223-14.413c-.215-6.671-1.032-13.234-2.708-19.711-1.955-7.507-4.576-14.735-8.294-21.555-2.643-4.87-5.952-9.266-10.185-12.89-3.094-2.639-6.51-4.655-10.528-5.556-2.02-.45-4.061-.729-6.167-.472-4.556.515-8.53 2.338-12.098 5.105-2.492 1.952-4.62 4.268-6.532 6.778-4.985 6.584-8.38 13.962-10.679 21.834-2.9 9.93-4.362 20.096-4.77 30.413-.451 11.196.3 22.284 2.621 33.244 1.483 7.078 3.46 14.006 6.447 20.612 2.47 5.491 5.414 10.724 9.476 15.228 2.9 3.217 6.102 6.027 10.077 7.85 5.178 2.381 10.464 2.745 15.858.708 3.18-1.201 5.973-3.067 8.466-5.362 2.32-2.145 4.318-4.569 6.102-7.185 3.266-4.762 5.651-9.931 7.585-15.336 2.32-6.413 3.803-13.019 4.706-19.775.494-3.753.966-7.507.988-11.303 0-.515.258-1.18-.451-1.48-.43-.171-.752.365-.881 1.437-.28 2.402-.559 4.826-.881 7.228a110.567 110.567 0 01-6.468 25.266c-1.869 4.804-4.233 9.373-7.263 13.577-2.191 3.045-4.705 5.769-7.756 7.957-4.169 3.002-8.789 4.418-13.967 3.603-.107-.021-.28-.15-.28-.193a.487.487 0 01.215-.322c.108-.086.258-.107.409-.15 3.201-.772 5.93-2.424 8.444-4.525 2.364-1.995 4.384-4.311 6.146-6.842a57.908 57.908 0 006.596-12.483c4.255-11.239 6.812-22.864 7.435-34.853.408-8.064.236-16.129-.709-24.193-.903-7.829-2.471-15.507-4.9-23.014-2.428-7.528-5.672-14.649-10.593-20.933a3.182 3.182 0 01-.236-.343c-.193-.3-.086-.601.236-.622 1.504-.043 3.008-.108 4.513-.108.322 0 .644.236.945.408.107.064.172.236.172.364 0 .108-.129.28-.236.3-.709.108-1.419.15-2.128.301-.236.043-.558.279-.601.472-.108.407.322.386.558.386.924.043 1.87.064 2.794.043.73-.022 1.224.257 1.611.858.28.429.58.815.86 1.222a68.908 68.908 0 018.466 17.03c3.094 9.244 5.135 18.724 6.532 28.354.172 1.137.322 2.252.516 3.389.021.107.15.214.236.322.15-.129.365-.236.408-.386.086-.258.086-.558.065-.858a78.095 78.095 0 00-.172-3.839zm-74.97 25.265c-.128-2.509-.236-4.633-.364-6.756-.065-.922-.215-1.823-.344-2.745a.61.61 0 00-.194-.365c-.064-.064-.3-.043-.322 0-.15.386-.365.772-.387 1.158-.107 3.067.323 6.092.881 9.094.022.129.13.258.194.365.043.043.129.107.172.086.107-.043.279-.108.279-.172.064-.343.086-.686.086-.665z" fill="#FFC229"/><path d="M56.4 191.959c-3.352-.171-6.682-.364-10.034-.536-.215-.021-.43-.021-.623-.107-.108-.043-.194-.215-.215-.343-.022-.108.086-.258.172-.301.107-.042.279-.042.43-.021 3.975.558 7.95.45 11.946.064 1.547-.15 3.116-.343 4.663-.536.795-.086.924 0 1.31.772.323.644.194.88-.58.901-2.341.022-4.705 0-7.047 0-.022.022-.022.064-.022.107z" fill="#FFC229"/><path d="M130.338 130.339c.086 1.287.15 2.574.214 3.839.022.279.022.579-.064.858-.043.15-.279.258-.408.386-.086-.107-.215-.193-.237-.321l-.515-3.389c-1.397-9.63-3.438-19.11-6.532-28.354a68.966 68.966 0 00-8.466-17.03c-.28-.408-.581-.815-.86-1.223-.387-.6-.881-.879-1.611-.858-.924.043-1.87 0-2.794-.042-.236 0-.666.021-.558-.386.043-.215.365-.43.601-.472.688-.15 1.418-.193 2.127-.3.086-.022.215-.194.237-.3 0-.13-.065-.301-.172-.365-.301-.172-.623-.408-.946-.408-1.504 0-3.008.064-4.512.107-.322.022-.43.322-.236.622.086.129.15.236.236.343 4.899 6.285 8.165 13.405 10.593 20.934 2.407 7.506 3.997 15.185 4.899 23.013.924 8.043 1.118 16.108.71 24.194-.602 12.011-3.181 23.614-7.435 34.853a57.353 57.353 0 01-6.597 12.482c-1.762 2.531-3.781 4.848-6.145 6.842-2.492 2.102-5.243 3.732-8.444 4.526-.13.043-.28.064-.409.15a.538.538 0 00-.215.322c0 .043.172.171.28.193 5.178.815 9.776-.601 13.966-3.604 3.052-2.187 5.566-4.911 7.757-7.957 3.009-4.204 5.394-8.772 7.263-13.576 3.18-8.151 5.307-16.601 6.468-25.266.322-2.402.58-4.826.881-7.228.129-1.051.451-1.609.881-1.437.709.3.451.965.451 1.48-.022 3.796-.473 7.55-.989 11.303-.902 6.735-2.385 13.362-4.705 19.775-1.956 5.405-4.341 10.574-7.585 15.335-1.784 2.617-3.782 5.019-6.103 7.185-2.492 2.295-5.285 4.161-8.466 5.362-5.371 2.038-10.679 1.673-15.857-.707-3.975-1.824-7.198-4.655-10.078-7.85-4.082-4.505-7.004-9.738-9.475-15.228-2.987-6.606-4.964-13.534-6.447-20.612-2.299-10.96-3.05-22.07-2.621-33.244.408-10.317 1.89-20.483 4.77-30.414 2.3-7.892 5.716-15.25 10.68-21.834 1.912-2.53 4.017-4.825 6.531-6.777 3.567-2.788 7.542-4.59 12.098-5.105 2.105-.236 4.147.022 6.166.472 3.997.9 7.435 2.917 10.529 5.555 4.233 3.625 7.542 8.022 10.185 12.89 3.717 6.82 6.339 14.049 8.294 21.556 1.633 6.477 2.45 13.061 2.665 19.71zm-11.689 11.389c-.043-1.415 0-4.204-.194-6.992a142.726 142.726 0 00-1.568-13.834c-1.053-6.499-2.6-12.89-4.835-19.089-1.977-5.469-4.405-10.702-7.757-15.485-1.611-2.295-3.395-4.418-5.5-6.284-3.073-2.703-6.619-4.462-10.68-5.17-1.267-.214-2.428-.128-3.46.666-1.525 1.18-3.158 2.23-4.576 3.538-4.233 3.883-7.177 8.687-9.626 13.813-.237.515-.215.9.107 1.373.989 1.458 1.44 3.11 1.676 4.804.022.236-.129.493-.215.73-.172-.108-.408-.172-.515-.344-.645-1.03-1.268-2.08-1.891-3.11-.065-.128-.172-.214-.258-.322-.15.13-.387.236-.451.408-.817 2.21-1.655 4.418-2.428 6.649-1.462 4.268-2.579 8.622-3.417 13.04-.129.687.043 1.008.58 1.416 1.032.75 1.999 1.63 2.944 2.466.215.172.344.451.473.708.043.107.043.343-.043.386-.15.107-.387.236-.537.172a4.866 4.866 0 01-.924-.515c-.752-.536-1.483-1.115-2.235-1.652-.451-.321-.774-.171-.881.387a6.546 6.546 0 00-.086.643c-.387 3.475-.86 6.949-1.139 10.445-.193 2.424-.172 4.847-.215 7.292-.021 1.051.108 1.116 1.075 1.094.795-.021 1.568-.064 2.363-.064.28 0 .559.086.838.172.108.042.28.193.28.278 0 .193-.065.451-.194.558-.945.643-2.041.515-3.115.558-1.14.043-1.204.128-1.225 1.244-.022.429 0 .858 0 1.286.021 6.8.795 13.556 1.912 20.247.323 1.974.795 3.925 1.225 5.877.064.3.43.408.666.193.43-.386.817-.793 1.268-1.158.494-.408 1.01-.772 1.568-1.115.13-.086.452-.022.559.107.108.129.15.386.086.579a2.095 2.095 0 01-.387.751c-.73.965-1.44 1.973-2.256 2.852-.623.665-.688 1.266-.451 2.124 1.246 4.246 2.643 8.45 4.383 12.525 2.342 5.491 5.265 10.638 9.068 15.25 2.149 2.616 4.641 4.847 7.52 6.649.752.472 1.526.686 2.428.686 2.579 0 4.943-.729 7.156-1.973 2.578-1.437 4.834-3.303 6.768-5.555 3.567-4.075 6.188-8.73 8.316-13.684 3.029-7.056 5.028-14.413 6.124-22.027 1.031-7.378 1.697-14.778 1.676-23.593zm-13.323-62.757v.108h-2.342c-.107 0-.279.107-.3.193-.022.128.043.321.128.386.323.236.688.622 1.053.622 1.483-.022 2.966-.15 4.448-.258.086 0 .215-.171.237-.3.021-.107-.065-.3-.151-.343-.301-.172-.623-.365-.945-.386-.709-.043-1.418-.022-2.128-.022zM55.369 155.605c0-.022-.021.322-.064.665-.022.064-.172.128-.28.171-.043.022-.129-.043-.172-.085-.086-.108-.172-.236-.193-.365-.559-3.003-.989-6.027-.881-9.094.021-.386.236-.772.387-1.158.021-.043.258-.064.322 0a.61.61 0 01.193.364c.13.923.28 1.824.344 2.746.108 2.123.215 4.247.344 6.756z" fill="#131B43"/><path d="M118.65 141.728c.02 8.816-.646 16.215-1.699 23.593-1.096 7.614-3.072 14.949-6.124 22.027-2.127 4.955-4.748 9.609-8.315 13.684-1.956 2.231-4.19 4.097-6.769 5.555-2.213 1.244-4.576 1.973-7.155 1.973-.902 0-1.676-.214-2.428-.686-2.88-1.802-5.372-4.032-7.52-6.649-3.804-4.633-6.726-9.759-9.068-15.249-1.74-4.075-3.137-8.279-4.383-12.526-.258-.858-.172-1.458.45-2.123.839-.88 1.526-1.888 2.257-2.853.172-.214.322-.493.387-.751.043-.171.021-.45-.086-.579-.108-.107-.43-.171-.559-.107-.537.343-1.074.708-1.568 1.115-.452.365-.838.794-1.268 1.159-.237.214-.602.107-.666-.193-.43-1.952-.903-3.904-1.225-5.877-1.117-6.692-1.912-13.448-1.912-20.247 0-.429-.022-.858 0-1.287.021-1.115.107-1.201 1.224-1.244 1.075-.043 2.17.064 3.116-.558.129-.085.193-.364.193-.557 0-.086-.172-.236-.279-.279-.28-.086-.559-.172-.838-.172-.795 0-1.569.043-2.364.065-.967.043-1.095-.043-1.074-1.094.043-2.424.022-4.869.215-7.293.3-3.496.752-6.949 1.139-10.445.021-.214.043-.429.086-.643.107-.579.43-.729.88-.386.753.557 1.483 1.115 2.235 1.651.28.215.602.408.924.515.15.043.387-.064.537-.172.065-.042.086-.278.043-.386-.128-.257-.257-.514-.472-.707-.967-.837-1.913-1.716-2.944-2.467-.537-.386-.71-.729-.58-1.415.86-4.419 1.955-8.794 3.416-13.041.774-2.23 1.612-4.44 2.428-6.649.065-.171.301-.279.452-.407.086.107.193.214.257.322.624 1.029 1.247 2.08 1.891 3.11.108.15.344.235.516.343.086-.236.258-.494.215-.73-.236-1.715-.688-3.367-1.676-4.804-.322-.472-.344-.88-.108-1.373 2.45-5.126 5.394-9.93 9.627-13.812 1.418-1.308 3.03-2.38 4.576-3.539 1.032-.794 2.192-.9 3.46-.665 4.061.708 7.606 2.467 10.679 5.169 2.106 1.845 3.889 3.99 5.501 6.284 3.352 4.783 5.78 10.016 7.757 15.486 2.234 6.198 3.781 12.568 4.834 19.088.752 4.59 1.268 9.202 1.569 13.834.193 2.789.172 5.577.215 6.992zm-29.675-35.11c-.065.536-.108.879-.15 1.244-.258 1.63-.538 3.239-.753 4.869-.537 3.817-1.052 7.635-1.547 11.453-.3 2.273-.537 4.525-.773 6.799-.043.407-.022.858.064 1.265.086.451.43.73.903.773.472.042.86-.129 1.053-.558.193-.451.343-.944.472-1.416 1.118-4.868 2.256-9.716 3.352-14.584.495-2.167.903-4.333 1.354-6.499.129-.643.494-.772 1.096-.429.365.214.709.472 1.074.708.473.3.946.622 1.44.901.215.128.623-.151.602-.386-.022-.344-.043-.708-.15-1.051-1.183-3.84-1.978-7.722-2.085-11.754-.022-.858-.194-1.694-.344-2.552-.043-.236-.258-.558-.451-.644-.194-.064-.516.108-.71.28-.214.17-.365.428-.515.685-1.89 3.068-4.147 5.813-7.392 7.572-.279.15-.257.514.022.686.193.107.365.214.559.322.795.472 1.611.922 2.363 1.458.258.15.387.622.516.858zm13.773 76.269c0 .064-.021-.3-.064-.643-.043-.258-.495-.386-.709-.193-.194.193-.452.386-.538.622-.236.6-.386 1.222-.58 1.844-.043.107-.172.236-.279.258-.107.021-.279-.108-.301-.193a26.305 26.305 0 01-.58-1.845 8882.855 8882.855 0 00-7.692-25.652 415.373 415.373 0 00-3.18-10.016c-.237-.751-.58-1.458-.946-2.145-.107-.193-.473-.343-.71-.322a.691.691 0 00-.644.73c.108.836.258 1.694.473 2.509.881 3.239 1.74 6.477 2.686 9.716 2.9 10.016 5.823 20.032 8.745 30.049.13.407.258.815.344 1.244.086.321-.15.557-.473.472-.558-.108-1.117-.279-1.676-.365a4.99 4.99 0 00-1.267.043c-.172.021-.366.279-.409.45-.043.172.065.472.215.558.666.407 1.397.729 2.063 1.158 1.354.858 2.364 2.059 3.33 3.303.43.558.967 1.051 1.505 1.501.343.301.945-.043.902-.493-.107-1.287-.258-2.552-.365-3.839-.108-1.201-.28-2.424-.237-3.625.022-1.587.215-3.153.387-5.126zm-14.676-44.612c-.086-.493-.15-1.051-.279-1.608-.172-.665-.602-1.116-1.332-1.201-.688-.086-1.268.15-1.676.729-1.203 1.759-1.053 4.311-.13 5.855.538.922 1.677.965 2.3.107.322-.45.58-.986.73-1.522.173-.73.237-1.502.387-2.36zm.752 64.216c.15.943.323 2.059.516 3.174.022.107.237.279.301.257.193-.064.451-.193.473-.343.408-1.673.601-3.367.45-5.083a14.103 14.103 0 00-.3-1.909c-.043-.214-.344-.365-.516-.558-.15.215-.408.408-.45.644-.173 1.201-.302 2.402-.474 3.818zm16.675-23.572c-.151.107-.344.172-.344.279-.043.257-.065.558 0 .815.558 1.93 1.547 3.646 2.686 5.276.129.172.3.279.472.429.172.129.645-.086.645-.321 0-.279.043-.58-.065-.815-.666-1.48-1.353-2.96-2.084-4.419-.193-.364-.494-.686-.795-.986-.129-.129-.344-.172-.515-.258zM88.416 80.323c-.193-1.008-.365-2.038-.601-3.067-.043-.172-.43-.322-.667-.365-.128-.021-.365.215-.43.386-.622 2.038-.343 4.032.345 6.006.043.107.214.3.279.278.172-.042.43-.171.451-.3.258-.944.43-1.909.623-2.938zM76.147 192.925c.129.364.172.708.365.965.172.257.602-.022.881-.644.366-.857.73-1.715 1.01-2.595.258-.815.43-1.651.602-2.488.064-.364-.022-.772-.43-.858-.193-.042-.537.172-.666.365-.322.472-.623.965-.795 1.501-.387 1.244-.645 2.51-.967 3.754zm27.353-92.548c.237-.129.473-.172.58-.322.989-1.308 1.827-2.702 2.385-4.225.086-.258.086-.558.086-.837 0-.128-.107-.321-.193-.343-.172-.043-.43-.064-.58.043-.215.15-.408.386-.559.622a14.022 14.022 0 00-1.934 4.461c-.043.15.129.365.215.601zm7.37 61.448c-.064.022-.172 0-.193.043-.065.172-.215.408-.15.536.666 1.416 1.525 2.681 2.664 3.775.193.172.473.279.73.365.301.107.753-.322.688-.622-.043-.129-.064-.279-.129-.408-.795-1.458-1.934-2.574-3.223-3.582-.086-.064-.258-.064-.387-.107zm4.212-43.925c-.022-.065-.043-.172-.086-.172-.258-.043-.602-.193-.774-.086a14.767 14.767 0 00-3.889 3.303c-.064.086-.064.301-.021.344.086.085.279.15.386.107 1.655-.729 3.138-1.716 4.298-3.11.064-.086.043-.258.086-.386zm-.881 22.756c.816-.15 1.783-.343 2.75-.558.129-.021.301-.343.28-.493-.022-.172-.237-.407-.387-.429-1.59-.214-3.116.086-4.599.665a.26.26 0 00-.15.15c0 .107 0 .322.043.322.623.107 1.246.214 2.063.343z" fill="#FFF"/><path d="M105.327 78.972c.709 0 1.418-.043 2.127.021.322.021.644.236.945.386.086.043.151.236.151.343-.022.107-.151.279-.237.3-1.482.108-2.965.236-4.448.258-.343 0-.709-.386-1.052-.622-.086-.064-.151-.258-.129-.386.021-.086.193-.193.3-.193.774-.022 1.569 0 2.343 0v-.107z" fill="#FFC229"/><path d="M88.975 106.618c-.13-.236-.237-.708-.537-.922-.731-.536-1.57-.987-2.364-1.459-.193-.107-.365-.214-.559-.321-.28-.172-.3-.537-.021-.687 3.244-1.759 5.479-4.504 7.391-7.57.15-.237.301-.494.516-.687.193-.15.516-.343.71-.28.214.087.407.408.45.644.15.837.323 1.695.344 2.553.108 4.032.903 7.914 2.084 11.753.108.343.13.686.15 1.051.022.257-.386.515-.6.386-.495-.279-.968-.6-1.44-.901-.366-.236-.71-.493-1.075-.707-.601-.344-.967-.215-1.096.429-.45 2.166-.88 4.332-1.353 6.498a1590.644 1590.644 0 01-3.352 14.585c-.108.493-.28.965-.473 1.415-.193.451-.58.601-1.053.558-.473-.043-.816-.3-.902-.772a4.177 4.177 0 01-.065-1.265c.237-2.274.494-4.547.774-6.799.494-3.818 1.031-7.636 1.547-11.454.236-1.63.515-3.238.752-4.868.064-.301.086-.665.172-1.18zM102.748 182.887c-.172 1.973-.365 3.539-.408 5.105-.022 1.201.129 2.423.236 3.624.108 1.287.258 2.553.365 3.84.043.472-.558.793-.902.493a11.052 11.052 0 01-1.504-1.501c-.967-1.244-1.977-2.445-3.33-3.303-.667-.429-1.376-.73-2.063-1.159-.15-.085-.237-.386-.215-.557.043-.172.236-.408.408-.451.408-.064.86-.107 1.268-.043.558.065 1.117.236 1.676.365.322.064.537-.171.473-.472-.108-.407-.237-.815-.344-1.244-2.923-10.016-5.845-20.011-8.746-30.048a642.333 642.333 0 01-2.685-9.716 16.657 16.657 0 01-.473-2.51c-.043-.343.236-.729.644-.729.237 0 .624.15.71.322.365.686.709 1.415.945 2.145a774.228 774.228 0 013.18 10.016c2.579 8.558 5.135 17.115 7.692 25.652.194.622.366 1.222.581 1.844.043.086.214.193.3.193.108-.021.258-.15.28-.257.215-.601.344-1.244.58-1.845.086-.236.344-.45.537-.622.193-.193.666-.043.709.193.065.365.086.708.086.665zM88.072 138.275c-.129.837-.193 1.63-.386 2.381-.15.536-.387 1.072-.731 1.523-.623.858-1.74.815-2.3-.107-.923-1.545-1.074-4.097.13-5.856.387-.579.988-.793 1.676-.729.73.086 1.16.515 1.332 1.201.129.536.193 1.094.28 1.587zM88.824 202.49c.172-1.415.301-2.616.495-3.817.043-.236.279-.429.45-.644.173.172.474.343.517.558.15.622.257 1.265.3 1.909.15 1.716-.064 3.41-.45 5.083-.044.15-.302.279-.474.343-.064.022-.279-.15-.3-.257-.215-1.116-.387-2.231-.538-3.175zM105.498 178.919c.172.064.387.107.538.257.3.301.623.622.795.987.73 1.458 1.418 2.938 2.084 4.418.107.236.064.536.064.815 0 .236-.494.451-.644.322-.172-.129-.344-.257-.473-.429-1.16-1.63-2.127-3.346-2.686-5.276-.064-.258-.043-.558 0-.815-.021-.086.172-.172.322-.279zM88.416 80.323c-.193 1.03-.365 1.994-.601 2.96-.022.128-.28.257-.452.3-.064.021-.257-.15-.279-.279-.687-1.973-.988-3.968-.344-6.005.043-.172.301-.408.43-.387.236.022.623.194.666.365.237.987.408 2.038.58 3.046zM76.147 192.925c.322-1.266.58-2.51.945-3.732.15-.536.473-1.03.795-1.502.13-.193.473-.407.666-.364.409.064.516.493.43.858-.172.836-.344 1.673-.601 2.488-.28.879-.645 1.737-1.01 2.595-.258.622-.688.901-.881.643-.172-.278-.215-.622-.344-.986zM103.5 100.376c-.086-.257-.258-.45-.215-.6a14.233 14.233 0 011.934-4.461c.151-.236.344-.472.559-.622.129-.086.387-.086.58-.043.086.021.193.214.193.343 0 .279 0 .579-.086.836-.558 1.545-1.418 2.939-2.385 4.226-.129.15-.343.214-.58.321zM110.87 161.825c.129.043.301.043.387.129 1.289.986 2.428 2.123 3.223 3.582.065.128.086.257.129.407.065.279-.387.708-.687.622-.258-.086-.559-.171-.731-.364-1.139-1.094-1.998-2.36-2.664-3.775-.065-.129.085-.365.15-.536.021-.065.129-.043.193-.065zM115.082 117.9c-.043.128-.022.3-.108.407-1.16 1.416-2.643 2.381-4.297 3.11-.108.043-.301-.021-.387-.107-.064-.064-.043-.279.022-.343 1.095-1.33 2.428-2.424 3.889-3.303.172-.107.515.043.773.086.065-.022.086.085.108.15zM114.201 140.656a43.091 43.091 0 01-2.063-.365c-.043 0-.043-.214-.043-.322 0-.043.086-.128.15-.15 1.483-.579 3.009-.879 4.599-.665.15.022.365.279.386.429.022.15-.15.472-.279.494-.967.257-1.934.429-2.75.579z" fill="#131B43"/><path d="M70.71 76.891c2.837-3.431 6.146-6.413 10.1-8.708.128-.064.257-.15.343-.236.086-.085.13-.236.194-.343-.108-.043-.237-.15-.344-.15-1.01.043-1.998.064-3.008.193-4.19.472-8.359 1.137-12.527 1.888a13.27 13.27 0 00-4.04 1.394c-1.59.858-3.008 1.93-4.319 3.153-1.998 1.866-3.696 3.989-5.2 6.24 1.075-1.522 18.114-4.546 18.802-3.43z" fill="#FFF"/><path d="M80.23 45.684c.064 5.641.042 11.282.02 16.923 0 2.38-.192 2.273 2.408 2.059.966-.086 1.095-.215 1.074-1.201-.065-1.93-.236-3.861-.236-5.77-.172-18.36-.301-36.719-.452-55.078 0-.858-.064-1.716-.086-2.574H79.52c.108 2.638.258 5.276.301 7.914.13 12.59.28 25.159.408 37.727z" fill="#94A9BF"/><path d="M62.223 140.441c-1.138.043-1.203.129-1.224 1.244-.022.429 0 .858 0 1.287 0 3.089.171 6.177.45 9.244.388-3.024 1.032-7.142 1.913-11.796-.365.021-.752.021-1.139.021zM105.326 95.165c.129-.172.28-.344.451-.45.129-.087.387-.087.581-.044.086.022.193.215.193.344 0 .278 0 .579-.086.836-.043.107-.086.236-.129.343 2.149 2.274 4.384 5.083 6.704 8.494a74.284 74.284 0 00-.967-2.853c-1.977-5.47-4.405-10.703-7.757-15.485-1.611-2.295-3.395-4.419-5.5-6.285-3.073-2.702-6.618-4.46-10.68-5.169-1.267-.214-2.428-.128-3.459.665-1.526 1.18-3.159 2.23-4.577 3.54-4.233 3.881-7.176 8.686-9.626 13.812-.236.514-.215.9.107 1.372.989 1.459 1.44 3.11 1.676 4.805.022.236-.128.493-.214.729-.172-.107-.409-.172-.516-.343-.645-1.03-1.268-2.08-1.891-3.11-.064-.129-.172-.215-.258-.322-.15.129-.387.236-.451.408-.817 2.209-1.655 4.418-2.428 6.648-1.461 4.269-2.579 8.623-3.417 13.041-.129.686.043 1.008.58 1.415 1.032.751 1.999 1.63 2.944 2.467.215.172.344.45.473.708.043.107.043.343-.043.386-.15.107-.387.236-.537.171a4.81 4.81 0 01-.924-.514c-.752-.537-1.483-1.116-2.235-1.652-.451-.322-.773-.171-.88.386a6.607 6.607 0 00-.087.644c-.386 3.474-.86 6.949-1.139 10.445-.193 2.423-.171 4.847-.214 7.292-.022 1.051.107 1.115 1.074 1.094a867.8 867.8 0 011.612-.064c5.135-26.017 18.07-67.24 41.62-43.754zM86.74 77.298c.043-.171.3-.407.43-.386.236.022.623.194.666.365.258 1.008.408 2.06.601 3.067-.193 1.03-.365 1.995-.601 2.96-.022.129-.28.257-.452.3-.064.022-.236-.15-.279-.279-.709-1.994-.988-3.989-.365-6.026z" fill="#E7F0FD"/></g></g></svg>
