<svg width="1080" height="1600" viewBox="0 0 1080 1600" xmlns="http://www.w3.org/2000/svg"><defs><linearGradient x1="91.126%" y1="42.874%" x2="4.905%" y2="42.873%" id="a"><stop stop-color="#585E92" stop-opacity="0" offset=".876%"/><stop stop-color="#585E92" offset="50%"/><stop stop-color="#585E92" stop-opacity="0" offset="100%"/></linearGradient><linearGradient x1="91.126%" y1="41.24%" x2="4.905%" y2="41.24%" id="b"><stop stop-color="#585E92" stop-opacity="0" offset=".876%"/><stop stop-color="#585E92" offset="50%"/><stop stop-color="#585E92" stop-opacity="0" offset="100%"/></linearGradient></defs><g fill-rule="nonzero" fill="none"><path fill="#585E92" d="M813.153 1293.83v-11.24l-9.6-36.03h-499.1l-9.636 36.03v11.24zM626.983 606.85v-3.848l-2.842-10.646H482.755l-2.843 10.646v3.848z"/><path d="M483.413 593.154l-2.669 9.952v2.912h145.407v-2.912l-2.669-9.952H483.413zm-1.283-1.63H624.8l.312 1.214 2.67 9.952.07.208v4.785H479.114v-4.785l.07-.208 2.668-9.952.277-1.214z" fill="#131B43"/><path fill="#585E92" d="M619.323 576.893v-3.537l-2.599-9.605H490.138l-2.565 9.605v3.537z"/><path d="M490.761 564.583l-2.39 8.877v2.6h130.085v-2.6l-2.39-8.877H490.76zm-1.248-1.63H617.416l.312 1.214 2.392 8.876.07.209V577.725H486.774V573.252l.07-.209 2.391-8.876.277-1.214z" fill="#131B43"/><path fill="#585E92" d="M612.668 552.134v-3.294l-2.322-8.703H496.481l-2.323 8.703v3.294z"/><path d="M497.105 540.969l-2.149 7.975v2.323h116.88v-2.323l-2.149-7.975H497.105zm-1.248-1.664H611.04l.312 1.213 2.15 7.975.068.209v4.195H493.361v-4.195l.07-.209 2.15-7.975.276-1.213z" fill="#131B43"/><path fill="#585E92" d="M605.98 528.486v-3.017l-2.116-7.767H502.928l-2.08 7.767v3.017z"/><path d="M503.552 518.5l-1.872 7.073v2.081h103.466v-2.081l-1.872-7.073h-99.722zm-1.283-1.63h102.253l.312 1.214 1.872 7.073.07.208V529.318H499.981V525.365l.07-.208 1.871-7.073.346-1.214z" fill="#131B43"/><path fill="#585E92" d="M600.155 506.849v-2.774l-1.87-7.005h-89.81l-1.873 7.005v2.774z"/><path d="M509.133 497.903l-1.664 6.276v1.838h91.89v-1.838l-1.665-6.276h-88.56zm-1.283-1.665h91.092l.312 1.214 1.664 6.276.07.208v3.71H505.77v-3.71l.07-.208 1.663-6.276.346-1.214z" fill="#131B43"/><path fill="#585E92" d="M595.268 488.783v-2.566l-1.699-6.346h-80.416l-1.698 6.346v2.566z"/><path d="M513.812 480.703l-1.49 5.618v1.629h82.15v-1.629l-1.492-5.618h-79.168zm-1.283-1.664h81.699l.312 1.214 1.49 5.617.07.208v3.502h-85.477v-3.502l.07-.208 1.525-5.583.311-1.248z" fill="#131B43"/><path fill="#585E92" d="M590.59 471.481v-2.393l-1.526-5.687h-71.439l-1.49 5.687v2.393z"/><path d="M518.284 464.234l-1.317 4.993v1.456h72.825v-1.456l-1.317-4.993h-70.19zm-1.282-1.665h72.72l.312 1.214 1.318 4.993.07.208V472.313H515.267v-3.329l.07-.208 1.317-4.993.347-1.214z" fill="#131B43"/><path fill="#585E92" d="M668.891 760.599v-5.513l-4.368-16.366H442.651l-4.402 16.366v5.513z"/><path d="M443.275 739.552l-4.194 15.638v4.577h228.977v-4.577l-4.194-15.638H443.275zm-1.283-1.63h223.189l.312 1.213 4.195 15.639.07.208v6.449H437.416v-6.449l.07-.208 4.194-15.639.311-1.213z" fill="#131B43"/><path d="M438.734 755.224c12.721-.59 37.4-.312 54.87-.451 9.844-.069 19.688-.104 29.532-.139l29.532-.034 29.532.034c9.844.035 19.688.07 29.532.139 17.504.104 42.114-.139 54.87.451.416.034.416.485 0 .52-12.72.589-37.4.312-54.87.451-9.844.069-19.688.104-29.532.138l-29.532.035-29.532-.035c-9.844-.034-19.688-.069-29.532-.138-17.504-.104-42.115.138-54.87-.451-.416-.035-.416-.486 0-.52z" fill="#131B43"/><path fill="#585E92" d="M656.967 718.538v-5.028l-3.917-14.737H454.055l-3.95 14.737v5.028z"/><path d="M454.68 699.606l-3.744 14.008v4.092H656.17v-4.092l-3.744-14.008H454.68zm-1.283-1.665H653.674l.312 1.214 3.744 14.009.07.208v5.964H449.236v-5.964l.07-.208 3.743-14.009.347-1.214z" fill="#131B43"/><path d="M450.623 713.615c11.404-.52 33.518-.278 49.185-.416 8.84-.07 17.643-.104 26.482-.139l26.482-.035 26.482.035c8.84.035 17.643.069 26.482.139 15.702.104 37.747-.104 49.185.416.381.035.381.451 0 .451-11.404.52-33.518.277-49.185.416-8.839.069-17.643.104-26.482.138l-26.482.035-26.482-.035c-8.839-.034-17.643-.069-26.482-.138-15.702-.104-37.747.104-49.185-.416-.38 0-.38-.416 0-.451z" fill="#131B43"/><path fill="#585E92" d="M647.156 680.569v-4.647l-3.605-13.384H463.482l-3.605 13.384v4.647z"/><path d="M464.106 663.336l-3.397 12.691v3.71h185.616v-3.71l-3.397-12.691H464.106zm-1.282-1.63H644.21l.312 1.214 3.397 12.691.07.208v5.582H459.044v-5.582l.07-.208 3.397-12.691.312-1.214z" fill="#000"/><path d="M460.433 676.061c10.33-.485 30.294-.277 44.471-.347 7.972-.069 15.98-.069 23.952-.138l23.951-.035 23.952.035c7.972.034 15.98.069 23.951.138 14.177.104 34.142-.104 44.471.347.347 0 .347.416 0 .416-10.329.486-30.294.278-44.47.347-7.973.069-15.98.069-23.952.139l-23.952.034-23.95-.034c-7.974-.035-15.98-.07-23.953-.139-14.177-.104-34.142.104-44.47-.347-.348-.034-.348-.416 0-.416z" fill="#131B43"/><path fill="#585E92" d="M637.312 643.814v-4.231l-3.223-12.066H472.91l-3.223 12.066v4.231z"/><path d="M473.535 628.349l-3.016 11.339v3.328h165.962v-3.328l-3.015-11.339h-159.93zm-1.283-1.664H634.713l.312 1.213 3.016 11.339.07.208V644.646H468.82V639.445l.07-.208 3.015-11.339.346-1.213z" fill="#131B43"/><path d="M470.276 639.687c9.22-.416 27.106-.243 39.792-.312 7.141-.069 14.281-.069 21.421-.104l21.422-.035 21.421.035c7.14.035 14.28.035 21.421.104 12.686.069 30.537-.104 39.757.312.312 0 .312.347 0 .382-9.22.416-27.106.242-39.792.312-7.14.069-14.28.069-21.42.104l-21.422.034-21.42-.034c-7.142-.035-14.282-.035-21.422-.104-12.687-.07-30.538.104-39.758-.312-.312 0-.312-.347 0-.382zM480.536 603.106c8.077-.382 23.744-.208 34.836-.278 6.24-.069 12.513-.069 18.752-.104l18.752-.035 18.752.035c6.24.035 12.513.035 18.752.104 11.127.07 26.76-.069 34.836.278.277 0 .277.312 0 .346-8.076.382-23.744.208-34.836.278-6.239.069-12.513.069-18.752.104l-18.752.034-18.752-.034c-6.239-.035-12.513-.035-18.752-.104-11.127-.07-26.759.069-34.836-.278-.277-.034-.277-.312 0-.346zM488.197 573.493c7.244-.312 21.247-.173 31.161-.243 5.58-.034 11.196-.069 16.776-.069l16.777-.035 16.776.035c5.581.035 11.196.035 16.776.069 9.948.07 23.917-.069 31.162.243.242 0 .242.278 0 .312-7.245.312-21.248.174-31.162.243-5.58.035-11.195.069-16.776.069l-16.776.035-16.777-.035c-5.58-.034-11.196-.034-16.776-.069-9.948-.069-23.917.069-31.16-.243-.244-.034-.244-.312 0-.312zM494.817 548.979c6.482-.312 19.1-.174 28.007-.243 5.026-.035 10.052-.069 15.078-.069l15.078-.035 15.078.035c5.026.034 10.052.034 15.078.069 8.943.069 21.49-.069 28.007.243.208 0 .208.242 0 .277-6.482.312-19.099.173-28.007.243-5.026.034-10.052.069-15.078.069l-15.078.035-15.078-.035c-5.026-.035-10.052-.035-15.078-.069-8.943-.07-21.49.069-28.007-.243-.243-.035-.243-.277 0-.277zM501.507 525.607c5.754-.277 16.88-.139 24.783-.208 4.437-.035 8.91-.035 13.345-.069l13.345-.035 13.345.035c4.437.034 8.908.034 13.345.069 7.903.069 19.03-.069 24.783.208.208 0 .208.243 0 .243-5.754.277-16.88.138-24.783.208-4.437.034-8.908.034-13.345.069l-13.345.035-13.345-.035c-4.436-.035-8.908-.035-13.345-.069-7.903-.07-19.029.069-24.783-.208-.173-.035-.173-.243 0-.243zM507.296 504.179c5.095-.243 15.008-.139 22.01-.174 3.952-.034 7.903-.034 11.855-.069l11.854-.035 11.854.035c3.952.035 7.903.035 11.855.069 7.036.035 16.915-.069 22.01.174.174 0 .174.208 0 .208-5.095.243-15.008.139-22.01.173-3.952.035-7.903.035-11.855.07l-11.854.034-11.854-.034c-3.952-.035-7.903-.035-11.855-.07-7.036-.034-16.915.07-22.01-.173-.174 0-.174-.208 0-.208zM512.183 486.321c4.576-.208 13.415-.104 19.688-.173 3.536-.035 7.072-.035 10.607-.069l10.607-.035 10.606.035c3.536.034 7.071.034 10.607.069 6.274.035 15.112-.035 19.688.173.14 0 .14.174 0 .174-4.576.208-13.414.104-19.688.173-3.536.035-7.07.035-10.607.069l-10.606.035-10.607-.035c-3.535-.034-7.07-.034-10.607-.069-6.273-.035-15.112.035-19.688-.173-.173 0-.173-.174 0-.174zM516.827 469.226c4.056-.173 11.89-.104 17.435-.139 3.12-.034 6.274-.034 9.394-.034h18.787c3.12 0 6.273.034 9.393.034 5.581.035 13.38-.034 17.435.139.14 0 .14.173 0 .173-4.055.174-11.889.105-17.435.139-3.12.035-6.274.035-9.393.035h-18.787c-3.12 0-6.274-.035-9.394-.035-5.58-.034-13.379.035-17.435-.139-.138-.034-.138-.173 0-.173z" fill="#131B43"/><path fill="#585E92" d="M681.646 808.588v-5.999l-4.853-18.1H430.415l-4.818 18.1v5.999z"/><path d="M431.074 785.322l-4.645 17.372v5.097h254.385v-5.097l-4.645-17.372H431.074zm-1.283-1.665H677.452l.311 1.214 4.645 17.372.07.208v6.969H424.765v-6.969l.07-.208 4.644-17.372.312-1.214z" fill="#131B43"/><path d="M426.047 802.693c14.143-.659 41.526-.347 60.971-.485 10.953-.104 21.872-.104 32.825-.174l32.825-.069 32.825.069c10.953.07 21.872.07 32.825.174 19.445.138 46.794-.139 60.97.485.486.035.486.555 0 .59-14.142.658-41.525.346-60.97.485-10.953.104-21.872.104-32.825.173l-32.825.07-32.825-.07c-10.953-.069-21.872-.069-32.825-.173-19.445-.139-46.794.139-60.97-.485-.486-.035-.486-.555 0-.59z" fill="#131B43"/><path fill="#585E92" d="M695.65 861.328v-6.588l-5.339-20.008h-273.31l-5.338 20.008v6.588z"/><path d="M417.625 835.565l-5.165 19.279v5.652h282.357v-5.652l-5.164-19.279H417.625zm-1.248-1.665H690.97l.312 1.214 5.164 19.279.07.208v7.524h-285.65v-7.524l.07-.208 5.164-19.279.277-1.214z" fill="#131B43"/><path d="M412.08 854.88c15.701-.729 46.1-.417 67.66-.555 12.131-.104 24.297-.139 36.43-.174l36.43-.069 36.43.069c12.13.07 24.297.07 36.428.174 21.595.138 51.924-.174 67.661.555.52.034.52.624 0 .624-15.702.728-46.1.416-67.66.554-12.132.104-24.299.139-36.43.174l-36.43.069-36.43-.069c-12.132-.07-24.298-.07-36.43-.174-21.594-.138-51.924.174-67.66-.554-.555 0-.555-.59 0-.624z" fill="#131B43"/><path fill="#585E92" d="M711.04 918.785v-7.178l-5.893-22.123H402.27l-5.928 22.123v7.178z"/><path d="M402.893 890.317l-5.719 21.394v6.241h313.067v-6.241l-5.719-21.394H402.893zm-1.282-1.665H705.805l.312 1.214 5.72 21.394.068.208v8.114H395.51V911.468l.07-.208 5.72-21.394.311-1.214z" fill="#131B43"/><path d="M396.724 911.745c17.4-.797 51.126-.45 75.043-.624 13.45-.104 26.932-.139 40.381-.208l40.381-.069 40.382.069c13.45.069 26.932.104 40.381.208 23.917.174 57.574-.173 75.043.624.59.035.59.694 0 .694-17.4.797-51.126.451-75.043.624-13.449.104-26.932.139-40.38.208l-40.383.069-40.38-.069c-13.45-.069-26.933-.104-40.382-.208-23.917-.173-57.574.173-75.043-.624-.59-.035-.59-.694 0-.694z" fill="#131B43"/><path fill="#585E92" d="M727.851 980.679v-7.871l-6.517-24.376H386.152l-6.516 24.376v7.871z"/><path d="M386.81 949.264l-6.343 23.683v6.935h346.551v-6.935l-6.343-23.683H386.81zm-1.282-1.664H721.992l.312 1.213 6.343 23.683.07.208v8.807H378.838v-8.807l.07-.208 6.342-23.683.278-1.213z" fill="#131B43"/><path d="M379.948 972.946c19.272-.866 56.568-.485 83.05-.658 14.905-.139 29.81-.139 44.714-.243l44.714-.069 44.714.069c14.905.069 29.81.104 44.714.243 26.482.173 63.744-.208 83.051.693.658.035.658.763 0 .798-19.273.867-56.569.485-83.05.659-14.905.138-29.81.138-44.715.242l-44.714.07-44.714-.07c-14.905-.069-29.809-.104-44.714-.242-26.482-.174-63.743.208-83.05-.694-.624-.035-.624-.763 0-.798z" fill="#131B43"/><path fill="#585E92" d="M746.464 1049.647v-8.599l-7.175-26.943H368.336l-7.21 26.943v8.599z"/><path d="M368.96 1014.938l-7.002 26.214v7.663h383.71v-7.663l-7.003-26.214H368.96zm-1.283-1.665H739.913l.312 1.214 7.002 26.214.07.208V1050.445H360.258v-9.536l.07-.208 7.002-26.214.346-1.214z" fill="#131B43"/><path d="M361.403 1041.29c21.317-.763 62.634-.451 91.958-.59 16.5-.104 33-.138 49.498-.208l49.497-.069 49.498.069c16.5.07 32.998.104 49.497.208 29.324.174 70.572-.173 91.96.59.726.034.726.659 0 .693-21.319.763-62.636.451-91.96.59-16.499.104-32.998.138-49.497.208l-49.498.069-49.497-.069c-16.499-.07-32.998-.104-49.498-.208-29.324-.174-70.57.173-91.958-.59-.728-.034-.728-.693 0-.693z" fill="#131B43"/><path fill="#585E92" d="M766.914 1125.411v-9.431l-7.972-29.716h-410.19l-7.939 29.716v9.431z"/><path d="M349.41 1087.096l-7.764 29.023v8.495h424.436v-8.495l-7.764-29.023H349.41zm-1.283-1.664H759.601l.311 1.213 7.765 29.023.07.208V1126.244H340.015v-10.368l.07-.208 7.764-29.023.277-1.213z" fill="#131B43"/><path d="M341.022 1116.188c23.605-.867 69.29-.486 101.733-.659 18.267-.139 36.5-.139 54.766-.243l54.766-.069 54.766.069c18.267.069 36.5.104 54.766.243 32.444.173 78.06-.208 101.733.659.798.034.798.763 0 .763-23.604.866-69.289.485-101.733.658-18.267.139-36.499.139-54.766.243l-54.766.069-54.766-.069c-18.267-.069-36.499-.104-54.766-.243-32.443-.173-78.059.208-101.733-.658-.797 0-.797-.729 0-.763z" fill="#131B43"/><path fill="#585E92" d="M789.34 1208.56v-10.3l-8.77-32.8H327.26l-8.735 32.8v10.3z"/><path d="M327.92 1166.292l-8.562 32.078v9.36H788.51v-9.36l-8.562-32.078H327.92zm-1.283-1.63h454.558l.312 1.214 8.561 32.074.07.21v11.23H317.66v-11.23l.07-.21 8.561-32.074.347-1.214z" fill="#131B43"/><path d="M318.664 1198.54c26.066-.9 76.603-.52 112.444-.69 20.173-.14 40.347-.18 60.52-.25l60.52-.06 60.52.06c20.173.07 40.346.11 60.52.25 35.84.17 86.273-.21 112.443.69.867.04.867.76 0 .8-26.066.9-76.603.52-112.443.69-20.174.14-40.347.18-60.52.24l-60.52.07-60.52-.07c-20.173-.06-40.347-.1-60.52-.24-35.84-.17-86.274.21-112.444-.69-.9-.04-.9-.8 0-.8zM305.077 1247.4l-9.428 35.3v10.33h516.707v-10.33l-9.428-35.3h-497.85zm-1.248-1.67H804.176l.312 1.22 9.428 35.29.07.21v12.21H293.984v-12.21l.07-.21 9.428-35.29.346-1.22z" fill="#131B43"/><path d="M294.886 1282.87c28.735-1.01 84.368-.56 123.848-.76 22.218-.14 44.437-.18 66.655-.28l66.655-.11 66.655.11c22.22.07 44.437.1 66.655.28 39.48.2 95.044-.25 123.848.76.97.03.97.87 0 .9-28.735 1.01-84.368.56-123.848.76-22.218.14-44.436.18-66.655.28l-66.655.1-66.655-.1c-22.218-.07-44.437-.1-66.655-.28-39.48-.2-95.044.25-123.848-.76-.97-.03-.97-.87 0-.9z" fill="#131B43"/><path fill="#131B43" d="M764.661 1410.02l16.222-55.93-214.28-904.94v6.623z"/><path fill="#FFF" d="M795.51 1354.92l-220.9-904.938h-6.969L765.32 1354.92z"/><path d="M568.647 450.78l197.331 903.31h28.457L573.95 450.78h-5.303zm-2.045-1.63h8.665l.312 1.249 220.486 903.311.485 56.31h-31.889l-.278-55.58-197.33-903.313-.45-1.977zM341.853 1410.02l-16.257-55.93 214.281-904.94v6.623z" fill="#131B43"/><path fill="#FFF" d="M341.193 1354.92l197.678-904.938h-7.002L311.003 1354.92z"/><path d="M532.53 450.78l-220.487 903.31h28.458l197.331-903.31h-5.303zm-1.319-1.63h8.666l-.416 1.977-197.33 903.313-.278 55.58h-31.889l.485-56.31 220.485-903.311.277-1.249z" fill="#131B43"/><path fill="#131B43" opacity=".8" d="M422.824 453.451h263.64v105.897H601.37l-1.006-3.294h-10.26l.728 3.294h-73.31l-1.04-3.294h-10.329l-1.109 3.294h-82.219z"/><path d="M24.922 379.952c3.535-3.814 7.626-7.282 11.889-10.298 4.298-3.017 7.868-1.769 10.537 2.774.659 1.144 1.317 2.323 1.664 3.571 1.421 5.34 2.842 10.645 4.02 16.055.729 3.328.867 6.796 1.7 10.125 1.039 4.091 3.847 5.236 7.52 3.051 2.22-1.352 4.507-2.947 6.101-4.924 4.298-5.305 8.631-10.645 12.236-16.436 7.834-12.656 15.39-25.485 22.773-38.384a199 199 0 0125.72-35.403c3.95-4.369 8.63-8.08 13.067-11.998 1.282-1.109 2.807-1.976 4.332-2.739 3.467-1.734 6.413-1.387 8.908 1.595 2.011 2.393 3.883 5.097 4.957 7.975 1.976 5.271 3.501 10.749 4.922 16.228 1.456 5.583 2.323 11.373 3.952 16.921 2.183 7.386 5.234 8.253 11.438 3.468 2.392-1.838 4.506-4.057 6.621-6.207 6.1-6.207 12.097-12.483 18.162-18.724 1.387-1.422 2.981-2.844 5.2-2.012 2.08.798 2.807 2.74 3.015 4.751.243 2.462.174 4.993.347 7.455.173 2.6.14 5.305.728 7.802.624 2.67 2.357 3.432 4.783 2.115 2.531-1.352 5.13-2.913 7.002-4.993 3.778-4.196 7.418-8.565 10.537-13.281 3.778-5.686 6.967-11.789 10.364-17.718 12.132-21.152 24.264-42.269 38.544-62.068 8.805-12.206 17.921-24.238 29.325-34.051 8.145-7.004 16.256-14.112 25.164-20.319 9.706-6.727 19.515-13.003 30.572-17.129 8.874-3.295 17.886-6.207 26.863-9.259.867-.312 1.941-.312 2.6-.866 3.535-3.052 7.903-3.468 12.166-4.023 13.692-1.768 27.383-3.745 41.144-4.958 15.598-1.387 31.265-2.289 46.898-2.878 15.563-.555 30.988 1.491 46.378 3.883 19.03 2.948 37.816 6.831 56.117 12.83 22.531 7.386 43.536 17.892 63.12 31.277 6.101 4.161 12.062 8.495 18.094 12.725.762.52 1.49 1.353 2.322 1.457 3.397.45 5.65 2.774 8.007 4.785a362.729 362.729 0 0134.94 34.328c13.171 14.806 24.02 31.346 34.696 47.955 6.343 9.847 12.79 19.626 19.55 29.196 3.258 4.612 7.105 8.842 11.022 12.864 2.253 2.323 5.095 4.196 7.937 5.791 4.472 2.496 5.581 2.011 8.111-2.289.14-.242.243-.451.382-.693 2.461-3.814 6.031-4.785 9.774-2.185 2.357 1.63 4.368 3.78 6.274 5.93 4.402 4.923 8.423 10.125 12.998 14.875 2.877 3.017 6.24 5.617 9.706 7.975 1.768 1.179 4.125 1.699 6.308 1.977 3.051.416 4.75-.832 5.581-3.78.59-2.011.728-4.126 1.11-6.207.415-2.184.692-4.438 1.316-6.553.867-2.982 2.843-5.236 5.858-5.895 2.634-.589 5.477-.867 8.146-.624 4.852.451 9.151 2.739 12.686 5.964 3.986 3.606 7.8 7.49 11.231 11.616 5.615 6.796 10.918 13.87 16.256 20.874 5.927 7.802 12.686 14.772 20.104 21.187 1.213 1.04 2.67 1.803 4.818 3.259-.347-2.739-.485-4.404-.763-6.068-.346-2.219-1.005-4.404-1.074-6.623-.104-3.641-.243-7.386.347-10.957.52-3.156 3.12-3.814 5.615-1.769 1.525 1.249 2.911 2.705 4.194 4.161 3.951 4.473 8.354 6.554 14.281 3.572 3.12-1.561 6.412-.902 9.462.867 1.491.867 2.981 1.664 4.507 2.462V512.722c-6.136-1.006-11.994-2.982-17.678-5.444-4.472-1.942-9.047-3.572-13.449-5.652-3.64-1.734-7.07-2.636-10.71-.208-.728.485-1.734.589-2.67.693-8.492 1.075-17.088 2.046-25.545.173-10.399-2.288-20.798-4.542-30.919-8.044a179.64 179.64 0 00-23.605-6.311c-10.953-2.15-22.045-3.675-33.102-5.305-11.577-1.699-22.496-5.028-32.548-11.339-3.917-2.462-8.63-3.849-13.137-5.201-10.086-3.051-20.277-5.652-29.844-10.16-1.282-.589-2.773-.693-4.124-1.144-1.976-.659-4.195-.971-5.754-2.184-2.46-1.907-4.818-4.161-6.586-6.693a84.798 84.798 0 01-10.087-19.625c-4.055-11.27-8.423-22.47-11.924-33.912-4.679-15.326-10.953-29.925-19.029-43.725-10.052-17.164-20.069-34.363-30.607-51.215-8.56-13.731-17.539-27.254-26.967-40.396-14.176-19.799-30.572-37.656-50.537-51.804-7.799-5.548-16.083-10.541-24.54-15.083-12.236-6.554-25.512-9.744-39.41-10.333-13.034-.555-26.137-.763-38.927 2.184-29.08 6.658-54.142 20.805-75.667 41.333-11.612 11.061-21.283 23.752-29.498 37.448-7.729 12.865-14.939 26.041-22.53 38.975-24.02 40.881-48.977 81.173-74.246 121.257-9.74 15.465-22.218 28.364-37.678 38.246-5.095 3.26-10.364 6.207-15.563 9.224-1.005.589-2.114 1.04-3.258 1.456-8.804 3.051-17.574 6.276-26.447 9.05-7.279 2.289-14.593 4.751-22.08 5.825-10.78 1.561-21.109 4.369-31.23 8.218-2.323.902-4.715 1.699-7.037 2.601-11.924 4.646-24.229 5.791-36.88 4.473-3.293-.347-6.17-1.352-8.111-4.23-.381-.555-.624-1.179-.866-1.63-3.155 1.214-5.581 2.184-8.042 3.051-7.418 2.67-14.8 5.514-22.357 7.802-3.986 1.214-8.319 2.115-12.41 1.873-5.476-.347-10.744-.174-16.013 1.109-9.463 2.323-18.89 4.647-28.354 6.97v-7.109-88.559-9.501c3.467-4.265 6.968-8.53 10.468-12.795 4.68-5.617 9.22-11.616 14.316-17.129z" fill="url(#a)" transform="translate(50 189)"/><path d="M16.326 167.153c13.171-4.958 26.031-10.645 39.376-15.187 11.924-4.057 23.431-9.432 34.974-14.529 15.078-6.658 30.675-11.859 46.412-16.679 12.201-3.745 23.224-9.847 33.934-16.609 1.005-.624 1.803-1.526 2.738-2.254 2.15-1.699 4.368-3.398 6.517-5.097 5.373-4.23 10.884-8.287 16.048-12.76 6.413-5.617 13.137-10.541 21.491-12.83 9.913-2.67 19.827-5.374 29.775-7.906 10.953-2.774 22.183-4.507 32.79-8.668 10.052-3.953 20.208-7.525 30.26-11.478 4.541-1.768 8.804-4.195 13.345-5.894 8.873-3.294 17.851-6.311 26.793-9.397 9.186-3.19 18.302-6.588 27.557-9.536 8.25-2.635 16.568-5.27 25.026-7.143 10.78-2.392 21.768-3.918 32.582-6.102C451.474 1.963 467.175.472 483.015.02c3.674-.104 7.35.208 11.057.277 4.714.14 9.463.313 14.177.347 4.75.035 9.498-.243 14.212-.034 11.3.52 22.6 1.49 33.934 1.803 13.067.346 25.996 1.144 38.787 4.057 10.121 2.288 20.485 3.606 30.675 5.652 7.591 1.525 15.078 3.606 22.67 5.305 7.07 1.56 14.211 2.774 21.247 4.403a45.36 45.36 0 018.943 3.052c7.175 3.363 14.42 6.45 22.218 8.044 1.526.312 3.051.833 4.506 1.457 9.013 3.71 18.06 7.316 26.933 11.304 17.643 7.905 34.662 17.198 52.686 24.307 3.536 1.386 6.863 3.328 10.156 5.27 5.893 3.468 11.647 7.178 17.54 10.645 12.478 7.317 24.887 14.772 37.573 21.741 10.606 5.826 21.49 11.166 32.374 16.401 6.967 3.364 14.35 5.964 21.283 9.432 6.273 3.121 12.617 5.86 19.48 7.49 3.19.762 6.274 1.976 9.358 3.155 9.082 3.502 18.06 7.316 27.21 10.576 6.551 2.323 13.345 3.987 20 5.964v232.84c-1.49-.832-3.015-1.595-4.506-2.462-3.015-1.768-6.308-2.427-9.463-.866-5.927 2.947-10.329.867-14.28-3.572-1.318-1.491-2.669-2.913-4.194-4.161-2.496-2.046-5.096-1.387-5.616 1.769-.589 3.571-.45 7.316-.346 10.957.07 2.219.728 4.403 1.074 6.623.243 1.664.416 3.328.763 6.068-2.149-1.457-3.605-2.219-4.818-3.26-7.383-6.38-14.177-13.384-20.104-21.186-5.338-7.039-10.642-14.078-16.257-20.874-3.43-4.126-7.244-8.01-11.23-11.616-3.536-3.225-7.834-5.513-12.687-5.964-2.669-.243-5.51 0-8.145.624-3.016.693-4.99 2.947-5.858 5.895-.624 2.15-.936 4.369-1.317 6.553-.38 2.081-.52 4.196-1.109 6.207-.832 2.947-2.565 4.196-5.58 3.78-2.185-.278-4.542-.798-6.309-1.977-3.467-2.358-6.829-4.958-9.706-7.975-4.54-4.751-8.596-9.986-12.998-14.876-1.907-2.149-3.952-4.299-6.274-5.929-3.778-2.601-7.314-1.63-9.775 2.185-.138.208-.242.45-.38.693-2.53 4.3-3.64 4.751-8.112 2.289-2.842-1.595-5.684-3.468-7.937-5.791-3.952-4.057-7.799-8.287-11.023-12.864-6.759-9.571-13.206-19.349-19.549-29.196-10.71-16.61-21.525-33.149-34.697-47.956-10.884-12.205-22.496-23.682-34.939-34.328-2.357-2.011-4.61-4.334-8.007-4.785-.832-.104-1.56-.936-2.323-1.456-6.03-4.23-11.993-8.599-18.093-12.726-19.584-13.349-40.59-23.89-63.12-31.276-18.3-5.999-37.123-9.882-56.118-12.83-15.39-2.392-30.814-4.438-46.377-3.883-15.668.589-31.3 1.491-46.898 2.878-13.76 1.213-27.453 3.19-41.144 4.958-4.264.555-8.666.971-12.166 4.022-.624.555-1.734.555-2.6.867-8.943 3.086-17.99 5.964-26.863 9.258-11.057 4.092-20.867 10.403-30.572 17.13-8.908 6.172-17.019 13.28-25.165 20.319-11.404 9.813-20.52 21.845-29.324 34.051-14.28 19.799-26.447 40.916-38.544 62.067-3.397 5.93-6.586 12.032-10.364 17.719-3.12 4.681-6.759 9.085-10.537 13.28-1.872 2.081-4.506 3.641-7.002 4.994-2.426 1.317-4.159.554-4.783-2.115-.59-2.532-.555-5.202-.728-7.802-.139-2.497-.104-4.993-.347-7.455-.208-2.011-.9-3.953-3.015-4.751-2.219-.832-3.779.555-5.2 2.011-6.066 6.207-12.097 12.518-18.163 18.725-2.114 2.149-4.228 4.369-6.62 6.206-6.205 4.786-9.255 3.919-11.439-3.467-1.629-5.548-2.495-11.304-3.95-16.921-1.422-5.479-2.947-10.923-4.923-16.228-1.075-2.878-2.946-5.583-4.957-7.975-2.495-2.982-5.407-3.329-8.908-1.595-1.525.763-3.05 1.629-4.333 2.739-4.436 3.918-9.116 7.628-13.067 11.997-9.844 10.854-18.44 22.643-25.719 35.403-7.383 12.934-14.94 25.764-22.773 38.385-3.605 5.791-7.938 11.131-12.236 16.436-1.594 2.011-3.882 3.606-6.1 4.924-3.674 2.184-6.482 1.075-7.522-3.052-.832-3.294-.936-6.796-1.698-10.125-1.214-5.374-2.6-10.714-4.021-16.054-.347-1.248-1.005-2.427-1.664-3.571-2.669-4.578-6.24-5.791-10.537-2.774-4.264 2.982-8.354 6.449-11.89 10.298-5.095 5.513-9.635 11.512-14.384 17.303C6.967 401.693 3.5 405.958 0 410.223v-228.09-1.977-6.727c5.511-2.184 10.919-4.23 16.326-6.276z" fill="url(#b)" transform="translate(50 189)"/><path d="M318.63 778.768c-.346-12.621-.693-25.278-1.074-37.899-.104-3.017-.416-6.034-.555-9.05-.104-2.046-1.074-3.156-3.085-3.364-.139 0-.242-.069-.38-.069-7.21-1.491-9.256-.07-9.22 7.247.033 10.506.38 21.047.657 31.554.451 17.094.971 34.189 1.491 51.284.07 2.045-.278 4.299 2.183 5.478 2.773 1.318 5.581 1.561 8.39.243 1.697-.832 2.182-2.462 2.148-4.334-.07-8.565-.104-17.13-.139-25.66v-15.395c-.139-.035-.277-.035-.416-.035zm-8.145 41.818c-1.075-29.508-2.6-58.843-3.259-88.213h6.24c.104.937.208 1.595.242 2.22.277 17.996.485 36.027.867 54.023.208 9.466.59 18.932 1.04 28.364.173 3.987-.243 4.403-5.13 3.606z" fill="#131B43"/><path d="M310.485 820.586c4.887.798 5.303.381 5.13-3.571-.416-9.467-.832-18.933-1.04-28.364-.38-17.997-.589-36.027-.867-54.024 0-.624-.138-1.283-.242-2.219h-6.239c.658 29.335 2.183 58.67 3.258 88.178z" fill="#FFC229"/><path d="M278.526 678.454c.347 3.537.728 6.9 1.005 10.264.347 3.883.59 4.299 4.472 4.403 12.374.312 24.748.59 37.123.729 11.196.139 22.392-.035 33.587.139 3.051.034 4.992-.972 6.31-3.642 2.633-5.305 5.51-10.506 8.04-15.846 30.746-65.57 64.645-129.614 96.014-194.906 1.456-3.052 3.571-4.994 6.517-6.485 10.572-5.339 21.906-8.356 33.414-10.575 18.544-3.572 37.262-5.444 56.187-4.751 20.312.763 40.451 3.156 59.931 9.189 5.615 1.734 11.022 4.3 16.5 6.519 2.668 1.075 4.332 3.086 5.65 5.721 14.973 30.479 29.808 61.062 45.164 91.368 17.54 34.675 34.835 69.453 51.37 104.579 2.425 5.132 5.163 10.055 7.694 15.153 1.317 2.67 3.258 3.676 6.308 3.641 22.912-.347 45.823-.486 68.735-.763 6.135-.07 6.101-.174 6.621-6.45.208-2.739.59-5.444.901-8.322 2.426 0 4.644-.034 6.828 0 4.09.104 8.146.312 12.236.382 3.847.034 4.61-.728 3.71-4.369-2.462-10.091-4.958-20.216-7.662-30.237-7.244-26.942-14.696-53.849-21.906-80.826-3.328-12.449-5.893-25.14-9.359-37.553-11.854-42.164-29.636-81.659-54.523-117.755-26.759-38.836-60.659-69.939-102.323-92.27-26.55-14.216-54.87-22.92-84.852-25.694-31.612-2.947-62.219 1.908-91.924 12.795-30.052 10.992-56.569 27.948-80.728 48.718-29.844 25.694-52.964 56.624-71.542 91.195-19.342 35.992-32.409 74.204-41.248 114.01-3.189 14.39-7.557 28.503-11.369 42.754-6.274 23.544-12.548 47.054-18.822 70.598a57.515 57.515 0 00-.97 4.23c-.728 3.676-.139 4.473 3.743 4.438 4.09-.034 8.146-.277 12.236-.346 2.218-.07 4.402-.035 6.932-.035zm3.986 12.344c-1.386-7.178-.866-13.904-.936-20.597-.346-27.705 1.283-55.306 5.165-82.733 3.986-28.122 10.503-55.619 19.861-82.422 18.891-54.093 47.661-101.978 88.91-142.028 29.184-28.329 63.084-48.579 102.182-59.987 28.978-8.461 58.371-11.026 88.285-5.791 27.383 4.82 53.067 14.217 77.192 28.018 33.83 19.279 61.04 46.013 84.402 76.839 23.917 31.554 41.698 66.367 54.627 103.746 14.905 43.17 22.392 87.693 24.23 133.221.52 12.517.554 25.035.625 37.552.033 4.681-.556 9.362-.868 14.182-24.818-.381-49.047-.763-73.519-1.144.312-.902.347-1.318.555-1.63 5.373-8.391 9.151-17.511 12.097-26.977 8.076-25.971 11.785-52.671 12.097-79.786.208-18.482-2.149-36.79-4.749-55.029-.624-4.508-1.94-8.877-2.91-13.315-.694.832-.764 1.595-.694 2.323 1.213 9.674 2.634 19.279 3.674 28.988 2.253 21.429 2.461 42.858.104 64.287-.139 1.283-.52 2.566-.902 4.369-.45-8.391-.762-16.158-1.317-23.925-1.04-15.431-4.055-30.514-8.492-45.32-10.468-35.091-27.799-66.472-51.23-94.489-25.928-30.964-57.158-54.751-95.009-69.384-32.062-12.379-64.887-15.465-98.475-7.628-25.858 6.033-49.428 17.129-71.16 32.282-34.49 24.064-60.902 55.271-80.625 92.269-17.088 32.074-27.106 66.16-28.527 102.637-.173 4.161-.416 8.288-.624 12.414-4.679-33.149-1.698-66.055 2.981-98.962-.555.659-1.005 1.318-1.144 2.046-.866 3.849-1.906 7.663-2.46 11.581-1.11 7.698-1.977 15.396-2.843 23.094-1.595 13.766-2.392 27.566-1.733 41.401.832 17.546 3.258 34.848 7.002 52.012 3.466 15.777 8.388 31 16.811 44.939.277.485.312 1.144.52 1.907-24.576.312-48.735.659-73.103 1.04zm75.182-5.132c-4.159-11.338-8.18-22.746-12.547-34.016-4.68-12.136-5.928-24.723-6.1-37.552-.244-16.956 1.732-33.635 5.51-50.105 10.33-45.112 30.954-84.849 62.22-119.004.623-.693 1.385-1.248 2.078-1.872.14 1.04-.104 1.768-.415 2.496-5.685 13.662-8.18 28.018-9.255 42.65-1.144 15.43-.382 30.826 2.322 46.048 2.15 12.24 5.407 24.168 14.177 33.773-17.99 39.668-37.85 78.4-57.99 117.582zm341.56-242.237c.208-.104.451-.243.66-.347l2.702 2.809c23.12 25.312 40.312 54.196 52.097 86.374 6.413 17.511 10.746 35.507 13.241 53.954 1.837 13.593 1.907 27.289.902 40.986-.382 5.132-.902 10.229-2.6 15.118-3.605 10.437-7.21 20.874-10.953 31.311-1.456 4.022-3.189 7.906-5.026 12.414-19.584-39.564-39.446-78.296-57.227-117.582 2.461-3.918 5.026-7.421 6.967-11.235 3.258-6.345 5.2-13.246 6.482-20.25 3.362-18.377 4.298-36.894 2.218-55.445-1.213-10.992-3.328-21.879-7.21-32.316a634.294 634.294 0 00-2.253-5.791zm-439.86 231.419c6.585-24.377 13.101-48.545 19.652-72.713-2.08 24.203-2.357 48.336-1.005 72.713h-18.648zm570.883-.07c1.837-24.411 1.04-48.197-.659-72.054 6.482 23.961 12.93 47.921 19.446 72.054h-18.787z" fill="#131B43"/><path d="M282.512 690.798c24.367-.381 48.561-.728 73.067-1.109-.208-.763-.208-1.422-.519-1.907-8.423-13.94-13.345-29.162-16.812-44.939-3.743-17.129-6.169-34.466-7-52.012-.66-13.835.172-27.636 1.732-41.401.901-7.698 1.768-15.431 2.842-23.094.555-3.883 1.595-7.732 2.461-11.581.173-.728.59-1.387 1.144-2.046-4.679 32.906-7.66 65.813-2.98 98.962.207-4.127.45-8.288.623-12.414 1.421-36.478 11.438-70.528 28.527-102.637 19.688-36.998 46.1-68.205 80.624-92.269 21.698-15.153 45.303-26.249 71.161-32.282 33.622-7.837 66.447-4.751 98.475 7.628 37.851 14.633 69.081 38.42 95.01 69.384 23.465 28.017 40.761 59.433 51.23 94.489 4.401 14.806 7.417 29.889 8.491 45.319.52 7.733.867 15.5 1.317 23.926.382-1.803.763-3.051.902-4.369 2.357-21.429 2.15-42.858-.104-64.287-1.006-9.674-2.46-19.314-3.675-28.988-.104-.728 0-1.456.694-2.323 1.005 4.438 2.287 8.842 2.911 13.315 2.565 18.273 4.957 36.582 4.75 55.029-.313 27.115-4.022 53.815-12.098 79.786-2.946 9.432-6.69 18.586-12.097 26.977-.208.312-.243.728-.555 1.63 24.472.381 48.7.763 73.52 1.144.31-4.82.9-9.501.867-14.182-.07-12.517-.106-25.035-.626-37.553-1.837-45.528-9.324-90.05-24.229-133.22-12.859-37.31-30.676-72.123-54.592-103.677-23.363-30.826-50.572-57.56-84.437-76.909-24.125-13.765-49.81-23.197-77.193-28.017-29.913-5.236-59.272-2.67-88.284 5.791-39.099 11.408-72.998 31.658-102.184 59.987-41.247 40.049-70.017 87.97-88.908 142.028-9.359 26.803-15.875 54.335-19.86 82.421-3.883 27.463-5.478 55.029-5.166 82.734.104 6.762-.416 13.454.971 20.666zm482.565-191.82c-.312.035-.624.104-.936.139-.485-1.179-1.005-2.324-1.42-3.537-7.107-21.325-16.639-41.506-27.488-61.132-11.993-21.706-26.794-41.263-43.882-59.189-25.06-26.284-54.87-44.869-89.567-55.723-23.535-7.351-47.522-9.5-71.82-5.443-33.379 5.582-63.43 19.279-89.844 40.326-32.409 25.763-56.568 58.254-74.974 95.148-7.59 15.222-14.385 30.756-19.723 46.914-.277.867-.797 1.665-1.178 2.532-.52-1.11-.589-2.046-.347-2.878 1.18-4.3 2.253-8.669 3.675-12.899 4.68-13.87 10.363-27.324 16.845-40.431 23.57-47.608 56.846-86.271 103.848-112.069 23.223-12.725 47.833-21.221 74.49-22.92 20.726-1.317 41.073.729 60.83 7.178 33 10.749 61.838 28.364 86.656 52.636 26.273 25.694 46.1 55.722 60.485 89.426 3.813 8.946 7.244 18.1 10.606 27.22 1.7 4.681 3.085 9.639 3.744 14.702z" fill="#94A9BF"/><path d="M357.694 685.666c20.173-39.147 40.035-77.914 57.99-117.616-8.77-9.605-11.993-21.533-14.177-33.774-2.704-15.222-3.466-30.617-2.322-46.048 1.074-14.632 3.57-28.988 9.254-42.649.278-.694.52-1.422.416-2.497-.693.624-1.456 1.179-2.08 1.872-31.265 34.155-51.888 73.892-62.218 119.004-3.778 16.471-5.754 33.184-5.51 50.105.172 12.83 1.385 25.451 6.1 37.553 4.367 11.269 8.353 22.677 12.547 34.05zM699.254 443.429c.763 1.942 1.526 3.849 2.254 5.79 3.882 10.438 5.961 21.291 7.21 32.317 2.08 18.586 1.108 37.102-2.219 55.445-1.283 7.004-3.224 13.905-6.482 20.25-1.976 3.814-4.54 7.351-6.967 11.235 17.782 39.321 37.608 78.052 57.227 117.582 1.837-4.508 3.605-8.392 5.026-12.414 3.744-10.402 7.348-20.839 10.953-31.311 1.7-4.889 2.253-9.987 2.6-15.118.971-13.697.901-27.393-.9-40.986-2.462-18.447-6.83-36.443-13.242-53.954-11.785-32.178-28.978-61.062-52.097-86.374-.867-.971-1.803-1.873-2.704-2.809-.208.139-.45.243-.659.347z" fill="#718496"/><path d="M259.393 674.848h18.648c-1.352-24.377-1.109-48.51 1.005-72.713-6.517 24.168-13.068 48.302-19.653 72.713zM830.277 674.779h18.752c-6.516-24.099-12.963-48.094-19.445-72.054 1.733 23.856 2.53 47.643.693 72.054z" fill="#94A9BF"/><path d="M765.077 498.978c-.693-5.063-2.045-10.021-3.778-14.772-3.362-9.154-6.759-18.273-10.607-27.219-14.384-33.704-34.21-63.732-60.485-89.426-24.818-24.273-53.69-41.887-86.655-52.636-19.757-6.45-40.104-8.496-60.832-7.178-26.69 1.699-51.3 10.194-74.489 22.92-47.036 25.798-80.312 64.46-103.847 112.068-6.482 13.107-12.167 26.561-16.846 40.431-1.42 4.23-2.496 8.599-3.674 12.899-.243.867-.139 1.769.347 2.878.415-.832.901-1.63 1.178-2.531 5.338-16.159 12.132-31.693 19.723-46.915 18.405-36.894 42.6-69.384 74.974-95.147 26.447-21.013 56.464-34.744 89.844-40.327 24.298-4.057 48.25-1.907 71.82 5.444 34.696 10.853 64.506 29.439 89.566 55.722 17.09 17.927 31.89 37.483 43.882 59.19 10.85 19.626 20.382 39.841 27.487 61.131.416 1.214.936 2.358 1.422 3.537.346.035.658-.035.97-.069zM789.652 783.831c-.069 6.97-.173 20.944-.277 34.883-.035 2.427-.035 4.854 2.877 5.791 3.085.97 6.135.762 8.527-1.387.901-.798 1.144-2.601 1.213-3.953.243-4.335.208-8.669.347-13.038.485-17.095 1.074-34.189 1.49-51.284.173-7.351.173-14.702 0-22.053-.104-4.126-.97-4.716-5.06-4.716h-.382c-6.17.07-7.036.832-7.244 7.005-.45 13.904-.832 27.843-1.49 48.752zm11.404-51.63c.07.728.173 1.248.173 1.733-.277 8.946-.554 17.858-.866 26.804-.52 14.32-1.109 28.641-1.664 42.962-.173 4.715-.347 9.466-.589 14.182-.174 3.155-.867 3.641-3.952 3.051-.45-.104-.866-.52-1.109-.659.66-29.369 1.317-58.496 1.976-87.623.554-.173.901-.381 1.282-.381 1.491-.104 2.912-.069 4.75-.069z" fill="#131B43"/><path d="M801.056 732.201c-1.837 0-3.293-.035-4.714 0-.382 0-.728.208-1.283.381-.658 29.127-1.317 58.254-1.976 87.623.243.139.624.555 1.11.659 3.05.624 3.778.104 3.951-3.051.243-4.716.416-9.466.59-14.182.554-14.321 1.143-28.642 1.663-42.962.312-8.946.59-17.858.867-26.804-.035-.45-.139-.936-.208-1.664z" fill="#FFC229"/></g></svg>
