<?xml version="1.0" encoding="UTF-8"?>
<svg width="652px" height="3200px" viewBox="0 0 652 3200" version="1.1" xmlns="http://www.w3.org/2000/svg" xmlns:xlink="http://www.w3.org/1999/xlink">
    <title>Artboard</title>
    <g id="Artboard" stroke="none" stroke-width="1" fill="none" fill-rule="evenodd">
        <g id="Group" transform="translate(256.000000, 20.000016)" fill-rule="nonzero">
            <path d="M29.292,250.728984 C29.292,250.728984 103.526,208.220984 179.629,250.728984 L173.212,153.829984 C173.212,153.829984 106.594,97.7109843 103.526,97.7109843 C100.457,97.7109843 55.599,130.121984 55.599,130.121984 C55.599,130.121984 27.451,170.314984 27.451,171.653984 C27.451,173.019984 29.292,250.728984 29.292,250.728984 Z" id="Path" fill="#131B43" opacity="0.8"></path>
            <path d="M0,246.350984 C0.279,241.860984 0.586,237.369984 0.865,232.878984 C0.893,232.348984 0.921,231.818984 0.948,231.316984 C1.423,221.693984 1.869,212.070984 2.343,202.447984 C2.678,196.060984 3.069,111.574984 3.431,105.186984 C3.71,100.389984 3.878,95.5649843 4.268,90.7669843 C4.575,86.5829843 5.245,82.4549843 6.444,78.4106843 C7.979,73.1947843 9.792,68.0346843 12.052,63.0976843 C16.041,54.3394843 21.397,46.4737843 27.73,39.2775843 C36.852,28.9015843 47.341,20.1154843 59.281,13.0865843 C69.185,7.22908428 79.813,3.18468428 91.139,1.12068428 C97.974,-0.134515717 104.893,-0.301815717 111.811,0.451284283 C127.35,2.12478428 141.354,7.95428428 154.27,16.5172843 C164.536,23.3509843 173.798,31.3560843 181.693,40.8395843 C189.309,49.9882843 195.53,60.0016843 199.324,71.4375843 C200.942,76.3187843 202.616,81.1439843 203.23,86.2759843 C203.592,89.4839843 203.955,92.7199843 204.178,95.9549843 C204.624,103.178984 205.015,188.473984 205.378,195.698984 C205.712,202.392984 205.964,209.086984 206.326,215.780984 C206.8,224.148984 207.386,232.516984 207.833,240.883984 C208.084,245.792984 208.084,250.729984 207.665,255.638984 C207.247,260.659984 206.577,265.624984 205.461,270.533984 C204.373,275.331984 204.513,274.717984 200.217,275.135984 C194.386,275.693984 188.556,276.390984 182.697,276.725984 C177.564,277.006467 172.431,276.892984 167.298,276.920984 C166.685,276.920984 166.043,276.809984 165.429,276.669984 C164.564,276.474984 163.923,276.000984 163.755,275.024984 C163.532,273.573984 163.17,272.151984 162.974,270.700984 C162.388,266.544984 161.803,262.416984 161.245,258.260984 C161.077,257.005984 161.328,255.806984 161.663,254.579984 C164.034,245.792984 166.266,236.950984 167.717,227.969984 C168.693,221.944984 169.279,215.892984 169.307,209.839984 C169.391,196.562984 167.27,183.760984 160.519,172.045984 C154.494,161.585984 145.818,154.166984 134.798,149.396984 C128.689,146.746984 122.328,145.101984 115.745,144.347984 C112.313,143.929984 108.882,143.567984 105.423,143.343984 C103.442,143.232984 101.461,143.399984 99.453,143.539984 C93.594,143.957984 87.792,144.766984 82.101,146.272984 C75.489,148.029984 69.268,150.791984 63.577,154.640984 C53.311,161.613984 46.532,171.208984 42.599,182.867984 C39.614,191.681984 38.498,200.802984 38.693,210.090984 C38.916,221.247984 40.618,232.181984 43.324,242.975984 C44.133,246.211984 44.691,249.558984 45.779,252.710984 C46.755,255.499984 46.951,258.121984 46.421,260.994984 C45.612,265.429984 45.082,269.891984 44.384,274.326984 C44.077,276.167984 43.575,276.614984 41.734,276.865984 C41.204,276.948984 40.702,276.976984 40.172,276.976984 C34.509,276.976984 28.873,277.171984 23.21,276.558984 C17.91,276.000984 12.582,275.582984 7.253,275.135984 C6.639,275.079984 5.998,274.996984 5.384,274.968984 C4.157,274.912984 3.431,274.271984 3.152,273.127984 C2.594,270.784984 2.064,268.441984 1.618,266.070984 C0.474,259.571984 0.056,252.989984 0,246.350984 Z M5.44,209.978984 C5.858,209.476984 5.97,209.421984 5.998,209.337984 C6.444,208.054984 6.891,206.771984 7.337,205.488984 C12.526,190.510984 19.918,176.731984 29.961,164.402984 C38.33,154.166984 48.039,145.463984 59.616,138.992984 C67.734,134.446984 76.298,131.210984 85.588,130.067984 C87.15,129.871984 88.712,129.899984 90.275,129.871984 C90.47,129.871984 90.665,130.206984 90.833,130.373984 C90.609,130.569984 90.442,130.848984 90.191,130.959984 C89.8,131.099984 89.382,131.126984 88.964,131.182984 C76.828,133.358984 65.67,137.849984 55.487,144.822984 C47.564,150.233984 40.562,156.648984 34.313,163.956984 C26.084,173.607984 19.556,184.290984 14.534,195.921984 C7.532,212.126984 3.906,229.141984 3.794,246.852984 C3.766,251.148984 4.017,255.443984 4.436,259.711984 C4.798,263.448984 5.552,267.158984 6.193,270.868984 C6.416,272.234984 6.612,272.318984 8.118,272.402984 C13.363,272.681984 18.579,272.932984 23.824,273.183984 C25.303,273.266984 26.753,273.322984 28.204,273.434984 C32.165,273.713984 36.155,273.992984 40.116,274.271984 C41.009,274.326984 41.148,274.047984 40.702,273.127984 C40.367,272.458984 40.004,271.844984 39.697,271.175984 C38.526,268.608984 37.27,266.070984 36.266,263.420984 C33.476,256.141984 32.165,248.498984 31.3,240.772984 C30.073,229.894984 30.519,218.988984 32.026,208.165984 C33.951,194.331984 38.442,181.277984 45.333,169.144984 C50.466,160.107984 57.691,153.106984 67.092,148.420984 C77.693,143.120984 89.019,140.889984 100.736,140.470984 C105.144,140.303984 109.524,140.554984 113.903,140.945984 C121.491,141.586984 128.773,143.343984 135.83,146.077984 C145.343,149.759984 153.21,155.644984 159.32,163.844984 C161.384,166.634984 163.17,169.562984 164.732,172.686984 C169.865,182.951984 173.631,193.689984 175.612,205.014984 C176.755,211.624984 177.23,218.318984 177.369,225.013984 C177.536,233.631984 177.034,242.166984 175.361,250.646984 C173.938,257.870984 171.818,264.871984 168.33,271.398984 C167.996,272.039984 167.661,272.709984 167.326,273.350984 C167.131,273.796984 167.382,274.215984 167.856,274.215984 C168.47,274.187984 169.112,274.131984 169.725,274.103984 C174.858,273.796984 179.964,273.434984 185.097,273.155984 C190.118,272.876984 195.139,272.653984 200.161,272.402984 C200.356,272.402984 200.607,272.430984 200.775,272.346984 C201.109,272.151984 201.5,271.928984 201.667,271.593984 C201.918,271.035984 202.058,270.394984 202.17,269.780984 C203.09,265.038984 203.76,260.269984 204.039,255.471984 C204.597,246.043984 204.234,236.616984 202.7,227.272984 C200.719,215.334984 197.315,203.814984 192.182,192.825984 C184.762,177.093984 174.914,163.175984 161.663,151.767984 C154.215,145.380984 146.069,140.108984 136.974,136.342984 C131.144,133.944984 125.118,132.242984 118.925,131.126984 C118.339,131.015984 117.753,130.764984 117.167,130.541984 C117.112,130.513984 117.084,130.345984 117.084,130.262984 C117.084,130.178984 117.084,130.011984 117.112,130.011984 C117.502,129.927984 117.921,129.788984 118.339,129.788984 C122.245,129.704984 126.039,130.485984 129.805,131.433984 C139.485,133.832984 148.245,138.239984 156.363,143.957984 C169.056,152.883984 179.155,164.263984 187.384,177.372984 C193.159,186.549984 197.622,196.339984 201.137,206.603984 C201.5,207.663984 201.584,208.891984 202.504,209.727984 C202.56,209.504984 202.672,209.309984 202.644,209.142984 C202.253,202.671984 201.835,196.172984 201.472,189.701984 C201.054,182.281984 200.719,96.7359843 200.273,89.3169843 C200.133,87.1409843 199.882,84.9379843 199.436,82.7899843 C198.292,77.5738843 196.618,72.4974843 194.414,67.6162843 C189.783,57.3239843 183.674,47.9799843 176.17,39.5285843 C162.807,24.3829843 146.459,13.7838843 127.433,7.34068428 C119.567,4.69088428 111.421,3.24048428 103.052,3.37998428 C95.882,3.49148428 88.88,4.71878428 82.073,6.89438428 C63.549,12.8075843 47.536,22.7651843 34.174,36.9624843 C25.47,46.2227843 18.44,56.5429843 13.363,68.2020843 C10.043,75.8724843 7.923,83.7939843 7.56,92.1899843 C7.086,103.178984 6.361,192.239984 5.747,203.228984 C5.607,205.320984 5.552,207.412984 5.44,209.978984 Z M42.376,272.179984 C42.627,271.007984 42.878,270.003984 43.045,269.027984 C43.547,265.708984 43.854,262.388984 44.552,259.125984 C44.998,257.061984 44.663,255.248984 44.021,253.351984 C42.655,249.307984 41.204,245.262984 40.255,241.079984 C37.8,230.145984 35.931,219.127984 36.182,207.859984 C36.182,207.245984 36.182,206.631984 36.182,205.599984 C31.161,223.980984 33.644,253.072984 42.376,272.179984 Z M172.18,206.827984 C172.124,207.552984 172.069,208.277984 172.041,209.002984 C171.846,213.911984 171.678,218.820984 170.953,223.702984 C170.562,226.296984 170.255,228.890984 169.697,231.428984 C169.418,232.711984 170.59,233.659984 170.227,234.691984 C169.865,235.695984 168.721,236.281984 168.526,237.536984 C167.605,243.143984 165.764,248.470984 163.867,253.798984 C163.281,255.443984 163.142,257.033984 163.421,258.707984 C164.062,262.723984 164.648,266.768984 165.29,270.784984 C165.346,271.063984 165.513,271.314984 165.652,271.565984 C165.876,271.398984 166.21,271.258984 166.322,271.035984 C166.991,269.278984 167.689,267.521984 168.247,265.736984 C171.399,256.057984 173.408,246.183984 174.161,235.974984 C174.914,226.156984 174.161,216.422984 172.18,206.827984 Z" id="Shape" fill="#131B43"></path>
            <path d="M42.375,272.177984 C33.644,253.071984 31.161,223.979984 36.127,205.570984 C36.127,206.602984 36.127,207.216984 36.127,207.829984 C35.903,219.098984 37.745,230.115984 40.2,241.049984 C41.148,245.233984 42.599,249.277984 43.966,253.322984 C44.607,255.246984 44.942,257.031984 44.496,259.096984 C43.798,262.359984 43.491,265.706984 42.989,268.997984 C42.878,270.001984 42.627,270.978984 42.375,272.177984 Z" id="Path" fill="#718496"></path>
            <path d="M172.18,206.825984 C174.189,216.392984 174.914,226.127984 174.189,236.028984 C173.436,246.209984 171.427,256.111984 168.275,265.790984 C167.689,267.575984 167.019,269.332984 166.35,271.089984 C166.266,271.312984 165.931,271.424984 165.68,271.619984 C165.569,271.368984 165.373,271.117984 165.318,270.838984 C164.676,266.822984 164.09,262.777984 163.449,258.761984 C163.17,257.059984 163.309,255.469984 163.895,253.852984 C165.764,248.524984 167.633,243.197984 168.554,237.590984 C168.749,236.335984 169.893,235.750984 170.255,234.745984 C170.618,233.685984 169.446,232.737984 169.725,231.482984 C170.283,228.944984 170.59,226.322984 170.981,223.756984 C171.706,218.875984 171.873,213.966984 172.069,209.056984 C172.069,208.303984 172.124,207.550984 172.18,206.825984 Z" id="Path" fill="#718496"></path>
            <path d="M14.423,265.288984 C14.227,265.650984 14.172,265.929984 14.032,265.985984 C13.893,266.041984 13.586,265.957984 13.474,265.818984 C11.717,263.977984 10.433,261.885984 9.931,259.374984 C9.875,259.123984 10.043,258.705984 10.238,258.566984 C10.433,258.454984 10.908,258.482984 11.075,258.649984 C13.028,260.490984 14.088,262.777984 14.423,265.288984 Z" id="Path" fill="#131B43"></path>
            <path d="M182.335,155.336984 C182.167,155.559984 182.028,155.921984 181.777,155.977984 C181.526,156.061984 181.107,155.921984 180.94,155.754984 C179.768,154.499984 179.015,153.048984 178.959,151.319984 C178.959,151.096984 179.238,150.817984 179.461,150.677984 C179.573,150.594984 179.908,150.650984 180.047,150.761984 C181.526,151.877984 182.307,153.411984 182.335,155.336984 Z" id="Path" fill="#131B43"></path>
            <path d="M15.287,255.553984 C15.064,255.804984 14.953,256.027984 14.813,256.083984 C14.646,256.167984 14.367,256.167984 14.227,256.055984 C12.86,254.856984 11.912,253.378984 11.661,251.565984 C11.633,251.313984 11.828,250.979984 12.024,250.756984 C12.079,250.672984 12.442,250.756984 12.609,250.867984 C14.227,252.067984 14.785,253.824984 15.287,255.553984 Z" id="Path" fill="#131B43"></path>
            <path d="M5.44,209.977984 C5.551,207.411984 5.607,205.319984 5.747,203.227984 C6.36,192.237984 7.086,103.177984 7.56,92.1879843 C7.923,83.7919843 10.043,75.8708843 13.363,68.2283843 C18.44,56.5971843 25.47,46.2490843 34.174,36.9887843 C47.509,22.7915843 63.549,12.8339843 82.073,6.92078428 C88.88,4.74508428 95.91,3.51788428 103.051,3.40628428 C111.393,3.26678428 119.566,4.71718428 127.433,7.36698428 C146.487,13.7822843 162.807,24.4092843 176.169,39.4991843 C183.674,47.9784843 189.783,57.2944843 194.414,67.5868843 C196.618,72.4679843 198.264,77.5444843 199.436,82.7599843 C199.91,84.9079843 200.161,87.1119843 200.272,89.2869843 C200.719,96.7069843 201.054,182.252984 201.472,189.671984 C201.835,196.142984 202.253,202.641984 202.644,209.112984 C202.644,209.307984 202.56,209.475984 202.504,209.698984 C201.584,208.833984 201.5,207.634984 201.137,206.574984 C197.622,196.337984 193.159,186.519984 187.384,177.343984 C179.154,164.261984 169.056,152.881984 156.363,143.928984 C148.245,138.210984 139.485,133.803984 129.805,131.404984 C126.039,130.455984 122.245,129.674984 118.339,129.758984 C117.921,129.758984 117.53,129.898984 117.112,129.981984 C117.084,129.981984 117.056,130.149984 117.084,130.232984 C117.084,130.344984 117.112,130.483984 117.167,130.511984 C117.753,130.734984 118.311,130.985984 118.925,131.097984 C125.118,132.213984 131.172,133.914984 136.974,136.313984 C146.069,140.050984 154.215,145.322984 161.663,151.737984 C174.914,163.145984 184.762,177.064984 192.154,192.823984 C197.287,203.813984 200.719,215.332984 202.672,227.270984 C204.206,236.614984 204.569,246.042984 204.011,255.470984 C203.732,260.267984 203.062,265.065984 202.142,269.778984 C202.03,270.392984 201.89,271.034984 201.639,271.591984 C201.5,271.898984 201.081,272.121984 200.747,272.344984 C200.579,272.428984 200.328,272.400984 200.133,272.400984 C195.112,272.651984 190.09,272.874984 185.069,273.153984 C179.936,273.432984 174.83,273.795984 169.697,274.102984 C169.084,274.130984 168.442,274.213984 167.828,274.213984 C167.354,274.241984 167.103,273.795984 167.298,273.349984 C167.605,272.679984 167.94,272.038984 168.302,271.396984 C171.79,264.869984 173.91,257.896984 175.333,250.644984 C177.006,242.165984 177.509,233.630984 177.341,225.011984 C177.202,218.289984 176.755,211.623984 175.584,205.012984 C173.603,193.688984 169.837,182.949984 164.704,172.685984 C163.142,169.589984 161.384,166.632984 159.292,163.843984 C153.182,155.642984 145.315,149.757984 135.802,146.075984 C128.745,143.342984 121.463,141.585984 113.875,140.943984 C109.468,140.553984 105.088,140.302984 100.708,140.469984 C88.963,140.915984 77.665,143.119984 67.064,148.418984 C57.691,153.132984 50.438,160.105984 45.305,169.142984 C38.414,181.276984 33.923,194.329984 31.998,208.164984 C30.491,218.986984 30.045,229.864984 31.272,240.770984 C32.137,248.468984 33.448,256.111984 36.238,263.419984 C37.242,266.069984 38.498,268.579984 39.669,271.173984 C39.976,271.842984 40.367,272.456984 40.674,273.125984 C41.12,274.046984 40.981,274.325984 40.088,274.269984 C36.127,273.990984 32.137,273.711984 28.176,273.432984 C26.725,273.321984 25.247,273.265984 23.796,273.181984 C18.551,272.930984 13.335,272.679984 8.09,272.400984 C6.612,272.317984 6.416,272.233984 6.165,270.866984 C5.524,267.156984 4.77,263.447984 4.408,259.709984 C3.989,255.442984 3.738,251.146984 3.766,246.851984 C3.906,229.139984 7.532,212.125984 14.534,195.863984 C19.556,184.260984 26.084,173.549984 34.313,163.899984 C40.534,156.619984 47.536,150.175984 55.487,144.764984 C65.669,137.819984 76.856,133.301984 88.963,131.125984 C89.382,131.041984 89.8,131.041984 90.191,130.902984 C90.442,130.818984 90.609,130.511984 90.833,130.316984 C90.637,130.149984 90.442,129.814984 90.275,129.814984 C88.712,129.842984 87.122,129.814984 85.588,130.009984 C76.326,131.181984 67.734,134.416984 59.616,138.935984 C48.039,145.406984 38.33,154.108984 29.961,164.345984 C19.918,176.645984 12.526,190.424984 7.337,205.430984 C6.89,206.713984 6.444,207.997984 5.998,209.280984 C5.97,209.419984 5.858,209.475984 5.44,209.977984 Z M14.423,265.288984 C14.088,262.805984 13.028,260.490984 11.075,258.649984 C10.908,258.482984 10.433,258.454984 10.238,258.566984 C10.043,258.705984 9.875,259.123984 9.931,259.374984 C10.433,261.885984 11.717,264.005984 13.474,265.818984 C13.586,265.957984 13.893,266.041984 14.032,265.985984 C14.172,265.929984 14.227,265.650984 14.423,265.288984 Z M182.335,155.336984 C182.279,153.411984 181.526,151.877984 180.047,150.705984 C179.908,150.594984 179.601,150.538984 179.461,150.622984 C179.238,150.789984 178.959,151.068984 178.959,151.263984 C179.015,152.993984 179.768,154.471984 180.94,155.698984 C181.107,155.893984 181.526,156.005984 181.777,155.921984 C182.028,155.921984 182.167,155.559984 182.335,155.336984 Z M15.287,255.553984 C14.785,253.824984 14.227,252.039984 12.609,250.839984 C12.47,250.728984 12.107,250.672984 12.024,250.728984 C11.828,250.951984 11.633,251.286984 11.661,251.537984 C11.912,253.378984 12.833,254.828984 14.227,256.027984 C14.339,256.139984 14.646,256.111984 14.813,256.055984 C14.953,256.027984 15.064,255.832984 15.287,255.553984 Z" id="Shape" fill="#94A9BF"></path>
            <path d="M117.893,130.846984 C117.642,130.762984 117.391,130.651984 117.167,130.567984 C117.112,130.539984 117.084,130.372984 117.084,130.288984 C117.084,130.205984 117.084,130.037984 117.112,130.037984 C117.502,129.954984 117.921,129.814984 118.339,129.814984 C122.245,129.730984 126.039,130.511984 129.805,131.460984 C139.485,133.858984 148.245,138.265984 156.363,143.983984 C156.67,144.207984 156.976,144.430984 157.283,144.653984 C157.283,139.548984 157.283,46.7512843 157.283,41.0054843 C157.283,34.2554843 150.755,16.5995843 132.539,9.23588428 C132.092,9.06858428 131.646,8.90118428 131.172,8.73388428 C131.032,8.67808428 130.893,8.62228428 130.725,8.56648428 C130.502,8.48288428 130.307,8.42708428 130.084,8.34338428 C129.833,8.25968428 129.582,8.17598428 129.358,8.09238428 C128.717,7.86918428 128.075,7.64608428 127.406,7.42288428 C119.539,4.77318428 111.393,3.32268428 103.024,3.46218428 C95.854,3.57378428 88.852,4.80098428 82.045,6.97668428 C63.521,12.8898843 47.509,22.8474843 34.146,37.0446843 C25.442,46.3049843 18.412,56.6251843 13.335,68.2842843 C10.043,75.8709843 7.923,83.7919843 7.56,92.1879843 C7.086,103.177984 6.361,192.237984 5.747,203.227984 C5.635,205.319984 5.552,207.411984 5.44,209.977984 C5.858,209.475984 5.97,209.419984 5.998,209.335984 C6.444,208.052984 6.891,206.769984 7.337,205.486984 C12.526,190.508984 19.918,176.729984 29.961,164.401984 C38.331,154.164984 48.039,145.462984 59.616,138.991984 C67.734,134.444984 76.298,131.209984 85.588,130.065984 C87.15,129.870984 88.712,129.898984 90.275,129.870984 C90.47,129.870984 90.665,130.205984 90.833,130.372984 C101.182,129.563984 110.165,129.870984 117.893,130.846984 Z" id="Path" fill="#BACCDB"></path>
        </g>
    </g>
</svg>