<svg width="652" height="3200" viewBox="0 0 652 3200" xmlns="http://www.w3.org/2000/svg" xmlns:xlink="http://www.w3.org/1999/xlink"><defs><path id="a" d="M0 0h652v3200H0z"/></defs><g fill="none" fill-rule="evenodd"><mask id="b" fill="#fff"><use xlink:href="#a"/></mask><g mask="url(#b)" fill-rule="nonzero"><path d="M461.977 761.129a2.078 2.078 0 00-2.085 2.09v167.859c0 1.161.926 2.09 2.085 2.09h.334a2.08 2.08 0 002.085-2.09V763.245c0-1.161-.927-2.09-2.085-2.09h-.334v-.026z" fill="#FFF"/><path fill="#BACCDB" d="M429.792 848.633h25.688V825.67h-25.688z"/><path fill="#718496" d="M455.49 843.562h-25.688v5.057h25.688z"/><path d="M429.802 850.452h25.688c1.004 0 1.802-.8 1.802-1.806v-22.963a1.793 1.793 0 00-1.802-1.806h-25.688c-1.004 0-1.802.8-1.802 1.806v22.963c0 .98.798 1.806 1.802 1.806zm23.887-3.612h-22.085v-19.351h22.085v19.351z" fill="#131B43"/><path d="M442.465 837.164h.335a3.86 3.86 0 003.861-3.87v-95.617a3.86 3.86 0 00-3.861-3.87h-.335a3.86 3.86 0 00-3.861 3.87v95.617a3.86 3.86 0 003.861 3.87z" fill="#94A9BF"/><path d="M442.466 838.97h.334c3.115 0 5.663-2.554 5.663-5.676v-95.618c0-3.122-2.548-5.676-5.663-5.676h-.334c-3.115 0-5.663 2.554-5.663 5.676v95.618c0 3.122 2.548 5.676 5.663 5.676zm.334-103.358c1.133 0 2.059.929 2.059 2.064v95.618a2.067 2.067 0 01-2.059 2.064h-.334a2.068 2.068 0 01-2.06-2.064v-95.618c0-1.135.927-2.064 2.06-2.064h.334zM429.802 842.4l2.368.078 7.851.18 7.85.233c5.225.154 5.225 1.186 0 1.367l-7.85.232-7.851.181-2.368.077V842.4z" fill="#131B43"/><path fill="#131B43" d="M446.655 795.578h12.484v-10.294h-12.484z"/><path d="M462.338 759.89h-.361a3.86 3.86 0 00-3.861 3.87v10.837l8.057 6.837v-17.673c.026-2.142-1.725-3.87-3.835-3.87zM458.116 891.191l8.083 6.838v-19.532l-8.083-6.837zM458.116 929.324c0 .284.026.542.077.8l3.604 3.045h.515a3.86 3.86 0 003.861-3.87v-11.946l-8.057-6.837v18.808zM458.116 813.453l8.083 6.863v-19.531l-8.083-6.863zM458.116 852.334l8.083 6.837V839.64l-8.083-6.837z" fill="#DC0032"/><path d="M462.338 934.999h-.361c-3.114 0-5.663-2.554-5.663-5.676V763.76c0-3.122 2.549-5.676 5.663-5.676h.335c3.114 0 5.663 2.554 5.663 5.676v165.563c.025 3.122-2.523 5.676-5.637 5.676zm-.361-173.303a2.068 2.068 0 00-2.059 2.064v165.563c0 1.136.927 2.064 2.059 2.064h.335a2.067 2.067 0 002.059-2.064V763.76a2.068 2.068 0 00-2.059-2.064h-.335z" fill="#131B43"/><path d="M442.646 740.385c1.236 0 2.239-1.19 2.239-2.657 0-1.468-1.003-2.658-2.239-2.658-1.237 0-2.24 1.19-2.24 2.658s1.003 2.657 2.24 2.657zM239.998 810.059c1.158 0 2.085.933 2.085 2.1v168.674c0 1.166-.927 2.1-2.085 2.1h-.335a2.084 2.084 0 01-2.085-2.1V812.185c0-1.167.927-2.1 2.085-2.1h.335v-.026z" fill="#FFF"/><path fill="#BACCDB" d="M272.198 992.137H246.51v23.074h25.688z"/><path fill="#718496" d="M272.198 1010.104H246.51v5.081h25.688z"/><path d="M272.198 1017.001H246.51a1.797 1.797 0 01-1.802-1.815v-23.074c0-1.011.798-1.815 1.802-1.815h25.688c1.004 0 1.802.804 1.802 1.815v23.074a1.814 1.814 0 01-1.802 1.815zm-23.886-3.63h22.085v-19.444h-22.085v19.444z" fill="#131B43"/><path d="M259.508 1003.648h-.334c-2.137 0-3.861-1.737-3.861-3.889v-96.056c0-2.152 1.724-3.889 3.86-3.889h.335c2.137 0 3.861 1.737 3.861 3.889v96.082c.026 2.126-1.725 3.863-3.86 3.863z" fill="#94A9BF"/><path d="M259.508 1005.463h-.334c-3.115 0-5.663-2.567-5.663-5.704v-96.055c0-3.137 2.548-5.704 5.662-5.704h.335c3.115 0 5.663 2.567 5.663 5.704v96.081c.026 3.137-2.523 5.678-5.663 5.678zm-.334-103.833c-1.133 0-2.06.933-2.06 2.074v96.081c0 1.141.927 2.074 2.06 2.074h.334c1.133 0 2.06-.933 2.06-2.074v-96.081a2.073 2.073 0 00-2.06-2.074h-.334zM272.198 1008.938l-2.368.077-7.85.182-7.851.233c-5.225.156-5.225 1.193 0 1.374l7.85.233 7.851.182 2.368.078v-2.359z" fill="#131B43"/><path fill="#131B43" d="M255.313 951.537h-12.484v10.345h12.484z"/><path d="M239.663 808.814h.334c2.137 0 3.861 1.737 3.861 3.889v10.889l-8.056 6.871v-17.76c0-2.152 1.724-3.889 3.86-3.889zM243.858 940.751l-8.056 6.87v-19.626l8.056-6.87zM243.858 979.07c0 .285-.025.544-.077.804l-3.603 3.059h-.515c-2.137 0-3.861-1.737-3.861-3.889V967.04l8.056-6.87v18.9zM243.858 862.638l-8.056 6.896v-19.626l8.056-6.896zM243.858 901.708l-8.056 6.87v-19.626l8.056-6.87z" fill="#DC0032"/><path d="M239.663 984.774h.334c3.115 0 5.663-2.567 5.663-5.704V812.704c0-3.137-2.548-5.704-5.663-5.704h-.334c-3.115 0-5.663 2.567-5.663 5.704V979.07c0 3.137 2.548 5.704 5.663 5.704zm.334-174.144c1.133 0 2.06.933 2.06 2.074V979.07a2.073 2.073 0 01-2.06 2.074h-.334a2.073 2.073 0 01-2.06-2.074V812.704c0-1.141.927-2.074 2.06-2.074h.334z" fill="#131B43"/><path d="M259.354 906.399c1.236 0 2.239-1.195 2.239-2.67 0-1.475-1.003-2.67-2.24-2.67-1.236 0-2.239 1.195-2.239 2.67 0 1.475 1.003 2.67 2.24 2.67z" fill="#FFF"/><path d="M460 711.8v31.778c0 1.298-.026 2.596-.078 3.92 0 .364-.052.727-.156 1.065-.259.83-.882 1.194-1.739 1.09-.572-.078-1.143-.156-1.714-.156-8.828 0-17.656.026-26.458.052-.831 0-1.661 0-2.492-.052-1.247-.077-1.74-.545-1.922-1.765a10.903 10.903 0 01-.155-1.843c-.104-14.306-.208-28.585-.182-42.89 0-7.452-.234-26.197 0-27.807.156-1.194 1.194-1.61 2.389-1.687 1.947-.156 3.946-.156 5.893-.182 3.038-.052 18.228-.234 23.005-.311.337 0 .649-.026.987 0 1.012.077 1.687.856 1.791 1.869.104.857.104 1.74.13 2.596.182 5.582.389 11.138.519 16.72.104 5.79.13 11.58.182 17.603zm-31.754-1.74c.077 4.102.155 7.01.155 9.892.026 8.334.026 16.642.052 24.976v.857c-.026.441.208.571.597.571h.442c7.867.13 15.76.26 23.627.364.987.026 1.948 0 2.934.052.52.025.727-.13.701-.676-.026-.856-.026-1.74-.026-2.596-.025-6.958-.103-13.89-.103-20.848 0-11.294.026-22.587.026-33.881 0-.286 0-.571.026-.857.026-.39-.182-.467-.546-.441-1.142.078-2.311.13-3.453.13-6.906.051-13.813-.052-20.694-.468-.259-.026-.519-.026-.753-.078-.337-.078-.934-.26-.934-.337.052-.494.571-.208.857-.39.155-.078.337-.078.519-.078 2.544-.207 5.115-.519 7.659-.623 5.531-.207 11.061-.337 16.592-.467.753-.026.753 0 .804-.779.13-2.7.208-5.426.338-8.126.026-.493-.156-.65-.623-.623-1.48.078-2.96.156-4.44.182-6.803.181-13.579.337-20.382.493-1.039.026-2.103 0-3.142 0-.779 0-.805 0-.805.753.026 1.583.078 3.193.104 4.777.156 7.191.312 14.41.442 21.6.052 2.623.026 5.22.026 6.621z" fill="#131B43"/><path d="M428.245 710.06c0-1.402.026-3.999 0-6.595-.129-7.192-.285-14.41-.441-21.601-.026-1.584-.104-3.193-.104-4.777 0-.753.026-.753.805-.753 1.039 0 2.103.026 3.142 0 6.802-.156 13.579-.312 20.382-.493 1.48-.026 2.96-.104 4.44-.182.467-.026.649.13.623.623-.13 2.7-.234 5.426-.338 8.126-.026.78-.052.753-.805.78-5.53.155-11.06.259-16.591.467-2.544.103-5.115.389-7.659.623-.182.026-.39 0-.52.078-.285.181-.804-.104-.856.389 0 .078.597.234.934.337.234.052.494.052.753.078 6.907.416 13.787.52 20.694.468 1.142 0 2.311-.052 3.453-.13.364-.026.545.026.545.441 0 .286-.026.571-.026.857 0 11.294-.026 22.588-.026 33.881 0 6.958.078 13.89.104 20.848 0 .857 0 1.74.026 2.597.026.545-.181.7-.701.675-.986-.052-1.947-.026-2.934-.052-7.867-.13-15.76-.26-23.627-.364h-.442c-.389.026-.623-.13-.597-.57.026-.287 0-.572 0-.858 0-8.334-.026-16.642-.052-24.976-.026-2.934-.13-5.815-.182-9.918z" fill="#585E92"/><path d="M441.332 695.183c-.727.286-1.325.494-1.922.727-2.804 1.117-4.933 2.96-6.075 5.842a1.695 1.695 0 00-.104.545c2.077-3.53 5.141-5.582 9.191-5.634 4.077-.078 7.296 1.766 9.581 5.245-.156-.338-.286-.701-.467-1.039-1.428-2.57-3.506-4.388-6.31-5.322-.311-.104-.597-.286-.908-.442.285-.441.727-.26 1.064-.207 4.102.649 8.283 3.479 8.828 8.75.389 3.868-1.039 7.06-3.765 9.631-1.739 1.636-3.92 2.519-6.309 2.882-1.999.312-3.947.156-5.894-.415-4.025-1.195-8.283-5.167-7.53-11.372.416-3.401 2.311-6.023 5.323-7.763 1.532-.908 3.635-1.558 5.297-1.428zm2.596 3.142c-3.531 0-5.686.908-7.478 2.622-1.038.987-1.48 2.103-1.35 3.583.39 4.336 4.57 7.555 8.828 6.646 3.375-.727 5.427-2.986 6.725-6.049.285-.65.208-1.35-.13-2-1.532-3.089-4.05-4.698-6.595-4.802zm-10.074 8.801c-.078 2.155.363 3.894 2.129 5.244 4.362 3.272 10.074 2.493 13.865-1.142.701-.675.935-1.61 1.09-2.544-4.985 6.49-14.046 5.712-17.084-1.558z" fill="#131B43"/><path d="M443.928 698.324c2.545.104 5.063 1.714 6.595 4.803.338.65.39 1.35.13 2-1.298 3.063-3.35 5.322-6.725 6.049-4.258.908-8.438-2.31-8.828-6.647-.13-1.48.312-2.57 1.35-3.583 1.792-1.713 3.947-2.622 7.478-2.622zm-.883 9.503c-.026-.234-.026-.39-.078-.52-.701-1.687-1.635-3.193-3.115-4.31-.286-.233-.701-.545-1.065-.233-.441.39-.078.805.13 1.142.857 1.376 1.895 2.622 3.142 3.66.181.157.415.312.623.39.104.026.259-.104.363-.13zm1.376-4.44c-.441-.026-.727.415-.467.753.623.857 1.324 1.687 1.999 2.492.104.13.39.078.572.13 0-.208.103-.441.026-.597a39.101 39.101 0 00-1.584-2.415c-.13-.181-.39-.26-.546-.363z" fill="#DC0032"/><path d="M433.854 707.127c3.038 7.27 12.1 8.048 17.085 1.558-.156.934-.39 1.869-1.091 2.544-3.791 3.635-9.477 4.414-13.865 1.142-1.765-1.35-2.207-3.115-2.129-5.244z" fill="#D67B72"/><path d="M443.045 707.828c-.104.052-.259.181-.363.13-.234-.078-.442-.234-.623-.39-1.247-1.038-2.285-2.285-3.142-3.66-.208-.338-.571-.78-.13-1.143.364-.312.779.026 1.065.234 1.48 1.116 2.414 2.622 3.115 4.31.052.13.026.285.078.519zM444.422 703.388c.155.104.415.207.545.39a39.07 39.07 0 011.584 2.414c.078.13 0 .39-.026.597-.208-.026-.468 0-.571-.13a36.17 36.17 0 01-2-2.492c-.259-.364.026-.805.468-.78zM456.442 675.659c-1.48.078-2.96.156-4.44.182a5333.9 5333.9 0 01-20.382.493c-1.038.026-2.103 0-3.141 0-.779 0-.805 0-.805.753.026 1.584.078 3.193.104 4.777.026 1.636.078 3.271.104 4.907h2.362c.052-.493.572-.208.857-.39.156-.077.338-.077.519-.077 2.545-.208 5.115-.52 7.66-.623 5.53-.208 11.061-.338 16.591-.468.753-.026.753 0 .805-.779.13-2.7.208-5.426.338-8.126.052-.52-.13-.675-.572-.649zM433.334 701.726a1.695 1.695 0 00-.104.545c2.078-3.53 5.141-5.582 9.192-5.633 4.076-.078 7.296 1.765 9.581 5.244-.156-.338-.286-.701-.468-1.039-1.428-2.57-3.505-4.387-6.309-5.322-.312-.104-.597-.286-.909-.441 0 0-1.324-.026-3.012.13-.727.285-1.324.493-1.921.726-2.778 1.091-4.907 2.934-6.05 5.79z" fill="#FFF"/><path d="M441.332 719.666c-.727.285-1.325.493-1.922.727-2.804 1.116-4.933 2.96-6.075 5.841a1.696 1.696 0 00-.104.545c2.077-3.53 5.141-5.582 9.191-5.633 4.077-.078 7.296 1.765 9.581 5.244-.156-.337-.286-.701-.467-1.038-1.428-2.57-3.506-4.388-6.31-5.323-.311-.104-.597-.285-.908-.441.285-.442.727-.26 1.064-.208 4.102.65 8.283 3.48 8.828 8.75.389 3.868-1.039 7.061-3.765 9.632-1.739 1.635-3.92 2.518-6.309 2.881-1.999.312-3.947.156-5.894-.415-4.025-1.194-8.283-5.167-7.53-11.372.416-3.4 2.311-6.023 5.323-7.762 1.532-.91 3.635-1.558 5.297-1.428zm2.596 3.141c-3.531 0-5.686.909-7.478 2.622-1.038.987-1.48 2.103-1.35 3.583.39 4.336 4.57 7.555 8.828 6.647 3.375-.727 5.427-2.986 6.725-6.05.285-.649.208-1.35-.13-1.999-1.532-3.09-4.05-4.673-6.595-4.803zm-10.074 8.801c-.078 2.155.363 3.895 2.129 5.245 4.362 3.271 10.074 2.492 13.839-1.142.701-.675.935-1.61 1.091-2.545-4.96 6.49-14.021 5.712-17.059-1.558z" fill="#131B43"/><path d="M443.928 722.809c2.545.103 5.063 1.713 6.595 4.803.338.649.39 1.35.13 1.999-1.298 3.063-3.35 5.322-6.725 6.05-4.258.908-8.438-2.312-8.828-6.647-.13-1.48.312-2.57 1.35-3.583 1.792-1.714 3.947-2.596 7.478-2.622zm-.883 9.502c-.026-.234-.026-.39-.078-.52-.701-1.687-1.635-3.193-3.115-4.31-.286-.233-.701-.544-1.065-.233-.441.39-.078.805.13 1.143.857 1.376 1.895 2.622 3.142 3.66.181.156.415.312.623.39.104.052.259-.078.363-.13zm1.376-4.44c-.441-.026-.727.416-.467.753.623.857 1.324 1.688 1.999 2.493.104.13.39.077.572.13 0-.208.103-.442.026-.598a39.101 39.101 0 00-1.584-2.414c-.13-.156-.39-.26-.546-.364z" fill="#585E92"/><path d="M433.854 731.61c3.038 7.269 12.1 8.048 17.085 1.557-.156.935-.39 1.87-1.091 2.544-3.791 3.635-9.477 4.414-13.865 1.143-1.765-1.35-2.207-3.09-2.129-5.245z" fill="#CFC7F8"/><path d="M443.045 732.31c-.104.052-.259.182-.363.13-.234-.078-.442-.234-.623-.39-1.247-1.038-2.285-2.284-3.142-3.66-.208-.338-.571-.78-.13-1.143.364-.311.779.026 1.065.234 1.48 1.116 2.414 2.622 3.115 4.31.052.13.026.285.078.52zM444.422 727.87c.155.104.415.208.545.39.545.779 1.09 1.583 1.584 2.414.078.13 0 .39-.026.597-.208-.026-.468 0-.571-.13a36.17 36.17 0 01-2-2.492c-.259-.363.026-.805.468-.779zM433.334 726.234a1.695 1.695 0 00-.104.545c2.078-3.53 5.141-5.582 9.192-5.634 4.076-.078 7.296 1.766 9.581 5.245-.156-.338-.286-.701-.468-1.039-1.428-2.57-3.505-4.387-6.309-5.322-.312-.104-.597-.286-.909-.441 0 0-1.324-.026-3.012.13-.727.285-1.324.493-1.921.726-2.778 1.09-4.907 2.934-6.05 5.79z" fill="#FFF"/></g></g></svg>
